<?xml version="1.0" encoding="UTF-8"?>
  <!DOCTYPE svg PUBLIC "-//W3C//DTD SVG 1.0//EN" "http://www.w3.org/TR/2001/REC-SVG-20010904/DTD/svg10.dtd" [
  <!ATTLIST g xmlns:kvg CDATA #FIXED "http://kanjivg.tagaini.net" kvg:element CDATA #IMPLIED kvg:variant CDATA #IMPLIED kvg:partial CDATA #IMPLIED kvg:original CDATA #IMPLIED kvg:part CDATA #IMPLIED kvg:number CDATA #IMPLIED kvg:tradForm CDATA #IMPLIED kvg:radicalForm CDATA #IMPLIED kvg:position CDATA #IMPLIED kvg:radical CDATA #IMPLIED kvg:phon CDATA #IMPLIED >
  <!ATTLIST path xmlns:kvg CDATA #FIXED "http://kanjivg.tagaini.net" kvg:type CDATA #IMPLIED >
  ]>
  <svg xmlns="http://www.w3.org/2000/svg" width="109" height="109" viewBox="0 0 109 109">
<g id="kvg:StrokePaths_0304a" style="fill:none;stroke:#000000;stroke-width:3;stroke-linecap:round;stroke-linejoin:round;">
<g id="kvg:0304a" kvg:element="ãŠ">
	<path style="fill:none;stroke:#808080" id="kvg:0304a-s1" d="M22.88,35.12c1.38,1,3.62,2.38,6,2.12c2.38-0.26,19.62-5.12,21.12-5.74c1.5-0.62,4-1.25,5.88-2"/>
	<path style="fill:none;stroke-width:4;" id="kvg:0304a-s2" d="M41.5,16.12c2.25,1,3.59,4.39,3.12,7.38c-2.5,16.12-3.37,45.53-2.25,58.38c0.75,8.62-0.64,10.45-7.12,7.12c-5.13-2.62-13.75-8-13.75-12.38c0-7.5,24.38-23.62,44.75-23.62c17.25,0,25,8.25,25,17.25c0,8.25-9.38,18.88-26.75,21"/>
<circle cx="41.5" cy="16.12" r="5" style="fill:red;stroke:red;" />
</g>
</g></svg>