<?xml version="1.0" encoding="UTF-8"?>
  <!DOCTYPE svg PUBLIC "-//W3C//DTD SVG 1.0//EN" "http://www.w3.org/TR/2001/REC-SVG-20010904/DTD/svg10.dtd" [
  <!ATTLIST g xmlns:kvg CDATA #FIXED "http://kanjivg.tagaini.net" kvg:element CDATA #IMPLIED kvg:variant CDATA #IMPLIED kvg:partial CDATA #IMPLIED kvg:original CDATA #IMPLIED kvg:part CDATA #IMPLIED kvg:number CDATA #IMPLIED kvg:tradForm CDATA #IMPLIED kvg:radicalForm CDATA #IMPLIED kvg:position CDATA #IMPLIED kvg:radical CDATA #IMPLIED kvg:phon CDATA #IMPLIED >
  <!ATTLIST path xmlns:kvg CDATA #FIXED "http://kanjivg.tagaini.net" kvg:type CDATA #IMPLIED >
  ]>
  <svg xmlns="http://www.w3.org/2000/svg" width="109" height="109" viewBox="0 0 109 109">
<g id="kvg:StrokePaths_0307b" style="fill:none;stroke:#000000;stroke-width:3;stroke-linecap:round;stroke-linejoin:round;">
<g id="kvg:0307b" kvg:element="ã»">
	<path style="fill:none;stroke:#808080" id="kvg:0307b-s1" d="M24.51,18.75c1.25,1.5,2.15,4,1.62,6.62c-3.5,17.63-6.98,37.4-4,55.88c2.5,15.5,1.12,2,5.62-6.25"/>
	<path style="fill:none;stroke:#808080" id="kvg:0307b-s2" d="M53.08,21.13c1.9,1.28,3.82,1.76,6.14,1.4c7.36-1.17,13.73-2.4,18.41-3.73c2.46-0.7,4.69-1.05,6.13-1.05"/>
	<path style="fill:none;stroke-width:4;" id="kvg:0307b-s3" d="M53.83,44.3c2.21,1.44,4.46,1.98,7.16,1.57c8.59-1.31,15.78-2.44,21.23-3.94c2.87-0.79,5.72-1.18,7.41-1.18"/>
<circle cx="53.83" cy="44.3" r="5" style="fill:red;stroke:red;" />
</g>
</g></svg>