<?xml version="1.0" encoding="UTF-8"?>
  <!DOCTYPE svg PUBLIC "-//W3C//DTD SVG 1.0//EN" "http://www.w3.org/TR/2001/REC-SVG-20010904/DTD/svg10.dtd" [
  <!ATTLIST g xmlns:kvg CDATA #FIXED "http://kanjivg.tagaini.net" kvg:element CDATA #IMPLIED kvg:variant CDATA #IMPLIED kvg:partial CDATA #IMPLIED kvg:original CDATA #IMPLIED kvg:part CDATA #IMPLIED kvg:number CDATA #IMPLIED kvg:tradForm CDATA #IMPLIED kvg:radicalForm CDATA #IMPLIED kvg:position CDATA #IMPLIED kvg:radical CDATA #IMPLIED kvg:phon CDATA #IMPLIED >
  <!ATTLIST path xmlns:kvg CDATA #FIXED "http://kanjivg.tagaini.net" kvg:type CDATA #IMPLIED >
  ]>
  <svg xmlns="http://www.w3.org/2000/svg" width="109" height="109" viewBox="0 0 109 109">
<g id="kvg:StrokePaths_03080" style="fill:none;stroke:#000000;stroke-width:3;stroke-linecap:round;stroke-linejoin:round;">
<g id="kvg:03080" kvg:element="む">
	<path style="fill:none;stroke:#808080" id="kvg:03080-s1" d="M19.59,31.65c2.1,1.55,4.24,1.66,6.81,1.21c8.17-1.41,15.33-2.98,23.19-4.96c2.76-0.69,5.44-1.27,7.05-1.27"/>
	<path style="fill:none;stroke-width:4;" id="kvg:03080-s2" d="M37.02,15.5c1.62,1.25,2.31,2.88,2.12,5.25c-0.88,11.12-1.5,20.75-4,34.88c-3.61,20.44-19.25,16.99-18.62,7.37c0.5-7.74,6.25-12.86,12.62-13.5c5-0.5,14.28,1.93,5.88,15c-12.62,19.62-11.42,24.51,5.11,25.54c10.98,0.68,19.26,0.72,28.49-0.92c14.15-2.5,7.4-2.63,7.4-11.13"/>
<circle cx="37.02" cy="15.5" r="5" style="fill:red;stroke:red;" />
</g>
</g></svg>