<?xml version="1.0" encoding="UTF-8"?>
  <!DOCTYPE svg PUBLIC "-//W3C//DTD SVG 1.0//EN" "http://www.w3.org/TR/2001/REC-SVG-20010904/DTD/svg10.dtd" [
  <!ATTLIST g xmlns:kvg CDATA #FIXED "http://kanjivg.tagaini.net" kvg:element CDATA #IMPLIED kvg:variant CDATA #IMPLIED kvg:partial CDATA #IMPLIED kvg:original CDATA #IMPLIED kvg:part CDATA #IMPLIED kvg:number CDATA #IMPLIED kvg:tradForm CDATA #IMPLIED kvg:radicalForm CDATA #IMPLIED kvg:position CDATA #IMPLIED kvg:radical CDATA #IMPLIED kvg:phon CDATA #IMPLIED >
  <!ATTLIST path xmlns:kvg CDATA #FIXED "http://kanjivg.tagaini.net" kvg:type CDATA #IMPLIED >
  ]>
  <svg xmlns="http://www.w3.org/2000/svg" width="109" height="109" viewBox="0 0 109 109">
<g id="kvg:StrokePaths_04e26" style="fill:none;stroke:#000000;stroke-width:3;stroke-linecap:round;stroke-linejoin:round;">
<g id="kvg:04e26" kvg:element="並">
	<g id="kvg:04e26-g1" kvg:position="top">
		<g id="kvg:04e26-g2" kvg:element="八" kvg:variant="true" kvg:radical="nelson">
			<path style="fill:none;stroke:#808080" id="kvg:04e26-s1" kvg:type="㇔" d="M34.77,17.84c3.56,2.48,9.2,9.7,10.09,13.56"/>
			<path style="fill:none;stroke:#808080" id="kvg:04e26-s2" kvg:type="㇒" d="M69.52,14.01c0.08,1.19-0.03,1.87-0.52,2.98c-2.05,4.61-5.25,9.76-11.34,17.11"/>
		</g>
		<g id="kvg:04e26-g3" kvg:element="一" kvg:radical="tradit">
			<path style="fill:none;stroke:#808080" id="kvg:04e26-s3" kvg:type="㇐" d="M24.25,39.65c3,0.6,5.46,0.3,8,0c10.37-1.23,34.22-4.13,44.25-4.9c2.37-0.18,4.67-0.32,6.99,0.25"/>
		</g>
	</g>
	<g id="kvg:04e26-g4" kvg:element="业" kvg:position="bottom">
		<path style="fill:none;stroke-width:4;" id="kvg:04e26-s4" kvg:type="㇑a" d="M43.37,41.25c0.94,0.94,1.46,2.38,1.46,3.75c0,1.02-0.08,38.62-0.08,45.75"/>
<circle cx="43.37" cy="41.25" r="5" style="fill:red;stroke:red;" />
	</g>
</g>
</g></svg>