<?xml version="1.0" encoding="UTF-8"?>
  <!DOCTYPE svg PUBLIC "-//W3C//DTD SVG 1.0//EN" "http://www.w3.org/TR/2001/REC-SVG-20010904/DTD/svg10.dtd" [
  <!ATTLIST g xmlns:kvg CDATA #FIXED "http://kanjivg.tagaini.net" kvg:element CDATA #IMPLIED kvg:variant CDATA #IMPLIED kvg:partial CDATA #IMPLIED kvg:original CDATA #IMPLIED kvg:part CDATA #IMPLIED kvg:number CDATA #IMPLIED kvg:tradForm CDATA #IMPLIED kvg:radicalForm CDATA #IMPLIED kvg:position CDATA #IMPLIED kvg:radical CDATA #IMPLIED kvg:phon CDATA #IMPLIED >
  <!ATTLIST path xmlns:kvg CDATA #FIXED "http://kanjivg.tagaini.net" kvg:type CDATA #IMPLIED >
  ]>
  <svg xmlns="http://www.w3.org/2000/svg" width="109" height="109" viewBox="0 0 109 109">
<g id="kvg:StrokePaths_04e57" style="fill:none;stroke:#000000;stroke-width:3;stroke-linecap:round;stroke-linejoin:round;">
<g id="kvg:04e57" kvg:element="乗">
	<g id="kvg:04e57-g1" kvg:element="千" kvg:part="1">
		<g id="kvg:04e57-g2" kvg:element="丿" kvg:radical="general">
			<path style="fill:none;stroke:#808080" id="kvg:04e57-s1" kvg:type="㇒" d="M68.21,10.39c-0.33,0.98-0.83,1.61-1.87,2.11c-4.32,2.09-17.96,6.87-33.78,9.72"/>
		</g>
		<g id="kvg:04e57-g3" kvg:element="十" kvg:part="1">
			<path style="fill:none;stroke:#808080" id="kvg:04e57-s2" kvg:type="㇐" d="M24,32.7c2.01,0.54,5.71,0.51,7.71,0.29c14.85-1.62,30.99-3.62,45-4.23c3.35-0.15,5.36,0.26,7.04,0.53"/>
		</g>
	</g>
	<path style="fill:none;stroke:#808080" id="kvg:04e57-s3" kvg:type="㇐" d="M14.5,47.95c2.47,0.54,7,0.46,9.46,0.29c16.04-1.12,39.16-3.62,59.27-4.48c4.11-0.18,6.58,0.26,8.64,0.53"/>
	<path style="fill:none;stroke-width:4;" id="kvg:04e57-s4" kvg:type="㇑a" d="M34.81,36.63c1.28,1.28,1.82,2.13,2.01,3.5c0.93,6.62,1.53,16.82,1.93,21.12"/>
<circle cx="34.81" cy="36.63" r="5" style="fill:red;stroke:red;" />
	<g id="kvg:04e57-g4" kvg:element="木">
		<g id="kvg:04e57-g5" kvg:element="千" kvg:part="2">
			<g id="kvg:04e57-g6" kvg:element="十" kvg:part="2">
			</g>
		</g>
	</g>
</g>
</g></svg>