<?xml version="1.0" encoding="UTF-8"?>
  <!DOCTYPE svg PUBLIC "-//W3C//DTD SVG 1.0//EN" "http://www.w3.org/TR/2001/REC-SVG-20010904/DTD/svg10.dtd" [
  <!ATTLIST g xmlns:kvg CDATA #FIXED "http://kanjivg.tagaini.net" kvg:element CDATA #IMPLIED kvg:variant CDATA #IMPLIED kvg:partial CDATA #IMPLIED kvg:original CDATA #IMPLIED kvg:part CDATA #IMPLIED kvg:number CDATA #IMPLIED kvg:tradForm CDATA #IMPLIED kvg:radicalForm CDATA #IMPLIED kvg:position CDATA #IMPLIED kvg:radical CDATA #IMPLIED kvg:phon CDATA #IMPLIED >
  <!ATTLIST path xmlns:kvg CDATA #FIXED "http://kanjivg.tagaini.net" kvg:type CDATA #IMPLIED >
  ]>
  <svg xmlns="http://www.w3.org/2000/svg" width="109" height="109" viewBox="0 0 109 109">
<g id="kvg:StrokePaths_04e73" style="fill:none;stroke:#000000;stroke-width:3;stroke-linecap:round;stroke-linejoin:round;">
<g id="kvg:04e73" kvg:element="乳">
	<g id="kvg:04e73-g1" kvg:element="孚" kvg:variant="true" kvg:position="left">
		<g id="kvg:04e73-g2" kvg:element="⺤" kvg:variant="true" kvg:original="爪" kvg:position="top">
			<path style="fill:none;stroke:#808080" id="kvg:04e73-s1" kvg:type="㇒" d="M42.27,13.04c-0.15,1.21-0.75,1.8-1.6,2.39c-4.42,3.07-12.17,6.7-25.07,11.05"/>
			<path style="fill:none;stroke:#808080" id="kvg:04e73-s2" kvg:type="㇔" d="M14.52,32.99c2.49,2.09,6.43,8.59,7.05,11.84"/>
			<path style="fill:none;stroke:#808080" id="kvg:04e73-s3" kvg:type="㇔" d="M27.5,29.62c2.79,2.07,7.2,8.5,7.89,11.72"/>
			<path style="fill:none;stroke:#808080" id="kvg:04e73-s4" kvg:type="㇒" d="M50.03,24.09c0.07,1,0,1.99-0.37,2.92c-1.41,3.61-3.5,8.16-7.48,13.57"/>
		</g>
		<g id="kvg:04e73-g3" kvg:element="子" kvg:position="bottom">
			<path style="fill:none;stroke:#808080" id="kvg:04e73-s5" kvg:type="㇖" d="M15.79,52.34c1.59,0.53,4.09,0.66,6.01,0.25c5.67-1.2,20.67-5.09,22.07-5.09c1.64,0,2.67,1.21,1.03,2.62c-1.64,1.41-8.15,7.25-13.09,10.71"/>
			<path style="fill:none;stroke-width:4;" id="kvg:04e73-s6" kvg:type="㇁" d="M31.85,61c8.4,8.62,9.42,19.43,8.48,26.25c-1.15,8.3-6.47,11.69-11.81,4.64"/>
<circle cx="31.85" cy="61" r="5" style="fill:red;stroke:red;" />
		</g>
	</g>
	<g id="kvg:04e73-g4" kvg:element="乙" kvg:position="right" kvg:radical="general">
	</g>
</g>
</g></svg>