<?xml version="1.0" encoding="UTF-8"?>
  <!DOCTYPE svg PUBLIC "-//W3C//DTD SVG 1.0//EN" "http://www.w3.org/TR/2001/REC-SVG-20010904/DTD/svg10.dtd" [
  <!ATTLIST g xmlns:kvg CDATA #FIXED "http://kanjivg.tagaini.net" kvg:element CDATA #IMPLIED kvg:variant CDATA #IMPLIED kvg:partial CDATA #IMPLIED kvg:original CDATA #IMPLIED kvg:part CDATA #IMPLIED kvg:number CDATA #IMPLIED kvg:tradForm CDATA #IMPLIED kvg:radicalForm CDATA #IMPLIED kvg:position CDATA #IMPLIED kvg:radical CDATA #IMPLIED kvg:phon CDATA #IMPLIED >
  <!ATTLIST path xmlns:kvg CDATA #FIXED "http://kanjivg.tagaini.net" kvg:type CDATA #IMPLIED >
  ]>
  <svg xmlns="http://www.w3.org/2000/svg" width="109" height="109" viewBox="0 0 109 109">
<g id="kvg:StrokePaths_04e71" style="fill:none;stroke:#000000;stroke-width:3;stroke-linecap:round;stroke-linejoin:round;">
<g id="kvg:04e71" kvg:element="乱">
	<g id="kvg:04e71-g1" kvg:element="舌" kvg:position="left" kvg:radical="nelson">
		<g id="kvg:04e71-g2" kvg:position="top">
			<path style="fill:none;stroke:#808080" id="kvg:04e71-s1" kvg:type="㇒" d="M45.63,17.75c-0.13,0.62-0.5,1.5-1.36,2.15c-3.68,2.81-12.61,7.84-28.4,11.96"/>
			<path style="fill:none;stroke:#808080" id="kvg:04e71-s2" kvg:type="㇐" d="M12.11,48.05c1.86,0.51,3.87,0.3,5.75,0.05c6.74-0.9,19.89-2.99,28.52-3.94c2.39-0.26,4.9-0.29,7.27,0.1"/>
			<path style="fill:none;stroke:#808080" id="kvg:04e71-s3" kvg:type="㇑a" d="M31.64,30.33c0.89,0.89,1.48,2.79,1.48,4.4c0,1.35-0.07,27.74-0.2,32.36"/>
		</g>
		<g id="kvg:04e71-g3" kvg:element="口" kvg:position="bottom">
			<path style="fill:none;stroke-width:4;" id="kvg:04e71-s4" kvg:type="㇑" d="M16.44,68.35c0.92,0.92,1.41,1.61,1.64,2.85c1.29,6.92,1.71,10.06,2.47,15.54c0.2,1.42,0.4,2.77,0.62,4.01"/>
<circle cx="16.44" cy="68.35" r="5" style="fill:red;stroke:red;" />
		</g>
	</g>
	<g id="kvg:04e71-g4" kvg:element="乙" kvg:variant="true" kvg:position="right" kvg:radical="tradit">
	</g>
</g>
</g></svg>