<?xml version="1.0" encoding="UTF-8"?>
  <!DOCTYPE svg PUBLIC "-//W3C//DTD SVG 1.0//EN" "http://www.w3.org/TR/2001/REC-SVG-20010904/DTD/svg10.dtd" [
  <!ATTLIST g xmlns:kvg CDATA #FIXED "http://kanjivg.tagaini.net" kvg:element CDATA #IMPLIED kvg:variant CDATA #IMPLIED kvg:partial CDATA #IMPLIED kvg:original CDATA #IMPLIED kvg:part CDATA #IMPLIED kvg:number CDATA #IMPLIED kvg:tradForm CDATA #IMPLIED kvg:radicalForm CDATA #IMPLIED kvg:position CDATA #IMPLIED kvg:radical CDATA #IMPLIED kvg:phon CDATA #IMPLIED >
  <!ATTLIST path xmlns:kvg CDATA #FIXED "http://kanjivg.tagaini.net" kvg:type CDATA #IMPLIED >
  ]>
  <svg xmlns="http://www.w3.org/2000/svg" width="109" height="109" viewBox="0 0 109 109">
<g id="kvg:StrokePaths_04e8b" style="fill:none;stroke:#000000;stroke-width:3;stroke-linecap:round;stroke-linejoin:round;">
<g id="kvg:04e8b" kvg:element="事">
	<path style="fill:none;stroke:#808080" id="kvg:04e8b-s1" kvg:type="㇐" d="M14.25,24.95c1.84,0.54,5.23,0.68,7.07,0.54c16.77-1.24,46.39-4.24,66.97-4.23c3.08,0,4.92,0.26,6.46,0.53"/>
	<g id="kvg:04e8b-g1" kvg:element="口">
		<path style="fill:none;stroke:#808080" id="kvg:04e8b-s2" kvg:type="㇑" d="M30.51,34.23c0.35,0.23,0.71,0.42,0.86,0.7c1.04,1.95,1.9,6.86,2.64,10.78c0.17,0.88,0.23,1.21,0.35,1.78"/>
		<path style="fill:none;stroke:#808080" id="kvg:04e8b-s3" kvg:type="㇕b" d="M32.94,35.01c8.31-1.01,32.5-2.95,41.08-3.59c2.43-0.18,3.81,1.33,3.04,3.59c-0.73,2.14-1.52,4.57-2.48,7.24"/>
		<path style="fill:none;stroke-width:4;" id="kvg:04e8b-s4" kvg:type="㇐b" d="M35.28,45.51c4.21-0.3,27.12-1.93,37.35-2.68c1.45-0.11,3-0.34,4.19-0.01"/>
<circle cx="35.28" cy="45.51" r="5" style="fill:red;stroke:red;" />
	</g>
	<g id="kvg:04e8b-g2" kvg:element="⺕" kvg:variant="true" kvg:original="彑">
	</g>
	<g id="kvg:04e8b-g3" kvg:element="亅" kvg:radical="general">
	</g>
</g>
</g></svg>