<?xml version="1.0" encoding="UTF-8"?>
  <!DOCTYPE svg PUBLIC "-//W3C//DTD SVG 1.0//EN" "http://www.w3.org/TR/2001/REC-SVG-20010904/DTD/svg10.dtd" [
  <!ATTLIST g xmlns:kvg CDATA #FIXED "http://kanjivg.tagaini.net" kvg:element CDATA #IMPLIED kvg:variant CDATA #IMPLIED kvg:partial CDATA #IMPLIED kvg:original CDATA #IMPLIED kvg:part CDATA #IMPLIED kvg:number CDATA #IMPLIED kvg:tradForm CDATA #IMPLIED kvg:radicalForm CDATA #IMPLIED kvg:position CDATA #IMPLIED kvg:radical CDATA #IMPLIED kvg:phon CDATA #IMPLIED >
  <!ATTLIST path xmlns:kvg CDATA #FIXED "http://kanjivg.tagaini.net" kvg:type CDATA #IMPLIED >
  ]>
  <svg xmlns="http://www.w3.org/2000/svg" width="109" height="109" viewBox="0 0 109 109">
<g id="kvg:StrokePaths_04ea4" style="fill:none;stroke:#000000;stroke-width:3;stroke-linecap:round;stroke-linejoin:round;">
<g id="kvg:04ea4" kvg:element="交">
	<g id="kvg:04ea4-g1" kvg:element="亠" kvg:position="top" kvg:radical="general">
		<path style="fill:none;stroke:#808080" id="kvg:04ea4-s1" kvg:type="㇑a" d="M51.62,11.75c1.06,1.06,1.73,2.38,1.73,4.01c0,4.32-0.11,8.74-0.11,12.15"/>
		<path style="fill:none;stroke:#808080" id="kvg:04ea4-s2" kvg:type="㇐" d="M21.5,30.76c2.49,0.61,5.29,0.81,8.48,0.5c15.27-1.51,32.64-3.51,49.25-4.35c3.4-0.17,5.39,0.04,7.92,0.63"/>
	</g>
	<g id="kvg:04ea4-g2" kvg:element="父" kvg:position="bottom">
		<path style="fill:none;stroke:#808080" id="kvg:04ea4-s3" kvg:type="㇒" d="M38.65,39.33c0.35,1.17,0.23,2.47-0.58,3.81C34.86,48.41,28,55.38,22,59.5"/>
		<path style="fill:none;stroke:#808080" id="kvg:04ea4-s4" kvg:type="㇔" d="M67.51,37.73c7.84,4.31,14.32,9.28,18.24,14.52"/>
		<path style="fill:none;stroke-width:4;" id="kvg:04ea4-s5" kvg:type="㇒" d="M67.43,51c0.44,1.5,0.17,2.92-0.69,4.74C58.82,72.27,40.22,88.14,19,95.25"/>
<circle cx="67.43" cy="51" r="5" style="fill:red;stroke:red;" />
	</g>
</g>
</g></svg>