<?xml version="1.0" encoding="UTF-8"?>
  <!DOCTYPE svg PUBLIC "-//W3C//DTD SVG 1.0//EN" "http://www.w3.org/TR/2001/REC-SVG-20010904/DTD/svg10.dtd" [
  <!ATTLIST g xmlns:kvg CDATA #FIXED "http://kanjivg.tagaini.net" kvg:element CDATA #IMPLIED kvg:variant CDATA #IMPLIED kvg:partial CDATA #IMPLIED kvg:original CDATA #IMPLIED kvg:part CDATA #IMPLIED kvg:number CDATA #IMPLIED kvg:tradForm CDATA #IMPLIED kvg:radicalForm CDATA #IMPLIED kvg:position CDATA #IMPLIED kvg:radical CDATA #IMPLIED kvg:phon CDATA #IMPLIED >
  <!ATTLIST path xmlns:kvg CDATA #FIXED "http://kanjivg.tagaini.net" kvg:type CDATA #IMPLIED >
  ]>
  <svg xmlns="http://www.w3.org/2000/svg" width="109" height="109" viewBox="0 0 109 109">
<g id="kvg:StrokePaths_04f1a" style="fill:none;stroke:#000000;stroke-width:3;stroke-linecap:round;stroke-linejoin:round;">
<g id="kvg:04f1a" kvg:element="会">
	<g id="kvg:04f1a-g1" kvg:element="人" kvg:position="top" kvg:radical="general">
		<path style="fill:none;stroke:#808080" id="kvg:04f1a-s1" kvg:type="㇒" d="M52.25,14c0.25,2.28-0.52,3.59-1.8,5.62c-5.76,9.14-17.9,27-39.2,39.88"/>
		<path style="fill:none;stroke:#808080" id="kvg:04f1a-s2" kvg:type="㇏" d="M54.5,19.25c6.73,7.3,24.09,24.81,32.95,31.91c2.73,2.18,5.61,3.8,9.05,4.59"/>
	</g>
	<g id="kvg:04f1a-g2" kvg:element="云" kvg:position="bottom">
		<g id="kvg:04f1a-g3" kvg:element="二">
			<path style="fill:none;stroke:#808080" id="kvg:04f1a-s3" kvg:type="㇐" d="M37.36,50.16c1.64,0.34,4.04,0.36,4.98,0.25c6.79-0.79,14.29-1.91,19.66-2.4c1.56-0.14,3.25-0.39,4.66,0"/>
			<path style="fill:none;stroke-width:4;" id="kvg:04f1a-s4" kvg:type="㇐" d="M23,65.98c2.12,0.52,4.25,0.64,7.01,0.3c13.77-1.71,30.99-3.66,46.35-3.74c3.04-0.02,4.87,0.14,6.4,0.29"/>
<circle cx="23" cy="65.98" r="5" style="fill:red;stroke:red;" />
		</g>
		<g id="kvg:04f1a-g4" kvg:element="厶">
		</g>
	</g>
</g>
</g></svg>