<?xml version="1.0" encoding="UTF-8"?>
  <!DOCTYPE svg PUBLIC "-//W3C//DTD SVG 1.0//EN" "http://www.w3.org/TR/2001/REC-SVG-20010904/DTD/svg10.dtd" [
  <!ATTLIST g xmlns:kvg CDATA #FIXED "http://kanjivg.tagaini.net" kvg:element CDATA #IMPLIED kvg:variant CDATA #IMPLIED kvg:partial CDATA #IMPLIED kvg:original CDATA #IMPLIED kvg:part CDATA #IMPLIED kvg:number CDATA #IMPLIED kvg:tradForm CDATA #IMPLIED kvg:radicalForm CDATA #IMPLIED kvg:position CDATA #IMPLIED kvg:radical CDATA #IMPLIED kvg:phon CDATA #IMPLIED >
  <!ATTLIST path xmlns:kvg CDATA #FIXED "http://kanjivg.tagaini.net" kvg:type CDATA #IMPLIED >
  ]>
  <svg xmlns="http://www.w3.org/2000/svg" width="109" height="109" viewBox="0 0 109 109">
<g id="kvg:StrokePaths_04f4f" style="fill:none;stroke:#000000;stroke-width:3;stroke-linecap:round;stroke-linejoin:round;">
<g id="kvg:04f4f" kvg:element="住">
	<g id="kvg:04f4f-g1" kvg:element="亻" kvg:variant="true" kvg:original="人" kvg:position="left" kvg:radical="general">
		<path style="fill:none;stroke:#808080" id="kvg:04f4f-s1" kvg:type="㇒" d="M30.88,19.88c0.2,2.01-0.06,4.65-0.72,6.38c-4.2,11-8.54,20.32-18.16,33.71"/>
		<path style="fill:none;stroke:#808080" id="kvg:04f4f-s2" kvg:type="㇑" d="M26.03,41c0.72,0.75,1.25,1.94,1.25,3.23c0,11.62-0.19,33.52-0.26,45.4c-0.02,2.58-0.02,4.7-0.02,6.12"/>
	</g>
	<g id="kvg:04f4f-g2" kvg:element="主" kvg:position="right" kvg:phon="主">
		<g id="kvg:04f4f-g3" kvg:element="丶" kvg:position="top">
			<path style="fill:none;stroke:#808080" id="kvg:04f4f-s3" kvg:type="㇔" d="M55.25,15.88c5.64,3.21,9.5,6.62,12.56,11.66"/>
		</g>
		<g id="kvg:04f4f-g4" kvg:element="王" kvg:original="玉" kvg:partial="true" kvg:position="bottom">
			<path style="fill:none;stroke:#808080" id="kvg:04f4f-s4" kvg:type="㇐" d="M43,41.32c1.75,0.31,3.75,0.22,5.87,0.03c11-0.97,23.69-2.1,36.3-2.56c1.72-0.06,3.28,0.09,4.7,0.46"/>
			<path style="fill:none;stroke-width:4;" id="kvg:04f4f-s5" kvg:type="㇑a" d="M64.25,42.59c1,1.07,1.5,2.41,1.5,3.96c0,5.98,0.5,35.17,0.25,41.15"/>
<circle cx="64.25" cy="42.59" r="5" style="fill:red;stroke:red;" />
		</g>
	</g>
</g>
</g></svg>