<?xml version="1.0" encoding="UTF-8"?>
  <!DOCTYPE svg PUBLIC "-//W3C//DTD SVG 1.0//EN" "http://www.w3.org/TR/2001/REC-SVG-20010904/DTD/svg10.dtd" [
  <!ATTLIST g xmlns:kvg CDATA #FIXED "http://kanjivg.tagaini.net" kvg:element CDATA #IMPLIED kvg:variant CDATA #IMPLIED kvg:partial CDATA #IMPLIED kvg:original CDATA #IMPLIED kvg:part CDATA #IMPLIED kvg:number CDATA #IMPLIED kvg:tradForm CDATA #IMPLIED kvg:radicalForm CDATA #IMPLIED kvg:position CDATA #IMPLIED kvg:radical CDATA #IMPLIED kvg:phon CDATA #IMPLIED >
  <!ATTLIST path xmlns:kvg CDATA #FIXED "http://kanjivg.tagaini.net" kvg:type CDATA #IMPLIED >
  ]>
  <svg xmlns="http://www.w3.org/2000/svg" width="109" height="109" viewBox="0 0 109 109">
<g id="kvg:StrokePaths_04f4d" style="fill:none;stroke:#000000;stroke-width:3;stroke-linecap:round;stroke-linejoin:round;">
<g id="kvg:04f4d" kvg:element="位">
	<g id="kvg:04f4d-g1" kvg:element="亻" kvg:variant="true" kvg:original="人" kvg:position="left" kvg:radical="general">
		<path style="fill:none;stroke:#808080" id="kvg:04f4d-s1" kvg:type="㇒" d="M32.26,17.5c0.22,2-0.06,4.37-0.76,6.08C27.06,34.5,21.43,45,11.25,58.29"/>
		<path style="fill:none;stroke:#808080" id="kvg:04f4d-s2" kvg:type="㇑" d="M25.28,42c0.8,0.8,1.5,2.21,1.5,3.38c-0.03,10.87-0.2,31.49-0.26,42.75C26.51,90.6,26.5,92.63,26.5,94"/>
	</g>
	<g id="kvg:04f4d-g2" kvg:element="立" kvg:position="right">
		<g id="kvg:04f4d-g3" kvg:element="亠" kvg:position="top">
			<path style="fill:none;stroke:#808080" id="kvg:04f4d-s3" kvg:type="㇑a" d="M63,15.5c1,0.75,1.5,2,1.5,3.75s0,13.25,0,18"/>
			<path style="fill:none;stroke-width:4;" id="kvg:04f4d-s4" kvg:type="㇐" d="M39.84,39.56c2.66,0.44,5.29,0.12,7.78-0.16c9.14-1.04,27.43-3.47,36.27-4.19c2.2-0.18,4.36-0.32,6.54,0.1"/>
<circle cx="39.84" cy="39.56" r="5" style="fill:red;stroke:red;" />
		</g>
		<g id="kvg:04f4d-g4" kvg:position="bottom">
		</g>
	</g>
</g>
</g></svg>