<?xml version="1.0" encoding="UTF-8"?>
  <!DOCTYPE svg PUBLIC "-//W3C//DTD SVG 1.0//EN" "http://www.w3.org/TR/2001/REC-SVG-20010904/DTD/svg10.dtd" [
  <!ATTLIST g xmlns:kvg CDATA #FIXED "http://kanjivg.tagaini.net" kvg:element CDATA #IMPLIED kvg:variant CDATA #IMPLIED kvg:partial CDATA #IMPLIED kvg:original CDATA #IMPLIED kvg:part CDATA #IMPLIED kvg:number CDATA #IMPLIED kvg:tradForm CDATA #IMPLIED kvg:radicalForm CDATA #IMPLIED kvg:position CDATA #IMPLIED kvg:radical CDATA #IMPLIED kvg:phon CDATA #IMPLIED >
  <!ATTLIST path xmlns:kvg CDATA #FIXED "http://kanjivg.tagaini.net" kvg:type CDATA #IMPLIED >
  ]>
  <svg xmlns="http://www.w3.org/2000/svg" width="109" height="109" viewBox="0 0 109 109">
<g id="kvg:StrokePaths_04f4e" style="fill:none;stroke:#000000;stroke-width:3;stroke-linecap:round;stroke-linejoin:round;">
<g id="kvg:04f4e" kvg:element="低">
	<g id="kvg:04f4e-g1" kvg:element="亻" kvg:variant="true" kvg:original="人" kvg:position="left" kvg:radical="general">
		<path style="fill:none;stroke:#808080" id="kvg:04f4e-s1" kvg:type="㇒" d="M31.76,18.25c0.24,1.38,0.24,2.62-0.31,3.98C27.15,32.75,20.41,42.48,9.5,55.04"/>
		<path style="fill:none;stroke:#808080" id="kvg:04f4e-s2" kvg:type="㇑" d="M24.03,40.25c1.05,1.05,1.5,2.44,1.5,4.12c0,11.05-0.02,31.15-0.03,42.88c0,3.28,0,5.91,0,7.5"/>
	</g>
	<g id="kvg:04f4e-g2" kvg:position="right" kvg:phon="氐">
		<g id="kvg:04f4e-g3" kvg:element="氏" kvg:position="top">
			<path style="fill:none;stroke:#808080" id="kvg:04f4e-s3" kvg:type="㇒" d="M71.24,13.11c0.07,0.41,0.15,1.05-0.14,1.64C69.41,18.2,61.5,25,48.35,30.8"/>
			<path style="fill:none;stroke:#808080" id="kvg:04f4e-s4" kvg:type="㇙" d="M46.16,29.7c1.13,1.13,1.57,2.55,1.57,4.04c0,1.97-0.17,38.69-0.17,41.76c0,3.07,0.78,3.54,3.15,1.5c3.04-2.62,10.67-8.62,13.68-10.48"/>
			<path style="fill:none;stroke-width:4;" id="kvg:04f4e-s5" kvg:type="㇐" d="M49.03,50.82c0.64,0.21,1.83-0.17,2.47-0.29c9-1.78,25-5.53,33.03-7.88c1.84-0.54,3.73-0.78,5.63-0.41"/>
<circle cx="49.03" cy="50.82" r="5" style="fill:red;stroke:red;" />
		</g>
		<g id="kvg:04f4e-g4" kvg:element="一" kvg:position="bottom">
		</g>
	</g>
</g>
</g></svg>