<?xml version="1.0" encoding="UTF-8"?>
  <!DOCTYPE svg PUBLIC "-//W3C//DTD SVG 1.0//EN" "http://www.w3.org/TR/2001/REC-SVG-20010904/DTD/svg10.dtd" [
  <!ATTLIST g xmlns:kvg CDATA #FIXED "http://kanjivg.tagaini.net" kvg:element CDATA #IMPLIED kvg:variant CDATA #IMPLIED kvg:partial CDATA #IMPLIED kvg:original CDATA #IMPLIED kvg:part CDATA #IMPLIED kvg:number CDATA #IMPLIED kvg:tradForm CDATA #IMPLIED kvg:radicalForm CDATA #IMPLIED kvg:position CDATA #IMPLIED kvg:radical CDATA #IMPLIED kvg:phon CDATA #IMPLIED >
  <!ATTLIST path xmlns:kvg CDATA #FIXED "http://kanjivg.tagaini.net" kvg:type CDATA #IMPLIED >
  ]>
  <svg xmlns="http://www.w3.org/2000/svg" width="109" height="109" viewBox="0 0 109 109">
<g id="kvg:StrokePaths_04f7f" style="fill:none;stroke:#000000;stroke-width:3;stroke-linecap:round;stroke-linejoin:round;">
<g id="kvg:04f7f" kvg:element="使">
	<g id="kvg:04f7f-g1" kvg:element="亻" kvg:variant="true" kvg:original="人" kvg:position="left" kvg:radical="general">
		<path style="fill:none;stroke:#808080" id="kvg:04f7f-s1" kvg:type="㇒" d="M32.51,18.25c0.23,1.89-0.06,4.11-0.8,5.73C27.03,34.28,21.12,45,10.38,56.5"/>
		<path style="fill:none;stroke:#808080" id="kvg:04f7f-s2" kvg:type="㇑" d="M24.53,42.75c0.92,0.92,1.75,2.5,1.74,3.75c-0.03,10.66-0.2,32.7-0.26,44.5C26.01,93.55,26,95.62,26,97"/>
	</g>
	<g id="kvg:04f7f-g2" kvg:element="吏" kvg:position="right">
		<g id="kvg:04f7f-g3" kvg:element="丈" kvg:part="1">
			<g id="kvg:04f7f-g4" kvg:element="一">
				<path style="fill:none;stroke:#808080" id="kvg:04f7f-s3" kvg:type="㇐" d="M44,30.64c1.42,0.38,4.04,0.3,5.45,0.13c8.43-1.02,21.93-2.77,31.57-3.63c2.35-0.21,3.79,0.18,4.98,0.37"/>
			</g>
		</g>
		<g id="kvg:04f7f-g5" kvg:element="口">
			<path style="fill:none;stroke:#808080" id="kvg:04f7f-s4" kvg:type="㇑" d="M42.5,43.19c1.12,0.56,1.99,1.94,2.17,2.75c0.79,3.66,1.69,8.6,2.48,13.44c0.17,1.04,0.33,2.08,0.49,3.09"/>
			<path style="fill:none;stroke-width:4;" id="kvg:04f7f-s5" kvg:type="㇕b" d="M45.57,44.79c8.26-1.22,27.06-3.54,36.45-4.38c4.37-0.39,5.86,1.84,4.52,5.21c-1.45,3.66-2.44,5.85-4.3,10.81"/>
<circle cx="45.57" cy="44.79" r="5" style="fill:red;stroke:red;" />
		</g>
		<g id="kvg:04f7f-g6" kvg:element="丈" kvg:part="2">
			<g id="kvg:04f7f-g7" kvg:element="乂">
				<g id="kvg:04f7f-g8" kvg:element="丿">
				</g>
			</g>
		</g>
	</g>
</g>
</g></svg>