<?xml version="1.0" encoding="UTF-8"?>
  <!DOCTYPE svg PUBLIC "-//W3C//DTD SVG 1.0//EN" "http://www.w3.org/TR/2001/REC-SVG-20010904/DTD/svg10.dtd" [
  <!ATTLIST g xmlns:kvg CDATA #FIXED "http://kanjivg.tagaini.net" kvg:element CDATA #IMPLIED kvg:variant CDATA #IMPLIED kvg:partial CDATA #IMPLIED kvg:original CDATA #IMPLIED kvg:part CDATA #IMPLIED kvg:number CDATA #IMPLIED kvg:tradForm CDATA #IMPLIED kvg:radicalForm CDATA #IMPLIED kvg:position CDATA #IMPLIED kvg:radical CDATA #IMPLIED kvg:phon CDATA #IMPLIED >
  <!ATTLIST path xmlns:kvg CDATA #FIXED "http://kanjivg.tagaini.net" kvg:type CDATA #IMPLIED >
  ]>
  <svg xmlns="http://www.w3.org/2000/svg" width="109" height="109" viewBox="0 0 109 109">
<g id="kvg:StrokePaths_04f8b" style="fill:none;stroke:#000000;stroke-width:3;stroke-linecap:round;stroke-linejoin:round;">
<g id="kvg:04f8b" kvg:element="例">
	<g id="kvg:04f8b-g1" kvg:element="亻" kvg:variant="true" kvg:original="人" kvg:position="left" kvg:radical="general">
		<path style="fill:none;stroke:#808080" id="kvg:04f8b-s1" kvg:type="㇒" d="M30.12,17.5c0.25,1.75-0.06,3.29-0.72,5.08C25.15,33.98,20.12,45,9.75,58.79"/>
		<path style="fill:none;stroke:#808080" id="kvg:04f8b-s2" kvg:type="㇑" d="M22.78,43.75c0.98,0.98,1.35,2.25,1.35,3.98c0,9.99-0.09,27.46-0.12,37.52C24,87.66,24,89.65,24,91"/>
	</g>
	<g id="kvg:04f8b-g2" kvg:element="列" kvg:position="right" kvg:phon="列">
		<g id="kvg:04f8b-g3" kvg:element="歹">
			<g id="kvg:04f8b-g4" kvg:element="一">
				<path style="fill:none;stroke:#808080" id="kvg:04f8b-s3" kvg:type="㇐" d="M37.45,22.06c0.92,0.37,2.6,0.45,3.52,0.37c5.93-0.53,14.28-2.05,21.06-2.82c1.52-0.17,2.7-0.07,3.47,0.11"/>
			</g>
			<g id="kvg:04f8b-g5" kvg:element="夕">
				<path style="fill:none;stroke:#808080" id="kvg:04f8b-s4" kvg:type="㇒" d="M49.73,25.21c0.39,1.16,0.41,2.1,0.12,3.26c-2.11,8.41-8.23,20.28-17.56,31.59"/>
				<path style="fill:none;stroke-width:4;" id="kvg:04f8b-s5" kvg:type="㇇" d="M47.82,40.96c1.06,0.29,2.06,0.16,3.51-0.12c3.31-0.66,4.58-0.75,6.7-1.51c2.97-1.07,4.84,0.26,3.83,3.77C57.75,57.38,48.38,78.75,31.77,90.5"/>
<circle cx="47.82" cy="40.96" r="5" style="fill:red;stroke:red;" />
			</g>
		</g>
		<g id="kvg:04f8b-g6" kvg:element="刂" kvg:variant="true" kvg:original="刀" kvg:position="right">
		</g>
	</g>
</g>
</g></svg>