<?xml version="1.0" encoding="UTF-8"?>
  <!DOCTYPE svg PUBLIC "-//W3C//DTD SVG 1.0//EN" "http://www.w3.org/TR/2001/REC-SVG-20010904/DTD/svg10.dtd" [
  <!ATTLIST g xmlns:kvg CDATA #FIXED "http://kanjivg.tagaini.net" kvg:element CDATA #IMPLIED kvg:variant CDATA #IMPLIED kvg:partial CDATA #IMPLIED kvg:original CDATA #IMPLIED kvg:part CDATA #IMPLIED kvg:number CDATA #IMPLIED kvg:tradForm CDATA #IMPLIED kvg:radicalForm CDATA #IMPLIED kvg:position CDATA #IMPLIED kvg:radical CDATA #IMPLIED kvg:phon CDATA #IMPLIED >
  <!ATTLIST path xmlns:kvg CDATA #FIXED "http://kanjivg.tagaini.net" kvg:type CDATA #IMPLIED >
  ]>
  <svg xmlns="http://www.w3.org/2000/svg" width="109" height="109" viewBox="0 0 109 109">
<g id="kvg:StrokePaths_04f9b" style="fill:none;stroke:#000000;stroke-width:3;stroke-linecap:round;stroke-linejoin:round;">
<g id="kvg:04f9b" kvg:element="供">
	<g id="kvg:04f9b-g1" kvg:element="亻" kvg:variant="true" kvg:original="人" kvg:position="left" kvg:radical="general">
		<path style="fill:none;stroke:#808080" id="kvg:04f9b-s1" kvg:type="㇒" d="M33.01,18.75c0.21,2.01-0.06,3.4-0.73,5.12C28,34.86,22.07,45.67,12.25,59.04"/>
		<path style="fill:none;stroke:#808080" id="kvg:04f9b-s2" kvg:type="㇑" d="M26.03,42.25c0.59,0.61,1.01,1.97,1.01,3.23c0,9.48,0.06,30.41-0.01,42.02C27.01,90.31,27,92.64,27,94.25"/>
	</g>
	<g id="kvg:04f9b-g2" kvg:element="共" kvg:position="right" kvg:phon="共">
		<g id="kvg:04f9b-g3" kvg:position="top">
			<path style="fill:none;stroke:#808080" id="kvg:04f9b-s3" kvg:type="㇐" d="M40.78,38.43c1.9,0.69,4.5,0.5,6.48,0.22c8.85-1.28,24.7-3.57,36.64-4.48c2.23-0.17,4.33-0.34,6.52,0.14"/>
			<path style="fill:none;stroke-width:4;" id="kvg:04f9b-s4" kvg:type="㇑a" d="M52.55,20.6c0.93,0.93,1.57,2.4,1.66,3.91c0.39,7.05,1.13,29.18,1.62,37.21"/>
<circle cx="52.55" cy="20.6" r="5" style="fill:red;stroke:red;" />
		</g>
		<g id="kvg:04f9b-g4" kvg:element="八" kvg:position="bottom">
		</g>
	</g>
</g>
</g></svg>