<?xml version="1.0" encoding="UTF-8"?>
  <!DOCTYPE svg PUBLIC "-//W3C//DTD SVG 1.0//EN" "http://www.w3.org/TR/2001/REC-SVG-20010904/DTD/svg10.dtd" [
  <!ATTLIST g xmlns:kvg CDATA #FIXED "http://kanjivg.tagaini.net" kvg:element CDATA #IMPLIED kvg:variant CDATA #IMPLIED kvg:partial CDATA #IMPLIED kvg:original CDATA #IMPLIED kvg:part CDATA #IMPLIED kvg:number CDATA #IMPLIED kvg:tradForm CDATA #IMPLIED kvg:radicalForm CDATA #IMPLIED kvg:position CDATA #IMPLIED kvg:radical CDATA #IMPLIED kvg:phon CDATA #IMPLIED >
  <!ATTLIST path xmlns:kvg CDATA #FIXED "http://kanjivg.tagaini.net" kvg:type CDATA #IMPLIED >
  ]>
  <svg xmlns="http://www.w3.org/2000/svg" width="109" height="109" viewBox="0 0 109 109">
<g id="kvg:StrokePaths_04fc2" style="fill:none;stroke:#000000;stroke-width:3;stroke-linecap:round;stroke-linejoin:round;">
<g id="kvg:04fc2" kvg:element="係">
	<g id="kvg:04fc2-g1" kvg:element="亻" kvg:variant="true" kvg:original="人" kvg:position="left" kvg:radical="general">
		<path style="fill:none;stroke:#808080" id="kvg:04fc2-s1" kvg:type="㇒" d="M34.5,16.5c0.25,2.03-0.26,4.62-0.87,6.44C29.75,34.56,23,47.02,11,60.5"/>
		<path style="fill:none;stroke:#808080" id="kvg:04fc2-s2" kvg:type="㇑" d="M26.78,42.75c0.84,1.12,1,3.02,0.99,4.25c-0.04,10.67-0.21,31.35-0.26,42.38c-0.01,1.97-0.01,3.63-0.01,4.88"/>
	</g>
	<g id="kvg:04fc2-g2" kvg:element="系" kvg:position="right" kvg:phon="系">
		<g id="kvg:04fc2-g3" kvg:element="丿" kvg:position="top">
			<path style="fill:none;stroke:#808080" id="kvg:04fc2-s3" kvg:type="㇒" d="M82.45,13.77c-0.2,1.29-0.97,2.23-1.84,2.77c-4.46,2.75-16.11,7.71-34.8,10.27"/>
		</g>
		<g id="kvg:04fc2-g4" kvg:element="糸" kvg:position="bottom">
			<path style="fill:none;stroke:#808080" id="kvg:04fc2-s4" kvg:type="㇜" d="M63.62,26.13c0.25,1.5-0.06,2.59-0.94,3.73c-3.19,4.17-9.08,9.79-13.12,13.18c-1.44,1.21-1.44,2.21,0.5,2.85c3.92,1.3,6.06,2.23,11.93,5.36"/>
			<path style="fill:none;stroke-width:4;" id="kvg:04fc2-s5" kvg:type="㇜" d="M80.75,31.22c0,1.41-0.59,2.62-1.25,3.35c-8.25,9.18-16.38,17.18-30,29.08c-1.6,1.4-1,3.05,1,2.63c8.36-1.75,24.62-5.41,36-7.97"/>
<circle cx="80.75" cy="31.22" r="5" style="fill:red;stroke:red;" />
		</g>
	</g>
</g>
</g></svg>