<?xml version="1.0" encoding="UTF-8"?>
  <!DOCTYPE svg PUBLIC "-//W3C//DTD SVG 1.0//EN" "http://www.w3.org/TR/2001/REC-SVG-20010904/DTD/svg10.dtd" [
  <!ATTLIST g xmlns:kvg CDATA #FIXED "http://kanjivg.tagaini.net" kvg:element CDATA #IMPLIED kvg:variant CDATA #IMPLIED kvg:partial CDATA #IMPLIED kvg:original CDATA #IMPLIED kvg:part CDATA #IMPLIED kvg:number CDATA #IMPLIED kvg:tradForm CDATA #IMPLIED kvg:radicalForm CDATA #IMPLIED kvg:position CDATA #IMPLIED kvg:radical CDATA #IMPLIED kvg:phon CDATA #IMPLIED >
  <!ATTLIST path xmlns:kvg CDATA #FIXED "http://kanjivg.tagaini.net" kvg:type CDATA #IMPLIED >
  ]>
  <svg xmlns="http://www.w3.org/2000/svg" width="109" height="109" viewBox="0 0 109 109">
<g id="kvg:StrokePaths_04fdd" style="fill:none;stroke:#000000;stroke-width:3;stroke-linecap:round;stroke-linejoin:round;">
<g id="kvg:04fdd" kvg:element="保">
	<g id="kvg:04fdd-g1" kvg:element="亻" kvg:variant="true" kvg:original="人" kvg:position="left" kvg:radical="general">
		<path style="fill:none;stroke:#808080" id="kvg:04fdd-s1" kvg:type="㇒" d="M32,17c0.25,1.5,0.25,2.79-0.37,4.58C27.75,32.75,22.38,45.62,11,59.79"/>
		<path style="fill:none;stroke:#808080" id="kvg:04fdd-s2" kvg:type="㇑" d="M26.03,41c0.59,0.61,1.01,1.72,1.01,2.98c0,10.13-0.03,30.75-0.04,42.52c0,2.78,0,5.18,0,7"/>
	</g>
	<g id="kvg:04fdd-g2" kvg:element="呆" kvg:position="right" kvg:phon="呆">
		<g id="kvg:04fdd-g3" kvg:element="口" kvg:position="top">
			<path style="fill:none;stroke:#808080" id="kvg:04fdd-s3" kvg:type="㇑" d="M44.44,17.14c0.71,0.71,1.44,1.73,1.7,3.11c0.93,4.84,1.48,10.09,2.26,15.95c0.2,1.48,0.38,2.92,0.54,4.27"/>
			<path style="fill:none;stroke-width:4;" id="kvg:04fdd-s4" kvg:type="㇕b" d="M46.69,18.86C56.8,17.2,70.17,15.62,77,14.95c3.07-0.3,4.5,1.55,4.01,4.18c-0.87,4.62-2.23,9.15-3.56,15.38"/>
<circle cx="46.69" cy="18.86" r="5" style="fill:red;stroke:red;" />
		</g>
		<g id="kvg:04fdd-g4" kvg:element="木" kvg:position="bottom">
		</g>
	</g>
</g>
</g></svg>