<?xml version="1.0" encoding="UTF-8"?>
  <!DOCTYPE svg PUBLIC "-//W3C//DTD SVG 1.0//EN" "http://www.w3.org/TR/2001/REC-SVG-20010904/DTD/svg10.dtd" [
  <!ATTLIST g xmlns:kvg CDATA #FIXED "http://kanjivg.tagaini.net" kvg:element CDATA #IMPLIED kvg:variant CDATA #IMPLIED kvg:partial CDATA #IMPLIED kvg:original CDATA #IMPLIED kvg:part CDATA #IMPLIED kvg:number CDATA #IMPLIED kvg:tradForm CDATA #IMPLIED kvg:radicalForm CDATA #IMPLIED kvg:position CDATA #IMPLIED kvg:radical CDATA #IMPLIED kvg:phon CDATA #IMPLIED >
  <!ATTLIST path xmlns:kvg CDATA #FIXED "http://kanjivg.tagaini.net" kvg:type CDATA #IMPLIED >
  ]>
  <svg xmlns="http://www.w3.org/2000/svg" width="109" height="109" viewBox="0 0 109 109">
<g id="kvg:StrokePaths_04fe1" style="fill:none;stroke:#000000;stroke-width:3;stroke-linecap:round;stroke-linejoin:round;">
<g id="kvg:04fe1" kvg:element="信">
	<g id="kvg:04fe1-g1" kvg:element="亻" kvg:variant="true" kvg:original="人" kvg:position="left" kvg:radical="general">
		<path style="fill:none;stroke:#808080" id="kvg:04fe1-s1" kvg:type="㇒" d="M33.51,18.25c0.37,1.66,0.24,3.07-0.31,4.5C28.29,35.3,22.4,47.19,11.5,62.54"/>
		<path style="fill:none;stroke:#808080" id="kvg:04fe1-s2" kvg:type="㇑" d="M27.28,40.75c0.8,0.8,1.25,2.33,1.25,3.75c0,10.95-0.03,35.6-0.03,47.38c0,1.92,0,3.5,0,4.62"/>
	</g>
	<g id="kvg:04fe1-g2" kvg:element="言" kvg:position="right">
		<path style="fill:none;stroke:#808080" id="kvg:04fe1-s3" kvg:type="㇔" d="M60.56,12.88c3.46,1.61,8.93,6.6,9.79,9.1"/>
		<path style="fill:none;stroke:#808080" id="kvg:04fe1-s4" kvg:type="㇐" d="M42.13,33.13c3.25,0.62,6.17,0.6,9,0.25c11.12-1.38,25.27-2.46,36.75-3.34c2.77-0.21,5.28-0.28,8,0.3"/>
		<path style="fill:none;stroke-width:4;" id="kvg:04fe1-s5" kvg:type="㇐" d="M53.13,46.24c1.27,0.48,3.05,0.24,4.38,0.16c5.92-0.35,16.22-1.57,20.36-1.91c1.56-0.13,3.38-0.37,4.85-0.1"/>
<circle cx="53.13" cy="46.24" r="5" style="fill:red;stroke:red;" />
		<g id="kvg:04fe1-g3" kvg:element="口">
		</g>
	</g>
</g>
</g></svg>