<?xml version="1.0" encoding="UTF-8"?>
  <!DOCTYPE svg PUBLIC "-//W3C//DTD SVG 1.0//EN" "http://www.w3.org/TR/2001/REC-SVG-20010904/DTD/svg10.dtd" [
  <!ATTLIST g xmlns:kvg CDATA #FIXED "http://kanjivg.tagaini.net" kvg:element CDATA #IMPLIED kvg:variant CDATA #IMPLIED kvg:partial CDATA #IMPLIED kvg:original CDATA #IMPLIED kvg:part CDATA #IMPLIED kvg:number CDATA #IMPLIED kvg:tradForm CDATA #IMPLIED kvg:radicalForm CDATA #IMPLIED kvg:position CDATA #IMPLIED kvg:radical CDATA #IMPLIED kvg:phon CDATA #IMPLIED >
  <!ATTLIST path xmlns:kvg CDATA #FIXED "http://kanjivg.tagaini.net" kvg:type CDATA #IMPLIED >
  ]>
  <svg xmlns="http://www.w3.org/2000/svg" width="109" height="109" viewBox="0 0 109 109">
<g id="kvg:StrokePaths_04ff5" style="fill:none;stroke:#000000;stroke-width:3;stroke-linecap:round;stroke-linejoin:round;">
<g id="kvg:04ff5" kvg:element="俵">
	<g id="kvg:04ff5-g1" kvg:element="亻" kvg:variant="true" kvg:original="人" kvg:position="left" kvg:radical="general">
		<path style="fill:none;stroke:#808080" id="kvg:04ff5-s1" kvg:type="㇒" d="M31.76,17.5c0.21,2.01-0.06,3.15-0.75,4.87c-4.39,10.99-10.45,22.8-20.51,36.17"/>
		<path style="fill:none;stroke:#808080" id="kvg:04ff5-s2" kvg:type="㇑" d="M23.28,43c0.73,0.73,1.26,1.97,1.26,3.23c0,10.06-0.03,30.12-0.04,42.02c0,2.91,0,5.33,0,7"/>
	</g>
	<g id="kvg:04ff5-g2" kvg:element="表" kvg:position="right" kvg:phon="表">
		<g id="kvg:04ff5-g3" kvg:position="top">
			<g id="kvg:04ff5-g4" kvg:element="二" kvg:part="1">
				<path style="fill:none;stroke:#808080" id="kvg:04ff5-s3" kvg:type="㇐" d="M42.99,26.15c1.76,0.35,3.65,0.31,4.99,0.09c7.17-1.21,20.46-3.09,28.65-3.99c1.79-0.2,3.43-0.37,5.19,0.12"/>
			</g>
			<path style="fill:none;stroke:#808080" id="kvg:04ff5-s4" kvg:type="㇑a" d="M59.46,13c0.83,0.83,1.55,2.25,1.55,3.75c0,1.01,0.22,24.38,0.22,32"/>
			<g id="kvg:04ff5-g5" kvg:element="二" kvg:part="2">
				<path style="fill:none;stroke:#808080" id="kvg:04ff5-s5" kvg:type="㇐" d="M44.02,39.14c1.61,0.49,3.68,0.33,5.34,0.02C55.5,38,68.09,36.22,74.38,35.4c1.66-0.22,3-0.27,4.74-0.14"/>
			</g>
		</g>
		<g id="kvg:04ff5-g6" kvg:element="衣" kvg:partial="true" kvg:position="bottom">
			<g id="kvg:04ff5-g7" kvg:element="亠" kvg:partial="true" kvg:position="top">
				<path style="fill:none;stroke-width:4;" id="kvg:04ff5-s6" kvg:type="㇐" d="M34.34,51.95c2.56,1.16,6.36,0.58,9.04,0.23c10.6-1.39,31.63-4.52,43.61-5.62c2.75-0.25,5.33-0.5,8.03,0.23"/>
<circle cx="34.34" cy="51.95" r="5" style="fill:red;stroke:red;" />
			</g>
			<g id="kvg:04ff5-g8" kvg:position="bottom">
			</g>
		</g>
	</g>
</g>
</g></svg>