<?xml version="1.0" encoding="UTF-8"?>
  <!DOCTYPE svg PUBLIC "-//W3C//DTD SVG 1.0//EN" "http://www.w3.org/TR/2001/REC-SVG-20010904/DTD/svg10.dtd" [
  <!ATTLIST g xmlns:kvg CDATA #FIXED "http://kanjivg.tagaini.net" kvg:element CDATA #IMPLIED kvg:variant CDATA #IMPLIED kvg:partial CDATA #IMPLIED kvg:original CDATA #IMPLIED kvg:part CDATA #IMPLIED kvg:number CDATA #IMPLIED kvg:tradForm CDATA #IMPLIED kvg:radicalForm CDATA #IMPLIED kvg:position CDATA #IMPLIED kvg:radical CDATA #IMPLIED kvg:phon CDATA #IMPLIED >
  <!ATTLIST path xmlns:kvg CDATA #FIXED "http://kanjivg.tagaini.net" kvg:type CDATA #IMPLIED >
  ]>
  <svg xmlns="http://www.w3.org/2000/svg" width="109" height="109" viewBox="0 0 109 109">
<g id="kvg:StrokePaths_0500d" style="fill:none;stroke:#000000;stroke-width:3;stroke-linecap:round;stroke-linejoin:round;">
<g id="kvg:0500d" kvg:element="倍">
	<g id="kvg:0500d-g1" kvg:element="亻" kvg:variant="true" kvg:original="人" kvg:position="left" kvg:radical="general">
		<path style="fill:none;stroke:#808080" id="kvg:0500d-s1" kvg:type="㇒" d="M33.13,15.75c0.2,1.99-0.06,3.58-0.7,5.29c-4.1,10.86-9.29,21.56-18.68,34.78"/>
		<path style="fill:none;stroke:#808080" id="kvg:0500d-s2" kvg:type="㇑" d="M26.11,39.92c0.99,0.99,1.5,2.51,1.49,4.08c-0.03,11.48-0.17,33.19-0.21,44.75c-0.01,2.14-0.01,3.94-0.01,5.25"/>
	</g>
	<g id="kvg:0500d-g2" kvg:element="咅" kvg:position="right" kvg:phon="倍right">
		<g id="kvg:0500d-g3" kvg:element="立" kvg:position="top">
			<g id="kvg:0500d-g4" kvg:element="亠" kvg:position="top">
				<path style="fill:none;stroke:#808080" id="kvg:0500d-s3" kvg:type="㇑a" d="M61.75,13.75c0.94,0.94,1.75,2.25,1.75,4s0,6.25,0,11"/>
				<path style="fill:none;stroke-width:4;" id="kvg:0500d-s4" kvg:type="㇐" d="M43.75,30.45c1.51,0.33,3.28,0.49,4.78,0.33c9.72-1.03,23.35-3.03,33.06-3.77c2.51-0.19,4.02,0.16,5.28,0.32"/>
<circle cx="43.75" cy="30.45" r="5" style="fill:red;stroke:red;" />
			</g>
			<g id="kvg:0500d-g5" kvg:position="bottom">
			</g>
		</g>
		<g id="kvg:0500d-g6" kvg:element="口" kvg:position="bottom">
		</g>
	</g>
</g>
</g></svg>