<?xml version="1.0" encoding="UTF-8"?>
  <!DOCTYPE svg PUBLIC "-//W3C//DTD SVG 1.0//EN" "http://www.w3.org/TR/2001/REC-SVG-20010904/DTD/svg10.dtd" [
  <!ATTLIST g xmlns:kvg CDATA #FIXED "http://kanjivg.tagaini.net" kvg:element CDATA #IMPLIED kvg:variant CDATA #IMPLIED kvg:partial CDATA #IMPLIED kvg:original CDATA #IMPLIED kvg:part CDATA #IMPLIED kvg:number CDATA #IMPLIED kvg:tradForm CDATA #IMPLIED kvg:radicalForm CDATA #IMPLIED kvg:position CDATA #IMPLIED kvg:radical CDATA #IMPLIED kvg:phon CDATA #IMPLIED >
  <!ATTLIST path xmlns:kvg CDATA #FIXED "http://kanjivg.tagaini.net" kvg:type CDATA #IMPLIED >
  ]>
  <svg xmlns="http://www.w3.org/2000/svg" width="109" height="109" viewBox="0 0 109 109">
<g id="kvg:StrokePaths_05009" style="fill:none;stroke:#000000;stroke-width:3;stroke-linecap:round;stroke-linejoin:round;">
<g id="kvg:05009" kvg:element="倉">
	<g id="kvg:05009-g1" kvg:element="人" kvg:position="top" kvg:radical="general">
		<path style="fill:none;stroke:#808080" id="kvg:05009-s1" kvg:type="㇒" d="M52.38,11.62c0.11,0.93-0.13,2.45-0.72,3.72C48,23.25,35.88,39.25,13.75,51"/>
		<path style="fill:none;stroke:#808080" id="kvg:05009-s2" kvg:type="㇏" d="M53,15.62c4.69,4.69,22.79,18.55,31.53,24.83c2.89,2.08,5.81,4.25,9.35,4.92"/>
	</g>
	<g id="kvg:05009-g2" kvg:position="bottom">
		<path style="fill:none;stroke:#808080" id="kvg:05009-s3" kvg:type="㇐" d="M42.08,35.48c1.4,0,2.54-0.13,3.93-0.31c3.69-0.47,9.82-1.23,13.97-1.81c1.92-0.26,2.99-0.19,3.83-0.19"/>
		<path style="fill:none;stroke:#808080" id="kvg:05009-s4" kvg:type="㇕a" d="M33.5,45.5c1.25,0.5,2.12,0.5,3.75,0.37c7.43-0.6,22.38-2.42,28.23-3.1c3.39-0.4,6.29-0.22,5.56,3.9c-0.96,5.37-4.01,19.69-4.09,20.18"/>
		<path style="fill:none;stroke:#808080" id="kvg:05009-s5" kvg:type="㇐a" d="M36.5,56.34c3.17-0.1,28.48-3.3,32.05-3.41"/>
		<path style="fill:none;stroke-width:4;" id="kvg:05009-s6" kvg:type="㇐a" d="M33.23,67.38c6.51-0.6,25.32-3.13,33.41-3.73"/>
<circle cx="33.23" cy="67.38" r="5" style="fill:red;stroke:red;" />
		<g id="kvg:05009-g3" kvg:element="口">
		</g>
	</g>
</g>
</g></svg>