<?xml version="1.0" encoding="UTF-8"?>
  <!DOCTYPE svg PUBLIC "-//W3C//DTD SVG 1.0//EN" "http://www.w3.org/TR/2001/REC-SVG-20010904/DTD/svg10.dtd" [
  <!ATTLIST g xmlns:kvg CDATA #FIXED "http://kanjivg.tagaini.net" kvg:element CDATA #IMPLIED kvg:variant CDATA #IMPLIED kvg:partial CDATA #IMPLIED kvg:original CDATA #IMPLIED kvg:part CDATA #IMPLIED kvg:number CDATA #IMPLIED kvg:tradForm CDATA #IMPLIED kvg:radicalForm CDATA #IMPLIED kvg:position CDATA #IMPLIED kvg:radical CDATA #IMPLIED kvg:phon CDATA #IMPLIED >
  <!ATTLIST path xmlns:kvg CDATA #FIXED "http://kanjivg.tagaini.net" kvg:type CDATA #IMPLIED >
  ]>
  <svg xmlns="http://www.w3.org/2000/svg" width="109" height="109" viewBox="0 0 109 109">
<g id="kvg:StrokePaths_0501f" style="fill:none;stroke:#000000;stroke-width:3;stroke-linecap:round;stroke-linejoin:round;">
<g id="kvg:0501f" kvg:element="借">
	<g id="kvg:0501f-g1" kvg:element="亻" kvg:variant="true" kvg:original="人" kvg:position="left" kvg:radical="general">
		<path style="fill:none;stroke:#808080" id="kvg:0501f-s1" kvg:type="㇒" d="M32.88,18c0.23,2.28-0.06,3.73-0.79,5.69C27.46,36.16,22.5,48,11,63.04"/>
		<path style="fill:none;stroke:#808080" id="kvg:0501f-s2" kvg:type="㇑" d="M25.03,44.5c0.86,0.86,1.5,2.33,1.49,3.75c-0.04,10.52-0.2,30.15-0.26,41.25c-0.01,2.48-0.02,4.54-0.02,6"/>
	</g>
	<g id="kvg:0501f-g2" kvg:element="昔" kvg:position="right" kvg:phon="昔">
		<g id="kvg:0501f-g3" kvg:position="top">
			<g id="kvg:0501f-g4" kvg:element="廾" kvg:variant="true">
				<g id="kvg:0501f-g5" kvg:element="十" kvg:part="1">
					<path style="fill:none;stroke:#808080" id="kvg:0501f-s3" kvg:type="㇐" d="M44.65,34.14c2.22,0.36,4.67,0.19,6.73-0.05c7.78-0.9,24.06-2.84,31.49-3.32c1.85-0.12,3.95-0.26,5.76,0.25"/>
				</g>
				<g id="kvg:0501f-g6" kvg:element="丿" kvg:variant="true">
					<path style="fill:none;stroke-width:4;" id="kvg:0501f-s4" kvg:type="㇑a" d="M54.33,20.25c0.96,0.96,1.42,2.38,1.69,4c0.17,1,0.85,15,1.51,26"/>
<circle cx="54.33" cy="20.25" r="5" style="fill:red;stroke:red;" />
				</g>
				<g id="kvg:0501f-g7" kvg:element="十" kvg:part="2">
				</g>
			</g>
		</g>
		<g id="kvg:0501f-g8" kvg:element="日" kvg:position="bottom">
		</g>
	</g>
</g>
</g></svg>