<?xml version="1.0" encoding="UTF-8"?>
  <!DOCTYPE svg PUBLIC "-//W3C//DTD SVG 1.0//EN" "http://www.w3.org/TR/2001/REC-SVG-20010904/DTD/svg10.dtd" [
  <!ATTLIST g xmlns:kvg CDATA #FIXED "http://kanjivg.tagaini.net" kvg:element CDATA #IMPLIED kvg:variant CDATA #IMPLIED kvg:partial CDATA #IMPLIED kvg:original CDATA #IMPLIED kvg:part CDATA #IMPLIED kvg:number CDATA #IMPLIED kvg:tradForm CDATA #IMPLIED kvg:radicalForm CDATA #IMPLIED kvg:position CDATA #IMPLIED kvg:radical CDATA #IMPLIED kvg:phon CDATA #IMPLIED >
  <!ATTLIST path xmlns:kvg CDATA #FIXED "http://kanjivg.tagaini.net" kvg:type CDATA #IMPLIED >
  ]>
  <svg xmlns="http://www.w3.org/2000/svg" width="109" height="109" viewBox="0 0 109 109">
<g id="kvg:StrokePaths_05065" style="fill:none;stroke:#000000;stroke-width:3;stroke-linecap:round;stroke-linejoin:round;">
<g id="kvg:05065" kvg:element="健">
	<g id="kvg:05065-g1" kvg:element="亻" kvg:variant="true" kvg:original="人" kvg:position="left" kvg:radical="general">
		<path style="fill:none;stroke:#808080" id="kvg:05065-s1" kvg:type="㇒" d="M29.52,18.25c0.19,1.86-0.05,4.31-0.68,5.9c-3.97,10.18-8.5,19.24-17.59,31.64"/>
		<path style="fill:none;stroke:#808080" id="kvg:05065-s2" kvg:type="㇑" d="M22.95,42c0.54,0.88,1.22,2.35,1.22,3.79c0,12.75-0.26,29.34-0.35,40.96c-0.02,2.35-0.03,4.5-0.03,6.38"/>
	</g>
	<g id="kvg:05065-g2" kvg:element="建" kvg:position="right" kvg:phon="建">
		<g id="kvg:05065-g3" kvg:element="聿" kvg:position="nyoc">
			<g id="kvg:05065-g4" kvg:element="⺕" kvg:variant="true" kvg:original="彑">
				<path style="fill:none;stroke:#808080" id="kvg:05065-s3" kvg:type="㇕c" d="M56.08,26.95c1.54,0.55,2.84,0.7,4.28,0.5c8.52-1.2,17.39-2.35,23.68-2.75c2.04-0.13,3.5,1.03,2.9,2.95c-1.56,4.97-2.94,11.47-4.21,18.17"/>
				<path style="fill:none;stroke:#808080" id="kvg:05065-s4" kvg:type="㇐" d="M52.25,38.23c2.3,0.32,4.84,0.19,7.13-0.05c8.5-0.86,21.76-2.16,31.5-2.73c2.23-0.13,4.37-0.2,6.62,0.2"/>
				<path style="fill:none;stroke-width:4;" id="kvg:05065-s5" kvg:type="㇐" d="M57.27,48.86c1.84,0.46,3.75,0.31,5.61,0.16c4.75-0.4,11.59-1.51,18.02-2.31c1.78-0.22,3.33-0.43,5.1-0.07"/>
<circle cx="57.27" cy="48.86" r="5" style="fill:red;stroke:red;" />
			</g>
			<g id="kvg:05065-g5" kvg:element="丨">
			</g>
		</g>
		<g id="kvg:05065-g6" kvg:element="廴" kvg:position="nyo">
		</g>
	</g>
</g>
</g></svg>