<?xml version="1.0" encoding="UTF-8"?>
  <!DOCTYPE svg PUBLIC "-//W3C//DTD SVG 1.0//EN" "http://www.w3.org/TR/2001/REC-SVG-20010904/DTD/svg10.dtd" [
  <!ATTLIST g xmlns:kvg CDATA #FIXED "http://kanjivg.tagaini.net" kvg:element CDATA #IMPLIED kvg:variant CDATA #IMPLIED kvg:partial CDATA #IMPLIED kvg:original CDATA #IMPLIED kvg:part CDATA #IMPLIED kvg:number CDATA #IMPLIED kvg:tradForm CDATA #IMPLIED kvg:radicalForm CDATA #IMPLIED kvg:position CDATA #IMPLIED kvg:radical CDATA #IMPLIED kvg:phon CDATA #IMPLIED >
  <!ATTLIST path xmlns:kvg CDATA #FIXED "http://kanjivg.tagaini.net" kvg:type CDATA #IMPLIED >
  ]>
  <svg xmlns="http://www.w3.org/2000/svg" width="109" height="109" viewBox="0 0 109 109">
<g id="kvg:StrokePaths_05099" style="fill:none;stroke:#000000;stroke-width:3;stroke-linecap:round;stroke-linejoin:round;">
<g id="kvg:05099" kvg:element="備">
	<g id="kvg:05099-g1" kvg:element="亻" kvg:variant="true" kvg:original="人" kvg:position="left" kvg:radical="general">
		<path style="fill:none;stroke:#808080" id="kvg:05099-s1" kvg:type="㇒" d="M35.25,15c0.25,2-0.07,3.37-0.87,5.08C29.25,31,23.75,42.5,12,55.79"/>
		<path style="fill:none;stroke:#808080" id="kvg:05099-s2" kvg:type="㇑" d="M26.78,39.25c0.98,0.98,1.51,2.72,1.51,3.98c0,11.17-0.02,33.73-0.04,45.02c0,3.38-0.01,5.75-0.01,6.5"/>
	</g>
	<g id="kvg:05099-g2" kvg:position="right" kvg:phon="備right">
		<g id="kvg:05099-g3" kvg:element="艹" kvg:variant="true" kvg:original="艸">
			<path style="fill:none;stroke:#808080" id="kvg:05099-s3" kvg:type="㇐" d="M42.75,24.77c2.01,0.6,4.09,0.42,6.14,0.2c8.95-0.98,24.89-2.7,34.74-3.11c2.3-0.1,4.38-0.23,6.88,0.17"/>
			<path style="fill:none;stroke:#808080" id="kvg:05099-s4" kvg:type="㇑a" d="M53.92,11.75c0.79,0.79,1.31,2.11,1.4,3c0.94,9.75,1.44,14.75,2.34,22.75"/>
			<path style="fill:none;stroke-width:4;" id="kvg:05099-s5" kvg:type="㇑a" d="M75.35,10.5c0.76,0.76,0.74,2.26,0.65,3c-1,7.75-2,14.75-3.32,23"/>
<circle cx="75.35" cy="10.5" r="5" style="fill:red;stroke:red;" />
		</g>
		<g id="kvg:05099-g4" kvg:element="厂">
		</g>
		<g id="kvg:05099-g5" kvg:element="用">
		</g>
	</g>
</g>
</g></svg>