<?xml version="1.0" encoding="UTF-8"?>
  <!DOCTYPE svg PUBLIC "-//W3C//DTD SVG 1.0//EN" "http://www.w3.org/TR/2001/REC-SVG-20010904/DTD/svg10.dtd" [
  <!ATTLIST g xmlns:kvg CDATA #FIXED "http://kanjivg.tagaini.net" kvg:element CDATA #IMPLIED kvg:variant CDATA #IMPLIED kvg:partial CDATA #IMPLIED kvg:original CDATA #IMPLIED kvg:part CDATA #IMPLIED kvg:number CDATA #IMPLIED kvg:tradForm CDATA #IMPLIED kvg:radicalForm CDATA #IMPLIED kvg:position CDATA #IMPLIED kvg:radical CDATA #IMPLIED kvg:phon CDATA #IMPLIED >
  <!ATTLIST path xmlns:kvg CDATA #FIXED "http://kanjivg.tagaini.net" kvg:type CDATA #IMPLIED >
  ]>
  <svg xmlns="http://www.w3.org/2000/svg" width="109" height="109" viewBox="0 0 109 109">
<g id="kvg:StrokePaths_050b7" style="fill:none;stroke:#000000;stroke-width:3;stroke-linecap:round;stroke-linejoin:round;">
<g id="kvg:050b7" kvg:element="傷">
	<g id="kvg:050b7-g1" kvg:element="亻" kvg:variant="true" kvg:original="人" kvg:position="left" kvg:radical="general">
		<path style="fill:none;stroke:#808080" id="kvg:050b7-s1" kvg:type="㇒" d="M32.02,14c0.2,2.11-0.05,3.87-0.69,5.68c-4.02,11.52-9.87,23.34-19.08,37.36"/>
		<path style="fill:none;stroke:#808080" id="kvg:050b7-s2" kvg:type="㇑" d="M25.46,38.25c1.08,1.08,1.64,2.81,1.64,4.29c0,12.22,0.07,34.15,0.1,46.71c0.01,3.07,0.01,5.58,0.01,7.25"/>
	</g>
	<g id="kvg:050b7-g2" kvg:position="right" kvg:phon="傷right">
		<g id="kvg:050b7-g3" kvg:element="𠂉">
			<path style="fill:none;stroke:#808080" id="kvg:050b7-s3" kvg:type="㇒" d="M53.35,8c0.07,1.04,0.01,1.82-0.37,2.79c-2.32,5.91-6.13,12.28-12.23,19.26"/>
			<path style="fill:none;stroke:#808080" id="kvg:050b7-s4" kvg:type="㇐" d="M52.5,19.14c1.25,0.24,2.24,0.21,3,0.11c4.18-0.57,16.27-1.76,22.89-2.46c1.8-0.19,4.23-0.16,5.86-0.03"/>
		</g>
		<g id="kvg:050b7-g4" kvg:element="昜">
			<g id="kvg:050b7-g5" kvg:element="旦" kvg:position="top">
				<g id="kvg:050b7-g6" kvg:element="日">
					<path style="fill:none;stroke:#808080" id="kvg:050b7-s5" kvg:type="㇑" d="M49.38,29.12c0.75,0.75,1.08,1.61,1.23,2.63c0.53,3.58,1.46,10.15,2.03,14.23c0.28,1.97,0.47,3.36,0.5,3.54"/>
					<path style="fill:none;stroke:#808080" id="kvg:050b7-s6" kvg:type="㇕a" d="M51.07,29.86c4.47-0.52,17.11-1.81,24.69-2.4c3.42-0.27,4.99,0.92,4.54,3.8c-0.75,4.78-1.34,8.47-2.34,12.3c-0.34,1.28-0.69,2.49-1.04,3.59"/>
					<path style="fill:none;stroke:#808080" id="kvg:050b7-s7" kvg:type="㇐a" d="M52.59,38.03c4.91-0.41,23.34-1.76,25.63-1.76"/>
					<path style="fill:none;stroke:#808080" id="kvg:050b7-s8" kvg:type="㇐a" d="M53.96,47.11c4.14-0.45,17.35-1.4,22.5-1.79"/>
				</g>
				<g id="kvg:050b7-g7" kvg:element="一">
					<path style="fill:none;stroke-width:4;" id="kvg:050b7-s9" kvg:type="㇐" d="M36.31,56.81c2.85,0.68,6.06,0.27,8.94,0.1c12.18-0.73,29.74-2.65,41.38-3.13c2.77-0.11,5.54-0.2,8.29,0.19"/>
<circle cx="36.31" cy="56.81" r="5" style="fill:red;stroke:red;" />
				</g>
			</g>
			<g id="kvg:050b7-g8" kvg:element="勿" kvg:position="bottom">
				<g id="kvg:050b7-g9" kvg:element="勹">
				</g>
			</g>
		</g>
	</g>
</g>
</g></svg>