<?xml version="1.0" encoding="UTF-8"?>
  <!DOCTYPE svg PUBLIC "-//W3C//DTD SVG 1.0//EN" "http://www.w3.org/TR/2001/REC-SVG-20010904/DTD/svg10.dtd" [
  <!ATTLIST g xmlns:kvg CDATA #FIXED "http://kanjivg.tagaini.net" kvg:element CDATA #IMPLIED kvg:variant CDATA #IMPLIED kvg:partial CDATA #IMPLIED kvg:original CDATA #IMPLIED kvg:part CDATA #IMPLIED kvg:number CDATA #IMPLIED kvg:tradForm CDATA #IMPLIED kvg:radicalForm CDATA #IMPLIED kvg:position CDATA #IMPLIED kvg:radical CDATA #IMPLIED kvg:phon CDATA #IMPLIED >
  <!ATTLIST path xmlns:kvg CDATA #FIXED "http://kanjivg.tagaini.net" kvg:type CDATA #IMPLIED >
  ]>
  <svg xmlns="http://www.w3.org/2000/svg" width="109" height="109" viewBox="0 0 109 109">
<g id="kvg:StrokePaths_050cd" style="fill:none;stroke:#000000;stroke-width:3;stroke-linecap:round;stroke-linejoin:round;">
<g id="kvg:050cd" kvg:element="働">
	<g id="kvg:050cd-g1" kvg:element="亻" kvg:variant="true" kvg:original="人" kvg:position="left" kvg:radical="general">
		<path style="fill:none;stroke:#808080" id="kvg:050cd-s1" kvg:type="㇒" d="M29.5,17c0.25,1.35,0.25,2.7-0.24,4C24.7,32.98,18.88,47.23,9,60.29"/>
		<path style="fill:none;stroke:#808080" id="kvg:050cd-s2" kvg:type="㇑" d="M21.78,43.5c0.73,0.73,1,1.97,1,3.12c0,10.4-0.02,29.95-0.03,41c0,2.58,0,4.69,0,6.12"/>
	</g>
	<g id="kvg:050cd-g2" kvg:element="動" kvg:position="right" kvg:phon="動">
		<g id="kvg:050cd-g3" kvg:element="重" kvg:position="left">
			<g id="kvg:050cd-g4" kvg:element="千" kvg:part="1">
				<g id="kvg:050cd-g5" kvg:element="丿">
					<path style="fill:none;stroke:#808080" id="kvg:050cd-s3" kvg:type="㇒" d="M58.89,13.26c-0.02,1.11-0.41,1.84-1.27,2.72c-2.51,2.56-10.37,6.88-21.52,10.78"/>
				</g>
				<g id="kvg:050cd-g6" kvg:element="十" kvg:part="1">
					<path style="fill:none;stroke-width:4;" id="kvg:050cd-s4" kvg:type="㇐" d="M30.22,35.31c1.51,0.19,3.54,0.23,4.81,0.1c10.52-1.04,20.28-2.42,30.05-3.23c2.08-0.17,3.35,0.14,4.39,0.35"/>
<circle cx="30.22" cy="35.31" r="5" style="fill:red;stroke:red;" />
				</g>
			</g>
			<g id="kvg:050cd-g7" kvg:element="里">
				<g id="kvg:050cd-g8" kvg:element="千" kvg:part="2">
					<g id="kvg:050cd-g9" kvg:element="十" kvg:part="2">
					</g>
				</g>
			</g>
		</g>
		<g id="kvg:050cd-g10" kvg:element="力" kvg:position="right">
		</g>
	</g>
</g>
</g></svg>