<?xml version="1.0" encoding="UTF-8"?>
  <!DOCTYPE svg PUBLIC "-//W3C//DTD SVG 1.0//EN" "http://www.w3.org/TR/2001/REC-SVG-20010904/DTD/svg10.dtd" [
  <!ATTLIST g xmlns:kvg CDATA #FIXED "http://kanjivg.tagaini.net" kvg:element CDATA #IMPLIED kvg:variant CDATA #IMPLIED kvg:partial CDATA #IMPLIED kvg:original CDATA #IMPLIED kvg:part CDATA #IMPLIED kvg:number CDATA #IMPLIED kvg:tradForm CDATA #IMPLIED kvg:radicalForm CDATA #IMPLIED kvg:position CDATA #IMPLIED kvg:radical CDATA #IMPLIED kvg:phon CDATA #IMPLIED >
  <!ATTLIST path xmlns:kvg CDATA #FIXED "http://kanjivg.tagaini.net" kvg:type CDATA #IMPLIED >
  ]>
  <svg xmlns="http://www.w3.org/2000/svg" width="109" height="109" viewBox="0 0 109 109">
<g id="kvg:StrokePaths_050cf" style="fill:none;stroke:#000000;stroke-width:3;stroke-linecap:round;stroke-linejoin:round;">
<g id="kvg:050cf" kvg:element="像">
	<g id="kvg:050cf-g1" kvg:element="亻" kvg:variant="true" kvg:original="人" kvg:position="left" kvg:radical="general">
		<path style="fill:none;stroke:#808080" id="kvg:050cf-s1" kvg:type="㇒" d="M30.27,17c0.2,2.02-0.06,3.67-0.71,5.41c-4.18,11.05-9.48,21.93-19.05,35.38"/>
		<path style="fill:none;stroke:#808080" id="kvg:050cf-s2" kvg:type="㇑" d="M23.28,40.75c1.05,1.05,1.5,2.62,1.5,4.5c0,11.35-0.02,29.65-0.03,41c0,3.43,0,6.22,0,8"/>
	</g>
	<g id="kvg:050cf-g2" kvg:element="象" kvg:position="right" kvg:phon="象">
		<g id="kvg:050cf-g3" kvg:element="𠂊" kvg:variant="true" kvg:original="勹" kvg:position="top">
			<path style="fill:none;stroke:#808080" id="kvg:050cf-s3" kvg:type="㇒" d="M54.08,12.61c0.11,0.89,0.01,1.77-0.52,2.48c-2.43,3.28-6.18,8.03-13.47,12.44"/>
			<path style="fill:none;stroke:#808080" id="kvg:050cf-s4" kvg:type="㇇a" d="M53.03,19.15c3.1-0.27,10.35-1.4,13.64-1.97c1.78-0.31,2.73,1.76,1.97,2.58c-3.16,3.43-4.38,5.5-7.71,10.13"/>
		</g>
		<g id="kvg:050cf-g4" kvg:position="bottom">
			<path style="fill:none;stroke:#808080" id="kvg:050cf-s5" kvg:type="㇑" d="M40.16,32.83c0.81,0.56,1.35,1.35,1.64,2.26c0.94,2.91,1.67,5.54,2.47,8.9c0.29,1.24,0.56,2.47,0.79,3.65"/>
			<path style="fill:none;stroke:#808080" id="kvg:050cf-s6" kvg:type="㇕a" d="M42.36,33.91c7.34-1.28,30.52-4.35,38.02-5.15c3.3-0.35,4.73,0.8,3.97,4.26c-0.46,2.07-1.19,4.34-2.27,6.76c-0.53,1.18-1.14,2.35-1.85,3.47"/>
			<path style="fill:none;stroke-width:4;" id="kvg:050cf-s7" kvg:type="㇑a" d="M62.14,32.83c0.44,0.47,0.78,1.54,0.78,2.58c0,1.59-0.01,6.46-0.01,7.84"/>
<circle cx="62.14" cy="32.83" r="5" style="fill:red;stroke:red;" />
			<g id="kvg:050cf-g5" kvg:element="豕">
			</g>
		</g>
	</g>
</g>
</g></svg>