<?xml version="1.0" encoding="UTF-8"?>
  <!DOCTYPE svg PUBLIC "-//W3C//DTD SVG 1.0//EN" "http://www.w3.org/TR/2001/REC-SVG-20010904/DTD/svg10.dtd" [
  <!ATTLIST g xmlns:kvg CDATA #FIXED "http://kanjivg.tagaini.net" kvg:element CDATA #IMPLIED kvg:variant CDATA #IMPLIED kvg:partial CDATA #IMPLIED kvg:original CDATA #IMPLIED kvg:part CDATA #IMPLIED kvg:number CDATA #IMPLIED kvg:tradForm CDATA #IMPLIED kvg:radicalForm CDATA #IMPLIED kvg:position CDATA #IMPLIED kvg:radical CDATA #IMPLIED kvg:phon CDATA #IMPLIED >
  <!ATTLIST path xmlns:kvg CDATA #FIXED "http://kanjivg.tagaini.net" kvg:type CDATA #IMPLIED >
  ]>
  <svg xmlns="http://www.w3.org/2000/svg" width="109" height="109" viewBox="0 0 109 109">
<g id="kvg:StrokePaths_05104" style="fill:none;stroke:#000000;stroke-width:3;stroke-linecap:round;stroke-linejoin:round;">
<g id="kvg:05104" kvg:element="億">
	<g id="kvg:05104-g1" kvg:element="亻" kvg:variant="true" kvg:original="人" kvg:position="left" kvg:radical="general">
		<path style="fill:none;stroke:#808080" id="kvg:05104-s1" kvg:type="㇒" d="M32.26,16c0.14,1.34,0.3,2.97-0.12,4.39C29.5,29.25,21,48.38,9.62,62.55"/>
		<path style="fill:none;stroke:#808080" id="kvg:05104-s2" kvg:type="㇑" d="M25.03,41.26c0.67,0.67,1.25,1.87,1.25,3.12c0,8.47-0.02,30.84-0.03,43.87c0,3.16,0,5.77,0,7.5"/>
	</g>
	<g id="kvg:05104-g2" kvg:element="意" kvg:position="right" kvg:phon="意">
		<g id="kvg:05104-g3" kvg:element="音" kvg:position="top">
			<g id="kvg:05104-g4" kvg:element="立">
				<g id="kvg:05104-g5" kvg:element="亠" kvg:position="top">
					<path style="fill:none;stroke:#808080" id="kvg:05104-s3" kvg:type="㇑a" d="M58.7,13.32c0.8,0.8,1.25,1.93,1.25,2.87c0,3.06-0.07,5.18-0.07,7.78"/>
					<path style="fill:none;stroke-width:4;" id="kvg:05104-s4" kvg:type="㇐" d="M40.41,27.26c2.22,0.49,4.46,0.2,6.73-0.16c6.23-0.99,18.57-2.73,28.77-4.14c2.3-0.32,4.34-0.33,6.33,0.04"/>
<circle cx="40.41" cy="27.26" r="5" style="fill:red;stroke:red;" />
				</g>
				<g id="kvg:05104-g6" kvg:position="bottom">
				</g>
			</g>
			<g id="kvg:05104-g7" kvg:element="日">
			</g>
		</g>
		<g id="kvg:05104-g8" kvg:element="心" kvg:position="bottom">
		</g>
	</g>
</g>
</g></svg>