<?xml version="1.0" encoding="UTF-8"?>
  <!DOCTYPE svg PUBLIC "-//W3C//DTD SVG 1.0//EN" "http://www.w3.org/TR/2001/REC-SVG-20010904/DTD/svg10.dtd" [
  <!ATTLIST g xmlns:kvg CDATA #FIXED "http://kanjivg.tagaini.net" kvg:element CDATA #IMPLIED kvg:variant CDATA #IMPLIED kvg:partial CDATA #IMPLIED kvg:original CDATA #IMPLIED kvg:part CDATA #IMPLIED kvg:number CDATA #IMPLIED kvg:tradForm CDATA #IMPLIED kvg:radicalForm CDATA #IMPLIED kvg:position CDATA #IMPLIED kvg:radical CDATA #IMPLIED kvg:phon CDATA #IMPLIED >
  <!ATTLIST path xmlns:kvg CDATA #FIXED "http://kanjivg.tagaini.net" kvg:type CDATA #IMPLIED >
  ]>
  <svg xmlns="http://www.w3.org/2000/svg" width="109" height="109" viewBox="0 0 109 109">
<g id="kvg:StrokePaths_05149" style="fill:none;stroke:#000000;stroke-width:3;stroke-linecap:round;stroke-linejoin:round;">
<g id="kvg:05149" kvg:element="光">
	<g id="kvg:05149-g1" kvg:element="⺌" kvg:variant="true" kvg:original="小" kvg:position="top" kvg:radical="nelson">
		<path style="fill:none;stroke:#808080" id="kvg:05149-s1" kvg:type="㇑a" d="M51.72,15.37c1.14,1.14,1.93,3.06,1.93,5.27c0,6.12,0.05,20.6-0.03,26.62"/>
		<path style="fill:none;stroke:#808080" id="kvg:05149-s2" kvg:type="㇔" d="M26.5,26.25c4.01,2.63,10.36,10.84,11.37,14.94"/>
		<path style="fill:none;stroke:#808080" id="kvg:05149-s3" kvg:type="㇒" d="M77.5,20.5c0.06,0.86,0.01,1.7-0.21,2.54c-1.08,4.25-5.38,12.46-11.17,17.59"/>
	</g>
	<g id="kvg:05149-g2" kvg:element="兀" kvg:position="bottom">
		<g id="kvg:05149-g3" kvg:element="一">
			<path style="fill:none;stroke-width:4;" id="kvg:05149-s4" kvg:type="㇐" d="M16.13,51.48c2.19,0.54,5,0.65,8.38,0.29c15.8-1.67,41.61-4.89,58.84-5.73c3.64-0.18,5.83,0.26,7.65,0.53"/>
<circle cx="16.13" cy="51.48" r="5" style="fill:red;stroke:red;" />
		</g>
		<g id="kvg:05149-g4" kvg:element="儿" kvg:original="八" kvg:radical="tradit">
			<g id="kvg:05149-g5" kvg:element="丿">
			</g>
		</g>
	</g>
</g>
</g></svg>