<?xml version="1.0" encoding="UTF-8"?>
  <!DOCTYPE svg PUBLIC "-//W3C//DTD SVG 1.0//EN" "http://www.w3.org/TR/2001/REC-SVG-20010904/DTD/svg10.dtd" [
  <!ATTLIST g xmlns:kvg CDATA #FIXED "http://kanjivg.tagaini.net" kvg:element CDATA #IMPLIED kvg:variant CDATA #IMPLIED kvg:partial CDATA #IMPLIED kvg:original CDATA #IMPLIED kvg:part CDATA #IMPLIED kvg:number CDATA #IMPLIED kvg:tradForm CDATA #IMPLIED kvg:radicalForm CDATA #IMPLIED kvg:position CDATA #IMPLIED kvg:radical CDATA #IMPLIED kvg:phon CDATA #IMPLIED >
  <!ATTLIST path xmlns:kvg CDATA #FIXED "http://kanjivg.tagaini.net" kvg:type CDATA #IMPLIED >
  ]>
  <svg xmlns="http://www.w3.org/2000/svg" width="109" height="109" viewBox="0 0 109 109">
<g id="kvg:StrokePaths_05178" style="fill:none;stroke:#000000;stroke-width:3;stroke-linecap:round;stroke-linejoin:round;">
<g id="kvg:05178" kvg:element="典">
	<g id="kvg:05178-g1" kvg:element="曲" kvg:variant="true" kvg:position="top">
		<g id="kvg:05178-g2" kvg:element="日" kvg:part="1">
			<path style="fill:none;stroke:#808080" id="kvg:05178-s1" kvg:type="㇑a" d="M25.22,31.84c0.97,0.97,1.46,2.71,1.58,4c0.33,3.53,3.63,34.81,3.63,35.46"/>
			<path style="fill:none;stroke:#808080" id="kvg:05178-s2" kvg:type="㇕b" d="M27.23,33.41c4.5-0.49,43.47-3.96,52.29-4.8c3.65-0.35,5.9,0.52,5.28,4.65c-0.87,5.77-3.43,20.11-5.2,34.53"/>
		</g>
		<g id="kvg:05178-g3" kvg:element="廾">
			<g id="kvg:05178-g4" kvg:element="丿" kvg:variant="true">
				<path style="fill:none;stroke:#808080" id="kvg:05178-s3" kvg:type="㇑a" d="M42.47,16.98c1.28,0.89,1.77,2.6,1.8,3.44c0.48,17.45,1.36,39.95,1.71,49.4"/>
			</g>
			<g id="kvg:05178-g5" kvg:element="十">
				<path style="fill:none;stroke:#808080" id="kvg:05178-s4" kvg:type="㇑a" d="M65.06,13.25c0.84,0.84,1.38,2.37,1.29,3.69c-1.73,25.81-2.32,34.68-3.51,52.09"/>
				<path style="fill:none;stroke-width:4;" id="kvg:05178-s5" kvg:type="㇐a" d="M29.59,52.34c15.66-1.47,42.41-3.97,51.5-4.23"/>
<circle cx="29.59" cy="52.34" r="5" style="fill:red;stroke:red;" />
			</g>
		</g>
		<g id="kvg:05178-g6" kvg:element="日" kvg:part="2">
		</g>
	</g>
	<g id="kvg:05178-g7" kvg:element="八" kvg:position="bottom" kvg:radical="general">
		<g id="kvg:05178-g8" kvg:position="left">
		</g>
		<g id="kvg:05178-g9" kvg:position="right">
		</g>
	</g>
</g>
</g></svg>