<?xml version="1.0" encoding="UTF-8"?>
  <!DOCTYPE svg PUBLIC "-//W3C//DTD SVG 1.0//EN" "http://www.w3.org/TR/2001/REC-SVG-20010904/DTD/svg10.dtd" [
  <!ATTLIST g xmlns:kvg CDATA #FIXED "http://kanjivg.tagaini.net" kvg:element CDATA #IMPLIED kvg:variant CDATA #IMPLIED kvg:partial CDATA #IMPLIED kvg:original CDATA #IMPLIED kvg:part CDATA #IMPLIED kvg:number CDATA #IMPLIED kvg:tradForm CDATA #IMPLIED kvg:radicalForm CDATA #IMPLIED kvg:position CDATA #IMPLIED kvg:radical CDATA #IMPLIED kvg:phon CDATA #IMPLIED >
  <!ATTLIST path xmlns:kvg CDATA #FIXED "http://kanjivg.tagaini.net" kvg:type CDATA #IMPLIED >
  ]>
  <svg xmlns="http://www.w3.org/2000/svg" width="109" height="109" viewBox="0 0 109 109">
<g id="kvg:StrokePaths_05175" style="fill:none;stroke:#000000;stroke-width:3;stroke-linecap:round;stroke-linejoin:round;">
<g id="kvg:05175" kvg:element="兵">
	<g id="kvg:05175-g1" kvg:element="丘" kvg:position="top">
		<g id="kvg:05175-g2" kvg:element="斤">
			<g id="kvg:05175-g3" kvg:element="丿" kvg:radical="nelson">
				<path style="fill:none;stroke:#808080" id="kvg:05175-s1" kvg:type="㇒" d="M63.53,13c-0.03,1-0.73,2.17-1.42,2.86c-6.96,7.1-13.96,11.56-27.87,18.68"/>
			</g>
			<path style="fill:none;stroke:#808080" id="kvg:05175-s2" kvg:type="㇑a" d="M33.18,34.33c1.06,1.06,1.62,2.26,1.77,4.07c0.55,6.7,1.65,21.04,2.3,27.54"/>
			<path style="fill:none;stroke:#808080" id="kvg:05175-s3" kvg:type="㇐b" d="M36.53,41.82c9.72-1.17,28.09-4.32,39.51-6.15c1.75-0.28,4.85-0.44,5.96-0.25"/>
			<path style="fill:none;stroke-width:4;" id="kvg:05175-s4" kvg:type="㇑a" d="M67.87,41.47c0.63,1.03,0.81,2.14,0.57,3.32c-0.7,3.46-1.95,8.21-3.95,16.88"/>
<circle cx="67.87" cy="41.47" r="5" style="fill:red;stroke:red;" />
		</g>
		<g id="kvg:05175-g4" kvg:element="一">
		</g>
	</g>
	<g id="kvg:05175-g5" kvg:element="八" kvg:position="bottom" kvg:radical="tradit">
		<g id="kvg:05175-g6" kvg:position="left">
		</g>
		<g id="kvg:05175-g7" kvg:position="right">
		</g>
	</g>
</g>
</g></svg>