<?xml version="1.0" encoding="UTF-8"?>
  <!DOCTYPE svg PUBLIC "-//W3C//DTD SVG 1.0//EN" "http://www.w3.org/TR/2001/REC-SVG-20010904/DTD/svg10.dtd" [
  <!ATTLIST g xmlns:kvg CDATA #FIXED "http://kanjivg.tagaini.net" kvg:element CDATA #IMPLIED kvg:variant CDATA #IMPLIED kvg:partial CDATA #IMPLIED kvg:original CDATA #IMPLIED kvg:part CDATA #IMPLIED kvg:number CDATA #IMPLIED kvg:tradForm CDATA #IMPLIED kvg:radicalForm CDATA #IMPLIED kvg:position CDATA #IMPLIED kvg:radical CDATA #IMPLIED kvg:phon CDATA #IMPLIED >
  <!ATTLIST path xmlns:kvg CDATA #FIXED "http://kanjivg.tagaini.net" kvg:type CDATA #IMPLIED >
  ]>
  <svg xmlns="http://www.w3.org/2000/svg" width="109" height="109" viewBox="0 0 109 109">
<g id="kvg:StrokePaths_0518a" style="fill:none;stroke:#000000;stroke-width:3;stroke-linecap:round;stroke-linejoin:round;">
<g id="kvg:0518a" kvg:element="冊">
	<g id="kvg:0518a-g1" kvg:element="冂" kvg:radical="tradit">
		<g id="kvg:0518a-g2" kvg:element="丨" kvg:radical="nelson">
			<path style="fill:none;stroke:#808080" id="kvg:0518a-s1" kvg:type="㇑" d="M27.19,18.64c0.84,0.83,1.53,2.36,1.53,4.53c0,2.26-0.04,48.62-0.05,65.7c0,3.36,0,5.59,0,6.12"/>
		</g>
		<path style="fill:none;stroke:#808080" id="kvg:0518a-s2" kvg:type="㇆a" d="M29.71,21.29c7.38-0.96,41.79-4.54,48.31-5.3c3.17-0.37,5.05,0.76,5.05,4.13c0,2.01-0.58,61.86-0.58,67.38c0,8.88-4.41,3.16-6.88,0.69"/>
	</g>
	<g id="kvg:0518a-g3" kvg:element="廾" kvg:variant="true">
		<g id="kvg:0518a-g4" kvg:element="丿" kvg:variant="true">
			<path style="fill:none;stroke-width:4;" id="kvg:0518a-s3" kvg:type="㇑" d="M45.37,22.5c0.81,0.81,1.21,2.25,1.21,3.5c0,0.69,0.05,43.47,0.04,59.25c0,3.4,0,5.55-0.01,5.75"/>
<circle cx="45.37" cy="22.5" r="5" style="fill:red;stroke:red;" />
		</g>
		<g id="kvg:0518a-g5" kvg:element="十" kvg:variant="true">
		</g>
	</g>
</g>
</g></svg>