<?xml version="1.0" encoding="UTF-8"?>
  <!DOCTYPE svg PUBLIC "-//W3C//DTD SVG 1.0//EN" "http://www.w3.org/TR/2001/REC-SVG-20010904/DTD/svg10.dtd" [
  <!ATTLIST g xmlns:kvg CDATA #FIXED "http://kanjivg.tagaini.net" kvg:element CDATA #IMPLIED kvg:variant CDATA #IMPLIED kvg:partial CDATA #IMPLIED kvg:original CDATA #IMPLIED kvg:part CDATA #IMPLIED kvg:number CDATA #IMPLIED kvg:tradForm CDATA #IMPLIED kvg:radicalForm CDATA #IMPLIED kvg:position CDATA #IMPLIED kvg:radical CDATA #IMPLIED kvg:phon CDATA #IMPLIED >
  <!ATTLIST path xmlns:kvg CDATA #FIXED "http://kanjivg.tagaini.net" kvg:type CDATA #IMPLIED >
  ]>
  <svg xmlns="http://www.w3.org/2000/svg" width="109" height="109" viewBox="0 0 109 109">
<g id="kvg:StrokePaths_05217" style="fill:none;stroke:#000000;stroke-width:3;stroke-linecap:round;stroke-linejoin:round;">
<g id="kvg:05217" kvg:element="列">
	<g id="kvg:05217-g1" kvg:element="歹" kvg:position="left" kvg:radical="nelson">
		<g id="kvg:05217-g2" kvg:element="一">
			<path style="fill:none;stroke:#808080" id="kvg:05217-s1" kvg:type="㇐" d="M16.25,24.98c2.5,0.64,5.16,0.42,7.51,0.1c7.22-0.98,19.17-2.95,26.48-3.61c2.38-0.22,4.68-0.37,7,0.29"/>
		</g>
		<g id="kvg:05217-g3" kvg:element="夕">
			<path style="fill:none;stroke:#808080" id="kvg:05217-s2" kvg:type="㇒" d="M37.11,25.65c0.23,0.62,0.29,1.73-0.05,2.94C34.75,36.62,26.5,52.38,14.48,60.8"/>
			<path style="fill:none;stroke-width:4;" id="kvg:05217-s3" kvg:type="㇇" d="M35.81,39.06c1.19,0.56,2.19,0.31,3.36,0.11c2.72-0.47,4.2-0.8,8.38-2.06c2.67-0.81,4.31,0.95,3.78,3.58C48.25,56,30,85.38,12.27,95.75"/>
<circle cx="35.81" cy="39.06" r="5" style="fill:red;stroke:red;" />
		</g>
	</g>
	<g id="kvg:05217-g4" kvg:element="刂" kvg:variant="true" kvg:original="刀" kvg:position="right" kvg:radical="tradit">
	</g>
</g>
</g></svg>