<?xml version="1.0" encoding="UTF-8"?>
  <!DOCTYPE svg PUBLIC "-//W3C//DTD SVG 1.0//EN" "http://www.w3.org/TR/2001/REC-SVG-20010904/DTD/svg10.dtd" [
  <!ATTLIST g xmlns:kvg CDATA #FIXED "http://kanjivg.tagaini.net" kvg:element CDATA #IMPLIED kvg:variant CDATA #IMPLIED kvg:partial CDATA #IMPLIED kvg:original CDATA #IMPLIED kvg:part CDATA #IMPLIED kvg:number CDATA #IMPLIED kvg:tradForm CDATA #IMPLIED kvg:radicalForm CDATA #IMPLIED kvg:position CDATA #IMPLIED kvg:radical CDATA #IMPLIED kvg:phon CDATA #IMPLIED >
  <!ATTLIST path xmlns:kvg CDATA #FIXED "http://kanjivg.tagaini.net" kvg:type CDATA #IMPLIED >
  ]>
  <svg xmlns="http://www.w3.org/2000/svg" width="109" height="109" viewBox="0 0 109 109">
<g id="kvg:StrokePaths_0521d" style="fill:none;stroke:#000000;stroke-width:3;stroke-linecap:round;stroke-linejoin:round;">
<g id="kvg:0521d" kvg:element="初">
	<g id="kvg:0521d-g1" kvg:element="衤" kvg:variant="true" kvg:original="衣" kvg:position="left" kvg:radical="nelson">
		<path style="fill:none;stroke:#808080" id="kvg:0521d-s1" kvg:type="㇔" d="M26.95,11.12c2.85,2.32,6.44,5.81,8.88,9.88"/>
		<path style="fill:none;stroke:#808080" id="kvg:0521d-s2" kvg:type="㇇" d="M13.58,31c1.01,0.45,3.03,0.66,4.76,0.45c5.79-0.69,19.67-4.32,23.24-5.7c2.44-0.94,4.42,1.2,3,3.5c-8.33,13.5-19.83,28.25-32.33,39"/>
		<path style="fill:none;stroke:#808080" id="kvg:0521d-s3" kvg:type="㇑" d="M31.75,49.86c0.76,0.76,1.27,2.02,1.27,3.89c0,8.76,0.03,27.66,0.05,37.38c0,2.77,0.01,4.79,0.01,5.62"/>
		<path style="fill:none;stroke:#808080" id="kvg:0521d-s4" kvg:type="㇒" d="M46.5,42.14c0.2,0.85-0.1,1.83-0.5,2.45c-1.2,1.87-4.65,5.45-7.05,7.66"/>
		<path style="fill:none;stroke-width:4;" id="kvg:0521d-s5" kvg:type="㇔" d="M36.75,54.62c3.63,2.45,6.98,5.61,10.08,9.87"/>
<circle cx="36.75" cy="54.62" r="5" style="fill:red;stroke:red;" />
	</g>
	<g id="kvg:0521d-g2" kvg:element="刀" kvg:position="right" kvg:radical="tradit">
	</g>
</g>
</g></svg>