<?xml version="1.0" encoding="UTF-8"?>
  <!DOCTYPE svg PUBLIC "-//W3C//DTD SVG 1.0//EN" "http://www.w3.org/TR/2001/REC-SVG-20010904/DTD/svg10.dtd" [
  <!ATTLIST g xmlns:kvg CDATA #FIXED "http://kanjivg.tagaini.net" kvg:element CDATA #IMPLIED kvg:variant CDATA #IMPLIED kvg:partial CDATA #IMPLIED kvg:original CDATA #IMPLIED kvg:part CDATA #IMPLIED kvg:number CDATA #IMPLIED kvg:tradForm CDATA #IMPLIED kvg:radicalForm CDATA #IMPLIED kvg:position CDATA #IMPLIED kvg:radical CDATA #IMPLIED kvg:phon CDATA #IMPLIED >
  <!ATTLIST path xmlns:kvg CDATA #FIXED "http://kanjivg.tagaini.net" kvg:type CDATA #IMPLIED >
  ]>
  <svg xmlns="http://www.w3.org/2000/svg" width="109" height="109" viewBox="0 0 109 109">
<g id="kvg:StrokePaths_05237" style="fill:none;stroke:#000000;stroke-width:3;stroke-linecap:round;stroke-linejoin:round;">
<g id="kvg:05237" kvg:element="刷">
	<g id="kvg:05237-g1" kvg:position="left">
		<g id="kvg:05237-g2" kvg:element="尸">
			<path style="fill:none;stroke:#808080" id="kvg:05237-s1" kvg:type="㇕c" d="M19.52,18.18c1.07,0.61,3.15,0.87,4.29,0.79c7.69-0.59,21.69-2.84,27.43-3.57c1.75-0.22,3,1.1,2.75,3.36c-0.34,3.08-1.17,5.77-2.11,12.32"/>
			<path style="fill:none;stroke:#808080" id="kvg:05237-s2" kvg:type="㇐b" d="M23.75,35.3c2.36-0.16,16.89-1.88,24.99-2.76c2.47-0.27,4.34-0.46,5.09-0.51"/>
			<g id="kvg:05237-g3" kvg:element="丿" kvg:radical="nelson">
				<path style="fill:none;stroke:#808080" id="kvg:05237-s3" kvg:type="㇒" d="M22.53,19.28c0.85,0.85,1.26,1.73,1.22,2.6c-1,25.75-4.12,40.88-13.25,53.88"/>
			</g>
		</g>
		<g id="kvg:05237-g4" kvg:element="巾">
			<path style="fill:none;stroke:#808080" id="kvg:05237-s4" kvg:type="㇑" d="M23.81,52.78c0.7,0.7,1.3,1.5,1.35,2.34c0.64,12.45,0.94,17.39,1.27,22.5c0.1,1.61,0.21,3.24,0.33,5.13"/>
			<path style="fill:none;stroke-width:4;" id="kvg:05237-s5" kvg:type="㇆a" d="M26.02,54.28c5.11-0.91,20.73-3.28,26.86-3.55c2.23-0.1,3.12,1.14,3.13,3.05c0.03,6.34-0.25,17.72-1.2,24.95c-0.69,5.27-3.54,0.58-4.67-0.58"/>
<circle cx="26.02" cy="54.28" r="5" style="fill:red;stroke:red;" />
		</g>
	</g>
	<g id="kvg:05237-g5" kvg:element="刂" kvg:variant="true" kvg:original="刀" kvg:position="right" kvg:radical="tradit">
	</g>
</g>
</g></svg>