<?xml version="1.0" encoding="UTF-8"?>
  <!DOCTYPE svg PUBLIC "-//W3C//DTD SVG 1.0//EN" "http://www.w3.org/TR/2001/REC-SVG-20010904/DTD/svg10.dtd" [
  <!ATTLIST g xmlns:kvg CDATA #FIXED "http://kanjivg.tagaini.net" kvg:element CDATA #IMPLIED kvg:variant CDATA #IMPLIED kvg:partial CDATA #IMPLIED kvg:original CDATA #IMPLIED kvg:part CDATA #IMPLIED kvg:number CDATA #IMPLIED kvg:tradForm CDATA #IMPLIED kvg:radicalForm CDATA #IMPLIED kvg:position CDATA #IMPLIED kvg:radical CDATA #IMPLIED kvg:phon CDATA #IMPLIED >
  <!ATTLIST path xmlns:kvg CDATA #FIXED "http://kanjivg.tagaini.net" kvg:type CDATA #IMPLIED >
  ]>
  <svg xmlns="http://www.w3.org/2000/svg" width="109" height="109" viewBox="0 0 109 109">
<g id="kvg:StrokePaths_0523b" style="fill:none;stroke:#000000;stroke-width:3;stroke-linecap:round;stroke-linejoin:round;">
<g id="kvg:0523b" kvg:element="刻">
	<g id="kvg:0523b-g1" kvg:element="亥" kvg:position="left" kvg:phon="亥">
		<g id="kvg:0523b-g2" kvg:element="亠" kvg:position="top">
			<path style="fill:none;stroke:#808080" id="kvg:0523b-s1" kvg:type="㇑a" d="M37.5,11.99c0.94,0.94,1.34,2.68,1.34,3.88c0,4.41-0.08,6.49-0.08,9.76"/>
			<path style="fill:none;stroke:#808080" id="kvg:0523b-s2" kvg:type="㇐" d="M15.5,29.35c2.24,0.23,4.41,0.2,6.66-0.15c8.06-1.27,22.19-3.26,32.34-4.33c2.65-0.28,5.34-0.64,7.99-0.17"/>
		</g>
		<path style="fill:none;stroke:#808080" id="kvg:0523b-s3" kvg:type="㇜" d="M35.39,30.09c0.35,1.27-0.03,2.31-0.79,3.62c-2.6,4.42-5.22,7.92-9.62,13.1c-0.63,0.74-0.2,2.69,0.5,2.93c3.7,1.27,7.9,2.77,11.91,4.97"/>
		<path style="fill:none;stroke:#808080" id="kvg:0523b-s4" kvg:type="㇒" d="M49.32,34.21c0.08,0.92,0.06,2.69-0.41,3.69C42.75,51,34.5,62.5,19.55,73"/>
		<g id="kvg:0523b-g3" kvg:element="人" kvg:position="bottom">
			<path style="fill:none;stroke-width:4;" id="kvg:0523b-s5" kvg:type="㇒" d="M51.21,55.57c0.1,0.93-0.13,2.45-0.7,3.48C43.12,72.5,30.99,86.07,14.25,95.04"/>
<circle cx="51.21" cy="55.57" r="5" style="fill:red;stroke:red;" />
		</g>
	</g>
	<g id="kvg:0523b-g4" kvg:element="刂" kvg:variant="true" kvg:original="刀" kvg:position="right" kvg:radical="general">
	</g>
</g>
</g></svg>