<?xml version="1.0" encoding="UTF-8"?>
  <!DOCTYPE svg PUBLIC "-//W3C//DTD SVG 1.0//EN" "http://www.w3.org/TR/2001/REC-SVG-20010904/DTD/svg10.dtd" [
  <!ATTLIST g xmlns:kvg CDATA #FIXED "http://kanjivg.tagaini.net" kvg:element CDATA #IMPLIED kvg:variant CDATA #IMPLIED kvg:partial CDATA #IMPLIED kvg:original CDATA #IMPLIED kvg:part CDATA #IMPLIED kvg:number CDATA #IMPLIED kvg:tradForm CDATA #IMPLIED kvg:radicalForm CDATA #IMPLIED kvg:position CDATA #IMPLIED kvg:radical CDATA #IMPLIED kvg:phon CDATA #IMPLIED >
  <!ATTLIST path xmlns:kvg CDATA #FIXED "http://kanjivg.tagaini.net" kvg:type CDATA #IMPLIED >
  ]>
  <svg xmlns="http://www.w3.org/2000/svg" width="109" height="109" viewBox="0 0 109 109">
<g id="kvg:StrokePaths_05247" style="fill:none;stroke:#000000;stroke-width:3;stroke-linecap:round;stroke-linejoin:round;">
<g id="kvg:05247" kvg:element="則">
	<g id="kvg:05247-g1" kvg:element="貝" kvg:position="left" kvg:radical="nelson">
		<g id="kvg:05247-g2" kvg:element="目" kvg:position="top">
			<path style="fill:none;stroke:#808080" id="kvg:05247-s1" kvg:type="㇑" d="M19.01,20.13c0.8,0.8,1.38,2.25,1.38,3.38c0,4,0,36.01,0,48c0,2.23,0,3.76,0,4.3"/>
			<path style="fill:none;stroke:#808080" id="kvg:05247-s2" kvg:type="㇕a" d="M21.41,21.65c2.6-0.21,21.69-2.9,24.06-3.15c1.98-0.21,3.37,1.17,3.37,2.73c0,3.02-0.01,38.15-0.01,47.75c0,1.9-0.08,4.77-0.08,6.03"/>
			<path style="fill:none;stroke:#808080" id="kvg:05247-s3" kvg:type="㇐a" d="M21.37,38.88c5.38-0.63,19.38-2.38,26.23-2.91"/>
			<path style="fill:none;stroke-width:4;" id="kvg:05247-s4" kvg:type="㇐a" d="M21.58,55.34c7.92-0.84,17.92-2.09,25.96-2.52"/>
<circle cx="21.58" cy="55.34" r="5" style="fill:red;stroke:red;" />
		</g>
		<g id="kvg:05247-g3" kvg:position="bottom">
		</g>
	</g>
	<g id="kvg:05247-g4" kvg:element="刂" kvg:variant="true" kvg:original="刀" kvg:position="right" kvg:radical="tradit">
	</g>
</g>
</g></svg>