<?xml version="1.0" encoding="UTF-8"?>
  <!DOCTYPE svg PUBLIC "-//W3C//DTD SVG 1.0//EN" "http://www.w3.org/TR/2001/REC-SVG-20010904/DTD/svg10.dtd" [
  <!ATTLIST g xmlns:kvg CDATA #FIXED "http://kanjivg.tagaini.net" kvg:element CDATA #IMPLIED kvg:variant CDATA #IMPLIED kvg:partial CDATA #IMPLIED kvg:original CDATA #IMPLIED kvg:part CDATA #IMPLIED kvg:number CDATA #IMPLIED kvg:tradForm CDATA #IMPLIED kvg:radicalForm CDATA #IMPLIED kvg:position CDATA #IMPLIED kvg:radical CDATA #IMPLIED kvg:phon CDATA #IMPLIED >
  <!ATTLIST path xmlns:kvg CDATA #FIXED "http://kanjivg.tagaini.net" kvg:type CDATA #IMPLIED >
  ]>
  <svg xmlns="http://www.w3.org/2000/svg" width="109" height="109" viewBox="0 0 109 109">
<g id="kvg:StrokePaths_052a0" style="fill:none;stroke:#000000;stroke-width:3;stroke-linecap:round;stroke-linejoin:round;">
<g id="kvg:052a0" kvg:element="加">
	<g id="kvg:052a0-g1" kvg:element="力" kvg:position="left" kvg:radical="general">
		<path style="fill:none;stroke:#808080" id="kvg:052a0-s1" kvg:type="㇆" d="M15.4,43.01c2.22,0.87,5.03,0.82,7.65,0.31c8.82-1.69,22.9-4.62,26.59-5.2c2.64-0.41,3.89,1.37,3.72,4.27c-0.49,8.49-4.91,30.77-11.61,41.36c-3.88,6.12-5.88,3.25-8.42,0.21"/>
		<path style="fill:none;stroke:#808080" id="kvg:052a0-s2" kvg:type="㇒" d="M35.57,16.68c0.81,1.07,1.12,2.62,0.93,4.57c-2.12,21.88-8.12,47.88-26.46,66.39"/>
	</g>
	<g id="kvg:052a0-g2" kvg:element="口" kvg:position="right">
		<path style="fill:none;stroke-width:4;" id="kvg:052a0-s3" kvg:type="㇑" d="M62.86,42.32c0.85,0.85,1.48,2.02,1.61,2.89c1.02,7.12,2.12,20.88,3.11,33.28c0.13,1.6,0.25,3.18,0.38,4.72"/>
<circle cx="62.86" cy="42.32" r="5" style="fill:red;stroke:red;" />
	</g>
</g>
</g></svg>