<?xml version="1.0" encoding="UTF-8"?>
  <!DOCTYPE svg PUBLIC "-//W3C//DTD SVG 1.0//EN" "http://www.w3.org/TR/2001/REC-SVG-20010904/DTD/svg10.dtd" [
  <!ATTLIST g xmlns:kvg CDATA #FIXED "http://kanjivg.tagaini.net" kvg:element CDATA #IMPLIED kvg:variant CDATA #IMPLIED kvg:partial CDATA #IMPLIED kvg:original CDATA #IMPLIED kvg:part CDATA #IMPLIED kvg:number CDATA #IMPLIED kvg:tradForm CDATA #IMPLIED kvg:radicalForm CDATA #IMPLIED kvg:position CDATA #IMPLIED kvg:radical CDATA #IMPLIED kvg:phon CDATA #IMPLIED >
  <!ATTLIST path xmlns:kvg CDATA #FIXED "http://kanjivg.tagaini.net" kvg:type CDATA #IMPLIED >
  ]>
  <svg xmlns="http://www.w3.org/2000/svg" width="109" height="109" viewBox="0 0 109 109">
<g id="kvg:StrokePaths_052aa" style="fill:none;stroke:#000000;stroke-width:3;stroke-linecap:round;stroke-linejoin:round;">
<g id="kvg:052aa" kvg:element="努">
	<g id="kvg:052aa-g1" kvg:element="奴" kvg:position="top" kvg:phon="奴">
		<g id="kvg:052aa-g2" kvg:element="女" kvg:position="left">
			<path style="fill:none;stroke:#808080" id="kvg:052aa-s1" kvg:type="㇛" d="M32.93,10.94c0.38,0.87,0.56,2.04,0.36,3.22c-0.97,5.8-5,21.17-9.23,27.66c-0.87,1.33,0.37,2.04,0.86,2.18c4.79,1.4,8.66,2.65,12.36,4.96c1.93,1.2,3.8,2.69,5.74,4.63"/>
			<path style="fill:none;stroke:#808080" id="kvg:052aa-s2" kvg:type="㇒" d="M45.12,21.92c0.07,0.9,0.37,2.56,0.09,3.83c-2.25,10.24-9.2,24.72-25.12,31.1"/>
			<path style="fill:none;stroke:#808080" id="kvg:052aa-s3" kvg:type="㇀/㇐" d="M12.29,32.61c0.58,0.76,1.89,0.85,3.33,0.56c7-1.42,21.63-4.92,33.65-7.89"/>
		</g>
		<g id="kvg:052aa-g3" kvg:element="又" kvg:position="right">
			<path style="fill:none;stroke-width:4;" id="kvg:052aa-s4" kvg:type="㇇" d="M56.49,17.94c1.26,0.26,2.67,0.39,5.18,0.01c2.52-0.39,19.02-3.55,20.75-3.94c2.15-0.48,4.4,1.09,3.45,3.02c-5.75,11.6-14.5,25.1-29.18,32.02"/>
<circle cx="56.49" cy="17.94" r="5" style="fill:red;stroke:red;" />
		</g>
	</g>
	<g id="kvg:052aa-g4" kvg:element="力" kvg:position="bottom" kvg:radical="general">
	</g>
</g>
</g></svg>