<?xml version="1.0" encoding="UTF-8"?>
  <!DOCTYPE svg PUBLIC "-//W3C//DTD SVG 1.0//EN" "http://www.w3.org/TR/2001/REC-SVG-20010904/DTD/svg10.dtd" [
  <!ATTLIST g xmlns:kvg CDATA #FIXED "http://kanjivg.tagaini.net" kvg:element CDATA #IMPLIED kvg:variant CDATA #IMPLIED kvg:partial CDATA #IMPLIED kvg:original CDATA #IMPLIED kvg:part CDATA #IMPLIED kvg:number CDATA #IMPLIED kvg:tradForm CDATA #IMPLIED kvg:radicalForm CDATA #IMPLIED kvg:position CDATA #IMPLIED kvg:radical CDATA #IMPLIED kvg:phon CDATA #IMPLIED >
  <!ATTLIST path xmlns:kvg CDATA #FIXED "http://kanjivg.tagaini.net" kvg:type CDATA #IMPLIED >
  ]>
  <svg xmlns="http://www.w3.org/2000/svg" width="109" height="109" viewBox="0 0 109 109">
<g id="kvg:StrokePaths_052c9" style="fill:none;stroke:#000000;stroke-width:3;stroke-linecap:round;stroke-linejoin:round;">
<g id="kvg:052c9" kvg:element="勉">
	<g id="kvg:052c9-g1" kvg:element="免" kvg:position="nyo" kvg:phon="免">
		<g id="kvg:052c9-g2" kvg:position="top">
			<g id="kvg:052c9-g3" kvg:element="𠂊" kvg:variant="true" kvg:original="勹">
				<path style="fill:none;stroke:#808080" id="kvg:052c9-s1" kvg:type="㇒" d="M32.13,12.15c0.04,0.5,0.17,1.32-0.09,2.01c-1.91,5.09-8.41,14.09-16.91,20.51"/>
				<path style="fill:none;stroke:#808080" id="kvg:052c9-s2" kvg:type="㇇" d="M30.25,20.52c1.12,0.48,2.12,0.31,3.27,0.13c4.78-0.74,12.56-2.58,14.14-2.77c1.77-0.21,2.69,1.77,1.95,2.81c-3.11,4.41-6.51,8.14-11.43,15.2"/>
			</g>
			<path style="fill:none;stroke-width:4;" id="kvg:052c9-s3" kvg:type="㇑" d="M20.37,38.22c0.71,0.87,1.11,1.86,1.2,2.98c0.73,3.46,1.23,8.04,1.76,13.27c0.13,1.28,0.26,2.61,0.4,3.96"/>
<circle cx="20.37" cy="38.22" r="5" style="fill:red;stroke:red;" />
		</g>
		<g id="kvg:052c9-g4" kvg:element="儿" kvg:original="八" kvg:position="bottom">
			<g id="kvg:052c9-g5" kvg:element="丿" kvg:position="left" kvg:radical="nelson">
			</g>
			<g id="kvg:052c9-g6" kvg:position="right">
			</g>
		</g>
	</g>
	<g id="kvg:052c9-g7" kvg:element="力" kvg:position="nyoc" kvg:radical="tradit">
	</g>
</g>
</g></svg>