<?xml version="1.0" encoding="UTF-8"?>
  <!DOCTYPE svg PUBLIC "-//W3C//DTD SVG 1.0//EN" "http://www.w3.org/TR/2001/REC-SVG-20010904/DTD/svg10.dtd" [
  <!ATTLIST g xmlns:kvg CDATA #FIXED "http://kanjivg.tagaini.net" kvg:element CDATA #IMPLIED kvg:variant CDATA #IMPLIED kvg:partial CDATA #IMPLIED kvg:original CDATA #IMPLIED kvg:part CDATA #IMPLIED kvg:number CDATA #IMPLIED kvg:tradForm CDATA #IMPLIED kvg:radicalForm CDATA #IMPLIED kvg:position CDATA #IMPLIED kvg:radical CDATA #IMPLIED kvg:phon CDATA #IMPLIED >
  <!ATTLIST path xmlns:kvg CDATA #FIXED "http://kanjivg.tagaini.net" kvg:type CDATA #IMPLIED >
  ]>
  <svg xmlns="http://www.w3.org/2000/svg" width="109" height="109" viewBox="0 0 109 109">
<g id="kvg:StrokePaths_052c7" style="fill:none;stroke:#000000;stroke-width:3;stroke-linecap:round;stroke-linejoin:round;">
<g id="kvg:052c7" kvg:element="勇">
	<g id="kvg:052c7-g1" kvg:element="マ" kvg:position="top" kvg:phon="甬V1">
		<path style="fill:none;stroke:#808080" id="kvg:052c7-s1" kvg:type="㇇" d="M32.96,13.82c2.66,0.8,4.44,0.73,6.69,0.43c7.33-0.99,28.71-4.02,31.36-4.31c3.04-0.33,3.87,1.44,1.77,3.04c-1.53,1.17-11.28,8.52-17.56,13.3"/>
		<path style="fill:none;stroke:#808080" id="kvg:052c7-s2" kvg:type="㇔" d="M44.87,22.77C49.25,24,54.88,26.5,58.4,30"/>
	</g>
	<g id="kvg:052c7-g2" kvg:element="男" kvg:position="bottom">
		<g id="kvg:052c7-g3" kvg:element="田" kvg:position="top" kvg:phon="甬V2">
			<path style="fill:none;stroke:#808080" id="kvg:052c7-s3" kvg:type="㇑" d="M26.5,32.54c0.98,0.98,1.32,2.37,1.52,3.44c0.86,4.61,2,13.46,2.92,20.78c0.16,1.25,0.3,2.46,0.44,3.59"/>
			<path style="fill:none;stroke-width:4;" id="kvg:052c7-s4" kvg:type="㇕a" d="M29,34.44c15.38-1.94,41.38-4.63,50.81-4.95c3.32-0.11,4.69,1.76,4.16,4.42c-0.78,3.92-2.34,11.9-3.88,19.46c-0.24,1.17-0.47,2.33-0.71,3.46"/>
<circle cx="29" cy="34.44" r="5" style="fill:red;stroke:red;" />
		</g>
		<g id="kvg:052c7-g4" kvg:element="力" kvg:position="bottom" kvg:radical="general">
		</g>
	</g>
</g>
</g></svg>