<?xml version="1.0" encoding="UTF-8"?>
  <!DOCTYPE svg PUBLIC "-//W3C//DTD SVG 1.0//EN" "http://www.w3.org/TR/2001/REC-SVG-20010904/DTD/svg10.dtd" [
  <!ATTLIST g xmlns:kvg CDATA #FIXED "http://kanjivg.tagaini.net" kvg:element CDATA #IMPLIED kvg:variant CDATA #IMPLIED kvg:partial CDATA #IMPLIED kvg:original CDATA #IMPLIED kvg:part CDATA #IMPLIED kvg:number CDATA #IMPLIED kvg:tradForm CDATA #IMPLIED kvg:radicalForm CDATA #IMPLIED kvg:position CDATA #IMPLIED kvg:radical CDATA #IMPLIED kvg:phon CDATA #IMPLIED >
  <!ATTLIST path xmlns:kvg CDATA #FIXED "http://kanjivg.tagaini.net" kvg:type CDATA #IMPLIED >
  ]>
  <svg xmlns="http://www.w3.org/2000/svg" width="109" height="109" viewBox="0 0 109 109">
<g id="kvg:StrokePaths_052d5" style="fill:none;stroke:#000000;stroke-width:3;stroke-linecap:round;stroke-linejoin:round;">
<g id="kvg:052d5" kvg:element="動">
	<g id="kvg:052d5-g1" kvg:element="重" kvg:position="left" kvg:phon="重">
		<g id="kvg:052d5-g2" kvg:element="千" kvg:part="1">
			<g id="kvg:052d5-g3" kvg:element="丿">
				<path style="fill:none;stroke:#808080" id="kvg:052d5-s1" kvg:type="㇒" d="M46.84,14.89c-0.21,1.11-1.28,2.1-1.91,2.45c-4.12,2.27-14.32,5.75-28.35,8.92"/>
			</g>
			<g id="kvg:052d5-g4" kvg:element="十" kvg:part="1">
				<path style="fill:none;stroke:#808080" id="kvg:052d5-s2" kvg:type="㇐" d="M11.97,34.81c1.95,0.28,3.83,0.15,5.77-0.11c7.72-1.04,21.63-3.11,29.88-4.06c1.98-0.23,4.37-0.4,6.15-0.1"/>
			</g>
		</g>
		<g id="kvg:052d5-g5" kvg:element="里">
			<path style="fill:none;stroke:#808080" id="kvg:052d5-s3" kvg:type="㇑" d="M15.16,44.9c0.72,0.72,1.26,1.49,1.42,2.3c1.12,5.65,2.11,10.33,3.43,16.52c0.21,0.98,0.43,2,0.66,3.07"/>
			<path style="fill:none;stroke:#808080" id="kvg:052d5-s4" kvg:type="㇕a" d="M16.91,45.8c9.66-1.45,22.22-3.28,30.49-4.35c3.47-0.45,5.45,1.69,5.09,3.84c-0.74,4.46-1.76,9.87-2.82,14.38c-0.22,0.94-0.43,1.79-0.61,2.51"/>
			<path style="fill:none;stroke:#808080" id="kvg:052d5-s5" kvg:type="㇐a" d="M19.3,54.39c6.07-0.89,26.77-3.02,31.02-3.4"/>
			<path style="fill:none;stroke-width:4;" id="kvg:052d5-s6" kvg:type="㇐a" d="M21.3,64.09c8.7-1.46,17.33-2.59,27.27-3.21"/>
<circle cx="21.3" cy="64.09" r="5" style="fill:red;stroke:red;" />
			<g id="kvg:052d5-g6" kvg:element="千" kvg:part="2">
				<g id="kvg:052d5-g7" kvg:element="十" kvg:part="2">
				</g>
			</g>
		</g>
	</g>
	<g id="kvg:052d5-g8" kvg:element="力" kvg:position="right" kvg:radical="general">
	</g>
</g>
</g></svg>