<?xml version="1.0" encoding="UTF-8"?>
  <!DOCTYPE svg PUBLIC "-//W3C//DTD SVG 1.0//EN" "http://www.w3.org/TR/2001/REC-SVG-20010904/DTD/svg10.dtd" [
  <!ATTLIST g xmlns:kvg CDATA #FIXED "http://kanjivg.tagaini.net" kvg:element CDATA #IMPLIED kvg:variant CDATA #IMPLIED kvg:partial CDATA #IMPLIED kvg:original CDATA #IMPLIED kvg:part CDATA #IMPLIED kvg:number CDATA #IMPLIED kvg:tradForm CDATA #IMPLIED kvg:radicalForm CDATA #IMPLIED kvg:position CDATA #IMPLIED kvg:radical CDATA #IMPLIED kvg:phon CDATA #IMPLIED >
  <!ATTLIST path xmlns:kvg CDATA #FIXED "http://kanjivg.tagaini.net" kvg:type CDATA #IMPLIED >
  ]>
  <svg xmlns="http://www.w3.org/2000/svg" width="109" height="109" viewBox="0 0 109 109">
<g id="kvg:StrokePaths_052d9" style="fill:none;stroke:#000000;stroke-width:3;stroke-linecap:round;stroke-linejoin:round;">
<g id="kvg:052d9" kvg:element="務">
	<g id="kvg:052d9-g1" kvg:element="矛" kvg:position="left" kvg:radical="nelson" kvg:phon="矛">
		<g id="kvg:052d9-g2" kvg:element="予">
			<g id="kvg:052d9-g3" kvg:element="マ" kvg:position="top">
				<path style="fill:none;stroke:#808080" id="kvg:052d9-s1" kvg:type="㇇" d="M17.14,19.11c1.48,0.26,3.44,0.18,4.52,0.07c2.96-0.31,18.45-3.67,20.67-4.16c2.22-0.48,3.18,1.75,1.9,3.37C41.5,21.88,36.5,29,33.38,32.85"/>
				<path style="fill:none;stroke:#808080" id="kvg:052d9-s2" kvg:type="㇔" d="M23.8,27.98c2.83,1.18,10.17,5.7,11.51,8.78"/>
			</g>
			<g id="kvg:052d9-g4" kvg:element="了" kvg:position="bottom">
				<path style="fill:none;stroke:#808080" id="kvg:052d9-s3" kvg:type="㇇a" d="M12.23,42.58c1.65,0.42,2.9,0.54,4.82,0.32C23.27,42.15,36.09,39.31,42,38c11.25-2.5,2.88,6-0.5,10.25"/>
				<g id="kvg:052d9-g5" kvg:element="亅">
					<path style="fill:none;stroke:#808080" id="kvg:052d9-s4" kvg:type="㇁" d="M32.09,42.84C34,53.5,35.12,71.25,33.58,88.73c-1.26,14.21-7.83,2.02-8.7,0.14"/>
				</g>
			</g>
		</g>
		<g id="kvg:052d9-g6" kvg:element="丿">
			<path style="fill:none;stroke:#808080" id="kvg:052d9-s5" kvg:type="㇒" d="M31.23,42.18c0,0.95-0.17,2.19-0.62,3.39C27,55.25,22.25,67,10.5,79.91"/>
		</g>
	</g>
	<g id="kvg:052d9-g7" kvg:position="right">
		<g id="kvg:052d9-g8" kvg:element="攵" kvg:variant="true" kvg:original="攴" kvg:position="top">
			<g id="kvg:052d9-g9" kvg:position="top">
				<path style="fill:none;stroke-width:4;" id="kvg:052d9-s6" kvg:type="㇒" d="M62.9,11.33c0.05,0.94,0.06,2.1-0.23,2.97c-1.6,4.93-4.53,13.59-9.67,20.04"/>
<circle cx="62.9" cy="11.33" r="5" style="fill:red;stroke:red;" />
			</g>
			<g id="kvg:052d9-g10" kvg:element="乂" kvg:position="bottom">
				<g id="kvg:052d9-g11" kvg:element="丿">
				</g>
			</g>
		</g>
		<g id="kvg:052d9-g12" kvg:element="力" kvg:position="bottom" kvg:radical="tradit">
		</g>
	</g>
</g>
</g></svg>