<?xml version="1.0" encoding="UTF-8"?>
  <!DOCTYPE svg PUBLIC "-//W3C//DTD SVG 1.0//EN" "http://www.w3.org/TR/2001/REC-SVG-20010904/DTD/svg10.dtd" [
  <!ATTLIST g xmlns:kvg CDATA #FIXED "http://kanjivg.tagaini.net" kvg:element CDATA #IMPLIED kvg:variant CDATA #IMPLIED kvg:partial CDATA #IMPLIED kvg:original CDATA #IMPLIED kvg:part CDATA #IMPLIED kvg:number CDATA #IMPLIED kvg:tradForm CDATA #IMPLIED kvg:radicalForm CDATA #IMPLIED kvg:position CDATA #IMPLIED kvg:radical CDATA #IMPLIED kvg:phon CDATA #IMPLIED >
  <!ATTLIST path xmlns:kvg CDATA #FIXED "http://kanjivg.tagaini.net" kvg:type CDATA #IMPLIED >
  ]>
  <svg xmlns="http://www.w3.org/2000/svg" width="109" height="109" viewBox="0 0 109 109">
<g id="kvg:StrokePaths_052dd" style="fill:none;stroke:#000000;stroke-width:3;stroke-linecap:round;stroke-linejoin:round;">
<g id="kvg:052dd" kvg:element="勝">
	<g id="kvg:052dd-g1" kvg:element="月" kvg:variant="true" kvg:original="肉" kvg:position="left" kvg:radical="nelson">
		<path style="fill:none;stroke:#808080" id="kvg:052dd-s1" kvg:type="㇓" d="M15.48,20.8c0.86,0.86,1.34,2.2,1.4,3.92c1.25,33.78-2,60.53-8.63,67.63"/>
		<path style="fill:none;stroke:#808080" id="kvg:052dd-s2" kvg:type="㇆a" d="M17.78,23.17c3.51-0.76,10.39-2.46,13.63-3.09c2.8-0.54,4.87,0.47,4.87,3.55c0,5.24,0.05,43.53,0.05,62.66c0,13.33-6.58,3.21-8.87,0.63"/>
		<path style="fill:none;stroke:#808080" id="kvg:052dd-s3" kvg:type="㇐a" d="M18.28,39.62c6.18-0.82,10.72-1.37,16.45-1.89"/>
		<path style="fill:none;stroke-width:4;" id="kvg:052dd-s4" kvg:type="㇐a" d="M17.99,56.33c4.82-0.24,9.76-0.83,16.69-1.27"/>
<circle cx="17.99" cy="56.33" r="5" style="fill:red;stroke:red;" />
	</g>
	<g id="kvg:052dd-g2" kvg:element="劵" kvg:variant="true" kvg:position="right">
		<g id="kvg:052dd-g3" kvg:element="二">
		</g>
		<g id="kvg:052dd-g4" kvg:element="人">
		</g>
		<g id="kvg:052dd-g5" kvg:element="力" kvg:radical="tradit">
		</g>
	</g>
</g>
</g></svg>