<?xml version="1.0" encoding="UTF-8"?>
  <!DOCTYPE svg PUBLIC "-//W3C//DTD SVG 1.0//EN" "http://www.w3.org/TR/2001/REC-SVG-20010904/DTD/svg10.dtd" [
  <!ATTLIST g xmlns:kvg CDATA #FIXED "http://kanjivg.tagaini.net" kvg:element CDATA #IMPLIED kvg:variant CDATA #IMPLIED kvg:partial CDATA #IMPLIED kvg:original CDATA #IMPLIED kvg:part CDATA #IMPLIED kvg:number CDATA #IMPLIED kvg:tradForm CDATA #IMPLIED kvg:radicalForm CDATA #IMPLIED kvg:position CDATA #IMPLIED kvg:radical CDATA #IMPLIED kvg:phon CDATA #IMPLIED >
  <!ATTLIST path xmlns:kvg CDATA #FIXED "http://kanjivg.tagaini.net" kvg:type CDATA #IMPLIED >
  ]>
  <svg xmlns="http://www.w3.org/2000/svg" width="109" height="109" viewBox="0 0 109 109">
<g id="kvg:StrokePaths_052e4" style="fill:none;stroke:#000000;stroke-width:3;stroke-linecap:round;stroke-linejoin:round;">
<g id="kvg:052e4" kvg:element="勤">
	<g id="kvg:052e4-g1" kvg:element="菫" kvg:variant="true" kvg:position="left" kvg:phon="菫V">
		<g id="kvg:052e4-g2" kvg:element="艹" kvg:variant="true" kvg:original="艸" kvg:position="top">
			<path style="fill:none;stroke:#808080" id="kvg:052e4-s1" kvg:type="㇐" d="M12.75,26.02c1.38,0.48,3.49,0.39,4.52,0.27c8.01-0.96,21.98-2.54,34.48-3.49c1.76-0.13,3.56-0.2,5.25,0.43"/>
			<path style="fill:none;stroke:#808080" id="kvg:052e4-s2" kvg:type="㇑a" d="M24.56,14.02c0.77,0.77,1.22,1.61,1.34,2.74c0.73,7.23,1.74,14.92,2,17.36"/>
			<path style="fill:none;stroke:#808080" id="kvg:052e4-s3" kvg:type="㇑a" d="M44.38,12.37c0.62,1.13,0.77,2.43,0.52,3.61c-1.29,6.07-2.15,10.52-3.74,17.93"/>
		</g>
		<g id="kvg:052e4-g3" kvg:position="bottom">
			<path style="fill:none;stroke:#808080" id="kvg:052e4-s4" kvg:type="㇑" d="M16,39.77c0.74,0.74,1.32,1.33,1.42,2.34c0.7,4.14,1.39,8.15,2.06,12.31c0.17,1.07,0.34,2.1,0.5,3.04"/>
			<path style="fill:none;stroke-width:4;" id="kvg:052e4-s5" kvg:type="㇕b" d="M18.37,41.27c8.43-1.11,23.51-2.54,29.75-3.11c2.35-0.21,4.33,0.7,3.49,3.62c-0.95,3.3-1.85,5.54-3.21,9.34"/>
<circle cx="18.37" cy="41.27" r="5" style="fill:red;stroke:red;" />
			<g id="kvg:052e4-g4" kvg:element="三">
				<g id="kvg:052e4-g5" kvg:element="一" kvg:position="top">
				</g>
				<g id="kvg:052e4-g6" kvg:position="bottom">
					<g id="kvg:052e4-g7" kvg:element="一">
					</g>
					<g id="kvg:052e4-g8" kvg:element="一">
					</g>
				</g>
			</g>
		</g>
	</g>
	<g id="kvg:052e4-g9" kvg:element="力" kvg:position="right" kvg:radical="general">
	</g>
</g>
</g></svg>