<?xml version="1.0" encoding="UTF-8"?>
  <!DOCTYPE svg PUBLIC "-//W3C//DTD SVG 1.0//EN" "http://www.w3.org/TR/2001/REC-SVG-20010904/DTD/svg10.dtd" [
  <!ATTLIST g xmlns:kvg CDATA #FIXED "http://kanjivg.tagaini.net" kvg:element CDATA #IMPLIED kvg:variant CDATA #IMPLIED kvg:partial CDATA #IMPLIED kvg:original CDATA #IMPLIED kvg:part CDATA #IMPLIED kvg:number CDATA #IMPLIED kvg:tradForm CDATA #IMPLIED kvg:radicalForm CDATA #IMPLIED kvg:position CDATA #IMPLIED kvg:radical CDATA #IMPLIED kvg:phon CDATA #IMPLIED >
  <!ATTLIST path xmlns:kvg CDATA #FIXED "http://kanjivg.tagaini.net" kvg:type CDATA #IMPLIED >
  ]>
  <svg xmlns="http://www.w3.org/2000/svg" width="109" height="109" viewBox="0 0 109 109">
<g id="kvg:StrokePaths_052e2" style="fill:none;stroke:#000000;stroke-width:3;stroke-linecap:round;stroke-linejoin:round;">
<g id="kvg:052e2" kvg:element="勢">
	<g id="kvg:052e2-g1" kvg:element="埶" kvg:position="top">
		<g id="kvg:052e2-g2" kvg:position="left">
			<g id="kvg:052e2-g3" kvg:element="土">
				<path style="fill:none;stroke:#808080" id="kvg:052e2-s1" kvg:type="㇐" d="M18.98,20.11c1.08,0.27,3.07,0.41,4.14,0.27c6.51-0.87,14.88-2.14,21.13-2.76c1.78-0.18,2.88-0.17,3.78-0.04"/>
				<path style="fill:none;stroke:#808080" id="kvg:052e2-s2" kvg:type="㇑a" d="M33.46,9.98c0.65,0.65,1.27,2.14,1.27,3.24c0,6.4-0.01,11.15-0.01,14.67"/>
				<path style="fill:none;stroke:#808080" id="kvg:052e2-s3" kvg:type="㇐" d="M11.43,30.91c1.09,0.32,3.08,0.44,4.16,0.32c9.66-1.05,23.66-3.1,32.17-4.73c1.77-0.34,3.15-0.1,4.05,0.06"/>
			</g>
			<g id="kvg:052e2-g4" kvg:element="儿" kvg:original="八">
				<g id="kvg:052e2-g5" kvg:element="丿" kvg:position="left">
					<path style="fill:none;stroke:#808080" id="kvg:052e2-s4" kvg:type="㇒" d="M26.1,32.92c0.07,0.79-0.09,1.52-0.48,2.19C23.75,38.25,20,42.5,14.5,46"/>
				</g>
				<g id="kvg:052e2-g6" kvg:position="right">
					<path style="fill:none;stroke-width:4;" id="kvg:052e2-s5" kvg:type="㇟a/㇏" d="M40.98,29.05c0.5,0.55,0.92,1.19,0.92,2.03c0,1.13-0.15,2.01-0.15,2.82c0,2.21,1.7,3.11,4.93,3.11c2.93,0,4.59-0.5,5.83-1.21"/>
<circle cx="40.98" cy="29.05" r="5" style="fill:red;stroke:red;" />
				</g>
			</g>
			<g id="kvg:052e2-g7" kvg:element="土">
			</g>
		</g>
		<g id="kvg:052e2-g8" kvg:element="丸" kvg:position="right">
			<g id="kvg:052e2-g9" kvg:element="九">
				<g id="kvg:052e2-g10" kvg:element="乙">
				</g>
			</g>
			<g id="kvg:052e2-g11" kvg:element="丶">
			</g>
		</g>
	</g>
	<g id="kvg:052e2-g12" kvg:element="力" kvg:position="bottom" kvg:radical="general">
	</g>
</g>
</g></svg>