<?xml version="1.0" encoding="UTF-8"?>
  <!DOCTYPE svg PUBLIC "-//W3C//DTD SVG 1.0//EN" "http://www.w3.org/TR/2001/REC-SVG-20010904/DTD/svg10.dtd" [
  <!ATTLIST g xmlns:kvg CDATA #FIXED "http://kanjivg.tagaini.net" kvg:element CDATA #IMPLIED kvg:variant CDATA #IMPLIED kvg:partial CDATA #IMPLIED kvg:original CDATA #IMPLIED kvg:part CDATA #IMPLIED kvg:number CDATA #IMPLIED kvg:tradForm CDATA #IMPLIED kvg:radicalForm CDATA #IMPLIED kvg:position CDATA #IMPLIED kvg:radical CDATA #IMPLIED kvg:phon CDATA #IMPLIED >
  <!ATTLIST path xmlns:kvg CDATA #FIXED "http://kanjivg.tagaini.net" kvg:type CDATA #IMPLIED >
  ]>
  <svg xmlns="http://www.w3.org/2000/svg" width="109" height="109" viewBox="0 0 109 109">
<g id="kvg:StrokePaths_05354" style="fill:none;stroke:#000000;stroke-width:3;stroke-linecap:round;stroke-linejoin:round;">
<g id="kvg:05354" kvg:element="協">
	<g id="kvg:05354-g1" kvg:element="十" kvg:position="left" kvg:radical="general">
		<path style="fill:none;stroke:#808080" id="kvg:05354-s1" kvg:type="㇐" d="M10.75,43.28c1.69,0.46,3.66,0.26,5.4,0.11c6.1-0.53,14.22-2.39,20.81-3.46c1.53-0.25,3.25-0.21,4.04-0.09"/>
		<path style="fill:none;stroke:#808080" id="kvg:05354-s2" kvg:type="㇑" d="M25.62,17.5c0.88,0.88,1.46,2.48,1.46,3.5c0,8.41,0.02,47.7,0.03,67c0,3.08,0,5.64,0,7.5"/>
	</g>
	<g id="kvg:05354-g2" kvg:element="劦" kvg:position="right" kvg:phon="劦">
		<g id="kvg:05354-g3" kvg:element="力" kvg:position="top">
			<path style="fill:none;stroke:#808080" id="kvg:05354-s3" kvg:type="㇆" d="M47.42,28.61c1.95,0.84,3.8,1.03,5.84,0.82c8.74-0.92,26.03-4.34,29.22-4.69c2.32-0.26,2.96,1.16,2.84,2.97c-0.34,4.76-5.96,18.49-9.57,21.71c-2.7,2.41-3.38,1.3-6.19-0.39"/>
			<path style="fill:none;stroke-width:4;" id="kvg:05354-s4" kvg:type="㇒" d="M66.37,12c0.47,1.09,0.64,2.25,0.4,3.64c-1.79,10.27-7.3,26.67-19.02,37.24"/>
<circle cx="66.37" cy="12" r="5" style="fill:red;stroke:red;" />
		</g>
		<g id="kvg:05354-g4" kvg:position="bottom">
			<g id="kvg:05354-g5" kvg:element="力">
			</g>
			<g id="kvg:05354-g6" kvg:element="力">
			</g>
		</g>
	</g>
</g>
</g></svg>