<?xml version="1.0" encoding="UTF-8"?>
  <!DOCTYPE svg PUBLIC "-//W3C//DTD SVG 1.0//EN" "http://www.w3.org/TR/2001/REC-SVG-20010904/DTD/svg10.dtd" [
  <!ATTLIST g xmlns:kvg CDATA #FIXED "http://kanjivg.tagaini.net" kvg:element CDATA #IMPLIED kvg:variant CDATA #IMPLIED kvg:partial CDATA #IMPLIED kvg:original CDATA #IMPLIED kvg:part CDATA #IMPLIED kvg:number CDATA #IMPLIED kvg:tradForm CDATA #IMPLIED kvg:radicalForm CDATA #IMPLIED kvg:position CDATA #IMPLIED kvg:radical CDATA #IMPLIED kvg:phon CDATA #IMPLIED >
  <!ATTLIST path xmlns:kvg CDATA #FIXED "http://kanjivg.tagaini.net" kvg:type CDATA #IMPLIED >
  ]>
  <svg xmlns="http://www.w3.org/2000/svg" width="109" height="109" viewBox="0 0 109 109">
<g id="kvg:StrokePaths_0535a" style="fill:none;stroke:#000000;stroke-width:3;stroke-linecap:round;stroke-linejoin:round;">
<g id="kvg:0535a" kvg:element="博">
	<g id="kvg:0535a-g1" kvg:element="十" kvg:position="left" kvg:radical="general">
		<path style="fill:none;stroke:#808080" id="kvg:0535a-s1" kvg:type="㇐" d="M10,43.29c1.54,0.63,3.66,0.29,5.26,0.13c5.98-0.59,15.74-2.58,20.44-3.6c1.19-0.26,2.44-0.36,3.05-0.21"/>
		<path style="fill:none;stroke:#808080" id="kvg:0535a-s2" kvg:type="㇑" d="M24.68,17.38c1.28,1.28,1.76,3.12,1.76,5.98c0,6.1-0.18,48.56-0.24,66.51c-0.01,3.07-0.01,5.42-0.01,6.76"/>
	</g>
	<g id="kvg:0535a-g2" kvg:element="尃" kvg:position="right" kvg:phon="尃">
		<g id="kvg:0535a-g3" kvg:element="甫" kvg:variant="true" kvg:position="top">
			<path style="fill:none;stroke:#808080" id="kvg:0535a-s3" kvg:type="㇐" d="M41.75,25.89c2.16,0.88,4.8,0.25,7-0.01c7.72-0.91,22.97-3.02,30.64-3.58c2.14-0.16,4.26-0.3,6.36,0.21"/>
			<g id="kvg:0535a-g4" kvg:element="用" kvg:variant="true">
				<path style="fill:none;stroke:#808080" id="kvg:0535a-s4" kvg:type="㇑" d="M45.77,35.81c0.96,0.96,1.25,1.81,1.46,3.13c0.28,1.82,1.14,12.97,1.61,19.44c0.19,2.66,0.32,4.53,0.32,4.64"/>
				<path style="fill:none;stroke-width:4;" id="kvg:0535a-s5" kvg:type="㇕a" d="M48.02,37.32c5.33-0.81,25.21-3.72,32.35-4.61c4.15-0.52,5.77,1.65,5.34,4.06c-0.58,3.33-1.57,10.25-2.82,18.01c-0.21,1.3-0.42,2.62-0.65,3.95"/>
<circle cx="48.02" cy="37.32" r="5" style="fill:red;stroke:red;" />
			</g>
			<g id="kvg:0535a-g5" kvg:element="丶">
			</g>
		</g>
		<g id="kvg:0535a-g6" kvg:element="寸" kvg:position="bottom">
		</g>
	</g>
</g>
</g></svg>