<?xml version="1.0" encoding="UTF-8"?>
  <!DOCTYPE svg PUBLIC "-//W3C//DTD SVG 1.0//EN" "http://www.w3.org/TR/2001/REC-SVG-20010904/DTD/svg10.dtd" [
  <!ATTLIST g xmlns:kvg CDATA #FIXED "http://kanjivg.tagaini.net" kvg:element CDATA #IMPLIED kvg:variant CDATA #IMPLIED kvg:partial CDATA #IMPLIED kvg:original CDATA #IMPLIED kvg:part CDATA #IMPLIED kvg:number CDATA #IMPLIED kvg:tradForm CDATA #IMPLIED kvg:radicalForm CDATA #IMPLIED kvg:position CDATA #IMPLIED kvg:radical CDATA #IMPLIED kvg:phon CDATA #IMPLIED >
  <!ATTLIST path xmlns:kvg CDATA #FIXED "http://kanjivg.tagaini.net" kvg:type CDATA #IMPLIED >
  ]>
  <svg xmlns="http://www.w3.org/2000/svg" width="109" height="109" viewBox="0 0 109 109">
<g id="kvg:StrokePaths_053ef" style="fill:none;stroke:#000000;stroke-width:3;stroke-linecap:round;stroke-linejoin:round;">
<g id="kvg:053ef" kvg:element="可">
	<g id="kvg:053ef-g1" kvg:element="丁" kvg:part="1">
		<g id="kvg:053ef-g2" kvg:element="一" kvg:radical="nelson">
			<path style="fill:none;stroke:#808080" id="kvg:053ef-s1" kvg:type="㇐" d="M13.88,21.98C18,22.75,21.74,22.34,25.39,22c13.57-1.26,43.04-4.34,58.11-5.52c3.93-0.31,7.74-0.5,11.63,0.33"/>
		</g>
	</g>
	<g id="kvg:053ef-g3" kvg:element="口" kvg:radical="tradit">
		<path style="fill:none;stroke:#808080" id="kvg:053ef-s2" kvg:type="㇑" d="M25,42.14c0.87,0.87,1.5,1.99,1.79,3.21c0.74,3.14,1.96,9.62,2.94,15.63c0.28,1.74,0.55,3.45,0.77,5.02"/>
		<path style="fill:none;stroke:#808080" id="kvg:053ef-s3" kvg:type="㇕b" d="M27.38,44.28c7.5-1.77,16.49-3.18,21.87-4.27c3.75-0.76,5.13,1.05,4.31,4.53c-1.01,4.33-1.94,8.21-3.4,14.01"/>
		<path style="fill:none;stroke-width:4;" id="kvg:053ef-s4" kvg:type="㇐b" d="M31.2,61.83c5.62-0.7,11.39-1.52,17.83-2.29c1.21-0.14,2.43-0.29,3.69-0.43"/>
<circle cx="31.2" cy="61.83" r="5" style="fill:red;stroke:red;" />
	</g>
	<g id="kvg:053ef-g4" kvg:element="丁" kvg:part="2">
		<g id="kvg:053ef-g5" kvg:element="亅">
		</g>
	</g>
</g>
</g></svg>