<?xml version="1.0" encoding="UTF-8"?>
  <!DOCTYPE svg PUBLIC "-//W3C//DTD SVG 1.0//EN" "http://www.w3.org/TR/2001/REC-SVG-20010904/DTD/svg10.dtd" [
  <!ATTLIST g xmlns:kvg CDATA #FIXED "http://kanjivg.tagaini.net" kvg:element CDATA #IMPLIED kvg:variant CDATA #IMPLIED kvg:partial CDATA #IMPLIED kvg:original CDATA #IMPLIED kvg:part CDATA #IMPLIED kvg:number CDATA #IMPLIED kvg:tradForm CDATA #IMPLIED kvg:radicalForm CDATA #IMPLIED kvg:position CDATA #IMPLIED kvg:radical CDATA #IMPLIED kvg:phon CDATA #IMPLIED >
  <!ATTLIST path xmlns:kvg CDATA #FIXED "http://kanjivg.tagaini.net" kvg:type CDATA #IMPLIED >
  ]>
  <svg xmlns="http://www.w3.org/2000/svg" width="109" height="109" viewBox="0 0 109 109">
<g id="kvg:StrokePaths_053f7" style="fill:none;stroke:#000000;stroke-width:3;stroke-linecap:round;stroke-linejoin:round;">
<g id="kvg:053f7" kvg:element="号">
	<g id="kvg:053f7-g1" kvg:element="口" kvg:position="top" kvg:radical="general">
		<path style="fill:none;stroke:#808080" id="kvg:053f7-s1" kvg:type="㇑" d="M30.75,14.66c1,0.59,1.88,1.59,2.04,2.42c1.04,5.07,2.25,11.09,3.53,17.31c0.25,1.2,0.48,2.39,0.71,3.58"/>
		<path style="fill:none;stroke:#808080" id="kvg:053f7-s2" kvg:type="㇕b" d="M34.14,16.95c10.39-1.58,29.99-4.15,35.35-4.68c1.96-0.19,3.39,1.48,2.86,3.6c-1.18,4.73-2.6,9.38-4.47,14.89"/>
		<path style="fill:none;stroke:#808080" id="kvg:053f7-s3" kvg:type="㇐b" d="M37.7,34.98c5.39-0.51,19.86-2.18,29.07-3.03c1.54-0.14,2.92-0.26,4.06-0.35"/>
	</g>
	<g id="kvg:053f7-g2" kvg:position="bottom">
		<g id="kvg:053f7-g3" kvg:element="一">
			<path style="fill:none;stroke-width:4;" id="kvg:053f7-s4" kvg:type="㇐" d="M12.5,47.45c2.5,0.54,6.6,0.56,9.08,0.29c19-2.04,41.7-4.56,63.04-5.4c3.71-0.14,7.32-0.03,11,0.45"/>
<circle cx="12.5" cy="47.45" r="5" style="fill:red;stroke:red;" />
		</g>
	</g>
</g>
</g></svg>