<?xml version="1.0" encoding="UTF-8"?>
  <!DOCTYPE svg PUBLIC "-//W3C//DTD SVG 1.0//EN" "http://www.w3.org/TR/2001/REC-SVG-20010904/DTD/svg10.dtd" [
  <!ATTLIST g xmlns:kvg CDATA #FIXED "http://kanjivg.tagaini.net" kvg:element CDATA #IMPLIED kvg:variant CDATA #IMPLIED kvg:partial CDATA #IMPLIED kvg:original CDATA #IMPLIED kvg:part CDATA #IMPLIED kvg:number CDATA #IMPLIED kvg:tradForm CDATA #IMPLIED kvg:radicalForm CDATA #IMPLIED kvg:position CDATA #IMPLIED kvg:radical CDATA #IMPLIED kvg:phon CDATA #IMPLIED >
  <!ATTLIST path xmlns:kvg CDATA #FIXED "http://kanjivg.tagaini.net" kvg:type CDATA #IMPLIED >
  ]>
  <svg xmlns="http://www.w3.org/2000/svg" width="109" height="109" viewBox="0 0 109 109">
<g id="kvg:StrokePaths_0540c" style="fill:none;stroke:#000000;stroke-width:3;stroke-linecap:round;stroke-linejoin:round;">
<g id="kvg:0540c" kvg:element="同">
	<g id="kvg:0540c-g1" kvg:element="冂" kvg:position="kamae" kvg:radical="nelson">
		<path style="fill:none;stroke:#808080" id="kvg:0540c-s1" kvg:type="㇑" d="M21.67,16.73c1.08,1.27,1.69,3.02,1.69,5.32c0,4.15-0.19,49.87-0.25,67.2c-0.01,3.37-0.02,5.63-0.02,6.25"/>
		<path style="fill:none;stroke:#808080" id="kvg:0540c-s2" kvg:type="㇆a" d="M24.04,19.17c15.63-1.45,57.69-4.83,59.24-5c3.88-0.42,5.19,1.58,5.19,4.37c0,2.54-0.26,65.26-0.26,71.1c0,12.6-5.08,4.85-7.96,2.05"/>
	</g>
	<g id="kvg:0540c-g2" kvg:element="一">
		<path style="fill:none;stroke-width:4;" id="kvg:0540c-s3" kvg:type="㇐" d="M37.38,33.92c1.35,0.38,3.82,0.54,5.16,0.38c6.96-0.8,18.96-2.05,25.62-2.63c2.23-0.2,3.59,0.18,4.71,0.37"/>
<circle cx="37.38" cy="33.92" r="5" style="fill:red;stroke:red;" />
	</g>
	<g id="kvg:0540c-g3" kvg:element="口" kvg:radical="tradit">
	</g>
</g>
</g></svg>