<?xml version="1.0" encoding="UTF-8"?>
  <!DOCTYPE svg PUBLIC "-//W3C//DTD SVG 1.0//EN" "http://www.w3.org/TR/2001/REC-SVG-20010904/DTD/svg10.dtd" [
  <!ATTLIST g xmlns:kvg CDATA #FIXED "http://kanjivg.tagaini.net" kvg:element CDATA #IMPLIED kvg:variant CDATA #IMPLIED kvg:partial CDATA #IMPLIED kvg:original CDATA #IMPLIED kvg:part CDATA #IMPLIED kvg:number CDATA #IMPLIED kvg:tradForm CDATA #IMPLIED kvg:radicalForm CDATA #IMPLIED kvg:position CDATA #IMPLIED kvg:radical CDATA #IMPLIED kvg:phon CDATA #IMPLIED >
  <!ATTLIST path xmlns:kvg CDATA #FIXED "http://kanjivg.tagaini.net" kvg:type CDATA #IMPLIED >
  ]>
  <svg xmlns="http://www.w3.org/2000/svg" width="109" height="109" viewBox="0 0 109 109">
<g id="kvg:StrokePaths_05411" style="fill:none;stroke:#000000;stroke-width:3;stroke-linecap:round;stroke-linejoin:round;">
<g id="kvg:05411" kvg:element="向">
	<g id="kvg:05411-g1" kvg:element="丿">
		<path style="fill:none;stroke:#808080" id="kvg:05411-s1" kvg:type="㇒" d="M49.51,18.39c0.24,0.98,0.04,2.08-0.33,2.85C45.62,28.5,43,32.75,34.06,42.97"/>
	</g>
	<g id="kvg:05411-g2" kvg:element="冂" kvg:position="kamae">
		<g id="kvg:05411-g3" kvg:element="丨" kvg:radical="nelson">
			<path style="fill:none;stroke:#808080" id="kvg:05411-s2" kvg:type="㇑" d="M18.75,42.5c1,1,1.66,2.28,1.78,3.64c0.41,4.91,1.18,24.14,1.58,36.73c0.06,1.78,0.1,3.42,0.14,4.87"/>
		</g>
		<path style="fill:none;stroke-width:4;" id="kvg:05411-s3" kvg:type="㇆a" d="M21.35,45.1c16.03-1.85,61.13-7.17,62.97-7.43c2.93-0.42,6.74,1.55,6.66,5.33c-0.22,9.76-3.67,33.44-6.49,42.28C81.12,95.75,78.62,90.12,76,86"/>
<circle cx="21.35" cy="45.1" r="5" style="fill:red;stroke:red;" />
	</g>
	<g id="kvg:05411-g4" kvg:element="口" kvg:radical="tradit">
	</g>
</g>
</g></svg>