<?xml version="1.0" encoding="UTF-8"?>
  <!DOCTYPE svg PUBLIC "-//W3C//DTD SVG 1.0//EN" "http://www.w3.org/TR/2001/REC-SVG-20010904/DTD/svg10.dtd" [
  <!ATTLIST g xmlns:kvg CDATA #FIXED "http://kanjivg.tagaini.net" kvg:element CDATA #IMPLIED kvg:variant CDATA #IMPLIED kvg:partial CDATA #IMPLIED kvg:original CDATA #IMPLIED kvg:part CDATA #IMPLIED kvg:number CDATA #IMPLIED kvg:tradForm CDATA #IMPLIED kvg:radicalForm CDATA #IMPLIED kvg:position CDATA #IMPLIED kvg:radical CDATA #IMPLIED kvg:phon CDATA #IMPLIED >
  <!ATTLIST path xmlns:kvg CDATA #FIXED "http://kanjivg.tagaini.net" kvg:type CDATA #IMPLIED >
  ]>
  <svg xmlns="http://www.w3.org/2000/svg" width="109" height="109" viewBox="0 0 109 109">
<g id="kvg:StrokePaths_05426" style="fill:none;stroke:#000000;stroke-width:3;stroke-linecap:round;stroke-linejoin:round;">
<g id="kvg:05426" kvg:element="否">
	<g id="kvg:05426-g1" kvg:element="不" kvg:position="top" kvg:phon="不">
		<g id="kvg:05426-g2" kvg:element="一" kvg:radical="nelson">
			<path style="fill:none;stroke:#808080" id="kvg:05426-s1" kvg:type="㇐" d="M23.56,17.85c3.69,0.52,6.84,0.49,9.95,0.17c10.8-1.12,31.53-2.65,45.12-3.52c3.24-0.21,6.62-0.27,9.8,0.42"/>
		</g>
		<g id="kvg:05426-g3" kvg:element="丿">
			<path style="fill:none;stroke:#808080" id="kvg:05426-s2" kvg:type="㇒" d="M53.22,19.55c0.11,0.85,0.17,1.78-0.47,2.9C48.38,30.12,35.38,44,14.27,54.98"/>
		</g>
		<g id="kvg:05426-g4" kvg:element="丨">
			<path style="fill:none;stroke:#808080" id="kvg:05426-s3" kvg:type="㇑" d="M52.79,30.78c0.78,0.78,1.26,1.72,1.26,2.92c0,1.99,0.05,14.33,0.06,21.67c0,2.95,0,5.1-0.01,5.44"/>
		</g>
		<path style="fill:none;stroke:#808080" id="kvg:05426-s4" kvg:type="㇔" d="M67.22,33.76c9.41,3.61,19.28,10.49,26.38,17.79"/>
	</g>
	<g id="kvg:05426-g5" kvg:element="口" kvg:position="bottom" kvg:radical="tradit">
		<path style="fill:none;stroke-width:4;" id="kvg:05426-s5" kvg:type="㇑" d="M30,69.35c1.01,1.01,1.62,2.27,1.86,3.37c1.26,5.93,2.68,12.5,3.73,19.3c0.25,1.65,0.49,3.24,0.7,4.69"/>
<circle cx="30" cy="69.35" r="5" style="fill:red;stroke:red;" />
	</g>
</g>
</g></svg>