<?xml version="1.0" encoding="UTF-8"?>
  <!DOCTYPE svg PUBLIC "-//W3C//DTD SVG 1.0//EN" "http://www.w3.org/TR/2001/REC-SVG-20010904/DTD/svg10.dtd" [
  <!ATTLIST g xmlns:kvg CDATA #FIXED "http://kanjivg.tagaini.net" kvg:element CDATA #IMPLIED kvg:variant CDATA #IMPLIED kvg:partial CDATA #IMPLIED kvg:original CDATA #IMPLIED kvg:part CDATA #IMPLIED kvg:number CDATA #IMPLIED kvg:tradForm CDATA #IMPLIED kvg:radicalForm CDATA #IMPLIED kvg:position CDATA #IMPLIED kvg:radical CDATA #IMPLIED kvg:phon CDATA #IMPLIED >
  <!ATTLIST path xmlns:kvg CDATA #FIXED "http://kanjivg.tagaini.net" kvg:type CDATA #IMPLIED >
  ]>
  <svg xmlns="http://www.w3.org/2000/svg" width="109" height="109" viewBox="0 0 109 109">
<g id="kvg:StrokePaths_05438" style="fill:none;stroke:#000000;stroke-width:3;stroke-linecap:round;stroke-linejoin:round;">
<g id="kvg:05438" kvg:element="吸">
	<g id="kvg:05438-g1" kvg:element="口" kvg:position="left" kvg:radical="general">
		<path style="fill:none;stroke:#808080" id="kvg:05438-s1" kvg:type="㇑" d="M12.25,34.42c0.6,0.6,1.12,1.83,1.23,2.9c0.49,4.73,1.18,9.53,1.85,16.89c0.14,1.51,0.27,3.06,0.39,4.65"/>
		<path style="fill:none;stroke:#808080" id="kvg:05438-s2" kvg:type="㇕b" d="M14.24,36.17c8.47-1.88,15.06-3.08,20.38-4.04c2.77-0.5,4.12,0.86,3.67,3.25c-0.85,4.49-2.56,11.38-3.94,16.85"/>
		<path style="fill:none;stroke:#808080" id="kvg:05438-s3" kvg:type="㇐b" d="M16.67,55.61c4.51-0.45,9.68-1.51,15.83-2.34c1.35-0.18,2.71-0.35,4.07-0.51"/>
	</g>
	<g id="kvg:05438-g2" kvg:element="及" kvg:position="right" kvg:phon="及">
		<g id="kvg:05438-g3" kvg:element="丿">
			<path style="fill:none;stroke-width:4;" id="kvg:05438-s4" kvg:type="㇒" d="M52.32,30.71c0.68,1.29,0.7,2.97,0.42,4.76c-1.99,12.78-10.99,38.78-31.61,50.95"/>
<circle cx="52.32" cy="30.71" r="5" style="fill:red;stroke:red;" />
		</g>
		<g id="kvg:05438-g4" kvg:element="又" kvg:variant="true">
		</g>
	</g>
</g>
</g></svg>