<?xml version="1.0" encoding="UTF-8"?>
  <!DOCTYPE svg PUBLIC "-//W3C//DTD SVG 1.0//EN" "http://www.w3.org/TR/2001/REC-SVG-20010904/DTD/svg10.dtd" [
  <!ATTLIST g xmlns:kvg CDATA #FIXED "http://kanjivg.tagaini.net" kvg:element CDATA #IMPLIED kvg:variant CDATA #IMPLIED kvg:partial CDATA #IMPLIED kvg:original CDATA #IMPLIED kvg:part CDATA #IMPLIED kvg:number CDATA #IMPLIED kvg:tradForm CDATA #IMPLIED kvg:radicalForm CDATA #IMPLIED kvg:position CDATA #IMPLIED kvg:radical CDATA #IMPLIED kvg:phon CDATA #IMPLIED >
  <!ATTLIST path xmlns:kvg CDATA #FIXED "http://kanjivg.tagaini.net" kvg:type CDATA #IMPLIED >
  ]>
  <svg xmlns="http://www.w3.org/2000/svg" width="109" height="109" viewBox="0 0 109 109">
<g id="kvg:StrokePaths_0547c" style="fill:none;stroke:#000000;stroke-width:3;stroke-linecap:round;stroke-linejoin:round;">
<g id="kvg:0547c" kvg:element="呼">
	<g id="kvg:0547c-g1" kvg:element="口" kvg:position="left" kvg:radical="general">
		<path style="fill:none;stroke:#808080" id="kvg:0547c-s1" kvg:type="㇑" d="M12.25,35.08c0.76,0.74,1.2,1.63,1.33,2.68c0.99,3.95,2.06,11.18,2.88,17.46c0.22,1.69,0.42,3.31,0.6,4.78"/>
		<path style="fill:none;stroke:#808080" id="kvg:0547c-s2" kvg:type="㇕b" d="M14.4,36.71c8.72-1.71,16.5-2.94,21.22-3.56c2.13-0.28,3.75,1.35,3.25,3.5c-1.08,4.64-2.02,9.66-3.38,16.06"/>
		<path style="fill:none;stroke:#808080" id="kvg:0547c-s3" kvg:type="㇐b" d="M17.24,56.02c4.42-0.53,10.24-1.37,16.27-2.2c1.21-0.17,2.37-0.32,3.64-0.24"/>
	</g>
	<g id="kvg:0547c-g2" kvg:element="乎" kvg:position="right" kvg:phon="乎">
		<g id="kvg:0547c-g3" kvg:element="丿">
			<path style="fill:none;stroke-width:4;" id="kvg:0547c-s4" kvg:type="㇒" d="M74.92,11.75c0,1.12-0.58,2.25-1.74,2.95C67,18.5,57.12,22.62,43.62,26.54"/>
<circle cx="74.92" cy="11.75" r="5" style="fill:red;stroke:red;" />
		</g>
		<g id="kvg:0547c-g4" kvg:element="亅">
		</g>
	</g>
</g>
</g></svg>