<?xml version="1.0" encoding="UTF-8"?>
  <!DOCTYPE svg PUBLIC "-//W3C//DTD SVG 1.0//EN" "http://www.w3.org/TR/2001/REC-SVG-20010904/DTD/svg10.dtd" [
  <!ATTLIST g xmlns:kvg CDATA #FIXED "http://kanjivg.tagaini.net" kvg:element CDATA #IMPLIED kvg:variant CDATA #IMPLIED kvg:partial CDATA #IMPLIED kvg:original CDATA #IMPLIED kvg:part CDATA #IMPLIED kvg:number CDATA #IMPLIED kvg:tradForm CDATA #IMPLIED kvg:radicalForm CDATA #IMPLIED kvg:position CDATA #IMPLIED kvg:radical CDATA #IMPLIED kvg:phon CDATA #IMPLIED >
  <!ATTLIST path xmlns:kvg CDATA #FIXED "http://kanjivg.tagaini.net" kvg:type CDATA #IMPLIED >
  ]>
  <svg xmlns="http://www.w3.org/2000/svg" width="109" height="109" viewBox="0 0 109 109">
<g id="kvg:StrokePaths_0547d" style="fill:none;stroke:#000000;stroke-width:3;stroke-linecap:round;stroke-linejoin:round;">
<g id="kvg:0547d" kvg:element="命">
	<g id="kvg:0547d-g1" kvg:position="top">
		<g id="kvg:0547d-g2" kvg:element="人" kvg:radical="nelson">
			<path style="fill:none;stroke:#808080" id="kvg:0547d-s1" kvg:type="㇒" d="M51.75,10.25c0.11,1-0.06,2.67-0.71,4.02c-4.47,9.23-17.06,25.98-38.79,38.48"/>
			<path style="fill:none;stroke:#808080" id="kvg:0547d-s2" kvg:type="㇏" d="M53.5,15c7.12,7,22.89,20.46,30.6,26.65c2.82,2.26,5.65,4.22,9.15,5.72"/>
		</g>
		<g id="kvg:0547d-g3" kvg:element="一">
			<path style="fill:none;stroke:#808080" id="kvg:0547d-s3" kvg:type="㇐" d="M38.25,40.64c1.76,0.72,3.84,0.36,5.65,0.14c5.4-0.66,13.08-1.76,18.48-2.24c1.88-0.17,3.54-0.23,5.37,0.21"/>
		</g>
	</g>
	<g id="kvg:0547d-g4" kvg:position="bottom">
		<g id="kvg:0547d-g5" kvg:element="口" kvg:position="left" kvg:radical="tradit">
			<path style="fill:none;stroke:#808080" id="kvg:0547d-s4" kvg:type="㇑" d="M21.2,54.29c1.01,1.01,1.59,2.26,1.67,3.43c0.9,3.88,1.77,10.12,2.4,15.89c0.16,1.43,0.3,2.79,0.42,4.04"/>
			<path style="fill:none;stroke-width:4;" id="kvg:0547d-s5" kvg:type="㇕b" d="M23.92,56.51c10.83-1.76,15.42-2.18,20.28-2.65c1.78-0.17,2.79,1.16,2.49,2.28c-1.23,4.63-1.67,9.73-3.48,16.13"/>
<circle cx="23.92" cy="56.51" r="5" style="fill:red;stroke:red;" />
		</g>
		<g id="kvg:0547d-g6" kvg:element="卩" kvg:position="right">
		</g>
	</g>
</g>
</g></svg>