<?xml version="1.0" encoding="UTF-8"?>
  <!DOCTYPE svg PUBLIC "-//W3C//DTD SVG 1.0//EN" "http://www.w3.org/TR/2001/REC-SVG-20010904/DTD/svg10.dtd" [
  <!ATTLIST g xmlns:kvg CDATA #FIXED "http://kanjivg.tagaini.net" kvg:element CDATA #IMPLIED kvg:variant CDATA #IMPLIED kvg:partial CDATA #IMPLIED kvg:original CDATA #IMPLIED kvg:part CDATA #IMPLIED kvg:number CDATA #IMPLIED kvg:tradForm CDATA #IMPLIED kvg:radicalForm CDATA #IMPLIED kvg:position CDATA #IMPLIED kvg:radical CDATA #IMPLIED kvg:phon CDATA #IMPLIED >
  <!ATTLIST path xmlns:kvg CDATA #FIXED "http://kanjivg.tagaini.net" kvg:type CDATA #IMPLIED >
  ]>
  <svg xmlns="http://www.w3.org/2000/svg" width="109" height="109" viewBox="0 0 109 109">
<g id="kvg:StrokePaths_054e1" style="fill:none;stroke:#000000;stroke-width:3;stroke-linecap:round;stroke-linejoin:round;">
<g id="kvg:054e1" kvg:element="員">
	<g id="kvg:054e1-g1" kvg:element="口" kvg:position="top" kvg:radical="general">
		<path style="fill:none;stroke:#808080" id="kvg:054e1-s1" kvg:type="㇑" d="M29.04,13.85c1.09,0.77,1.78,2.04,1.96,2.9c0.87,4.12,1.77,9.71,2.58,14.73c0.15,0.94,0.29,1.87,0.42,2.76"/>
		<path style="fill:none;stroke:#808080" id="kvg:054e1-s2" kvg:type="㇕b" d="M31.49,15.19c12.02-1.41,37.9-4.06,42.45-4.45c2.81-0.24,4.31,1.14,3.63,3.71c-0.95,3.6-2.32,8.34-3.48,12.58"/>
		<path style="fill:none;stroke:#808080" id="kvg:054e1-s3" kvg:type="㇐b" d="M34.2,32.08c4.98-0.5,26.33-2.41,37.31-3.51c1.81-0.18,3.33-0.34,4.46-0.46"/>
	</g>
	<g id="kvg:054e1-g2" kvg:element="貝" kvg:position="bottom">
		<g id="kvg:054e1-g3" kvg:element="目" kvg:position="top">
			<path style="fill:none;stroke-width:4;" id="kvg:054e1-s4" kvg:type="㇑" d="M32.89,41.39c0.67,0.91,1.16,2.09,1.16,3.3c0,0.99-0.15,24.66-0.08,34.05c0.02,2.14,0.04,3.54,0.08,3.76"/>
<circle cx="32.89" cy="41.39" r="5" style="fill:red;stroke:red;" />
		</g>
		<g id="kvg:054e1-g4" kvg:position="bottom">
		</g>
	</g>
</g>
</g></svg>