<?xml version="1.0" encoding="UTF-8"?>
  <!DOCTYPE svg PUBLIC "-//W3C//DTD SVG 1.0//EN" "http://www.w3.org/TR/2001/REC-SVG-20010904/DTD/svg10.dtd" [
  <!ATTLIST g xmlns:kvg CDATA #FIXED "http://kanjivg.tagaini.net" kvg:element CDATA #IMPLIED kvg:variant CDATA #IMPLIED kvg:partial CDATA #IMPLIED kvg:original CDATA #IMPLIED kvg:part CDATA #IMPLIED kvg:number CDATA #IMPLIED kvg:tradForm CDATA #IMPLIED kvg:radicalForm CDATA #IMPLIED kvg:position CDATA #IMPLIED kvg:radical CDATA #IMPLIED kvg:phon CDATA #IMPLIED >
  <!ATTLIST path xmlns:kvg CDATA #FIXED "http://kanjivg.tagaini.net" kvg:type CDATA #IMPLIED >
  ]>
  <svg xmlns="http://www.w3.org/2000/svg" width="109" height="109" viewBox="0 0 109 109">
<g id="kvg:StrokePaths_05531" style="fill:none;stroke:#000000;stroke-width:3;stroke-linecap:round;stroke-linejoin:round;">
<g id="kvg:05531" kvg:element="唱">
	<g id="kvg:05531-g1" kvg:element="口" kvg:position="left" kvg:radical="general">
		<path style="fill:none;stroke:#808080" id="kvg:05531-s1" kvg:type="㇑" d="M12.75,29.88c0.81,0.81,1.25,2.12,1.47,3.38c0.95,5.48,1.66,13.3,2.38,21.01c0.18,1.93,0.36,3.86,0.55,5.74"/>
		<path style="fill:none;stroke:#808080" id="kvg:05531-s2" kvg:type="㇕b" d="M14.95,32.17c9.63-1.25,16.32-1.84,20.93-2.43c2.75-0.35,4.62,0.21,4.08,3.41c-0.97,5.86-2.1,11.6-3.53,19.71"/>
		<path style="fill:none;stroke:#808080" id="kvg:05531-s3" kvg:type="㇐b" d="M17.58,55.42c5.75-0.55,10.51-0.99,17.18-1.49c1.36-0.1,2.81-0.21,4.36-0.31"/>
	</g>
	<g id="kvg:05531-g2" kvg:element="昌" kvg:position="right" kvg:phon="昌">
		<g id="kvg:05531-g3" kvg:element="日" kvg:position="top">
			<path style="fill:none;stroke-width:4;" id="kvg:05531-s4" kvg:type="㇑" d="M49.52,18.57c0.83,0.83,1.53,2.04,1.53,2.96c0,0.7,1.72,15.76,2.55,23.23c0.27,2.39,0.44,4,0.44,4.11"/>
<circle cx="49.52" cy="18.57" r="5" style="fill:red;stroke:red;" />
		</g>
		<g id="kvg:05531-g4" kvg:element="日" kvg:position="bottom">
		</g>
	</g>
</g>
</g></svg>