<?xml version="1.0" encoding="UTF-8"?>
  <!DOCTYPE svg PUBLIC "-//W3C//DTD SVG 1.0//EN" "http://www.w3.org/TR/2001/REC-SVG-20010904/DTD/svg10.dtd" [
  <!ATTLIST g xmlns:kvg CDATA #FIXED "http://kanjivg.tagaini.net" kvg:element CDATA #IMPLIED kvg:variant CDATA #IMPLIED kvg:partial CDATA #IMPLIED kvg:original CDATA #IMPLIED kvg:part CDATA #IMPLIED kvg:number CDATA #IMPLIED kvg:tradForm CDATA #IMPLIED kvg:radicalForm CDATA #IMPLIED kvg:position CDATA #IMPLIED kvg:radical CDATA #IMPLIED kvg:phon CDATA #IMPLIED >
  <!ATTLIST path xmlns:kvg CDATA #FIXED "http://kanjivg.tagaini.net" kvg:type CDATA #IMPLIED >
  ]>
  <svg xmlns="http://www.w3.org/2000/svg" width="109" height="109" viewBox="0 0 109 109">
<g id="kvg:StrokePaths_0554f" style="fill:none;stroke:#000000;stroke-width:3;stroke-linecap:round;stroke-linejoin:round;">
<g id="kvg:0554f" kvg:element="問">
	<g id="kvg:0554f-g1" kvg:element="門" kvg:position="kamae" kvg:radical="nelson" kvg:phon="門">
		<g id="kvg:0554f-g2" kvg:position="left">
			<path style="fill:none;stroke:#808080" id="kvg:0554f-s1" kvg:type="㇑" d="M18.39,15.04c1.22,1.22,1.93,3.12,1.93,4.92c0,0.89,0.01,50,0.01,70.67c0,3.77,0,6.6,0,8.01"/>
			<path style="fill:none;stroke:#808080" id="kvg:0554f-s2" kvg:type="㇕a" d="M20.52,16.91c6.35-1.16,14.8-2.87,19.12-3.56c2.64-0.42,4.88-0.16,4.75,3.02c-0.13,2.95-0.88,15.16-1.28,21.75c-0.14,2.41-0.24,4.08-0.24,4.26"/>
			<path style="fill:none;stroke:#808080" id="kvg:0554f-s3" kvg:type="㇐a" d="M21.2,29.49c6.8-1.24,14.3-2.24,21.38-2.83"/>
			<path style="fill:none;stroke:#808080" id="kvg:0554f-s4" kvg:type="㇐a" d="M21.27,42.06c8.11-1.29,13.14-1.76,20.31-2.36"/>
		</g>
		<g id="kvg:0554f-g3" kvg:position="right">
			<path style="fill:none;stroke-width:4;" id="kvg:0554f-s5" kvg:type="㇑" d="M64.36,12.26c1,1,1.54,2.24,1.54,3.65c0,0.68-0.06,12.96-0.08,19.84c-0.01,1.89-0.01,3.38-0.01,4.1"/>
<circle cx="64.36" cy="12.26" r="5" style="fill:red;stroke:red;" />
		</g>
	</g>
	<g id="kvg:0554f-g4" kvg:element="口" kvg:radical="tradit">
	</g>
</g>
</g></svg>