<?xml version="1.0" encoding="UTF-8"?>
  <!DOCTYPE svg PUBLIC "-//W3C//DTD SVG 1.0//EN" "http://www.w3.org/TR/2001/REC-SVG-20010904/DTD/svg10.dtd" [
  <!ATTLIST g xmlns:kvg CDATA #FIXED "http://kanjivg.tagaini.net" kvg:element CDATA #IMPLIED kvg:variant CDATA #IMPLIED kvg:partial CDATA #IMPLIED kvg:original CDATA #IMPLIED kvg:part CDATA #IMPLIED kvg:number CDATA #IMPLIED kvg:tradForm CDATA #IMPLIED kvg:radicalForm CDATA #IMPLIED kvg:position CDATA #IMPLIED kvg:radical CDATA #IMPLIED kvg:phon CDATA #IMPLIED >
  <!ATTLIST path xmlns:kvg CDATA #FIXED "http://kanjivg.tagaini.net" kvg:type CDATA #IMPLIED >
  ]>
  <svg xmlns="http://www.w3.org/2000/svg" width="109" height="109" viewBox="0 0 109 109">
<g id="kvg:StrokePaths_05584" style="fill:none;stroke:#000000;stroke-width:3;stroke-linecap:round;stroke-linejoin:round;">
<g id="kvg:05584" kvg:element="善">
	<g id="kvg:05584-g1" kvg:position="top">
		<g id="kvg:05584-g2" kvg:element="羊">
			<g id="kvg:05584-g3" kvg:element="䒑">
				<g id="kvg:05584-g4" kvg:element="八" kvg:variant="true" kvg:radical="nelson">
					<path style="fill:none;stroke:#808080" id="kvg:05584-s1" kvg:type="㇔" d="M35.52,12.33c3.63,1.7,9.38,6.99,10.29,9.63"/>
					<path style="fill:none;stroke:#808080" id="kvg:05584-s2" kvg:type="㇒" d="M69.78,9.89c0.07,0.76-0.05,1.48-0.36,2.17c-0.98,2.54-3.55,6.13-8.36,10.4"/>
				</g>
				<path style="fill:none;stroke:#808080" id="kvg:05584-s3" kvg:type="㇐" d="M29,27.64c2.5,0.49,4.82,0.28,7,0.08c9.55-0.87,26.51-2.49,37.25-2.98c1.95-0.09,4.12-0.23,6.25,0.28"/>
				<path style="fill:none;stroke-width:4;" id="kvg:05584-s4" kvg:type="㇐" d="M30.25,39.14c2.62,0.61,4.82,0.29,6.99,0.12c9.76-0.77,24.35-2.03,33.39-2.68c2.1-0.15,4.62-0.08,6.62,0.18"/>
<circle cx="30.25" cy="39.14" r="5" style="fill:red;stroke:red;" />
			</g>
		</g>
	</g>
	<g id="kvg:05584-g5" kvg:element="口" kvg:position="bottom" kvg:radical="tradit">
	</g>
</g>
</g></svg>