<?xml version="1.0" encoding="UTF-8"?>
  <!DOCTYPE svg PUBLIC "-//W3C//DTD SVG 1.0//EN" "http://www.w3.org/TR/2001/REC-SVG-20010904/DTD/svg10.dtd" [
  <!ATTLIST g xmlns:kvg CDATA #FIXED "http://kanjivg.tagaini.net" kvg:element CDATA #IMPLIED kvg:variant CDATA #IMPLIED kvg:partial CDATA #IMPLIED kvg:original CDATA #IMPLIED kvg:part CDATA #IMPLIED kvg:number CDATA #IMPLIED kvg:tradForm CDATA #IMPLIED kvg:radicalForm CDATA #IMPLIED kvg:position CDATA #IMPLIED kvg:radical CDATA #IMPLIED kvg:phon CDATA #IMPLIED >
  <!ATTLIST path xmlns:kvg CDATA #FIXED "http://kanjivg.tagaini.net" kvg:type CDATA #IMPLIED >
  ]>
  <svg xmlns="http://www.w3.org/2000/svg" width="109" height="109" viewBox="0 0 109 109">
<g id="kvg:StrokePaths_0559c" style="fill:none;stroke:#000000;stroke-width:3;stroke-linecap:round;stroke-linejoin:round;">
<g id="kvg:0559c" kvg:element="喜">
	<g id="kvg:0559c-g1" kvg:element="吉" kvg:position="top">
		<g id="kvg:0559c-g2" kvg:element="士" kvg:variant="true" kvg:original="土" kvg:position="top" kvg:radical="nelson">
			<path style="fill:none;stroke:#808080" id="kvg:0559c-s1" kvg:type="㇐" d="M29.62,20.91c2.76,0.46,5.77,0.27,8.38-0.01c9.75-1.02,23.42-2.51,33.88-3.14c2.65-0.16,5.38-0.46,8.01-0.01"/>
			<path style="fill:none;stroke:#808080" id="kvg:0559c-s2" kvg:type="㇑a" d="M52.51,8.01c0.99,0.99,1.54,2.12,1.54,3.65c0,3.09-0.16,12.47-0.16,17.93"/>
			<path style="fill:none;stroke:#808080" id="kvg:0559c-s3" kvg:type="㇐" d="M36.68,31.93c2.19,0.32,4.12,0.35,5.95,0.08c7.74-1.13,14.84-1.9,24.88-2.57c1.95-0.13,3.96-0.38,5.91-0.09"/>
		</g>
		<g id="kvg:0559c-g3" kvg:element="口" kvg:position="bottom">
			<path style="fill:none;stroke-width:4;" id="kvg:0559c-s4" kvg:type="㇑" d="M34.74,40.09c0.9,0.52,1.44,1.56,1.61,2.62c0.93,2.59,1.77,6.43,2.46,9.91c0.2,0.99,0.38,1.95,0.56,2.85"/>
<circle cx="34.74" cy="40.09" r="5" style="fill:red;stroke:red;" />
		</g>
	</g>
	<g id="kvg:0559c-g4" kvg:position="bottom">
		<g id="kvg:0559c-g5" kvg:element="口" kvg:radical="tradit">
		</g>
	</g>
</g>
</g></svg>