<?xml version="1.0" encoding="UTF-8"?>
  <!DOCTYPE svg PUBLIC "-//W3C//DTD SVG 1.0//EN" "http://www.w3.org/TR/2001/REC-SVG-20010904/DTD/svg10.dtd" [
  <!ATTLIST g xmlns:kvg CDATA #FIXED "http://kanjivg.tagaini.net" kvg:element CDATA #IMPLIED kvg:variant CDATA #IMPLIED kvg:partial CDATA #IMPLIED kvg:original CDATA #IMPLIED kvg:part CDATA #IMPLIED kvg:number CDATA #IMPLIED kvg:tradForm CDATA #IMPLIED kvg:radicalForm CDATA #IMPLIED kvg:position CDATA #IMPLIED kvg:radical CDATA #IMPLIED kvg:phon CDATA #IMPLIED >
  <!ATTLIST path xmlns:kvg CDATA #FIXED "http://kanjivg.tagaini.net" kvg:type CDATA #IMPLIED >
  ]>
  <svg xmlns="http://www.w3.org/2000/svg" width="109" height="109" viewBox="0 0 109 109">
<g id="kvg:StrokePaths_05668" style="fill:none;stroke:#000000;stroke-width:3;stroke-linecap:round;stroke-linejoin:round;">
<g id="kvg:05668" kvg:element="器">
	<g id="kvg:05668-g1" kvg:position="top">
		<g id="kvg:05668-g2" kvg:element="口" kvg:position="left" kvg:radical="general">
			<path style="fill:none;stroke:#808080" id="kvg:05668-s1" kvg:type="㇑" d="M22.8,15.59c0.76,0.61,1.2,1.4,1.33,2.37c0.94,3.23,1.96,8.62,2.72,13.4c0.17,1.09,0.33,2.15,0.47,3.14"/>
			<path style="fill:none;stroke:#808080" id="kvg:05668-s2" kvg:type="㇕b" d="M25.06,16.86c7.67-1.42,14.62-2.42,19.07-2.94c2.67-0.31,4.29,0.04,3.6,2.99c-0.85,3.66-2.09,7.45-3.32,12.3"/>
			<path style="fill:none;stroke:#808080" id="kvg:05668-s3" kvg:type="㇐b" d="M28.24,32.06c4.29-0.43,9.05-0.94,14.66-1.56c0.92-0.1,1.85-0.21,2.81-0.31"/>
		</g>
		<g id="kvg:05668-g3" kvg:element="口" kvg:position="right">
			<path style="fill:none;stroke-width:4;" id="kvg:05668-s4" kvg:type="㇑" d="M59.8,15.09c0.74,0.74,1.37,1.95,1.61,2.9c0.87,3.49,1.71,7.11,2.41,11.1c0.18,1.03,0.34,2.08,0.5,3.16"/>
<circle cx="59.8" cy="15.09" r="5" style="fill:red;stroke:red;" />
		</g>
	</g>
	<g id="kvg:05668-g4" kvg:position="bottom">
		<g id="kvg:05668-g5" kvg:element="大">
		</g>
		<g id="kvg:05668-g6" kvg:element="口" kvg:position="left">
		</g>
		<g id="kvg:05668-g7" kvg:element="口" kvg:position="right">
		</g>
	</g>
</g>
</g></svg>