<?xml version="1.0" encoding="UTF-8"?>
  <!DOCTYPE svg PUBLIC "-//W3C//DTD SVG 1.0//EN" "http://www.w3.org/TR/2001/REC-SVG-20010904/DTD/svg10.dtd" [
  <!ATTLIST g xmlns:kvg CDATA #FIXED "http://kanjivg.tagaini.net" kvg:element CDATA #IMPLIED kvg:variant CDATA #IMPLIED kvg:partial CDATA #IMPLIED kvg:original CDATA #IMPLIED kvg:part CDATA #IMPLIED kvg:number CDATA #IMPLIED kvg:tradForm CDATA #IMPLIED kvg:radicalForm CDATA #IMPLIED kvg:position CDATA #IMPLIED kvg:radical CDATA #IMPLIED kvg:phon CDATA #IMPLIED >
  <!ATTLIST path xmlns:kvg CDATA #FIXED "http://kanjivg.tagaini.net" kvg:type CDATA #IMPLIED >
  ]>
  <svg xmlns="http://www.w3.org/2000/svg" width="109" height="109" viewBox="0 0 109 109">
<g id="kvg:StrokePaths_056de" style="fill:none;stroke:#000000;stroke-width:3;stroke-linecap:round;stroke-linejoin:round;">
<g id="kvg:056de" kvg:element="回">
	<g id="kvg:056de-g1" kvg:element="囗" kvg:part="1" kvg:position="kamae" kvg:radical="general">
		<path style="fill:none;stroke:#808080" id="kvg:056de-s1" kvg:type="㇑" d="M17.5,26.25c1.06,1.06,1.9,3.09,2.11,4.98c1.27,11.64,2.42,29.54,4.16,51.27c0.17,2.12,0.34,2.78,0.53,5"/>
		<path style="fill:none;stroke:#808080" id="kvg:056de-s2" kvg:type="㇕a" d="M20.54,28.66c20.23-2.59,57.72-6.91,68.71-6.91c2.75,0,3.82,2.51,3.5,5.5c-1.35,12.85-3.11,34.06-5.64,51.98c-0.28,1.95-0.56,2.88-0.86,4.77"/>
	</g>
	<g id="kvg:056de-g2" kvg:element="口">
		<path style="fill:none;stroke-width:4;" id="kvg:056de-s3" kvg:type="㇑" d="M37.75,45.14c0.8,0.64,1.29,1.45,1.47,2.45c1.2,3.61,2.35,10.46,3.54,16.12c0.28,1.32,0.53,2.1,0.74,3.3"/>
<circle cx="37.75" cy="45.14" r="5" style="fill:red;stroke:red;" />
	</g>
	<g id="kvg:056de-g3" kvg:element="囗" kvg:part="2" kvg:position="kamae" kvg:radical="general">
	</g>
</g>
</g></svg>