<?xml version="1.0" encoding="UTF-8"?>
  <!DOCTYPE svg PUBLIC "-//W3C//DTD SVG 1.0//EN" "http://www.w3.org/TR/2001/REC-SVG-20010904/DTD/svg10.dtd" [
  <!ATTLIST g xmlns:kvg CDATA #FIXED "http://kanjivg.tagaini.net" kvg:element CDATA #IMPLIED kvg:variant CDATA #IMPLIED kvg:partial CDATA #IMPLIED kvg:original CDATA #IMPLIED kvg:part CDATA #IMPLIED kvg:number CDATA #IMPLIED kvg:tradForm CDATA #IMPLIED kvg:radicalForm CDATA #IMPLIED kvg:position CDATA #IMPLIED kvg:radical CDATA #IMPLIED kvg:phon CDATA #IMPLIED >
  <!ATTLIST path xmlns:kvg CDATA #FIXED "http://kanjivg.tagaini.net" kvg:type CDATA #IMPLIED >
  ]>
  <svg xmlns="http://www.w3.org/2000/svg" width="109" height="109" viewBox="0 0 109 109">
<g id="kvg:StrokePaths_056f2" style="fill:none;stroke:#000000;stroke-width:3;stroke-linecap:round;stroke-linejoin:round;">
<g id="kvg:056f2" kvg:element="囲">
	<g id="kvg:056f2-g1" kvg:element="囗" kvg:part="1" kvg:position="kamae" kvg:radical="general">
		<path style="fill:none;stroke:#808080" id="kvg:056f2-s1" kvg:type="㇑" d="M18.75,19.07c1.03,1.03,1.86,2.76,1.86,4.66c0,17.53-0.05,43.77-0.06,69.15c0,1.8,0,3.59,0,5.38"/>
		<path style="fill:none;stroke:#808080" id="kvg:056f2-s2" kvg:type="㇕a" d="M21.48,21.4c18.9-1.9,46.27-4.9,62.77-4.9c2.42,0,4.25,1.25,4.25,3.5c0,16.23,0,47.53,0,69.75c0,1.91,0,3.74,0,5.5"/>
	</g>
	<g id="kvg:056f2-g2" kvg:element="井" kvg:phon="韋">
		<g id="kvg:056f2-g3" kvg:element="二" kvg:part="1">
			<path style="fill:none;stroke:#808080" id="kvg:056f2-s3" kvg:type="㇐" d="M32.99,43.3c1.88,0.45,3.69,0.42,5.26,0.21c6.95-0.93,23.4-2.77,31.87-3.42c1.9-0.15,3.78-0.36,5.66,0.04"/>
		</g>
		<g id="kvg:056f2-g4" kvg:element="廾">
			<g id="kvg:056f2-g5" kvg:element="二" kvg:part="2">
				<g id="kvg:056f2-g6" kvg:element="十" kvg:part="1">
					<path style="fill:none;stroke-width:4;" id="kvg:056f2-s4" kvg:type="㇐" d="M29.04,61.7c2.33,0.67,4.31,0.52,6.59,0.22c7.61-0.99,26.02-3.02,38.12-3.86c2.04-0.14,3.94-0.21,5.96,0.22"/>
<circle cx="29.04" cy="61.7" r="5" style="fill:red;stroke:red;" />
				</g>
			</g>
			<g id="kvg:056f2-g7" kvg:element="丿">
			</g>
			<g id="kvg:056f2-g8" kvg:element="十" kvg:part="2">
			</g>
		</g>
	</g>
	<g id="kvg:056f2-g9" kvg:element="囗" kvg:part="2" kvg:position="kamae" kvg:radical="general">
	</g>
</g>
</g></svg>