<?xml version="1.0" encoding="UTF-8"?>
  <!DOCTYPE svg PUBLIC "-//W3C//DTD SVG 1.0//EN" "http://www.w3.org/TR/2001/REC-SVG-20010904/DTD/svg10.dtd" [
  <!ATTLIST g xmlns:kvg CDATA #FIXED "http://kanjivg.tagaini.net" kvg:element CDATA #IMPLIED kvg:variant CDATA #IMPLIED kvg:partial CDATA #IMPLIED kvg:original CDATA #IMPLIED kvg:part CDATA #IMPLIED kvg:number CDATA #IMPLIED kvg:tradForm CDATA #IMPLIED kvg:radicalForm CDATA #IMPLIED kvg:position CDATA #IMPLIED kvg:radical CDATA #IMPLIED kvg:phon CDATA #IMPLIED >
  <!ATTLIST path xmlns:kvg CDATA #FIXED "http://kanjivg.tagaini.net" kvg:type CDATA #IMPLIED >
  ]>
  <svg xmlns="http://www.w3.org/2000/svg" width="109" height="109" viewBox="0 0 109 109">
<g id="kvg:StrokePaths_056f0" style="fill:none;stroke:#000000;stroke-width:3;stroke-linecap:round;stroke-linejoin:round;">
<g id="kvg:056f0" kvg:element="困">
	<g id="kvg:056f0-g1" kvg:element="囗" kvg:part="1" kvg:position="kamae" kvg:radical="general">
		<path style="fill:none;stroke:#808080" id="kvg:056f0-s1" kvg:type="㇑" d="M19,16.82c1.03,1.03,1.61,2.81,1.61,4.41c0,11.09-0.04,49.54-0.06,68.15c0,3.7,0,6.62,0,8.38"/>
		<path style="fill:none;stroke:#808080" id="kvg:056f0-s2" kvg:type="㇕a" d="M21.23,18.65c19.15-1.9,49.27-4.77,64.02-4.9c2.75-0.02,4.5,2.24,4.5,5.25c0,12.41,0,52.9,0,69.12c0,3.56,0,5.95,0,6.62"/>
	</g>
	<g id="kvg:056f0-g2" kvg:element="木">
		<path style="fill:none;stroke-width:4;" id="kvg:056f0-s3" kvg:type="㇐" d="M30.23,40.92c1.88,0.61,4.43,0.69,6.41,0.56c8.53-0.56,25.75-2.5,36.11-3.6c1.76-0.19,3.76-0.17,5.52,0.01"/>
<circle cx="30.23" cy="40.92" r="5" style="fill:red;stroke:red;" />
	</g>
	<g id="kvg:056f0-g3" kvg:element="囗" kvg:part="2" kvg:position="kamae" kvg:radical="general">
	</g>
</g>
</g></svg>