<?xml version="1.0" encoding="UTF-8"?>
  <!DOCTYPE svg PUBLIC "-//W3C//DTD SVG 1.0//EN" "http://www.w3.org/TR/2001/REC-SVG-20010904/DTD/svg10.dtd" [
  <!ATTLIST g xmlns:kvg CDATA #FIXED "http://kanjivg.tagaini.net" kvg:element CDATA #IMPLIED kvg:variant CDATA #IMPLIED kvg:partial CDATA #IMPLIED kvg:original CDATA #IMPLIED kvg:part CDATA #IMPLIED kvg:number CDATA #IMPLIED kvg:tradForm CDATA #IMPLIED kvg:radicalForm CDATA #IMPLIED kvg:position CDATA #IMPLIED kvg:radical CDATA #IMPLIED kvg:phon CDATA #IMPLIED >
  <!ATTLIST path xmlns:kvg CDATA #FIXED "http://kanjivg.tagaini.net" kvg:type CDATA #IMPLIED >
  ]>
  <svg xmlns="http://www.w3.org/2000/svg" width="109" height="109" viewBox="0 0 109 109">
<g id="kvg:StrokePaths_05712" style="fill:none;stroke:#000000;stroke-width:3;stroke-linecap:round;stroke-linejoin:round;">
<g id="kvg:05712" kvg:element="園">
	<g id="kvg:05712-g1" kvg:element="囗" kvg:part="1" kvg:position="kamae" kvg:radical="general">
		<path style="fill:none;stroke:#808080" id="kvg:05712-s1" kvg:type="㇑" d="M18,18.79c1.29,1.29,1.61,2.94,1.61,4.78c0,12.45,0.07,46.78,0.08,66.05c0,2.27,0,4.33,0,6.12"/>
		<path style="fill:none;stroke:#808080" id="kvg:05712-s2" kvg:type="㇕a" d="M20.74,21.21c19.04-1.59,54.71-3.96,65.51-3.96c2.75,0,3.55,2.42,3.5,5.35C89.52,36.75,88.86,66.5,89.16,88c0.02,1.75,0.05,3.44,0.09,5.07"/>
	</g>
	<g id="kvg:05712-g2" kvg:element="袁" kvg:phon="袁">
		<g id="kvg:05712-g3" kvg:element="土" kvg:position="top">
			<path style="fill:none;stroke:#808080" id="kvg:05712-s3" kvg:type="㇐" d="M37.07,30.57c1.25,0.26,3.52,0.34,4.77,0.26C50.25,30.25,60,29,65.82,28.47c2.07-0.19,3.32-0.13,4.36,0"/>
			<path style="fill:none;stroke-width:4;" id="kvg:05712-s4" kvg:type="㇑a" d="M52.99,21.87c0.64,0.64,1.25,1.76,1.25,2.69c0,2.95-0.14,13.16-0.14,14.01"/>
<circle cx="52.99" cy="21.87" r="5" style="fill:red;stroke:red;" />
			<g id="kvg:05712-g4" kvg:element="衣" kvg:part="1" kvg:variant="true" kvg:partial="true">
				<g id="kvg:05712-g5" kvg:element="亠" kvg:partial="true">
				</g>
			</g>
		</g>
		<g id="kvg:05712-g6" kvg:position="bottom">
			<g id="kvg:05712-g7" kvg:element="口">
			</g>
			<g id="kvg:05712-g8" kvg:element="衣" kvg:part="2" kvg:variant="true" kvg:partial="true">
			</g>
		</g>
	</g>
	<g id="kvg:05712-g9" kvg:element="囗" kvg:part="2" kvg:position="kamae" kvg:radical="general">
	</g>
</g>
</g></svg>