<?xml version="1.0" encoding="UTF-8"?>
  <!DOCTYPE svg PUBLIC "-//W3C//DTD SVG 1.0//EN" "http://www.w3.org/TR/2001/REC-SVG-20010904/DTD/svg10.dtd" [
  <!ATTLIST g xmlns:kvg CDATA #FIXED "http://kanjivg.tagaini.net" kvg:element CDATA #IMPLIED kvg:variant CDATA #IMPLIED kvg:partial CDATA #IMPLIED kvg:original CDATA #IMPLIED kvg:part CDATA #IMPLIED kvg:number CDATA #IMPLIED kvg:tradForm CDATA #IMPLIED kvg:radicalForm CDATA #IMPLIED kvg:position CDATA #IMPLIED kvg:radical CDATA #IMPLIED kvg:phon CDATA #IMPLIED >
  <!ATTLIST path xmlns:kvg CDATA #FIXED "http://kanjivg.tagaini.net" kvg:type CDATA #IMPLIED >
  ]>
  <svg xmlns="http://www.w3.org/2000/svg" width="109" height="109" viewBox="0 0 109 109">
<g id="kvg:StrokePaths_05742" style="fill:none;stroke:#000000;stroke-width:3;stroke-linecap:round;stroke-linejoin:round;">
<g id="kvg:05742" kvg:element="坂">
	<g id="kvg:05742-g1" kvg:element="土" kvg:variant="true" kvg:position="left" kvg:radical="general">
		<path style="fill:none;stroke:#808080" id="kvg:05742-s1" kvg:type="㇐" d="M10.88,40.23c1.5,0.39,3.08,0.53,4.05,0.41c5.33-0.65,15.9-2.52,20.48-3.36c1.62-0.29,2.64-0.17,3.47-0.09"/>
		<path style="fill:none;stroke:#808080" id="kvg:05742-s2" kvg:type="㇑a" d="M25.62,18.5c0.88,0.88,1.46,2.5,1.46,3.5c0,1.02-0.08,27.75-0.08,43.25"/>
		<path style="fill:none;stroke:#808080" id="kvg:05742-s3" kvg:type="㇀/㇐" d="M11.38,72.97c1.57,0.71,3.14,0.45,4.69-0.37c1.57-0.83,14.25-8.14,20.93-12.1"/>
	</g>
	<g id="kvg:05742-g2" kvg:element="反" kvg:position="right" kvg:phon="反">
		<g id="kvg:05742-g3" kvg:element="厂">
			<path style="fill:none;stroke-width:4;" id="kvg:05742-s4" kvg:type="㇐" d="M47.75,23.49c1.79,0.13,2.63,0.31,4.19,0.17c11.37-1.09,27.32-4.14,35.75-4.36c2.6-0.07,0.67-0.04,3.57-0.04"/>
<circle cx="47.75" cy="23.49" r="5" style="fill:red;stroke:red;" />
		</g>
		<g id="kvg:05742-g4" kvg:element="又">
		</g>
	</g>
</g>
</g></svg>