<?xml version="1.0" encoding="UTF-8"?>
  <!DOCTYPE svg PUBLIC "-//W3C//DTD SVG 1.0//EN" "http://www.w3.org/TR/2001/REC-SVG-20010904/DTD/svg10.dtd" [
  <!ATTLIST g xmlns:kvg CDATA #FIXED "http://kanjivg.tagaini.net" kvg:element CDATA #IMPLIED kvg:variant CDATA #IMPLIED kvg:partial CDATA #IMPLIED kvg:original CDATA #IMPLIED kvg:part CDATA #IMPLIED kvg:number CDATA #IMPLIED kvg:tradForm CDATA #IMPLIED kvg:radicalForm CDATA #IMPLIED kvg:position CDATA #IMPLIED kvg:radical CDATA #IMPLIED kvg:phon CDATA #IMPLIED >
  <!ATTLIST path xmlns:kvg CDATA #FIXED "http://kanjivg.tagaini.net" kvg:type CDATA #IMPLIED >
  ]>
  <svg xmlns="http://www.w3.org/2000/svg" width="109" height="109" viewBox="0 0 109 109">
<g id="kvg:StrokePaths_057df" style="fill:none;stroke:#000000;stroke-width:3;stroke-linecap:round;stroke-linejoin:round;">
<g id="kvg:057df" kvg:element="域">
	<g id="kvg:057df-g1" kvg:element="土" kvg:variant="true" kvg:position="left" kvg:radical="general">
		<path style="fill:none;stroke:#808080" id="kvg:057df-s1" kvg:type="㇐" d="M11.75,42.64c1.5,0.49,3.19,0.39,4.5,0.24c5.2-0.57,13.91-2.35,18.75-3.38c1.23-0.26,2.62-0.18,3.25,0.01"/>
		<path style="fill:none;stroke:#808080" id="kvg:057df-s2" kvg:type="㇑a" d="M25.62,18.75c0.81,0.81,1.21,2.23,1.21,3.25c0,7.25,0.03,36.5,0.03,47.25"/>
		<path style="fill:none;stroke:#808080" id="kvg:057df-s3" kvg:type="㇀/㇐" d="M13.17,77.74c0.83,0.48,2.37,0.51,3.89-0.69C22.7,72.61,32.36,64.94,38,60.5"/>
	</g>
	<g id="kvg:057df-g2" kvg:element="或" kvg:position="right" kvg:phon="或">
		<g id="kvg:057df-g3" kvg:element="戈" kvg:part="1">
			<g id="kvg:057df-g4" kvg:element="弋" kvg:part="1">
				<path style="fill:none;stroke:#808080" id="kvg:057df-s4" kvg:type="㇐" d="M41.76,33.93c2.49,0.32,4.7,0.06,6.75-0.31c8.67-1.57,24.97-4.46,32.75-4.94c1.6-0.1,2.56,0.19,3.37,0.39"/>
			</g>
		</g>
		<g id="kvg:057df-g5" kvg:element="口">
			<path style="fill:none;stroke-width:4;" id="kvg:057df-s5" kvg:type="㇑" d="M41.46,47.28c0.69,0.69,1.04,1.6,1.15,2.6c0.35,2.99,1.1,7.42,1.63,11.34c0.15,1.11,0.3,2.15,0.44,3.08"/>
<circle cx="41.46" cy="47.28" r="5" style="fill:red;stroke:red;" />
		</g>
		<g id="kvg:057df-g6" kvg:element="一">
		</g>
		<g id="kvg:057df-g7" kvg:element="戈" kvg:part="2">
			<g id="kvg:057df-g8" kvg:element="弋" kvg:part="2">
			</g>
			<g id="kvg:057df-g9" kvg:element="丿">
			</g>
			<g id="kvg:057df-g10" kvg:element="弋" kvg:part="3">
				<g id="kvg:057df-g11" kvg:element="丶">
				</g>
			</g>
		</g>
	</g>
</g>
</g></svg>