<?xml version="1.0" encoding="UTF-8"?>
  <!DOCTYPE svg PUBLIC "-//W3C//DTD SVG 1.0//EN" "http://www.w3.org/TR/2001/REC-SVG-20010904/DTD/svg10.dtd" [
  <!ATTLIST g xmlns:kvg CDATA #FIXED "http://kanjivg.tagaini.net" kvg:element CDATA #IMPLIED kvg:variant CDATA #IMPLIED kvg:partial CDATA #IMPLIED kvg:original CDATA #IMPLIED kvg:part CDATA #IMPLIED kvg:number CDATA #IMPLIED kvg:tradForm CDATA #IMPLIED kvg:radicalForm CDATA #IMPLIED kvg:position CDATA #IMPLIED kvg:radical CDATA #IMPLIED kvg:phon CDATA #IMPLIED >
  <!ATTLIST path xmlns:kvg CDATA #FIXED "http://kanjivg.tagaini.net" kvg:type CDATA #IMPLIED >
  ]>
  <svg xmlns="http://www.w3.org/2000/svg" width="109" height="109" viewBox="0 0 109 109">
<g id="kvg:StrokePaths_057fc" style="fill:none;stroke:#000000;stroke-width:3;stroke-linecap:round;stroke-linejoin:round;">
<g id="kvg:057fc" kvg:element="埼">
	<g id="kvg:057fc-g1" kvg:element="土" kvg:variant="true" kvg:position="left" kvg:radical="general">
		<path style="fill:none;stroke:#808080" id="kvg:057fc-s1" kvg:type="㇐" d="M11.5,38.64c2.33,0.43,4.66,0.48,7,0.13c4.83-0.84,11.73-2.2,16.25-2.86c1.49-0.25,2.98-0.3,4.49-0.15"/>
		<path style="fill:none;stroke:#808080" id="kvg:057fc-s2" kvg:type="㇑a" d="M25.37,15.25c0.94,0.94,1.21,2.25,1.21,3.75c0,3,0.03,38.88,0.03,46.25"/>
		<path style="fill:none;stroke:#808080" id="kvg:057fc-s3" kvg:type="㇀/㇐" d="M11.75,73.28c1.75,0.97,3.15,0.86,5.54-0.74c6.65-4.46,12.81-8.34,19.46-12.8"/>
	</g>
	<g id="kvg:057fc-g2" kvg:element="奇" kvg:position="right">
		<g id="kvg:057fc-g3" kvg:element="大" kvg:variant="true" kvg:position="top">
			<path style="fill:none;stroke-width:4;" id="kvg:057fc-s4" kvg:type="㇐" d="M48.27,22.3c2.11,0.41,4.24,0.43,6.37,0.05c7.04-0.55,16.83-2.02,23.89-2.75c2.31-0.28,4.64-0.25,6.97,0.1"/>
<circle cx="48.27" cy="22.3" r="5" style="fill:red;stroke:red;" />
		</g>
		<g id="kvg:057fc-g4" kvg:element="可" kvg:position="bottom">
			<g id="kvg:057fc-g5" kvg:element="丁" kvg:part="1">
				<g id="kvg:057fc-g6" kvg:element="一">
				</g>
			</g>
			<g id="kvg:057fc-g7" kvg:element="口">
			</g>
			<g id="kvg:057fc-g8" kvg:element="丁" kvg:part="2">
				<g id="kvg:057fc-g9" kvg:element="亅">
				</g>
			</g>
		</g>
	</g>
</g>
</g></svg>