<?xml version="1.0" encoding="UTF-8"?>
  <!DOCTYPE svg PUBLIC "-//W3C//DTD SVG 1.0//EN" "http://www.w3.org/TR/2001/REC-SVG-20010904/DTD/svg10.dtd" [
  <!ATTLIST g xmlns:kvg CDATA #FIXED "http://kanjivg.tagaini.net" kvg:element CDATA #IMPLIED kvg:variant CDATA #IMPLIED kvg:partial CDATA #IMPLIED kvg:original CDATA #IMPLIED kvg:part CDATA #IMPLIED kvg:number CDATA #IMPLIED kvg:tradForm CDATA #IMPLIED kvg:radicalForm CDATA #IMPLIED kvg:position CDATA #IMPLIED kvg:radical CDATA #IMPLIED kvg:phon CDATA #IMPLIED >
  <!ATTLIST path xmlns:kvg CDATA #FIXED "http://kanjivg.tagaini.net" kvg:type CDATA #IMPLIED >
  ]>
  <svg xmlns="http://www.w3.org/2000/svg" width="109" height="109" viewBox="0 0 109 109">
<g id="kvg:StrokePaths_057fa" style="fill:none;stroke:#000000;stroke-width:3;stroke-linecap:round;stroke-linejoin:round;">
<g id="kvg:057fa" kvg:element="基">
	<g id="kvg:057fa-g1" kvg:element="其" kvg:position="top" kvg:phon="其">
		<g id="kvg:057fa-g2" kvg:position="top">
			<g id="kvg:057fa-g3" kvg:element="甘">
				<g id="kvg:057fa-g4" kvg:element="廿" kvg:part="1">
					<g id="kvg:057fa-g5" kvg:element="十">
						<path style="fill:none;stroke:#808080" id="kvg:057fa-s1" kvg:type="㇐" d="M24.68,24.71c2.95,0.54,6.74,0.27,9.52,0c12.05-1.21,28.8-2.99,41.31-3.44c2.52-0.09,4.82,0.06,7.32,0.43"/>
						<path style="fill:none;stroke:#808080" id="kvg:057fa-s2" kvg:type="㇑a" d="M39.61,13.27c0.87,0.87,1.31,2.23,1.31,3.45c0,0.78,0.7,29.53,0.8,38.47"/>
					</g>
					<path style="fill:none;stroke:#808080" id="kvg:057fa-s3" kvg:type="㇑a" d="M64.08,11.25c0.9,0.9,1.3,2.17,1.31,2.95c0.11,6.8-0.27,30.3-0.45,39.23"/>
				</g>
				<path style="fill:none;stroke:#808080" id="kvg:057fa-s4" kvg:type="㇐a" d="M42.6,34.7c3.7-0.19,17.79-1.64,21.26-1.82"/>
				<g id="kvg:057fa-g6" kvg:element="廿" kvg:part="2">
					<path style="fill:none;stroke:#808080" id="kvg:057fa-s5" kvg:type="㇐a" d="M42.83,45.26c6.42-0.76,16.19-1.45,21.05-1.82"/>
				</g>
			</g>
			<path style="fill:none;stroke:#808080" id="kvg:057fa-s6" kvg:type="㇐" d="M17.4,57.35c3.97,0.77,7.2,0.52,10.96,0.12c12.9-1.37,38.85-3.48,53.02-4.19c3.35-0.17,6.91-0.15,10.22,0.43"/>
		</g>
		<g id="kvg:057fa-g7" kvg:element="八" kvg:position="bottom">
			<path style="fill:none;stroke-width:4;" id="kvg:057fa-s7" kvg:type="㇒" d="M40.72,56.75c0.28,0.62,0.19,1.71-0.34,2.57C36.25,66,27.75,75.5,15.25,81"/>
<circle cx="40.72" cy="56.75" r="5" style="fill:red;stroke:red;" />
		</g>
	</g>
	<g id="kvg:057fa-g8" kvg:element="土" kvg:position="bottom" kvg:radical="general">
	</g>
</g>
</g></svg>