<?xml version="1.0" encoding="UTF-8"?>
  <!DOCTYPE svg PUBLIC "-//W3C//DTD SVG 1.0//EN" "http://www.w3.org/TR/2001/REC-SVG-20010904/DTD/svg10.dtd" [
  <!ATTLIST g xmlns:kvg CDATA #FIXED "http://kanjivg.tagaini.net" kvg:element CDATA #IMPLIED kvg:variant CDATA #IMPLIED kvg:partial CDATA #IMPLIED kvg:original CDATA #IMPLIED kvg:part CDATA #IMPLIED kvg:number CDATA #IMPLIED kvg:tradForm CDATA #IMPLIED kvg:radicalForm CDATA #IMPLIED kvg:position CDATA #IMPLIED kvg:radical CDATA #IMPLIED kvg:phon CDATA #IMPLIED >
  <!ATTLIST path xmlns:kvg CDATA #FIXED "http://kanjivg.tagaini.net" kvg:type CDATA #IMPLIED >
  ]>
  <svg xmlns="http://www.w3.org/2000/svg" width="109" height="109" viewBox="0 0 109 109">
<g id="kvg:StrokePaths_05802" style="fill:none;stroke:#000000;stroke-width:3;stroke-linecap:round;stroke-linejoin:round;">
<g id="kvg:05802" kvg:element="堂">
	<g id="kvg:05802-g1" kvg:element="尚" kvg:variant="true" kvg:position="top" kvg:phon="尚">
		<g id="kvg:05802-g2" kvg:element="⺌" kvg:variant="true" kvg:original="小" kvg:position="top" kvg:radical="nelson">
			<path style="fill:none;stroke:#808080" id="kvg:05802-s1" kvg:type="㇑a" d="M52.32,12.62c1.16,1.16,1.6,2.38,1.6,4.47c0,10.17-0.03,14.57-0.03,17.46"/>
			<path style="fill:none;stroke:#808080" id="kvg:05802-s2" kvg:type="㇔" d="M29.76,19.47c3.25,1.79,8.4,7.34,9.22,10.12"/>
			<path style="fill:none;stroke:#808080" id="kvg:05802-s3" kvg:type="㇒" d="M75.99,15.04c0.03,0.32,0.11,0.85-0.05,1.3c-1.31,3.54-3.68,6.91-8.81,11.19"/>
		</g>
		<g id="kvg:05802-g3" kvg:position="bottom">
			<g id="kvg:05802-g4" kvg:element="冂" kvg:variant="true">
				<path style="fill:none;stroke:#808080" id="kvg:05802-s4" kvg:type="㇔" d="M18.62,35.75c-0.15,4.6-2.64,15.39-3.86,18.14"/>
				<path style="fill:none;stroke-width:4;" id="kvg:05802-s5" kvg:type="㇖b" d="M19.46,38.84c18.41-2.09,48.34-4.83,66.18-5.46c10.6-0.37,0.97,8.03-0.7,9.39"/>
<circle cx="19.46" cy="38.84" r="5" style="fill:red;stroke:red;" />
			</g>
			<g id="kvg:05802-g5" kvg:element="口">
			</g>
		</g>
	</g>
	<g id="kvg:05802-g6" kvg:element="土" kvg:position="bottom" kvg:radical="tradit">
	</g>
</g>
</g></svg>