<?xml version="1.0" encoding="UTF-8"?>
  <!DOCTYPE svg PUBLIC "-//W3C//DTD SVG 1.0//EN" "http://www.w3.org/TR/2001/REC-SVG-20010904/DTD/svg10.dtd" [
  <!ATTLIST g xmlns:kvg CDATA #FIXED "http://kanjivg.tagaini.net" kvg:element CDATA #IMPLIED kvg:variant CDATA #IMPLIED kvg:partial CDATA #IMPLIED kvg:original CDATA #IMPLIED kvg:part CDATA #IMPLIED kvg:number CDATA #IMPLIED kvg:tradForm CDATA #IMPLIED kvg:radicalForm CDATA #IMPLIED kvg:position CDATA #IMPLIED kvg:radical CDATA #IMPLIED kvg:phon CDATA #IMPLIED >
  <!ATTLIST path xmlns:kvg CDATA #FIXED "http://kanjivg.tagaini.net" kvg:type CDATA #IMPLIED >
  ]>
  <svg xmlns="http://www.w3.org/2000/svg" width="109" height="109" viewBox="0 0 109 109">
<g id="kvg:StrokePaths_05831" style="fill:none;stroke:#000000;stroke-width:3;stroke-linecap:round;stroke-linejoin:round;">
<g id="kvg:05831" kvg:element="報">
	<g id="kvg:05831-g1" kvg:element="幸" kvg:position="left">
		<g id="kvg:05831-g2" kvg:element="土" kvg:position="top" kvg:radical="general">
			<path style="fill:none;stroke:#808080" id="kvg:05831-s1" kvg:type="㇐" d="M16.81,25.55c1.09,0.55,3.4,0.59,4.57,0.48c5.06-0.51,13.83-1.57,19.12-2.06c1.56-0.14,3.51-0.51,5.03-0.05"/>
			<path style="fill:none;stroke:#808080" id="kvg:05831-s2" kvg:type="㇑a" d="M31.18,11.5c0.66,0.66,1.1,1.88,1.1,3.14c0,12.11,0.1,20.32,0.1,23.36"/>
			<path style="fill:none;stroke:#808080" id="kvg:05831-s3" kvg:type="㇐" d="M9.88,41.36c2.12,0.39,4.35,0.39,6.25,0.05c10.12-1.79,21.31-3.27,28.87-4.06c1.96-0.2,3.95-0.44,5.88,0.1"/>
		</g>
		<g id="kvg:05831-g3" kvg:element="𢆉">
			<g id="kvg:05831-g4" kvg:element="䒑" kvg:part="1">
				<path style="fill:none;stroke-width:4;" id="kvg:05831-s4" kvg:type="㇔" d="M20.26,46.08c1.81,1.44,4.69,5.9,5.14,8.13"/>
<circle cx="20.26" cy="46.08" r="5" style="fill:red;stroke:red;" />
			</g>
			<g id="kvg:05831-g5" kvg:element="干" kvg:position="bottom">
				<g id="kvg:05831-g6" kvg:element="䒑" kvg:part="2">
				</g>
				<g id="kvg:05831-g7" kvg:element="十">
				</g>
			</g>
		</g>
	</g>
	<g id="kvg:05831-g8" kvg:position="right">
		<g id="kvg:05831-g9" kvg:element="卩">
		</g>
		<g id="kvg:05831-g10" kvg:element="又">
		</g>
	</g>
</g>
</g></svg>