<?xml version="1.0" encoding="UTF-8"?>
  <!DOCTYPE svg PUBLIC "-//W3C//DTD SVG 1.0//EN" "http://www.w3.org/TR/2001/REC-SVG-20010904/DTD/svg10.dtd" [
  <!ATTLIST g xmlns:kvg CDATA #FIXED "http://kanjivg.tagaini.net" kvg:element CDATA #IMPLIED kvg:variant CDATA #IMPLIED kvg:partial CDATA #IMPLIED kvg:original CDATA #IMPLIED kvg:part CDATA #IMPLIED kvg:number CDATA #IMPLIED kvg:tradForm CDATA #IMPLIED kvg:radicalForm CDATA #IMPLIED kvg:position CDATA #IMPLIED kvg:radical CDATA #IMPLIED kvg:phon CDATA #IMPLIED >
  <!ATTLIST path xmlns:kvg CDATA #FIXED "http://kanjivg.tagaini.net" kvg:type CDATA #IMPLIED >
  ]>
  <svg xmlns="http://www.w3.org/2000/svg" width="109" height="109" viewBox="0 0 109 109">
<g id="kvg:StrokePaths_05834" style="fill:none;stroke:#000000;stroke-width:3;stroke-linecap:round;stroke-linejoin:round;">
<g id="kvg:05834" kvg:element="場">
	<g id="kvg:05834-g1" kvg:element="土" kvg:variant="true" kvg:position="left" kvg:radical="general">
		<path style="fill:none;stroke:#808080" id="kvg:05834-s1" kvg:type="㇐" d="M14.75,41.17c1.33,0.52,2.75,0.44,4.13,0.29c5.78-0.62,11.92-2.14,17.63-3.21c1.58-0.3,3.33-0.32,4.14-0.13"/>
		<path style="fill:none;stroke:#808080" id="kvg:05834-s2" kvg:type="㇑a" d="M27.8,19.37c1.17,1.17,1.52,2.52,1.52,4.39c0,9.54-0.07,36.54-0.07,38.25"/>
		<path style="fill:none;stroke:#808080" id="kvg:05834-s3" kvg:type="㇀/㇐" d="M13.5,68.6c1.75,1.4,3.14,1.36,5.67-0.05c1.49-0.84,15-7.27,21.33-11.29"/>
	</g>
	<g id="kvg:05834-g2" kvg:element="昜" kvg:position="right" kvg:phon="昜">
		<g id="kvg:05834-g3" kvg:element="旦">
			<g id="kvg:05834-g4" kvg:element="日">
				<path style="fill:none;stroke-width:4;" id="kvg:05834-s4" kvg:type="㇑" d="M51,13.5c0.88,0.88,1.37,1.62,1.59,3.24c0.72,5.29,1.08,10.35,2.23,19.5c0.13,1,0.26,2.05,0.41,3.15"/>
<circle cx="51" cy="13.5" r="5" style="fill:red;stroke:red;" />
			</g>
			<g id="kvg:05834-g5" kvg:element="一">
			</g>
		</g>
		<g id="kvg:05834-g6" kvg:element="勿">
			<g id="kvg:05834-g7" kvg:element="勹">
			</g>
		</g>
	</g>
</g>
</g></svg>