<?xml version="1.0" encoding="UTF-8"?>
  <!DOCTYPE svg PUBLIC "-//W3C//DTD SVG 1.0//EN" "http://www.w3.org/TR/2001/REC-SVG-20010904/DTD/svg10.dtd" [
  <!ATTLIST g xmlns:kvg CDATA #FIXED "http://kanjivg.tagaini.net" kvg:element CDATA #IMPLIED kvg:variant CDATA #IMPLIED kvg:partial CDATA #IMPLIED kvg:original CDATA #IMPLIED kvg:part CDATA #IMPLIED kvg:number CDATA #IMPLIED kvg:tradForm CDATA #IMPLIED kvg:radicalForm CDATA #IMPLIED kvg:position CDATA #IMPLIED kvg:radical CDATA #IMPLIED kvg:phon CDATA #IMPLIED >
  <!ATTLIST path xmlns:kvg CDATA #FIXED "http://kanjivg.tagaini.net" kvg:type CDATA #IMPLIED >
  ]>
  <svg xmlns="http://www.w3.org/2000/svg" width="109" height="109" viewBox="0 0 109 109">
<g id="kvg:StrokePaths_05869" style="fill:none;stroke:#000000;stroke-width:3;stroke-linecap:round;stroke-linejoin:round;">
<g id="kvg:05869" kvg:element="塩">
	<g id="kvg:05869-g1" kvg:element="土" kvg:variant="true" kvg:position="left" kvg:radical="general">
		<path style="fill:none;stroke:#808080" id="kvg:05869-s1" kvg:type="㇐" d="M11.78,46.69c1.47,0.31,2.02,0.17,3.52,0.06c7.08-0.5,14.7-2.5,19.9-3.25c1.48-0.21,2.43-0.38,3.3-0.25"/>
		<path style="fill:none;stroke:#808080" id="kvg:05869-s2" kvg:type="㇑a" d="M24.87,22.75c0.75,0.75,1.46,2.23,1.46,3.25c0,3.38,0.03,36.5,0.03,44.5"/>
		<path style="fill:none;stroke:#808080" id="kvg:05869-s3" kvg:type="㇀/㇐" d="M12.95,77.5c1.66,0.66,3.26,0.62,5.06-0.5c1.64-1.02,12.77-8.58,19.74-13.5"/>
	</g>
	<g id="kvg:05869-g2" kvg:position="right" kvg:phon="監V">
		<g id="kvg:05869-g3" kvg:element="𠂉">
			<path style="fill:none;stroke:#808080" id="kvg:05869-s4" kvg:type="㇒" d="M53.51,15.14c0.04,0.62,0.09,1.6-0.08,2.48c-0.81,4.17-4.7,12.3-10.3,19"/>
			<path style="fill:none;stroke:#808080" id="kvg:05869-s5" kvg:type="㇐" d="M53.5,27.39c1.12,0.36,2.42,0.26,3.35,0.13c6.4-0.9,16.53-2.65,26.61-4.63c1.54-0.3,2.5-0.07,3.29,0.12"/>
		</g>
		<g id="kvg:05869-g4" kvg:element="口">
			<path style="fill:none;stroke-width:4;" id="kvg:05869-s6" kvg:type="㇑" d="M51,38.91c0.77,0.58,1.37,1.86,1.32,2.83c0.63,3.56,0.83,6.55,1.41,10.89c0.13,0.98,0.27,2.01,0.42,3.09"/>
<circle cx="51" cy="38.91" r="5" style="fill:red;stroke:red;" />
		</g>
		<g id="kvg:05869-g5" kvg:element="皿">
		</g>
	</g>
</g>
</g></svg>