<?xml version="1.0" encoding="UTF-8"?>
  <!DOCTYPE svg PUBLIC "-//W3C//DTD SVG 1.0//EN" "http://www.w3.org/TR/2001/REC-SVG-20010904/DTD/svg10.dtd" [
  <!ATTLIST g xmlns:kvg CDATA #FIXED "http://kanjivg.tagaini.net" kvg:element CDATA #IMPLIED kvg:variant CDATA #IMPLIED kvg:partial CDATA #IMPLIED kvg:original CDATA #IMPLIED kvg:part CDATA #IMPLIED kvg:number CDATA #IMPLIED kvg:tradForm CDATA #IMPLIED kvg:radicalForm CDATA #IMPLIED kvg:position CDATA #IMPLIED kvg:radical CDATA #IMPLIED kvg:phon CDATA #IMPLIED >
  <!ATTLIST path xmlns:kvg CDATA #FIXED "http://kanjivg.tagaini.net" kvg:type CDATA #IMPLIED >
  ]>
  <svg xmlns="http://www.w3.org/2000/svg" width="109" height="109" viewBox="0 0 109 109">
<g id="kvg:StrokePaths_05883" style="fill:none;stroke:#000000;stroke-width:3;stroke-linecap:round;stroke-linejoin:round;">
<g id="kvg:05883" kvg:element="境">
	<g id="kvg:05883-g1" kvg:element="土" kvg:variant="true" kvg:position="left" kvg:radical="general">
		<path style="fill:none;stroke:#808080" id="kvg:05883-s1" kvg:type="㇐" d="M13.25,39.89c1.62,0.36,3.04,0.41,4.48,0.22c5.32-0.67,12.3-1.45,18.11-2.61c1.39-0.28,2.95-0.43,3.66-0.24"/>
		<path style="fill:none;stroke:#808080" id="kvg:05883-s2" kvg:type="㇑a" d="M26.37,16.25c0.94,0.94,1.46,2.38,1.46,3.75c0,7.25,0.03,36,0.03,46.75"/>
		<path style="fill:none;stroke:#808080" id="kvg:05883-s3" kvg:type="㇀/㇐" d="M12.5,73.79c0.75,0.96,2.25,1.46,4.5,0.21c6.25-3.5,17.5-9.75,23.75-13.25"/>
	</g>
	<g id="kvg:05883-g2" kvg:element="竟" kvg:position="right" kvg:phon="竟">
		<g id="kvg:05883-g3" kvg:element="立" kvg:position="top">
			<g id="kvg:05883-g4" kvg:element="音" kvg:part="1">
				<g id="kvg:05883-g5" kvg:element="亠" kvg:position="top">
					<path style="fill:none;stroke-width:4;" id="kvg:05883-s4" kvg:type="㇑a" d="M63.69,11.15c0.77,0.77,1.41,1.73,1.41,2.95c0,2.7-0.07,5.78-0.07,8.32"/>
<circle cx="63.69" cy="11.15" r="5" style="fill:red;stroke:red;" />
				</g>
				<g id="kvg:05883-g6" kvg:position="bottom">
				</g>
			</g>
		</g>
		<g id="kvg:05883-g7" kvg:position="bottom">
			<g id="kvg:05883-g8" kvg:element="音" kvg:part="2">
				<g id="kvg:05883-g9" kvg:element="日">
				</g>
			</g>
			<g id="kvg:05883-g10" kvg:element="儿">
				<g id="kvg:05883-g11" kvg:element="丿" kvg:position="left">
				</g>
				<g id="kvg:05883-g12" kvg:position="right">
				</g>
			</g>
		</g>
	</g>
</g>
</g></svg>