<?xml version="1.0" encoding="UTF-8"?>
  <!DOCTYPE svg PUBLIC "-//W3C//DTD SVG 1.0//EN" "http://www.w3.org/TR/2001/REC-SVG-20010904/DTD/svg10.dtd" [
  <!ATTLIST g xmlns:kvg CDATA #FIXED "http://kanjivg.tagaini.net" kvg:element CDATA #IMPLIED kvg:variant CDATA #IMPLIED kvg:partial CDATA #IMPLIED kvg:original CDATA #IMPLIED kvg:part CDATA #IMPLIED kvg:number CDATA #IMPLIED kvg:tradForm CDATA #IMPLIED kvg:radicalForm CDATA #IMPLIED kvg:position CDATA #IMPLIED kvg:radical CDATA #IMPLIED kvg:phon CDATA #IMPLIED >
  <!ATTLIST path xmlns:kvg CDATA #FIXED "http://kanjivg.tagaini.net" kvg:type CDATA #IMPLIED >
  ]>
  <svg xmlns="http://www.w3.org/2000/svg" width="109" height="109" viewBox="0 0 109 109">
<g id="kvg:StrokePaths_058f2" style="fill:none;stroke:#000000;stroke-width:3;stroke-linecap:round;stroke-linejoin:round;">
<g id="kvg:058f2" kvg:element="売">
	<g id="kvg:058f2-g1" kvg:element="士" kvg:variant="true" kvg:original="土" kvg:position="top" kvg:radical="general">
		<path style="fill:none;stroke:#808080" id="kvg:058f2-s1" kvg:type="㇐" d="M28.63,24.35c1.4,0.29,2.87,0.9,5.36,0.79C44.78,24.68,60,22.5,72.74,21.61c2.32-0.16,3.97-0.11,5.14,0.04"/>
		<path style="fill:none;stroke:#808080" id="kvg:058f2-s2" kvg:type="㇑a" d="M52.42,9.25c1.1,1.1,1.93,2.75,1.93,4.52c0,6.51-0.05,16.19-0.05,23.58"/>
		<path style="fill:none;stroke:#808080" id="kvg:058f2-s3" kvg:type="㇐" d="M31.98,38.99c2.15,0.51,4.46,0.83,6.03,0.68c8.25-0.77,20.27-2.27,31.74-3.54c2.41-0.26,4.62-0.4,7.01-0.23"/>
	</g>
	<g id="kvg:058f2-g2" kvg:position="bottom" kvg:phon="買V">
		<g id="kvg:058f2-g3" kvg:element="冖">
			<path style="fill:none;stroke-width:4;" id="kvg:058f2-s4" kvg:type="㇔" d="M18.62,52.5c-0.15,3.86-3.63,14.45-4.88,16.75"/>
<circle cx="18.62" cy="52.5" r="5" style="fill:red;stroke:red;" />
		</g>
		<g id="kvg:058f2-g4" kvg:element="儿" kvg:original="八">
			<g id="kvg:058f2-g5" kvg:element="丿">
			</g>
		</g>
	</g>
</g>
</g></svg>