<?xml version="1.0" encoding="UTF-8"?>
  <!DOCTYPE svg PUBLIC "-//W3C//DTD SVG 1.0//EN" "http://www.w3.org/TR/2001/REC-SVG-20010904/DTD/svg10.dtd" [
  <!ATTLIST g xmlns:kvg CDATA #FIXED "http://kanjivg.tagaini.net" kvg:element CDATA #IMPLIED kvg:variant CDATA #IMPLIED kvg:partial CDATA #IMPLIED kvg:original CDATA #IMPLIED kvg:part CDATA #IMPLIED kvg:number CDATA #IMPLIED kvg:tradForm CDATA #IMPLIED kvg:radicalForm CDATA #IMPLIED kvg:position CDATA #IMPLIED kvg:radical CDATA #IMPLIED kvg:phon CDATA #IMPLIED >
  <!ATTLIST path xmlns:kvg CDATA #FIXED "http://kanjivg.tagaini.net" kvg:type CDATA #IMPLIED >
  ]>
  <svg xmlns="http://www.w3.org/2000/svg" width="109" height="109" viewBox="0 0 109 109">
<g id="kvg:StrokePaths_05909" style="fill:none;stroke:#000000;stroke-width:3;stroke-linecap:round;stroke-linejoin:round;">
<g id="kvg:05909" kvg:element="変">
	<g id="kvg:05909-g1" kvg:element="亦" kvg:position="top">
		<g id="kvg:05909-g2" kvg:element="亠" kvg:position="top" kvg:radical="nelson">
			<path style="fill:none;stroke:#808080" id="kvg:05909-s1" kvg:type="㇑a" d="M52.66,9.5c0.92,0.92,1.45,2.38,1.45,3.89c0,3.35-0.13,5.74-0.13,8.29"/>
			<path style="fill:none;stroke:#808080" id="kvg:05909-s2" kvg:type="㇐" d="M20.95,24.73c2.69,0.52,6.82,0.38,8.83,0.16c17.81-1.89,36.83-3.93,53.73-4.3c3.42-0.07,5.17,0.04,7.72,0.53"/>
		</g>
		<g id="kvg:05909-g3" kvg:position="bottom">
			<g id="kvg:05909-g4" kvg:element="丿">
				<path style="fill:none;stroke:#808080" id="kvg:05909-s3" kvg:type="㇒" d="M45.24,26.87c0.5,0.88,0.64,2.09,0.46,3.17C44.25,38.38,40.75,51,30.35,58.25"/>
			</g>
			<g id="kvg:05909-g5" kvg:element="亅">
				<path style="fill:none;stroke:#808080" id="kvg:05909-s4" kvg:type="㇚" d="M60.62,23.65c0.99,0.99,1.34,2.23,1.34,3.78c0,3.32,0.02,14.9,0.02,18.64c0,7.83-5.53,1.38-6.89,0.44"/>
			</g>
			<path style="fill:none;stroke-width:4;" id="kvg:05909-s5" kvg:type="㇒" d="M31.36,34.32c0.02,0.8-0.01,1.64-0.33,2.22c-2.44,4.46-7,10.42-13.78,15.96"/>
<circle cx="31.36" cy="34.32" r="5" style="fill:red;stroke:red;" />
		</g>
	</g>
	<g id="kvg:05909-g6" kvg:element="夂" kvg:position="bottom" kvg:radical="tradit">
	</g>
</g>
</g></svg>