<?xml version="1.0" encoding="UTF-8"?>
  <!DOCTYPE svg PUBLIC "-//W3C//DTD SVG 1.0//EN" "http://www.w3.org/TR/2001/REC-SVG-20010904/DTD/svg10.dtd" [
  <!ATTLIST g xmlns:kvg CDATA #FIXED "http://kanjivg.tagaini.net" kvg:element CDATA #IMPLIED kvg:variant CDATA #IMPLIED kvg:partial CDATA #IMPLIED kvg:original CDATA #IMPLIED kvg:part CDATA #IMPLIED kvg:number CDATA #IMPLIED kvg:tradForm CDATA #IMPLIED kvg:radicalForm CDATA #IMPLIED kvg:position CDATA #IMPLIED kvg:radical CDATA #IMPLIED kvg:phon CDATA #IMPLIED >
  <!ATTLIST path xmlns:kvg CDATA #FIXED "http://kanjivg.tagaini.net" kvg:type CDATA #IMPLIED >
  ]>
  <svg xmlns="http://www.w3.org/2000/svg" width="109" height="109" viewBox="0 0 109 109">
<g id="kvg:StrokePaths_05922" style="fill:none;stroke:#000000;stroke-width:3;stroke-linecap:round;stroke-linejoin:round;">
<g id="kvg:05922" kvg:element="夢">
	<g id="kvg:05922-g1" kvg:position="top">
		<g id="kvg:05922-g2" kvg:element="艹" kvg:variant="true" kvg:original="艸" kvg:radical="nelson">
			<path style="fill:none;stroke:#808080" id="kvg:05922-s1" kvg:type="㇐" d="M24.28,21.48c1.77,0.72,4.35,0.71,6.23,0.51c12.23-1.36,34.88-3.62,47.86-4.25c2.7-0.13,5.44-0.32,8.09,0.33"/>
			<path style="fill:none;stroke:#808080" id="kvg:05922-s2" kvg:type="㇑a" d="M39.8,11.62c0.79,0.79,1.45,1.78,1.61,2.38c1.48,5.64,2.74,11.45,3.16,13.5"/>
			<path style="fill:none;stroke:#808080" id="kvg:05922-s3" kvg:type="㇑a" d="M69.48,10c0.52,0.75,0.62,1.89,0.32,2.87c-1.76,5.76-2.31,7.39-4.23,12.8"/>
		</g>
		<g id="kvg:05922-g3" kvg:element="罒" kvg:variant="true" kvg:original="网">
			<path style="fill:none;stroke:#808080" id="kvg:05922-s4" kvg:type="㇑" d="M29,32.96c1,0.67,1.12,1.81,1.31,2.52c0.81,3.02,1.47,5.3,2.08,8.24c0.28,1.33,0.52,2.62,0.69,3.75"/>
			<path style="fill:none;stroke:#808080" id="kvg:05922-s5" kvg:type="㇕a" d="M31.04,34.63c13.83-1.51,38.46-3.88,49.82-4.64c2.1-0.14,4.14,1.01,3.32,3.87c-0.53,1.86-1.02,3.79-1.97,6.46c-0.57,1.62-0.95,2.49-1.59,3.94"/>
			<path style="fill:none;stroke-width:4;" id="kvg:05922-s6" kvg:type="㇑a" d="M47.31,33.75c0.66,0.66,1.19,1.35,1.41,2.75c0.48,3.05,0.95,5.72,1.08,7.03"/>
<circle cx="47.31" cy="33.75" r="5" style="fill:red;stroke:red;" />
		</g>
		<g id="kvg:05922-g4" kvg:element="冖">
		</g>
	</g>
	<g id="kvg:05922-g5" kvg:element="夕" kvg:position="bottom" kvg:radical="tradit">
	</g>
</g>
</g></svg>