<?xml version="1.0" encoding="UTF-8"?>
  <!DOCTYPE svg PUBLIC "-//W3C//DTD SVG 1.0//EN" "http://www.w3.org/TR/2001/REC-SVG-20010904/DTD/svg10.dtd" [
  <!ATTLIST g xmlns:kvg CDATA #FIXED "http://kanjivg.tagaini.net" kvg:element CDATA #IMPLIED kvg:variant CDATA #IMPLIED kvg:partial CDATA #IMPLIED kvg:original CDATA #IMPLIED kvg:part CDATA #IMPLIED kvg:number CDATA #IMPLIED kvg:tradForm CDATA #IMPLIED kvg:radicalForm CDATA #IMPLIED kvg:position CDATA #IMPLIED kvg:radical CDATA #IMPLIED kvg:phon CDATA #IMPLIED >
  <!ATTLIST path xmlns:kvg CDATA #FIXED "http://kanjivg.tagaini.net" kvg:type CDATA #IMPLIED >
  ]>
  <svg xmlns="http://www.w3.org/2000/svg" width="109" height="109" viewBox="0 0 109 109">
<g id="kvg:StrokePaths_0594f" style="fill:none;stroke:#000000;stroke-width:3;stroke-linecap:round;stroke-linejoin:round;">
<g id="kvg:0594f" kvg:element="奏">
	<g id="kvg:0594f-g1" kvg:element="𡗗" kvg:position="top">
		<g id="kvg:0594f-g2" kvg:element="三">
			<g id="kvg:0594f-g3" kvg:element="一">
				<path style="fill:none;stroke:#808080" id="kvg:0594f-s1" kvg:type="㇐" d="M29.81,22.95c1.92,0.68,4.58,0.43,6.57,0.2c10.8-1.25,19.25-2.65,31-3.82c2.34-0.23,4.76-0.35,7.08,0.14"/>
			</g>
			<g id="kvg:0594f-g4" kvg:element="一">
				<path style="fill:none;stroke:#808080" id="kvg:0594f-s2" kvg:type="㇐" d="M29.75,34.56c1.97,0.78,4.6,0.31,6.62,0.11C44.58,33.85,56,32,67.38,30.75c2.35-0.26,4.7-0.55,7.03,0"/>
			</g>
			<g id="kvg:0594f-g5" kvg:element="一">
				<path style="fill:none;stroke:#808080" id="kvg:0594f-s3" kvg:type="㇐" d="M20.38,47.3c3,0.58,5.34,0.39,7.89,0.03c14.98-2.08,31.35-3.83,49.35-5.09c2.91-0.2,5.64-0.33,8.5,0.27"/>
			</g>
		</g>
		<g id="kvg:0594f-g6" kvg:element="人">
			<path style="fill:none;stroke:#808080" id="kvg:0594f-s4" kvg:type="㇒" d="M52.25,10.25c0.5,1.25,0.81,2.67,0.29,4.82C48.12,33.12,42.5,58.25,14.25,73.5"/>
			<path style="fill:none;stroke-width:4;" id="kvg:0594f-s5" kvg:type="㇏" d="M53.25,33.25c4.76,5.36,20.03,19.49,29.12,27.26c3.43,2.93,6.51,5.33,11.12,7.56"/>
<circle cx="53.25" cy="33.25" r="5" style="fill:red;stroke:red;" />
		</g>
	</g>
	<g id="kvg:0594f-g7" kvg:element="天" kvg:position="bottom">
		<g id="kvg:0594f-g8" kvg:element="大" kvg:radical="general">
		</g>
	</g>
</g>
</g></svg>