<?xml version="1.0" encoding="UTF-8"?>
  <!DOCTYPE svg PUBLIC "-//W3C//DTD SVG 1.0//EN" "http://www.w3.org/TR/2001/REC-SVG-20010904/DTD/svg10.dtd" [
  <!ATTLIST g xmlns:kvg CDATA #FIXED "http://kanjivg.tagaini.net" kvg:element CDATA #IMPLIED kvg:variant CDATA #IMPLIED kvg:partial CDATA #IMPLIED kvg:original CDATA #IMPLIED kvg:part CDATA #IMPLIED kvg:number CDATA #IMPLIED kvg:tradForm CDATA #IMPLIED kvg:radicalForm CDATA #IMPLIED kvg:position CDATA #IMPLIED kvg:radical CDATA #IMPLIED kvg:phon CDATA #IMPLIED >
  <!ATTLIST path xmlns:kvg CDATA #FIXED "http://kanjivg.tagaini.net" kvg:type CDATA #IMPLIED >
  ]>
  <svg xmlns="http://www.w3.org/2000/svg" width="109" height="109" viewBox="0 0 109 109">
<g id="kvg:StrokePaths_0596e" style="fill:none;stroke:#000000;stroke-width:3;stroke-linecap:round;stroke-linejoin:round;">
<g id="kvg:0596e" kvg:element="奮">
	<g id="kvg:0596e-g1" kvg:element="大" kvg:position="top" kvg:radical="general">
		<path style="fill:none;stroke:#808080" id="kvg:0596e-s1" kvg:type="㇐" d="M21.62,23.86c2.83,0.68,5.66,0.58,8.5,0.24c17.5-2.1,37.03-3.27,50.63-4.06c2.79-0.16,6.11,0.08,8.49,0.46"/>
		<path style="fill:none;stroke:#808080" id="kvg:0596e-s2" kvg:type="㇒" d="M53.03,9.5c0.22,1.5-0.38,2.87-1.04,3.85C43,26.75,31.75,38.75,11.5,49.5"/>
		<path style="fill:none;stroke:#808080" id="kvg:0596e-s3" kvg:type="㇏" d="M59,22c7.38,5.22,23.36,17.53,30.73,21.02c2.51,1.19,3.38,1.37,4.52,1.48"/>
	</g>
	<g id="kvg:0596e-g2" kvg:position="bottom">
		<g id="kvg:0596e-g3" kvg:element="隹" kvg:position="top">
			<g id="kvg:0596e-g4" kvg:element="亻" kvg:variant="true" kvg:original="人">
				<path style="fill:none;stroke:#808080" id="kvg:0596e-s4" kvg:type="㇒" d="M41.42,34.25c0.17,1.14-0.05,2.39-0.58,3.37c-3.42,6.25-7.21,11.88-15.58,19.14"/>
				<path style="fill:none;stroke:#808080" id="kvg:0596e-s5" kvg:type="㇑" d="M35.99,47.01c0.69,0.69,0.97,1.65,0.97,2.74c0,4.19,0.01,13.76,0.01,19.63c0,2.02,0,3.61,0,4.38"/>
			</g>
			<path style="fill:none;stroke:#808080" id="kvg:0596e-s6" kvg:type="㇒" d="M59.15,33.25c0.06,0.62-0.02,1.43-0.21,1.96c-1.23,3.39-2.29,4.51-5.12,8.63"/>
			<path style="fill:none;stroke:#808080" id="kvg:0596e-s7" kvg:type="㇐b" d="M38.17,46.51c5.66-0.43,22.82-2.29,32.32-3.06c2.29-0.19,4.05-0.31,4.97-0.33"/>
			<path style="fill:none;stroke-width:4;" id="kvg:0596e-s8" kvg:type="㇑a" d="M54.12,46.02c0.62,0.62,0.86,1.35,0.86,2.36c0,3.69-0.17,13.87-0.17,19.69"/>
<circle cx="54.12" cy="46.02" r="5" style="fill:red;stroke:red;" />
		</g>
		<g id="kvg:0596e-g5" kvg:element="田" kvg:position="bottom">
		</g>
	</g>
</g>
</g></svg>