<?xml version="1.0" encoding="UTF-8"?>
  <!DOCTYPE svg PUBLIC "-//W3C//DTD SVG 1.0//EN" "http://www.w3.org/TR/2001/REC-SVG-20010904/DTD/svg10.dtd" [
  <!ATTLIST g xmlns:kvg CDATA #FIXED "http://kanjivg.tagaini.net" kvg:element CDATA #IMPLIED kvg:variant CDATA #IMPLIED kvg:partial CDATA #IMPLIED kvg:original CDATA #IMPLIED kvg:part CDATA #IMPLIED kvg:number CDATA #IMPLIED kvg:tradForm CDATA #IMPLIED kvg:radicalForm CDATA #IMPLIED kvg:position CDATA #IMPLIED kvg:radical CDATA #IMPLIED kvg:phon CDATA #IMPLIED >
  <!ATTLIST path xmlns:kvg CDATA #FIXED "http://kanjivg.tagaini.net" kvg:type CDATA #IMPLIED >
  ]>
  <svg xmlns="http://www.w3.org/2000/svg" width="109" height="109" viewBox="0 0 109 109">
<g id="kvg:StrokePaths_059bb" style="fill:none;stroke:#000000;stroke-width:3;stroke-linecap:round;stroke-linejoin:round;">
<g id="kvg:059bb" kvg:element="妻">
	<g id="kvg:059bb-g1" kvg:position="top">
		<path style="fill:none;stroke:#808080" id="kvg:059bb-s1" kvg:type="㇐" d="M31.75,22.64c2,0.61,4.52,0.65,6.37,0.38c8.76-1.27,26.92-2.98,35.08-3.17c1.98-0.05,4.37-0.07,6.3,0.4"/>
		<g id="kvg:059bb-g2" kvg:element="⺕" kvg:variant="true" kvg:original="彑">
			<path style="fill:none;stroke:#808080" id="kvg:059bb-s2" kvg:type="㇕c" d="M30.39,34.12c1.86,0.38,3.43,0.57,5.41,0.43c12.05-0.86,28.45-3.05,38.39-3.8c2.79-0.21,4.13,2.44,3.3,4.48c-2.24,5.52-3.24,11.27-5.44,18.82"/>
			<path style="fill:none;stroke:#808080" id="kvg:059bb-s3" kvg:type="㇐" d="M19.14,46.38c2.93,0.33,5.55,0.43,8.49,0.17c17.35-1.54,41.39-3.25,56-3.97c2.94-0.15,5.6-0.08,8.48,0.5"/>
			<path style="fill:none;stroke-width:4;" id="kvg:059bb-s4" kvg:type="㇐" d="M31.68,58.25c2.3,0.28,4.48,0.12,6.77-0.13c10.58-1.19,22.01-2.4,29.17-2.83c2.04-0.12,4.04-0.18,6.08,0.03"/>
<circle cx="31.68" cy="58.25" r="5" style="fill:red;stroke:red;" />
		</g>
	</g>
	<g id="kvg:059bb-g3" kvg:element="女" kvg:position="bottom" kvg:radical="general">
	</g>
</g>
</g></svg>