<?xml version="1.0" encoding="UTF-8"?>
  <!DOCTYPE svg PUBLIC "-//W3C//DTD SVG 1.0//EN" "http://www.w3.org/TR/2001/REC-SVG-20010904/DTD/svg10.dtd" [
  <!ATTLIST g xmlns:kvg CDATA #FIXED "http://kanjivg.tagaini.net" kvg:element CDATA #IMPLIED kvg:variant CDATA #IMPLIED kvg:partial CDATA #IMPLIED kvg:original CDATA #IMPLIED kvg:part CDATA #IMPLIED kvg:number CDATA #IMPLIED kvg:tradForm CDATA #IMPLIED kvg:radicalForm CDATA #IMPLIED kvg:position CDATA #IMPLIED kvg:radical CDATA #IMPLIED kvg:phon CDATA #IMPLIED >
  <!ATTLIST path xmlns:kvg CDATA #FIXED "http://kanjivg.tagaini.net" kvg:type CDATA #IMPLIED >
  ]>
  <svg xmlns="http://www.w3.org/2000/svg" width="109" height="109" viewBox="0 0 109 109">
<g id="kvg:StrokePaths_059c9" style="fill:none;stroke:#000000;stroke-width:3;stroke-linecap:round;stroke-linejoin:round;">
<g id="kvg:059c9" kvg:element="姉">
	<g id="kvg:059c9-g1" kvg:element="女" kvg:variant="true" kvg:position="left" kvg:radical="general">
		<path style="fill:none;stroke:#808080" id="kvg:059c9-s1" kvg:type="㇛" d="M28.12,20.37c0.38,1.13,0.57,2.99,0.38,4.63c-0.97,8.06-4.99,28-9.27,37.43c-0.88,1.94,0.37,2.8,0.88,2.87c6.05,0.78,13.68,5.27,19.13,12.22c1.21,1.54,2.32,3.21,3.27,4.98"/>
		<path style="fill:none;stroke:#808080" id="kvg:059c9-s2" kvg:type="㇒" d="M40.5,38.75c0.38,1.75,0.36,2.98,0.08,4.67C38.12,58.25,30,78.88,12.75,87.75"/>
		<path style="fill:none;stroke:#808080" id="kvg:059c9-s3" kvg:type="㇀/㇐" d="M10.25,48.71c1,0.92,2.53,1.24,4.5,0.79c7.12-1.62,19.5-5.25,30-7.78"/>
	</g>
	<g id="kvg:059c9-g2" kvg:element="市" kvg:position="right" kvg:phon="市">
		<g id="kvg:059c9-g3" kvg:element="亠">
			<path style="fill:none;stroke:#808080" id="kvg:059c9-s4" kvg:type="㇑a" d="M69.23,13c1.32,1.32,1.65,2.75,1.65,4.77c0,4.3-0.11,4.98-0.11,8.58"/>
			<path style="fill:none;stroke-width:4;" id="kvg:059c9-s5" kvg:type="㇐" d="M44.5,29.22c3.09,0.48,5.97,0.51,7.72,0.33c11.4-1.18,30.28-3.43,40.66-4.05c2.98-0.18,4.52,0.03,6.75,0.42"/>
<circle cx="44.5" cy="29.22" r="5" style="fill:red;stroke:red;" />
		</g>
		<g id="kvg:059c9-g4" kvg:element="巾">
		</g>
	</g>
</g>
</g></svg>