<?xml version="1.0" encoding="UTF-8"?>
  <!DOCTYPE svg PUBLIC "-//W3C//DTD SVG 1.0//EN" "http://www.w3.org/TR/2001/REC-SVG-20010904/DTD/svg10.dtd" [
  <!ATTLIST g xmlns:kvg CDATA #FIXED "http://kanjivg.tagaini.net" kvg:element CDATA #IMPLIED kvg:variant CDATA #IMPLIED kvg:partial CDATA #IMPLIED kvg:original CDATA #IMPLIED kvg:part CDATA #IMPLIED kvg:number CDATA #IMPLIED kvg:tradForm CDATA #IMPLIED kvg:radicalForm CDATA #IMPLIED kvg:position CDATA #IMPLIED kvg:radical CDATA #IMPLIED kvg:phon CDATA #IMPLIED >
  <!ATTLIST path xmlns:kvg CDATA #FIXED "http://kanjivg.tagaini.net" kvg:type CDATA #IMPLIED >
  ]>
  <svg xmlns="http://www.w3.org/2000/svg" width="109" height="109" viewBox="0 0 109 109">
<g id="kvg:StrokePaths_05a66" style="fill:none;stroke:#000000;stroke-width:3;stroke-linecap:round;stroke-linejoin:round;">
<g id="kvg:05a66" kvg:element="婦">
	<g id="kvg:05a66-g1" kvg:element="女" kvg:variant="true" kvg:position="left" kvg:radical="general">
		<path style="fill:none;stroke:#808080" id="kvg:05a66-s1" kvg:type="㇛" d="M24.28,20.62c0.47,1.38,0.49,2.91,0.37,4.52c-0.77,10.11-3.88,25.67-7.42,38.02c-0.35,1.21-0.44,2.4,1.12,2.8c5.41,1.41,9.78,3.79,14.64,8.05c2.07,1.82,4.14,4.24,6.02,6.99"/>
		<path style="fill:none;stroke:#808080" id="kvg:05a66-s2" kvg:type="㇒" d="M37.26,38.75c0.49,1.12,0.63,3.09,0.35,4.82C35.35,57.54,30,76.88,13.25,89"/>
		<path style="fill:none;stroke:#808080" id="kvg:05a66-s3" kvg:type="㇀/㇐" d="M10.25,48.96C11,50,12.04,50.24,14,49.75c4.5-1.12,18.38-4.5,29.75-7.28"/>
	</g>
	<g id="kvg:05a66-g2" kvg:element="帚" kvg:position="right">
		<g id="kvg:05a66-g3" kvg:element="⺕" kvg:variant="true" kvg:original="彑" kvg:position="top">
			<path style="fill:none;stroke:#808080" id="kvg:05a66-s4" kvg:type="㇕c" d="M51.66,16.01c1.46,0.36,3.43,0.54,4.41,0.45c5.05-0.47,27.08-2.62,28.66-2.86c2.39-0.36,3.64,0.52,2.91,3.13c-1.19,4.26-3.7,13.16-4.92,18.07"/>
			<path style="fill:none;stroke-width:4;" id="kvg:05a66-s5" kvg:type="㇐c" d="M50.29,26.59c1.59,0.53,4.05,0.56,5.85,0.42c10.9-0.86,18.38-1.92,28.29-2.69"/>
<circle cx="50.29" cy="26.59" r="5" style="fill:red;stroke:red;" />
		</g>
		<g id="kvg:05a66-g4" kvg:position="bottom">
			<g id="kvg:05a66-g5" kvg:element="冖">
			</g>
			<g id="kvg:05a66-g6" kvg:element="巾">
			</g>
		</g>
	</g>
</g>
</g></svg>