<?xml version="1.0" encoding="UTF-8"?>
  <!DOCTYPE svg PUBLIC "-//W3C//DTD SVG 1.0//EN" "http://www.w3.org/TR/2001/REC-SVG-20010904/DTD/svg10.dtd" [
  <!ATTLIST g xmlns:kvg CDATA #FIXED "http://kanjivg.tagaini.net" kvg:element CDATA #IMPLIED kvg:variant CDATA #IMPLIED kvg:partial CDATA #IMPLIED kvg:original CDATA #IMPLIED kvg:part CDATA #IMPLIED kvg:number CDATA #IMPLIED kvg:tradForm CDATA #IMPLIED kvg:radicalForm CDATA #IMPLIED kvg:position CDATA #IMPLIED kvg:radical CDATA #IMPLIED kvg:phon CDATA #IMPLIED >
  <!ATTLIST path xmlns:kvg CDATA #FIXED "http://kanjivg.tagaini.net" kvg:type CDATA #IMPLIED >
  ]>
  <svg xmlns="http://www.w3.org/2000/svg" width="109" height="109" viewBox="0 0 109 109">
<g id="kvg:StrokePaths_05a9b" style="fill:none;stroke:#000000;stroke-width:3;stroke-linecap:round;stroke-linejoin:round;">
<g id="kvg:05a9b" kvg:element="媛">
	<g id="kvg:05a9b-g1" kvg:element="女" kvg:variant="true" kvg:position="left" kvg:radical="general">
		<path style="fill:none;stroke:#808080" id="kvg:05a9b-s1" kvg:type="㇛" d="M26.87,22.87c0.38,1.13,0.57,2.74,0.38,4.38c-0.93,7.78-5.18,26.61-9.32,36.4c-0.82,1.93-1.19,3.53,1.16,4.06c5.05,1.14,10.74,3.74,15.2,7.64c1.94,1.7,3.64,3.85,4.96,5.9"/>
		<path style="fill:none;stroke:#808080" id="kvg:05a9b-s2" kvg:type="㇒" d="M39.75,39.75c0.37,1.75,0.39,3.21,0.09,4.99C37.4,59.13,30.39,80.54,13,91.25"/>
		<path style="fill:none;stroke:#808080" id="kvg:05a9b-s3" kvg:type="㇀/㇐" d="M10.5,50.46c0.88,1.29,2.28,1.49,4.25,1.04c7.12-1.62,17.5-4.12,29-7.03"/>
	</g>
	<g id="kvg:05a9b-g2" kvg:element="爰" kvg:variant="true" kvg:position="right">
		<g id="kvg:05a9b-g3" kvg:element="⺤" kvg:variant="true" kvg:original="爪" kvg:position="top">
			<path style="fill:none;stroke:#808080" id="kvg:05a9b-s4" kvg:type="㇒" d="M79.48,11.29c-0.23,1.18-1.09,1.9-1.91,2.48c-3.95,2.76-14.59,7.09-29.17,10.03"/>
			<path style="fill:none;stroke:#808080" id="kvg:05a9b-s5" kvg:type="㇔" d="M48.27,28.4c1.95,1.66,5.03,6.84,5.52,9.43"/>
			<path style="fill:none;stroke-width:4;" id="kvg:05a9b-s6" kvg:type="㇔" d="M61.87,26c2.41,1.72,6.24,7.07,6.84,9.75"/>
<circle cx="61.87" cy="26" r="5" style="fill:red;stroke:red;" />
		</g>
		<g id="kvg:05a9b-g4" kvg:position="bottom">
			<g id="kvg:05a9b-g5" kvg:element="友">
				<g id="kvg:05a9b-g6" kvg:element="又">
				</g>
			</g>
		</g>
	</g>
</g>
</g></svg>