<?xml version="1.0" encoding="UTF-8"?>
  <!DOCTYPE svg PUBLIC "-//W3C//DTD SVG 1.0//EN" "http://www.w3.org/TR/2001/REC-SVG-20010904/DTD/svg10.dtd" [
  <!ATTLIST g xmlns:kvg CDATA #FIXED "http://kanjivg.tagaini.net" kvg:element CDATA #IMPLIED kvg:variant CDATA #IMPLIED kvg:partial CDATA #IMPLIED kvg:original CDATA #IMPLIED kvg:part CDATA #IMPLIED kvg:number CDATA #IMPLIED kvg:tradForm CDATA #IMPLIED kvg:radicalForm CDATA #IMPLIED kvg:position CDATA #IMPLIED kvg:radical CDATA #IMPLIED kvg:phon CDATA #IMPLIED >
  <!ATTLIST path xmlns:kvg CDATA #FIXED "http://kanjivg.tagaini.net" kvg:type CDATA #IMPLIED >
  ]>
  <svg xmlns="http://www.w3.org/2000/svg" width="109" height="109" viewBox="0 0 109 109">
<g id="kvg:StrokePaths_05b5d" style="fill:none;stroke:#000000;stroke-width:3;stroke-linecap:round;stroke-linejoin:round;">
<g id="kvg:05b5d" kvg:element="孝">
	<g id="kvg:05b5d-g1" kvg:element="耂" kvg:original="老" kvg:partial="true">
		<g id="kvg:05b5d-g2" kvg:element="十" kvg:radical="nelson">
			<path style="fill:none;stroke:#808080" id="kvg:05b5d-s1" kvg:type="㇐" d="M31.5,28.06c1.67,0.56,3.88,0.42,5.62,0.29c8.33-0.63,21.28-2.9,29.01-3.45c1.65-0.12,3.14-0.19,4.75,0.13"/>
			<path style="fill:none;stroke:#808080" id="kvg:05b5d-s2" kvg:type="㇑a" d="M52.92,10.87c0.98,0.98,1.52,2.51,1.52,3.89c0,8.95-0.19,18.37-0.19,24.5"/>
		</g>
		<path style="fill:none;stroke:#808080" id="kvg:05b5d-s3" kvg:type="㇐" d="M13.5,43.53c3.38,0.84,7.19,0.56,10.36,0.21c14.75-1.63,38.7-4.24,61.02-5.64c3.56-0.22,7.29-0.31,10.75,0.61"/>
		<path style="fill:none;stroke-width:4;" id="kvg:05b5d-s4" kvg:type="㇒" d="M80.84,15.98C81,17.12,80.62,18.75,79.5,20c-15.74,17.49-31,32.88-61.19,50.22"/>
<circle cx="80.84" cy="15.98" r="5" style="fill:red;stroke:red;" />
	</g>
	<g id="kvg:05b5d-g3" kvg:element="子" kvg:radical="tradit">
	</g>
</g>
</g></svg>