<?xml version="1.0" encoding="UTF-8"?>
  <!DOCTYPE svg PUBLIC "-//W3C//DTD SVG 1.0//EN" "http://www.w3.org/TR/2001/REC-SVG-20010904/DTD/svg10.dtd" [
  <!ATTLIST g xmlns:kvg CDATA #FIXED "http://kanjivg.tagaini.net" kvg:element CDATA #IMPLIED kvg:variant CDATA #IMPLIED kvg:partial CDATA #IMPLIED kvg:original CDATA #IMPLIED kvg:part CDATA #IMPLIED kvg:number CDATA #IMPLIED kvg:tradForm CDATA #IMPLIED kvg:radicalForm CDATA #IMPLIED kvg:position CDATA #IMPLIED kvg:radical CDATA #IMPLIED kvg:phon CDATA #IMPLIED >
  <!ATTLIST path xmlns:kvg CDATA #FIXED "http://kanjivg.tagaini.net" kvg:type CDATA #IMPLIED >
  ]>
  <svg xmlns="http://www.w3.org/2000/svg" width="109" height="109" viewBox="0 0 109 109">
<g id="kvg:StrokePaths_05b66" style="fill:none;stroke:#000000;stroke-width:3;stroke-linecap:round;stroke-linejoin:round;">
<g id="kvg:05b66" kvg:element="学">
	<g id="kvg:05b66-g1" kvg:position="top" kvg:phon="𦥯">
		<g id="kvg:05b66-g2" kvg:element="⺍" kvg:original="つ">
			<path style="fill:none;stroke:#808080" id="kvg:05b66-s1" kvg:type="㇔" d="M29.5,17.25c3.5,3,6.5,7.25,7.75,9.75"/>
			<path style="fill:none;stroke:#808080" id="kvg:05b66-s2" kvg:type="㇔" d="M49,12c1.25,2,4.75,8.25,5.25,11.5"/>
			<path style="fill:none;stroke:#808080" id="kvg:05b66-s3" kvg:type="㇒" d="M75,11c0.25,1.75-0.12,2.75-0.75,4.25c-1.29,3.1-4.25,7.38-6.5,9.75"/>
		</g>
		<g id="kvg:05b66-g3" kvg:element="冖">
			<path style="fill:none;stroke:#808080" id="kvg:05b66-s4" kvg:type="㇔" d="M21.25,33.75c-0.12,4.75-2,12.5-3.75,16.25"/>
			<path style="fill:none;stroke:#808080" id="kvg:05b66-s5" kvg:type="㇖b" d="M23.5,36.5c17-1.62,42.38-5.5,60-5.75c9.5-0.13,4.12,5.12,0,9"/>
		</g>
	</g>
	<g id="kvg:05b66-g4" kvg:element="子" kvg:position="bottom" kvg:radical="general">
		<path style="fill:none;stroke-width:4;" id="kvg:05b66-s6" kvg:type="㇖" d="M37.25,46.5c1,0.25,3.75,0.25,5.5-0.25s18.25-4,20-4s2.75,0.75,1,2.25S54.5,53.5,53,54.75"/>
<circle cx="37.25" cy="46.5" r="5" style="fill:red;stroke:red;" />
	</g>
</g>
</g></svg>