<?xml version="1.0" encoding="UTF-8"?>
  <!DOCTYPE svg PUBLIC "-//W3C//DTD SVG 1.0//EN" "http://www.w3.org/TR/2001/REC-SVG-20010904/DTD/svg10.dtd" [
  <!ATTLIST g xmlns:kvg CDATA #FIXED "http://kanjivg.tagaini.net" kvg:element CDATA #IMPLIED kvg:variant CDATA #IMPLIED kvg:partial CDATA #IMPLIED kvg:original CDATA #IMPLIED kvg:part CDATA #IMPLIED kvg:number CDATA #IMPLIED kvg:tradForm CDATA #IMPLIED kvg:radicalForm CDATA #IMPLIED kvg:position CDATA #IMPLIED kvg:radical CDATA #IMPLIED kvg:phon CDATA #IMPLIED >
  <!ATTLIST path xmlns:kvg CDATA #FIXED "http://kanjivg.tagaini.net" kvg:type CDATA #IMPLIED >
  ]>
  <svg xmlns="http://www.w3.org/2000/svg" width="109" height="109" viewBox="0 0 109 109">
<g id="kvg:StrokePaths_05b63" style="fill:none;stroke:#000000;stroke-width:3;stroke-linecap:round;stroke-linejoin:round;">
<g id="kvg:05b63" kvg:element="季">
	<g id="kvg:05b63-g1" kvg:element="禾" kvg:position="top" kvg:radical="nelson">
		<g id="kvg:05b63-g2" kvg:element="丿" kvg:position="top">
			<path style="fill:none;stroke:#808080" id="kvg:05b63-s1" kvg:type="㇒" d="M66.61,9.75c-0.11,1-0.99,1.71-1.63,2.08c-3.99,2.28-15.13,5.86-31.82,8.41"/>
		</g>
		<g id="kvg:05b63-g3" kvg:element="木" kvg:position="bottom">
			<path style="fill:none;stroke:#808080" id="kvg:05b63-s2" kvg:type="㇐" d="M22.3,32.26c2.44,0.57,5.09,0.53,7.56,0.26c10.39-1.17,34.35-3.97,46.77-4.52c2.13-0.1,4.92-0.07,7.05,0.23"/>
			<path style="fill:none;stroke:#808080" id="kvg:05b63-s3" kvg:type="㇑" d="M52.71,19.78c0.82,0.82,1.22,1.97,1.22,3c0,0.45-0.09,13.55-0.12,21.22c-0.01,1.79-0.01,3.28-0.01,4.25"/>
			<path style="fill:none;stroke-width:4;" id="kvg:05b63-s4" kvg:type="㇒" d="M47.47,31.41c0,0.59-0.34,1.24-0.92,1.89c-7.18,7.93-17.87,17.37-32.64,22.52"/>
<circle cx="47.47" cy="31.41" r="5" style="fill:red;stroke:red;" />
		</g>
	</g>
	<g id="kvg:05b63-g4" kvg:element="子" kvg:position="bottom" kvg:radical="tradit">
	</g>
</g>
</g></svg>