<?xml version="1.0" encoding="UTF-8"?>
  <!DOCTYPE svg PUBLIC "-//W3C//DTD SVG 1.0//EN" "http://www.w3.org/TR/2001/REC-SVG-20010904/DTD/svg10.dtd" [
  <!ATTLIST g xmlns:kvg CDATA #FIXED "http://kanjivg.tagaini.net" kvg:element CDATA #IMPLIED kvg:variant CDATA #IMPLIED kvg:partial CDATA #IMPLIED kvg:original CDATA #IMPLIED kvg:part CDATA #IMPLIED kvg:number CDATA #IMPLIED kvg:tradForm CDATA #IMPLIED kvg:radicalForm CDATA #IMPLIED kvg:position CDATA #IMPLIED kvg:radical CDATA #IMPLIED kvg:phon CDATA #IMPLIED >
  <!ATTLIST path xmlns:kvg CDATA #FIXED "http://kanjivg.tagaini.net" kvg:type CDATA #IMPLIED >
  ]>
  <svg xmlns="http://www.w3.org/2000/svg" width="109" height="109" viewBox="0 0 109 109">
<g id="kvg:StrokePaths_05b89" style="fill:none;stroke:#000000;stroke-width:3;stroke-linecap:round;stroke-linejoin:round;">
<g id="kvg:05b89" kvg:element="安">
	<g id="kvg:05b89-g1" kvg:element="宀" kvg:position="top" kvg:radical="general">
		<path style="fill:none;stroke:#808080" id="kvg:05b89-s1" kvg:type="㇑a" d="M53.06,13.73c0.92,0.92,1.63,2.6,1.6,3.75c-0.09,3.62-0.09,7.03-0.09,10.33"/>
		<g id="kvg:05b89-g2" kvg:element="冖">
			<path style="fill:none;stroke:#808080" id="kvg:05b89-s2" kvg:type="㇔" d="M26.67,28.85c0,3.6-3.32,13.5-4.83,15.9"/>
			<path style="fill:none;stroke:#808080" id="kvg:05b89-s3" kvg:type="㇖b" d="M27.53,30.96c12.72-1.58,40.97-4.21,54.14-4.86c9.82-0.48,1.45,6.65-2.17,9.9"/>
		</g>
	</g>
	<g id="kvg:05b89-g3" kvg:element="女" kvg:position="bottom">
		<path style="fill:none;stroke-width:4;" id="kvg:05b89-s4" kvg:type="㇛" d="M49.87,36.87c0.51,1.45,0.52,3.55,0,5.32c-2.74,9.22-7.03,20.09-13.85,30.42c-1.43,2.17-0.76,2.95,1.26,3.14c8.23,0.75,21.61,4.5,33.74,11.77c4.36,2.61,8.24,5.98,10.24,9.48"/>
<circle cx="49.87" cy="36.87" r="5" style="fill:red;stroke:red;" />
	</g>
</g>
</g></svg>