<?xml version="1.0" encoding="UTF-8"?>
  <!DOCTYPE svg PUBLIC "-//W3C//DTD SVG 1.0//EN" "http://www.w3.org/TR/2001/REC-SVG-20010904/DTD/svg10.dtd" [
  <!ATTLIST g xmlns:kvg CDATA #FIXED "http://kanjivg.tagaini.net" kvg:element CDATA #IMPLIED kvg:variant CDATA #IMPLIED kvg:partial CDATA #IMPLIED kvg:original CDATA #IMPLIED kvg:part CDATA #IMPLIED kvg:number CDATA #IMPLIED kvg:tradForm CDATA #IMPLIED kvg:radicalForm CDATA #IMPLIED kvg:position CDATA #IMPLIED kvg:radical CDATA #IMPLIED kvg:phon CDATA #IMPLIED >
  <!ATTLIST path xmlns:kvg CDATA #FIXED "http://kanjivg.tagaini.net" kvg:type CDATA #IMPLIED >
  ]>
  <svg xmlns="http://www.w3.org/2000/svg" width="109" height="109" viewBox="0 0 109 109">
<g id="kvg:StrokePaths_05b99" style="fill:none;stroke:#000000;stroke-width:3;stroke-linecap:round;stroke-linejoin:round;">
<g id="kvg:05b99" kvg:element="宙">
	<g id="kvg:05b99-g1" kvg:element="宀" kvg:position="top" kvg:radical="general">
		<path style="fill:none;stroke:#808080" id="kvg:05b99-s1" kvg:type="㇑a" d="M52.8,12.86c1.36,1.36,1.53,3.2,1.53,4.39c0,2.25-0.08,5.15-0.08,9"/>
		<g id="kvg:05b99-g2" kvg:element="冖">
			<path style="fill:none;stroke:#808080" id="kvg:05b99-s2" kvg:type="㇔" d="M20.12,26.38c0,4.76-2.15,17.84-3.12,21.02"/>
			<path style="fill:none;stroke:#808080" id="kvg:05b99-s3" kvg:type="㇖b" d="M20.72,31.87C41,29.12,62.5,25.75,84.96,24.88c11.53-0.44,2.44,6.67-0.43,8.71"/>
		</g>
	</g>
	<g id="kvg:05b99-g3" kvg:element="由" kvg:position="bottom" kvg:phon="由">
		<g id="kvg:05b99-g4" kvg:element="日" kvg:part="1" kvg:partial="true">
			<path style="fill:none;stroke-width:4;" id="kvg:05b99-s4" kvg:type="㇑" d="M24.95,56.95c0.86,0.86,1.47,2.12,1.62,2.97c1.43,7.95,2.56,17.82,3.85,30.06c0.21,1.96,0.32,3.89,0.47,5.76"/>
<circle cx="24.95" cy="56.95" r="5" style="fill:red;stroke:red;" />
		</g>
		<g id="kvg:05b99-g5" kvg:element="丨">
		</g>
		<g id="kvg:05b99-g6" kvg:element="日" kvg:part="2" kvg:partial="true">
		</g>
	</g>
</g>
</g></svg>