<?xml version="1.0" encoding="UTF-8"?>
  <!DOCTYPE svg PUBLIC "-//W3C//DTD SVG 1.0//EN" "http://www.w3.org/TR/2001/REC-SVG-20010904/DTD/svg10.dtd" [
  <!ATTLIST g xmlns:kvg CDATA #FIXED "http://kanjivg.tagaini.net" kvg:element CDATA #IMPLIED kvg:variant CDATA #IMPLIED kvg:partial CDATA #IMPLIED kvg:original CDATA #IMPLIED kvg:part CDATA #IMPLIED kvg:number CDATA #IMPLIED kvg:tradForm CDATA #IMPLIED kvg:radicalForm CDATA #IMPLIED kvg:position CDATA #IMPLIED kvg:radical CDATA #IMPLIED kvg:phon CDATA #IMPLIED >
  <!ATTLIST path xmlns:kvg CDATA #FIXED "http://kanjivg.tagaini.net" kvg:type CDATA #IMPLIED >
  ]>
  <svg xmlns="http://www.w3.org/2000/svg" width="109" height="109" viewBox="0 0 109 109">
<g id="kvg:StrokePaths_05b9a" style="fill:none;stroke:#000000;stroke-width:3;stroke-linecap:round;stroke-linejoin:round;">
<g id="kvg:05b9a" kvg:element="定">
	<g id="kvg:05b9a-g1" kvg:element="宀" kvg:position="top" kvg:radical="general">
		<path style="fill:none;stroke:#808080" id="kvg:05b9a-s1" kvg:type="㇑a" d="M52.57,10.17c1.26,1.26,1.76,2.96,1.76,4.56c0,3.61-0.09,5.75-0.1,9.03"/>
		<g id="kvg:05b9a-g2" kvg:element="冖">
			<path style="fill:none;stroke:#808080" id="kvg:05b9a-s2" kvg:type="㇔" d="M21.25,26c0,3.53-2.41,13.23-3.5,15.58"/>
			<path style="fill:none;stroke:#808080" id="kvg:05b9a-s3" kvg:type="㇖b" d="M22.44,29.18c18.31-2.68,47.53-6.83,63.05-7.33c11.01-0.35,4.26,7.15-0.18,9.58"/>
		</g>
	</g>
	<g id="kvg:05b9a-g3" kvg:element="疋" kvg:variant="true" kvg:position="bottom" kvg:phon="正">
		<path style="fill:none;stroke:#808080" id="kvg:05b9a-s4" kvg:type="㇐" d="M33.6,42.82c2.72,0.44,5.36,0.34,8.12,0c6.54-0.82,24.05-2.75,28.37-3.07c3.41-0.25,5.16-0.25,7.66,0.38"/>
		<g id="kvg:05b9a-g4" kvg:element="龰">
			<g id="kvg:05b9a-g5" kvg:element="卜" kvg:original="ト">
				<path style="fill:none;stroke:#808080" id="kvg:05b9a-s5" kvg:type="㇑a" d="M52.9,42.77c0.92,0.92,1.17,2.46,1.17,3.37c0,2.99,0.28,30.49,0.28,36.39"/>
				<path style="fill:none;stroke-width:4;" id="kvg:05b9a-s6" kvg:type="㇐b" d="M54.61,62.86c6.14-0.74,12.39-1.49,19.43-2.39c1.69-0.22,3.13-0.22,4.2,0"/>
<circle cx="54.61" cy="62.86" r="5" style="fill:red;stroke:red;" />
			</g>
			<g id="kvg:05b9a-g6" kvg:element="人">
			</g>
		</g>
	</g>
</g>
</g></svg>