<?xml version="1.0" encoding="UTF-8"?>
  <!DOCTYPE svg PUBLIC "-//W3C//DTD SVG 1.0//EN" "http://www.w3.org/TR/2001/REC-SVG-20010904/DTD/svg10.dtd" [
  <!ATTLIST g xmlns:kvg CDATA #FIXED "http://kanjivg.tagaini.net" kvg:element CDATA #IMPLIED kvg:variant CDATA #IMPLIED kvg:partial CDATA #IMPLIED kvg:original CDATA #IMPLIED kvg:part CDATA #IMPLIED kvg:number CDATA #IMPLIED kvg:tradForm CDATA #IMPLIED kvg:radicalForm CDATA #IMPLIED kvg:position CDATA #IMPLIED kvg:radical CDATA #IMPLIED kvg:phon CDATA #IMPLIED >
  <!ATTLIST path xmlns:kvg CDATA #FIXED "http://kanjivg.tagaini.net" kvg:type CDATA #IMPLIED >
  ]>
  <svg xmlns="http://www.w3.org/2000/svg" width="109" height="109" viewBox="0 0 109 109">
<g id="kvg:StrokePaths_05ba2" style="fill:none;stroke:#000000;stroke-width:3;stroke-linecap:round;stroke-linejoin:round;">
<g id="kvg:05ba2" kvg:element="客">
	<g id="kvg:05ba2-g1" kvg:element="宀" kvg:position="top" kvg:radical="general">
		<path style="fill:none;stroke:#808080" id="kvg:05ba2-s1" kvg:type="㇑a" d="M51.73,10.45c0.91,0.91,1.4,1.93,1.4,3.1c0,2.95,0.18,4.72,0.17,7.41"/>
		<g id="kvg:05ba2-g2" kvg:element="冖">
			<path style="fill:none;stroke:#808080" id="kvg:05ba2-s2" kvg:type="㇔" d="M27.02,22.18c0,3.2-3.07,11.99-4.46,14.13"/>
			<path style="fill:none;stroke:#808080" id="kvg:05ba2-s3" kvg:type="㇖b" d="M27.98,25.01C43.5,22.75,67.25,20,80.39,19.8c10.89-0.16,1.12,6.36-0.34,7.02"/>
		</g>
	</g>
	<g id="kvg:05ba2-g3" kvg:element="各" kvg:position="bottom" kvg:phon="各">
		<g id="kvg:05ba2-g4" kvg:element="夂">
			<path style="fill:none;stroke:#808080" id="kvg:05ba2-s4" kvg:type="㇒" d="M46.38,29.25c0.05,0.66-0.17,2.06-0.63,2.91C42.5,38.25,38.12,46,26.2,56.49"/>
			<path style="fill:none;stroke:#808080" id="kvg:05ba2-s5" kvg:type="㇇" d="M45.14,38.9c1.21,0.22,2.42,0.23,3.62,0.05c3.64-0.47,8.82-1.91,13.56-2.91c2.56-0.54,3.59,1.51,2.68,3.31c-5,9.88-23.59,31.95-46.05,38.47"/>
			<path style="fill:none;stroke-width:4;" id="kvg:05ba2-s6" kvg:type="㇏" d="M39.06,44.14C47,51,74.5,67.75,86.44,72.58c2.93,1.18,5.11,2.09,7.87,2.51"/>
<circle cx="39.06" cy="44.14" r="5" style="fill:red;stroke:red;" />
		</g>
		<g id="kvg:05ba2-g5" kvg:element="口">
		</g>
	</g>
</g>
</g></svg>