<?xml version="1.0" encoding="UTF-8"?>
  <!DOCTYPE svg PUBLIC "-//W3C//DTD SVG 1.0//EN" "http://www.w3.org/TR/2001/REC-SVG-20010904/DTD/svg10.dtd" [
  <!ATTLIST g xmlns:kvg CDATA #FIXED "http://kanjivg.tagaini.net" kvg:element CDATA #IMPLIED kvg:variant CDATA #IMPLIED kvg:partial CDATA #IMPLIED kvg:original CDATA #IMPLIED kvg:part CDATA #IMPLIED kvg:number CDATA #IMPLIED kvg:tradForm CDATA #IMPLIED kvg:radicalForm CDATA #IMPLIED kvg:position CDATA #IMPLIED kvg:radical CDATA #IMPLIED kvg:phon CDATA #IMPLIED >
  <!ATTLIST path xmlns:kvg CDATA #FIXED "http://kanjivg.tagaini.net" kvg:type CDATA #IMPLIED >
  ]>
  <svg xmlns="http://www.w3.org/2000/svg" width="109" height="109" viewBox="0 0 109 109">
<g id="kvg:StrokePaths_05bb3" style="fill:none;stroke:#000000;stroke-width:3;stroke-linecap:round;stroke-linejoin:round;">
<g id="kvg:05bb3" kvg:element="害">
	<g id="kvg:05bb3-g1" kvg:element="宀" kvg:position="top" kvg:radical="general">
		<path style="fill:none;stroke:#808080" id="kvg:05bb3-s1" kvg:type="㇑a" d="M52.34,10c1.14,1.14,1.77,2.5,1.77,3.96c0,3.11-0.08,3.9-0.08,6.73"/>
		<g id="kvg:05bb3-g2" kvg:element="冖">
			<path style="fill:none;stroke:#808080" id="kvg:05bb3-s2" kvg:type="㇔" d="M27.25,22.62c0,3.71-3.18,13.9-4.62,16.38"/>
			<path style="fill:none;stroke:#808080" id="kvg:05bb3-s3" kvg:type="㇖b" d="M27.9,24.63c10.6-1.26,39.97-4.63,54.87-4.91c9.48-0.18,1.48,6.28-1.61,8.4"/>
		</g>
	</g>
	<g id="kvg:05bb3-g3" kvg:position="bottom">
		<g id="kvg:05bb3-g4" kvg:element="龶" kvg:position="top">
			<path style="fill:none;stroke:#808080" id="kvg:05bb3-s4" kvg:type="㇐" d="M32.75,39.89c2.04,0.66,4.32,0.42,6.4,0.21c7.57-0.76,20.98-2.56,28.73-3.1c2.05-0.14,4.22-0.38,6.24,0.01"/>
			<path style="fill:none;stroke-width:4;" id="kvg:05bb3-s5" kvg:type="㇑a" d="M52.37,28c0.88,0.88,1.46,2.38,1.46,3.75c0,1.02-0.08,21.62-0.08,30.5"/>
<circle cx="52.37" cy="28" r="5" style="fill:red;stroke:red;" />
		</g>
		<g id="kvg:05bb3-g5" kvg:element="口" kvg:position="bottom">
		</g>
	</g>
</g>
</g></svg>