<?xml version="1.0" encoding="UTF-8"?>
  <!DOCTYPE svg PUBLIC "-//W3C//DTD SVG 1.0//EN" "http://www.w3.org/TR/2001/REC-SVG-20010904/DTD/svg10.dtd" [
  <!ATTLIST g xmlns:kvg CDATA #FIXED "http://kanjivg.tagaini.net" kvg:element CDATA #IMPLIED kvg:variant CDATA #IMPLIED kvg:partial CDATA #IMPLIED kvg:original CDATA #IMPLIED kvg:part CDATA #IMPLIED kvg:number CDATA #IMPLIED kvg:tradForm CDATA #IMPLIED kvg:radicalForm CDATA #IMPLIED kvg:position CDATA #IMPLIED kvg:radical CDATA #IMPLIED kvg:phon CDATA #IMPLIED >
  <!ATTLIST path xmlns:kvg CDATA #FIXED "http://kanjivg.tagaini.net" kvg:type CDATA #IMPLIED >
  ]>
  <svg xmlns="http://www.w3.org/2000/svg" width="109" height="109" viewBox="0 0 109 109">
<g id="kvg:StrokePaths_05bcc" style="fill:none;stroke:#000000;stroke-width:3;stroke-linecap:round;stroke-linejoin:round;">
<g id="kvg:05bcc" kvg:element="富">
	<g id="kvg:05bcc-g1" kvg:element="宀" kvg:position="top" kvg:radical="general">
		<path style="fill:none;stroke:#808080" id="kvg:05bcc-s1" kvg:type="㇑a" d="M52.77,11.69c0.83,0.83,1.44,2.06,1.44,3.56c0,3.42,0.16,5,0.16,7.85"/>
		<g id="kvg:05bcc-g2" kvg:element="冖">
			<path style="fill:none;stroke:#808080" id="kvg:05bcc-s2" kvg:type="㇔" d="M22.35,23.59c0,3.73-3.85,13.98-5.6,16.47"/>
			<path style="fill:none;stroke:#808080" id="kvg:05bcc-s3" kvg:type="㇖b" d="M23.04,27.06c17.21-1.43,48.33-4.68,62.58-5.3c12.38-0.53,4.13,6.49,0.08,9.13"/>
		</g>
	</g>
	<g id="kvg:05bcc-g3" kvg:element="畐" kvg:position="bottom" kvg:phon="畐">
		<g id="kvg:05bcc-g4" kvg:element="一">
			<path style="fill:none;stroke:#808080" id="kvg:05bcc-s4" kvg:type="㇐" d="M36,36.06c1.62,0.44,4.29,0.39,6,0.18c6.51-0.78,18.71-2.59,25.01-2.92c1.89-0.1,3.61-0.45,5.49,0.01"/>
		</g>
		<g id="kvg:05bcc-g5" kvg:element="口">
			<path style="fill:none;stroke-width:4;" id="kvg:05bcc-s5" kvg:type="㇑" d="M36.75,45.64c0.79,0.43,1.26,1.09,1.41,1.98c0.77,2.23,1.45,5.83,2.05,9.09c0.21,1.15,0.42,2.26,0.61,3.25"/>
<circle cx="36.75" cy="45.64" r="5" style="fill:red;stroke:red;" />
		</g>
		<g id="kvg:05bcc-g6" kvg:element="田">
		</g>
	</g>
</g>
</g></svg>