<?xml version="1.0" encoding="UTF-8"?>
  <!DOCTYPE svg PUBLIC "-//W3C//DTD SVG 1.0//EN" "http://www.w3.org/TR/2001/REC-SVG-20010904/DTD/svg10.dtd" [
  <!ATTLIST g xmlns:kvg CDATA #FIXED "http://kanjivg.tagaini.net" kvg:element CDATA #IMPLIED kvg:variant CDATA #IMPLIED kvg:partial CDATA #IMPLIED kvg:original CDATA #IMPLIED kvg:part CDATA #IMPLIED kvg:number CDATA #IMPLIED kvg:tradForm CDATA #IMPLIED kvg:radicalForm CDATA #IMPLIED kvg:position CDATA #IMPLIED kvg:radical CDATA #IMPLIED kvg:phon CDATA #IMPLIED >
  <!ATTLIST path xmlns:kvg CDATA #FIXED "http://kanjivg.tagaini.net" kvg:type CDATA #IMPLIED >
  ]>
  <svg xmlns="http://www.w3.org/2000/svg" width="109" height="109" viewBox="0 0 109 109">
<g id="kvg:StrokePaths_05bc4" style="fill:none;stroke:#000000;stroke-width:3;stroke-linecap:round;stroke-linejoin:round;">
<g id="kvg:05bc4" kvg:element="寄">
	<g id="kvg:05bc4-g1" kvg:element="宀" kvg:position="top" kvg:radical="general">
		<path style="fill:none;stroke:#808080" id="kvg:05bc4-s1" kvg:type="㇑a" d="M52.38,10.69c1.09,1.09,1.46,2.69,1.46,3.9c0,3.08-0.05,3.82-0.04,6.63"/>
		<g id="kvg:05bc4-g2" kvg:element="冖">
			<path style="fill:none;stroke:#808080" id="kvg:05bc4-s2" kvg:type="㇔" d="M27.12,23.38c0.01,2.92-3.09,11.02-4.5,13"/>
			<path style="fill:none;stroke:#808080" id="kvg:05bc4-s3" kvg:type="㇖b" d="M27.66,25.2c10.21-1.83,42.34-5.33,52.3-5.78c9.34-0.42,2.24,6.1-0.07,7.84"/>
		</g>
	</g>
	<g id="kvg:05bc4-g3" kvg:element="奇" kvg:position="bottom" kvg:phon="奇">
		<g id="kvg:05bc4-g4" kvg:element="大" kvg:variant="true" kvg:position="top">
			<path style="fill:none;stroke:#808080" id="kvg:05bc4-s4" kvg:type="㇐" d="M33.34,35.83c1.57,0.31,3.34,0.01,4.9-0.15c7.78-0.82,18.73-2.65,26.65-3.45c2.08-0.21,4.14-0.3,6.23-0.3"/>
			<path style="fill:none;stroke:#808080" id="kvg:05bc4-s5" kvg:type="㇒" d="M51.17,25.5c0.27,0.35,0.46,1.5,0.4,2.24C50.62,38.62,44.5,47.62,34.66,51"/>
			<path style="fill:none;stroke-width:4;" id="kvg:05bc4-s6" kvg:type="㇔/㇏" d="M52.88,37.75c6.04,2.21,13.03,5.78,16.72,9.08"/>
<circle cx="52.88" cy="37.75" r="5" style="fill:red;stroke:red;" />
		</g>
		<g id="kvg:05bc4-g5" kvg:element="可" kvg:position="bottom">
			<g id="kvg:05bc4-g6" kvg:element="丁" kvg:part="1">
				<g id="kvg:05bc4-g7" kvg:element="一">
				</g>
			</g>
			<g id="kvg:05bc4-g8" kvg:element="口">
			</g>
			<g id="kvg:05bc4-g9" kvg:element="丁" kvg:part="2">
				<g id="kvg:05bc4-g10" kvg:element="亅">
				</g>
			</g>
		</g>
	</g>
</g>
</g></svg>