<?xml version="1.0" encoding="UTF-8"?>
  <!DOCTYPE svg PUBLIC "-//W3C//DTD SVG 1.0//EN" "http://www.w3.org/TR/2001/REC-SVG-20010904/DTD/svg10.dtd" [
  <!ATTLIST g xmlns:kvg CDATA #FIXED "http://kanjivg.tagaini.net" kvg:element CDATA #IMPLIED kvg:variant CDATA #IMPLIED kvg:partial CDATA #IMPLIED kvg:original CDATA #IMPLIED kvg:part CDATA #IMPLIED kvg:number CDATA #IMPLIED kvg:tradForm CDATA #IMPLIED kvg:radicalForm CDATA #IMPLIED kvg:position CDATA #IMPLIED kvg:radical CDATA #IMPLIED kvg:phon CDATA #IMPLIED >
  <!ATTLIST path xmlns:kvg CDATA #FIXED "http://kanjivg.tagaini.net" kvg:type CDATA #IMPLIED >
  ]>
  <svg xmlns="http://www.w3.org/2000/svg" width="109" height="109" viewBox="0 0 109 109">
<g id="kvg:StrokePaths_05bc6" style="fill:none;stroke:#000000;stroke-width:3;stroke-linecap:round;stroke-linejoin:round;">
<g id="kvg:05bc6" kvg:element="密">
	<g id="kvg:05bc6-g1" kvg:element="宓" kvg:position="top" kvg:phon="宀+必">
		<g id="kvg:05bc6-g2" kvg:element="宀" kvg:radical="general">
			<path style="fill:none;stroke:#808080" id="kvg:05bc6-s1" kvg:type="㇑a" d="M52.9,9.29c1.15,1.15,1.43,2.92,1.4,4.16c-0.09,3.92-0.09,6.35-0.09,9.92"/>
			<g id="kvg:05bc6-g3" kvg:element="冖">
				<path style="fill:none;stroke:#808080" id="kvg:05bc6-s2" kvg:type="㇔" d="M22.62,24.35c0,3.5-2.76,13.25-4.12,15.63"/>
				<path style="fill:none;stroke:#808080" id="kvg:05bc6-s3" kvg:type="㇖b" d="M23.44,27.63c13.43-1.51,42.31-5.51,62.55-6.69c12.01-0.7,2.54,7.1-0.44,9.35"/>
			</g>
		</g>
		<g id="kvg:05bc6-g4" kvg:element="必">
			<g id="kvg:05bc6-g5" kvg:element="心" kvg:part="1" kvg:variant="true">
				<path style="fill:none;stroke:#808080" id="kvg:05bc6-s4" kvg:type="㇔" d="M47.19,34.09c1.43,2.44,5.19,7.13,6.08,3.69"/>
			</g>
			<g id="kvg:05bc6-g6" kvg:element="丿">
				<path style="fill:none;stroke:#808080" id="kvg:05bc6-s5" kvg:type="㇒" d="M68.05,31.81c0.11,0.84,0.13,2.24-0.46,3.38c-6.21,11.93-20.46,25.68-45.33,36.56"/>
			</g>
			<g id="kvg:05bc6-g7" kvg:element="心" kvg:part="2" kvg:variant="true">
				<path style="fill:none;stroke:#808080" id="kvg:05bc6-s6" kvg:type="㇃" d="M35.99,37.54C43.5,53,51.75,64,78.83,63.69c9.55-0.11,7.22-3.81,3.26-7.05"/>
				<path style="fill:none;stroke-width:4;" id="kvg:05bc6-s7" kvg:type="㇔" d="M27.75,45.38c0.28,2.02-2.8,10.92-5.04,14.28"/>
<circle cx="27.75" cy="45.38" r="5" style="fill:red;stroke:red;" />
			</g>
		</g>
	</g>
	<g id="kvg:05bc6-g8" kvg:element="山" kvg:position="bottom">
	</g>
</g>
</g></svg>