<?xml version="1.0" encoding="UTF-8"?>
  <!DOCTYPE svg PUBLIC "-//W3C//DTD SVG 1.0//EN" "http://www.w3.org/TR/2001/REC-SVG-20010904/DTD/svg10.dtd" [
  <!ATTLIST g xmlns:kvg CDATA #FIXED "http://kanjivg.tagaini.net" kvg:element CDATA #IMPLIED kvg:variant CDATA #IMPLIED kvg:partial CDATA #IMPLIED kvg:original CDATA #IMPLIED kvg:part CDATA #IMPLIED kvg:number CDATA #IMPLIED kvg:tradForm CDATA #IMPLIED kvg:radicalForm CDATA #IMPLIED kvg:position CDATA #IMPLIED kvg:radical CDATA #IMPLIED kvg:phon CDATA #IMPLIED >
  <!ATTLIST path xmlns:kvg CDATA #FIXED "http://kanjivg.tagaini.net" kvg:type CDATA #IMPLIED >
  ]>
  <svg xmlns="http://www.w3.org/2000/svg" width="109" height="109" viewBox="0 0 109 109">
<g id="kvg:StrokePaths_05bdf" style="fill:none;stroke:#000000;stroke-width:3;stroke-linecap:round;stroke-linejoin:round;">
<g id="kvg:05bdf" kvg:element="察">
	<g id="kvg:05bdf-g1" kvg:element="宀" kvg:position="top" kvg:radical="general">
		<path style="fill:none;stroke:#808080" id="kvg:05bdf-s1" kvg:type="㇑a" d="M53.51,8.54c1.1,1.1,1.57,2.59,1.57,3.93c0,3.78-0.1,4.15-0.1,7.65"/>
		<g id="kvg:05bdf-g2" kvg:element="冖">
			<path style="fill:none;stroke:#808080" id="kvg:05bdf-s2" kvg:type="㇔" d="M20.9,21.83c0,3.77-3.71,14.12-5.4,16.64"/>
			<path style="fill:none;stroke:#808080" id="kvg:05bdf-s3" kvg:type="㇖b" d="M21.7,24.43c20.3-1.93,43.55-4.55,63.93-4.78c12.12-0.14,2.62,6.48-0.44,8.74"/>
		</g>
	</g>
	<g id="kvg:05bdf-g3" kvg:element="祭" kvg:position="bottom" kvg:phon="祭">
		<g id="kvg:05bdf-g4" kvg:position="top">
			<g id="kvg:05bdf-g5" kvg:element="月" kvg:variant="true">
				<path style="fill:none;stroke:#808080" id="kvg:05bdf-s4" kvg:type="㇒" d="M33.25,32.75c0.38,1.25,0.08,2.54-0.75,3.64c-4.12,5.48-12,13.12-14.5,15.21"/>
				<path style="fill:none;stroke:#808080" id="kvg:05bdf-s5" kvg:type="㇇a" d="M35,34.69c2.88-0.57,5.75-1.32,9-2.56c3.07-1.17,4.44,0.8,3.5,3.03C43.25,45.25,31.75,59.75,14,69.45"/>
				<path style="fill:none;stroke-width:4;" id="kvg:05bdf-s6" kvg:type="㇔/㇐" d="M31.5,43c0.82,0.32,3.11,2.26,4.75,4.19"/>
<circle cx="31.5" cy="43" r="5" style="fill:red;stroke:red;" />
			</g>
		</g>
		<g id="kvg:05bdf-g6" kvg:element="示" kvg:position="bottom">
		</g>
	</g>
</g>
</g></svg>