<?xml version="1.0" encoding="UTF-8"?>
  <!DOCTYPE svg PUBLIC "-//W3C//DTD SVG 1.0//EN" "http://www.w3.org/TR/2001/REC-SVG-20010904/DTD/svg10.dtd" [
  <!ATTLIST g xmlns:kvg CDATA #FIXED "http://kanjivg.tagaini.net" kvg:element CDATA #IMPLIED kvg:variant CDATA #IMPLIED kvg:partial CDATA #IMPLIED kvg:original CDATA #IMPLIED kvg:part CDATA #IMPLIED kvg:number CDATA #IMPLIED kvg:tradForm CDATA #IMPLIED kvg:radicalForm CDATA #IMPLIED kvg:position CDATA #IMPLIED kvg:radical CDATA #IMPLIED kvg:phon CDATA #IMPLIED >
  <!ATTLIST path xmlns:kvg CDATA #FIXED "http://kanjivg.tagaini.net" kvg:type CDATA #IMPLIED >
  ]>
  <svg xmlns="http://www.w3.org/2000/svg" width="109" height="109" viewBox="0 0 109 109">
<g id="kvg:StrokePaths_05c0e" style="fill:none;stroke:#000000;stroke-width:3;stroke-linecap:round;stroke-linejoin:round;">
<g id="kvg:05c0e" kvg:element="導">
	<g id="kvg:05c0e-g1" kvg:element="道" kvg:position="top" kvg:phon="道">
		<g id="kvg:05c0e-g2" kvg:element="首" kvg:position="nyoc">
			<path style="fill:none;stroke:#808080" id="kvg:05c0e-s1" kvg:type="㇔" d="M51.56,12.37c1.82,1.37,4.71,5.63,5.17,7.75"/>
			<path style="fill:none;stroke:#808080" id="kvg:05c0e-s2" kvg:type="㇒" d="M76.38,11.03c0.09,0.57-0.03,1.08-0.37,1.54c-1.02,2.13-1.78,3.75-4.41,6.85"/>
			<path style="fill:none;stroke:#808080" id="kvg:05c0e-s3" kvg:type="㇐" d="M42.2,23.77c1.88,0.52,4.02,0.38,5.93,0.21c9.12-0.85,20.99-2.51,36-3.03c1.8-0.06,3.57-0.03,5.35,0.26"/>
			<g id="kvg:05c0e-g3" kvg:element="自">
				<path style="fill:none;stroke:#808080" id="kvg:05c0e-s4" kvg:type="㇒" d="M63.16,24.22c0.23,0.07-0.21,1.27-0.35,1.49c-0.93,1.41-1.88,3.32-4.06,5.17"/>
				<g id="kvg:05c0e-g4" kvg:element="目">
					<path style="fill:none;stroke:#808080" id="kvg:05c0e-s5" kvg:type="㇑" d="M51.89,32.64c0.61,0.61,1.05,1.49,1.05,2.6c0,0.58-0.14,10.11-0.07,17.27c0.01,1.31,0.04,2.54,0.07,3.6"/>
					<path style="fill:none;stroke:#808080" id="kvg:05c0e-s6" kvg:type="㇕a" d="M53.66,33.35c2.42-0.09,20.37-1.95,22.58-2.06c1.84-0.09,2.89,1.33,2.89,2.87c0,2.06,0.03,10.75,0.04,17.33c0,1.27,0,2.46,0,3.5"/>
					<path style="fill:none;stroke:#808080" id="kvg:05c0e-s7" kvg:type="㇐a" d="M54.37,40.04c4.78-0.12,19.55-1.36,23.44-1.36"/>
					<path style="fill:none;stroke:#808080" id="kvg:05c0e-s8" kvg:type="㇐a" d="M54.07,47.51c6.42-0.29,17.72-1.55,23.95-1.55"/>
					<path style="fill:none;stroke:#808080" id="kvg:05c0e-s9" kvg:type="㇐a" d="M54.05,54.26c7.08-0.39,19.1-1.03,23.69-1.03"/>
				</g>
			</g>
		</g>
		<g id="kvg:05c0e-g5" kvg:element="⻌" kvg:original="辶" kvg:position="nyo">
			<path style="fill:none;stroke-width:4;" id="kvg:05c0e-s10" kvg:type="㇔" d="M23.18,16.41c3.49,1.4,8.26,5.27,9.13,7.44"/>
<circle cx="23.18" cy="16.41" r="5" style="fill:red;stroke:red;" />
		</g>
	</g>
	<g id="kvg:05c0e-g6" kvg:element="寸" kvg:position="bottom" kvg:radical="general">
	</g>
</g>
</g></svg>