<?xml version="1.0" encoding="UTF-8"?>
  <!DOCTYPE svg PUBLIC "-//W3C//DTD SVG 1.0//EN" "http://www.w3.org/TR/2001/REC-SVG-20010904/DTD/svg10.dtd" [
  <!ATTLIST g xmlns:kvg CDATA #FIXED "http://kanjivg.tagaini.net" kvg:element CDATA #IMPLIED kvg:variant CDATA #IMPLIED kvg:partial CDATA #IMPLIED kvg:original CDATA #IMPLIED kvg:part CDATA #IMPLIED kvg:number CDATA #IMPLIED kvg:tradForm CDATA #IMPLIED kvg:radicalForm CDATA #IMPLIED kvg:position CDATA #IMPLIED kvg:radical CDATA #IMPLIED kvg:phon CDATA #IMPLIED >
  <!ATTLIST path xmlns:kvg CDATA #FIXED "http://kanjivg.tagaini.net" kvg:type CDATA #IMPLIED >
  ]>
  <svg xmlns="http://www.w3.org/2000/svg" width="109" height="109" viewBox="0 0 109 109">
<g id="kvg:StrokePaths_05c0a" style="fill:none;stroke:#000000;stroke-width:3;stroke-linecap:round;stroke-linejoin:round;">
<g id="kvg:05c0a" kvg:element="尊">
	<g id="kvg:05c0a-g1" kvg:element="酋" kvg:position="top">
		<g id="kvg:05c0a-g2" kvg:element="八" kvg:variant="true" kvg:position="top" kvg:radical="nelson">
			<g id="kvg:05c0a-g3" kvg:position="left">
				<path style="fill:none;stroke:#808080" id="kvg:05c0a-s1" kvg:type="㇔" d="M32,10.69c3.98,1.87,10.29,7.69,11.28,10.6"/>
			</g>
			<g id="kvg:05c0a-g4" kvg:position="right">
				<path style="fill:none;stroke:#808080" id="kvg:05c0a-s2" kvg:type="㇒" d="M67.48,8.46c0.05,0.85,0,1.38-0.35,2.16c-1.27,2.86-2.97,5.84-7.06,10.86"/>
			</g>
		</g>
		<g id="kvg:05c0a-g5" kvg:element="酉" kvg:position="bottom">
			<g id="kvg:05c0a-g6" kvg:element="西" kvg:part="1" kvg:original="襾">
				<path style="fill:none;stroke:#808080" id="kvg:05c0a-s3" kvg:type="㇐" d="M18.4,26.65c3.1,0.54,6.13,0.41,8.72,0.13c12.5-1.34,41.79-3.69,54.75-4.11c2.58-0.08,5.19-0.22,7.72,0.39"/>
				<path style="fill:none;stroke-width:4;" id="kvg:05c0a-s4" kvg:type="㇑" d="M29.85,36.63c0.92,0.92,1.14,2.06,1.14,3.54c0,0.56-0.01,12.88,0,21.14c0,1.69,0,3.22,0,4.43"/>
<circle cx="29.85" cy="36.63" r="5" style="fill:red;stroke:red;" />
			</g>
			<g id="kvg:05c0a-g7" kvg:element="一">
			</g>
			<g id="kvg:05c0a-g8" kvg:element="西" kvg:part="2" kvg:original="襾">
			</g>
		</g>
	</g>
	<g id="kvg:05c0a-g9" kvg:element="寸" kvg:position="bottom" kvg:radical="tradit">
	</g>
</g>
</g></svg>