<?xml version="1.0" encoding="UTF-8"?>
  <!DOCTYPE svg PUBLIC "-//W3C//DTD SVG 1.0//EN" "http://www.w3.org/TR/2001/REC-SVG-20010904/DTD/svg10.dtd" [
  <!ATTLIST g xmlns:kvg CDATA #FIXED "http://kanjivg.tagaini.net" kvg:element CDATA #IMPLIED kvg:variant CDATA #IMPLIED kvg:partial CDATA #IMPLIED kvg:original CDATA #IMPLIED kvg:part CDATA #IMPLIED kvg:number CDATA #IMPLIED kvg:tradForm CDATA #IMPLIED kvg:radicalForm CDATA #IMPLIED kvg:position CDATA #IMPLIED kvg:radical CDATA #IMPLIED kvg:phon CDATA #IMPLIED >
  <!ATTLIST path xmlns:kvg CDATA #FIXED "http://kanjivg.tagaini.net" kvg:type CDATA #IMPLIED >
  ]>
  <svg xmlns="http://www.w3.org/2000/svg" width="109" height="109" viewBox="0 0 109 109">
<g id="kvg:StrokePaths_05c02" style="fill:none;stroke:#000000;stroke-width:3;stroke-linecap:round;stroke-linejoin:round;">
<g id="kvg:05c02" kvg:element="専">
	<g id="kvg:05c02-g1" kvg:position="top" kvg:phon="2+由">
		<path style="fill:none;stroke:#808080" id="kvg:05c02-s1" kvg:type="㇐" d="M22.75,21.79c2.62,0.59,5.85,0.36,8.37,0.05C46,20,66.09,17.76,77.25,17.2c2.86-0.15,5.95-0.27,8.75,0.41"/>
		<g id="kvg:05c02-g2" kvg:element="由">
			<g id="kvg:05c02-g3" kvg:element="日" kvg:partial="true">
				<path style="fill:none;stroke:#808080" id="kvg:05c02-s2" kvg:type="㇑" d="M27.63,33.11c0.94,0.94,1.82,2,2.08,3.32c1.41,7.2,2.39,11.9,3.72,20.05c0.25,1.5,0.49,3.05,0.72,4.65"/>
				<path style="fill:none;stroke:#808080" id="kvg:05c02-s3" kvg:type="㇕a" d="M29.83,34.3c14.67-2.55,33.59-4.51,43.79-5.62c4.62-0.5,6.83,0.22,6.12,5.32c-0.62,4.39-2.02,10.63-3.58,17.54c-0.32,1.42-0.65,2.85-0.98,4.29"/>
				<path style="fill:none;stroke:#808080" id="kvg:05c02-s4" kvg:type="㇐a" d="M32.69,45.89c9.44-1.64,27.06-4.01,44.68-5.46"/>
				<path style="fill:none;stroke:#808080" id="kvg:05c02-s5" kvg:type="㇐a" d="M35.05,57.91c11.95-1.53,26.91-3.37,39.47-4.24"/>
			</g>
			<g id="kvg:05c02-g4" kvg:element="丨">
				<path style="fill:none;stroke-width:4;" id="kvg:05c02-s6" kvg:type="㇑a" d="M52.29,10.5c0.79,0.79,1.44,2.28,1.44,3.78c0.04,14.8-0.02,36.15-0.02,40.01"/>
<circle cx="52.29" cy="10.5" r="5" style="fill:red;stroke:red;" />
			</g>
		</g>
	</g>
	<g id="kvg:05c02-g5" kvg:element="寸" kvg:position="bottom" kvg:radical="general">
	</g>
</g>
</g></svg>