<?xml version="1.0" encoding="UTF-8"?>
  <!DOCTYPE svg PUBLIC "-//W3C//DTD SVG 1.0//EN" "http://www.w3.org/TR/2001/REC-SVG-20010904/DTD/svg10.dtd" [
  <!ATTLIST g xmlns:kvg CDATA #FIXED "http://kanjivg.tagaini.net" kvg:element CDATA #IMPLIED kvg:variant CDATA #IMPLIED kvg:partial CDATA #IMPLIED kvg:original CDATA #IMPLIED kvg:part CDATA #IMPLIED kvg:number CDATA #IMPLIED kvg:tradForm CDATA #IMPLIED kvg:radicalForm CDATA #IMPLIED kvg:position CDATA #IMPLIED kvg:radical CDATA #IMPLIED kvg:phon CDATA #IMPLIED >
  <!ATTLIST path xmlns:kvg CDATA #FIXED "http://kanjivg.tagaini.net" kvg:type CDATA #IMPLIED >
  ]>
  <svg xmlns="http://www.w3.org/2000/svg" width="109" height="109" viewBox="0 0 109 109">
<g id="kvg:StrokePaths_05c0e" style="fill:none;stroke:#000000;stroke-width:3;stroke-linecap:round;stroke-linejoin:round;">
<g id="kvg:05c0e" kvg:element="導">
	<g id="kvg:05c0e-g1" kvg:element="道" kvg:position="top" kvg:phon="道">
		<g id="kvg:05c0e-g2" kvg:element="首" kvg:position="nyoc">
			<path style="fill:none;stroke:#808080" id="kvg:05c0e-s1" kvg:type="㇔" d="M51.56,12.37c1.82,1.37,4.71,5.63,5.17,7.75"/>
			<path style="fill:none;stroke:#808080" id="kvg:05c0e-s2" kvg:type="㇒" d="M76.38,11.03c0.09,0.57-0.03,1.08-0.37,1.54c-1.02,2.13-1.78,3.75-4.41,6.85"/>
			<path style="fill:none;stroke:#808080" id="kvg:05c0e-s3" kvg:type="㇐" d="M42.2,23.77c1.88,0.52,4.02,0.38,5.93,0.21c9.12-0.85,20.99-2.51,36-3.03c1.8-0.06,3.57-0.03,5.35,0.26"/>
			<g id="kvg:05c0e-g3" kvg:element="自">
				<path style="fill:none;stroke-width:4;" id="kvg:05c0e-s4" kvg:type="㇒" d="M63.16,24.22c0.23,0.07-0.21,1.27-0.35,1.49c-0.93,1.41-1.88,3.32-4.06,5.17"/>
<circle cx="63.16" cy="24.22" r="5" style="fill:red;stroke:red;" />
				<g id="kvg:05c0e-g4" kvg:element="目">
				</g>
			</g>
		</g>
		<g id="kvg:05c0e-g5" kvg:element="⻌" kvg:original="辶" kvg:position="nyo">
		</g>
	</g>
	<g id="kvg:05c0e-g6" kvg:element="寸" kvg:position="bottom" kvg:radical="general">
	</g>
</g>
</g></svg>