<?xml version="1.0" encoding="UTF-8"?>
  <!DOCTYPE svg PUBLIC "-//W3C//DTD SVG 1.0//EN" "http://www.w3.org/TR/2001/REC-SVG-20010904/DTD/svg10.dtd" [
  <!ATTLIST g xmlns:kvg CDATA #FIXED "http://kanjivg.tagaini.net" kvg:element CDATA #IMPLIED kvg:variant CDATA #IMPLIED kvg:partial CDATA #IMPLIED kvg:original CDATA #IMPLIED kvg:part CDATA #IMPLIED kvg:number CDATA #IMPLIED kvg:tradForm CDATA #IMPLIED kvg:radicalForm CDATA #IMPLIED kvg:position CDATA #IMPLIED kvg:radical CDATA #IMPLIED kvg:phon CDATA #IMPLIED >
  <!ATTLIST path xmlns:kvg CDATA #FIXED "http://kanjivg.tagaini.net" kvg:type CDATA #IMPLIED >
  ]>
  <svg xmlns="http://www.w3.org/2000/svg" width="109" height="109" viewBox="0 0 109 109">
<g id="kvg:StrokePaths_05c45" style="fill:none;stroke:#000000;stroke-width:3;stroke-linecap:round;stroke-linejoin:round;">
<g id="kvg:05c45" kvg:element="居">
	<g id="kvg:05c45-g1" kvg:element="尸" kvg:position="tare" kvg:radical="general">
		<path style="fill:none;stroke:#808080" id="kvg:05c45-s1" kvg:type="㇕c" d="M30.06,16.97c1.68,0.56,4.2,0.81,5.99,0.7c8.45-0.55,28.33-3.08,39.44-4.04c4.38-0.38,6.13,1.12,5.39,4.2c-0.91,3.75-2,6.55-3.66,11.98"/>
		<path style="fill:none;stroke:#808080" id="kvg:05c45-s2" kvg:type="㇐b" d="M33.78,34.98c7.47-0.73,24.95-2.48,38.11-3.62c2.52-0.22,4.98-0.49,7.81-0.37"/>
		<path style="fill:none;stroke:#808080" id="kvg:05c45-s3" kvg:type="㇒" d="M32.07,17.9c0.83,0.83,1.23,1.85,1.21,3.08C32.88,50.88,27.75,74.25,13.75,89"/>
	</g>
	<g id="kvg:05c45-g2" kvg:element="古" kvg:position="tarec" kvg:phon="古">
		<g id="kvg:05c45-g3" kvg:element="十" kvg:position="top">
			<path style="fill:none;stroke-width:4;" id="kvg:05c45-s4" kvg:type="㇐" d="M35.04,55.42c2.83,0.58,5.54,0.58,8.19,0.27c12.15-1.44,29.34-3.5,41.23-4.12c2.74-0.14,5.2-0.08,7.89,0.38"/>
<circle cx="35.04" cy="55.42" r="5" style="fill:red;stroke:red;" />
		</g>
		<g id="kvg:05c45-g4" kvg:element="口" kvg:position="bottom">
		</g>
	</g>
</g>
</g></svg>