<?xml version="1.0" encoding="UTF-8"?>
  <!DOCTYPE svg PUBLIC "-//W3C//DTD SVG 1.0//EN" "http://www.w3.org/TR/2001/REC-SVG-20010904/DTD/svg10.dtd" [
  <!ATTLIST g xmlns:kvg CDATA #FIXED "http://kanjivg.tagaini.net" kvg:element CDATA #IMPLIED kvg:variant CDATA #IMPLIED kvg:partial CDATA #IMPLIED kvg:original CDATA #IMPLIED kvg:part CDATA #IMPLIED kvg:number CDATA #IMPLIED kvg:tradForm CDATA #IMPLIED kvg:radicalForm CDATA #IMPLIED kvg:position CDATA #IMPLIED kvg:radical CDATA #IMPLIED kvg:phon CDATA #IMPLIED >
  <!ATTLIST path xmlns:kvg CDATA #FIXED "http://kanjivg.tagaini.net" kvg:type CDATA #IMPLIED >
  ]>
  <svg xmlns="http://www.w3.org/2000/svg" width="109" height="109" viewBox="0 0 109 109">
<g id="kvg:StrokePaths_05c4b" style="fill:none;stroke:#000000;stroke-width:3;stroke-linecap:round;stroke-linejoin:round;">
<g id="kvg:05c4b" kvg:element="屋">
	<g id="kvg:05c4b-g1" kvg:element="尸" kvg:position="tare" kvg:radical="general">
		<path style="fill:none;stroke:#808080" id="kvg:05c4b-s1" kvg:type="㇕c" d="M26.66,20.23c1.78,0.56,3.23,0.59,5.11,0.45c10.72-0.8,40.99-3.82,45.07-4.27c2.66-0.29,4.29,1.12,3.91,3.07c-0.29,1.46-1.84,6.27-2.84,9.41c-0.41,1.29-0.73,2.3-0.83,2.68"/>
		<path style="fill:none;stroke:#808080" id="kvg:05c4b-s2" kvg:type="㇐b" d="M30.94,35.74c4.26-0.16,31.44-2.36,43.94-3.55c2.47-0.23,3.62-0.19,5.26,0.06"/>
		<path style="fill:none;stroke-width:4;" id="kvg:05c4b-s3" kvg:type="㇒" d="M29.13,21.17c0.54,0.52,1.43,1.91,1.41,3.96C30.25,60,24,80.12,13.25,92.73"/>
<circle cx="29.13" cy="21.17" r="5" style="fill:red;stroke:red;" />
	</g>
	<g id="kvg:05c4b-g2" kvg:element="至" kvg:position="tarec">
		<g id="kvg:05c4b-g3" kvg:element="土">
		</g>
	</g>
</g>
</g></svg>