<?xml version="1.0" encoding="UTF-8"?>
  <!DOCTYPE svg PUBLIC "-//W3C//DTD SVG 1.0//EN" "http://www.w3.org/TR/2001/REC-SVG-20010904/DTD/svg10.dtd" [
  <!ATTLIST g xmlns:kvg CDATA #FIXED "http://kanjivg.tagaini.net" kvg:element CDATA #IMPLIED kvg:variant CDATA #IMPLIED kvg:partial CDATA #IMPLIED kvg:original CDATA #IMPLIED kvg:part CDATA #IMPLIED kvg:number CDATA #IMPLIED kvg:tradForm CDATA #IMPLIED kvg:radicalForm CDATA #IMPLIED kvg:position CDATA #IMPLIED kvg:radical CDATA #IMPLIED kvg:phon CDATA #IMPLIED >
  <!ATTLIST path xmlns:kvg CDATA #FIXED "http://kanjivg.tagaini.net" kvg:type CDATA #IMPLIED >
  ]>
  <svg xmlns="http://www.w3.org/2000/svg" width="109" height="109" viewBox="0 0 109 109">
<g id="kvg:StrokePaths_05c5e" style="fill:none;stroke:#000000;stroke-width:3;stroke-linecap:round;stroke-linejoin:round;">
<g id="kvg:05c5e" kvg:element="属">
	<g id="kvg:05c5e-g1" kvg:element="尸" kvg:position="tare" kvg:radical="general">
		<path style="fill:none;stroke:#808080" id="kvg:05c5e-s1" kvg:type="㇕c" d="M26.18,16.65c1.91,0.73,4.13,0.88,6.16,0.73C43.3,16.57,75,13.25,79.37,12.65c2.88-0.4,4.17,1.25,3.13,3.97c-0.62,1.63-1.62,5.01-2.62,8.19"/>
		<path style="fill:none;stroke:#808080" id="kvg:05c5e-s2" kvg:type="㇐b" d="M31.4,30.92c6.85-0.67,35.16-3.69,46.63-4.81c1.72-0.17,3.03-0.28,3.77-0.31"/>
		<path style="fill:none;stroke:#808080" id="kvg:05c5e-s3" kvg:type="㇒" d="M29.08,18.08c1.04,1.04,1.48,2.14,1.47,3.42c-0.3,28.88-5.05,49.63-16.55,66"/>
	</g>
	<g id="kvg:05c5e-g2" kvg:element="禹" kvg:position="tarec" kvg:phon="蜀V">
		<g id="kvg:05c5e-g3" kvg:element="丿">
			<path style="fill:none;stroke:#808080" id="kvg:05c5e-s4" kvg:type="㇒" d="M69.94,30c-0.07,1-0.51,1.72-1.51,2.22c-6.05,3.03-12.3,4.9-26,8.14"/>
		</g>
		<g id="kvg:05c5e-g4" kvg:element="虫" kvg:part="1">
			<path style="fill:none;stroke:#808080" id="kvg:05c5e-s5" kvg:type="㇑" d="M38.79,45.69c0.63,0.63,0.96,1.19,1.3,2.15c1.02,2.85,1.26,4.15,2.28,9.14c0.22,1.09,0.44,2.24,0.66,3.46"/>
			<path style="fill:none;stroke-width:4;" id="kvg:05c5e-s6" kvg:type="㇕b" d="M40.31,46.49c11.44-1.36,29.8-3.96,36.74-4.24c2.71-0.11,4.2,1.13,3.62,3.32c-1.05,3.99-1.55,5.19-2.23,7.8"/>
<circle cx="40.31" cy="46.49" r="5" style="fill:red;stroke:red;" />
		</g>
		<g id="kvg:05c5e-g5" kvg:element="禸" kvg:variant="true">
			<g id="kvg:05c5e-g6" kvg:element="冂">
			</g>
			<g id="kvg:05c5e-g7" kvg:element="虫" kvg:part="2">
			</g>
		</g>
	</g>
</g>
</g></svg>