<?xml version="1.0" encoding="UTF-8"?>
  <!DOCTYPE svg PUBLIC "-//W3C//DTD SVG 1.0//EN" "http://www.w3.org/TR/2001/REC-SVG-20010904/DTD/svg10.dtd" [
  <!ATTLIST g xmlns:kvg CDATA #FIXED "http://kanjivg.tagaini.net" kvg:element CDATA #IMPLIED kvg:variant CDATA #IMPLIED kvg:partial CDATA #IMPLIED kvg:original CDATA #IMPLIED kvg:part CDATA #IMPLIED kvg:number CDATA #IMPLIED kvg:tradForm CDATA #IMPLIED kvg:radicalForm CDATA #IMPLIED kvg:position CDATA #IMPLIED kvg:radical CDATA #IMPLIED kvg:phon CDATA #IMPLIED >
  <!ATTLIST path xmlns:kvg CDATA #FIXED "http://kanjivg.tagaini.net" kvg:type CDATA #IMPLIED >
  ]>
  <svg xmlns="http://www.w3.org/2000/svg" width="109" height="109" viewBox="0 0 109 109">
<g id="kvg:StrokePaths_05ca1" style="fill:none;stroke:#000000;stroke-width:3;stroke-linecap:round;stroke-linejoin:round;">
<g id="kvg:05ca1" kvg:element="岡">
	<g id="kvg:05ca1-g1" kvg:element="冂" kvg:position="kamae" kvg:radical="nelson">
		<path style="fill:none;stroke:#808080" id="kvg:05ca1-s1" kvg:type="㇑" d="M21.94,19.89c1.15,1.15,1.41,2.61,1.41,4.78c0,6.33,0.23,65.23,0.23,68.83"/>
		<path style="fill:none;stroke:#808080" id="kvg:05ca1-s2" kvg:type="㇆a" d="M24.35,21.79c11.4-1.54,40.9-4.67,54.41-6.06c4.52-0.46,7.81,0.57,7.81,5.64c0,11-0.19,61.18-0.19,66.13c0,11.12-4.62,4.81-7.35,1.69"/>
	</g>
	<path style="fill:none;stroke:#808080" id="kvg:05ca1-s3" kvg:type="㇔" d="M39.02,28.66c2.8,1.95,7.24,8.04,7.94,11.08"/>
	<path style="fill:none;stroke-width:4;" id="kvg:05ca1-s4" kvg:type="㇒" d="M67.02,24.44c0.09,1.14-0.08,2.25-0.51,3.32c-2.02,4.12-4.02,8.12-8.59,13.92"/>
<circle cx="67.02" cy="24.44" r="5" style="fill:red;stroke:red;" />
	<g id="kvg:05ca1-g2" kvg:element="山" kvg:radical="tradit">
	</g>
</g>
</g></svg>