<?xml version="1.0" encoding="UTF-8"?>
  <!DOCTYPE svg PUBLIC "-//W3C//DTD SVG 1.0//EN" "http://www.w3.org/TR/2001/REC-SVG-20010904/DTD/svg10.dtd" [
  <!ATTLIST g xmlns:kvg CDATA #FIXED "http://kanjivg.tagaini.net" kvg:element CDATA #IMPLIED kvg:variant CDATA #IMPLIED kvg:partial CDATA #IMPLIED kvg:original CDATA #IMPLIED kvg:part CDATA #IMPLIED kvg:number CDATA #IMPLIED kvg:tradForm CDATA #IMPLIED kvg:radicalForm CDATA #IMPLIED kvg:position CDATA #IMPLIED kvg:radical CDATA #IMPLIED kvg:phon CDATA #IMPLIED >
  <!ATTLIST path xmlns:kvg CDATA #FIXED "http://kanjivg.tagaini.net" kvg:type CDATA #IMPLIED >
  ]>
  <svg xmlns="http://www.w3.org/2000/svg" width="109" height="109" viewBox="0 0 109 109">
<g id="kvg:StrokePaths_05ca9" style="fill:none;stroke:#000000;stroke-width:3;stroke-linecap:round;stroke-linejoin:round;">
<g id="kvg:05ca9" kvg:element="岩">
	<g id="kvg:05ca9-g1" kvg:element="山" kvg:position="top" kvg:radical="general">
		<path style="fill:none;stroke:#808080" id="kvg:05ca9-s1" kvg:type="㇑a" d="M54.84,12.5c0.91,0.75,1.71,2,1.71,3.9c0,0.45-0.04,14.01-0.09,20.35"/>
		<path style="fill:none;stroke:#808080" id="kvg:05ca9-s2" kvg:type="㇄a" d="M30.03,21.6c0.72,0.9,0.97,1.65,1.03,3.22c0.11,2.75-1.32,8.87-2.89,14.37c-0.55,1.94,0.37,2.55,2.34,2.16c14.73-2.97,38.9-4.25,50.98-4.48"/>
		<path style="fill:none;stroke-width:4;" id="kvg:05ca9-s3" kvg:type="㇑" d="M84.65,17.67c0.85,1.08,1.1,1.83,0.86,3.63c-0.36,2.72-1.28,9.25-2.39,14.78c-0.31,1.56-0.64,3.09-0.98,4.48"/>
<circle cx="84.65" cy="17.67" r="5" style="fill:red;stroke:red;" />
	</g>
	<g id="kvg:05ca9-g2" kvg:element="石" kvg:position="bottom">
		<g id="kvg:05ca9-g3" kvg:element="口">
		</g>
	</g>
</g>
</g></svg>