<?xml version="1.0" encoding="UTF-8"?>
  <!DOCTYPE svg PUBLIC "-//W3C//DTD SVG 1.0//EN" "http://www.w3.org/TR/2001/REC-SVG-20010904/DTD/svg10.dtd" [
  <!ATTLIST g xmlns:kvg CDATA #FIXED "http://kanjivg.tagaini.net" kvg:element CDATA #IMPLIED kvg:variant CDATA #IMPLIED kvg:partial CDATA #IMPLIED kvg:original CDATA #IMPLIED kvg:part CDATA #IMPLIED kvg:number CDATA #IMPLIED kvg:tradForm CDATA #IMPLIED kvg:radicalForm CDATA #IMPLIED kvg:position CDATA #IMPLIED kvg:radical CDATA #IMPLIED kvg:phon CDATA #IMPLIED >
  <!ATTLIST path xmlns:kvg CDATA #FIXED "http://kanjivg.tagaini.net" kvg:type CDATA #IMPLIED >
  ]>
  <svg xmlns="http://www.w3.org/2000/svg" width="109" height="109" viewBox="0 0 109 109">
<g id="kvg:StrokePaths_05cf6" style="fill:none;stroke:#000000;stroke-width:3;stroke-linecap:round;stroke-linejoin:round;">
<g id="kvg:05cf6" kvg:element="島">
	<g id="kvg:05cf6-g1" kvg:element="鳥" kvg:partial="true" kvg:phon="鳥">
		<g id="kvg:05cf6-g2" kvg:element="丿" kvg:radical="nelson">
			<path style="fill:none;stroke:#808080" id="kvg:05cf6-s1" kvg:type="㇒" d="M52.96,9.68c0.1,0.69-0.01,1.33-0.32,1.94c-1.24,2.86-4.42,6.01-9.65,10.95"/>
		</g>
		<path style="fill:none;stroke:#808080" id="kvg:05cf6-s2" kvg:type="㇑" d="M34.63,23.65c0.8,0.8,1.32,2.1,1.32,3.81c0,6.57-0.17,25.1-0.21,37.3c-0.01,2.04-0.01,3.92-0.01,5.53"/>
		<path style="fill:none;stroke:#808080" id="kvg:05cf6-s3" kvg:type="㇕a" d="M36.77,26.05c7.48-1.55,23.86-4.43,31.67-5.25c2.88-0.3,4.68,1.63,4.1,4.49c-0.56,2.76-2.21,10.46-3.75,17.07c-0.27,1.15-0.54,2.27-1.04,3.83"/>
		<path style="fill:none;stroke:#808080" id="kvg:05cf6-s4" kvg:type="㇐a" d="M36.86,36.33c11.14-1.7,24.77-3.45,33.12-3.9"/>
		<path style="fill:none;stroke:#808080" id="kvg:05cf6-s5" kvg:type="㇐a" d="M36.99,47.73c9.14-1.36,22.89-2.98,30.23-3.47"/>
		<path style="fill:none;stroke:#808080" id="kvg:05cf6-s6" kvg:type="㇐b" d="M37.03,58.56c11.22-1.31,35.09-4.06,42.22-5.08c2.24-0.32,5.25-0.36,7.13-0.35"/>
		<path style="fill:none;stroke-width:4;" id="kvg:05cf6-s7" kvg:type="㇆a" d="M36.73,69.99c15.77-2.24,35.41-4.4,49.02-5.69c5.75-0.55,7.12,0.95,6,5.78c-2.23,9.56-6.25,18.11-10,24.15c-3.75,6.02-6.25,3.4-9.5,0.25"/>
<circle cx="36.73" cy="69.99" r="5" style="fill:red;stroke:red;" />
	</g>
	<g id="kvg:05cf6-g3" kvg:element="山" kvg:radical="tradit">
	</g>
</g>
</g></svg>