<?xml version="1.0" encoding="UTF-8"?>
  <!DOCTYPE svg PUBLIC "-//W3C//DTD SVG 1.0//EN" "http://www.w3.org/TR/2001/REC-SVG-20010904/DTD/svg10.dtd" [
  <!ATTLIST g xmlns:kvg CDATA #FIXED "http://kanjivg.tagaini.net" kvg:element CDATA #IMPLIED kvg:variant CDATA #IMPLIED kvg:partial CDATA #IMPLIED kvg:original CDATA #IMPLIED kvg:part CDATA #IMPLIED kvg:number CDATA #IMPLIED kvg:tradForm CDATA #IMPLIED kvg:radicalForm CDATA #IMPLIED kvg:position CDATA #IMPLIED kvg:radical CDATA #IMPLIED kvg:phon CDATA #IMPLIED >
  <!ATTLIST path xmlns:kvg CDATA #FIXED "http://kanjivg.tagaini.net" kvg:type CDATA #IMPLIED >
  ]>
  <svg xmlns="http://www.w3.org/2000/svg" width="109" height="109" viewBox="0 0 109 109">
<g id="kvg:StrokePaths_05dee" style="fill:none;stroke:#000000;stroke-width:3;stroke-linecap:round;stroke-linejoin:round;">
<g id="kvg:05dee" kvg:element="差">
	<g id="kvg:05dee-g1" kvg:element="羊" kvg:variant="true" kvg:radical="nelson">
		<g id="kvg:05dee-g2" kvg:element="䒑">
			<path style="fill:none;stroke:#808080" id="kvg:05dee-s1" kvg:type="㇔" d="M36.2,14.58c3.33,1.96,8.6,8.07,9.43,11.12"/>
			<path style="fill:none;stroke:#808080" id="kvg:05dee-s2" kvg:type="㇒" d="M69.81,11.77c0.03,0.43,0.06,1.11-0.06,1.74c-0.63,3.11-3.79,9.36-8.31,14.19"/>
			<path style="fill:none;stroke:#808080" id="kvg:05dee-s3" kvg:type="㇐" d="M30.88,33.18c2.37,0.32,5.01,0.23,6.99,0.04c8.26-0.76,23.5-2.72,33.26-3.31c2.09-0.13,4.31-0.02,6.37,0.5"/>
		</g>
		<path style="fill:none;stroke:#808080" id="kvg:05dee-s4" kvg:type="㇑a" d="M53.82,33.18c0.94,0.94,1.44,2.23,1.44,3.15c0,3.68,0.03,12.43,0.03,18.43"/>
		<path style="fill:none;stroke-width:4;" id="kvg:05dee-s5" kvg:type="㇐" d="M32.84,45.22c2.16,0.53,4.59,0.34,6.54,0.06c8.75-1.27,21-2.68,28.75-3.53c1.95-0.22,3.95-0.3,5.87,0.19"/>
<circle cx="32.84" cy="45.22" r="5" style="fill:red;stroke:red;" />
	</g>
	<g id="kvg:05dee-g3" kvg:phon="左">
		<g id="kvg:05dee-g4" kvg:element="丿">
		</g>
		<g id="kvg:05dee-g5" kvg:element="工" kvg:radical="tradit">
		</g>
	</g>
</g>
</g></svg>