<?xml version="1.0" encoding="UTF-8"?>
  <!DOCTYPE svg PUBLIC "-//W3C//DTD SVG 1.0//EN" "http://www.w3.org/TR/2001/REC-SVG-20010904/DTD/svg10.dtd" [
  <!ATTLIST g xmlns:kvg CDATA #FIXED "http://kanjivg.tagaini.net" kvg:element CDATA #IMPLIED kvg:variant CDATA #IMPLIED kvg:partial CDATA #IMPLIED kvg:original CDATA #IMPLIED kvg:part CDATA #IMPLIED kvg:number CDATA #IMPLIED kvg:tradForm CDATA #IMPLIED kvg:radicalForm CDATA #IMPLIED kvg:position CDATA #IMPLIED kvg:radical CDATA #IMPLIED kvg:phon CDATA #IMPLIED >
  <!ATTLIST path xmlns:kvg CDATA #FIXED "http://kanjivg.tagaini.net" kvg:type CDATA #IMPLIED >
  ]>
  <svg xmlns="http://www.w3.org/2000/svg" width="109" height="109" viewBox="0 0 109 109">
<g id="kvg:StrokePaths_05dfb" style="fill:none;stroke:#000000;stroke-width:3;stroke-linecap:round;stroke-linejoin:round;">
<g id="kvg:05dfb" kvg:element="巻">
	<g id="kvg:05dfb-g1" kvg:element="𠔉" kvg:variant="true" kvg:position="top" kvg:phon="𠔉V">
		<path style="fill:none;stroke:#808080" id="kvg:05dfb-s1" kvg:type="㇔" d="M30.02,16.83c3.37,2.1,8.2,8.12,9.04,11.38"/>
		<path style="fill:none;stroke:#808080" id="kvg:05dfb-s2" kvg:type="㇒" d="M72.77,12.89c0.11,0.95,0.14,1.93-0.33,2.74c-2.19,3.74-5.95,9.16-11.88,15.58"/>
		<g id="kvg:05dfb-g2" kvg:element="二">
			<g id="kvg:05dfb-g3" kvg:position="top">
				<path style="fill:none;stroke:#808080" id="kvg:05dfb-s3" kvg:type="㇐" d="M28,37.39c2.5,0.49,4.26,0.36,6.26,0.06c8.86-1.33,25.25-3.73,33.98-4.56c2.22-0.21,4.33-0.41,6.51,0.12"/>
			</g>
			<g id="kvg:05dfb-g4" kvg:element="大" kvg:part="1" kvg:position="bottom">
				<path style="fill:none;stroke-width:4;" id="kvg:05dfb-s4" kvg:type="㇐" d="M15.25,52.7c2.97,1.06,6.92,0.69,10.01,0.35c11.8-1.31,39.9-4.57,55.49-5.37c3.27-0.17,6.52-0.32,9.75,0.37"/>
<circle cx="15.25" cy="52.7" r="5" style="fill:red;stroke:red;" />
			</g>
		</g>
		<g id="kvg:05dfb-g5" kvg:element="大" kvg:part="2">
			<g id="kvg:05dfb-g6" kvg:element="人">
			</g>
		</g>
	</g>
	<g id="kvg:05dfb-g7" kvg:element="己" kvg:position="bottom" kvg:radical="general">
	</g>
</g>
</g></svg>