<?xml version="1.0" encoding="UTF-8"?>
  <!DOCTYPE svg PUBLIC "-//W3C//DTD SVG 1.0//EN" "http://www.w3.org/TR/2001/REC-SVG-20010904/DTD/svg10.dtd" [
  <!ATTLIST g xmlns:kvg CDATA #FIXED "http://kanjivg.tagaini.net" kvg:element CDATA #IMPLIED kvg:variant CDATA #IMPLIED kvg:partial CDATA #IMPLIED kvg:original CDATA #IMPLIED kvg:part CDATA #IMPLIED kvg:number CDATA #IMPLIED kvg:tradForm CDATA #IMPLIED kvg:radicalForm CDATA #IMPLIED kvg:position CDATA #IMPLIED kvg:radical CDATA #IMPLIED kvg:phon CDATA #IMPLIED >
  <!ATTLIST path xmlns:kvg CDATA #FIXED "http://kanjivg.tagaini.net" kvg:type CDATA #IMPLIED >
  ]>
  <svg xmlns="http://www.w3.org/2000/svg" width="109" height="109" viewBox="0 0 109 109">
<g id="kvg:StrokePaths_05e0c" style="fill:none;stroke:#000000;stroke-width:3;stroke-linecap:round;stroke-linejoin:round;">
<g id="kvg:05e0c" kvg:element="希">
	<g id="kvg:05e0c-g1" kvg:element="乂" kvg:variant="true" kvg:position="top">
		<g id="kvg:05e0c-g2" kvg:element="丿">
			<path style="fill:none;stroke:#808080" id="kvg:05e0c-s1" kvg:type="㇒" d="M67.18,8.43c0.07,1.07-0.18,2.43-1.16,3.52C57,22,44.5,27.25,24,33"/>
		</g>
		<path style="fill:none;stroke:#808080" id="kvg:05e0c-s2" kvg:type="㇔/㇏" d="M36.75,15.25c16,0.5,32,5.5,42,13.5"/>
	</g>
	<g id="kvg:05e0c-g3" kvg:element="布" kvg:position="bottom">
		<path style="fill:none;stroke:#808080" id="kvg:05e0c-s3" kvg:type="㇒" d="M52.88,27.75c0.11,1.02,0.35,2.66-0.23,4.09c-4.4,10.91-15.52,26.78-40.01,39.18"/>
		<path style="fill:none;stroke-width:4;" id="kvg:05e0c-s4" kvg:type="㇐" d="M13.75,43.32c1.89,0.54,5.36,0.66,7.25,0.54c17.35-1.11,47.17-5.49,68.88-5.98c3.15-0.07,5.04,0.26,6.62,0.53"/>
<circle cx="13.75" cy="43.32" r="5" style="fill:red;stroke:red;" />
		<g id="kvg:05e0c-g4" kvg:element="巾" kvg:radical="general">
		</g>
	</g>
</g>
</g></svg>