<?xml version="1.0" encoding="UTF-8"?>
  <!DOCTYPE svg PUBLIC "-//W3C//DTD SVG 1.0//EN" "http://www.w3.org/TR/2001/REC-SVG-20010904/DTD/svg10.dtd" [
  <!ATTLIST g xmlns:kvg CDATA #FIXED "http://kanjivg.tagaini.net" kvg:element CDATA #IMPLIED kvg:variant CDATA #IMPLIED kvg:partial CDATA #IMPLIED kvg:original CDATA #IMPLIED kvg:part CDATA #IMPLIED kvg:number CDATA #IMPLIED kvg:tradForm CDATA #IMPLIED kvg:radicalForm CDATA #IMPLIED kvg:position CDATA #IMPLIED kvg:radical CDATA #IMPLIED kvg:phon CDATA #IMPLIED >
  <!ATTLIST path xmlns:kvg CDATA #FIXED "http://kanjivg.tagaini.net" kvg:type CDATA #IMPLIED >
  ]>
  <svg xmlns="http://www.w3.org/2000/svg" width="109" height="109" viewBox="0 0 109 109">
<g id="kvg:StrokePaths_05e2d" style="fill:none;stroke:#000000;stroke-width:3;stroke-linecap:round;stroke-linejoin:round;">
<g id="kvg:05e2d" kvg:element="席">
	<g id="kvg:05e2d-g1" kvg:element="广" kvg:position="tare" kvg:radical="nelson" kvg:phon="庶1T">
		<path style="fill:none;stroke:#808080" id="kvg:05e2d-s1" kvg:type="㇑a" d="M54.81,9.63c1.03,1.03,1.51,2.37,1.51,3.65c0,2.34-0.07,5.09-0.07,7.46"/>
		<g id="kvg:05e2d-g2" kvg:element="厂">
			<path style="fill:none;stroke:#808080" id="kvg:05e2d-s2" kvg:type="㇐" d="M22.63,24.23c3.87,0.65,7,0.61,10.25,0.25c14.62-1.6,32.52-3.47,47.87-4.6c3.14-0.23,6.02-0.22,9.12,0.44"/>
			<path style="fill:none;stroke:#808080" id="kvg:05e2d-s3" kvg:type="㇒" d="M25.99,24.75c0.82,0.82,0.93,2.12,0.9,3.52c-0.39,21.1-3.77,45.48-16.84,60.44"/>
		</g>
	</g>
	<g id="kvg:05e2d-g3" kvg:position="tarec">
		<g id="kvg:05e2d-g4" kvg:element="廿" kvg:phon="庶2T">
			<g id="kvg:05e2d-g5" kvg:element="十">
				<path style="fill:none;stroke-width:4;" id="kvg:05e2d-s4" kvg:type="㇐" d="M30.53,40.5c2.73,0.66,5.76,0.21,8.51-0.07c9.04-0.9,27.83-3.28,39.84-4.24c2.97-0.24,5.88-0.49,8.85-0.06"/>
<circle cx="30.53" cy="40.5" r="5" style="fill:red;stroke:red;" />
			</g>
		</g>
		<g id="kvg:05e2d-g6" kvg:element="巾" kvg:radical="tradit">
		</g>
	</g>
</g>
</g></svg>