<?xml version="1.0" encoding="UTF-8"?>
  <!DOCTYPE svg PUBLIC "-//W3C//DTD SVG 1.0//EN" "http://www.w3.org/TR/2001/REC-SVG-20010904/DTD/svg10.dtd" [
  <!ATTLIST g xmlns:kvg CDATA #FIXED "http://kanjivg.tagaini.net" kvg:element CDATA #IMPLIED kvg:variant CDATA #IMPLIED kvg:partial CDATA #IMPLIED kvg:original CDATA #IMPLIED kvg:part CDATA #IMPLIED kvg:number CDATA #IMPLIED kvg:tradForm CDATA #IMPLIED kvg:radicalForm CDATA #IMPLIED kvg:position CDATA #IMPLIED kvg:radical CDATA #IMPLIED kvg:phon CDATA #IMPLIED >
  <!ATTLIST path xmlns:kvg CDATA #FIXED "http://kanjivg.tagaini.net" kvg:type CDATA #IMPLIED >
  ]>
  <svg xmlns="http://www.w3.org/2000/svg" width="109" height="109" viewBox="0 0 109 109">
<g id="kvg:StrokePaths_05e33" style="fill:none;stroke:#000000;stroke-width:3;stroke-linecap:round;stroke-linejoin:round;">
<g id="kvg:05e33" kvg:element="帳">
	<g id="kvg:05e33-g1" kvg:element="巾" kvg:position="left" kvg:radical="general">
		<path style="fill:none;stroke:#808080" id="kvg:05e33-s1" kvg:type="㇑" d="M11.31,32.47c0.99,0.99,1.41,2.28,1.41,3.62c0,0.58-0.08,16.88-0.1,26.16c-0.01,2.21-0.01,4.03-0.01,5.13"/>
		<path style="fill:none;stroke:#808080" id="kvg:05e33-s2" kvg:type="㇆a" d="M13.53,33.95c4.11-0.89,15.14-3.1,19.96-3.93c3.34-0.58,4.53,1.03,4.53,4.43c0,9.92-0.01,16.17-1.28,24.71c-0.84,5.68-3.35,1.33-4.79-0.44"/>
		<path style="fill:none;stroke:#808080" id="kvg:05e33-s3" kvg:type="㇑" d="M23.19,13.38c1.03,1.03,1.66,2.49,1.66,3.87c0,0.59-0.03,52.2-0.08,72.25c-0.01,4.1-0.02,6.88-0.03,7.63"/>
	</g>
	<g id="kvg:05e33-g2" kvg:element="長" kvg:position="right" kvg:phon="長">
		<path style="fill:none;stroke:#808080" id="kvg:05e33-s4" kvg:type="㇑a" d="M52.44,15.93c1.13,1.13,1.59,2.23,1.59,3.69c0,3.88,0.11,28.38,0.11,33.85"/>
		<path style="fill:none;stroke-width:4;" id="kvg:05e33-s5" kvg:type="㇐b" d="M54.03,17.66c7.84-1.03,16.59-2.78,20.18-3.42c1.43-0.25,2.79-0.11,4.04,0.01"/>
<circle cx="54.03" cy="17.66" r="5" style="fill:red;stroke:red;" />
	</g>
</g>
</g></svg>