<?xml version="1.0" encoding="UTF-8"?>
  <!DOCTYPE svg PUBLIC "-//W3C//DTD SVG 1.0//EN" "http://www.w3.org/TR/2001/REC-SVG-20010904/DTD/svg10.dtd" [
  <!ATTLIST g xmlns:kvg CDATA #FIXED "http://kanjivg.tagaini.net" kvg:element CDATA #IMPLIED kvg:variant CDATA #IMPLIED kvg:partial CDATA #IMPLIED kvg:original CDATA #IMPLIED kvg:part CDATA #IMPLIED kvg:number CDATA #IMPLIED kvg:tradForm CDATA #IMPLIED kvg:radicalForm CDATA #IMPLIED kvg:position CDATA #IMPLIED kvg:radical CDATA #IMPLIED kvg:phon CDATA #IMPLIED >
  <!ATTLIST path xmlns:kvg CDATA #FIXED "http://kanjivg.tagaini.net" kvg:type CDATA #IMPLIED >
  ]>
  <svg xmlns="http://www.w3.org/2000/svg" width="109" height="109" viewBox="0 0 109 109">
<g id="kvg:StrokePaths_05e55" style="fill:none;stroke:#000000;stroke-width:3;stroke-linecap:round;stroke-linejoin:round;">
<g id="kvg:05e55" kvg:element="幕">
	<g id="kvg:05e55-g1" kvg:element="莫" kvg:position="top" kvg:phon="莫">
		<g id="kvg:05e55-g2" kvg:element="艹" kvg:variant="true" kvg:original="艸" kvg:position="top" kvg:radical="nelson">
			<path style="fill:none;stroke:#808080" id="kvg:05e55-s1" kvg:type="㇐" d="M21.5,18.06c3,0.57,5.48,0.35,8.11,0.16c12.18-0.92,34.11-2.52,47.14-2.83c2.68-0.06,5.35-0.16,7.99,0.38"/>
			<path style="fill:none;stroke:#808080" id="kvg:05e55-s2" kvg:type="㇑a" d="M37.75,11.24c1.12,0.51,1.61,1.44,1.75,2.03c1.25,5.36,2,8.87,2.5,10.81"/>
			<path style="fill:none;stroke:#808080" id="kvg:05e55-s3" kvg:type="㇑a" d="M66.1,8.75c0.35,0.81,0.48,1.89,0.17,2.9c-1.47,4.79-1.85,5.86-3.52,10.65"/>
		</g>
		<g id="kvg:05e55-g3" kvg:position="bottom">
			<g id="kvg:05e55-g4" kvg:element="日">
				<path style="fill:none;stroke:#808080" id="kvg:05e55-s4" kvg:type="㇑" d="M31.02,29.46c0.83,0.83,1.34,1.91,1.44,2.49c0.67,4.05,2.17,9.88,2.76,13.77c0.28,1.85,0.47,3.13,0.47,3.23"/>
				<path style="fill:none;stroke-width:4;" id="kvg:05e55-s5" kvg:type="㇕a" d="M33,31.03c7.62-1,29.26-3.43,36.36-4.1c3.47-0.33,5.81,0.17,5.12,4.22c-0.51,3-1.67,7.57-2.5,11.6c-0.28,1.35-0.67,2.5-0.94,3.36"/>
<circle cx="33" cy="31.03" r="5" style="fill:red;stroke:red;" />
			</g>
			<g id="kvg:05e55-g5" kvg:element="大">
			</g>
		</g>
	</g>
	<g id="kvg:05e55-g6" kvg:element="巾" kvg:position="bottom" kvg:radical="tradit">
	</g>
</g>
</g></svg>