<?xml version="1.0" encoding="UTF-8"?>
  <!DOCTYPE svg PUBLIC "-//W3C//DTD SVG 1.0//EN" "http://www.w3.org/TR/2001/REC-SVG-20010904/DTD/svg10.dtd" [
  <!ATTLIST g xmlns:kvg CDATA #FIXED "http://kanjivg.tagaini.net" kvg:element CDATA #IMPLIED kvg:variant CDATA #IMPLIED kvg:partial CDATA #IMPLIED kvg:original CDATA #IMPLIED kvg:part CDATA #IMPLIED kvg:number CDATA #IMPLIED kvg:tradForm CDATA #IMPLIED kvg:radicalForm CDATA #IMPLIED kvg:position CDATA #IMPLIED kvg:radical CDATA #IMPLIED kvg:phon CDATA #IMPLIED >
  <!ATTLIST path xmlns:kvg CDATA #FIXED "http://kanjivg.tagaini.net" kvg:type CDATA #IMPLIED >
  ]>
  <svg xmlns="http://www.w3.org/2000/svg" width="109" height="109" viewBox="0 0 109 109">
<g id="kvg:StrokePaths_05e79" style="fill:none;stroke:#000000;stroke-width:3;stroke-linecap:round;stroke-linejoin:round;">
<g id="kvg:05e79" kvg:element="幹">
	<g id="kvg:05e79-g1" kvg:element="𠦝" kvg:position="left">
		<g id="kvg:05e79-g2" kvg:element="十" kvg:position="top" kvg:radical="nelson">
			<path style="fill:none;stroke:#808080" id="kvg:05e79-s1" kvg:type="㇐" d="M15.18,27.63c1.49,0.53,3.31,0.37,4.82,0.2c7.13-0.82,17.87-2.56,23.74-3.04c1.44-0.12,2.89-0.22,4.31,0.08"/>
			<path style="fill:none;stroke:#808080" id="kvg:05e79-s2" kvg:type="㇑a" d="M29.95,12.88c0.77,0.77,1.17,1.87,1.17,2.99c0,0.48-0.12,17.5-0.12,21.01"/>
		</g>
		<g id="kvg:05e79-g3" kvg:element="早" kvg:position="bottom">
			<g id="kvg:05e79-g4" kvg:element="日" kvg:position="top">
				<path style="fill:none;stroke:#808080" id="kvg:05e79-s3" kvg:type="㇑" d="M16.52,39.16c0.98,0.84,1.59,2.01,1.76,3.36c0.46,3.52,1.56,10.9,2.33,16.22c0.21,1.46,0.4,2.76,0.54,3.79"/>
				<path style="fill:none;stroke:#808080" id="kvg:05e79-s4" kvg:type="㇕a" d="M18.33,40.16c3.42-0.54,17.21-2.8,23.42-3.35c3.64-0.32,4.76,0.86,4.09,4.58c-0.59,3.31-1.82,9.41-2.86,14.5c-0.27,1.32-0.53,2.58-0.76,3.7"/>
				<path style="fill:none;stroke:#808080" id="kvg:05e79-s5" kvg:type="㇐a" d="M20.49,49.88c6.26-1,18.64-3,23.24-3.25"/>
				<path style="fill:none;stroke:#808080" id="kvg:05e79-s6" kvg:type="㇐a" d="M21.95,59.81c6.8-0.81,14.8-1.94,19.73-2.39"/>
			</g>
			<g id="kvg:05e79-g5" kvg:element="十" kvg:position="bottom">
				<path style="fill:none;stroke-width:4;" id="kvg:05e79-s7" kvg:type="㇐" d="M11.74,74.82c1.88,0.56,4.23,0.59,6.13,0.21c8.12-1.65,18.62-3.12,25.38-3.74c1.78-0.16,3.51-0.26,5.26,0.17"/>
<circle cx="11.74" cy="74.82" r="5" style="fill:red;stroke:red;" />
			</g>
		</g>
	</g>
	<g id="kvg:05e79-g6" kvg:position="right">
		<g id="kvg:05e79-g7" kvg:position="top">
			<g id="kvg:05e79-g8" kvg:element="人">
			</g>
			<g id="kvg:05e79-g9" kvg:element="干" kvg:position="bottom" kvg:radical="tradit" kvg:phon="干">
				<g id="kvg:05e79-g10" kvg:element="十">
				</g>
			</g>
		</g>
	</g>
</g>
</g></svg>