<?xml version="1.0" encoding="UTF-8"?>
  <!DOCTYPE svg PUBLIC "-//W3C//DTD SVG 1.0//EN" "http://www.w3.org/TR/2001/REC-SVG-20010904/DTD/svg10.dtd" [
  <!ATTLIST g xmlns:kvg CDATA #FIXED "http://kanjivg.tagaini.net" kvg:element CDATA #IMPLIED kvg:variant CDATA #IMPLIED kvg:partial CDATA #IMPLIED kvg:original CDATA #IMPLIED kvg:part CDATA #IMPLIED kvg:number CDATA #IMPLIED kvg:tradForm CDATA #IMPLIED kvg:radicalForm CDATA #IMPLIED kvg:position CDATA #IMPLIED kvg:radical CDATA #IMPLIED kvg:phon CDATA #IMPLIED >
  <!ATTLIST path xmlns:kvg CDATA #FIXED "http://kanjivg.tagaini.net" kvg:type CDATA #IMPLIED >
  ]>
  <svg xmlns="http://www.w3.org/2000/svg" width="109" height="109" viewBox="0 0 109 109">
<g id="kvg:StrokePaths_05e74" style="fill:none;stroke:#000000;stroke-width:3;stroke-linecap:round;stroke-linejoin:round;">
<g id="kvg:05e74" kvg:element="年">
	<g id="kvg:05e74-g1" kvg:element="丿" kvg:radical="nelson">
		<path style="fill:none;stroke:#808080" id="kvg:05e74-s1" kvg:type="㇒" d="M40.01,11.89c0.24,1.61-0.01,2.86-0.84,4.46c-2.53,4.84-6.91,11.4-15.86,19.62"/>
	</g>
	<g id="kvg:05e74-g2" kvg:element="干" kvg:part="1" kvg:radical="tradit">
		<path style="fill:none;stroke:#808080" id="kvg:05e74-s2" kvg:type="㇐" d="M39.13,23.62c2.25,0.38,4.4,0.18,5.79,0.03c11.7-1.27,21.33-2.9,33.22-4.07c2.3-0.23,4.2,0,5.35,0.26"/>
		<g id="kvg:05e74-g3" kvg:element="十">
			<path style="fill:none;stroke:#808080" id="kvg:05e74-s3" kvg:type="㇐" d="M30.13,43.59c1.36,0.33,3.87,0.46,5.21,0.33c10.91-1.05,28.53-3.42,40.78-4.26c2.26-0.15,3.63,0.16,4.76,0.32"/>
		</g>
	</g>
	<path style="fill:none;stroke-width:4;" id="kvg:05e74-s4" kvg:type="㇑a" d="M33.75,44.5c1,1.25,1,1.97,1.01,3.5C34.8,52.33,35,65.29,35,66.25"/>
<circle cx="33.75" cy="44.5" r="5" style="fill:red;stroke:red;" />
	<g id="kvg:05e74-g4" kvg:element="干" kvg:part="2" kvg:radical="tradit">
	</g>
</g>
</g></svg>