<?xml version="1.0" encoding="UTF-8"?>
  <!DOCTYPE svg PUBLIC "-//W3C//DTD SVG 1.0//EN" "http://www.w3.org/TR/2001/REC-SVG-20010904/DTD/svg10.dtd" [
  <!ATTLIST g xmlns:kvg CDATA #FIXED "http://kanjivg.tagaini.net" kvg:element CDATA #IMPLIED kvg:variant CDATA #IMPLIED kvg:partial CDATA #IMPLIED kvg:original CDATA #IMPLIED kvg:part CDATA #IMPLIED kvg:number CDATA #IMPLIED kvg:tradForm CDATA #IMPLIED kvg:radicalForm CDATA #IMPLIED kvg:position CDATA #IMPLIED kvg:radical CDATA #IMPLIED kvg:phon CDATA #IMPLIED >
  <!ATTLIST path xmlns:kvg CDATA #FIXED "http://kanjivg.tagaini.net" kvg:type CDATA #IMPLIED >
  ]>
  <svg xmlns="http://www.w3.org/2000/svg" width="109" height="109" viewBox="0 0 109 109">
<g id="kvg:StrokePaths_05e97" style="fill:none;stroke:#000000;stroke-width:3;stroke-linecap:round;stroke-linejoin:round;">
<g id="kvg:05e97" kvg:element="店">
	<g id="kvg:05e97-g1" kvg:element="广" kvg:position="tare" kvg:radical="general">
		<path style="fill:none;stroke:#808080" id="kvg:05e97-s1" kvg:type="㇑a" d="M56.81,11.13c1.28,1.28,2.01,2.74,2.01,4.15c0,0.79,0.08,4.65-0.07,9.46"/>
		<g id="kvg:05e97-g2" kvg:element="厂">
			<path style="fill:none;stroke:#808080" id="kvg:05e97-s2" kvg:type="㇐" d="M25.63,27.23c2.62,0.77,4.72,0.67,6.39,0.54C48,26.5,63.11,24.75,84.3,23.04c2.76-0.22,4.44,0.26,5.83,0.53"/>
			<path style="fill:none;stroke:#808080" id="kvg:05e97-s3" kvg:type="㇒" d="M28.99,28.5c0.88,0.88,1.18,2,1.16,3.38C29.88,54.88,27.25,78.75,14.5,91"/>
		</g>
	</g>
	<g id="kvg:05e97-g3" kvg:element="占" kvg:position="tarec" kvg:phon="占">
		<g id="kvg:05e97-g4" kvg:element="卜" kvg:variant="true" kvg:original="ト" kvg:position="top">
			<path style="fill:none;stroke:#808080" id="kvg:05e97-s4" kvg:type="㇑a" d="M57.87,32.88c0.93,0.93,1.62,2.62,1.62,4.09c0,3.03-0.21,27.9-0.21,32.77"/>
			<path style="fill:none;stroke-width:4;" id="kvg:05e97-s5" kvg:type="㇐b" d="M60.28,50.84c8.22-0.96,16.22-1.96,22.11-2.82c1.04-0.15,2.96,0,3.8,0.21"/>
<circle cx="60.28" cy="50.84" r="5" style="fill:red;stroke:red;" />
		</g>
		<g id="kvg:05e97-g5" kvg:element="口" kvg:position="bottom">
		</g>
	</g>
</g>
</g></svg>