<?xml version="1.0" encoding="UTF-8"?>
  <!DOCTYPE svg PUBLIC "-//W3C//DTD SVG 1.0//EN" "http://www.w3.org/TR/2001/REC-SVG-20010904/DTD/svg10.dtd" [
  <!ATTLIST g xmlns:kvg CDATA #FIXED "http://kanjivg.tagaini.net" kvg:element CDATA #IMPLIED kvg:variant CDATA #IMPLIED kvg:partial CDATA #IMPLIED kvg:original CDATA #IMPLIED kvg:part CDATA #IMPLIED kvg:number CDATA #IMPLIED kvg:tradForm CDATA #IMPLIED kvg:radicalForm CDATA #IMPLIED kvg:position CDATA #IMPLIED kvg:radical CDATA #IMPLIED kvg:phon CDATA #IMPLIED >
  <!ATTLIST path xmlns:kvg CDATA #FIXED "http://kanjivg.tagaini.net" kvg:type CDATA #IMPLIED >
  ]>
  <svg xmlns="http://www.w3.org/2000/svg" width="109" height="109" viewBox="0 0 109 109">
<g id="kvg:StrokePaths_05ea6" style="fill:none;stroke:#000000;stroke-width:3;stroke-linecap:round;stroke-linejoin:round;">
<g id="kvg:05ea6" kvg:element="度">
	<g id="kvg:05ea6-g1" kvg:element="广" kvg:position="tare" kvg:radical="general" kvg:phon="庶1T">
		<path style="fill:none;stroke:#808080" id="kvg:05ea6-s1" kvg:type="㇑a" d="M54.81,11.63c0.97,0.97,1.51,1.99,1.51,3.15c0,1.71-0.07,5.46-0.07,8.71"/>
		<g id="kvg:05ea6-g2" kvg:element="厂">
			<path style="fill:none;stroke:#808080" id="kvg:05ea6-s2" kvg:type="㇐" d="M21.63,26.73c2.75,0.4,5.81,0.21,7.86,0.04c15.39-1.27,37.89-3.64,52.47-4.73c3.4-0.25,5.47,0.01,7.17,0.28"/>
			<path style="fill:none;stroke:#808080" id="kvg:05ea6-s3" kvg:type="㇒" d="M26.24,27.75c0.88,0.88,1.19,2,1.16,3.63c-0.53,29.74-5.53,50.12-16.6,65.09"/>
		</g>
	</g>
	<g id="kvg:05ea6-g3" kvg:position="tarec">
		<g id="kvg:05ea6-g4" kvg:element="廿" kvg:phon="庶2T">
			<g id="kvg:05ea6-g5" kvg:element="十">
				<path style="fill:none;stroke-width:4;" id="kvg:05ea6-s4" kvg:type="㇐" d="M33,41.46c2.62,0.54,5.58,0.22,8.25-0.01c9.59-0.84,32.97-3.49,42-4.09c2.38-0.16,4.66-0.1,7,0.33"/>
<circle cx="33" cy="41.46" r="5" style="fill:red;stroke:red;" />
			</g>
		</g>
		<g id="kvg:05ea6-g6" kvg:element="又">
		</g>
	</g>
</g>
</g></svg>