<?xml version="1.0" encoding="UTF-8"?>
  <!DOCTYPE svg PUBLIC "-//W3C//DTD SVG 1.0//EN" "http://www.w3.org/TR/2001/REC-SVG-20010904/DTD/svg10.dtd" [
  <!ATTLIST g xmlns:kvg CDATA #FIXED "http://kanjivg.tagaini.net" kvg:element CDATA #IMPLIED kvg:variant CDATA #IMPLIED kvg:partial CDATA #IMPLIED kvg:original CDATA #IMPLIED kvg:part CDATA #IMPLIED kvg:number CDATA #IMPLIED kvg:tradForm CDATA #IMPLIED kvg:radicalForm CDATA #IMPLIED kvg:position CDATA #IMPLIED kvg:radical CDATA #IMPLIED kvg:phon CDATA #IMPLIED >
  <!ATTLIST path xmlns:kvg CDATA #FIXED "http://kanjivg.tagaini.net" kvg:type CDATA #IMPLIED >
  ]>
  <svg xmlns="http://www.w3.org/2000/svg" width="109" height="109" viewBox="0 0 109 109">
<g id="kvg:StrokePaths_05eb7" style="fill:none;stroke:#000000;stroke-width:3;stroke-linecap:round;stroke-linejoin:round;">
<g id="kvg:05eb7" kvg:element="康">
	<g id="kvg:05eb7-g1" kvg:element="广" kvg:position="tare" kvg:radical="general">
		<path style="fill:none;stroke:#808080" id="kvg:05eb7-s1" kvg:type="㇑a" d="M53.02,11.13c1.05,1.05,1.43,2.37,1.43,3.57c0,0.77,0.08,3.04-0.07,7.74"/>
		<g id="kvg:05eb7-g2" kvg:element="厂">
			<path style="fill:none;stroke:#808080" id="kvg:05eb7-s2" kvg:type="㇐" d="M21.55,25.36c2.7,0.51,5.88,0.27,8.7-0.01c14.57-1.43,32.84-3.97,45.87-4.51c2.7-0.11,5.35-0.14,8,0.43"/>
			<path style="fill:none;stroke:#808080" id="kvg:05eb7-s3" kvg:type="㇒" d="M26.76,26.07c1.02,1.02,1.17,2.18,1.16,3.22c-0.3,21.21-3.55,46.09-15.61,60.93"/>
		</g>
	</g>
	<g id="kvg:05eb7-g3" kvg:element="隶" kvg:position="tarec" kvg:phon="隶">
		<g id="kvg:05eb7-g4" kvg:element="⺕" kvg:variant="true" kvg:original="彑">
			<path style="fill:none;stroke:#808080" id="kvg:05eb7-s4" kvg:type="㇕c" d="M40.2,35.96c1.89,0.66,3.62,0.75,5.57,0.39c8.11-1.48,16.73-2.92,26.25-4.09c2.95-0.36,3.79,1.19,3.45,3.42c-0.9,5.82-1.47,9.05-2.67,19.03"/>
			<path style="fill:none;stroke:#808080" id="kvg:05eb7-s5" kvg:type="㇐" d="M32.88,47.47c2.62,0.53,6.36,0.26,8.99-0.12c11.88-1.72,28.73-4.04,41.12-4.91c2.73-0.19,5.43-0.2,8.12,0.24"/>
			<path style="fill:none;stroke-width:4;" id="kvg:05eb7-s6" kvg:type="㇐" d="M39.46,57.67c2.04,0.58,4.3,0.69,6.42,0.44c8.95-1.05,17.41-2.08,25.29-3.11c1.38-0.18,2.49-0.2,3.52-0.12"/>
<circle cx="39.46" cy="57.67" r="5" style="fill:red;stroke:red;" />
		</g>
		<g id="kvg:05eb7-g5" kvg:element="氺" kvg:variant="true" kvg:original="水">
		</g>
	</g>
</g>
</g></svg>