<?xml version="1.0" encoding="UTF-8"?>
  <!DOCTYPE svg PUBLIC "-//W3C//DTD SVG 1.0//EN" "http://www.w3.org/TR/2001/REC-SVG-20010904/DTD/svg10.dtd" [
  <!ATTLIST g xmlns:kvg CDATA #FIXED "http://kanjivg.tagaini.net" kvg:element CDATA #IMPLIED kvg:variant CDATA #IMPLIED kvg:partial CDATA #IMPLIED kvg:original CDATA #IMPLIED kvg:part CDATA #IMPLIED kvg:number CDATA #IMPLIED kvg:tradForm CDATA #IMPLIED kvg:radicalForm CDATA #IMPLIED kvg:position CDATA #IMPLIED kvg:radical CDATA #IMPLIED kvg:phon CDATA #IMPLIED >
  <!ATTLIST path xmlns:kvg CDATA #FIXED "http://kanjivg.tagaini.net" kvg:type CDATA #IMPLIED >
  ]>
  <svg xmlns="http://www.w3.org/2000/svg" width="109" height="109" viewBox="0 0 109 109">
<g id="kvg:StrokePaths_05efa" style="fill:none;stroke:#000000;stroke-width:3;stroke-linecap:round;stroke-linejoin:round;">
<g id="kvg:05efa" kvg:element="建">
	<g id="kvg:05efa-g1" kvg:element="聿" kvg:position="nyoc">
		<g id="kvg:05efa-g2" kvg:element="⺕" kvg:variant="true" kvg:original="彑">
			<path style="fill:none;stroke:#808080" id="kvg:05efa-s1" kvg:type="㇕c" d="M49.33,22.26c1.8,0.22,3.42,0.47,5.06,0.25c8.36-1.13,21.38-2.57,28.57-3c2.33-0.14,4.03,1.33,3.59,3.5c-0.93,4.62-2.05,10.24-3.37,16.71"/>
			<path style="fill:none;stroke:#808080" id="kvg:05efa-s2" kvg:type="㇐" d="M41.75,34.44c2.14,0.22,3.81,0.21,6.18,0c14.82-1.31,30.32-3.81,44.13-4.92c2.61-0.21,4.75-0.07,5.94,0.15"/>
			<path style="fill:none;stroke:#808080" id="kvg:05efa-s3" kvg:type="㇐" d="M49.43,44.53c1.11,0.22,3.11,0.35,4.43,0.22c8.77-0.87,19.15-2.24,27.91-3.5c1.75-0.25,2.88-0.25,4.21-0.03"/>
		</g>
		<path style="fill:none;stroke-width:4;" id="kvg:05efa-s4" kvg:type="㇐" d="M49.78,56.38c1.97,0.25,3.79,0.17,5.13,0.08c10.67-0.71,16.51-1.84,28.64-2.8c2.22-0.18,3.57-0.09,4.68,0.07"/>
<circle cx="49.78" cy="56.38" r="5" style="fill:red;stroke:red;" />
		<g id="kvg:05efa-g3" kvg:element="丨">
		</g>
	</g>
	<g id="kvg:05efa-g4" kvg:element="廴" kvg:position="nyo" kvg:radical="general">
	</g>
</g>
</g></svg>