<?xml version="1.0" encoding="UTF-8"?>
  <!DOCTYPE svg PUBLIC "-//W3C//DTD SVG 1.0//EN" "http://www.w3.org/TR/2001/REC-SVG-20010904/DTD/svg10.dtd" [
  <!ATTLIST g xmlns:kvg CDATA #FIXED "http://kanjivg.tagaini.net" kvg:element CDATA #IMPLIED kvg:variant CDATA #IMPLIED kvg:partial CDATA #IMPLIED kvg:original CDATA #IMPLIED kvg:part CDATA #IMPLIED kvg:number CDATA #IMPLIED kvg:tradForm CDATA #IMPLIED kvg:radicalForm CDATA #IMPLIED kvg:position CDATA #IMPLIED kvg:radical CDATA #IMPLIED kvg:phon CDATA #IMPLIED >
  <!ATTLIST path xmlns:kvg CDATA #FIXED "http://kanjivg.tagaini.net" kvg:type CDATA #IMPLIED >
  ]>
  <svg xmlns="http://www.w3.org/2000/svg" width="109" height="109" viewBox="0 0 109 109">
<g id="kvg:StrokePaths_05f35" style="fill:none;stroke:#000000;stroke-width:3;stroke-linecap:round;stroke-linejoin:round;">
<g id="kvg:05f35" kvg:element="張">
	<g id="kvg:05f35-g1" kvg:element="弓" kvg:position="left" kvg:radical="general">
		<path style="fill:none;stroke:#808080" id="kvg:05f35-s1" kvg:type="㇕c" d="M14.57,21.33c1.43,0.79,3.52,0.72,4.61,0.54c2.19-0.37,12.03-2.26,14.48-2.77c2.83-0.6,4.45,1.34,3.59,3.38c-0.6,1.41-2.92,10.81-3.1,11.72"/>
		<path style="fill:none;stroke:#808080" id="kvg:05f35-s2" kvg:type="㇐" d="M16,37.25c0.62,0.25,1.99,0.46,3.52,0.35c2.86-0.22,9.86-1.47,12.38-1.85c1.54-0.23,3.11-0.5,4.36-0.5"/>
		<path style="fill:none;stroke-width:4;" id="kvg:05f35-s3" kvg:type="㇉" d="M16.31,37.62c1.16,1.16,1.42,3.05,1.1,4.56c-0.37,1.73-2.62,9.99-2.95,10.9c-0.91,2.55-0.18,4.11,2.75,3.05c2.79-1,8.35-2.79,12.13-3.68c3.53-0.83,4.91,0.3,4.13,6.42C32.35,67.7,30,81.5,24.51,90.76c-3.07,5.18-6.29,0.69-7.04-1.16"/>
<circle cx="16.31" cy="37.62" r="5" style="fill:red;stroke:red;" />
	</g>
	<g id="kvg:05f35-g2" kvg:element="長" kvg:position="right" kvg:phon="長">
	</g>
</g>
</g></svg>