<?xml version="1.0" encoding="UTF-8"?>
  <!DOCTYPE svg PUBLIC "-//W3C//DTD SVG 1.0//EN" "http://www.w3.org/TR/2001/REC-SVG-20010904/DTD/svg10.dtd" [
  <!ATTLIST g xmlns:kvg CDATA #FIXED "http://kanjivg.tagaini.net" kvg:element CDATA #IMPLIED kvg:variant CDATA #IMPLIED kvg:partial CDATA #IMPLIED kvg:original CDATA #IMPLIED kvg:part CDATA #IMPLIED kvg:number CDATA #IMPLIED kvg:tradForm CDATA #IMPLIED kvg:radicalForm CDATA #IMPLIED kvg:position CDATA #IMPLIED kvg:radical CDATA #IMPLIED kvg:phon CDATA #IMPLIED >
  <!ATTLIST path xmlns:kvg CDATA #FIXED "http://kanjivg.tagaini.net" kvg:type CDATA #IMPLIED >
  ]>
  <svg xmlns="http://www.w3.org/2000/svg" width="109" height="109" viewBox="0 0 109 109">
<g id="kvg:StrokePaths_05f80" style="fill:none;stroke:#000000;stroke-width:3;stroke-linecap:round;stroke-linejoin:round;">
<g id="kvg:05f80" kvg:element="往">
	<g id="kvg:05f80-g1" kvg:element="彳" kvg:position="left" kvg:radical="general">
		<path style="fill:none;stroke:#808080" id="kvg:05f80-s1" kvg:type="㇒" d="M31.84,15.75c0.05,0.5-0.24,1.65-0.61,2.26C28.66,22.35,21.88,30,13.62,35.75"/>
		<g id="kvg:05f80-g2" kvg:element="亻" kvg:variant="true" kvg:original="人">
			<path style="fill:none;stroke:#808080" id="kvg:05f80-s2" kvg:type="㇒" d="M34.1,33.5c0.06,0.78-0.18,2.43-0.63,3.4C30.32,43.69,22.3,54.5,10.75,66"/>
			<path style="fill:none;stroke:#808080" id="kvg:05f80-s3" kvg:type="㇑" d="M24.72,54c0.58,0.58,1.15,2.12,1.15,3.16c0,0.41-0.05,20.89-0.06,31.59c0,2.69-0.01,4.77-0.01,5.75"/>
		</g>
	</g>
	<g id="kvg:05f80-g3" kvg:element="主" kvg:position="right">
		<g id="kvg:05f80-g4" kvg:element="丶" kvg:position="top">
			<path style="fill:none;stroke-width:4;" id="kvg:05f80-s4" kvg:type="㇔" d="M58.89,15.57c3.45,1.84,8.51,6.83,9.37,9.53"/>
<circle cx="58.89" cy="15.57" r="5" style="fill:red;stroke:red;" />
		</g>
		<g id="kvg:05f80-g5" kvg:element="王" kvg:original="玉" kvg:partial="true" kvg:position="bottom" kvg:phon="王">
		</g>
	</g>
</g>
</g></svg>