<?xml version="1.0" encoding="UTF-8"?>
  <!DOCTYPE svg PUBLIC "-//W3C//DTD SVG 1.0//EN" "http://www.w3.org/TR/2001/REC-SVG-20010904/DTD/svg10.dtd" [
  <!ATTLIST g xmlns:kvg CDATA #FIXED "http://kanjivg.tagaini.net" kvg:element CDATA #IMPLIED kvg:variant CDATA #IMPLIED kvg:partial CDATA #IMPLIED kvg:original CDATA #IMPLIED kvg:part CDATA #IMPLIED kvg:number CDATA #IMPLIED kvg:tradForm CDATA #IMPLIED kvg:radicalForm CDATA #IMPLIED kvg:position CDATA #IMPLIED kvg:radical CDATA #IMPLIED kvg:phon CDATA #IMPLIED >
  <!ATTLIST path xmlns:kvg CDATA #FIXED "http://kanjivg.tagaini.net" kvg:type CDATA #IMPLIED >
  ]>
  <svg xmlns="http://www.w3.org/2000/svg" width="109" height="109" viewBox="0 0 109 109">
<g id="kvg:StrokePaths_05f85" style="fill:none;stroke:#000000;stroke-width:3;stroke-linecap:round;stroke-linejoin:round;">
<g id="kvg:05f85" kvg:element="待">
	<g id="kvg:05f85-g1" kvg:element="彳" kvg:position="left" kvg:radical="general">
		<path style="fill:none;stroke:#808080" id="kvg:05f85-s1" kvg:type="㇒" d="M35.33,15.25c0.15,1.08-0.22,1.8-0.92,2.65c-3.3,4-9.9,10.35-18.79,15.35"/>
		<g id="kvg:05f85-g2" kvg:element="亻" kvg:variant="true" kvg:original="人">
			<path style="fill:none;stroke:#808080" id="kvg:05f85-s2" kvg:type="㇒" d="M35.84,32.75c0.07,0.75-0.17,2.1-0.64,3.03c-3.32,6.54-11.54,17.41-23.7,28.47"/>
			<path style="fill:none;stroke:#808080" id="kvg:05f85-s3" kvg:type="㇑" d="M25.97,52c1.01,1.01,1.41,2.5,1.41,3.88c0,5.46,0,27.73-0.05,37.12c-0.01,2.05-0.02,3.49-0.03,4"/>
		</g>
	</g>
	<g id="kvg:05f85-g3" kvg:element="寺" kvg:position="right" kvg:phon="寺">
		<g id="kvg:05f85-g4" kvg:element="土" kvg:position="top">
			<path style="fill:none;stroke-width:4;" id="kvg:05f85-s4" kvg:type="㇐" d="M48.11,27.78c2.02,0.35,3.66,0.24,5.4,0.02c6.01-0.75,17.57-2.51,25.74-2.93c1.72-0.09,3.42-0.18,5.11,0.21"/>
<circle cx="48.11" cy="27.78" r="5" style="fill:red;stroke:red;" />
		</g>
		<g id="kvg:05f85-g5" kvg:element="寸" kvg:position="bottom">
		</g>
	</g>
</g>
</g></svg>