<?xml version="1.0" encoding="UTF-8"?>
  <!DOCTYPE svg PUBLIC "-//W3C//DTD SVG 1.0//EN" "http://www.w3.org/TR/2001/REC-SVG-20010904/DTD/svg10.dtd" [
  <!ATTLIST g xmlns:kvg CDATA #FIXED "http://kanjivg.tagaini.net" kvg:element CDATA #IMPLIED kvg:variant CDATA #IMPLIED kvg:partial CDATA #IMPLIED kvg:original CDATA #IMPLIED kvg:part CDATA #IMPLIED kvg:number CDATA #IMPLIED kvg:tradForm CDATA #IMPLIED kvg:radicalForm CDATA #IMPLIED kvg:position CDATA #IMPLIED kvg:radical CDATA #IMPLIED kvg:phon CDATA #IMPLIED >
  <!ATTLIST path xmlns:kvg CDATA #FIXED "http://kanjivg.tagaini.net" kvg:type CDATA #IMPLIED >
  ]>
  <svg xmlns="http://www.w3.org/2000/svg" width="109" height="109" viewBox="0 0 109 109">
<g id="kvg:StrokePaths_05f97" style="fill:none;stroke:#000000;stroke-width:3;stroke-linecap:round;stroke-linejoin:round;">
<g id="kvg:05f97" kvg:element="得">
	<g id="kvg:05f97-g1" kvg:element="彳" kvg:position="left" kvg:radical="general">
		<path style="fill:none;stroke:#808080" id="kvg:05f97-s1" kvg:type="㇒" d="M34.25,12.62c0.05,0.48-0.22,1.32-0.6,1.91c-2.67,4.11-10.17,12.75-18.53,18.22"/>
		<g id="kvg:05f97-g2" kvg:element="亻" kvg:variant="true" kvg:original="人">
			<path style="fill:none;stroke:#808080" id="kvg:05f97-s2" kvg:type="㇒" d="M37.09,33c0.16,1,0.08,1.85-0.39,2.78c-3.32,6.54-11.29,18.91-23.45,29.97"/>
			<path style="fill:none;stroke:#808080" id="kvg:05f97-s3" kvg:type="㇑" d="M27.97,54c0.76,0.76,1.4,2.12,1.4,3.16c0,0.42-0.05,24.38-0.06,35.84c0,2.65-0.01,4.63-0.01,5.5"/>
		</g>
	</g>
	<g id="kvg:05f97-g3" kvg:position="right" kvg:phon="㝵">
		<g id="kvg:05f97-g4" kvg:element="旦" kvg:position="top">
			<g id="kvg:05f97-g5" kvg:element="日" kvg:position="top">
				<path style="fill:none;stroke-width:4;" id="kvg:05f97-s4" kvg:type="㇑" d="M52.17,12.66c1.02,1.02,1.33,2.09,1.5,3.35c0.09,0.64,1.51,14.41,2.24,21.72c0.26,2.57,0.43,4.35,0.43,4.46"/>
<circle cx="52.17" cy="12.66" r="5" style="fill:red;stroke:red;" />
			</g>
			<g id="kvg:05f97-g6" kvg:element="一" kvg:position="bottom">
			</g>
		</g>
		<g id="kvg:05f97-g7" kvg:element="寸" kvg:position="bottom">
		</g>
	</g>
</g>
</g></svg>