<?xml version="1.0" encoding="UTF-8"?>
  <!DOCTYPE svg PUBLIC "-//W3C//DTD SVG 1.0//EN" "http://www.w3.org/TR/2001/REC-SVG-20010904/DTD/svg10.dtd" [
  <!ATTLIST g xmlns:kvg CDATA #FIXED "http://kanjivg.tagaini.net" kvg:element CDATA #IMPLIED kvg:variant CDATA #IMPLIED kvg:partial CDATA #IMPLIED kvg:original CDATA #IMPLIED kvg:part CDATA #IMPLIED kvg:number CDATA #IMPLIED kvg:tradForm CDATA #IMPLIED kvg:radicalForm CDATA #IMPLIED kvg:position CDATA #IMPLIED kvg:radical CDATA #IMPLIED kvg:phon CDATA #IMPLIED >
  <!ATTLIST path xmlns:kvg CDATA #FIXED "http://kanjivg.tagaini.net" kvg:type CDATA #IMPLIED >
  ]>
  <svg xmlns="http://www.w3.org/2000/svg" width="109" height="109" viewBox="0 0 109 109">
<g id="kvg:StrokePaths_05f92" style="fill:none;stroke:#000000;stroke-width:3;stroke-linecap:round;stroke-linejoin:round;">
<g id="kvg:05f92" kvg:element="徒">
	<g id="kvg:05f92-g1" kvg:element="彳" kvg:position="left" kvg:radical="general">
		<path style="fill:none;stroke:#808080" id="kvg:05f92-s1" kvg:type="㇒" d="M31.62,13.75c0.06,0.46-0.22,1.28-0.6,1.85c-2.69,3.99-10.53,11.78-18.66,17.65"/>
		<g id="kvg:05f92-g2" kvg:element="亻" kvg:variant="true" kvg:original="人">
			<path style="fill:none;stroke:#808080" id="kvg:05f92-s2" kvg:type="㇒" d="M32.38,32.5c0.06,0.8,0.06,1.71-0.37,2.69c-3.05,6.9-10.82,18.89-22,30.56"/>
			<path style="fill:none;stroke:#808080" id="kvg:05f92-s3" kvg:type="㇑" d="M24.22,52.75c0.76,0.76,1.15,1.88,1.15,2.91c0,1.97-0.05,26.88-0.07,37.84c0,2.09,0,3.68,0,4.5"/>
		</g>
	</g>
	<g id="kvg:05f92-g3" kvg:element="走" kvg:position="right">
		<g id="kvg:05f92-g4" kvg:element="土" kvg:position="top" kvg:phon="土">
			<path style="fill:none;stroke:#808080" id="kvg:05f92-s4" kvg:type="㇐" d="M47.63,29.17c2,0.33,4.13,0.36,6.02,0.08c8.22-1.24,17.8-2.99,26.6-3.87c1.85-0.18,3.56-0.32,5.38,0.16"/>
			<path style="fill:none;stroke-width:4;" id="kvg:05f92-s5" kvg:type="㇑a" d="M63.42,10.62c0.12,0.29,1.65,1.53,1.77,3.39c0.57,8.93,0.31,27.7,0.31,30.75"/>
<circle cx="63.42" cy="10.62" r="5" style="fill:red;stroke:red;" />
		</g>
		<g id="kvg:05f92-g5" kvg:element="龰" kvg:position="bottom">
		</g>
	</g>
</g>
</g></svg>