<?xml version="1.0" encoding="UTF-8"?>
  <!DOCTYPE svg PUBLIC "-//W3C//DTD SVG 1.0//EN" "http://www.w3.org/TR/2001/REC-SVG-20010904/DTD/svg10.dtd" [
  <!ATTLIST g xmlns:kvg CDATA #FIXED "http://kanjivg.tagaini.net" kvg:element CDATA #IMPLIED kvg:variant CDATA #IMPLIED kvg:partial CDATA #IMPLIED kvg:original CDATA #IMPLIED kvg:part CDATA #IMPLIED kvg:number CDATA #IMPLIED kvg:tradForm CDATA #IMPLIED kvg:radicalForm CDATA #IMPLIED kvg:position CDATA #IMPLIED kvg:radical CDATA #IMPLIED kvg:phon CDATA #IMPLIED >
  <!ATTLIST path xmlns:kvg CDATA #FIXED "http://kanjivg.tagaini.net" kvg:type CDATA #IMPLIED >
  ]>
  <svg xmlns="http://www.w3.org/2000/svg" width="109" height="109" viewBox="0 0 109 109">
<g id="kvg:StrokePaths_05fd7" style="fill:none;stroke:#000000;stroke-width:3;stroke-linecap:round;stroke-linejoin:round;">
<g id="kvg:05fd7" kvg:element="志">
	<g id="kvg:05fd7-g1" kvg:element="士" kvg:variant="true" kvg:original="土" kvg:position="top" kvg:radical="nelson" kvg:phon="之V">
		<path style="fill:none;stroke:#808080" id="kvg:05fd7-s1" kvg:type="㇐" d="M21.61,31.38c2.76,0.87,6.01,0.74,8.64,0.43c13.5-1.57,34.11-3.99,48.01-4.46c2.63-0.09,5.55,0.06,8.14,0.62"/>
		<path style="fill:none;stroke:#808080" id="kvg:05fd7-s2" kvg:type="㇑a" d="M52.77,12.25c1.12,1.12,1.83,3.25,1.83,4.64c0,6.61-0.09,25.32-0.09,32.36"/>
		<path style="fill:none;stroke:#808080" id="kvg:05fd7-s3" kvg:type="㇐" d="M28.46,51.82c2.29,0.43,5.54,0.38,7.8,0.11c11.25-1.31,25-2.69,36.87-3.6c2.33-0.18,4.82,0.06,7.13,0.49"/>
	</g>
	<g id="kvg:05fd7-g2" kvg:element="心" kvg:position="bottom" kvg:radical="tradit">
		<path style="fill:none;stroke-width:4;" id="kvg:05fd7-s4" kvg:type="㇔" d="M19.75,73.5c0.36,2.33-3.61,12.64-6.5,16.54"/>
<circle cx="19.75" cy="73.5" r="5" style="fill:red;stroke:red;" />
	</g>
</g>
</g></svg>