<?xml version="1.0" encoding="UTF-8"?>
  <!DOCTYPE svg PUBLIC "-//W3C//DTD SVG 1.0//EN" "http://www.w3.org/TR/2001/REC-SVG-20010904/DTD/svg10.dtd" [
  <!ATTLIST g xmlns:kvg CDATA #FIXED "http://kanjivg.tagaini.net" kvg:element CDATA #IMPLIED kvg:variant CDATA #IMPLIED kvg:partial CDATA #IMPLIED kvg:original CDATA #IMPLIED kvg:part CDATA #IMPLIED kvg:number CDATA #IMPLIED kvg:tradForm CDATA #IMPLIED kvg:radicalForm CDATA #IMPLIED kvg:position CDATA #IMPLIED kvg:radical CDATA #IMPLIED kvg:phon CDATA #IMPLIED >
  <!ATTLIST path xmlns:kvg CDATA #FIXED "http://kanjivg.tagaini.net" kvg:type CDATA #IMPLIED >
  ]>
  <svg xmlns="http://www.w3.org/2000/svg" width="109" height="109" viewBox="0 0 109 109">
<g id="kvg:StrokePaths_05fd8" style="fill:none;stroke:#000000;stroke-width:3;stroke-linecap:round;stroke-linejoin:round;">
<g id="kvg:05fd8" kvg:element="忘">
	<g id="kvg:05fd8-g1" kvg:element="亡" kvg:position="top" kvg:phon="亡">
		<g id="kvg:05fd8-g2" kvg:element="亠" kvg:radical="nelson">
			<path style="fill:none;stroke:#808080" id="kvg:05fd8-s1" kvg:type="㇑a" d="M51.97,11.74c1.08,1.08,1.35,3.13,1.35,4.42c0,4.18-0.02,7.97-0.02,11.53"/>
			<g id="kvg:05fd8-g3" kvg:element="匸" kvg:part="1" kvg:variant="true" kvg:original="匚">
				<path style="fill:none;stroke:#808080" id="kvg:05fd8-s2" kvg:type="㇐" d="M17.7,31.21c3.08,0.22,5.7,0.48,8.8,0.16c11.96-1.24,38.61-4.25,52-4.88c2.67-0.13,5.5-0.24,8.05,0.52"/>
			</g>
		</g>
		<g id="kvg:05fd8-g4" kvg:element="匸" kvg:part="2" kvg:variant="true" kvg:original="匚">
			<path style="fill:none;stroke-width:4;" id="kvg:05fd8-s3" kvg:type="㇄" d="M33.07,33.85c0.79,0.79,1.16,2.15,1.16,3.84c0,1.8,0,3.68,0,5.86c0,7.69,1.53,8.82,22.53,8.82c8.12,0,15.39-0.15,22.47-1.91"/>
<circle cx="33.07" cy="33.85" r="5" style="fill:red;stroke:red;" />
		</g>
	</g>
	<g id="kvg:05fd8-g5" kvg:element="心" kvg:position="bottom" kvg:radical="tradit">
	</g>
</g>
</g></svg>