<?xml version="1.0" encoding="UTF-8"?>
  <!DOCTYPE svg PUBLIC "-//W3C//DTD SVG 1.0//EN" "http://www.w3.org/TR/2001/REC-SVG-20010904/DTD/svg10.dtd" [
  <!ATTLIST g xmlns:kvg CDATA #FIXED "http://kanjivg.tagaini.net" kvg:element CDATA #IMPLIED kvg:variant CDATA #IMPLIED kvg:partial CDATA #IMPLIED kvg:original CDATA #IMPLIED kvg:part CDATA #IMPLIED kvg:number CDATA #IMPLIED kvg:tradForm CDATA #IMPLIED kvg:radicalForm CDATA #IMPLIED kvg:position CDATA #IMPLIED kvg:radical CDATA #IMPLIED kvg:phon CDATA #IMPLIED >
  <!ATTLIST path xmlns:kvg CDATA #FIXED "http://kanjivg.tagaini.net" kvg:type CDATA #IMPLIED >
  ]>
  <svg xmlns="http://www.w3.org/2000/svg" width="109" height="109" viewBox="0 0 109 109">
<g id="kvg:StrokePaths_0606f" style="fill:none;stroke:#000000;stroke-width:3;stroke-linecap:round;stroke-linejoin:round;">
<g id="kvg:0606f" kvg:element="息">
	<g id="kvg:0606f-g1" kvg:element="自" kvg:position="top" kvg:radical="nelson">
		<path style="fill:none;stroke:#808080" id="kvg:0606f-s1" kvg:type="㇒" d="M54.25,10c0.13,0.85-0.12,1.71-0.56,2.63c-2,4.16-4.68,7.36-9.66,12.04"/>
		<g id="kvg:0606f-g2" kvg:element="目">
			<path style="fill:none;stroke:#808080" id="kvg:0606f-s2" kvg:type="㇑" d="M36.65,25.89c0.98,0.98,1.15,2.28,1.15,3.5c0,2.28,0,25.17,0,34.74c0,1.9,0,3.28,0,3.86"/>
			<path style="fill:none;stroke-width:4;" id="kvg:0606f-s3" kvg:type="㇕a" d="M38.99,27.9c9.13-1.77,22.51-3.6,28.25-4.47c3.26-0.49,5.43,0.68,5.35,4.19c-0.1,4.7-0.12,23.31-0.12,32.75c0,1.93,0,3.47,0,4.42"/>
<circle cx="38.99" cy="27.9" r="5" style="fill:red;stroke:red;" />
		</g>
	</g>
	<g id="kvg:0606f-g3" kvg:element="心" kvg:position="bottom" kvg:radical="tradit">
	</g>
</g>
</g></svg>