<?xml version="1.0" encoding="UTF-8"?>
  <!DOCTYPE svg PUBLIC "-//W3C//DTD SVG 1.0//EN" "http://www.w3.org/TR/2001/REC-SVG-20010904/DTD/svg10.dtd" [
  <!ATTLIST g xmlns:kvg CDATA #FIXED "http://kanjivg.tagaini.net" kvg:element CDATA #IMPLIED kvg:variant CDATA #IMPLIED kvg:partial CDATA #IMPLIED kvg:original CDATA #IMPLIED kvg:part CDATA #IMPLIED kvg:number CDATA #IMPLIED kvg:tradForm CDATA #IMPLIED kvg:radicalForm CDATA #IMPLIED kvg:position CDATA #IMPLIED kvg:radical CDATA #IMPLIED kvg:phon CDATA #IMPLIED >
  <!ATTLIST path xmlns:kvg CDATA #FIXED "http://kanjivg.tagaini.net" kvg:type CDATA #IMPLIED >
  ]>
  <svg xmlns="http://www.w3.org/2000/svg" width="109" height="109" viewBox="0 0 109 109">
<g id="kvg:StrokePaths_060aa" style="fill:none;stroke:#000000;stroke-width:3;stroke-linecap:round;stroke-linejoin:round;">
<g id="kvg:060aa" kvg:element="悪">
	<g id="kvg:060aa-g1" kvg:element="亜" kvg:position="top" kvg:phon="亜/亞">
		<g id="kvg:060aa-g2" kvg:element="二" kvg:part="1">
			<g id="kvg:060aa-g3" kvg:element="一" kvg:radical="nelson">
				<path style="fill:none;stroke:#808080" id="kvg:060aa-s1" kvg:type="㇐" d="M27.02,20.14c1.67,0.22,4.72,0.36,6.38,0.17C45.38,19,61.62,17,74.43,16.12c2.76-0.19,4.44,0.07,5.82,0.18"/>
			</g>
		</g>
		<g id="kvg:060aa-g4" kvg:element="口">
			<path style="fill:none;stroke:#808080" id="kvg:060aa-s2" kvg:type="㇑" d="M27.44,34.62c1.06,0.51,1.86,1.44,2.06,2.2c1.12,4.18,1.51,7.44,2.3,11.64c0.2,1.07,0.39,2.05,0.55,2.88"/>
			<path style="fill:none;stroke:#808080" id="kvg:060aa-s3" kvg:type="㇕a" d="M30.5,35.72c13.08-1.76,42.28-5.05,46.21-5.05c2.67,0,4.17,1.45,3.54,4.58c-0.61,3.03-1.06,4.82-1.95,9.01c-0.17,0.81-0.36,1.72-0.57,2.73"/>
			<path style="fill:none;stroke:#808080" id="kvg:060aa-s4" kvg:type="㇐a" d="M33.37,49.41c11-1.28,28.75-3.16,43.96-4.13"/>
		</g>
		<path style="fill:none;stroke-width:4;" id="kvg:060aa-s5" kvg:type="㇑a" d="M43.52,21.44c0.83,0.83,1.48,2.06,1.51,3.07c0.15,5.51,1.4,32.37,1.22,36.74"/>
<circle cx="43.52" cy="21.44" r="5" style="fill:red;stroke:red;" />
		<g id="kvg:060aa-g5" kvg:element="二" kvg:part="2">
		</g>
	</g>
	<g id="kvg:060aa-g6" kvg:element="心" kvg:position="bottom" kvg:radical="tradit">
	</g>
</g>
</g></svg>