<?xml version="1.0" encoding="UTF-8"?>
  <!DOCTYPE svg PUBLIC "-//W3C//DTD SVG 1.0//EN" "http://www.w3.org/TR/2001/REC-SVG-20010904/DTD/svg10.dtd" [
  <!ATTLIST g xmlns:kvg CDATA #FIXED "http://kanjivg.tagaini.net" kvg:element CDATA #IMPLIED kvg:variant CDATA #IMPLIED kvg:partial CDATA #IMPLIED kvg:original CDATA #IMPLIED kvg:part CDATA #IMPLIED kvg:number CDATA #IMPLIED kvg:tradForm CDATA #IMPLIED kvg:radicalForm CDATA #IMPLIED kvg:position CDATA #IMPLIED kvg:radical CDATA #IMPLIED kvg:phon CDATA #IMPLIED >
  <!ATTLIST path xmlns:kvg CDATA #FIXED "http://kanjivg.tagaini.net" kvg:type CDATA #IMPLIED >
  ]>
  <svg xmlns="http://www.w3.org/2000/svg" width="109" height="109" viewBox="0 0 109 109">
<g id="kvg:StrokePaths_060c5" style="fill:none;stroke:#000000;stroke-width:3;stroke-linecap:round;stroke-linejoin:round;">
<g id="kvg:060c5" kvg:element="情">
	<g id="kvg:060c5-g1" kvg:element="忄" kvg:variant="true" kvg:original="心" kvg:position="left" kvg:radical="general">
		<path style="fill:none;stroke:#808080" id="kvg:060c5-s1" kvg:type="㇔" d="M18.2,37.75c0,6.34-4.09,15.69-5.16,17.5"/>
		<path style="fill:none;stroke:#808080" id="kvg:060c5-s2" kvg:type="㇔" d="M30.52,29.33c3.19,1.79,8.25,7.35,9.04,10.13"/>
		<path style="fill:none;stroke:#808080" id="kvg:060c5-s3" kvg:type="㇑" d="M25.87,15c1.06,1.06,1.46,2.38,1.46,4c0,5.12-0.08,54.5-0.08,70.88c0,1.75-0.14,3.12-0.14,5.12"/>
	</g>
	<g id="kvg:060c5-g2" kvg:element="青" kvg:position="right" kvg:phon="青">
		<g id="kvg:060c5-g3" kvg:element="龶" kvg:position="top">
			<path style="fill:none;stroke:#808080" id="kvg:060c5-s4" kvg:type="㇐" d="M48.28,22.35c1.91,0.76,4.76,0.43,6.73,0.22c7.77-0.84,21.64-2.24,28.63-2.88c1.89-0.17,4.01-0.2,5.9-0.06"/>
			<path style="fill:none;stroke-width:4;" id="kvg:060c5-s5" kvg:type="㇑a" d="M66.46,11.88c1.02,1.02,1.57,2.74,1.57,3.93c0,5.93-0.18,19.83-0.11,27.16"/>
<circle cx="66.46" cy="11.88" r="5" style="fill:red;stroke:red;" />
		</g>
		<g id="kvg:060c5-g4" kvg:element="月" kvg:position="bottom">
		</g>
	</g>
</g>
</g></svg>