<?xml version="1.0" encoding="UTF-8"?>
  <!DOCTYPE svg PUBLIC "-//W3C//DTD SVG 1.0//EN" "http://www.w3.org/TR/2001/REC-SVG-20010904/DTD/svg10.dtd" [
  <!ATTLIST g xmlns:kvg CDATA #FIXED "http://kanjivg.tagaini.net" kvg:element CDATA #IMPLIED kvg:variant CDATA #IMPLIED kvg:partial CDATA #IMPLIED kvg:original CDATA #IMPLIED kvg:part CDATA #IMPLIED kvg:number CDATA #IMPLIED kvg:tradForm CDATA #IMPLIED kvg:radicalForm CDATA #IMPLIED kvg:position CDATA #IMPLIED kvg:radical CDATA #IMPLIED kvg:phon CDATA #IMPLIED >
  <!ATTLIST path xmlns:kvg CDATA #FIXED "http://kanjivg.tagaini.net" kvg:type CDATA #IMPLIED >
  ]>
  <svg xmlns="http://www.w3.org/2000/svg" width="109" height="109" viewBox="0 0 109 109">
<g id="kvg:StrokePaths_0610f" style="fill:none;stroke:#000000;stroke-width:3;stroke-linecap:round;stroke-linejoin:round;">
<g id="kvg:0610f" kvg:element="意">
	<g id="kvg:0610f-g1" kvg:element="音" kvg:position="top" kvg:radical="nelson">
		<g id="kvg:0610f-g2" kvg:element="立">
			<g id="kvg:0610f-g3" kvg:element="亠" kvg:position="top">
				<path style="fill:none;stroke:#808080" id="kvg:0610f-s1" kvg:type="㇑a" d="M51.22,10c1.19,0.75,1.87,2.08,1.87,3.87c0,1.88,0.16,2.88,0.16,5.41"/>
				<path style="fill:none;stroke:#808080" id="kvg:0610f-s2" kvg:type="㇐" d="M25.75,22.16c2.41,0.63,4.68,0.4,7.12,0.16c10.89-1.09,25.88-2.57,38.13-3.43c2.34-0.16,5.37-0.39,8,0.13"/>
			</g>
			<g id="kvg:0610f-g4" kvg:position="bottom">
				<path style="fill:none;stroke:#808080" id="kvg:0610f-s3" kvg:type="㇔" d="M35.88,25.5c2.81,3.07,5.01,7.88,5.6,10.7"/>
				<path style="fill:none;stroke-width:4;" id="kvg:0610f-s4" kvg:type="㇒" d="M66.99,22.24c0.26,0.96,0.2,2.21-0.25,3.18c-2.49,5.33-3.46,7.97-4.82,10.11"/>
<circle cx="66.99" cy="22.24" r="5" style="fill:red;stroke:red;" />
			</g>
		</g>
		<g id="kvg:0610f-g5" kvg:element="日">
		</g>
	</g>
	<g id="kvg:0610f-g6" kvg:element="心" kvg:position="bottom" kvg:radical="tradit">
	</g>
</g>
</g></svg>