<?xml version="1.0" encoding="UTF-8"?>
  <!DOCTYPE svg PUBLIC "-//W3C//DTD SVG 1.0//EN" "http://www.w3.org/TR/2001/REC-SVG-20010904/DTD/svg10.dtd" [
  <!ATTLIST g xmlns:kvg CDATA #FIXED "http://kanjivg.tagaini.net" kvg:element CDATA #IMPLIED kvg:variant CDATA #IMPLIED kvg:partial CDATA #IMPLIED kvg:original CDATA #IMPLIED kvg:part CDATA #IMPLIED kvg:number CDATA #IMPLIED kvg:tradForm CDATA #IMPLIED kvg:radicalForm CDATA #IMPLIED kvg:position CDATA #IMPLIED kvg:radical CDATA #IMPLIED kvg:phon CDATA #IMPLIED >
  <!ATTLIST path xmlns:kvg CDATA #FIXED "http://kanjivg.tagaini.net" kvg:type CDATA #IMPLIED >
  ]>
  <svg xmlns="http://www.w3.org/2000/svg" width="109" height="109" viewBox="0 0 109 109">
<g id="kvg:StrokePaths_0611b" style="fill:none;stroke:#000000;stroke-width:3;stroke-linecap:round;stroke-linejoin:round;">
<g id="kvg:0611b" kvg:element="愛">
	<g id="kvg:0611b-g1" kvg:element="⺤" kvg:variant="true" kvg:original="爪" kvg:position="top" kvg:radical="nelson" kvg:phon="旡">
		<path style="fill:none;stroke:#808080" id="kvg:0611b-s1" kvg:type="㇒" d="M59.38,8.75c-0.21,0.82-0.79,1.64-1.47,2.17c-3.13,2.42-12.8,6.29-23.36,8.97"/>
		<path style="fill:none;stroke:#808080" id="kvg:0611b-s2" kvg:type="㇔" d="M32.12,23.38c3.07,1.58,7.54,5.46,8.31,7.92"/>
		<path style="fill:none;stroke:#808080" id="kvg:0611b-s3" kvg:type="㇔" d="M48.17,22.31c2.68,1.28,6.93,5.28,7.6,7.28"/>
		<path style="fill:none;stroke:#808080" id="kvg:0611b-s4" kvg:type="㇒" d="M75.86,18.37c0.12,0.96-0.09,1.34-0.68,2.14c-2.05,2.78-6.53,6.83-12.91,10.99"/>
	</g>
	<g id="kvg:0611b-g2" kvg:position="bottom">
		<g id="kvg:0611b-g3" kvg:element="冖">
			<path style="fill:none;stroke:#808080" id="kvg:0611b-s5" kvg:type="㇔" d="M17.99,38.24c-0.1,3.62-1.86,11.86-2.72,14.08"/>
			<path style="fill:none;stroke:#808080" id="kvg:0611b-s6" kvg:type="㇖b" d="M18.36,39.68c18.14-1.93,48.77-6.31,68.68-7.1c13.73-0.55,3.22,6.92-0.68,9.26"/>
		</g>
		<g id="kvg:0611b-g4" kvg:element="心" kvg:radical="tradit">
			<path style="fill:none;stroke:#808080" id="kvg:0611b-s7" kvg:type="㇔" d="M29.53,46.89c0.19,1.49-1.93,8.08-3.47,10.57"/>
			<path style="fill:none;stroke:#808080" id="kvg:0611b-s8" kvg:type="㇃" d="M39.78,45.13c6.35,9.25,13.6,13,34.98,12.1c5.32-0.22,5.31-2.72,2.4-4.63"/>
			<path style="fill:none;stroke:#808080" id="kvg:0611b-s9" kvg:type="㇔a" d="M53.13,42.75c1.49,3,4.72,5.55,5.58,3.13"/>
			<path style="fill:none;stroke-width:4;" id="kvg:0611b-s10" kvg:type="㇔" d="M72.97,40.61c3.28,2.14,5.4,3.51,8.03,7.55"/>
<circle cx="72.97" cy="40.61" r="5" style="fill:red;stroke:red;" />
		</g>
		<g id="kvg:0611b-g5" kvg:element="夂">
		</g>
	</g>
</g>
</g></svg>