<?xml version="1.0" encoding="UTF-8"?>
  <!DOCTYPE svg PUBLIC "-//W3C//DTD SVG 1.0//EN" "http://www.w3.org/TR/2001/REC-SVG-20010904/DTD/svg10.dtd" [
  <!ATTLIST g xmlns:kvg CDATA #FIXED "http://kanjivg.tagaini.net" kvg:element CDATA #IMPLIED kvg:variant CDATA #IMPLIED kvg:partial CDATA #IMPLIED kvg:original CDATA #IMPLIED kvg:part CDATA #IMPLIED kvg:number CDATA #IMPLIED kvg:tradForm CDATA #IMPLIED kvg:radicalForm CDATA #IMPLIED kvg:position CDATA #IMPLIED kvg:radical CDATA #IMPLIED kvg:phon CDATA #IMPLIED >
  <!ATTLIST path xmlns:kvg CDATA #FIXED "http://kanjivg.tagaini.net" kvg:type CDATA #IMPLIED >
  ]>
  <svg xmlns="http://www.w3.org/2000/svg" width="109" height="109" viewBox="0 0 109 109">
<g id="kvg:StrokePaths_06163" style="fill:none;stroke:#000000;stroke-width:3;stroke-linecap:round;stroke-linejoin:round;">
<g id="kvg:06163" kvg:element="慣">
	<g id="kvg:06163-g1" kvg:element="忄" kvg:variant="true" kvg:original="心" kvg:position="left" kvg:radical="general">
		<path style="fill:none;stroke:#808080" id="kvg:06163-s1" kvg:type="㇔" d="M16.18,38c0,5.88-3.06,14.57-3.86,16.25"/>
		<path style="fill:none;stroke:#808080" id="kvg:06163-s2" kvg:type="㇔" d="M29.02,35.08c2.84,1.79,7.33,7.35,8.04,10.13"/>
		<path style="fill:none;stroke:#808080" id="kvg:06163-s3" kvg:type="㇑" d="M22.87,14.5c1.06,1.06,1.46,2.75,1.46,4.25c0,0.87,0.02,51.42,0.03,71.25c0,3.57,0,6.15,0,7.25"/>
	</g>
	<g id="kvg:06163-g2" kvg:element="貫" kvg:position="right" kvg:phon="貫">
		<g id="kvg:06163-g3" kvg:element="毋" kvg:original="母" kvg:partial="true" kvg:position="top">
			<path style="fill:none;stroke:#808080" id="kvg:06163-s4" kvg:type="㇛" d="m51.6,15.24c0.83,0.83,1.14,2.12,1.02,3.3-0.74,7.34-1.75,14.09-3.1,18.7-0.5,1.69,0.19,2.75,1.57,2.46,8.11,-1.7,15.02,-2.59,24.42,-3.15,2.09,-0.13,4.3,-0.23,6.68,-0.33"/>
			<path style="fill:none;stroke-width:4;" id="kvg:06163-s5" kvg:type="㇕a/㇆" d="M54.17,17.48c0.8-0.08,24.87-3.59,28.85-3.52c1.55,0.03,2.96,1.15,2.65,3c-0.96,5.81-1.64,11.08-2.84,17.67C82.58,36.03,82.3,37.47,82,39"/>
<circle cx="54.17" cy="17.48" r="5" style="fill:red;stroke:red;" />
		</g>
		<g id="kvg:06163-g4" kvg:element="貝" kvg:position="bottom">
			<g id="kvg:06163-g5" kvg:element="目" kvg:position="top">
			</g>
			<g id="kvg:06163-g6" kvg:position="bottom">
			</g>
		</g>
	</g>
</g>
</g></svg>