<?xml version="1.0" encoding="UTF-8"?>
  <!DOCTYPE svg PUBLIC "-//W3C//DTD SVG 1.0//EN" "http://www.w3.org/TR/2001/REC-SVG-20010904/DTD/svg10.dtd" [
  <!ATTLIST g xmlns:kvg CDATA #FIXED "http://kanjivg.tagaini.net" kvg:element CDATA #IMPLIED kvg:variant CDATA #IMPLIED kvg:partial CDATA #IMPLIED kvg:original CDATA #IMPLIED kvg:part CDATA #IMPLIED kvg:number CDATA #IMPLIED kvg:tradForm CDATA #IMPLIED kvg:radicalForm CDATA #IMPLIED kvg:position CDATA #IMPLIED kvg:radical CDATA #IMPLIED kvg:phon CDATA #IMPLIED >
  <!ATTLIST path xmlns:kvg CDATA #FIXED "http://kanjivg.tagaini.net" kvg:type CDATA #IMPLIED >
  ]>
  <svg xmlns="http://www.w3.org/2000/svg" width="109" height="109" viewBox="0 0 109 109">
<g id="kvg:StrokePaths_061b2" style="fill:none;stroke:#000000;stroke-width:3;stroke-linecap:round;stroke-linejoin:round;">
<g id="kvg:061b2" kvg:element="憲">
	<g id="kvg:061b2-g1" kvg:position="top" kvg:phon="宀+2+3+2+2+罒">
		<g id="kvg:061b2-g2" kvg:element="宀" kvg:radical="nelson">
			<path style="fill:none;stroke:#808080" id="kvg:061b2-s1" kvg:type="㇑a" d="M52.7,10.72c0.91,0.91,1.3,2.47,1.27,3.55c-0.08,3.41-0.08,4.97-0.09,8.07"/>
			<g id="kvg:061b2-g3" kvg:element="冖">
				<path style="fill:none;stroke:#808080" id="kvg:061b2-s2" kvg:type="㇔" d="M24.12,23.62c0,3.66-3.6,13.72-5.24,16.16"/>
				<path style="fill:none;stroke:#808080" id="kvg:061b2-s3" kvg:type="㇖b" d="M24.85,26.55c12.9-1.18,44.53-5.3,59.95-5.79c10.55-0.33,1.99,7.02-0.64,8.87"/>
			</g>
		</g>
		<path style="fill:none;stroke:#808080" id="kvg:061b2-s4" kvg:type="㇐" d="M36.92,35.06c1.83,0.44,3.8,0.27,5.55,0.06c6.28-0.74,16.15-2.5,23.91-3.32c1.61-0.17,3.19-0.16,4.81-0.04"/>
		<path style="fill:none;stroke-width:4;" id="kvg:061b2-s5" kvg:type="㇑a" d="M53.1,24.88c1.01,1.01,1.37,2.37,1.37,3.54c0,3.58-0.09,15.1-0.09,21.95"/>
<circle cx="53.1" cy="24.88" r="5" style="fill:red;stroke:red;" />
		<g id="kvg:061b2-g4" kvg:element="罒" kvg:variant="true" kvg:original="网">
		</g>
	</g>
	<g id="kvg:061b2-g5" kvg:element="心" kvg:position="bottom" kvg:radical="tradit">
	</g>
</g>
</g></svg>