<?xml version="1.0" encoding="UTF-8"?>
  <!DOCTYPE svg PUBLIC "-//W3C//DTD SVG 1.0//EN" "http://www.w3.org/TR/2001/REC-SVG-20010904/DTD/svg10.dtd" [
  <!ATTLIST g xmlns:kvg CDATA #FIXED "http://kanjivg.tagaini.net" kvg:element CDATA #IMPLIED kvg:variant CDATA #IMPLIED kvg:partial CDATA #IMPLIED kvg:original CDATA #IMPLIED kvg:part CDATA #IMPLIED kvg:number CDATA #IMPLIED kvg:tradForm CDATA #IMPLIED kvg:radicalForm CDATA #IMPLIED kvg:position CDATA #IMPLIED kvg:radical CDATA #IMPLIED kvg:phon CDATA #IMPLIED >
  <!ATTLIST path xmlns:kvg CDATA #FIXED "http://kanjivg.tagaini.net" kvg:type CDATA #IMPLIED >
  ]>
  <svg xmlns="http://www.w3.org/2000/svg" width="109" height="109" viewBox="0 0 109 109">
<g id="kvg:StrokePaths_06210" style="fill:none;stroke:#000000;stroke-width:3;stroke-linecap:round;stroke-linejoin:round;">
<g id="kvg:06210" kvg:element="成">
	<g id="kvg:06210-g1" kvg:element="𠂊" kvg:part="1" kvg:variant="true" kvg:original="勹">
		<g id="kvg:06210-g2" kvg:element="丿">
			<path style="fill:none;stroke:#808080" id="kvg:06210-s1" kvg:type="㇒" d="M25.9,31.5c0.99,0.99,1.24,2.38,1.24,3.74c0,18.01-2.39,42.26-15.08,56.97"/>
		</g>
	</g>
	<g id="kvg:06210-g3" kvg:element="戈" kvg:part="1" kvg:radical="general">
		<g id="kvg:06210-g4" kvg:element="弋" kvg:part="1">
			<path style="fill:none;stroke:#808080" id="kvg:06210-s2" kvg:type="㇐" d="M27.5,33.7c2.12,0.68,5.54,0.04,8.37-0.26c9.61-1.04,30.55-3.41,42.77-4.41c3.06-0.25,5.85-0.38,8.86,0.26"/>
		</g>
	</g>
	<g id="kvg:06210-g5" kvg:element="𠂊" kvg:part="2" kvg:variant="true" kvg:original="勹" kvg:phon="丁V">
		<path style="fill:none;stroke-width:4;" id="kvg:06210-s3" kvg:type="㇆a" d="M27.5,56.26c6.88-1.01,16.84-3.16,18.88-3.27c2.37-0.12,3.59,1.18,3.23,3.67c-0.35,2.48-2.34,19.81-7.55,26.56c-1.56,2.03-4.39,0.14-5.79-1.34"/>
<circle cx="27.5" cy="56.26" r="5" style="fill:red;stroke:red;" />
	</g>
	<g id="kvg:06210-g6" kvg:element="戈" kvg:part="2" kvg:radical="general">
		<g id="kvg:06210-g7" kvg:element="丿">
		</g>
		<g id="kvg:06210-g8" kvg:element="弋" kvg:part="2">
			<g id="kvg:06210-g9" kvg:element="丶">
			</g>
		</g>
	</g>
</g>
</g></svg>