<?xml version="1.0" encoding="UTF-8"?>
  <!DOCTYPE svg PUBLIC "-//W3C//DTD SVG 1.0//EN" "http://www.w3.org/TR/2001/REC-SVG-20010904/DTD/svg10.dtd" [
  <!ATTLIST g xmlns:kvg CDATA #FIXED "http://kanjivg.tagaini.net" kvg:element CDATA #IMPLIED kvg:variant CDATA #IMPLIED kvg:partial CDATA #IMPLIED kvg:original CDATA #IMPLIED kvg:part CDATA #IMPLIED kvg:number CDATA #IMPLIED kvg:tradForm CDATA #IMPLIED kvg:radicalForm CDATA #IMPLIED kvg:position CDATA #IMPLIED kvg:radical CDATA #IMPLIED kvg:phon CDATA #IMPLIED >
  <!ATTLIST path xmlns:kvg CDATA #FIXED "http://kanjivg.tagaini.net" kvg:type CDATA #IMPLIED >
  ]>
  <svg xmlns="http://www.w3.org/2000/svg" width="109" height="109" viewBox="0 0 109 109">
<g id="kvg:StrokePaths_06211" style="fill:none;stroke:#000000;stroke-width:3;stroke-linecap:round;stroke-linejoin:round;">
<g id="kvg:06211" kvg:element="我">
	<g id="kvg:06211-g1" kvg:element="丿" kvg:radical="nelson">
		<path style="fill:none;stroke:#808080" id="kvg:06211-s1" kvg:type="㇒" d="M45.99,16.14c0.06,0.38-0.2,1.85-0.62,2.27c-3.75,3.71-9.5,7.96-21.56,13.8"/>
	</g>
	<g id="kvg:06211-g2" kvg:element="戈" kvg:part="1" kvg:radical="tradit">
		<g id="kvg:06211-g3" kvg:element="弋" kvg:part="1">
			<path style="fill:none;stroke:#808080" id="kvg:06211-s2" kvg:type="㇐" d="M15.75,44.95c2.88,0.68,5.82,0.43,8.52,0.1c9.61-1.17,43.59-6.49,60.24-7.8c3.07-0.24,5.97-0.35,9,0.3"/>
		</g>
	</g>
	<g id="kvg:06211-g4" kvg:element="亅">
		<path style="fill:none;stroke:#808080" id="kvg:06211-s3" kvg:type="㇚" d="M39.02,27.33c0.83,0.83,1.51,2.04,1.51,4.27c0,14.56-0.01,52.4-0.01,58.37c0,11.78-5.71,1.75-7.21,0.5"/>
	</g>
	<path style="fill:none;stroke-width:4;" id="kvg:06211-s4" kvg:type="㇀" d="M15.62,74.5c1.38,0.88,3.03,0.67,4.69-0.35c1.62-1,21.43-13.52,29.93-19.15"/>
<circle cx="15.62" cy="74.5" r="5" style="fill:red;stroke:red;" />
	<g id="kvg:06211-g5" kvg:element="戈" kvg:part="2" kvg:radical="tradit">
		<g id="kvg:06211-g6" kvg:element="丿">
		</g>
		<g id="kvg:06211-g7" kvg:element="弋" kvg:part="2">
			<g id="kvg:06211-g8" kvg:element="丶">
			</g>
		</g>
	</g>
</g>
</g></svg>