<?xml version="1.0" encoding="UTF-8"?>
  <!DOCTYPE svg PUBLIC "-//W3C//DTD SVG 1.0//EN" "http://www.w3.org/TR/2001/REC-SVG-20010904/DTD/svg10.dtd" [
  <!ATTLIST g xmlns:kvg CDATA #FIXED "http://kanjivg.tagaini.net" kvg:element CDATA #IMPLIED kvg:variant CDATA #IMPLIED kvg:partial CDATA #IMPLIED kvg:original CDATA #IMPLIED kvg:part CDATA #IMPLIED kvg:number CDATA #IMPLIED kvg:tradForm CDATA #IMPLIED kvg:radicalForm CDATA #IMPLIED kvg:position CDATA #IMPLIED kvg:radical CDATA #IMPLIED kvg:phon CDATA #IMPLIED >
  <!ATTLIST path xmlns:kvg CDATA #FIXED "http://kanjivg.tagaini.net" kvg:type CDATA #IMPLIED >
  ]>
  <svg xmlns="http://www.w3.org/2000/svg" width="109" height="109" viewBox="0 0 109 109">
<g id="kvg:StrokePaths_06240" style="fill:none;stroke:#000000;stroke-width:3;stroke-linecap:round;stroke-linejoin:round;">
<g id="kvg:06240" kvg:element="所">
	<g id="kvg:06240-g1" kvg:element="戸" kvg:position="left" kvg:radical="general" kvg:phon="戸">
		<path style="fill:none;stroke:#808080" id="kvg:06240-s1" kvg:type="㇐" d="M16.17,23.74c1.21,0.38,2.82,0.41,4.38,0.27c7.08-0.64,18.2-2.51,24.54-3.61c1.92-0.33,3.53-0.66,5.41-0.49"/>
		<path style="fill:none;stroke:#808080" id="kvg:06240-s2" kvg:type="㇕c" d="M18,40.62c1.25,0.5,2.7,0.45,3.86,0.29c7.62-1.03,16.15-2.68,20.88-3.26c2.26-0.28,3.64,1.6,3.4,3.11c-0.71,4.48-2.07,8.18-3.22,15.72"/>
		<path style="fill:none;stroke:#808080" id="kvg:06240-s3" kvg:type="㇐b" d="M21.47,59.99c5.64-0.64,13.18-1.84,20.53-2.69c1.16-0.13,2.38-0.18,3.49-0.12"/>
		<path style="fill:none;stroke:#808080" id="kvg:06240-s4" kvg:type="㇒" d="M19.86,41.4c0.68,0.68,0.93,1.6,0.93,2.73c0,22.5-0.54,34.37-7.04,44.12"/>
	</g>
	<g id="kvg:06240-g2" kvg:element="斤" kvg:position="right">
		<path style="fill:none;stroke-width:4;" id="kvg:06240-s5" kvg:type="㇒" d="M79.5,11.88c-0.13,1.38-0.51,2.68-1.56,3.67C73.88,19.38,68.5,24,59.62,28.75"/>
<circle cx="79.5" cy="11.88" r="5" style="fill:red;stroke:red;" />
	</g>
</g>
</g></svg>