<?xml version="1.0" encoding="UTF-8"?>
  <!DOCTYPE svg PUBLIC "-//W3C//DTD SVG 1.0//EN" "http://www.w3.org/TR/2001/REC-SVG-20010904/DTD/svg10.dtd" [
  <!ATTLIST g xmlns:kvg CDATA #FIXED "http://kanjivg.tagaini.net" kvg:element CDATA #IMPLIED kvg:variant CDATA #IMPLIED kvg:partial CDATA #IMPLIED kvg:original CDATA #IMPLIED kvg:part CDATA #IMPLIED kvg:number CDATA #IMPLIED kvg:tradForm CDATA #IMPLIED kvg:radicalForm CDATA #IMPLIED kvg:position CDATA #IMPLIED kvg:radical CDATA #IMPLIED kvg:phon CDATA #IMPLIED >
  <!ATTLIST path xmlns:kvg CDATA #FIXED "http://kanjivg.tagaini.net" kvg:type CDATA #IMPLIED >
  ]>
  <svg xmlns="http://www.w3.org/2000/svg" width="109" height="109" viewBox="0 0 109 109">
<g id="kvg:StrokePaths_06280" style="fill:none;stroke:#000000;stroke-width:3;stroke-linecap:round;stroke-linejoin:round;">
<g id="kvg:06280" kvg:element="技">
	<g id="kvg:06280-g1" kvg:element="扌" kvg:variant="true" kvg:original="手" kvg:position="left" kvg:radical="general">
		<path style="fill:none;stroke:#808080" id="kvg:06280-s1" kvg:type="㇐" d="M13.75,39.67c1.5,0.33,2.77,0.3,5,0c4.77-0.65,11.96-2.11,18.12-3.18c1.38-0.24,2.63-0.36,4.04-0.24"/>
		<path style="fill:none;stroke:#808080" id="kvg:06280-s2" kvg:type="㇚" d="M29.52,15.5c0.99,0.99,1.76,2.62,1.76,5.02c0,15.23,0.24,53.46,0.24,64.9c0,12.83-6.32,3.78-7.77,2.25"/>
		<path style="fill:none;stroke:#808080" id="kvg:06280-s3" kvg:type="㇀" d="M13.47,67.24c1.02,0.79,2.66,0.89,4.03-0.24c8.13-6.65,11.5-9.25,21.75-17.58"/>
	</g>
	<g id="kvg:06280-g2" kvg:element="支" kvg:position="right" kvg:phon="支">
		<g id="kvg:06280-g3" kvg:element="十" kvg:position="top">
			<path style="fill:none;stroke:#808080" id="kvg:06280-s4" kvg:type="㇐" d="M46.35,35.08c2.65,0.54,4.32,0.46,6.65-0.03c7.49-1.56,20.68-3.82,27.89-4.77c2.23-0.3,4.73-0.28,6.45,0.12"/>
			<path style="fill:none;stroke-width:4;" id="kvg:06280-s5" kvg:type="㇑a" d="M63.59,13.34c1.29,1.29,1.74,2.91,1.74,4.36c0,0.93,0.03,26.18,0.03,32.49"/>
<circle cx="63.59" cy="13.34" r="5" style="fill:red;stroke:red;" />
		</g>
		<g id="kvg:06280-g4" kvg:element="又" kvg:position="bottom">
		</g>
	</g>
</g>
</g></svg>