<?xml version="1.0" encoding="UTF-8"?>
  <!DOCTYPE svg PUBLIC "-//W3C//DTD SVG 1.0//EN" "http://www.w3.org/TR/2001/REC-SVG-20010904/DTD/svg10.dtd" [
  <!ATTLIST g xmlns:kvg CDATA #FIXED "http://kanjivg.tagaini.net" kvg:element CDATA #IMPLIED kvg:variant CDATA #IMPLIED kvg:partial CDATA #IMPLIED kvg:original CDATA #IMPLIED kvg:part CDATA #IMPLIED kvg:number CDATA #IMPLIED kvg:tradForm CDATA #IMPLIED kvg:radicalForm CDATA #IMPLIED kvg:position CDATA #IMPLIED kvg:radical CDATA #IMPLIED kvg:phon CDATA #IMPLIED >
  <!ATTLIST path xmlns:kvg CDATA #FIXED "http://kanjivg.tagaini.net" kvg:type CDATA #IMPLIED >
  ]>
  <svg xmlns="http://www.w3.org/2000/svg" width="109" height="109" viewBox="0 0 109 109">
<g id="kvg:StrokePaths_06368" style="fill:none;stroke:#000000;stroke-width:3;stroke-linecap:round;stroke-linejoin:round;">
<g id="kvg:06368" kvg:element="捨">
	<g id="kvg:06368-g1" kvg:element="扌" kvg:variant="true" kvg:original="手" kvg:position="left" kvg:radical="general">
		<path style="fill:none;stroke:#808080" id="kvg:06368-s1" kvg:type="㇐" d="M11,38.42c2.07,0.25,3.99,0.43,6.12,0.15c4.96-0.66,12.21-1.86,18.89-2.79c1.31-0.18,2.87-0.27,3.91-0.27"/>
		<path style="fill:none;stroke:#808080" id="kvg:06368-s2" kvg:type="㇚" d="M27.27,15.25c0.93,0.93,1.76,2.5,1.76,4.27c0,15.23-0.01,55.71-0.01,67.15c0,14.25-6.32,3.53-7.77,2"/>
		<path style="fill:none;stroke:#808080" id="kvg:06368-s3" kvg:type="㇀" d="M10.17,68.15c1.08,0.72,2.82,0.83,3.96-0.03c5.62-4.25,8.88-6.62,20.12-14.71"/>
	</g>
	<g id="kvg:06368-g2" kvg:element="舎" kvg:position="right" kvg:phon="舎">
		<g id="kvg:06368-g3" kvg:element="人" kvg:position="top">
			<path style="fill:none;stroke:#808080" id="kvg:06368-s4" kvg:type="㇒" d="M62.32,13.25c0.18,0.88-0.11,2.3-0.62,3.28C56.75,26,51.38,34.75,40.5,45.25"/>
			<path style="fill:none;stroke:#808080" id="kvg:06368-s5" kvg:type="㇏" d="M63.16,16.74c5.22,4.76,17.41,17,24.48,23.52c2.02,1.86,5.11,4.37,7.36,5.68"/>
		</g>
		<g id="kvg:06368-g4" kvg:element="吉" kvg:position="bottom">
			<g id="kvg:06368-g5" kvg:element="士" kvg:position="top">
				<path style="fill:none;stroke:#808080" id="kvg:06368-s6" kvg:type="㇐" d="M48.13,47c1.23,0.4,3.48,0.55,4.71,0.49c4.91-0.24,15.16-1.74,22.94-2.59c2.04-0.22,3.28-0.18,4.3,0"/>
				<path style="fill:none;stroke-width:4;" id="kvg:06368-s7" kvg:type="㇑a" d="M62.94,33.76c0.9,0.9,1.57,2.12,1.57,3.42c0,3.2,0.06,16.07,0.06,22.51"/>
<circle cx="62.94" cy="33.76" r="5" style="fill:red;stroke:red;" />
			</g>
			<g id="kvg:06368-g6" kvg:element="口" kvg:position="bottom">
			</g>
		</g>
	</g>
</g>
</g></svg>