<?xml version="1.0" encoding="UTF-8"?>
  <!DOCTYPE svg PUBLIC "-//W3C//DTD SVG 1.0//EN" "http://www.w3.org/TR/2001/REC-SVG-20010904/DTD/svg10.dtd" [
  <!ATTLIST g xmlns:kvg CDATA #FIXED "http://kanjivg.tagaini.net" kvg:element CDATA #IMPLIED kvg:variant CDATA #IMPLIED kvg:partial CDATA #IMPLIED kvg:original CDATA #IMPLIED kvg:part CDATA #IMPLIED kvg:number CDATA #IMPLIED kvg:tradForm CDATA #IMPLIED kvg:radicalForm CDATA #IMPLIED kvg:position CDATA #IMPLIED kvg:radical CDATA #IMPLIED kvg:phon CDATA #IMPLIED >
  <!ATTLIST path xmlns:kvg CDATA #FIXED "http://kanjivg.tagaini.net" kvg:type CDATA #IMPLIED >
  ]>
  <svg xmlns="http://www.w3.org/2000/svg" width="109" height="109" viewBox="0 0 109 109">
<g id="kvg:StrokePaths_06388" style="fill:none;stroke:#000000;stroke-width:3;stroke-linecap:round;stroke-linejoin:round;">
<g id="kvg:06388" kvg:element="授">
	<g id="kvg:06388-g1" kvg:element="扌" kvg:variant="true" kvg:original="手" kvg:position="left" kvg:radical="general">
		<path style="fill:none;stroke:#808080" id="kvg:06388-s1" kvg:type="㇐" d="M12.75,37.92c1.38,0.33,3.01,0.43,5.25,0.25c6.88-0.54,11.62-1.54,19.27-2.74c1.04-0.16,2.35-0.3,3.64-0.17"/>
		<path style="fill:none;stroke:#808080" id="kvg:06388-s2" kvg:type="㇚" d="M28.77,14.75c0.87,0.87,1.76,2.88,1.76,4.52c0,15.23,0.24,55.71,0.24,67.15c0,14.25-6.32,3.53-7.77,2"/>
		<path style="fill:none;stroke:#808080" id="kvg:06388-s3" kvg:type="㇀" d="M11,63.68c1.25,1.78,3.83,1.61,6.5-0.18c5-3.36,7.5-5.5,18.75-13.58"/>
	</g>
	<g id="kvg:06388-g2" kvg:element="受" kvg:position="right" kvg:phon="受">
		<g id="kvg:06388-g3" kvg:position="top">
			<g id="kvg:06388-g4" kvg:element="⺤" kvg:variant="true" kvg:original="爪">
				<path style="fill:none;stroke:#808080" id="kvg:06388-s4" kvg:type="㇒" d="M73.99,14.64c-0.12,0.86-0.61,1.78-1.34,2.39c-3.19,2.68-11.44,7-21.19,9.66"/>
				<path style="fill:none;stroke:#808080" id="kvg:06388-s5" kvg:type="㇔" d="M48.92,31.52c1.59,1.42,4.58,5.85,4.97,8.06"/>
				<path style="fill:none;stroke-width:4;" id="kvg:06388-s6" kvg:type="㇔" d="M63.12,27.75c1.58,1.37,4.57,6.58,4.97,8.71"/>
<circle cx="63.12" cy="27.75" r="5" style="fill:red;stroke:red;" />
			</g>
			<g id="kvg:06388-g5" kvg:element="冖">
			</g>
		</g>
		<g id="kvg:06388-g6" kvg:element="又" kvg:position="bottom">
		</g>
	</g>
</g>
</g></svg>