<?xml version="1.0" encoding="UTF-8"?>
  <!DOCTYPE svg PUBLIC "-//W3C//DTD SVG 1.0//EN" "http://www.w3.org/TR/2001/REC-SVG-20010904/DTD/svg10.dtd" [
  <!ATTLIST g xmlns:kvg CDATA #FIXED "http://kanjivg.tagaini.net" kvg:element CDATA #IMPLIED kvg:variant CDATA #IMPLIED kvg:partial CDATA #IMPLIED kvg:original CDATA #IMPLIED kvg:part CDATA #IMPLIED kvg:number CDATA #IMPLIED kvg:tradForm CDATA #IMPLIED kvg:radicalForm CDATA #IMPLIED kvg:position CDATA #IMPLIED kvg:radical CDATA #IMPLIED kvg:phon CDATA #IMPLIED >
  <!ATTLIST path xmlns:kvg CDATA #FIXED "http://kanjivg.tagaini.net" kvg:type CDATA #IMPLIED >
  ]>
  <svg xmlns="http://www.w3.org/2000/svg" width="109" height="109" viewBox="0 0 109 109">
<g id="kvg:StrokePaths_063d0" style="fill:none;stroke:#000000;stroke-width:3;stroke-linecap:round;stroke-linejoin:round;">
<g id="kvg:063d0" kvg:element="提">
	<g id="kvg:063d0-g1" kvg:element="扌" kvg:variant="true" kvg:original="手" kvg:position="left" kvg:radical="general">
		<path style="fill:none;stroke:#808080" id="kvg:063d0-s1" kvg:type="㇐" d="M13,36.42c1.62,0.46,2.51,0.42,4.75,0.25c3.75-0.29,11.52-1.29,19.29-2.19c1.28-0.15,2.83-0.22,3.87,0.03"/>
		<path style="fill:none;stroke:#808080" id="kvg:063d0-s2" kvg:type="㇚" d="M28.27,15.5c0.87,0.87,1.51,2.75,1.51,4.52c0,15.23-0.01,53.46-0.01,64.9c0,14.25-6.32,3.53-7.77,2"/>
		<path style="fill:none;stroke:#808080" id="kvg:063d0-s3" kvg:type="㇀" d="M12.64,64.57c0.98,0.43,2.33,0.38,4.11-0.82c5-3.36,8.75-5.75,20-13.83"/>
	</g>
	<g id="kvg:063d0-g2" kvg:element="是" kvg:position="right" kvg:phon="是">
		<g id="kvg:063d0-g3" kvg:element="日" kvg:position="top">
			<path style="fill:none;stroke-width:4;" id="kvg:063d0-s4" kvg:type="㇑" d="M48.79,18.4c0.84,0.84,1.58,2.48,1.77,4.11c0.58,5.18,1.94,13.8,2.57,18.92c0.18,1.47,0.31,2.65,0.36,3.37"/>
<circle cx="48.79" cy="18.4" r="5" style="fill:red;stroke:red;" />
		</g>
		<g id="kvg:063d0-g4" kvg:element="疋" kvg:variant="true" kvg:position="bottom">
			<g id="kvg:063d0-g5" kvg:element="龰">
				<g id="kvg:063d0-g6" kvg:element="卜" kvg:original="ト">
				</g>
				<g id="kvg:063d0-g7" kvg:element="人">
				</g>
			</g>
		</g>
	</g>
</g>
</g></svg>