<?xml version="1.0" encoding="UTF-8"?>
  <!DOCTYPE svg PUBLIC "-//W3C//DTD SVG 1.0//EN" "http://www.w3.org/TR/2001/REC-SVG-20010904/DTD/svg10.dtd" [
  <!ATTLIST g xmlns:kvg CDATA #FIXED "http://kanjivg.tagaini.net" kvg:element CDATA #IMPLIED kvg:variant CDATA #IMPLIED kvg:partial CDATA #IMPLIED kvg:original CDATA #IMPLIED kvg:part CDATA #IMPLIED kvg:number CDATA #IMPLIED kvg:tradForm CDATA #IMPLIED kvg:radicalForm CDATA #IMPLIED kvg:position CDATA #IMPLIED kvg:radical CDATA #IMPLIED kvg:phon CDATA #IMPLIED >
  <!ATTLIST path xmlns:kvg CDATA #FIXED "http://kanjivg.tagaini.net" kvg:type CDATA #IMPLIED >
  ]>
  <svg xmlns="http://www.w3.org/2000/svg" width="109" height="109" viewBox="0 0 109 109">
<g id="kvg:StrokePaths_063ee" style="fill:none;stroke:#000000;stroke-width:3;stroke-linecap:round;stroke-linejoin:round;">
<g id="kvg:063ee" kvg:element="揮">
	<g id="kvg:063ee-g1" kvg:element="扌" kvg:variant="true" kvg:original="手" kvg:position="left" kvg:radical="general">
		<path style="fill:none;stroke:#808080" id="kvg:063ee-s1" kvg:type="㇐" d="M13.5,39.42c1.99,0.24,3.84,0.45,5.87,0.18c4.7-0.63,11.66-2.21,18.4-3.17c1.04-0.15,1.99-0.3,3.15-0.18"/>
		<path style="fill:none;stroke:#808080" id="kvg:063ee-s2" kvg:type="㇚" d="M29.77,15.5c0.99,0.99,1.51,2.5,1.51,4.52c0,15.23-0.01,53.96-0.01,65.4c0,13.33-6.39,3.21-7.27,2"/>
		<path style="fill:none;stroke:#808080" id="kvg:063ee-s3" kvg:type="㇀" d="M13,66.93c1.12,0.7,2.42,0.77,3.75-0.18c5.62-4,9.5-6.88,21.5-16.08"/>
	</g>
	<g id="kvg:063ee-g2" kvg:element="軍" kvg:position="right" kvg:phon="軍">
		<g id="kvg:063ee-g3" kvg:element="冖" kvg:position="top">
			<path style="fill:none;stroke-width:4;" id="kvg:063ee-s4" kvg:type="㇔" d="M46.5,17.88c-0.09,3.01-2.32,10.89-3.12,12.68"/>
<circle cx="46.5" cy="17.88" r="5" style="fill:red;stroke:red;" />
		</g>
		<g id="kvg:063ee-g4" kvg:element="車" kvg:position="bottom">
		</g>
	</g>
</g>
</g></svg>