<?xml version="1.0" encoding="UTF-8"?>
  <!DOCTYPE svg PUBLIC "-//W3C//DTD SVG 1.0//EN" "http://www.w3.org/TR/2001/REC-SVG-20010904/DTD/svg10.dtd" [
  <!ATTLIST g xmlns:kvg CDATA #FIXED "http://kanjivg.tagaini.net" kvg:element CDATA #IMPLIED kvg:variant CDATA #IMPLIED kvg:partial CDATA #IMPLIED kvg:original CDATA #IMPLIED kvg:part CDATA #IMPLIED kvg:number CDATA #IMPLIED kvg:tradForm CDATA #IMPLIED kvg:radicalForm CDATA #IMPLIED kvg:position CDATA #IMPLIED kvg:radical CDATA #IMPLIED kvg:phon CDATA #IMPLIED >
  <!ATTLIST path xmlns:kvg CDATA #FIXED "http://kanjivg.tagaini.net" kvg:type CDATA #IMPLIED >
  ]>
  <svg xmlns="http://www.w3.org/2000/svg" width="109" height="109" viewBox="0 0 109 109">
<g id="kvg:StrokePaths_063ee" style="fill:none;stroke:#000000;stroke-width:3;stroke-linecap:round;stroke-linejoin:round;">
<g id="kvg:063ee" kvg:element="揮">
	<g id="kvg:063ee-g1" kvg:element="扌" kvg:variant="true" kvg:original="手" kvg:position="left" kvg:radical="general">
		<path style="fill:none;stroke:#808080" id="kvg:063ee-s1" kvg:type="㇐" d="M13.5,39.42c1.99,0.24,3.84,0.45,5.87,0.18c4.7-0.63,11.66-2.21,18.4-3.17c1.04-0.15,1.99-0.3,3.15-0.18"/>
		<path style="fill:none;stroke:#808080" id="kvg:063ee-s2" kvg:type="㇚" d="M29.77,15.5c0.99,0.99,1.51,2.5,1.51,4.52c0,15.23-0.01,53.96-0.01,65.4c0,13.33-6.39,3.21-7.27,2"/>
		<path style="fill:none;stroke:#808080" id="kvg:063ee-s3" kvg:type="㇀" d="M13,66.93c1.12,0.7,2.42,0.77,3.75-0.18c5.62-4,9.5-6.88,21.5-16.08"/>
	</g>
	<g id="kvg:063ee-g2" kvg:element="軍" kvg:position="right" kvg:phon="軍">
		<g id="kvg:063ee-g3" kvg:element="冖" kvg:position="top">
			<path style="fill:none;stroke:#808080" id="kvg:063ee-s4" kvg:type="㇔" d="M46.5,17.88c-0.09,3.01-2.32,10.89-3.12,12.68"/>
			<path style="fill:none;stroke:#808080" id="kvg:063ee-s5" kvg:type="㇖b" d="M47.24,19.5c9.13-1.38,28.74-4.16,39.17-4.63c7.92-0.36,1.59,5.87-0.24,7.3"/>
		</g>
		<g id="kvg:063ee-g4" kvg:element="車" kvg:position="bottom">
			<path style="fill:none;stroke:#808080" id="kvg:063ee-s6" kvg:type="㇐" d="M48.82,34.5c1.93,0.38,4,0.25,5.58,0.03c7.06-0.98,17.86-2.97,25.49-3.69c1.68-0.16,3.37-0.34,4.93-0.07"/>
			<path style="fill:none;stroke:#808080" id="kvg:063ee-s7" kvg:type="㇑" d="M47.55,44.07c0.58,0.46,1.32,2.31,1.43,2.92c0.69,3.86,1.5,11.63,2.44,18.99c0.13,1.05,0.27,2.09,0.41,3.13"/>
			<path style="fill:none;stroke-width:4;" id="kvg:063ee-s8" kvg:type="㇕a" d="M49.79,45.74c8.69-0.87,26.73-4.02,33.04-4.16c2.95-0.07,3.52,1.76,3.18,4.08c-0.75,5.14-1.38,9.99-2.86,16.13c-0.3,1.25-0.61,2.49-0.92,3.7"/>
<circle cx="49.79" cy="45.74" r="5" style="fill:red;stroke:red;" />
		</g>
	</g>
</g>
</g></svg>