<?xml version="1.0" encoding="UTF-8"?>
  <!DOCTYPE svg PUBLIC "-//W3C//DTD SVG 1.0//EN" "http://www.w3.org/TR/2001/REC-SVG-20010904/DTD/svg10.dtd" [
  <!ATTLIST g xmlns:kvg CDATA #FIXED "http://kanjivg.tagaini.net" kvg:element CDATA #IMPLIED kvg:variant CDATA #IMPLIED kvg:partial CDATA #IMPLIED kvg:original CDATA #IMPLIED kvg:part CDATA #IMPLIED kvg:number CDATA #IMPLIED kvg:tradForm CDATA #IMPLIED kvg:radicalForm CDATA #IMPLIED kvg:position CDATA #IMPLIED kvg:radical CDATA #IMPLIED kvg:phon CDATA #IMPLIED >
  <!ATTLIST path xmlns:kvg CDATA #FIXED "http://kanjivg.tagaini.net" kvg:type CDATA #IMPLIED >
  ]>
  <svg xmlns="http://www.w3.org/2000/svg" width="109" height="109" viewBox="0 0 109 109">
<g id="kvg:StrokePaths_0640d" style="fill:none;stroke:#000000;stroke-width:3;stroke-linecap:round;stroke-linejoin:round;">
<g id="kvg:0640d" kvg:element="損">
	<g id="kvg:0640d-g1" kvg:element="扌" kvg:variant="true" kvg:original="手" kvg:position="left" kvg:radical="general">
		<path style="fill:none;stroke:#808080" id="kvg:0640d-s1" kvg:type="㇐" d="M14.75,37.67c2.08,0.25,3.02,0.27,5.25,0c6.62-0.79,13.9-2.02,21.24-3.03c0.98-0.13,2.51-0.14,3.42-0.14"/>
		<path style="fill:none;stroke:#808080" id="kvg:0640d-s2" kvg:type="㇚" d="M30.52,14.25c1.05,1.05,1.76,3.25,1.76,5.52c0,15.23-0.01,54.71-0.01,66.15c0,11.83-5.02,4.71-7.27,2.25"/>
		<path style="fill:none;stroke:#808080" id="kvg:0640d-s3" kvg:type="㇀" d="M13.46,65.96c1.24,0.68,2.8,0.79,4.78-0.39c6.73-4.03,9.42-5.67,22.02-12.57"/>
	</g>
	<g id="kvg:0640d-g2" kvg:element="員" kvg:position="right">
		<g id="kvg:0640d-g3" kvg:element="口" kvg:position="top">
			<path style="fill:none;stroke-width:4;" id="kvg:0640d-s4" kvg:type="㇑" d="M52.55,15.74c0.92,0.92,1.31,1.82,1.55,2.98c0.77,3.77,1.4,6.93,1.96,10.73c0.18,1.22,0.35,2.43,0.49,3.58"/>
<circle cx="52.55" cy="15.74" r="5" style="fill:red;stroke:red;" />
		</g>
		<g id="kvg:0640d-g4" kvg:element="貝" kvg:position="bottom">
			<g id="kvg:0640d-g5" kvg:element="目" kvg:position="top">
			</g>
			<g id="kvg:0640d-g6" kvg:position="bottom">
			</g>
		</g>
	</g>
</g>
</g></svg>