<?xml version="1.0" encoding="UTF-8"?>
  <!DOCTYPE svg PUBLIC "-//W3C//DTD SVG 1.0//EN" "http://www.w3.org/TR/2001/REC-SVG-20010904/DTD/svg10.dtd" [
  <!ATTLIST g xmlns:kvg CDATA #FIXED "http://kanjivg.tagaini.net" kvg:element CDATA #IMPLIED kvg:variant CDATA #IMPLIED kvg:partial CDATA #IMPLIED kvg:original CDATA #IMPLIED kvg:part CDATA #IMPLIED kvg:number CDATA #IMPLIED kvg:tradForm CDATA #IMPLIED kvg:radicalForm CDATA #IMPLIED kvg:position CDATA #IMPLIED kvg:radical CDATA #IMPLIED kvg:phon CDATA #IMPLIED >
  <!ATTLIST path xmlns:kvg CDATA #FIXED "http://kanjivg.tagaini.net" kvg:type CDATA #IMPLIED >
  ]>
  <svg xmlns="http://www.w3.org/2000/svg" width="109" height="109" viewBox="0 0 109 109">
<g id="kvg:StrokePaths_064cd" style="fill:none;stroke:#000000;stroke-width:3;stroke-linecap:round;stroke-linejoin:round;">
<g id="kvg:064cd" kvg:element="操">
	<g id="kvg:064cd-g1" kvg:element="扌" kvg:variant="true" kvg:original="手" kvg:position="left" kvg:radical="general">
		<path style="fill:none;stroke:#808080" id="kvg:064cd-s1" kvg:type="㇐" d="M13,40.42c1.75,0.33,3.02,0.53,5.25,0.25c5.38-0.67,10.38-1.79,19.27-3.26c0.96-0.16,1.93-0.28,2.89-0.4"/>
		<path style="fill:none;stroke:#808080" id="kvg:064cd-s2" kvg:type="㇚" d="M28.52,15c0.99,0.99,1.51,2.5,1.51,4.52c0,15.23-0.01,55.96-0.01,67.4c0,14.25-6.32,3.53-7.77,2"/>
		<path style="fill:none;stroke:#808080" id="kvg:064cd-s3" kvg:type="㇀" d="M10.5,69.93c1.12,0.7,2.43,0.47,3.64-0.32c3.61-2.36,10.61-7.36,23.61-16.11"/>
	</g>
	<g id="kvg:064cd-g2" kvg:element="喿" kvg:position="right" kvg:phon="品+木">
		<g id="kvg:064cd-g3" kvg:element="品" kvg:position="top">
			<g id="kvg:064cd-g4" kvg:element="口" kvg:position="top">
				<path style="fill:none;stroke:#808080" id="kvg:064cd-s4" kvg:type="㇑" d="M51.77,15.1c0.56,0.56,1.34,1.26,1.46,2.25c0.8,2.82,1.38,7.86,2.14,12.13c0.3,1.65,0.57,3.21,0.8,4.52"/>
				<path style="fill:none;stroke:#808080" id="kvg:064cd-s5" kvg:type="㇕b" d="M54.11,16.3c7.97-1.12,15.74-2.1,20.77-2.61c3.05-0.3,5.15,0.04,4.25,3.56c-0.75,2.95-1.31,6.14-2.2,10.48"/>
				<path style="fill:none;stroke-width:4;" id="kvg:064cd-s6" kvg:type="㇐b" d="M56.75,31.52c5.5-0.77,11.9-1.9,18.5-2.54c1.12-0.11,2.25,0.04,3.36-0.06"/>
<circle cx="56.75" cy="31.52" r="5" style="fill:red;stroke:red;" />
			</g>
			<g id="kvg:064cd-g5" kvg:position="bottom">
				<g id="kvg:064cd-g6" kvg:element="口" kvg:position="left">
				</g>
				<g id="kvg:064cd-g7" kvg:element="口" kvg:position="right">
				</g>
			</g>
		</g>
		<g id="kvg:064cd-g8" kvg:element="木" kvg:position="bottom">
		</g>
	</g>
</g>
</g></svg>