<?xml version="1.0" encoding="UTF-8"?>
  <!DOCTYPE svg PUBLIC "-//W3C//DTD SVG 1.0//EN" "http://www.w3.org/TR/2001/REC-SVG-20010904/DTD/svg10.dtd" [
  <!ATTLIST g xmlns:kvg CDATA #FIXED "http://kanjivg.tagaini.net" kvg:element CDATA #IMPLIED kvg:variant CDATA #IMPLIED kvg:partial CDATA #IMPLIED kvg:original CDATA #IMPLIED kvg:part CDATA #IMPLIED kvg:number CDATA #IMPLIED kvg:tradForm CDATA #IMPLIED kvg:radicalForm CDATA #IMPLIED kvg:position CDATA #IMPLIED kvg:radical CDATA #IMPLIED kvg:phon CDATA #IMPLIED >
  <!ATTLIST path xmlns:kvg CDATA #FIXED "http://kanjivg.tagaini.net" kvg:type CDATA #IMPLIED >
  ]>
  <svg xmlns="http://www.w3.org/2000/svg" width="109" height="109" viewBox="0 0 109 109">
<g id="kvg:StrokePaths_0653e" style="fill:none;stroke:#000000;stroke-width:3;stroke-linecap:round;stroke-linejoin:round;">
<g id="kvg:0653e" kvg:element="放">
	<g id="kvg:0653e-g1" kvg:element="方" kvg:position="left" kvg:radical="nelson" kvg:phon="方">
		<g id="kvg:0653e-g2" kvg:element="亠" kvg:position="top">
			<path style="fill:none;stroke:#808080" id="kvg:0653e-s1" kvg:type="㇑a" d="M33.36,14.75c1.32,1.32,1.98,2.75,1.98,4.41c0,3.96-0.15,7.59-0.15,11.15"/>
			<path style="fill:none;stroke:#808080" id="kvg:0653e-s2" kvg:type="㇐" d="M13.25,33.12c2.25,0.38,4.01,0.5,6.14,0.31c9.88-0.88,17.86-2.06,26.02-3.43c2.28-0.38,4.6-0.63,6.85-0.38"/>
		</g>
		<g id="kvg:0653e-g3" kvg:position="bottom">
			<path style="fill:none;stroke:#808080" id="kvg:0653e-s3" kvg:type="㇆a" d="M33,45.75c3.34,0.52,6.63,1.03,9.99,1.36c3.41,0.34,3.82,2.99,3.51,5.64c-1,8.5-8.74,29.43-13.38,34.83c-4.87,5.67-7.72,0.26-9.09-0.57"/>
			<path style="fill:none;stroke-width:4;" id="kvg:0653e-s4" kvg:type="㇒" d="M32.75,34.75c0.62,1.12,0.91,2.54,0.62,3.95C31.22,49.12,24.6,65.77,10.5,76.5"/>
<circle cx="32.75" cy="34.75" r="5" style="fill:red;stroke:red;" />
		</g>
	</g>
	<g id="kvg:0653e-g4" kvg:element="攵" kvg:variant="true" kvg:original="攴" kvg:position="right" kvg:radical="tradit">
		<g id="kvg:0653e-g5" kvg:position="top">
		</g>
		<g id="kvg:0653e-g6" kvg:element="乂" kvg:position="bottom">
			<g id="kvg:0653e-g7" kvg:element="丿">
			</g>
		</g>
	</g>
</g>
</g></svg>