<?xml version="1.0" encoding="UTF-8"?>
  <!DOCTYPE svg PUBLIC "-//W3C//DTD SVG 1.0//EN" "http://www.w3.org/TR/2001/REC-SVG-20010904/DTD/svg10.dtd" [
  <!ATTLIST g xmlns:kvg CDATA #FIXED "http://kanjivg.tagaini.net" kvg:element CDATA #IMPLIED kvg:variant CDATA #IMPLIED kvg:partial CDATA #IMPLIED kvg:original CDATA #IMPLIED kvg:part CDATA #IMPLIED kvg:number CDATA #IMPLIED kvg:tradForm CDATA #IMPLIED kvg:radicalForm CDATA #IMPLIED kvg:position CDATA #IMPLIED kvg:radical CDATA #IMPLIED kvg:phon CDATA #IMPLIED >
  <!ATTLIST path xmlns:kvg CDATA #FIXED "http://kanjivg.tagaini.net" kvg:type CDATA #IMPLIED >
  ]>
  <svg xmlns="http://www.w3.org/2000/svg" width="109" height="109" viewBox="0 0 109 109">
<g id="kvg:StrokePaths_06539" style="fill:none;stroke:#000000;stroke-width:3;stroke-linecap:round;stroke-linejoin:round;">
<g id="kvg:06539" kvg:element="改">
	<g id="kvg:06539-g1" kvg:element="己" kvg:position="left" kvg:radical="nelson" kvg:phon="己">
		<path style="fill:none;stroke:#808080" id="kvg:06539-s1" kvg:type="㇕c" d="M13.13,29.98c1.24,0.77,2.99,1.06,4.6,0.9c4.69-0.47,13.42-2.13,20.16-3.8c4.36-1.08,5.89,0.43,4.35,4.51c-1.09,2.89-3.12,9.53-4.82,15.88"/>
		<path style="fill:none;stroke:#808080" id="kvg:06539-s2" kvg:type="㇐" d="M13.66,50c1.09,0.62,2.34,0.79,3.44,0.74c4.45-0.2,13.4-1.37,18.9-2.09c1.19-0.16,2.33-0.03,3.36,0.02"/>
		<path style="fill:none;stroke:#808080" id="kvg:06539-s3" kvg:type="㇟" d="M15.04,51.02c0.72,0.72,1.07,1.73,1.07,2.92c0,8.25,0.03,11.68,0.03,16.68c0,10.12,1.24,11.4,11.31,11.4c10.3,0,12.52-1.29,12.75-8.88"/>
	</g>
	<g id="kvg:06539-g2" kvg:element="攵" kvg:variant="true" kvg:original="攴" kvg:position="right" kvg:radical="tradit">
		<g id="kvg:06539-g3" kvg:position="top">
			<path style="fill:none;stroke-width:4;" id="kvg:06539-s4" kvg:type="㇒" d="M62.66,16.3c0.34,1.33,0.28,2.31-0.09,3.52c-2.36,7.73-8.16,22.98-16.32,33.68"/>
<circle cx="62.66" cy="16.3" r="5" style="fill:red;stroke:red;" />
		</g>
		<g id="kvg:06539-g4" kvg:element="乂" kvg:position="bottom">
			<g id="kvg:06539-g5" kvg:element="丿">
			</g>
		</g>
	</g>
</g>
</g></svg>