<?xml version="1.0" encoding="UTF-8"?>
  <!DOCTYPE svg PUBLIC "-//W3C//DTD SVG 1.0//EN" "http://www.w3.org/TR/2001/REC-SVG-20010904/DTD/svg10.dtd" [
  <!ATTLIST g xmlns:kvg CDATA #FIXED "http://kanjivg.tagaini.net" kvg:element CDATA #IMPLIED kvg:variant CDATA #IMPLIED kvg:partial CDATA #IMPLIED kvg:original CDATA #IMPLIED kvg:part CDATA #IMPLIED kvg:number CDATA #IMPLIED kvg:tradForm CDATA #IMPLIED kvg:radicalForm CDATA #IMPLIED kvg:position CDATA #IMPLIED kvg:radical CDATA #IMPLIED kvg:phon CDATA #IMPLIED >
  <!ATTLIST path xmlns:kvg CDATA #FIXED "http://kanjivg.tagaini.net" kvg:type CDATA #IMPLIED >
  ]>
  <svg xmlns="http://www.w3.org/2000/svg" width="109" height="109" viewBox="0 0 109 109">
<g id="kvg:StrokePaths_06545" style="fill:none;stroke:#000000;stroke-width:3;stroke-linecap:round;stroke-linejoin:round;">
<g id="kvg:06545" kvg:element="故">
	<g id="kvg:06545-g1" kvg:element="古" kvg:position="left" kvg:phon="古">
		<g id="kvg:06545-g2" kvg:element="十" kvg:position="top">
			<path style="fill:none;stroke:#808080" id="kvg:06545-s1" kvg:type="㇐" d="M10.25,42.31c2,0.44,4.07,0.38,6.01,0.05c7.83-1.33,15.54-2.79,23.87-3.72c1.75-0.19,3.62-0.45,5.37-0.13"/>
			<path style="fill:none;stroke:#808080" id="kvg:06545-s2" kvg:type="㇑a" d="M26.69,18.74c0.85,0.85,1.51,2.13,1.51,3.67c0,15.7,0.05,31.43,0.05,39.03"/>
		</g>
		<g id="kvg:06545-g3" kvg:element="口" kvg:position="bottom">
			<path style="fill:none;stroke:#808080" id="kvg:06545-s3" kvg:type="㇑" d="M14.54,63.06c0.82,0.82,1.29,2.1,1.46,3.31c0.8,5.94,1.23,9.54,2.03,14.87c0.28,1.89,0.3,2.76,0.54,4.51"/>
			<path style="fill:none;stroke-width:4;" id="kvg:06545-s4" kvg:type="㇕b" d="M15.99,64.54c6.76-1.14,16.37-3.14,21.61-3.84c2.91-0.39,4.77,1.05,4.27,3.52c-0.8,4.01-2.19,8.58-3.1,13.39"/>
<circle cx="15.99" cy="64.54" r="5" style="fill:red;stroke:red;" />
		</g>
	</g>
	<g id="kvg:06545-g4" kvg:element="攵" kvg:variant="true" kvg:original="攴" kvg:position="right" kvg:radical="general">
		<g id="kvg:06545-g5" kvg:position="top">
		</g>
		<g id="kvg:06545-g6" kvg:element="乂" kvg:position="bottom">
			<g id="kvg:06545-g7" kvg:element="丿">
			</g>
		</g>
	</g>
</g>
</g></svg>