<?xml version="1.0" encoding="UTF-8"?>
  <!DOCTYPE svg PUBLIC "-//W3C//DTD SVG 1.0//EN" "http://www.w3.org/TR/2001/REC-SVG-20010904/DTD/svg10.dtd" [
  <!ATTLIST g xmlns:kvg CDATA #FIXED "http://kanjivg.tagaini.net" kvg:element CDATA #IMPLIED kvg:variant CDATA #IMPLIED kvg:partial CDATA #IMPLIED kvg:original CDATA #IMPLIED kvg:part CDATA #IMPLIED kvg:number CDATA #IMPLIED kvg:tradForm CDATA #IMPLIED kvg:radicalForm CDATA #IMPLIED kvg:position CDATA #IMPLIED kvg:radical CDATA #IMPLIED kvg:phon CDATA #IMPLIED >
  <!ATTLIST path xmlns:kvg CDATA #FIXED "http://kanjivg.tagaini.net" kvg:type CDATA #IMPLIED >
  ]>
  <svg xmlns="http://www.w3.org/2000/svg" width="109" height="109" viewBox="0 0 109 109">
<g id="kvg:StrokePaths_06559" style="fill:none;stroke:#000000;stroke-width:3;stroke-linecap:round;stroke-linejoin:round;">
<g id="kvg:06559" kvg:element="教">
	<g id="kvg:06559-g1" kvg:element="孝" kvg:variant="true" kvg:position="left" kvg:phon="孝">
		<g id="kvg:06559-g2" kvg:element="耂" kvg:original="老" kvg:partial="true">
			<g id="kvg:06559-g3" kvg:element="土">
				<path style="fill:none;stroke:#808080" id="kvg:06559-s1" kvg:type="㇐" d="M15.82,30.26c0.99,0.23,2.81,0.37,3.8,0.23c6.25-0.86,14.63-2.11,21.03-2.96c1.63-0.22,2.65,0.11,3.47,0.22"/>
				<path style="fill:none;stroke:#808080" id="kvg:06559-s2" kvg:type="㇑a" d="M29.8,13.37c1.1,1.1,1.7,2.53,1.7,4.4c0,7.61,0.12,18.3,0.08,24.14"/>
				<path style="fill:none;stroke:#808080" id="kvg:06559-s3" kvg:type="㇐" d="M11.5,45.02c1.38,0.37,3.9,0.56,5.31,0.37c9.19-1.26,23.44-4.01,31.85-4.8c2.29-0.22,3.69,0.17,4.84,0.36"/>
			</g>
			<path style="fill:none;stroke-width:4;" id="kvg:06559-s4" kvg:type="㇒" d="M50.62,20.75c0.11,1.15-0.39,2.74-1.21,4.1C38.94,42.29,27.54,54.68,10.5,67.75"/>
<circle cx="50.62" cy="20.75" r="5" style="fill:red;stroke:red;" />
		</g>
		<g id="kvg:06559-g4" kvg:element="子" kvg:variant="true">
		</g>
	</g>
	<g id="kvg:06559-g5" kvg:element="攵" kvg:variant="true" kvg:original="攴" kvg:position="right" kvg:radical="general">
		<g id="kvg:06559-g6" kvg:position="top">
		</g>
		<g id="kvg:06559-g7" kvg:element="乂" kvg:position="bottom">
			<g id="kvg:06559-g8" kvg:element="丿">
			</g>
		</g>
	</g>
</g>
</g></svg>