<?xml version="1.0" encoding="UTF-8"?>
  <!DOCTYPE svg PUBLIC "-//W3C//DTD SVG 1.0//EN" "http://www.w3.org/TR/2001/REC-SVG-20010904/DTD/svg10.dtd" [
  <!ATTLIST g xmlns:kvg CDATA #FIXED "http://kanjivg.tagaini.net" kvg:element CDATA #IMPLIED kvg:variant CDATA #IMPLIED kvg:partial CDATA #IMPLIED kvg:original CDATA #IMPLIED kvg:part CDATA #IMPLIED kvg:number CDATA #IMPLIED kvg:tradForm CDATA #IMPLIED kvg:radicalForm CDATA #IMPLIED kvg:position CDATA #IMPLIED kvg:radical CDATA #IMPLIED kvg:phon CDATA #IMPLIED >
  <!ATTLIST path xmlns:kvg CDATA #FIXED "http://kanjivg.tagaini.net" kvg:type CDATA #IMPLIED >
  ]>
  <svg xmlns="http://www.w3.org/2000/svg" width="109" height="109" viewBox="0 0 109 109">
<g id="kvg:StrokePaths_0656c" style="fill:none;stroke:#000000;stroke-width:3;stroke-linecap:round;stroke-linejoin:round;">
<g id="kvg:0656c" kvg:element="敬">
	<g id="kvg:0656c-g1" kvg:element="苟" kvg:position="left">
		<g id="kvg:0656c-g2" kvg:element="艹" kvg:variant="true" kvg:original="艸" kvg:position="top">
			<path style="fill:none;stroke:#808080" id="kvg:0656c-s1" kvg:type="㇐" d="M13.82,31.06c2.18,0.31,3.9,0.28,5.31,0.09c8.01-1.12,24.62-3.38,32.87-3.92c1.68-0.11,3.75-0.22,5.5,0.1"/>
			<path style="fill:none;stroke:#808080" id="kvg:0656c-s2" kvg:type="㇑a" d="M26.2,19.93c0.62,0.62,1.21,1.45,1.29,2.14c0.88,7.68,1.67,14.02,1.93,16.35"/>
			<path style="fill:none;stroke:#808080" id="kvg:0656c-s3" kvg:type="㇑a" d="M45.35,15.46c0.59,0.59,0.81,1.74,0.63,2.77C45,24,44.25,29.88,42.86,36.45"/>
		</g>
		<g id="kvg:0656c-g3" kvg:element="句" kvg:position="bottom">
			<g id="kvg:0656c-g4" kvg:element="勹">
				<g id="kvg:0656c-g5" kvg:element="丿">
					<path style="fill:none;stroke:#808080" id="kvg:0656c-s4" kvg:type="㇒" d="M22.99,40.38c0.07,1.06,0.01,2.34-0.34,3.37c-2.4,6.99-6.27,13.87-12.4,19.61"/>
				</g>
				<path style="fill:none;stroke-width:4;" id="kvg:0656c-s5" kvg:type="㇆" d="M24.69,46.72c1.31,0.28,2.75,0.56,3.67,0.37c4.51-0.96,14.89-2.71,19.36-3.25c2.88-0.35,4.69,1.53,4.53,4.09C51.33,62.3,50,73,45.83,86.19c-2.06,6.53-4.46,4.56-7.13,1.38"/>
<circle cx="24.69" cy="46.72" r="5" style="fill:red;stroke:red;" />
			</g>
			<g id="kvg:0656c-g6" kvg:element="口">
			</g>
		</g>
	</g>
	<g id="kvg:0656c-g7" kvg:element="攵" kvg:variant="true" kvg:original="攴" kvg:position="right" kvg:radical="general">
		<g id="kvg:0656c-g8" kvg:position="top">
		</g>
		<g id="kvg:0656c-g9" kvg:element="乂" kvg:position="bottom">
			<g id="kvg:0656c-g10" kvg:element="丿">
			</g>
		</g>
	</g>
</g>
</g></svg>