<?xml version="1.0" encoding="UTF-8"?>
  <!DOCTYPE svg PUBLIC "-//W3C//DTD SVG 1.0//EN" "http://www.w3.org/TR/2001/REC-SVG-20010904/DTD/svg10.dtd" [
  <!ATTLIST g xmlns:kvg CDATA #FIXED "http://kanjivg.tagaini.net" kvg:element CDATA #IMPLIED kvg:variant CDATA #IMPLIED kvg:partial CDATA #IMPLIED kvg:original CDATA #IMPLIED kvg:part CDATA #IMPLIED kvg:number CDATA #IMPLIED kvg:tradForm CDATA #IMPLIED kvg:radicalForm CDATA #IMPLIED kvg:position CDATA #IMPLIED kvg:radical CDATA #IMPLIED kvg:phon CDATA #IMPLIED >
  <!ATTLIST path xmlns:kvg CDATA #FIXED "http://kanjivg.tagaini.net" kvg:type CDATA #IMPLIED >
  ]>
  <svg xmlns="http://www.w3.org/2000/svg" width="109" height="109" viewBox="0 0 109 109">
<g id="kvg:StrokePaths_06574" style="fill:none;stroke:#000000;stroke-width:3;stroke-linecap:round;stroke-linejoin:round;">
<g id="kvg:06574" kvg:element="整">
	<g id="kvg:06574-g1" kvg:element="敕" kvg:position="top">
		<g id="kvg:06574-g2" kvg:element="束" kvg:position="left">
			<g id="kvg:06574-g3" kvg:element="木" kvg:part="1">
				<path style="fill:none;stroke:#808080" id="kvg:06574-s1" kvg:type="㇐" d="M19,22.93c0.94,0.29,2.66,0.34,3.6,0.29c7.9-0.39,16.9-2.71,24.11-3.18c1.56-0.1,3-0.11,3.79,0.03"/>
			</g>
			<g id="kvg:06574-g4" kvg:element="口">
				<path style="fill:none;stroke:#808080" id="kvg:06574-s2" kvg:type="㇑" d="M17.75,31.88c0.4,0.29,0.81,0.53,0.99,0.89c1.06,2.18,1.82,6.23,2.67,10.37c0.26,1.29,0.54,2.59,0.83,3.85"/>
				<path style="fill:none;stroke-width:4;" id="kvg:06574-s3" kvg:type="㇕b" d="M19.99,33.19c10.63-1.56,24.21-3.38,28.83-4.26c2.3-0.43,3.42,1.07,3,2.76c-0.66,2.59-1.57,4.94-2.46,8.33"/>
<circle cx="19.99" cy="33.19" r="5" style="fill:red;stroke:red;" />
			</g>
			<g id="kvg:06574-g5" kvg:element="木" kvg:part="2">
			</g>
		</g>
		<g id="kvg:06574-g6" kvg:element="攵" kvg:variant="true" kvg:original="攴" kvg:position="right" kvg:radical="tradit">
			<g id="kvg:06574-g7" kvg:position="top">
			</g>
			<g id="kvg:06574-g8" kvg:element="乂" kvg:position="bottom">
				<g id="kvg:06574-g9" kvg:element="丿">
				</g>
			</g>
		</g>
	</g>
	<g id="kvg:06574-g10" kvg:element="正" kvg:position="bottom" kvg:phon="正">
		<g id="kvg:06574-g11" kvg:element="止" kvg:radical="nelson">
			<g id="kvg:06574-g12" kvg:element="卜" kvg:original="ト">
			</g>
		</g>
	</g>
</g>
</g></svg>