<?xml version="1.0" encoding="UTF-8"?>
  <!DOCTYPE svg PUBLIC "-//W3C//DTD SVG 1.0//EN" "http://www.w3.org/TR/2001/REC-SVG-20010904/DTD/svg10.dtd" [
  <!ATTLIST g xmlns:kvg CDATA #FIXED "http://kanjivg.tagaini.net" kvg:element CDATA #IMPLIED kvg:variant CDATA #IMPLIED kvg:partial CDATA #IMPLIED kvg:original CDATA #IMPLIED kvg:part CDATA #IMPLIED kvg:number CDATA #IMPLIED kvg:tradForm CDATA #IMPLIED kvg:radicalForm CDATA #IMPLIED kvg:position CDATA #IMPLIED kvg:radical CDATA #IMPLIED kvg:phon CDATA #IMPLIED >
  <!ATTLIST path xmlns:kvg CDATA #FIXED "http://kanjivg.tagaini.net" kvg:type CDATA #IMPLIED >
  ]>
  <svg xmlns="http://www.w3.org/2000/svg" width="109" height="109" viewBox="0 0 109 109">
<g id="kvg:StrokePaths_06575" style="fill:none;stroke:#000000;stroke-width:3;stroke-linecap:round;stroke-linejoin:round;">
<g id="kvg:06575" kvg:element="敵">
	<g id="kvg:06575-g1" kvg:element="啇" kvg:position="left" kvg:phon="啇">
		<g id="kvg:06575-g2" kvg:element="亠">
			<path style="fill:none;stroke:#808080" id="kvg:06575-s1" kvg:type="㇑a" d="M29.75,13.75c1,0.75,1.5,2,1.5,3.75s0,4.88,0,8"/>
			<path style="fill:none;stroke:#808080" id="kvg:06575-s2" kvg:type="㇐" d="M11,28.45c2.38,0.42,4.46,0.37,6.62,0.09c7.76-1.04,20.11-2.9,28.88-3.43c2.1-0.13,4.25-0.23,6.25-0.02"/>
		</g>
		<path style="fill:none;stroke:#808080" id="kvg:06575-s3" kvg:type="㇔" d="M19.88,31.5c2.83,3.73,4.12,7.54,4.38,10"/>
		<path style="fill:none;stroke:#808080" id="kvg:06575-s4" kvg:type="㇒" d="M41.73,28.5c0.27,0.75,0.18,1.63,0.04,1.94c-1.4,3.18-3.69,8.06-4.78,9.81"/>
		<g id="kvg:06575-g3" kvg:element="冂">
			<path style="fill:none;stroke:#808080" id="kvg:06575-s5" kvg:type="㇑" d="M12,43.73c0.88,0.88,1.42,2.25,1.29,3.63c-0.11,1.1,0.04,26.93,0.11,38.64c0.02,2.98,0.03,5.03,0.03,5.5"/>
			<path style="fill:none;stroke:#808080" id="kvg:06575-s6" kvg:type="㇆a" d="M14.54,45.52c5.09-0.61,23.59-2.9,32.75-4.07c2.17-0.28,3.48,0.3,3.48,2.59c0,1.29,0.1,41.09,0.1,44.62c0,7.96-4.62,1.84-6.63-0.08"/>
		</g>
		<g id="kvg:06575-g4" kvg:element="古">
			<g id="kvg:06575-g5" kvg:element="十" kvg:position="top">
				<path style="fill:none;stroke:#808080" id="kvg:06575-s7" kvg:type="㇐" d="M19,55.31c1.4,0.48,2.73,0.5,4.16,0.3c4.43-0.59,12.76-1.88,17.6-2.21c0.9-0.06,2.51-0.28,3.5-0.08"/>
				<path style="fill:none;stroke:#808080" id="kvg:06575-s8" kvg:type="㇑a" d="M30.2,46.75c1.02,1.02,1.5,2.25,1.5,3.88c0,6.12,0.17,9.74,0.17,14.3"/>
			</g>
			<g id="kvg:06575-g6" kvg:element="口" kvg:position="bottom">
				<path style="fill:none;stroke:#808080" id="kvg:06575-s9" kvg:type="㇑" d="M21.69,66.54c0.82,0.82,1.06,1.71,1.36,3.22c0.4,2.03,1.22,4.91,1.71,7.95c0.22,1.39,0.42,2.7,0.56,3.79"/>
				<path style="fill:none;stroke-width:4;" id="kvg:06575-s10" kvg:type="㇕b" d="M23.21,67.17c5.16-0.8,12.66-1.8,16.62-2.35c1.18-0.16,2.04,0.67,1.73,2.01c-0.57,2.44-1.66,5.7-2.31,8.98"/>
<circle cx="23.21" cy="67.17" r="5" style="fill:red;stroke:red;" />
			</g>
		</g>
	</g>
	<g id="kvg:06575-g7" kvg:element="攵" kvg:variant="true" kvg:original="攴" kvg:position="right" kvg:radical="general">
		<g id="kvg:06575-g8" kvg:position="top">
		</g>
		<g id="kvg:06575-g9" kvg:element="乂" kvg:position="bottom">
			<g id="kvg:06575-g10" kvg:element="丿">
			</g>
		</g>
	</g>
</g>
</g></svg>