<?xml version="1.0" encoding="UTF-8"?>
  <!DOCTYPE svg PUBLIC "-//W3C//DTD SVG 1.0//EN" "http://www.w3.org/TR/2001/REC-SVG-20010904/DTD/svg10.dtd" [
  <!ATTLIST g xmlns:kvg CDATA #FIXED "http://kanjivg.tagaini.net" kvg:element CDATA #IMPLIED kvg:variant CDATA #IMPLIED kvg:partial CDATA #IMPLIED kvg:original CDATA #IMPLIED kvg:part CDATA #IMPLIED kvg:number CDATA #IMPLIED kvg:tradForm CDATA #IMPLIED kvg:radicalForm CDATA #IMPLIED kvg:position CDATA #IMPLIED kvg:radical CDATA #IMPLIED kvg:phon CDATA #IMPLIED >
  <!ATTLIST path xmlns:kvg CDATA #FIXED "http://kanjivg.tagaini.net" kvg:type CDATA #IMPLIED >
  ]>
  <svg xmlns="http://www.w3.org/2000/svg" width="109" height="109" viewBox="0 0 109 109">
<g id="kvg:StrokePaths_06599" style="fill:none;stroke:#000000;stroke-width:3;stroke-linecap:round;stroke-linejoin:round;">
<g id="kvg:06599" kvg:element="料">
	<g id="kvg:06599-g1" kvg:element="米" kvg:variant="true" kvg:position="left" kvg:radical="nelson">
		<path style="fill:none;stroke:#808080" id="kvg:06599-s1" kvg:type="㇔" d="M14.5,24.75c2.99,2.61,7.5,9.99,8.25,14.05"/>
		<path style="fill:none;stroke:#808080" id="kvg:06599-s2" kvg:type="㇒" d="M48.26,19.22c0.08,0.97-0.03,1.92-0.33,2.84c-1.93,4.57-4.3,9.2-8.61,14.49"/>
		<path style="fill:none;stroke:#808080" id="kvg:06599-s3" kvg:type="㇐" d="M12.1,47.8c0.8,0.28,2.95,0.54,5.06,0.28c7.71-0.96,19.07-3.16,27.7-4.05c2.12-0.22,2.66-0.28,4,0"/>
		<path style="fill:none;stroke:#808080" id="kvg:06599-s4" kvg:type="㇑" d="M31.23,13.21c0.84,0.84,1.42,2.04,1.42,3.35c0,0.83,0.05,51.78,0.06,71.44c0,3.47,0,5.96,0,7.04"/>
		<path style="fill:none;stroke-width:4;" id="kvg:06599-s5" kvg:type="㇒" d="M31.77,46.71c0,1.41-0.44,2.8-0.85,3.85C26.95,60.89,19.37,72.97,12,79.98"/>
<circle cx="31.77" cy="46.71" r="5" style="fill:red;stroke:red;" />
	</g>
	<g id="kvg:06599-g2" kvg:element="斗" kvg:position="right" kvg:radical="tradit">
		<g id="kvg:06599-g3" kvg:element="丶">
		</g>
		<g id="kvg:06599-g4" kvg:element="丶">
		</g>
	</g>
</g>
</g></svg>