<?xml version="1.0" encoding="UTF-8"?>
  <!DOCTYPE svg PUBLIC "-//W3C//DTD SVG 1.0//EN" "http://www.w3.org/TR/2001/REC-SVG-20010904/DTD/svg10.dtd" [
  <!ATTLIST g xmlns:kvg CDATA #FIXED "http://kanjivg.tagaini.net" kvg:element CDATA #IMPLIED kvg:variant CDATA #IMPLIED kvg:partial CDATA #IMPLIED kvg:original CDATA #IMPLIED kvg:part CDATA #IMPLIED kvg:number CDATA #IMPLIED kvg:tradForm CDATA #IMPLIED kvg:radicalForm CDATA #IMPLIED kvg:position CDATA #IMPLIED kvg:radical CDATA #IMPLIED kvg:phon CDATA #IMPLIED >
  <!ATTLIST path xmlns:kvg CDATA #FIXED "http://kanjivg.tagaini.net" kvg:type CDATA #IMPLIED >
  ]>
  <svg xmlns="http://www.w3.org/2000/svg" width="109" height="109" viewBox="0 0 109 109">
<g id="kvg:StrokePaths_065ad" style="fill:none;stroke:#000000;stroke-width:3;stroke-linecap:round;stroke-linejoin:round;">
<g id="kvg:065ad" kvg:element="断">
	<g id="kvg:065ad-g1" kvg:position="left">
		<g id="kvg:065ad-g2" kvg:element="米" kvg:variant="true">
			<path style="fill:none;stroke:#808080" id="kvg:065ad-s1" kvg:type="㇔" d="M24.11,25.58c1.96,2.16,4.92,8.27,5.41,11.63"/>
			<path style="fill:none;stroke:#808080" id="kvg:065ad-s2" kvg:type="㇒" d="M52.07,21.21c0.07,0.86-0.02,1.7-0.32,2.5c-1.25,3.3-3.25,7.18-6.68,11.53"/>
			<path style="fill:none;stroke:#808080" id="kvg:065ad-s3" kvg:type="㇐" d="M21.11,45.32c1.63,0.62,3.48,0.3,5.17,0.08c5.59-0.7,17.58-2.7,22.72-3.05c1.25-0.08,2.32,0.07,3.1,0.25"/>
			<path style="fill:none;stroke-width:4;" id="kvg:065ad-s4" kvg:type="㇑" d="M36.52,14c0.93,0.93,1.57,2.62,1.57,3.71c0,0.78,0.05,37.28-0.11,52.55c-0.03,2.93-0.06,5.07-0.1,5.98"/>
<circle cx="36.52" cy="14" r="5" style="fill:red;stroke:red;" />
		</g>
	</g>
	<g id="kvg:065ad-g3" kvg:element="斤" kvg:position="right" kvg:radical="general">
	</g>
</g>
</g></svg>