<?xml version="1.0" encoding="UTF-8"?>
  <!DOCTYPE svg PUBLIC "-//W3C//DTD SVG 1.0//EN" "http://www.w3.org/TR/2001/REC-SVG-20010904/DTD/svg10.dtd" [
  <!ATTLIST g xmlns:kvg CDATA #FIXED "http://kanjivg.tagaini.net" kvg:element CDATA #IMPLIED kvg:variant CDATA #IMPLIED kvg:partial CDATA #IMPLIED kvg:original CDATA #IMPLIED kvg:part CDATA #IMPLIED kvg:number CDATA #IMPLIED kvg:tradForm CDATA #IMPLIED kvg:radicalForm CDATA #IMPLIED kvg:position CDATA #IMPLIED kvg:radical CDATA #IMPLIED kvg:phon CDATA #IMPLIED >
  <!ATTLIST path xmlns:kvg CDATA #FIXED "http://kanjivg.tagaini.net" kvg:type CDATA #IMPLIED >
  ]>
  <svg xmlns="http://www.w3.org/2000/svg" width="109" height="109" viewBox="0 0 109 109">
<g id="kvg:StrokePaths_065b0" style="fill:none;stroke:#000000;stroke-width:3;stroke-linecap:round;stroke-linejoin:round;">
<g id="kvg:065b0" kvg:element="新">
	<g id="kvg:065b0-g1" kvg:position="left" kvg:phon="辛+木">
		<g id="kvg:065b0-g2" kvg:element="立">
			<g id="kvg:065b0-g3" kvg:element="亠" kvg:position="top">
				<path style="fill:none;stroke:#808080" id="kvg:065b0-s1" kvg:type="㇑a" d="M33.72,12.76c0.88,0.88,1.53,2.49,1.53,4.35c0,2.63,0.01,1.9,0.02,9.04"/>
				<path style="fill:none;stroke:#808080" id="kvg:065b0-s2" kvg:type="㇐" d="M18.32,28.69c1.19,0.11,2.61,0.17,3.79,0.03c7.4-0.84,18.02-2.59,25.62-3.22c1.98-0.16,3.19-0.03,4.18,0.02"/>
			</g>
			<g id="kvg:065b0-g4" kvg:position="bottom">
				<path style="fill:none;stroke:#808080" id="kvg:065b0-s3" kvg:type="㇔" d="M23.62,34.38c3.39,4.82,4.03,8.08,4.34,11.36"/>
				<path style="fill:none;stroke:#808080" id="kvg:065b0-s4" kvg:type="㇒" d="M45.59,29.5c0.62,1.09,0.38,2.59-0.08,3.75c-1.65,4.12-4.74,10.59-5.88,12.61"/>
				<path style="fill:none;stroke-width:4;" id="kvg:065b0-s5" kvg:type="㇐" d="M14.17,50.95c1.78,0.27,3.57,0.27,5.34,0.05c7.96-1.02,21.06-2.74,29.12-3.36c1.96-0.15,3.91-0.03,5.87,0.11"/>
<circle cx="14.17" cy="50.95" r="5" style="fill:red;stroke:red;" />
			</g>
		</g>
		<g id="kvg:065b0-g5" kvg:element="木">
		</g>
	</g>
	<g id="kvg:065b0-g6" kvg:element="斤" kvg:position="right" kvg:radical="general">
	</g>
</g>
</g></svg>