<?xml version="1.0" encoding="UTF-8"?>
  <!DOCTYPE svg PUBLIC "-//W3C//DTD SVG 1.0//EN" "http://www.w3.org/TR/2001/REC-SVG-20010904/DTD/svg10.dtd" [
  <!ATTLIST g xmlns:kvg CDATA #FIXED "http://kanjivg.tagaini.net" kvg:element CDATA #IMPLIED kvg:variant CDATA #IMPLIED kvg:partial CDATA #IMPLIED kvg:original CDATA #IMPLIED kvg:part CDATA #IMPLIED kvg:number CDATA #IMPLIED kvg:tradForm CDATA #IMPLIED kvg:radicalForm CDATA #IMPLIED kvg:position CDATA #IMPLIED kvg:radical CDATA #IMPLIED kvg:phon CDATA #IMPLIED >
  <!ATTLIST path xmlns:kvg CDATA #FIXED "http://kanjivg.tagaini.net" kvg:type CDATA #IMPLIED >
  ]>
  <svg xmlns="http://www.w3.org/2000/svg" width="109" height="109" viewBox="0 0 109 109">
<g id="kvg:StrokePaths_065cf" style="fill:none;stroke:#000000;stroke-width:3;stroke-linecap:round;stroke-linejoin:round;">
<g id="kvg:065cf" kvg:element="族">
	<g id="kvg:065cf-g1" kvg:element="方" kvg:position="left" kvg:radical="general">
		<g id="kvg:065cf-g2" kvg:element="亠" kvg:position="top">
			<path style="fill:none;stroke:#808080" id="kvg:065cf-s1" kvg:type="㇑a" d="M29.36,16.5c1.13,1.13,1.86,2.38,1.86,3.91c0,6.09,0.07,7.96,0.07,12.15"/>
			<path style="fill:none;stroke:#808080" id="kvg:065cf-s2" kvg:type="㇐" d="M12.5,35.36c1.59,0.18,3.03,0.35,4.62,0.19C23.39,34.9,35.25,33,41.5,31.77c1.73-0.34,3.62-0.52,5.5-0.37"/>
		</g>
		<g id="kvg:065cf-g3" kvg:position="bottom">
			<path style="fill:none;stroke:#808080" id="kvg:065cf-s3" kvg:type="㇆a" d="M30.62,47.05c2.38,0.33,6.21,0.49,8.68,0.57c1.95,0.06,3.31,1.74,2.84,4.36C40.75,59.75,33.5,81.75,29,88.25c-2.66,3.84-3.18,3.03-6.01,0.01"/>
			<path style="fill:none;stroke:#808080" id="kvg:065cf-s4" kvg:type="㇒" d="M29.3,36.75c0.58,1,0.67,2.16,0.39,3.37c-2.94,13-7.94,27.5-18.12,39.88"/>
		</g>
	</g>
	<g id="kvg:065cf-g4" kvg:position="right">
		<g id="kvg:065cf-g5" kvg:element="𠂉">
			<path style="fill:none;stroke-width:4;" id="kvg:065cf-s5" kvg:type="㇒" d="M59.52,15.39c0.23,0.98,0.34,1.7,0.19,2.5c-1.09,5.6-4.84,13.98-10.65,21.57"/>
<circle cx="59.52" cy="15.39" r="5" style="fill:red;stroke:red;" />
		</g>
		<g id="kvg:065cf-g6" kvg:element="矢">
			<g id="kvg:065cf-g7" kvg:element="天">
				<g id="kvg:065cf-g8" kvg:element="大">
				</g>
			</g>
		</g>
	</g>
</g>
</g></svg>