<?xml version="1.0" encoding="UTF-8"?>
  <!DOCTYPE svg PUBLIC "-//W3C//DTD SVG 1.0//EN" "http://www.w3.org/TR/2001/REC-SVG-20010904/DTD/svg10.dtd" [
  <!ATTLIST g xmlns:kvg CDATA #FIXED "http://kanjivg.tagaini.net" kvg:element CDATA #IMPLIED kvg:variant CDATA #IMPLIED kvg:partial CDATA #IMPLIED kvg:original CDATA #IMPLIED kvg:part CDATA #IMPLIED kvg:number CDATA #IMPLIED kvg:tradForm CDATA #IMPLIED kvg:radicalForm CDATA #IMPLIED kvg:position CDATA #IMPLIED kvg:radical CDATA #IMPLIED kvg:phon CDATA #IMPLIED >
  <!ATTLIST path xmlns:kvg CDATA #FIXED "http://kanjivg.tagaini.net" kvg:type CDATA #IMPLIED >
  ]>
  <svg xmlns="http://www.w3.org/2000/svg" width="109" height="109" viewBox="0 0 109 109">
<g id="kvg:StrokePaths_065c5" style="fill:none;stroke:#000000;stroke-width:3;stroke-linecap:round;stroke-linejoin:round;">
<g id="kvg:065c5" kvg:element="旅">
	<g id="kvg:065c5-g1" kvg:element="方" kvg:position="left" kvg:radical="general">
		<g id="kvg:065c5-g2" kvg:element="亠" kvg:position="top">
			<path style="fill:none;stroke:#808080" id="kvg:065c5-s1" kvg:type="㇑a" d="M29.14,17c1.12,1.12,1.73,2.62,1.73,4.66c0,4.45-0.09,7.09-0.09,10.4"/>
			<path style="fill:none;stroke:#808080" id="kvg:065c5-s2" kvg:type="㇐" d="M12.5,35.16c2.25,0.46,3.9,0.43,5.88,0.13c6.87-1.06,16.29-3.15,20.89-4.27c1.46-0.36,3.46-0.75,4.98-0.4"/>
		</g>
		<g id="kvg:065c5-g3" kvg:position="bottom">
			<path style="fill:none;stroke-width:4;" id="kvg:065c5-s3" kvg:type="㇆a" d="M30.17,48c3.33,1,5.58,2.25,9.46,3.61c1.91,0.67,2.53,1.71,2.42,4.36c-0.29,7-7.67,31.41-12.12,35.85c-3.18,3.18-4.99-0.74-5.79-1.57"/>
<circle cx="30.17" cy="48" r="5" style="fill:red;stroke:red;" />
		</g>
	</g>
	<g id="kvg:065c5-g4" kvg:position="right">
		<g id="kvg:065c5-g5" kvg:element="𠂉">
		</g>
		<g id="kvg:065c5-g6" kvg:element="亻" kvg:variant="true" kvg:original="人">
		</g>
	</g>
</g>
</g></svg>