<?xml version="1.0" encoding="UTF-8"?>
  <!DOCTYPE svg PUBLIC "-//W3C//DTD SVG 1.0//EN" "http://www.w3.org/TR/2001/REC-SVG-20010904/DTD/svg10.dtd" [
  <!ATTLIST g xmlns:kvg CDATA #FIXED "http://kanjivg.tagaini.net" kvg:element CDATA #IMPLIED kvg:variant CDATA #IMPLIED kvg:partial CDATA #IMPLIED kvg:original CDATA #IMPLIED kvg:part CDATA #IMPLIED kvg:number CDATA #IMPLIED kvg:tradForm CDATA #IMPLIED kvg:radicalForm CDATA #IMPLIED kvg:position CDATA #IMPLIED kvg:radical CDATA #IMPLIED kvg:phon CDATA #IMPLIED >
  <!ATTLIST path xmlns:kvg CDATA #FIXED "http://kanjivg.tagaini.net" kvg:type CDATA #IMPLIED >
  ]>
  <svg xmlns="http://www.w3.org/2000/svg" width="109" height="109" viewBox="0 0 109 109">
<g id="kvg:StrokePaths_065d7" style="fill:none;stroke:#000000;stroke-width:3;stroke-linecap:round;stroke-linejoin:round;">
<g id="kvg:065d7" kvg:element="旗">
	<g id="kvg:065d7-g1" kvg:element="方" kvg:position="left" kvg:radical="general">
		<g id="kvg:065d7-g2" kvg:element="亠" kvg:position="top">
			<path style="fill:none;stroke:#808080" id="kvg:065d7-s1" kvg:type="㇑a" d="M27.61,16c1.13,1.13,1.48,2.5,1.48,4.16c0,4.45-0.15,7.21-0.15,11.4"/>
			<path style="fill:none;stroke:#808080" id="kvg:065d7-s2" kvg:type="㇐" d="M12.5,33.97c1.76,0.11,3.25,0.16,5.02,0c6.61-0.59,15.36-1.97,21.63-3.27c1.64-0.34,3.35-0.2,5.1,0.02"/>
		</g>
		<g id="kvg:065d7-g3" kvg:position="bottom">
			<path style="fill:none;stroke:#808080" id="kvg:065d7-s3" kvg:type="㇆a" d="M29.4,44.25c3.04,0.77,5.97,1.89,8.83,3.16c2.48,1.1,3.42,3.83,2.77,7.09c-1.23,6.16-5.24,21.03-10.8,28.74c-4.7,6.51-6.95,5.26-9.67,1.02"/>
			<path style="fill:none;stroke-width:4;" id="kvg:065d7-s4" kvg:type="㇒" d="M29.3,35.75c0.05,0.96,0.2,2.5-0.11,3.85c-2.44,10.9-7.44,25.65-18.44,36.9"/>
<circle cx="29.3" cy="35.75" r="5" style="fill:red;stroke:red;" />
		</g>
	</g>
	<g id="kvg:065d7-g4" kvg:position="right">
		<g id="kvg:065d7-g5" kvg:element="𠂉">
		</g>
		<g id="kvg:065d7-g6" kvg:element="其" kvg:phon="其">
			<g id="kvg:065d7-g7" kvg:position="top">
				<g id="kvg:065d7-g8" kvg:element="甘">
					<g id="kvg:065d7-g9" kvg:element="廿" kvg:part="1">
						<g id="kvg:065d7-g10" kvg:element="十">
						</g>
					</g>
					<g id="kvg:065d7-g11" kvg:element="廿" kvg:part="2">
					</g>
				</g>
			</g>
			<g id="kvg:065d7-g12" kvg:element="八" kvg:position="bottom">
			</g>
		</g>
	</g>
</g>
</g></svg>