<?xml version="1.0" encoding="UTF-8"?>
  <!DOCTYPE svg PUBLIC "-//W3C//DTD SVG 1.0//EN" "http://www.w3.org/TR/2001/REC-SVG-20010904/DTD/svg10.dtd" [
  <!ATTLIST g xmlns:kvg CDATA #FIXED "http://kanjivg.tagaini.net" kvg:element CDATA #IMPLIED kvg:variant CDATA #IMPLIED kvg:partial CDATA #IMPLIED kvg:original CDATA #IMPLIED kvg:part CDATA #IMPLIED kvg:number CDATA #IMPLIED kvg:tradForm CDATA #IMPLIED kvg:radicalForm CDATA #IMPLIED kvg:position CDATA #IMPLIED kvg:radical CDATA #IMPLIED kvg:phon CDATA #IMPLIED >
  <!ATTLIST path xmlns:kvg CDATA #FIXED "http://kanjivg.tagaini.net" kvg:type CDATA #IMPLIED >
  ]>
  <svg xmlns="http://www.w3.org/2000/svg" width="109" height="109" viewBox="0 0 109 109">
<g id="kvg:StrokePaths_0661f" style="fill:none;stroke:#000000;stroke-width:3;stroke-linecap:round;stroke-linejoin:round;">
<g id="kvg:0661f" kvg:element="星">
	<g id="kvg:0661f-g1" kvg:element="日" kvg:position="top" kvg:radical="general">
		<path style="fill:none;stroke:#808080" id="kvg:0661f-s1" kvg:type="㇑" d="M28.28,16.58c1.07,1.07,1.66,2.33,1.8,3.2c0.11,0.7,2.44,16.43,3.4,22.96c0.24,1.62,0.39,2.65,0.4,2.74"/>
		<path style="fill:none;stroke:#808080" id="kvg:0661f-s2" kvg:type="㇕a" d="M30.54,18.01c11.21-1.51,38.72-4.22,43.08-4.64c3.88-0.37,6.18,1.38,5.62,5.38C78.39,24.96,76.99,31.89,75.5,39c-0.25,1.19-0.5,2.36-0.75,3.5"/>
		<path style="fill:none;stroke:#808080" id="kvg:0661f-s3" kvg:type="㇐a" d="M33.03,30.73c10.59-1.48,36.58-4.01,43.72-4.23"/>
		<path style="fill:none;stroke:#808080" id="kvg:0661f-s4" kvg:type="㇐a" d="M34.9,43.18c8.52-0.85,27.47-2.8,39.35-3.68"/>
	</g>
	<g id="kvg:0661f-g2" kvg:element="生" kvg:position="bottom" kvg:phon="生">
		<path style="fill:none;stroke-width:4;" id="kvg:0661f-s5" kvg:type="㇒" d="M37.01,51.88c0.36,1,0.07,2.46-0.35,3.51C34.5,60.75,29.75,68.25,23,74.74"/>
<circle cx="37.01" cy="51.88" r="5" style="fill:red;stroke:red;" />
	</g>
</g>
</g></svg>