<?xml version="1.0" encoding="UTF-8"?>
  <!DOCTYPE svg PUBLIC "-//W3C//DTD SVG 1.0//EN" "http://www.w3.org/TR/2001/REC-SVG-20010904/DTD/svg10.dtd" [
  <!ATTLIST g xmlns:kvg CDATA #FIXED "http://kanjivg.tagaini.net" kvg:element CDATA #IMPLIED kvg:variant CDATA #IMPLIED kvg:partial CDATA #IMPLIED kvg:original CDATA #IMPLIED kvg:part CDATA #IMPLIED kvg:number CDATA #IMPLIED kvg:tradForm CDATA #IMPLIED kvg:radicalForm CDATA #IMPLIED kvg:position CDATA #IMPLIED kvg:radical CDATA #IMPLIED kvg:phon CDATA #IMPLIED >
  <!ATTLIST path xmlns:kvg CDATA #FIXED "http://kanjivg.tagaini.net" kvg:type CDATA #IMPLIED >
  ]>
  <svg xmlns="http://www.w3.org/2000/svg" width="109" height="109" viewBox="0 0 109 109">
<g id="kvg:StrokePaths_0662d" style="fill:none;stroke:#000000;stroke-width:3;stroke-linecap:round;stroke-linejoin:round;">
<g id="kvg:0662d" kvg:element="昭">
	<g id="kvg:0662d-g1" kvg:element="日" kvg:position="left" kvg:radical="general">
		<path style="fill:none;stroke:#808080" id="kvg:0662d-s1" kvg:type="㇑" d="M16.75,26.48c0.76,0.76,1.45,1.97,1.45,3.49s-0.23,41.98-0.23,42.74c0,0.76-0.02,2.04-0.02,3.54"/>
		<path style="fill:none;stroke:#808080" id="kvg:0662d-s2" kvg:type="㇕a" d="M18.77,27.42C22,27,35.14,24.48,36.93,24.25c1.49-0.19,2.83,1.13,2.83,3.24c0,2.3-0.35,26.33-0.34,43.12c0,1.73-0.12,2.98-0.12,4.13"/>
		<path style="fill:none;stroke:#808080" id="kvg:0662d-s3" kvg:type="㇐a" d="M19.37,49.55C23.5,49,33.88,47.5,38.49,47.14"/>
		<path style="fill:none;stroke:#808080" id="kvg:0662d-s4" kvg:type="㇐a" d="M18.77,73.15c7.98-1.03,11.73-1.65,19.49-2.53"/>
	</g>
	<g id="kvg:0662d-g2" kvg:element="召" kvg:position="right" kvg:phon="召">
		<g id="kvg:0662d-g3" kvg:element="刀">
			<path style="fill:none;stroke-width:4;" id="kvg:0662d-s5" kvg:type="㇆" d="M49.21,22.3c1.85,1.06,4.42,0.72,6.4,0.48c10.13-1.22,24.14-3.53,30.59-4.56c3.6-0.58,5.22,0.91,5.05,3.82c-0.38,6.84-2.38,18.62-5.86,26.2c-2.65,5.76-5.65,3.89-8.45,0.11"/>
<circle cx="49.21" cy="22.3" r="5" style="fill:red;stroke:red;" />
		</g>
		<g id="kvg:0662d-g4" kvg:element="口">
		</g>
	</g>
</g>
</g></svg>