<?xml version="1.0" encoding="UTF-8"?>
  <!DOCTYPE svg PUBLIC "-//W3C//DTD SVG 1.0//EN" "http://www.w3.org/TR/2001/REC-SVG-20010904/DTD/svg10.dtd" [
  <!ATTLIST g xmlns:kvg CDATA #FIXED "http://kanjivg.tagaini.net" kvg:element CDATA #IMPLIED kvg:variant CDATA #IMPLIED kvg:partial CDATA #IMPLIED kvg:original CDATA #IMPLIED kvg:part CDATA #IMPLIED kvg:number CDATA #IMPLIED kvg:tradForm CDATA #IMPLIED kvg:radicalForm CDATA #IMPLIED kvg:position CDATA #IMPLIED kvg:radical CDATA #IMPLIED kvg:phon CDATA #IMPLIED >
  <!ATTLIST path xmlns:kvg CDATA #FIXED "http://kanjivg.tagaini.net" kvg:type CDATA #IMPLIED >
  ]>
  <svg xmlns="http://www.w3.org/2000/svg" width="109" height="109" viewBox="0 0 109 109">
<g id="kvg:StrokePaths_06625" style="fill:none;stroke:#000000;stroke-width:3;stroke-linecap:round;stroke-linejoin:round;">
<g id="kvg:06625" kvg:element="春">
	<g id="kvg:06625-g1" kvg:element="𡗗" kvg:position="top">
		<g id="kvg:06625-g2" kvg:element="三">
			<g id="kvg:06625-g3" kvg:element="一" kvg:position="top">
				<path style="fill:none;stroke:#808080" id="kvg:06625-s1" kvg:type="㇐" d="M28.31,25.18c1.46,0.37,4.15,0.5,5.61,0.37c12.83-1.18,22.33-2.3,36.29-3.51c2.43-0.21,4.29-0.04,6.12,0.36"/>
			</g>
			<g id="kvg:06625-g4" kvg:position="bottom">
				<g id="kvg:06625-g5" kvg:element="一">
					<path style="fill:none;stroke:#808080" id="kvg:06625-s2" kvg:type="㇐" d="M28.5,38.67c1.54,0.38,4.11,0.3,5.65,0.13c11.6-1.3,22.23-2.92,35.13-4.38c2.7-0.31,4.72-0.16,5.88,0.12"/>
				</g>
				<g id="kvg:06625-g6" kvg:element="大" kvg:part="1">
					<g id="kvg:06625-g7" kvg:element="一">
						<path style="fill:none;stroke:#808080" id="kvg:06625-s3" kvg:type="㇐" d="M15.38,53.48c3.09,1.06,6.46,0.72,9.62,0.27c20.13-2.87,36.38-5.75,54.15-7.79c3.03-0.35,5.97-0.37,8.98,0.11"/>
					</g>
				</g>
			</g>
		</g>
		<g id="kvg:06625-g8" kvg:element="大" kvg:part="2">
			<g id="kvg:06625-g9" kvg:element="人">
				<path style="fill:none;stroke:#808080" id="kvg:06625-s4" kvg:type="㇒" d="M52.75,11.25c1,1.5,1.02,3.53,0.54,5.9C50.12,32.62,39.5,68,12.5,80.75"/>
				<path style="fill:none;stroke:#808080" id="kvg:06625-s5" kvg:type="㇏" d="M53.25,41.25c2.29,0.15,29.6,28.08,35.99,32.9c2.21,1.67,5.05,2.38,7.26,2.85"/>
			</g>
		</g>
	</g>
	<g id="kvg:06625-g10" kvg:element="日" kvg:position="bottom" kvg:radical="general">
		<path style="fill:none;stroke-width:4;" id="kvg:06625-s6" kvg:type="㇑" d="M37.77,64.94c0.83,0.83,1.28,1.93,1.28,2.97c0,0.87-0.18,22.16-0.24,29.84c-0.01,1.59-0.02,2.59-0.02,2.68"/>
<circle cx="37.77" cy="64.94" r="5" style="fill:red;stroke:red;" />
	</g>
</g>
</g></svg>