<?xml version="1.0" encoding="UTF-8"?>
  <!DOCTYPE svg PUBLIC "-//W3C//DTD SVG 1.0//EN" "http://www.w3.org/TR/2001/REC-SVG-20010904/DTD/svg10.dtd" [
  <!ATTLIST g xmlns:kvg CDATA #FIXED "http://kanjivg.tagaini.net" kvg:element CDATA #IMPLIED kvg:variant CDATA #IMPLIED kvg:partial CDATA #IMPLIED kvg:original CDATA #IMPLIED kvg:part CDATA #IMPLIED kvg:number CDATA #IMPLIED kvg:tradForm CDATA #IMPLIED kvg:radicalForm CDATA #IMPLIED kvg:position CDATA #IMPLIED kvg:radical CDATA #IMPLIED kvg:phon CDATA #IMPLIED >
  <!ATTLIST path xmlns:kvg CDATA #FIXED "http://kanjivg.tagaini.net" kvg:type CDATA #IMPLIED >
  ]>
  <svg xmlns="http://www.w3.org/2000/svg" width="109" height="109" viewBox="0 0 109 109">
<g id="kvg:StrokePaths_0663c" style="fill:none;stroke:#000000;stroke-width:3;stroke-linecap:round;stroke-linejoin:round;">
<g id="kvg:0663c" kvg:element="昼">
	<g id="kvg:0663c-g1" kvg:element="尺">
		<g id="kvg:0663c-g2" kvg:element="尸">
			<path style="fill:none;stroke:#808080" id="kvg:0663c-s1" kvg:type="㇕c" d="M29.75,17.19c1.44,0.62,3.73,0.67,5.26,0.54c8.25-0.69,28.36-3.73,36.79-4.35c2.84-0.21,4.75,1.81,4.31,3.63c-0.76,3.15-1.86,5.86-3.08,10.08"/>
			<path style="fill:none;stroke:#808080" id="kvg:0663c-s2" kvg:type="㇐b" d="M33.25,32.5c5.64-0.6,27.15-2.94,37.53-3.94c2.49-0.24,4.34-0.4,5.18-0.44"/>
			<g id="kvg:0663c-g3" kvg:element="八" kvg:part="1">
				<path style="fill:none;stroke:#808080" id="kvg:0663c-s3" kvg:type="㇒" d="M32.25,18.04c0.73,0.73,1.1,1.77,1.06,2.97C32.5,41.38,27.25,62.25,15,70.58"/>
			</g>
		</g>
		<g id="kvg:0663c-g4" kvg:element="八" kvg:part="2">
			<path style="fill:none;stroke:#808080" id="kvg:0663c-s4" kvg:type="㇏" d="M62,32.38C68.78,43,78.05,52.08,86.45,58.67c2.46,1.93,4.88,3.69,7.93,4.46"/>
		</g>
	</g>
	<g id="kvg:0663c-g5" kvg:element="旦">
		<g id="kvg:0663c-g6" kvg:element="日" kvg:radical="tradit">
			<path style="fill:none;stroke-width:4;" id="kvg:0663c-s5" kvg:type="㇑" d="M33.77,54.39c0.92,0.92,1.55,2.02,1.7,3.34c0.55,4.94,2.28,22.35,2.28,22.73c0,0.43,0.14,2.18,0.27,3.05"/>
<circle cx="33.77" cy="54.39" r="5" style="fill:red;stroke:red;" />
		</g>
		<g id="kvg:0663c-g7" kvg:element="一" kvg:radical="nelson">
		</g>
	</g>
</g>
</g></svg>