<?xml version="1.0" encoding="UTF-8"?>
  <!DOCTYPE svg PUBLIC "-//W3C//DTD SVG 1.0//EN" "http://www.w3.org/TR/2001/REC-SVG-20010904/DTD/svg10.dtd" [
  <!ATTLIST g xmlns:kvg CDATA #FIXED "http://kanjivg.tagaini.net" kvg:element CDATA #IMPLIED kvg:variant CDATA #IMPLIED kvg:partial CDATA #IMPLIED kvg:original CDATA #IMPLIED kvg:part CDATA #IMPLIED kvg:number CDATA #IMPLIED kvg:tradForm CDATA #IMPLIED kvg:radicalForm CDATA #IMPLIED kvg:position CDATA #IMPLIED kvg:radical CDATA #IMPLIED kvg:phon CDATA #IMPLIED >
  <!ATTLIST path xmlns:kvg CDATA #FIXED "http://kanjivg.tagaini.net" kvg:type CDATA #IMPLIED >
  ]>
  <svg xmlns="http://www.w3.org/2000/svg" width="109" height="109" viewBox="0 0 109 109">
<g id="kvg:StrokePaths_06669" style="fill:none;stroke:#000000;stroke-width:3;stroke-linecap:round;stroke-linejoin:round;">
<g id="kvg:06669" kvg:element="晩">
	<g id="kvg:06669-g1" kvg:element="日" kvg:position="left" kvg:radical="general">
		<path style="fill:none;stroke:#808080" id="kvg:06669-s1" kvg:type="㇑" d="M14.27,24.74c0.69,0.69,1.02,1.72,1.02,3.21c0,1.17-0.05,27.59-0.03,39.55c0.01,3.25,0.02,5.43,0.03,5.75"/>
		<path style="fill:none;stroke:#808080" id="kvg:06669-s2" kvg:type="㇕a" d="M16.22,26.52c2.01-0.32,10.55-2.23,14.65-3.04c3.31-0.66,3.86,0.28,3.8,3.4c-0.11,6.35,0.04,26.17-0.01,37.37c-0.02,4.63-0.03,7.85-0.03,8.14"/>
		<path style="fill:none;stroke:#808080" id="kvg:06669-s3" kvg:type="㇐a" d="M16.23,46.66c3.64-0.41,14.14-2.04,17.54-2.11"/>
		<path style="fill:none;stroke-width:4;" id="kvg:06669-s4" kvg:type="㇐a" d="M16.39,68.39c4.07-0.38,11.48-1.52,17.12-1.98"/>
<circle cx="16.39" cy="68.39" r="5" style="fill:red;stroke:red;" />
	</g>
	<g id="kvg:06669-g2" kvg:element="免" kvg:position="right" kvg:phon="免">
		<g id="kvg:06669-g3" kvg:position="top">
			<g id="kvg:06669-g4" kvg:element="𠂊" kvg:variant="true" kvg:original="勹">
			</g>
		</g>
		<g id="kvg:06669-g5" kvg:element="儿" kvg:original="八" kvg:position="bottom">
			<g id="kvg:06669-g6" kvg:element="丿" kvg:position="left">
			</g>
			<g id="kvg:06669-g7" kvg:position="right">
			</g>
		</g>
	</g>
</g>
</g></svg>