<?xml version="1.0" encoding="UTF-8"?>
  <!DOCTYPE svg PUBLIC "-//W3C//DTD SVG 1.0//EN" "http://www.w3.org/TR/2001/REC-SVG-20010904/DTD/svg10.dtd" [
  <!ATTLIST g xmlns:kvg CDATA #FIXED "http://kanjivg.tagaini.net" kvg:element CDATA #IMPLIED kvg:variant CDATA #IMPLIED kvg:partial CDATA #IMPLIED kvg:original CDATA #IMPLIED kvg:part CDATA #IMPLIED kvg:number CDATA #IMPLIED kvg:tradForm CDATA #IMPLIED kvg:radicalForm CDATA #IMPLIED kvg:position CDATA #IMPLIED kvg:radical CDATA #IMPLIED kvg:phon CDATA #IMPLIED >
  <!ATTLIST path xmlns:kvg CDATA #FIXED "http://kanjivg.tagaini.net" kvg:type CDATA #IMPLIED >
  ]>
  <svg xmlns="http://www.w3.org/2000/svg" width="109" height="109" viewBox="0 0 109 109">
<g id="kvg:StrokePaths_0666f" style="fill:none;stroke:#000000;stroke-width:3;stroke-linecap:round;stroke-linejoin:round;">
<g id="kvg:0666f" kvg:element="景">
	<g id="kvg:0666f-g1" kvg:element="日" kvg:position="top" kvg:radical="general">
		<path style="fill:none;stroke:#808080" id="kvg:0666f-s1" kvg:type="㇑" d="M30.25,15.01c0.75,0.75,1.29,1.79,1.46,2.52c0.63,2.75,2.02,10.54,3.05,16.46c0.27,1.55,0.51,2.97,0.71,4.14"/>
		<path style="fill:none;stroke:#808080" id="kvg:0666f-s2" kvg:type="㇕a" d="M32.63,16.21c6.12-0.96,33-3.59,41.04-3.88c3.08-0.11,5.34,1.17,4.84,4.17c-0.48,2.86-2.54,10.29-3.79,15.06c-0.53,2.01-0.89,3.43-0.89,3.59"/>
		<path style="fill:none;stroke:#808080" id="kvg:0666f-s3" kvg:type="㇐a" d="M34.72,26.29c9.03-1.16,30.78-3.04,41.03-3.59"/>
		<path style="fill:none;stroke:#808080" id="kvg:0666f-s4" kvg:type="㇐a" d="M36.89,36.28c12.36-1.4,26.78-2.35,37.26-2.91"/>
	</g>
	<g id="kvg:0666f-g2" kvg:element="京" kvg:position="bottom" kvg:phon="京">
		<g id="kvg:0666f-g3" kvg:element="亠" kvg:position="top">
			<path style="fill:none;stroke-width:4;" id="kvg:0666f-s5" kvg:type="㇑a" d="M53.19,37.42c0.82,0.82,1.06,2.36,1.06,3.24c0,1.34,0.11,3.72,0.11,4.91"/>
<circle cx="53.19" cy="37.42" r="5" style="fill:red;stroke:red;" />
		</g>
		<g id="kvg:0666f-g4" kvg:position="bottom">
			<g id="kvg:0666f-g5" kvg:element="口">
			</g>
			<g id="kvg:0666f-g6" kvg:element="小">
			</g>
		</g>
	</g>
</g>
</g></svg>