<?xml version="1.0" encoding="UTF-8"?>
  <!DOCTYPE svg PUBLIC "-//W3C//DTD SVG 1.0//EN" "http://www.w3.org/TR/2001/REC-SVG-20010904/DTD/svg10.dtd" [
  <!ATTLIST g xmlns:kvg CDATA #FIXED "http://kanjivg.tagaini.net" kvg:element CDATA #IMPLIED kvg:variant CDATA #IMPLIED kvg:partial CDATA #IMPLIED kvg:original CDATA #IMPLIED kvg:part CDATA #IMPLIED kvg:number CDATA #IMPLIED kvg:tradForm CDATA #IMPLIED kvg:radicalForm CDATA #IMPLIED kvg:position CDATA #IMPLIED kvg:radical CDATA #IMPLIED kvg:phon CDATA #IMPLIED >
  <!ATTLIST path xmlns:kvg CDATA #FIXED "http://kanjivg.tagaini.net" kvg:type CDATA #IMPLIED >
  ]>
  <svg xmlns="http://www.w3.org/2000/svg" width="109" height="109" viewBox="0 0 109 109">
<g id="kvg:StrokePaths_06674" style="fill:none;stroke:#000000;stroke-width:3;stroke-linecap:round;stroke-linejoin:round;">
<g id="kvg:06674" kvg:element="晴">
	<g id="kvg:06674-g1" kvg:element="日" kvg:position="left" kvg:radical="general">
		<path style="fill:none;stroke:#808080" id="kvg:06674-s1" kvg:type="㇑" d="M13.75,26.83c0.96,0.96,1.7,2.45,1.7,3.73c0,1.29-0.23,35.36-0.23,36c0,0.64,0.12,1.64,0.23,2.93"/>
		<path style="fill:none;stroke:#808080" id="kvg:06674-s2" kvg:type="㇕a" d="M15.81,27.88c5.12-0.6,17.72-1.74,19.1-1.89c1.51-0.16,2.47,1.78,2.36,2.73c-0.24,1.93-0.35,21.93-0.35,36.08c0,1.46-0.12,3.09-0.12,4.05"/>
		<path style="fill:none;stroke:#808080" id="kvg:06674-s3" kvg:type="㇐a" d="M16.39,46.64c2.68,0,16.56-1.61,19.59-1.61"/>
		<path style="fill:none;stroke-width:4;" id="kvg:06674-s4" kvg:type="㇐a" d="M16.04,66.73c3.97,0,14.58-1.29,19.71-1.29"/>
<circle cx="16.04" cy="66.73" r="5" style="fill:red;stroke:red;" />
	</g>
	<g id="kvg:06674-g2" kvg:element="青" kvg:position="right" kvg:phon="青">
		<g id="kvg:06674-g3" kvg:element="龶">
		</g>
		<g id="kvg:06674-g4" kvg:element="月">
		</g>
	</g>
</g>
</g></svg>