<?xml version="1.0" encoding="UTF-8"?>
  <!DOCTYPE svg PUBLIC "-//W3C//DTD SVG 1.0//EN" "http://www.w3.org/TR/2001/REC-SVG-20010904/DTD/svg10.dtd" [
  <!ATTLIST g xmlns:kvg CDATA #FIXED "http://kanjivg.tagaini.net" kvg:element CDATA #IMPLIED kvg:variant CDATA #IMPLIED kvg:partial CDATA #IMPLIED kvg:original CDATA #IMPLIED kvg:part CDATA #IMPLIED kvg:number CDATA #IMPLIED kvg:tradForm CDATA #IMPLIED kvg:radicalForm CDATA #IMPLIED kvg:position CDATA #IMPLIED kvg:radical CDATA #IMPLIED kvg:phon CDATA #IMPLIED >
  <!ATTLIST path xmlns:kvg CDATA #FIXED "http://kanjivg.tagaini.net" kvg:type CDATA #IMPLIED >
  ]>
  <svg xmlns="http://www.w3.org/2000/svg" width="109" height="109" viewBox="0 0 109 109">
<g id="kvg:StrokePaths_06691" style="fill:none;stroke:#000000;stroke-width:3;stroke-linecap:round;stroke-linejoin:round;">
<g id="kvg:06691" kvg:element="暑">
	<g id="kvg:06691-g1" kvg:element="日" kvg:position="top" kvg:radical="general">
		<path style="fill:none;stroke:#808080" id="kvg:06691-s1" kvg:type="㇑" d="M31.5,13.79c1,0.84,1.58,1.94,1.74,2.62c1.14,4.81,2.71,12.93,3.62,17.6c0.29,1.49,0.51,2.64,0.64,3.2"/>
		<path style="fill:none;stroke:#808080" id="kvg:06691-s2" kvg:type="㇕a" d="M34.48,15.66C41.5,15,68.75,12.25,74.5,12.23c3.21-0.01,4.35,2.11,3.5,4.77c-1.74,5.44-2.92,8.8-4.83,14.14c-0.28,0.79-0.58,1.62-0.9,2.51"/>
		<path style="fill:none;stroke:#808080" id="kvg:06691-s3" kvg:type="㇐a" d="M36.47,24.99c7.28-0.74,30.65-2.37,38.31-2.7"/>
		<path style="fill:none;stroke:#808080" id="kvg:06691-s4" kvg:type="㇐a" d="M38.98,34.65c8.41-0.67,21.67-1.59,32.56-2.46"/>
	</g>
	<g id="kvg:06691-g2" kvg:element="者" kvg:position="bottom" kvg:phon="者">
		<g id="kvg:06691-g3" kvg:element="耂" kvg:original="老" kvg:partial="true">
			<g id="kvg:06691-g4" kvg:element="土">
				<path style="fill:none;stroke:#808080" id="kvg:06691-s5" kvg:type="㇐" d="M34.49,45.89c1.55,0.53,3.48,0.48,5.09,0.35c7.75-0.6,17.54-2.1,25.22-2.5c1.65-0.09,3.31-0.17,4.94,0.16"/>
				<path style="fill:none;stroke:#808080" id="kvg:06691-s6" kvg:type="㇑a" d="M52.4,35.62c0.93,0.93,1.56,2.13,1.56,3.59C53.96,45.5,54,49.51,54,56"/>
				<path style="fill:none;stroke:#808080" id="kvg:06691-s7" kvg:type="㇐" d="M14.15,59.77c3.42,0.6,7.02,0.52,8.86,0.28c17.11-2.3,42.99-5.42,63.74-6.78c3.12-0.2,6.26-0.08,9.35,0.45"/>
			</g>
			<path style="fill:none;stroke-width:4;" id="kvg:06691-s8" kvg:type="㇒" d="M81.38,33c-0.12,1.52-0.67,3.09-1.78,4.27c-14.29,15.2-35.36,30.25-63.72,43.1"/>
<circle cx="81.38" cy="33" r="5" style="fill:red;stroke:red;" />
		</g>
		<g id="kvg:06691-g5" kvg:element="日">
		</g>
	</g>
</g>
</g></svg>