<?xml version="1.0" encoding="UTF-8"?>
  <!DOCTYPE svg PUBLIC "-//W3C//DTD SVG 1.0//EN" "http://www.w3.org/TR/2001/REC-SVG-20010904/DTD/svg10.dtd" [
  <!ATTLIST g xmlns:kvg CDATA #FIXED "http://kanjivg.tagaini.net" kvg:element CDATA #IMPLIED kvg:variant CDATA #IMPLIED kvg:partial CDATA #IMPLIED kvg:original CDATA #IMPLIED kvg:part CDATA #IMPLIED kvg:number CDATA #IMPLIED kvg:tradForm CDATA #IMPLIED kvg:radicalForm CDATA #IMPLIED kvg:position CDATA #IMPLIED kvg:radical CDATA #IMPLIED kvg:phon CDATA #IMPLIED >
  <!ATTLIST path xmlns:kvg CDATA #FIXED "http://kanjivg.tagaini.net" kvg:type CDATA #IMPLIED >
  ]>
  <svg xmlns="http://www.w3.org/2000/svg" width="109" height="109" viewBox="0 0 109 109">
<g id="kvg:StrokePaths_06696" style="fill:none;stroke:#000000;stroke-width:3;stroke-linecap:round;stroke-linejoin:round;">
<g id="kvg:06696" kvg:element="暖">
	<g id="kvg:06696-g1" kvg:element="日" kvg:position="left" kvg:radical="general">
		<path style="fill:none;stroke:#808080" id="kvg:06696-s1" kvg:type="㇑" d="M12.53,28.59c0.88,0.88,1.27,2.44,1.25,3.9c-0.01,1.23,0.06,26.5,0.08,38.51c0,2.24,0.01,4.02,0.01,5.09"/>
		<path style="fill:none;stroke:#808080" id="kvg:06696-s2" kvg:type="㇕a" d="M14.25,30.36c1.51-0.05,15.76-2.14,17.12-2.32c2.13-0.29,2.76,0.84,2.76,2.76c0,1.67,0.02,25.94-0.01,37.95c-0.01,3.73-0.02,6.25-0.02,6.51"/>
		<path style="fill:none;stroke:#808080" id="kvg:06696-s3" kvg:type="㇐a" d="M14.83,50.42c4.92-0.42,12.42-1.54,18.17-1.79"/>
		<path style="fill:none;stroke:#808080" id="kvg:06696-s4" kvg:type="㇐a" d="M15.02,72.29c4.15-0.42,12.83-1.44,18-1.67"/>
	</g>
	<g id="kvg:06696-g2" kvg:element="爰" kvg:variant="true" kvg:position="right" kvg:phon="爰V">
		<g id="kvg:06696-g3" kvg:element="⺤" kvg:variant="true" kvg:original="爪" kvg:position="top">
			<path style="fill:none;stroke-width:4;" id="kvg:06696-s5" kvg:type="㇒" d="M73.24,12.54c0,1.09-0.47,1.75-1.17,2.29c-3.58,2.8-11.08,6.05-22.93,9.59"/>
<circle cx="73.24" cy="12.54" r="5" style="fill:red;stroke:red;" />
		</g>
		<g id="kvg:06696-g4" kvg:position="bottom">
			<g id="kvg:06696-g5" kvg:element="友">
				<g id="kvg:06696-g6" kvg:element="又">
				</g>
			</g>
		</g>
	</g>
</g>
</g></svg>