<?xml version="1.0" encoding="UTF-8"?>
  <!DOCTYPE svg PUBLIC "-//W3C//DTD SVG 1.0//EN" "http://www.w3.org/TR/2001/REC-SVG-20010904/DTD/svg10.dtd" [
  <!ATTLIST g xmlns:kvg CDATA #FIXED "http://kanjivg.tagaini.net" kvg:element CDATA #IMPLIED kvg:variant CDATA #IMPLIED kvg:partial CDATA #IMPLIED kvg:original CDATA #IMPLIED kvg:part CDATA #IMPLIED kvg:number CDATA #IMPLIED kvg:tradForm CDATA #IMPLIED kvg:radicalForm CDATA #IMPLIED kvg:position CDATA #IMPLIED kvg:radical CDATA #IMPLIED kvg:phon CDATA #IMPLIED >
  <!ATTLIST path xmlns:kvg CDATA #FIXED "http://kanjivg.tagaini.net" kvg:type CDATA #IMPLIED >
  ]>
  <svg xmlns="http://www.w3.org/2000/svg" width="109" height="109" viewBox="0 0 109 109">
<g id="kvg:StrokePaths_06697" style="fill:none;stroke:#000000;stroke-width:3;stroke-linecap:round;stroke-linejoin:round;">
<g id="kvg:06697" kvg:element="暗">
	<g id="kvg:06697-g1" kvg:element="日" kvg:position="left" kvg:radical="general">
		<path style="fill:none;stroke:#808080" id="kvg:06697-s1" kvg:type="㇑" d="M13.75,31.36c0.85,0.85,1.39,2.13,1.39,3.58c0,1.21-0.07,30.39-0.04,40.88c0.01,2.02,0.02,3.32,0.04,3.56"/>
		<path style="fill:none;stroke:#808080" id="kvg:06697-s2" kvg:type="㇕a" d="M16.27,32.76c4.13-0.44,13.71-1.5,14.98-1.7c2.89-0.44,4.5,1,4.25,3.75c-0.16,1.81-0.82,29.69-1.04,39.5c-0.04,1.99-0.07,3.25-0.07,3.44"/>
		<path style="fill:none;stroke:#808080" id="kvg:06697-s3" kvg:type="㇐a" d="M16.24,53.77c3.51-0.33,13.63-1.71,17.6-2.06"/>
		<path style="fill:none;stroke:#808080" id="kvg:06697-s4" kvg:type="㇐a" d="M16.17,76.13c4.7-0.44,10.7-1.19,17.01-1.84"/>
	</g>
	<g id="kvg:06697-g2" kvg:element="音" kvg:position="right" kvg:phon="音">
		<g id="kvg:06697-g3" kvg:element="立">
			<g id="kvg:06697-g4" kvg:element="亠" kvg:position="top">
				<path style="fill:none;stroke:#808080" id="kvg:06697-s5" kvg:type="㇑a" d="M65.06,11.56c1.04,1.03,1.66,2.26,1.66,3.68c0,4.48,0.02,5.86,0.16,9.66"/>
				<path style="fill:none;stroke:#808080" id="kvg:06697-s6" kvg:type="㇐" d="M46.27,27.81c1.66,0.26,3.88,0.11,5.64-0.05c7.8-0.7,20.96-2.82,31.88-3.82c2.18-0.2,4.02-0.13,5.73,0.36"/>
			</g>
			<g id="kvg:06697-g5" kvg:position="bottom">
				<path style="fill:none;stroke-width:4;" id="kvg:06697-s7" kvg:type="㇔" d="M53.75,34.07c3.81,4.94,4.6,9.68,5.14,13.15"/>
<circle cx="53.75" cy="34.07" r="5" style="fill:red;stroke:red;" />
			</g>
		</g>
		<g id="kvg:06697-g6" kvg:element="日">
		</g>
	</g>
</g>
</g></svg>