<?xml version="1.0" encoding="UTF-8"?>
  <!DOCTYPE svg PUBLIC "-//W3C//DTD SVG 1.0//EN" "http://www.w3.org/TR/2001/REC-SVG-20010904/DTD/svg10.dtd" [
  <!ATTLIST g xmlns:kvg CDATA #FIXED "http://kanjivg.tagaini.net" kvg:element CDATA #IMPLIED kvg:variant CDATA #IMPLIED kvg:partial CDATA #IMPLIED kvg:original CDATA #IMPLIED kvg:part CDATA #IMPLIED kvg:number CDATA #IMPLIED kvg:tradForm CDATA #IMPLIED kvg:radicalForm CDATA #IMPLIED kvg:position CDATA #IMPLIED kvg:radical CDATA #IMPLIED kvg:phon CDATA #IMPLIED >
  <!ATTLIST path xmlns:kvg CDATA #FIXED "http://kanjivg.tagaini.net" kvg:type CDATA #IMPLIED >
  ]>
  <svg xmlns="http://www.w3.org/2000/svg" width="109" height="109" viewBox="0 0 109 109">
<g id="kvg:StrokePaths_066ae" style="fill:none;stroke:#000000;stroke-width:3;stroke-linecap:round;stroke-linejoin:round;">
<g id="kvg:066ae" kvg:element="暮">
	<g id="kvg:066ae-g1" kvg:element="莫" kvg:position="top" kvg:phon="莫">
		<g id="kvg:066ae-g2" kvg:element="艹" kvg:variant="true" kvg:original="艸" kvg:position="top" kvg:radical="nelson">
			<path style="fill:none;stroke:#808080" id="kvg:066ae-s1" kvg:type="㇐" d="M22.75,22.81c2.38,0.44,5.19,0.38,7.51,0.19c12.52-0.98,35.24-3.25,49.48-3.87c2.59-0.11,4.99,0.11,7.51,0.64"/>
			<path style="fill:none;stroke:#808080" id="kvg:066ae-s2" kvg:type="㇑a" d="M40,13.49c0.82,0.82,1.41,2,1.5,2.74c0.88,7.03,1.5,10.53,1.75,13.35"/>
			<path style="fill:none;stroke:#808080" id="kvg:066ae-s3" kvg:type="㇑a" d="M67.57,12.25c0.38,0.86,0.33,2.25-0.05,3.31C65.5,21.12,64.5,24.38,63,28.3"/>
		</g>
		<g id="kvg:066ae-g3" kvg:position="bottom">
			<g id="kvg:066ae-g4" kvg:element="日">
				<path style="fill:none;stroke:#808080" id="kvg:066ae-s4" kvg:type="㇑" d="M33.02,34.96c0.95,0.95,1.35,1.91,1.44,2.49c0.45,3.03,1.32,9.14,1.84,12.8c0.24,1.69,0.4,2.85,0.4,2.95"/>
				<path style="fill:none;stroke-width:4;" id="kvg:066ae-s5" kvg:type="㇕a" d="M35,36.03c6.56-0.74,28.82-2.71,34.99-3.18c2.35-0.18,4.36,1.06,3.77,3.91c-0.57,2.76-1.64,6.77-2.59,10.38c-0.41,1.57-0.8,2.97-1.12,3.97"/>
<circle cx="35" cy="36.03" r="5" style="fill:red;stroke:red;" />
			</g>
			<g id="kvg:066ae-g5" kvg:element="大">
			</g>
		</g>
	</g>
	<g id="kvg:066ae-g6" kvg:element="日" kvg:position="bottom" kvg:radical="tradit">
	</g>
</g>
</g></svg>