<?xml version="1.0" encoding="UTF-8"?>
  <!DOCTYPE svg PUBLIC "-//W3C//DTD SVG 1.0//EN" "http://www.w3.org/TR/2001/REC-SVG-20010904/DTD/svg10.dtd" [
  <!ATTLIST g xmlns:kvg CDATA #FIXED "http://kanjivg.tagaini.net" kvg:element CDATA #IMPLIED kvg:variant CDATA #IMPLIED kvg:partial CDATA #IMPLIED kvg:original CDATA #IMPLIED kvg:part CDATA #IMPLIED kvg:number CDATA #IMPLIED kvg:tradForm CDATA #IMPLIED kvg:radicalForm CDATA #IMPLIED kvg:position CDATA #IMPLIED kvg:radical CDATA #IMPLIED kvg:phon CDATA #IMPLIED >
  <!ATTLIST path xmlns:kvg CDATA #FIXED "http://kanjivg.tagaini.net" kvg:type CDATA #IMPLIED >
  ]>
  <svg xmlns="http://www.w3.org/2000/svg" width="109" height="109" viewBox="0 0 109 109">
<g id="kvg:StrokePaths_066dc" style="fill:none;stroke:#000000;stroke-width:3;stroke-linecap:round;stroke-linejoin:round;">
<g id="kvg:066dc" kvg:element="曜">
	<g id="kvg:066dc-g1" kvg:element="日" kvg:position="left" kvg:radical="general">
		<path style="fill:none;stroke:#808080" id="kvg:066dc-s1" kvg:type="㇑" d="M15.5,29.81c1,0.69,1.61,2.1,1.61,3.52c0,1.42-0.2,40.33-0.2,41.04c0,0.71-0.05,1.76-0.05,2.88"/>
		<path style="fill:none;stroke:#808080" id="kvg:066dc-s2" kvg:type="㇕a" d="M18.06,31.1c4.41-0.66,14.19-2.61,15.41-2.61c1.78,0,2.54,1.75,2.54,3.02c0,2.14-0.31,25.27-0.3,40.9c0,1.61-0.1,2.31-0.1,3.38"/>
		<path style="fill:none;stroke:#808080" id="kvg:066dc-s3" kvg:type="㇐a" d="M18.42,51.59c3.71-0.46,11.71-1.59,15.98-2.03"/>
		<path style="fill:none;stroke:#808080" id="kvg:066dc-s4" kvg:type="㇐a" d="M18.12,74.29c4.38-0.42,10.63-1.67,16.08-2.17"/>
	</g>
	<g id="kvg:066dc-g2" kvg:position="right" kvg:phon="翟">
		<g id="kvg:066dc-g3" kvg:element="羽" kvg:position="top">
			<g id="kvg:066dc-g4" kvg:position="left">
				<path style="fill:none;stroke-width:4;" id="kvg:066dc-s5" kvg:type="㇆" d="M41.5,16.5c1.5,0.75,2.5,0.75,4.75,0.5S56.5,15.5,58,15.25s3.5,1.5,3.5,3c0,1.22-0.17,14.07-0.23,20c-0.01,1.35-0.02,2.33-0.02,2.75"/>
<circle cx="41.5" cy="16.5" r="5" style="fill:red;stroke:red;" />
			</g>
			<g id="kvg:066dc-g5" kvg:position="right">
			</g>
		</g>
		<g id="kvg:066dc-g6" kvg:element="隹" kvg:position="bottom">
			<g id="kvg:066dc-g7" kvg:element="亻" kvg:variant="true" kvg:original="人">
			</g>
		</g>
	</g>
</g>
</g></svg>