<?xml version="1.0" encoding="UTF-8"?>
  <!DOCTYPE svg PUBLIC "-//W3C//DTD SVG 1.0//EN" "http://www.w3.org/TR/2001/REC-SVG-20010904/DTD/svg10.dtd" [
  <!ATTLIST g xmlns:kvg CDATA #FIXED "http://kanjivg.tagaini.net" kvg:element CDATA #IMPLIED kvg:variant CDATA #IMPLIED kvg:partial CDATA #IMPLIED kvg:original CDATA #IMPLIED kvg:part CDATA #IMPLIED kvg:number CDATA #IMPLIED kvg:tradForm CDATA #IMPLIED kvg:radicalForm CDATA #IMPLIED kvg:position CDATA #IMPLIED kvg:radical CDATA #IMPLIED kvg:phon CDATA #IMPLIED >
  <!ATTLIST path xmlns:kvg CDATA #FIXED "http://kanjivg.tagaini.net" kvg:type CDATA #IMPLIED >
  ]>
  <svg xmlns="http://www.w3.org/2000/svg" width="109" height="109" viewBox="0 0 109 109">
<g id="kvg:StrokePaths_06700" style="fill:none;stroke:#000000;stroke-width:3;stroke-linecap:round;stroke-linejoin:round;">
<g id="kvg:06700" kvg:element="最">
	<g id="kvg:06700-g1" kvg:element="日" kvg:original="曰" kvg:position="top" kvg:radical="general">
		<path style="fill:none;stroke:#808080" id="kvg:06700-s1" kvg:type="㇑" d="M28.53,14.31c0.83,0.83,1.3,1.74,1.42,2.45c0.23,1.38,1.8,13.16,2.75,20.12c0.33,2.4,0.58,4.23,0.67,4.87"/>
		<path style="fill:none;stroke:#808080" id="kvg:06700-s2" kvg:type="㇕a" d="M30.86,16.22c4.36-0.35,37.52-2.97,43.19-3.25c3.31-0.16,5.45,1.03,5.2,3.91c-0.27,3.03-1.36,9.96-2.82,17.13c-0.31,1.54-0.64,3.08-0.98,4.6"/>
		<path style="fill:none;stroke:#808080" id="kvg:06700-s3" kvg:type="㇐a" d="M32.49,26.78c5.89-0.36,36.39-2.65,44.54-2.75"/>
		<path style="fill:none;stroke:#808080" id="kvg:06700-s4" kvg:type="㇐a" d="M33.84,37.96c8.71-0.53,27.78-1.96,41.05-2.59"/>
	</g>
	<g id="kvg:06700-g2" kvg:element="取" kvg:position="bottom">
		<g id="kvg:06700-g3" kvg:element="耳" kvg:position="left">
			<path style="fill:none;stroke:#808080" id="kvg:06700-s5" kvg:type="㇐" d="M11.75,49.29c2.47,0.57,7.02,0.79,9.49,0.57c20.44-1.76,40.93-3.28,59.14-3.88c4.14-0.14,8.03,0.15,12.12,0.72"/>
			<path style="fill:none;stroke:#808080" id="kvg:06700-s6" kvg:type="㇑a" d="M26.06,52.41c0.77,0.77,1.14,1.92,1.14,2.91c0,0.99-0.14,30.36-0.14,33.93"/>
			<path style="fill:none;stroke:#808080" id="kvg:06700-s7" kvg:type="㇐a" d="M28.42,61.33c4.83-0.7,9.52-1.17,16.14-1.77"/>
			<path style="fill:none;stroke:#808080" id="kvg:06700-s8" kvg:type="㇐a" d="M28.14,73.61C32.88,73,41.62,72,44.65,71.78"/>
			<path style="fill:none;stroke-width:4;" id="kvg:06700-s9" kvg:type="㇀" d="M16.5,93.4c0.84,0.59,2.26,0.53,3.09,0.16c3.31-1.51,21.09-10,26.17-12.41"/>
<circle cx="16.5" cy="93.4" r="5" style="fill:red;stroke:red;" />
		</g>
		<g id="kvg:06700-g4" kvg:element="又" kvg:position="right">
		</g>
	</g>
</g>
</g></svg>