<?xml version="1.0" encoding="UTF-8"?>
  <!DOCTYPE svg PUBLIC "-//W3C//DTD SVG 1.0//EN" "http://www.w3.org/TR/2001/REC-SVG-20010904/DTD/svg10.dtd" [
  <!ATTLIST g xmlns:kvg CDATA #FIXED "http://kanjivg.tagaini.net" kvg:element CDATA #IMPLIED kvg:variant CDATA #IMPLIED kvg:partial CDATA #IMPLIED kvg:original CDATA #IMPLIED kvg:part CDATA #IMPLIED kvg:number CDATA #IMPLIED kvg:tradForm CDATA #IMPLIED kvg:radicalForm CDATA #IMPLIED kvg:position CDATA #IMPLIED kvg:radical CDATA #IMPLIED kvg:phon CDATA #IMPLIED >
  <!ATTLIST path xmlns:kvg CDATA #FIXED "http://kanjivg.tagaini.net" kvg:type CDATA #IMPLIED >
  ]>
  <svg xmlns="http://www.w3.org/2000/svg" width="109" height="109" viewBox="0 0 109 109">
<g id="kvg:StrokePaths_06717" style="fill:none;stroke:#000000;stroke-width:3;stroke-linecap:round;stroke-linejoin:round;">
<g id="kvg:06717" kvg:element="朗">
	<g id="kvg:06717-g1" kvg:element="良" kvg:variant="true" kvg:position="left" kvg:phon="良">
		<path style="fill:none;stroke:#808080" id="kvg:06717-s1" kvg:type="㇑a" d="M32.59,14.5c0.96,0.96,1.28,2.75,1.28,4.03c0,3.47,0.01,5.63,0.01,8.72"/>
		<g id="kvg:06717-g2" kvg:element="艮" kvg:variant="true">
			<path style="fill:none;stroke:#808080" id="kvg:06717-s2" kvg:type="㇕" d="M19.01,28.99c1.99,0.88,3.44,0.93,6.24,0.54c5.5-0.76,14.62-1.82,18.52-2.24c2.88-0.31,4.34,0.34,4.2,3.47c-0.21,4.71-0.88,13.33-1.37,19.48c-0.13,1.6-0.24,3.04-0.33,4.19"/>
			<path style="fill:none;stroke:#808080" id="kvg:06717-s3" kvg:type="㇐a" d="M21.63,42.02c5.36-0.56,16.37-2.15,24.81-2.69"/>
			<path style="fill:none;stroke:#808080" id="kvg:06717-s4" kvg:type="㇐a" d="M21.48,55.33c7.35-0.89,14.77-1.7,23.97-2.53"/>
			<path style="fill:none;stroke-width:4;" id="kvg:06717-s5" kvg:type="㇙" d="M19.51,29.49c0.75,0.75,1.11,1.76,1.11,3.13c0,3.5,0.1,45.13,0.1,50.07c0,4.31,1.28,5.06,4.12,2.95c4.91-3.65,12.41-8.89,18.41-13.64"/>
<circle cx="19.51" cy="29.49" r="5" style="fill:red;stroke:red;" />
		</g>
	</g>
	<g id="kvg:06717-g3" kvg:element="月" kvg:variant="true" kvg:original="肉" kvg:position="right" kvg:radical="general">
	</g>
</g>
</g></svg>