<?xml version="1.0" encoding="UTF-8"?>
  <!DOCTYPE svg PUBLIC "-//W3C//DTD SVG 1.0//EN" "http://www.w3.org/TR/2001/REC-SVG-20010904/DTD/svg10.dtd" [
  <!ATTLIST g xmlns:kvg CDATA #FIXED "http://kanjivg.tagaini.net" kvg:element CDATA #IMPLIED kvg:variant CDATA #IMPLIED kvg:partial CDATA #IMPLIED kvg:original CDATA #IMPLIED kvg:part CDATA #IMPLIED kvg:number CDATA #IMPLIED kvg:tradForm CDATA #IMPLIED kvg:radicalForm CDATA #IMPLIED kvg:position CDATA #IMPLIED kvg:radical CDATA #IMPLIED kvg:phon CDATA #IMPLIED >
  <!ATTLIST path xmlns:kvg CDATA #FIXED "http://kanjivg.tagaini.net" kvg:type CDATA #IMPLIED >
  ]>
  <svg xmlns="http://www.w3.org/2000/svg" width="109" height="109" viewBox="0 0 109 109">
<g id="kvg:StrokePaths_0671b" style="fill:none;stroke:#000000;stroke-width:3;stroke-linecap:round;stroke-linejoin:round;">
<g id="kvg:0671b" kvg:element="望">
	<g id="kvg:0671b-g1" kvg:position="top" kvg:phon="亡">
		<g id="kvg:0671b-g2" kvg:element="亡" kvg:position="left">
			<g id="kvg:0671b-g3" kvg:element="亠">
				<path style="fill:none;stroke:#808080" id="kvg:0671b-s1" kvg:type="㇑a" d="M33.49,13.86c0.95,0.95,1.43,2.27,1.43,3.7c0,2.62-0.14,7.36-0.01,9.58"/>
				<g id="kvg:0671b-g4" kvg:element="匸" kvg:part="1" kvg:variant="true" kvg:original="匚">
					<path style="fill:none;stroke:#808080" id="kvg:0671b-s2" kvg:type="㇐" d="M11.34,29.65c2.37,0.4,4.37,0.47,5.74,0.36C27,29.25,38.25,28,49.05,27.29c2.32-0.15,3.51,0.03,5.24,0.46"/>
				</g>
			</g>
			<g id="kvg:0671b-g5" kvg:element="匸" kvg:part="2" kvg:variant="true" kvg:original="匚">
				<path style="fill:none;stroke:#808080" id="kvg:0671b-s3" kvg:type="㇟a" d="M21.97,30.5c0.83,0.83,1,2.1,1,3.25c0,3.23,0,6.82,0,9.5c0,8.88,0.65,9.04,12.03,9.04c4.26,0,9.5,0.25,13.66-0.87"/>
			</g>
		</g>
		<g id="kvg:0671b-g6" kvg:element="月" kvg:position="right" kvg:radical="tradit">
			<path style="fill:none;stroke:#808080" id="kvg:0671b-s4" kvg:type="㇓" d="M65.52,17c0.8,0.8,1.04,2.13,0.9,3.32C64.75,34.88,60.38,50,52.25,56.75"/>
			<path style="fill:none;stroke-width:4;" id="kvg:0671b-s5" kvg:type="㇆a" d="M67.25,19c3-0.25,18.28-3.11,20.5-3.5c2.88-0.5,4.5,0.75,4.25,3.75c-0.46,5.57-2.34,21.21-6.75,33.75c-3.25,9.25-7,4.5-8,3.25"/>
<circle cx="67.25" cy="19" r="5" style="fill:red;stroke:red;" />
		</g>
	</g>
	<g id="kvg:0671b-g7" kvg:element="王" kvg:original="玉" kvg:partial="true" kvg:position="bottom" kvg:radical="nelson">
	</g>
</g>
</g></svg>