<?xml version="1.0" encoding="UTF-8"?>
  <!DOCTYPE svg PUBLIC "-//W3C//DTD SVG 1.0//EN" "http://www.w3.org/TR/2001/REC-SVG-20010904/DTD/svg10.dtd" [
  <!ATTLIST g xmlns:kvg CDATA #FIXED "http://kanjivg.tagaini.net" kvg:element CDATA #IMPLIED kvg:variant CDATA #IMPLIED kvg:partial CDATA #IMPLIED kvg:original CDATA #IMPLIED kvg:part CDATA #IMPLIED kvg:number CDATA #IMPLIED kvg:tradForm CDATA #IMPLIED kvg:radicalForm CDATA #IMPLIED kvg:position CDATA #IMPLIED kvg:radical CDATA #IMPLIED kvg:phon CDATA #IMPLIED >
  <!ATTLIST path xmlns:kvg CDATA #FIXED "http://kanjivg.tagaini.net" kvg:type CDATA #IMPLIED >
  ]>
  <svg xmlns="http://www.w3.org/2000/svg" width="109" height="109" viewBox="0 0 109 109">
<g id="kvg:StrokePaths_0672b" style="fill:none;stroke:#000000;stroke-width:3;stroke-linecap:round;stroke-linejoin:round;">
<g id="kvg:0672b" kvg:element="末">
	<path style="fill:none;stroke:#808080" id="kvg:0672b-s1" kvg:type="㇐" d="M17.75,31.2c3.38,0.8,6.46,0.85,9.52,0.51c13.98-1.58,41.74-4.25,55.23-5c3.05-0.17,6-0.3,9,0.34"/>
	<g id="kvg:0672b-g1" kvg:element="木" kvg:radical="tradit">
		<path style="fill:none;stroke:#808080" id="kvg:0672b-s2" kvg:type="㇐" d="M27.12,51.75c2.07,0.62,4.13,0.66,7.07,0.25c12.56-1.75,26.81-3.38,40.73-4.25c2.96-0.19,5.1,0,6.96,0.25"/>
		<path style="fill:none;stroke-width:4;" id="kvg:0672b-s3" kvg:type="㇑" d="M52.5,10.75c1.25,1.25,2.25,3,2.25,4.75c0,0.87,0,53.95,0,75.62c0,4.12,0,7.1,0,8.38"/>
<circle cx="52.5" cy="10.75" r="5" style="fill:red;stroke:red;" />
		<g id="kvg:0672b-g2" kvg:element="丿" kvg:radical="nelson">
		</g>
	</g>
</g>
</g></svg>