<?xml version="1.0" encoding="UTF-8"?>
  <!DOCTYPE svg PUBLIC "-//W3C//DTD SVG 1.0//EN" "http://www.w3.org/TR/2001/REC-SVG-20010904/DTD/svg10.dtd" [
  <!ATTLIST g xmlns:kvg CDATA #FIXED "http://kanjivg.tagaini.net" kvg:element CDATA #IMPLIED kvg:variant CDATA #IMPLIED kvg:partial CDATA #IMPLIED kvg:original CDATA #IMPLIED kvg:part CDATA #IMPLIED kvg:number CDATA #IMPLIED kvg:tradForm CDATA #IMPLIED kvg:radicalForm CDATA #IMPLIED kvg:position CDATA #IMPLIED kvg:radical CDATA #IMPLIED kvg:phon CDATA #IMPLIED >
  <!ATTLIST path xmlns:kvg CDATA #FIXED "http://kanjivg.tagaini.net" kvg:type CDATA #IMPLIED >
  ]>
  <svg xmlns="http://www.w3.org/2000/svg" width="109" height="109" viewBox="0 0 109 109">
<g id="kvg:StrokePaths_0675f" style="fill:none;stroke:#000000;stroke-width:3;stroke-linecap:round;stroke-linejoin:round;">
<g id="kvg:0675f" kvg:element="束">
	<g id="kvg:0675f-g1" kvg:element="木" kvg:part="1" kvg:radical="tradit">
		<path style="fill:none;stroke:#808080" id="kvg:0675f-s1" kvg:type="㇐" d="M24.25,26.39c2.62,0.36,5.6,0.27,8.01-0.02c10.76-1.28,30.24-3.62,41.86-4.68c3.13-0.28,6-0.32,8.13,0.06"/>
	</g>
	<g id="kvg:0675f-g2" kvg:element="口">
		<path style="fill:none;stroke:#808080" id="kvg:0675f-s2" kvg:type="㇑" d="M27.25,41.57c0.9,0.9,1.56,2.06,1.79,3.26c0.94,4.9,1.7,10.07,2.38,14.91c0.19,1.37,0.38,2.71,0.56,4.01"/>
		<path style="fill:none;stroke-width:4;" id="kvg:0675f-s3" kvg:type="㇕b" d="M29.74,43.64C42.5,41.75,69.5,39,76.33,38.49c2.93-0.22,4.77,2.45,4,4.64C78.25,49,77.75,51,76.11,55.49"/>
<circle cx="29.74" cy="43.64" r="5" style="fill:red;stroke:red;" />
	</g>
	<g id="kvg:0675f-g3" kvg:element="木" kvg:part="2" kvg:radical="tradit">
		<g id="kvg:0675f-g4" kvg:element="丿" kvg:radical="nelson">
		</g>
	</g>
</g>
</g></svg>