<?xml version="1.0" encoding="UTF-8"?>
  <!DOCTYPE svg PUBLIC "-//W3C//DTD SVG 1.0//EN" "http://www.w3.org/TR/2001/REC-SVG-20010904/DTD/svg10.dtd" [
  <!ATTLIST g xmlns:kvg CDATA #FIXED "http://kanjivg.tagaini.net" kvg:element CDATA #IMPLIED kvg:variant CDATA #IMPLIED kvg:partial CDATA #IMPLIED kvg:original CDATA #IMPLIED kvg:part CDATA #IMPLIED kvg:number CDATA #IMPLIED kvg:tradForm CDATA #IMPLIED kvg:radicalForm CDATA #IMPLIED kvg:position CDATA #IMPLIED kvg:radical CDATA #IMPLIED kvg:phon CDATA #IMPLIED >
  <!ATTLIST path xmlns:kvg CDATA #FIXED "http://kanjivg.tagaini.net" kvg:type CDATA #IMPLIED >
  ]>
  <svg xmlns="http://www.w3.org/2000/svg" width="109" height="109" viewBox="0 0 109 109">
<g id="kvg:StrokePaths_0677f" style="fill:none;stroke:#000000;stroke-width:3;stroke-linecap:round;stroke-linejoin:round;">
<g id="kvg:0677f" kvg:element="板">
	<g id="kvg:0677f-g1" kvg:element="木" kvg:position="left" kvg:radical="general">
		<path style="fill:none;stroke:#808080" id="kvg:0677f-s1" kvg:type="㇐" d="M11.53,38.26c1.72,0.49,3.91,0.24,5.25,0.07c5.16-0.66,14.47-2.08,20.64-2.98c0.96-0.14,2.21-0.22,3.35,0"/>
		<path style="fill:none;stroke:#808080" id="kvg:0677f-s2" kvg:type="㇑" d="M27.11,16.75c1.76,1,2.54,3,2.54,4.92c0,1,0.14,46.05,0.03,64.45c-0.02,3.26-0.05,5.68-0.08,6.87"/>
		<path style="fill:none;stroke:#808080" id="kvg:0677f-s3" kvg:type="㇒" d="M28.69,38.53c0,1.34,0.03,2.33-0.55,3.6C22.79,53.74,18,61.5,10.86,70.59"/>
		<path style="fill:none;stroke-width:4;" id="kvg:0677f-s4" kvg:type="㇔/㇏" d="M31.47,45.9c2.37,1.59,7.28,7.76,9.28,10.85"/>
<circle cx="31.47" cy="45.9" r="5" style="fill:red;stroke:red;" />
	</g>
	<g id="kvg:0677f-g2" kvg:element="反" kvg:position="right" kvg:phon="反">
		<g id="kvg:0677f-g3" kvg:element="厂">
		</g>
		<g id="kvg:0677f-g4" kvg:element="又">
		</g>
	</g>
</g>
</g></svg>