<?xml version="1.0" encoding="UTF-8"?>
  <!DOCTYPE svg PUBLIC "-//W3C//DTD SVG 1.0//EN" "http://www.w3.org/TR/2001/REC-SVG-20010904/DTD/svg10.dtd" [
  <!ATTLIST g xmlns:kvg CDATA #FIXED "http://kanjivg.tagaini.net" kvg:element CDATA #IMPLIED kvg:variant CDATA #IMPLIED kvg:partial CDATA #IMPLIED kvg:original CDATA #IMPLIED kvg:part CDATA #IMPLIED kvg:number CDATA #IMPLIED kvg:tradForm CDATA #IMPLIED kvg:radicalForm CDATA #IMPLIED kvg:position CDATA #IMPLIED kvg:radical CDATA #IMPLIED kvg:phon CDATA #IMPLIED >
  <!ATTLIST path xmlns:kvg CDATA #FIXED "http://kanjivg.tagaini.net" kvg:type CDATA #IMPLIED >
  ]>
  <svg xmlns="http://www.w3.org/2000/svg" width="109" height="109" viewBox="0 0 109 109">
<g id="kvg:StrokePaths_0679a" style="fill:none;stroke:#000000;stroke-width:3;stroke-linecap:round;stroke-linejoin:round;">
<g id="kvg:0679a" kvg:element="枚">
	<g id="kvg:0679a-g1" kvg:element="木" kvg:position="left" kvg:radical="general">
		<path style="fill:none;stroke:#808080" id="kvg:0679a-s1" kvg:type="㇐" d="M13.53,39.47c1.85,0.41,4.52,0.44,5.86,0.3c5.27-0.56,15.22-1.85,21.01-2.85c1.25-0.22,2.97-0.41,4.36-0.04"/>
		<path style="fill:none;stroke:#808080" id="kvg:0679a-s2" kvg:type="㇑" d="M30.86,15.25c1.26,1.26,1.79,3,1.79,4.67c0,4.25,0.04,46.57,0.05,69.83c0,2.49,0,4.77,0,6.75"/>
		<path style="fill:none;stroke:#808080" id="kvg:0679a-s3" kvg:type="㇒" d="M31.69,39.28c0,1.97-1.27,5.73-1.98,7.3c-5.04,11.17-8.8,17.05-17.35,28.25"/>
		<path style="fill:none;stroke:#808080" id="kvg:0679a-s4" kvg:type="㇔/㇏" d="M35,49.88c2.72,1.84,7.2,7.81,9.5,11.38"/>
	</g>
	<g id="kvg:0679a-g2" kvg:element="攵" kvg:variant="true" kvg:original="攴" kvg:position="right">
		<g id="kvg:0679a-g3" kvg:position="top">
			<path style="fill:none;stroke:#808080" id="kvg:0679a-s5" kvg:type="㇒" d="M63.74,14.64c0,0.98-0.21,2.55-0.59,3.75c-2.48,7.68-8.06,21.85-16.65,32.48"/>
			<path style="fill:none;stroke-width:4;" id="kvg:0679a-s6" kvg:type="㇐" d="M58.56,38.66c1.38,0.13,3.13-0.11,4.48-0.28c6.84-0.88,13.46-2.51,22.21-4.76c1.69-0.44,3.88-0.63,5.45-0.26"/>
<circle cx="58.56" cy="38.66" r="5" style="fill:red;stroke:red;" />
		</g>
		<g id="kvg:0679a-g4" kvg:element="乂" kvg:position="bottom">
			<g id="kvg:0679a-g5" kvg:element="丿">
			</g>
		</g>
	</g>
</g>
</g></svg>