<?xml version="1.0" encoding="UTF-8"?>
  <!DOCTYPE svg PUBLIC "-//W3C//DTD SVG 1.0//EN" "http://www.w3.org/TR/2001/REC-SVG-20010904/DTD/svg10.dtd" [
  <!ATTLIST g xmlns:kvg CDATA #FIXED "http://kanjivg.tagaini.net" kvg:element CDATA #IMPLIED kvg:variant CDATA #IMPLIED kvg:partial CDATA #IMPLIED kvg:original CDATA #IMPLIED kvg:part CDATA #IMPLIED kvg:number CDATA #IMPLIED kvg:tradForm CDATA #IMPLIED kvg:radicalForm CDATA #IMPLIED kvg:position CDATA #IMPLIED kvg:radical CDATA #IMPLIED kvg:phon CDATA #IMPLIED >
  <!ATTLIST path xmlns:kvg CDATA #FIXED "http://kanjivg.tagaini.net" kvg:type CDATA #IMPLIED >
  ]>
  <svg xmlns="http://www.w3.org/2000/svg" width="109" height="109" viewBox="0 0 109 109">
<g id="kvg:StrokePaths_0679d" style="fill:none;stroke:#000000;stroke-width:3;stroke-linecap:round;stroke-linejoin:round;">
<g id="kvg:0679d" kvg:element="枝">
	<g id="kvg:0679d-g1" kvg:element="木" kvg:position="left" kvg:radical="general">
		<path style="fill:none;stroke:#808080" id="kvg:0679d-s1" kvg:type="㇐" d="M13.28,39.54c2.1,0.46,4.14,0.47,5.61,0.29c4.96-0.58,14.97-2.08,20.74-3.03c1.23-0.2,2.74-0.17,4.13,0.01"/>
		<path style="fill:none;stroke:#808080" id="kvg:0679d-s2" kvg:type="㇑" d="M31.11,17.75c1.13,1.13,2.04,3.12,2.04,4.43c0,0.74,0.05,42.95,0.05,62.32c0,3.53-0.08,5.5-0.08,8.38"/>
		<path style="fill:none;stroke:#808080" id="kvg:0679d-s3" kvg:type="㇒" d="M32.44,39.35c0,1.52-0.49,2.96-0.93,4.01c-5.01,11.77-9.13,19.52-17.15,29.38"/>
		<path style="fill:none;stroke:#808080" id="kvg:0679d-s4" kvg:type="㇔/㇏" d="M35.88,49.62c2.62,1.63,6.92,6.92,9.12,10.08"/>
	</g>
	<g id="kvg:0679d-g2" kvg:element="支" kvg:position="right" kvg:phon="支">
		<g id="kvg:0679d-g3" kvg:element="十" kvg:position="top">
			<path style="fill:none;stroke-width:4;" id="kvg:0679d-s5" kvg:type="㇐" d="M50.38,34.28c2.25,0.6,4.85,0.37,6.86,0.02c9.76-1.68,22.17-3.04,30.26-4.03c1.99-0.24,3.68-0.43,5.62,0.16"/>
<circle cx="50.38" cy="34.28" r="5" style="fill:red;stroke:red;" />
		</g>
		<g id="kvg:0679d-g4" kvg:element="又" kvg:position="bottom">
		</g>
	</g>
</g>
</g></svg>