<?xml version="1.0" encoding="UTF-8"?>
  <!DOCTYPE svg PUBLIC "-//W3C//DTD SVG 1.0//EN" "http://www.w3.org/TR/2001/REC-SVG-20010904/DTD/svg10.dtd" [
  <!ATTLIST g xmlns:kvg CDATA #FIXED "http://kanjivg.tagaini.net" kvg:element CDATA #IMPLIED kvg:variant CDATA #IMPLIED kvg:partial CDATA #IMPLIED kvg:original CDATA #IMPLIED kvg:part CDATA #IMPLIED kvg:number CDATA #IMPLIED kvg:tradForm CDATA #IMPLIED kvg:radicalForm CDATA #IMPLIED kvg:position CDATA #IMPLIED kvg:radical CDATA #IMPLIED kvg:phon CDATA #IMPLIED >
  <!ATTLIST path xmlns:kvg CDATA #FIXED "http://kanjivg.tagaini.net" kvg:type CDATA #IMPLIED >
  ]>
  <svg xmlns="http://www.w3.org/2000/svg" width="109" height="109" viewBox="0 0 109 109">
<g id="kvg:StrokePaths_067f1" style="fill:none;stroke:#000000;stroke-width:3;stroke-linecap:round;stroke-linejoin:round;">
<g id="kvg:067f1" kvg:element="柱">
	<g id="kvg:067f1-g1" kvg:element="木" kvg:position="left" kvg:radical="general">
		<path style="fill:none;stroke:#808080" id="kvg:067f1-s1" kvg:type="㇐" d="M13.65,39.67c1.1,0.33,2.59,0.54,3.58,0.49c5.39-0.29,16.96-1.67,23.82-2.58c0.99-0.13,2.33-0.18,2.96,0"/>
		<path style="fill:none;stroke:#808080" id="kvg:067f1-s2" kvg:type="㇑" d="M30.36,15.25c1.13,1.13,2.04,3,2.04,4.67c0,0.81-0.04,48.97-0.05,68.45c0,3.35,0,5.86,0,7.12"/>
		<path style="fill:none;stroke:#808080" id="kvg:067f1-s3" kvg:type="㇒" d="M31.44,40.28c0,0.97-0.38,3-0.69,3.72c-5.5,12.83-9,18.92-17.89,30.84"/>
		<path style="fill:none;stroke:#808080" id="kvg:067f1-s4" kvg:type="㇔/㇏" d="M35.62,50.25c2.16,1.43,7.55,6.97,9.38,9.75"/>
	</g>
	<g id="kvg:067f1-g2" kvg:element="主" kvg:position="right" kvg:phon="主">
		<g id="kvg:067f1-g3" kvg:element="丶" kvg:position="top">
			<path style="fill:none;stroke:#808080" id="kvg:067f1-s5" kvg:type="㇔" d="M62.62,13.62c4.2,2.11,10.38,8.05,11.43,11.34"/>
		</g>
		<g id="kvg:067f1-g4" kvg:element="王" kvg:original="玉" kvg:partial="true" kvg:position="bottom">
			<path style="fill:none;stroke-width:4;" id="kvg:067f1-s6" kvg:type="㇐" d="M50.25,38.86c1.84,0.27,4.96,0.13,6.14,0.03c10.24-0.89,23.86-3.26,31.19-3.43c1.8-0.04,3.43,0.1,4.92,0.5"/>
<circle cx="50.25" cy="38.86" r="5" style="fill:red;stroke:red;" />
		</g>
	</g>
</g>
</g></svg>