<?xml version="1.0" encoding="UTF-8"?>
  <!DOCTYPE svg PUBLIC "-//W3C//DTD SVG 1.0//EN" "http://www.w3.org/TR/2001/REC-SVG-20010904/DTD/svg10.dtd" [
  <!ATTLIST g xmlns:kvg CDATA #FIXED "http://kanjivg.tagaini.net" kvg:element CDATA #IMPLIED kvg:variant CDATA #IMPLIED kvg:partial CDATA #IMPLIED kvg:original CDATA #IMPLIED kvg:part CDATA #IMPLIED kvg:number CDATA #IMPLIED kvg:tradForm CDATA #IMPLIED kvg:radicalForm CDATA #IMPLIED kvg:position CDATA #IMPLIED kvg:radical CDATA #IMPLIED kvg:phon CDATA #IMPLIED >
  <!ATTLIST path xmlns:kvg CDATA #FIXED "http://kanjivg.tagaini.net" kvg:type CDATA #IMPLIED >
  ]>
  <svg xmlns="http://www.w3.org/2000/svg" width="109" height="109" viewBox="0 0 109 109">
<g id="kvg:StrokePaths_0682a" style="fill:none;stroke:#000000;stroke-width:3;stroke-linecap:round;stroke-linejoin:round;">
<g id="kvg:0682a" kvg:element="株">
	<g id="kvg:0682a-g1" kvg:element="木" kvg:position="left" kvg:radical="general">
		<path style="fill:none;stroke:#808080" id="kvg:0682a-s1" kvg:type="㇐" d="M8.9,39.97c1.97,0.78,5.08,0.38,6.6,0.15c5.58-0.88,15.09-3.01,20.61-4c0.98-0.17,2.54-0.24,3.16,0"/>
		<path style="fill:none;stroke:#808080" id="kvg:0682a-s2" kvg:type="㇑" d="M24.61,15.5c1.38,1.38,1.79,3.62,1.79,4.92c0,2.56,0.03,43.72,0.04,65.7c0,3.06,0,5.74,0,7.88"/>
		<path style="fill:none;stroke:#808080" id="kvg:0682a-s3" kvg:type="㇒" d="M25.69,40.28c0,1.59-0.76,5.95-1.24,7.29c-4.24,11.91-7.58,18.05-14.34,27.77"/>
		<path style="fill:none;stroke:#808080" id="kvg:0682a-s4" kvg:type="㇔/㇏" d="M28.88,47.5c2.62,1.42,6.92,6.01,9.12,8.75"/>
	</g>
	<g id="kvg:0682a-g2" kvg:element="朱" kvg:position="right" kvg:phon="朱">
		<path style="fill:none;stroke-width:4;" id="kvg:0682a-s5" kvg:type="㇒" d="M52.74,22.61c0.03,0.52,0.12,1.5-0.06,2.09c-2.2,7.35-4.68,13.55-10.21,20.54"/>
<circle cx="52.74" cy="22.61" r="5" style="fill:red;stroke:red;" />
		<g id="kvg:0682a-g3" kvg:element="未">
			<g id="kvg:0682a-g4" kvg:element="木">
			</g>
		</g>
	</g>
</g>
</g></svg>