<?xml version="1.0" encoding="UTF-8"?>
  <!DOCTYPE svg PUBLIC "-//W3C//DTD SVG 1.0//EN" "http://www.w3.org/TR/2001/REC-SVG-20010904/DTD/svg10.dtd" [
  <!ATTLIST g xmlns:kvg CDATA #FIXED "http://kanjivg.tagaini.net" kvg:element CDATA #IMPLIED kvg:variant CDATA #IMPLIED kvg:partial CDATA #IMPLIED kvg:original CDATA #IMPLIED kvg:part CDATA #IMPLIED kvg:number CDATA #IMPLIED kvg:tradForm CDATA #IMPLIED kvg:radicalForm CDATA #IMPLIED kvg:position CDATA #IMPLIED kvg:radical CDATA #IMPLIED kvg:phon CDATA #IMPLIED >
  <!ATTLIST path xmlns:kvg CDATA #FIXED "http://kanjivg.tagaini.net" kvg:type CDATA #IMPLIED >
  ]>
  <svg xmlns="http://www.w3.org/2000/svg" width="109" height="109" viewBox="0 0 109 109">
<g id="kvg:StrokePaths_06839" style="fill:none;stroke:#000000;stroke-width:3;stroke-linecap:round;stroke-linejoin:round;">
<g id="kvg:06839" kvg:element="根">
	<g id="kvg:06839-g1" kvg:element="木" kvg:position="left" kvg:radical="general">
		<path style="fill:none;stroke:#808080" id="kvg:06839-s1" kvg:type="㇐" d="M9.03,39.47c1.85,0.41,4.61,0.36,6.11,0.21c6.74-0.67,17.99-2.92,24.9-4.64c1.43-0.36,3.47-0.66,4.98-0.42"/>
		<path style="fill:none;stroke:#808080" id="kvg:06839-s2" kvg:type="㇑" d="M29.53,16.25c1.17,1.17,1.97,2.75,1.97,4.67c0,0.8,0,50.01,0,68.83c0,3.39,0,5.8,0,6.75"/>
		<path style="fill:none;stroke:#808080" id="kvg:06839-s3" kvg:type="㇒" d="M30.25,38.5c0,1.38-0.21,2.08-0.45,2.89C26.82,51.44,22.74,62.27,11.75,75"/>
		<path style="fill:none;stroke-width:4;" id="kvg:06839-s4" kvg:type="㇔" d="M34.75,44.38c2.79,1.89,8.89,8.57,10.5,12.62"/>
<circle cx="34.75" cy="44.38" r="5" style="fill:red;stroke:red;" />
	</g>
	<g id="kvg:06839-g2" kvg:element="艮" kvg:position="right" kvg:phon="艮">
	</g>
</g>
</g></svg>