<?xml version="1.0" encoding="UTF-8"?>
  <!DOCTYPE svg PUBLIC "-//W3C//DTD SVG 1.0//EN" "http://www.w3.org/TR/2001/REC-SVG-20010904/DTD/svg10.dtd" [
  <!ATTLIST g xmlns:kvg CDATA #FIXED "http://kanjivg.tagaini.net" kvg:element CDATA #IMPLIED kvg:variant CDATA #IMPLIED kvg:partial CDATA #IMPLIED kvg:original CDATA #IMPLIED kvg:part CDATA #IMPLIED kvg:number CDATA #IMPLIED kvg:tradForm CDATA #IMPLIED kvg:radicalForm CDATA #IMPLIED kvg:position CDATA #IMPLIED kvg:radical CDATA #IMPLIED kvg:phon CDATA #IMPLIED >
  <!ATTLIST path xmlns:kvg CDATA #FIXED "http://kanjivg.tagaini.net" kvg:type CDATA #IMPLIED >
  ]>
  <svg xmlns="http://www.w3.org/2000/svg" width="109" height="109" viewBox="0 0 109 109">
<g id="kvg:StrokePaths_06848" style="fill:none;stroke:#000000;stroke-width:3;stroke-linecap:round;stroke-linejoin:round;">
<g id="kvg:06848" kvg:element="案">
	<g id="kvg:06848-g1" kvg:element="安" kvg:position="top" kvg:phon="安">
		<g id="kvg:06848-g2" kvg:element="宀" kvg:position="top" kvg:radical="nelson">
			<path style="fill:none;stroke:#808080" id="kvg:06848-s1" kvg:type="㇑a" d="M54.53,9.95c1.07,1.07,1.61,2.17,1.61,3.36c0,2.44-0.07,3.58-0.07,5.79"/>
			<g id="kvg:06848-g3" kvg:element="冖">
				<path style="fill:none;stroke:#808080" id="kvg:06848-s2" kvg:type="㇔" d="M25.38,21.75c0,3.05-2.26,11.63-3.29,13.75"/>
				<path style="fill:none;stroke:#808080" id="kvg:06848-s3" kvg:type="㇖b" d="M26.47,23.54c13.97-1.85,50.2-5.16,56.57-5.46c9.53-0.44,3.21,4.66-1.51,7.48"/>
			</g>
		</g>
		<g id="kvg:06848-g4" kvg:element="女" kvg:position="bottom">
			<path style="fill:none;stroke:#808080" id="kvg:06848-s4" kvg:type="㇛" d="M50.4,27.69c0.35,0.68,0.28,1.97-0.24,2.98c-2.04,3.95-5.04,9.57-11.61,16.36c-1.36,1.4-0.74,2.41,0.26,2.35c8.41-0.53,21.28,1.68,31.22,5.29c4.32,1.57,8.09,3.4,10.7,5.39"/>
			<path style="fill:none;stroke-width:4;" id="kvg:06848-s5" kvg:type="㇒" d="M68.25,31.88c0.21,0.94,0.2,2.35-0.23,3.36c-3.52,8.18-13.38,21.51-38.94,26.96"/>
<circle cx="68.25" cy="31.88" r="5" style="fill:red;stroke:red;" />
		</g>
	</g>
	<g id="kvg:06848-g5" kvg:element="木" kvg:position="bottom" kvg:radical="tradit">
	</g>
</g>
</g></svg>