<?xml version="1.0" encoding="UTF-8"?>
  <!DOCTYPE svg PUBLIC "-//W3C//DTD SVG 1.0//EN" "http://www.w3.org/TR/2001/REC-SVG-20010904/DTD/svg10.dtd" [
  <!ATTLIST g xmlns:kvg CDATA #FIXED "http://kanjivg.tagaini.net" kvg:element CDATA #IMPLIED kvg:variant CDATA #IMPLIED kvg:partial CDATA #IMPLIED kvg:original CDATA #IMPLIED kvg:part CDATA #IMPLIED kvg:number CDATA #IMPLIED kvg:tradForm CDATA #IMPLIED kvg:radicalForm CDATA #IMPLIED kvg:position CDATA #IMPLIED kvg:radical CDATA #IMPLIED kvg:phon CDATA #IMPLIED >
  <!ATTLIST path xmlns:kvg CDATA #FIXED "http://kanjivg.tagaini.net" kvg:type CDATA #IMPLIED >
  ]>
  <svg xmlns="http://www.w3.org/2000/svg" width="109" height="109" viewBox="0 0 109 109">
<g id="kvg:StrokePaths_068a8" style="fill:none;stroke:#000000;stroke-width:3;stroke-linecap:round;stroke-linejoin:round;">
<g id="kvg:068a8" kvg:element="梨">
	<g id="kvg:068a8-g1" kvg:element="利" kvg:position="top">
		<g id="kvg:068a8-g2" kvg:element="禾" kvg:position="left">
			<g id="kvg:068a8-g3" kvg:element="丿" kvg:position="top">
				<path style="fill:none;stroke:#808080" id="kvg:068a8-s1" kvg:type="㇒" d="M44.1,10.36c-0.22,0.89-0.61,1.46-1.65,2.35c-2.78,2.37-8.97,5.61-18.3,8.04"/>
			</g>
			<g id="kvg:068a8-g4" kvg:element="木" kvg:position="bottom">
				<path style="fill:none;stroke:#808080" id="kvg:068a8-s2" kvg:type="㇐" d="M17.37,29.87c1.61,0.61,3.84,0.61,5.54,0.42c5.98-0.67,18.62-2.53,25.37-3.38c1.38-0.17,3.06-0.36,4.44-0.05"/>
				<path style="fill:none;stroke:#808080" id="kvg:068a8-s3" kvg:type="㇑" d="M38.66,18.85c0.87,0.87,1.09,1.9,1.09,3.41c0,2.48,0.06,18.29,0.09,27.86c0.01,3.05,0.02,5.47,0.02,6.62"/>
				<path style="fill:none;stroke:#808080" id="kvg:068a8-s4" kvg:type="㇒" d="M38.29,29.43c0,1.19-0.84,2.25-1.6,3.55c-4.3,7.31-10.6,15.42-18.72,21.08"/>
				<path style="fill:none;stroke-width:4;" id="kvg:068a8-s5" kvg:type="㇏" d="M43.62,36.12c3.94,1.8,7.28,5.4,9.41,7.71"/>
<circle cx="43.62" cy="36.12" r="5" style="fill:red;stroke:red;" />
			</g>
		</g>
		<g id="kvg:068a8-g5" kvg:element="刂" kvg:variant="true" kvg:original="刀" kvg:position="right">
		</g>
	</g>
	<g id="kvg:068a8-g6" kvg:element="木" kvg:position="bottom" kvg:radical="general">
	</g>
</g>
</g></svg>