<?xml version="1.0" encoding="UTF-8"?>
  <!DOCTYPE svg PUBLIC "-//W3C//DTD SVG 1.0//EN" "http://www.w3.org/TR/2001/REC-SVG-20010904/DTD/svg10.dtd" [
  <!ATTLIST g xmlns:kvg CDATA #FIXED "http://kanjivg.tagaini.net" kvg:element CDATA #IMPLIED kvg:variant CDATA #IMPLIED kvg:partial CDATA #IMPLIED kvg:original CDATA #IMPLIED kvg:part CDATA #IMPLIED kvg:number CDATA #IMPLIED kvg:tradForm CDATA #IMPLIED kvg:radicalForm CDATA #IMPLIED kvg:position CDATA #IMPLIED kvg:radical CDATA #IMPLIED kvg:phon CDATA #IMPLIED >
  <!ATTLIST path xmlns:kvg CDATA #FIXED "http://kanjivg.tagaini.net" kvg:type CDATA #IMPLIED >
  ]>
  <svg xmlns="http://www.w3.org/2000/svg" width="109" height="109" viewBox="0 0 109 109">
<g id="kvg:StrokePaths_068b0" style="fill:none;stroke:#000000;stroke-width:3;stroke-linecap:round;stroke-linejoin:round;">
<g id="kvg:068b0" kvg:element="械">
	<g id="kvg:068b0-g1" kvg:element="木" kvg:position="left" kvg:radical="general">
		<path style="fill:none;stroke:#808080" id="kvg:068b0-s1" kvg:type="㇐" d="M14.03,39.98c1.6,0.39,4.14,0.27,5.37,0.12c5.38-0.65,13.5-2.94,19.24-4.07c1.49-0.29,3.12-0.66,4.38-0.55"/>
		<path style="fill:none;stroke:#808080" id="kvg:068b0-s2" kvg:type="㇑" d="M27.84,17.5c1.2,1.2,1.59,2.88,1.59,4.72c0,0.78,0.14,47.82,0.18,65.78c0.01,3.03,0.01,5.24,0.01,6.25"/>
		<path style="fill:none;stroke:#808080" id="kvg:068b0-s3" kvg:type="㇒" d="M28.71,40.59c0,1.16-0.28,3.04-0.57,3.92c-3.74,11.6-9.38,21.35-15.77,29.29"/>
		<path style="fill:none;stroke-width:4;" id="kvg:068b0-s4" kvg:type="㇔/㇏" d="M31.75,48.12c2.13,1.29,7.4,5.47,9.2,7.97"/>
<circle cx="31.75" cy="48.12" r="5" style="fill:red;stroke:red;" />
	</g>
	<g id="kvg:068b0-g2" kvg:element="戒" kvg:position="right" kvg:phon="戒">
		<g id="kvg:068b0-g3" kvg:element="戈" kvg:part="1">
			<g id="kvg:068b0-g4" kvg:element="弋" kvg:part="1">
			</g>
		</g>
		<g id="kvg:068b0-g5" kvg:element="廾">
			<g id="kvg:068b0-g6" kvg:element="十" kvg:part="1">
			</g>
			<g id="kvg:068b0-g7" kvg:element="丿">
			</g>
			<g id="kvg:068b0-g8" kvg:element="十" kvg:part="2">
			</g>
		</g>
		<g id="kvg:068b0-g9" kvg:element="戈" kvg:part="2">
			<g id="kvg:068b0-g10" kvg:element="丿">
			</g>
			<g id="kvg:068b0-g11" kvg:element="弋" kvg:part="2">
				<g id="kvg:068b0-g12" kvg:element="丶">
				</g>
			</g>
		</g>
	</g>
</g>
</g></svg>