<?xml version="1.0" encoding="UTF-8"?>
  <!DOCTYPE svg PUBLIC "-//W3C//DTD SVG 1.0//EN" "http://www.w3.org/TR/2001/REC-SVG-20010904/DTD/svg10.dtd" [
  <!ATTLIST g xmlns:kvg CDATA #FIXED "http://kanjivg.tagaini.net" kvg:element CDATA #IMPLIED kvg:variant CDATA #IMPLIED kvg:partial CDATA #IMPLIED kvg:original CDATA #IMPLIED kvg:part CDATA #IMPLIED kvg:number CDATA #IMPLIED kvg:tradForm CDATA #IMPLIED kvg:radicalForm CDATA #IMPLIED kvg:position CDATA #IMPLIED kvg:radical CDATA #IMPLIED kvg:phon CDATA #IMPLIED >
  <!ATTLIST path xmlns:kvg CDATA #FIXED "http://kanjivg.tagaini.net" kvg:type CDATA #IMPLIED >
  ]>
  <svg xmlns="http://www.w3.org/2000/svg" width="109" height="109" viewBox="0 0 109 109">
<g id="kvg:StrokePaths_068ee" style="fill:none;stroke:#000000;stroke-width:3;stroke-linecap:round;stroke-linejoin:round;">
<g id="kvg:068ee" kvg:element="森">
	<g id="kvg:068ee-g1" kvg:element="木" kvg:position="top" kvg:radical="general">
		<path style="fill:none;stroke:#808080" id="kvg:068ee-s1" kvg:type="㇐" d="M30.12,23.67c0.87,0.24,4.4,0.62,6.7,0.33c11.37-1.4,20.02-2,36.05-3.21c2.32-0.18,2.92-0.24,4.37,0"/>
		<path style="fill:none;stroke:#808080" id="kvg:068ee-s2" kvg:type="㇑" d="M52.75,10C53.5,10.75,54,11.75,54,13.16c0,4.34,0.06,22-0.15,31.6c-0.03,1.48-0.07,2.69-0.1,3.5"/>
		<path style="fill:none;stroke:#808080" id="kvg:068ee-s3" kvg:type="㇒" d="M51.5,22.9c0,1.1-0.27,1.78-0.81,2.41C43,34.25,31.34,41.69,20.5,45.5"/>
		<path style="fill:none;stroke-width:4;" id="kvg:068ee-s4" kvg:type="㇏" d="M56,24.4c5.25,4.35,22.25,15.35,29.03,17.6c1.77,0.59,3.07,1.25,4.72,1.5"/>
<circle cx="56" cy="24.4" r="5" style="fill:red;stroke:red;" />
	</g>
	<g id="kvg:068ee-g2" kvg:element="林" kvg:position="bottom">
		<g id="kvg:068ee-g3" kvg:element="木">
		</g>
		<g id="kvg:068ee-g4" kvg:element="木">
		</g>
	</g>
</g>
</g></svg>