<?xml version="1.0" encoding="UTF-8"?>
  <!DOCTYPE svg PUBLIC "-//W3C//DTD SVG 1.0//EN" "http://www.w3.org/TR/2001/REC-SVG-20010904/DTD/svg10.dtd" [
  <!ATTLIST g xmlns:kvg CDATA #FIXED "http://kanjivg.tagaini.net" kvg:element CDATA #IMPLIED kvg:variant CDATA #IMPLIED kvg:partial CDATA #IMPLIED kvg:original CDATA #IMPLIED kvg:part CDATA #IMPLIED kvg:number CDATA #IMPLIED kvg:tradForm CDATA #IMPLIED kvg:radicalForm CDATA #IMPLIED kvg:position CDATA #IMPLIED kvg:radical CDATA #IMPLIED kvg:phon CDATA #IMPLIED >
  <!ATTLIST path xmlns:kvg CDATA #FIXED "http://kanjivg.tagaini.net" kvg:type CDATA #IMPLIED >
  ]>
  <svg xmlns="http://www.w3.org/2000/svg" width="109" height="109" viewBox="0 0 109 109">
<g id="kvg:StrokePaths_06975" style="fill:none;stroke:#000000;stroke-width:3;stroke-linecap:round;stroke-linejoin:round;">
<g id="kvg:06975" kvg:element="極">
	<g id="kvg:06975-g1" kvg:element="木" kvg:position="left" kvg:radical="general">
		<path style="fill:none;stroke:#808080" id="kvg:06975-s1" kvg:type="㇐" d="M9.78,38.22c1.35,0.16,3.24,0.27,4.47,0.15c4.53-0.44,14.17-1.49,20.16-2.43c1.29-0.2,3.22-0.44,4.86-0.07"/>
		<path style="fill:none;stroke:#808080" id="kvg:06975-s2" kvg:type="㇑" d="M25.86,13c1.01,1.01,1.54,2.38,1.54,3.92c0,0.81,0.14,52.7,0.19,72.58c0.01,3.42,0.01,5.9,0.01,7"/>
		<path style="fill:none;stroke:#808080" id="kvg:06975-s3" kvg:type="㇒" d="M26.69,38.03c0,1.66-0.05,3.42-0.61,4.99c-4.6,13.22-8.03,19.91-15.47,32.31"/>
		<path style="fill:none;stroke:#808080" id="kvg:06975-s4" kvg:type="㇔/㇏" d="M30.25,47.75c2.5,2.25,6.38,7.12,7.75,10"/>
	</g>
	<g id="kvg:06975-g2" kvg:element="亟" kvg:variant="true" kvg:position="right" kvg:phon="亟">
		<g id="kvg:06975-g3" kvg:element="二" kvg:part="1" kvg:position="top">
			<path style="fill:none;stroke:#808080" id="kvg:06975-s5" kvg:type="㇐" d="M43.53,22.2c2.49,0.43,4.76,0.19,7-0.09c10.14-1.27,23.34-2.86,33.25-3.76c2.18-0.2,4.43-0.23,6.58,0.26"/>
		</g>
		<path style="fill:none;stroke:#808080" id="kvg:06975-s6" kvg:type="㇉" d="M61.87,23.26c0.63,0.99,0.44,2.91,0.02,3.86c-0.41,0.96-2.67,7.34-3.23,8.33c-1.64,2.88-1.18,4.6,1.48,3.65c1.14-0.41,3.6-1.2,6.06-2.16c2.46-0.96,3.82,0.24,3.89,2.64c0.28,9.04,0.03,24.42-2.5,34.86c-0.95,3.91-2.1,9.1-7.84,4.79"/>
		<g id="kvg:06975-g4" kvg:element="口">
			<path style="fill:none;stroke-width:4;" id="kvg:06975-s7" kvg:type="㇑" d="M41.94,50.42c0.71,0.75,1.35,1.64,1.42,2.67c0.82,3.62,1.7,9.96,2.36,15.28c0.14,1.15,0.27,2.25,0.39,3.26"/>
<circle cx="41.94" cy="50.42" r="5" style="fill:red;stroke:red;" />
		</g>
		<g id="kvg:06975-g5" kvg:element="又">
		</g>
		<g id="kvg:06975-g6" kvg:element="二" kvg:part="2" kvg:position="bottom">
			<g id="kvg:06975-g7" kvg:element="一">
			</g>
		</g>
	</g>
</g>
</g></svg>