<?xml version="1.0" encoding="UTF-8"?>
  <!DOCTYPE svg PUBLIC "-//W3C//DTD SVG 1.0//EN" "http://www.w3.org/TR/2001/REC-SVG-20010904/DTD/svg10.dtd" [
  <!ATTLIST g xmlns:kvg CDATA #FIXED "http://kanjivg.tagaini.net" kvg:element CDATA #IMPLIED kvg:variant CDATA #IMPLIED kvg:partial CDATA #IMPLIED kvg:original CDATA #IMPLIED kvg:part CDATA #IMPLIED kvg:number CDATA #IMPLIED kvg:tradForm CDATA #IMPLIED kvg:radicalForm CDATA #IMPLIED kvg:position CDATA #IMPLIED kvg:radical CDATA #IMPLIED kvg:phon CDATA #IMPLIED >
  <!ATTLIST path xmlns:kvg CDATA #FIXED "http://kanjivg.tagaini.net" kvg:type CDATA #IMPLIED >
  ]>
  <svg xmlns="http://www.w3.org/2000/svg" width="109" height="109" viewBox="0 0 109 109">
<g id="kvg:StrokePaths_0697d" style="fill:none;stroke:#000000;stroke-width:3;stroke-linecap:round;stroke-linejoin:round;">
<g id="kvg:0697d" kvg:element="楽">
	<g id="kvg:0697d-g1" kvg:position="top">
		<g id="kvg:0697d-g2" kvg:element="白">
			<g id="kvg:0697d-g3" kvg:position="top">
				<path style="fill:none;stroke:#808080" id="kvg:0697d-s1" kvg:type="㇔" d="M52.99,11c0.01,1-0.13,1.85-0.49,2.5c-0.96,2.28-4.06,5.8-6.91,8.18"/>
			</g>
			<g id="kvg:0697d-g4" kvg:element="日" kvg:position="bottom">
				<path style="fill:none;stroke:#808080" id="kvg:0697d-s2" kvg:type="㇑" d="M40.25,22.82c1.02,1.2,1.52,2.13,1.59,3.43c0.18,3.66,0.58,14.52,0.93,21.23c0.1,1.93,0.18,3.01,0.21,3.94"/>
				<path style="fill:none;stroke-width:4;" id="kvg:0697d-s3" kvg:type="㇕a" d="M42.02,23.77c0.46-0.02,19.25-2.12,20.85-2.23c1.68-0.12,2.64,1.22,2.64,2.27c0,1.24-0.89,14.65-1.22,23.45c-0.06,1.57-0.1,2.48-0.14,3.64"/>
<circle cx="42.02" cy="23.77" r="5" style="fill:red;stroke:red;" />
			</g>
		</g>
		<g id="kvg:0697d-g5" kvg:element="冫">
		</g>
	</g>
	<g id="kvg:0697d-g6" kvg:element="木" kvg:position="bottom" kvg:radical="general">
	</g>
</g>
</g></svg>