<?xml version="1.0" encoding="UTF-8"?>
  <!DOCTYPE svg PUBLIC "-//W3C//DTD SVG 1.0//EN" "http://www.w3.org/TR/2001/REC-SVG-20010904/DTD/svg10.dtd" [
  <!ATTLIST g xmlns:kvg CDATA #FIXED "http://kanjivg.tagaini.net" kvg:element CDATA #IMPLIED kvg:variant CDATA #IMPLIED kvg:partial CDATA #IMPLIED kvg:original CDATA #IMPLIED kvg:part CDATA #IMPLIED kvg:number CDATA #IMPLIED kvg:tradForm CDATA #IMPLIED kvg:radicalForm CDATA #IMPLIED kvg:position CDATA #IMPLIED kvg:radical CDATA #IMPLIED kvg:phon CDATA #IMPLIED >
  <!ATTLIST path xmlns:kvg CDATA #FIXED "http://kanjivg.tagaini.net" kvg:type CDATA #IMPLIED >
  ]>
  <svg xmlns="http://www.w3.org/2000/svg" width="109" height="109" viewBox="0 0 109 109">
<g id="kvg:StrokePaths_069cb" style="fill:none;stroke:#000000;stroke-width:3;stroke-linecap:round;stroke-linejoin:round;">
<g id="kvg:069cb" kvg:element="構">
	<g id="kvg:069cb-g1" kvg:element="木" kvg:position="left" kvg:radical="general">
		<path style="fill:none;stroke:#808080" id="kvg:069cb-s1" kvg:type="㇐" d="M10.78,36.97c1.72,0.53,4.09,0.28,5.6,0.06c4.93-0.7,13.77-2.43,19.75-3.5c1.19-0.21,2.75-0.41,4.13-0.17"/>
		<path style="fill:none;stroke:#808080" id="kvg:069cb-s2" kvg:type="㇑" d="M28.61,15.75c1.26,1.26,1.79,3,1.79,5.17c0,6.7-0.04,48.26-0.05,65.95c0,3.64,0,6.27,0,7.38"/>
		<path style="fill:none;stroke:#808080" id="kvg:069cb-s3" kvg:type="㇒" d="M29.25,36.88c0,1-0.55,3.29-0.82,4.02c-4.88,13.33-8.85,19.89-16.57,31.94"/>
		<path style="fill:none;stroke-width:4;" id="kvg:069cb-s4" kvg:type="㇔/㇏" d="M32.88,45.75c2.62,2.38,5.75,8,7.38,11.75"/>
<circle cx="32.88" cy="45.75" r="5" style="fill:red;stroke:red;" />
	</g>
	<g id="kvg:069cb-g2" kvg:element="冓" kvg:position="right" kvg:phon="冓">
		<g id="kvg:069cb-g3" kvg:element="三" kvg:part="1" kvg:position="top">
			<g id="kvg:069cb-g4" kvg:element="一">
			</g>
			<g id="kvg:069cb-g5" kvg:element="三" kvg:part="2">
				<g id="kvg:069cb-g6" kvg:element="一">
				</g>
				<g id="kvg:069cb-g7" kvg:element="再" kvg:part="1">
					<g id="kvg:069cb-g8" kvg:element="一">
					</g>
				</g>
			</g>
		</g>
		<g id="kvg:069cb-g9" kvg:element="再" kvg:part="2" kvg:position="bottom">
			<g id="kvg:069cb-g10" kvg:element="冉">
				<g id="kvg:069cb-g11" kvg:element="冂">
				</g>
				<g id="kvg:069cb-g12" kvg:element="土" kvg:variant="true">
				</g>
			</g>
		</g>
	</g>
</g>
</g></svg>