<?xml version="1.0" encoding="UTF-8"?>
  <!DOCTYPE svg PUBLIC "-//W3C//DTD SVG 1.0//EN" "http://www.w3.org/TR/2001/REC-SVG-20010904/DTD/svg10.dtd" [
  <!ATTLIST g xmlns:kvg CDATA #FIXED "http://kanjivg.tagaini.net" kvg:element CDATA #IMPLIED kvg:variant CDATA #IMPLIED kvg:partial CDATA #IMPLIED kvg:original CDATA #IMPLIED kvg:part CDATA #IMPLIED kvg:number CDATA #IMPLIED kvg:tradForm CDATA #IMPLIED kvg:radicalForm CDATA #IMPLIED kvg:position CDATA #IMPLIED kvg:radical CDATA #IMPLIED kvg:phon CDATA #IMPLIED >
  <!ATTLIST path xmlns:kvg CDATA #FIXED "http://kanjivg.tagaini.net" kvg:type CDATA #IMPLIED >
  ]>
  <svg xmlns="http://www.w3.org/2000/svg" width="109" height="109" viewBox="0 0 109 109">
<g id="kvg:StrokePaths_069d8" style="fill:none;stroke:#000000;stroke-width:3;stroke-linecap:round;stroke-linejoin:round;">
<g id="kvg:069d8" kvg:element="様">
	<g id="kvg:069d8-g1" kvg:element="木" kvg:position="left" kvg:radical="general">
		<path style="fill:none;stroke:#808080" id="kvg:069d8-s1" kvg:type="㇐" d="M9.28,39.91c1.6,0.34,3.76,0.26,5.11,0.19c6.22-0.32,16.3-1.63,24.4-3.29c1.26-0.26,2.84-0.43,4.22-0.22"/>
		<path style="fill:none;stroke:#808080" id="kvg:069d8-s2" kvg:type="㇑" d="M28.11,15.75c1.38,1.38,2.04,3.38,2.04,5.17c0,0.81-0.04,52.36-0.05,71.7c0,3.25,0,5.58,0,6.62"/>
		<path style="fill:none;stroke:#808080" id="kvg:069d8-s3" kvg:type="㇒" d="M29.19,39.53c0,1.09-0.16,2.19-0.37,2.9c-3.88,12.96-9.13,23.42-17.19,34.32"/>
		<path style="fill:none;stroke:#808080" id="kvg:069d8-s4" kvg:type="㇔/㇏" d="M33.22,48.9c2.37,1.59,6.28,5.76,8.28,8.85"/>
	</g>
	<g id="kvg:069d8-g2" kvg:position="right">
		<g id="kvg:069d8-g3" kvg:element="羊" kvg:phon="羊">
			<g id="kvg:069d8-g4" kvg:element="䒑">
				<path style="fill:none;stroke:#808080" id="kvg:069d8-s5" kvg:type="㇔" d="M54.52,13.83c3.1,1.66,8.02,6.81,8.79,9.38"/>
				<path style="fill:none;stroke:#808080" id="kvg:069d8-s6" kvg:type="㇒" d="M83.52,11.39c0.04,0.37,0.07,0.96-0.07,1.49c-0.7,2.6-3.57,7.24-8.57,12.12"/>
				<path style="fill:none;stroke-width:4;" id="kvg:069d8-s7" kvg:type="㇐" d="M49.5,30.14c2.38,0.49,4.8,0.25,7,0.01c6.9-0.76,19.36-2.1,26.49-2.72c2.37-0.21,5.38-0.17,7.5,0.09"/>
<circle cx="49.5" cy="30.14" r="5" style="fill:red;stroke:red;" />
			</g>
		</g>
		<g id="kvg:069d8-g5" kvg:element="氺" kvg:variant="true" kvg:original="水" kvg:partial="true">
		</g>
	</g>
</g>
</g></svg>