<?xml version="1.0" encoding="UTF-8"?>
  <!DOCTYPE svg PUBLIC "-//W3C//DTD SVG 1.0//EN" "http://www.w3.org/TR/2001/REC-SVG-20010904/DTD/svg10.dtd" [
  <!ATTLIST g xmlns:kvg CDATA #FIXED "http://kanjivg.tagaini.net" kvg:element CDATA #IMPLIED kvg:variant CDATA #IMPLIED kvg:partial CDATA #IMPLIED kvg:original CDATA #IMPLIED kvg:part CDATA #IMPLIED kvg:number CDATA #IMPLIED kvg:tradForm CDATA #IMPLIED kvg:radicalForm CDATA #IMPLIED kvg:position CDATA #IMPLIED kvg:radical CDATA #IMPLIED kvg:phon CDATA #IMPLIED >
  <!ATTLIST path xmlns:kvg CDATA #FIXED "http://kanjivg.tagaini.net" kvg:type CDATA #IMPLIED >
  ]>
  <svg xmlns="http://www.w3.org/2000/svg" width="109" height="109" viewBox="0 0 109 109">
<g id="kvg:StrokePaths_06a19" style="fill:none;stroke:#000000;stroke-width:3;stroke-linecap:round;stroke-linejoin:round;">
<g id="kvg:06a19" kvg:element="標">
	<g id="kvg:06a19-g1" kvg:element="木" kvg:position="left" kvg:radical="general">
		<path style="fill:none;stroke:#808080" id="kvg:06a19-s1" kvg:type="㇐" d="M12.28,36.97c2.1,0.53,4.24,0.33,5.5,0.23c5.78-0.44,14.74-2.75,20.99-3.83c1.01-0.17,2.37-0.24,3,0"/>
		<path style="fill:none;stroke:#808080" id="kvg:06a19-s2" kvg:type="㇑" d="M28.86,15.5c1.07,1.07,1.79,3,1.79,4.92c0,2.51-0.04,43.57-0.05,62.95c0,4.38,0,7.65,0,9.12"/>
		<path style="fill:none;stroke:#808080" id="kvg:06a19-s3" kvg:type="㇒" d="M29.94,36.53c0,1.34-0.32,3.19-0.73,4.25c-5.53,14.4-10.59,24.31-17.46,33.97"/>
		<path style="fill:none;stroke-width:4;" id="kvg:06a19-s4" kvg:type="㇔/㇏" d="M33.25,44.62c2.37,1.64,6.26,6.95,8.25,10.12"/>
<circle cx="33.25" cy="44.62" r="5" style="fill:red;stroke:red;" />
	</g>
	<g id="kvg:06a19-g2" kvg:element="票" kvg:position="right" kvg:phon="票">
		<g id="kvg:06a19-g3" kvg:element="覀" kvg:original="襾" kvg:position="top">
		</g>
		<g id="kvg:06a19-g4" kvg:element="示" kvg:position="bottom">
			<g id="kvg:06a19-g5" kvg:position="top">
			</g>
			<g id="kvg:06a19-g6" kvg:position="bottom">
			</g>
		</g>
	</g>
</g>
</g></svg>