<?xml version="1.0" encoding="UTF-8"?>
  <!DOCTYPE svg PUBLIC "-//W3C//DTD SVG 1.0//EN" "http://www.w3.org/TR/2001/REC-SVG-20010904/DTD/svg10.dtd" [
  <!ATTLIST g xmlns:kvg CDATA #FIXED "http://kanjivg.tagaini.net" kvg:element CDATA #IMPLIED kvg:variant CDATA #IMPLIED kvg:partial CDATA #IMPLIED kvg:original CDATA #IMPLIED kvg:part CDATA #IMPLIED kvg:number CDATA #IMPLIED kvg:tradForm CDATA #IMPLIED kvg:radicalForm CDATA #IMPLIED kvg:position CDATA #IMPLIED kvg:radical CDATA #IMPLIED kvg:phon CDATA #IMPLIED >
  <!ATTLIST path xmlns:kvg CDATA #FIXED "http://kanjivg.tagaini.net" kvg:type CDATA #IMPLIED >
  ]>
  <svg xmlns="http://www.w3.org/2000/svg" width="109" height="109" viewBox="0 0 109 109">
<g id="kvg:StrokePaths_06a2a" style="fill:none;stroke:#000000;stroke-width:3;stroke-linecap:round;stroke-linejoin:round;">
<g id="kvg:06a2a" kvg:element="横">
	<g id="kvg:06a2a-g1" kvg:element="木" kvg:position="left" kvg:radical="general">
		<path style="fill:none;stroke:#808080" id="kvg:06a2a-s1" kvg:type="㇐" d="M12.78,39.22c2.1,0.81,4.32,0.67,5.85,0.51c5.28-0.53,12.24-1.16,20.34-2.41c1.94-0.3,3.41-0.61,4.8-0.31"/>
		<path style="fill:none;stroke:#808080" id="kvg:06a2a-s2" kvg:type="㇑" d="M29.86,14c1.51,1,2.54,3.25,2.54,5.92c0,0.82-0.09,53.48-0.23,71.45c-0.02,2.84-0.05,4.83-0.07,5.62"/>
		<path style="fill:none;stroke:#808080" id="kvg:06a2a-s3" kvg:type="㇒" d="M31.44,40.28c0,1.22-0.55,3.41-0.82,4.09c-5.17,13.13-7.93,18.31-16.26,30.47"/>
		<path style="fill:none;stroke:#808080" id="kvg:06a2a-s4" kvg:type="㇔" d="M35,50.12c2.51,1.56,6.63,6.61,8.75,9.62"/>
	</g>
	<g id="kvg:06a2a-g2" kvg:element="黄" kvg:position="right" kvg:phon="黄">
		<g id="kvg:06a2a-g3" kvg:element="龷">
			<path style="fill:none;stroke:#808080" id="kvg:06a2a-s5" kvg:type="㇐" d="M47.41,27.18c1.37,0.37,3.89,0.26,5.26,0.12C63.5,26.12,74,24.75,86.54,23.84c2.28-0.16,3.91-0.08,5.05,0.11"/>
			<path style="fill:none;stroke:#808080" id="kvg:06a2a-s6" kvg:type="㇑a" d="M55.87,14.6c1.26,0.78,2.01,2.28,2.08,3.78c0.25,5.44,0.88,13.43,1.66,22.92"/>
			<path style="fill:none;stroke-width:4;" id="kvg:06a2a-s7" kvg:type="㇑a" d="M77.66,11.88c1.1,1.1,1.46,2.24,1.3,4.19c-0.44,5.44-1.29,13.28-2.37,23.38"/>
<circle cx="77.66" cy="11.88" r="5" style="fill:red;stroke:red;" />
		</g>
		<g id="kvg:06a2a-g4" kvg:element="由">
		</g>
		<g id="kvg:06a2a-g5" kvg:element="八">
		</g>
	</g>
</g>
</g></svg>