<?xml version="1.0" encoding="UTF-8"?>
  <!DOCTYPE svg PUBLIC "-//W3C//DTD SVG 1.0//EN" "http://www.w3.org/TR/2001/REC-SVG-20010904/DTD/svg10.dtd" [
  <!ATTLIST g xmlns:kvg CDATA #FIXED "http://kanjivg.tagaini.net" kvg:element CDATA #IMPLIED kvg:variant CDATA #IMPLIED kvg:partial CDATA #IMPLIED kvg:original CDATA #IMPLIED kvg:part CDATA #IMPLIED kvg:number CDATA #IMPLIED kvg:tradForm CDATA #IMPLIED kvg:radicalForm CDATA #IMPLIED kvg:position CDATA #IMPLIED kvg:radical CDATA #IMPLIED kvg:phon CDATA #IMPLIED >
  <!ATTLIST path xmlns:kvg CDATA #FIXED "http://kanjivg.tagaini.net" kvg:type CDATA #IMPLIED >
  ]>
  <svg xmlns="http://www.w3.org/2000/svg" width="109" height="109" viewBox="0 0 109 109">
<g id="kvg:StrokePaths_06a39" style="fill:none;stroke:#000000;stroke-width:3;stroke-linecap:round;stroke-linejoin:round;">
<g id="kvg:06a39" kvg:element="樹">
	<g id="kvg:06a39-g1" kvg:element="木" kvg:position="left" kvg:radical="general">
		<path style="fill:none;stroke:#808080" id="kvg:06a39-s1" kvg:type="㇐" d="M11.53,38.47c1.85,0.53,4.39,0.41,5.71,0.23c4.77-0.63,12.75-2.35,17.84-3.33c0.9-0.17,2.04-0.24,2.93,0"/>
		<path style="fill:none;stroke:#808080" id="kvg:06a39-s2" kvg:type="㇑" d="M27.01,17.45c1.25,1.25,1.74,2.88,1.74,4.92c0,0.82-0.1,46.75-0.1,65.63c0,2.75-0.06,4.69-0.08,5.5"/>
		<path style="fill:none;stroke:#808080" id="kvg:06a39-s3" kvg:type="㇒" d="M27.42,38.78c0,1.84-0.51,4.09-1.49,6.53c-4.56,11.44-7.54,16.94-14.08,28.03"/>
		<path style="fill:none;stroke:#808080" id="kvg:06a39-s4" kvg:type="㇔/㇏" d="M31,45.75c2.16,1.54,5.72,6.52,7.55,9.5"/>
	</g>
	<g id="kvg:06a39-g2" kvg:position="right" kvg:phon="土+豆+寸">
		<g id="kvg:06a39-g3" kvg:position="left">
			<g id="kvg:06a39-g4" kvg:element="吉" kvg:part="1">
				<g id="kvg:06a39-g5" kvg:element="士">
					<path style="fill:none;stroke:#808080" id="kvg:06a39-s5" kvg:type="㇐" d="M40.49,26.1c1.75,0.6,4.19,0.53,6,0.34c5.21-0.53,11.86-1.57,18-2.26c1.39-0.16,2.87-0.43,4.27-0.17"/>
					<path style="fill:none;stroke:#808080" id="kvg:06a39-s6" kvg:type="㇑a" d="M53.37,14.01c0.94,0.94,1.34,2.24,1.34,3.87c0,3.98-0.05,10.12-0.05,19.21"/>
					<g id="kvg:06a39-g6" kvg:element="豆" kvg:part="1">
						<path style="fill:none;stroke:#808080" id="kvg:06a39-s7" kvg:type="㇐" d="M43.61,39.13c0.62,0.19,3.25,0.14,3.87,0.1c3.77-0.23,10.27-1.48,16.17-1.99c1.03-0.09,1.65,0.02,2.17,0.11"/>
					</g>
				</g>
				<g id="kvg:06a39-g7" kvg:element="豆" kvg:part="2">
					<g id="kvg:06a39-g8" kvg:element="吉" kvg:part="2">
						<g id="kvg:06a39-g9" kvg:element="口">
							<path style="fill:none;stroke-width:4;" id="kvg:06a39-s8" kvg:type="㇑" d="M42.99,48.51c0.62,0.62,0.9,1.74,1,2.53c0.39,3.33,0.9,5.17,1.37,9.19c0.14,1.22,0.27,2.4,0.38,3.44"/>
<circle cx="42.99" cy="48.51" r="5" style="fill:red;stroke:red;" />
						</g>
					</g>
				</g>
			</g>
			<g id="kvg:06a39-g10" kvg:element="豆" kvg:part="3">
			</g>
		</g>
		<g id="kvg:06a39-g11" kvg:element="寸" kvg:position="right">
		</g>
	</g>
</g>
</g></svg>