<?xml version="1.0" encoding="UTF-8"?>
  <!DOCTYPE svg PUBLIC "-//W3C//DTD SVG 1.0//EN" "http://www.w3.org/TR/2001/REC-SVG-20010904/DTD/svg10.dtd" [
  <!ATTLIST g xmlns:kvg CDATA #FIXED "http://kanjivg.tagaini.net" kvg:element CDATA #IMPLIED kvg:variant CDATA #IMPLIED kvg:partial CDATA #IMPLIED kvg:original CDATA #IMPLIED kvg:part CDATA #IMPLIED kvg:number CDATA #IMPLIED kvg:tradForm CDATA #IMPLIED kvg:radicalForm CDATA #IMPLIED kvg:position CDATA #IMPLIED kvg:radical CDATA #IMPLIED kvg:phon CDATA #IMPLIED >
  <!ATTLIST path xmlns:kvg CDATA #FIXED "http://kanjivg.tagaini.net" kvg:type CDATA #IMPLIED >
  ]>
  <svg xmlns="http://www.w3.org/2000/svg" width="109" height="109" viewBox="0 0 109 109">
<g id="kvg:StrokePaths_06a5f" style="fill:none;stroke:#000000;stroke-width:3;stroke-linecap:round;stroke-linejoin:round;">
<g id="kvg:06a5f" kvg:element="機">
	<g id="kvg:06a5f-g1" kvg:element="木" kvg:position="left" kvg:radical="general">
		<path style="fill:none;stroke:#808080" id="kvg:06a5f-s1" kvg:type="㇐" d="M10.28,39.47c1.6,0.66,3.76,0.28,4.98,0.09c4.46-0.7,12.85-2.31,18.53-3.4c1.23-0.23,2.99-0.8,4.23-0.29"/>
		<path style="fill:none;stroke:#808080" id="kvg:06a5f-s2" kvg:type="㇑" d="M25.36,15c1.26,1.26,1.79,2.75,1.79,4.42c0,0.82-0.04,50.17-0.05,69.95c0,3.14,0,5.54,0,6.88"/>
		<path style="fill:none;stroke:#808080" id="kvg:06a5f-s3" kvg:type="㇒" d="M26.19,39.53c0,0.84-0.1,1.58-0.34,2.33C22,54.25,19.33,62.31,12.11,75.34"/>
		<path style="fill:none;stroke:#808080" id="kvg:06a5f-s4" kvg:type="㇔/㇏" d="M29.88,45.75c2.33,1.62,6.16,6.86,8.12,10"/>
	</g>
	<g id="kvg:06a5f-g2" kvg:element="幾" kvg:position="right" kvg:phon="幾">
		<g id="kvg:06a5f-g3" kvg:element="幺">
			<path style="fill:none;stroke:#808080" id="kvg:06a5f-s5" kvg:type="㇜" d="M50.09,15.25c0.22,1.11,0.42,2.05-0.11,3.14c-2.32,4.8-3.86,8.86-5.95,12.16c-0.57,0.89-0.91,2.45,0.25,3.02c1.27,0.62,3.58,1.91,6.1,4.49"/>
			<path style="fill:none;stroke:#808080" id="kvg:06a5f-s6" kvg:type="㇜" d="M54.01,28.56c0.2,0.5,0.27,2.15,0,2.68c-3.93,7.86-5.26,9.77-10.61,18.2c-1.1,1.74,0.31,2.58,1.11,2.25c3.38-1.4,8.97-3.53,13.32-4.87"/>
			<path style="fill:none;stroke:#808080" id="kvg:06a5f-s7" kvg:type="㇔" d="M55.13,42.62c1.6,1.42,4.15,5.84,4.55,8.05"/>
		</g>
		<g id="kvg:06a5f-g4" kvg:element="幺">
			<path style="fill:none;stroke:#808080" id="kvg:06a5f-s8" kvg:type="㇜" d="M76.71,11.75c0.22,1.11,0.31,2-0.11,3.14c-1.85,4.99-3.47,8.49-6.03,12.41c-0.4,0.61-0.32,1.95,0.75,2.52c1.25,0.66,3.33,1.66,5.85,4.24"/>
			<path style="fill:none;stroke-width:4;" id="kvg:06a5f-s9" kvg:type="㇜" d="M85.8,17.56c0.2,0.5,0.27,2.15,0,2.68c-3.93,7.86-7.71,14.03-13.11,21.2c-1.24,1.64,0.31,2.59,1.12,2.25c3.38-1.4,9.22-3.53,13.56-4.87"/>
<circle cx="85.8" cy="17.56" r="5" style="fill:red;stroke:red;" />
		</g>
		<g id="kvg:06a5f-g5" kvg:element="戍" kvg:variant="true" kvg:original="戌">
			<g id="kvg:06a5f-g6" kvg:element="戈" kvg:part="1">
				<g id="kvg:06a5f-g7" kvg:element="弋" kvg:part="1">
					<g id="kvg:06a5f-g8" kvg:element="厂" kvg:part="1">
					</g>
				</g>
			</g>
			<g id="kvg:06a5f-g9" kvg:element="人" kvg:variant="true">
				<g id="kvg:06a5f-g10" kvg:element="厂" kvg:part="2">
				</g>
				<g id="kvg:06a5f-g11" kvg:element="一" kvg:variant="true">
				</g>
			</g>
			<g id="kvg:06a5f-g12" kvg:element="戈" kvg:part="2">
				<g id="kvg:06a5f-g13" kvg:element="弋" kvg:part="2">
				</g>
				<g id="kvg:06a5f-g14" kvg:element="丿">
				</g>
				<g id="kvg:06a5f-g15" kvg:element="弋" kvg:part="3">
					<g id="kvg:06a5f-g16" kvg:element="丶">
					</g>
				</g>
			</g>
		</g>
	</g>
</g>
</g></svg>