<?xml version="1.0" encoding="UTF-8"?>
  <!DOCTYPE svg PUBLIC "-//W3C//DTD SVG 1.0//EN" "http://www.w3.org/TR/2001/REC-SVG-20010904/DTD/svg10.dtd" [
  <!ATTLIST g xmlns:kvg CDATA #FIXED "http://kanjivg.tagaini.net" kvg:element CDATA #IMPLIED kvg:variant CDATA #IMPLIED kvg:partial CDATA #IMPLIED kvg:original CDATA #IMPLIED kvg:part CDATA #IMPLIED kvg:number CDATA #IMPLIED kvg:tradForm CDATA #IMPLIED kvg:radicalForm CDATA #IMPLIED kvg:position CDATA #IMPLIED kvg:radical CDATA #IMPLIED kvg:phon CDATA #IMPLIED >
  <!ATTLIST path xmlns:kvg CDATA #FIXED "http://kanjivg.tagaini.net" kvg:type CDATA #IMPLIED >
  ]>
  <svg xmlns="http://www.w3.org/2000/svg" width="109" height="109" viewBox="0 0 109 109">
<g id="kvg:StrokePaths_06b4c" style="fill:none;stroke:#000000;stroke-width:3;stroke-linecap:round;stroke-linejoin:round;">
<g id="kvg:06b4c" kvg:element="歌">
	<g id="kvg:06b4c-g1" kvg:position="left">
		<g id="kvg:06b4c-g2" kvg:element="哥" kvg:position="top" kvg:phon="哥">
			<g id="kvg:06b4c-g3" kvg:element="可">
				<g id="kvg:06b4c-g4" kvg:element="丁" kvg:part="1">
					<g id="kvg:06b4c-g5" kvg:element="一">
						<path style="fill:none;stroke:#808080" id="kvg:06b4c-s1" kvg:type="㇐" d="M12.87,22.32c1.62,0.38,4.57,0.57,6.21,0.38c8.42-0.95,18.04-2.45,27.39-3.16c2.68-0.2,4.32,0.18,5.67,0.37"/>
					</g>
				</g>
				<g id="kvg:06b4c-g6" kvg:element="口">
					<path style="fill:none;stroke:#808080" id="kvg:06b4c-s2" kvg:type="㇑" d="M16.65,32.85c0.56,0.41,0.88,0.96,0.97,1.65c0.62,2.03,1.31,5.53,1.85,8.42c0.19,1,0.35,1.96,0.49,2.84"/>
					<path style="fill:none;stroke:#808080" id="kvg:06b4c-s3" kvg:type="㇕b" d="M18.75,34.28c4.65-0.96,11.62-2.38,14.17-2.62c1.1-0.1,1.76,0.61,1.6,1.22c-0.5,1.92-1.31,5.39-1.98,7.88"/>
					<path style="fill:none;stroke:#808080" id="kvg:06b4c-s4" kvg:type="㇐b" d="M20.83,43.36c2.68-0.24,5.82-0.99,9.42-1.31c1.15-0.1,2.32-0.21,3.49-0.33"/>
				</g>
			</g>
			<g id="kvg:06b4c-g7" kvg:element="丁" kvg:part="2" kvg:position="bottom">
				<g id="kvg:06b4c-g8" kvg:element="亅" kvg:variant="true">
					<path style="fill:none;stroke-width:4;" id="kvg:06b4c-s5" kvg:type="㇑/㇚" d="M44,21.37c0.03,0.26,0.98,1.35,1.01,3c0.12,5.81,0.06,14.91-0.02,20.39c-0.03,1.96-0.06,3.46-0.08,4.17"/>
<circle cx="44" cy="21.37" r="5" style="fill:red;stroke:red;" />
				</g>
			</g>
			<g id="kvg:06b4c-g9" kvg:element="可">
				<g id="kvg:06b4c-g10" kvg:element="丁" kvg:part="1">
					<g id="kvg:06b4c-g11" kvg:element="一">
					</g>
				</g>
				<g id="kvg:06b4c-g12" kvg:element="口">
				</g>
				<g id="kvg:06b4c-g13" kvg:element="丁" kvg:part="2">
					<g id="kvg:06b4c-g14" kvg:element="亅">
					</g>
				</g>
			</g>
		</g>
	</g>
	<g id="kvg:06b4c-g15" kvg:element="欠" kvg:position="right" kvg:radical="general">
	</g>
</g>
</g></svg>