<?xml version="1.0" encoding="UTF-8"?>
  <!DOCTYPE svg PUBLIC "-//W3C//DTD SVG 1.0//EN" "http://www.w3.org/TR/2001/REC-SVG-20010904/DTD/svg10.dtd" [
  <!ATTLIST g xmlns:kvg CDATA #FIXED "http://kanjivg.tagaini.net" kvg:element CDATA #IMPLIED kvg:variant CDATA #IMPLIED kvg:partial CDATA #IMPLIED kvg:original CDATA #IMPLIED kvg:part CDATA #IMPLIED kvg:number CDATA #IMPLIED kvg:tradForm CDATA #IMPLIED kvg:radicalForm CDATA #IMPLIED kvg:position CDATA #IMPLIED kvg:radical CDATA #IMPLIED kvg:phon CDATA #IMPLIED >
  <!ATTLIST path xmlns:kvg CDATA #FIXED "http://kanjivg.tagaini.net" kvg:type CDATA #IMPLIED >
  ]>
  <svg xmlns="http://www.w3.org/2000/svg" width="109" height="109" viewBox="0 0 109 109">
<g id="kvg:StrokePaths_06b6f" style="fill:none;stroke:#000000;stroke-width:3;stroke-linecap:round;stroke-linejoin:round;">
<g id="kvg:06b6f" kvg:element="歯" kvg:variant="true" kvg:original="齒" kvg:radical="general">
	<g id="kvg:06b6f-g1" kvg:element="止" kvg:position="top" kvg:phon="止">
		<g id="kvg:06b6f-g2" kvg:element="卜" kvg:original="ト">
			<path style="fill:none;stroke:#808080" id="kvg:06b6f-s1" kvg:type="㇑a" d="M52.25,12c1.25,1.25,1.94,2.88,1.94,4.75c0,6.13,0.19,14.12,0.28,22.25"/>
			<path style="fill:none;stroke:#808080" id="kvg:06b6f-s2" kvg:type="㇐b" d="M55.49,25.75c6.54-0.7,11.76-1.5,19.02-2.38c1.54-0.19,3.29-0.48,4.83-0.12"/>
		</g>
		<path style="fill:none;stroke:#808080" id="kvg:06b6f-s3" kvg:type="㇑a" d="M29.7,21.5c1.15,1.15,1.69,2.38,1.69,3.75c0,2.62,0.03,9.25,0.03,15.25"/>
		<path style="fill:none;stroke:#808080" id="kvg:06b6f-s4" kvg:type="㇐" d="M14.75,41.57c3.78,1.16,7.28,1.11,11.17,0.73c20.46-2.05,42.28-4.32,56.75-4.89c4.47-0.18,7.33-0.03,10.08,0.7"/>
	</g>
	<g id="kvg:06b6f-g3" kvg:position="bottom">
		<g id="kvg:06b6f-g4" kvg:element="米" kvg:variant="true">
			<path style="fill:none;stroke:#808080" id="kvg:06b6f-s5" kvg:type="㇔" d="M36.88,49.38c2.42,1.61,6.07,6.17,6.67,8.67"/>
			<path style="fill:none;stroke:#808080" id="kvg:06b6f-s6" kvg:type="㇒" d="M69.91,46.78c-0.03,0.84-0.24,1.88-0.86,2.72c-1.75,2.38-4.2,5-6.3,6.75"/>
			<path style="fill:none;stroke-width:4;" id="kvg:06b6f-s7" kvg:type="㇐" d="M32.69,63.52c2.56,0.48,4.65,0.44,6.43,0.25c8.25-0.89,24.15-2.75,32-3.2c1.55-0.09,3.65-0.15,5.21,0.17"/>
<circle cx="32.69" cy="63.52" r="5" style="fill:red;stroke:red;" />
		</g>
		<g id="kvg:06b6f-g5" kvg:element="凵">
		</g>
	</g>
</g>
</g></svg>