<?xml version="1.0" encoding="UTF-8"?>
  <!DOCTYPE svg PUBLIC "-//W3C//DTD SVG 1.0//EN" "http://www.w3.org/TR/2001/REC-SVG-20010904/DTD/svg10.dtd" [
  <!ATTLIST g xmlns:kvg CDATA #FIXED "http://kanjivg.tagaini.net" kvg:element CDATA #IMPLIED kvg:variant CDATA #IMPLIED kvg:partial CDATA #IMPLIED kvg:original CDATA #IMPLIED kvg:part CDATA #IMPLIED kvg:number CDATA #IMPLIED kvg:tradForm CDATA #IMPLIED kvg:radicalForm CDATA #IMPLIED kvg:position CDATA #IMPLIED kvg:radical CDATA #IMPLIED kvg:phon CDATA #IMPLIED >
  <!ATTLIST path xmlns:kvg CDATA #FIXED "http://kanjivg.tagaini.net" kvg:type CDATA #IMPLIED >
  ]>
  <svg xmlns="http://www.w3.org/2000/svg" width="109" height="109" viewBox="0 0 109 109">
<g id="kvg:StrokePaths_06b8b" style="fill:none;stroke:#000000;stroke-width:3;stroke-linecap:round;stroke-linejoin:round;">
<g id="kvg:06b8b" kvg:element="残">
	<g id="kvg:06b8b-g1" kvg:element="歹" kvg:position="left" kvg:radical="general">
		<g id="kvg:06b8b-g2" kvg:element="一">
			<path style="fill:none;stroke:#808080" id="kvg:06b8b-s1" kvg:type="㇐" d="M13.5,21.72c2,0.28,3.54,0.31,5.38,0.03c5.37-0.82,15.93-2.6,22.24-3.46c2.01-0.27,4.14-0.54,5.64-0.02"/>
		</g>
		<g id="kvg:06b8b-g3" kvg:element="夕">
			<path style="fill:none;stroke:#808080" id="kvg:06b8b-s2" kvg:type="㇒" d="M30.38,24.12c0.34,1.24,0.3,2.45-0.12,3.73c-2.79,8.63-8.48,21.25-18.38,31.77"/>
			<path style="fill:none;stroke:#808080" id="kvg:06b8b-s3" kvg:type="㇇" d="M29.64,39.5c0.26,0.05,1.38,0.17,2.14,0.11c3.1-0.24,5.23-0.61,9.93-2.05c2.42-0.74,3.53,0.76,2.79,3.31c-5.62,19.38-14.5,42-31.89,55.38"/>
			<path style="fill:none;stroke-width:4;" id="kvg:06b8b-s4" kvg:type="㇔" d="M20.88,53.75c4.2,1.88,9.98,7.21,11.9,10.64"/>
<circle cx="20.88" cy="53.75" r="5" style="fill:red;stroke:red;" />
		</g>
	</g>
	<g id="kvg:06b8b-g4" kvg:element="戋" kvg:variant="true" kvg:original="戔" kvg:position="right" kvg:phon="戋/戔V">
		<g id="kvg:06b8b-g5" kvg:element="三" kvg:part="1">
			<g id="kvg:06b8b-g6" kvg:element="一" kvg:position="top">
			</g>
			<g id="kvg:06b8b-g7" kvg:element="一" kvg:position="bottom">
			</g>
			<g id="kvg:06b8b-g8" kvg:element="戈">
				<g id="kvg:06b8b-g9" kvg:element="弋" kvg:part="1">
					<g id="kvg:06b8b-g10" kvg:element="三" kvg:part="2">
						<g id="kvg:06b8b-g11" kvg:element="一">
						</g>
					</g>
				</g>
				<g id="kvg:06b8b-g12" kvg:element="丿">
				</g>
				<g id="kvg:06b8b-g13" kvg:element="弋" kvg:part="2">
					<g id="kvg:06b8b-g14" kvg:element="丶">
					</g>
				</g>
			</g>
		</g>
	</g>
</g>
</g></svg>