<?xml version="1.0" encoding="UTF-8"?>
  <!DOCTYPE svg PUBLIC "-//W3C//DTD SVG 1.0//EN" "http://www.w3.org/TR/2001/REC-SVG-20010904/DTD/svg10.dtd" [
  <!ATTLIST g xmlns:kvg CDATA #FIXED "http://kanjivg.tagaini.net" kvg:element CDATA #IMPLIED kvg:variant CDATA #IMPLIED kvg:partial CDATA #IMPLIED kvg:original CDATA #IMPLIED kvg:part CDATA #IMPLIED kvg:number CDATA #IMPLIED kvg:tradForm CDATA #IMPLIED kvg:radicalForm CDATA #IMPLIED kvg:position CDATA #IMPLIED kvg:radical CDATA #IMPLIED kvg:phon CDATA #IMPLIED >
  <!ATTLIST path xmlns:kvg CDATA #FIXED "http://kanjivg.tagaini.net" kvg:type CDATA #IMPLIED >
  ]>
  <svg xmlns="http://www.w3.org/2000/svg" width="109" height="109" viewBox="0 0 109 109">
<g id="kvg:StrokePaths_06bb5" style="fill:none;stroke:#000000;stroke-width:3;stroke-linecap:round;stroke-linejoin:round;">
<g id="kvg:06bb5" kvg:element="段">
	<g id="kvg:06bb5-g1" kvg:position="left" kvg:phon="耑V">
		<path style="fill:none;stroke:#808080" id="kvg:06bb5-s1" kvg:type="㇒" d="M39.33,12.75c0.11,1.05,0.02,2.04-0.63,2.92C34.75,21,30,25.75,23.25,30.79"/>
		<path style="fill:none;stroke:#808080" id="kvg:06bb5-s2" kvg:type="㇑" d="M20.37,31c0.88,0.88,1.21,2.25,1.21,3.5c0,4.52-0.06,36.54-0.08,55.62c0,2.04,0,3.93,0,5.62"/>
		<path style="fill:none;stroke:#808080" id="kvg:06bb5-s3" kvg:type="㇐b" d="M22.75,44c6.75-0.75,16.51-2.38,17.75-2.5c1.4-0.13,2.5-0.25,3.75,0"/>
		<path style="fill:none;stroke-width:4;" id="kvg:06bb5-s4" kvg:type="㇐b" d="M22.5,61c6.75-0.75,17.51-2.63,18.75-2.75c1.4-0.13,2.5-0.25,3.75,0"/>
<circle cx="22.5" cy="61" r="5" style="fill:red;stroke:red;" />
	</g>
	<g id="kvg:06bb5-g2" kvg:element="殳" kvg:position="right" kvg:radical="general">
		<g id="kvg:06bb5-g3" kvg:element="几" kvg:position="top">
			<g id="kvg:06bb5-g4" kvg:element="丿">
			</g>
		</g>
		<g id="kvg:06bb5-g5" kvg:element="又" kvg:position="bottom">
		</g>
	</g>
</g>
</g></svg>