<?xml version="1.0" encoding="UTF-8"?>
  <!DOCTYPE svg PUBLIC "-//W3C//DTD SVG 1.0//EN" "http://www.w3.org/TR/2001/REC-SVG-20010904/DTD/svg10.dtd" [
  <!ATTLIST g xmlns:kvg CDATA #FIXED "http://kanjivg.tagaini.net" kvg:element CDATA #IMPLIED kvg:variant CDATA #IMPLIED kvg:partial CDATA #IMPLIED kvg:original CDATA #IMPLIED kvg:part CDATA #IMPLIED kvg:number CDATA #IMPLIED kvg:tradForm CDATA #IMPLIED kvg:radicalForm CDATA #IMPLIED kvg:position CDATA #IMPLIED kvg:radical CDATA #IMPLIED kvg:phon CDATA #IMPLIED >
  <!ATTLIST path xmlns:kvg CDATA #FIXED "http://kanjivg.tagaini.net" kvg:type CDATA #IMPLIED >
  ]>
  <svg xmlns="http://www.w3.org/2000/svg" width="109" height="109" viewBox="0 0 109 109">
<g id="kvg:StrokePaths_06bd2" style="fill:none;stroke:#000000;stroke-width:3;stroke-linecap:round;stroke-linejoin:round;">
<g id="kvg:06bd2" kvg:element="毒">
	<g id="kvg:06bd2-g1" kvg:element="龶" kvg:position="top">
		<g id="kvg:06bd2-g2" kvg:element="三" kvg:part="1" kvg:position="top">
			<g id="kvg:06bd2-g3" kvg:element="一" kvg:position="top">
				<path style="fill:none;stroke:#808080" id="kvg:06bd2-s1" kvg:type="㇐" d="M36.05,21.97c2.07,0.53,3.7,0.66,6.1,0.36c7.01-0.89,20.1-2.45,28.23-2.9c2.03-0.11,4.02-0.18,6.04,0.1"/>
			</g>
		</g>
		<path style="fill:none;stroke:#808080" id="kvg:06bd2-s2" kvg:type="㇑a" d="M53.67,10.22c0.99,0.99,1.71,2.28,1.71,3.9c0,6.68-0.19,22.63-0.13,30.13"/>
		<g id="kvg:06bd2-g4" kvg:element="三" kvg:part="2" kvg:position="bottom">
			<path style="fill:none;stroke:#808080" id="kvg:06bd2-s3" kvg:type="㇐" d="M34.09,33.55c1.87,0.7,4.11,0.52,6.04,0.32c7.5-0.75,21.07-2.38,28.13-2.96c2.14-0.18,4.24-0.28,6.38-0.03"/>
			<path style="fill:none;stroke-width:4;" id="kvg:06bd2-s4" kvg:type="㇐" d="M19.13,47.77c3.42,0.78,6.92,0.65,10.38,0.32c14-1.34,36.87-3.84,50.5-4.72c3.1-0.2,7,0.01,9.62,0.42"/>
<circle cx="19.13" cy="47.77" r="5" style="fill:red;stroke:red;" />
		</g>
	</g>
	<g id="kvg:06bd2-g5" kvg:element="毋" kvg:original="母" kvg:partial="true" kvg:position="bottom" kvg:radical="general">
	</g>
</g>
</g></svg>