<?xml version="1.0" encoding="UTF-8"?>
  <!DOCTYPE svg PUBLIC "-//W3C//DTD SVG 1.0//EN" "http://www.w3.org/TR/2001/REC-SVG-20010904/DTD/svg10.dtd" [
  <!ATTLIST g xmlns:kvg CDATA #FIXED "http://kanjivg.tagaini.net" kvg:element CDATA #IMPLIED kvg:variant CDATA #IMPLIED kvg:partial CDATA #IMPLIED kvg:original CDATA #IMPLIED kvg:part CDATA #IMPLIED kvg:number CDATA #IMPLIED kvg:tradForm CDATA #IMPLIED kvg:radicalForm CDATA #IMPLIED kvg:position CDATA #IMPLIED kvg:radical CDATA #IMPLIED kvg:phon CDATA #IMPLIED >
  <!ATTLIST path xmlns:kvg CDATA #FIXED "http://kanjivg.tagaini.net" kvg:type CDATA #IMPLIED >
  ]>
  <svg xmlns="http://www.w3.org/2000/svg" width="109" height="109" viewBox="0 0 109 109">
<g id="kvg:StrokePaths_06c7a" style="fill:none;stroke:#000000;stroke-width:3;stroke-linecap:round;stroke-linejoin:round;">
<g id="kvg:06c7a" kvg:element="決">
	<g id="kvg:06c7a-g1" kvg:element="氵" kvg:variant="true" kvg:original="水" kvg:position="left" kvg:radical="general">
		<path style="fill:none;stroke:#808080" id="kvg:06c7a-s1" kvg:type="㇔" d="M17.5,21.62c3.62,1.63,9.34,6.69,10.25,9.22"/>
		<path style="fill:none;stroke:#808080" id="kvg:06c7a-s2" kvg:type="㇔" d="M12.5,43.5C16.03,45,20.88,49,22.75,52"/>
		<path style="fill:none;stroke:#808080" id="kvg:06c7a-s3" kvg:type="㇀" d="M11.25,90.71C13,91,14.56,90.07,15.5,88.45c2.75-4.7,5-9.95,7.5-15.95"/>
	</g>
	<g id="kvg:06c7a-g2" kvg:element="夬" kvg:position="right" kvg:phon="夬">
		<path style="fill:none;stroke-width:4;" id="kvg:06c7a-s4" kvg:type="㇕c" d="M38.3,36.57c2.2,0.56,5.59,0.95,8.42,0.46c9.4-1.65,20.15-3.28,29.78-4.61c3.12-0.43,4.74,2.21,3.99,4.58c-1.37,4.35-3,10.25-4.75,16"/>
<circle cx="38.3" cy="36.57" r="5" style="fill:red;stroke:red;" />
		<g id="kvg:06c7a-g3" kvg:element="大">
			<g id="kvg:06c7a-g4" kvg:element="人">
			</g>
		</g>
	</g>
</g>
</g></svg>