<?xml version="1.0" encoding="UTF-8"?>
  <!DOCTYPE svg PUBLIC "-//W3C//DTD SVG 1.0//EN" "http://www.w3.org/TR/2001/REC-SVG-20010904/DTD/svg10.dtd" [
  <!ATTLIST g xmlns:kvg CDATA #FIXED "http://kanjivg.tagaini.net" kvg:element CDATA #IMPLIED kvg:variant CDATA #IMPLIED kvg:partial CDATA #IMPLIED kvg:original CDATA #IMPLIED kvg:part CDATA #IMPLIED kvg:number CDATA #IMPLIED kvg:tradForm CDATA #IMPLIED kvg:radicalForm CDATA #IMPLIED kvg:position CDATA #IMPLIED kvg:radical CDATA #IMPLIED kvg:phon CDATA #IMPLIED >
  <!ATTLIST path xmlns:kvg CDATA #FIXED "http://kanjivg.tagaini.net" kvg:type CDATA #IMPLIED >
  ]>
  <svg xmlns="http://www.w3.org/2000/svg" width="109" height="109" viewBox="0 0 109 109">
<g id="kvg:StrokePaths_06c7d" style="fill:none;stroke:#000000;stroke-width:3;stroke-linecap:round;stroke-linejoin:round;">
<g id="kvg:06c7d" kvg:element="汽">
	<g id="kvg:06c7d-g1" kvg:element="氵" kvg:variant="true" kvg:original="水" kvg:position="left" kvg:radical="general">
		<path style="fill:none;stroke:#808080" id="kvg:06c7d-s1" kvg:type="㇔" d="M17.75,18.82c3.71,1.43,9.57,5.87,10.5,8.09"/>
		<path style="fill:none;stroke:#808080" id="kvg:06c7d-s2" kvg:type="㇔" d="M13.62,41.44c3.93,1.43,10.14,5.9,11.12,8.12"/>
		<path style="fill:none;stroke:#808080" id="kvg:06c7d-s3" kvg:type="㇀" d="M14.25,88.27c1.75,0.79,3.31,0.36,4.25-1.25c2.75-4.7,5-9.95,7.5-15.95"/>
	</g>
	<g id="kvg:06c7d-g2" kvg:element="气" kvg:position="right" kvg:phon="气">
		<g id="kvg:06c7d-g3" kvg:element="𠂉">
			<path style="fill:none;stroke:#808080" id="kvg:06c7d-s4" kvg:type="㇒" d="M49.91,11.25c0.47,1.44,0.22,3.06-0.61,4.83C46.99,21,40.88,31.69,34,38.57"/>
			<path style="fill:none;stroke:#808080" id="kvg:06c7d-s5" kvg:type="㇐" d="M48.23,24.94c0.77,0.12,2.45-0.02,3.42-0.18c7.01-1.14,16.87-3.24,24.97-4.98c1.48-0.32,2.88-0.59,4.38-0.47"/>
		</g>
		<path style="fill:none;stroke-width:4;" id="kvg:06c7d-s6" kvg:type="㇐" d="M45.06,37.09c1.61,0.39,2.94,0.4,4.57,0.2c8.37-0.99,15.3-2.36,22.25-3.79c1.67-0.34,3.61-0.69,5.04-0.54"/>
<circle cx="45.06" cy="37.09" r="5" style="fill:red;stroke:red;" />
	</g>
</g>
</g></svg>