<?xml version="1.0" encoding="UTF-8"?>
  <!DOCTYPE svg PUBLIC "-//W3C//DTD SVG 1.0//EN" "http://www.w3.org/TR/2001/REC-SVG-20010904/DTD/svg10.dtd" [
  <!ATTLIST g xmlns:kvg CDATA #FIXED "http://kanjivg.tagaini.net" kvg:element CDATA #IMPLIED kvg:variant CDATA #IMPLIED kvg:partial CDATA #IMPLIED kvg:original CDATA #IMPLIED kvg:part CDATA #IMPLIED kvg:number CDATA #IMPLIED kvg:tradForm CDATA #IMPLIED kvg:radicalForm CDATA #IMPLIED kvg:position CDATA #IMPLIED kvg:radical CDATA #IMPLIED kvg:phon CDATA #IMPLIED >
  <!ATTLIST path xmlns:kvg CDATA #FIXED "http://kanjivg.tagaini.net" kvg:type CDATA #IMPLIED >
  ]>
  <svg xmlns="http://www.w3.org/2000/svg" width="109" height="109" viewBox="0 0 109 109">
<g id="kvg:StrokePaths_06cbb" style="fill:none;stroke:#000000;stroke-width:3;stroke-linecap:round;stroke-linejoin:round;">
<g id="kvg:06cbb" kvg:element="治">
	<g id="kvg:06cbb-g1" kvg:element="氵" kvg:variant="true" kvg:original="水" kvg:position="left" kvg:radical="general">
		<path style="fill:none;stroke:#808080" id="kvg:06cbb-s1" kvg:type="㇔" d="M26.75,18.75c4.24,1.38,10.94,5.69,12,7.84"/>
		<path style="fill:none;stroke:#808080" id="kvg:06cbb-s2" kvg:type="㇔" d="M18.25,43.75c4.68,1.23,12.08,5.08,13.25,7"/>
		<path style="fill:none;stroke:#808080" id="kvg:06cbb-s3" kvg:type="㇀" d="M19.38,90.75c1.02,0.15,2.25-0.24,2.87-1.29c3.01-5.1,6.02-11.33,8.75-17.83"/>
	</g>
	<g id="kvg:06cbb-g2" kvg:element="台" kvg:position="right" kvg:phon="台">
		<g id="kvg:06cbb-g3" kvg:element="厶" kvg:position="top">
			<path style="fill:none;stroke-width:4;" id="kvg:06cbb-s4" kvg:type="㇜" d="M65.09,18c0.66,1.5,0.21,3.46-0.81,5.13c-6.79,11.12-11.6,18.14-18.08,27.1c-2.56,3.53-2.41,4.05,1.11,3.26c8.94-1.99,26.87-6.81,39.1-9.85"/>
<circle cx="65.09" cy="18" r="5" style="fill:red;stroke:red;" />
		</g>
		<g id="kvg:06cbb-g4" kvg:element="口" kvg:position="bottom">
		</g>
	</g>
</g>
</g></svg>