<?xml version="1.0" encoding="UTF-8"?>
  <!DOCTYPE svg PUBLIC "-//W3C//DTD SVG 1.0//EN" "http://www.w3.org/TR/2001/REC-SVG-20010904/DTD/svg10.dtd" [
  <!ATTLIST g xmlns:kvg CDATA #FIXED "http://kanjivg.tagaini.net" kvg:element CDATA #IMPLIED kvg:variant CDATA #IMPLIED kvg:partial CDATA #IMPLIED kvg:original CDATA #IMPLIED kvg:part CDATA #IMPLIED kvg:number CDATA #IMPLIED kvg:tradForm CDATA #IMPLIED kvg:radicalForm CDATA #IMPLIED kvg:position CDATA #IMPLIED kvg:radical CDATA #IMPLIED kvg:phon CDATA #IMPLIED >
  <!ATTLIST path xmlns:kvg CDATA #FIXED "http://kanjivg.tagaini.net" kvg:type CDATA #IMPLIED >
  ]>
  <svg xmlns="http://www.w3.org/2000/svg" width="109" height="109" viewBox="0 0 109 109">
<g id="kvg:StrokePaths_06cb3" style="fill:none;stroke:#000000;stroke-width:3;stroke-linecap:round;stroke-linejoin:round;">
<g id="kvg:06cb3" kvg:element="河">
	<g id="kvg:06cb3-g1" kvg:element="氵" kvg:variant="true" kvg:original="水" kvg:position="left" kvg:radical="general">
		<path style="fill:none;stroke:#808080" id="kvg:06cb3-s1" kvg:type="㇔" d="M21.88,17.38c4.04,1.59,9.86,5.99,10.88,8.47"/>
		<path style="fill:none;stroke:#808080" id="kvg:06cb3-s2" kvg:type="㇔" d="M16.62,40c4.1,1.19,10.6,4.9,11.62,6.75"/>
		<path style="fill:none;stroke:#808080" id="kvg:06cb3-s3" kvg:type="㇀" d="M15.44,85.78c1.31,0.55,2.65,0.3,3.43-0.96c2.97-4.74,5.93-10.53,8.63-16.57"/>
	</g>
	<g id="kvg:06cb3-g2" kvg:element="可" kvg:position="right" kvg:phon="可">
		<g id="kvg:06cb3-g3" kvg:element="丁" kvg:part="1">
			<g id="kvg:06cb3-g4" kvg:element="一">
				<path style="fill:none;stroke:#808080" id="kvg:06cb3-s4" kvg:type="㇐" d="M41.22,23.13c2.78,0.62,6.17,0.35,8.78,0.04c9.61-1.15,28.85-3.66,39-4.6c2.6-0.24,4.98-0.43,7.53,0.22"/>
			</g>
		</g>
		<g id="kvg:06cb3-g5" kvg:element="口">
			<path style="fill:none;stroke-width:4;" id="kvg:06cb3-s5" kvg:type="㇑" d="M43.08,43.57c0.8,0.8,1.4,1.87,1.48,2.92c0.8,3.45,1.65,9.58,2.32,14.89c0.23,1.78,0.43,3.46,0.61,4.92"/>
<circle cx="43.08" cy="43.57" r="5" style="fill:red;stroke:red;" />
		</g>
		<g id="kvg:06cb3-g6" kvg:element="丁" kvg:part="2">
			<g id="kvg:06cb3-g7" kvg:element="亅">
			</g>
		</g>
	</g>
</g>
</g></svg>