<?xml version="1.0" encoding="UTF-8"?>
  <!DOCTYPE svg PUBLIC "-//W3C//DTD SVG 1.0//EN" "http://www.w3.org/TR/2001/REC-SVG-20010904/DTD/svg10.dtd" [
  <!ATTLIST g xmlns:kvg CDATA #FIXED "http://kanjivg.tagaini.net" kvg:element CDATA #IMPLIED kvg:variant CDATA #IMPLIED kvg:partial CDATA #IMPLIED kvg:original CDATA #IMPLIED kvg:part CDATA #IMPLIED kvg:number CDATA #IMPLIED kvg:tradForm CDATA #IMPLIED kvg:radicalForm CDATA #IMPLIED kvg:position CDATA #IMPLIED kvg:radical CDATA #IMPLIED kvg:phon CDATA #IMPLIED >
  <!ATTLIST path xmlns:kvg CDATA #FIXED "http://kanjivg.tagaini.net" kvg:type CDATA #IMPLIED >
  ]>
  <svg xmlns="http://www.w3.org/2000/svg" width="109" height="109" viewBox="0 0 109 109">
<g id="kvg:StrokePaths_06cf3" style="fill:none;stroke:#000000;stroke-width:3;stroke-linecap:round;stroke-linejoin:round;">
<g id="kvg:06cf3" kvg:element="泳">
	<g id="kvg:06cf3-g1" kvg:element="氵" kvg:variant="true" kvg:original="水" kvg:position="left" kvg:radical="general">
		<path style="fill:none;stroke:#808080" id="kvg:06cf3-s1" kvg:type="㇔" d="M19.88,21.75c3.75,1.16,9.68,4.78,10.62,6.59"/>
		<path style="fill:none;stroke:#808080" id="kvg:06cf3-s2" kvg:type="㇔" d="M15.75,44.5c4.06,1.15,10.48,4.72,11.5,6.5"/>
		<path style="fill:none;stroke:#808080" id="kvg:06cf3-s3" kvg:type="㇀" d="M16,91.21c2,0.42,3.31-0.14,4.25-1.75c2.75-4.7,5-9.95,7.5-15.95"/>
	</g>
	<g id="kvg:06cf3-g2" kvg:element="永" kvg:position="right" kvg:phon="永">
		<g id="kvg:06cf3-g3" kvg:element="丶">
			<path style="fill:none;stroke:#808080" id="kvg:06cf3-s4" kvg:type="㇔" d="M54.25,13.5c4.83,2.47,8.69,5.86,10.14,9.25"/>
		</g>
		<g id="kvg:06cf3-g4" kvg:element="水" kvg:variant="true">
			<path style="fill:none;stroke-width:4;" id="kvg:06cf3-s5" kvg:type="㇆" d="M44.69,35.25c1.19,0.41,2.78,0.62,4.63,0.31c3.43-0.56,7.89-2.14,12.15-2.64c1.75-0.21,3.78,1.08,3.78,4.33c0,15.75-0.48,47.72-0.49,52.27c-0.01,7.98-6.01,1.98-8.47-0.08"/>
<circle cx="44.69" cy="35.25" r="5" style="fill:red;stroke:red;" />
		</g>
	</g>
</g>
</g></svg>