<?xml version="1.0" encoding="UTF-8"?>
  <!DOCTYPE svg PUBLIC "-//W3C//DTD SVG 1.0//EN" "http://www.w3.org/TR/2001/REC-SVG-20010904/DTD/svg10.dtd" [
  <!ATTLIST g xmlns:kvg CDATA #FIXED "http://kanjivg.tagaini.net" kvg:element CDATA #IMPLIED kvg:variant CDATA #IMPLIED kvg:partial CDATA #IMPLIED kvg:original CDATA #IMPLIED kvg:part CDATA #IMPLIED kvg:number CDATA #IMPLIED kvg:tradForm CDATA #IMPLIED kvg:radicalForm CDATA #IMPLIED kvg:position CDATA #IMPLIED kvg:radical CDATA #IMPLIED kvg:phon CDATA #IMPLIED >
  <!ATTLIST path xmlns:kvg CDATA #FIXED "http://kanjivg.tagaini.net" kvg:type CDATA #IMPLIED >
  ]>
  <svg xmlns="http://www.w3.org/2000/svg" width="109" height="109" viewBox="0 0 109 109">
<g id="kvg:StrokePaths_06d17" style="fill:none;stroke:#000000;stroke-width:3;stroke-linecap:round;stroke-linejoin:round;">
<g id="kvg:06d17" kvg:element="洗">
	<g id="kvg:06d17-g1" kvg:element="氵" kvg:variant="true" kvg:original="水" kvg:position="left" kvg:radical="general">
		<path style="fill:none;stroke:#808080" id="kvg:06d17-s1" kvg:type="㇔" d="M21.88,21.25c3.75,1.25,9.68,5.15,10.62,7.09"/>
		<path style="fill:none;stroke:#808080" id="kvg:06d17-s2" kvg:type="㇔" d="M15,43.5c3.97,1.46,8.84,5.06,11.25,8.25"/>
		<path style="fill:none;stroke:#808080" id="kvg:06d17-s3" kvg:type="㇀" d="M14.25,88.5c1.45,0.68,2.98,0.48,3.85-0.83c3.1-4.66,6.21-10.35,9.03-16.3"/>
	</g>
	<g id="kvg:06d17-g2" kvg:element="先" kvg:position="right" kvg:phon="先">
		<g id="kvg:06d17-g3" kvg:position="top">
			<path style="fill:none;stroke:#808080" id="kvg:06d17-s4" kvg:type="㇒" d="M48.77,27.75c0.09,1.01,0.12,2.17-0.19,3.15c-2.2,6.85-5.08,13.98-9.58,20.35"/>
			<path style="fill:none;stroke-width:4;" id="kvg:06d17-s5" kvg:type="㇐" d="M49.63,38.29c1.37,0.21,2.5,0.21,4.14,0.03c6.47-0.72,15.86-2.57,23.32-3.94c1.13-0.21,3.84,0.13,4.41,0.27"/>
<circle cx="49.63" cy="38.29" r="5" style="fill:red;stroke:red;" />
		</g>
		<g id="kvg:06d17-g4" kvg:element="儿" kvg:original="八" kvg:position="bottom">
			<g id="kvg:06d17-g5" kvg:element="丿">
			</g>
		</g>
	</g>
</g>
</g></svg>