<?xml version="1.0" encoding="UTF-8"?>
  <!DOCTYPE svg PUBLIC "-//W3C//DTD SVG 1.0//EN" "http://www.w3.org/TR/2001/REC-SVG-20010904/DTD/svg10.dtd" [
  <!ATTLIST g xmlns:kvg CDATA #FIXED "http://kanjivg.tagaini.net" kvg:element CDATA #IMPLIED kvg:variant CDATA #IMPLIED kvg:partial CDATA #IMPLIED kvg:original CDATA #IMPLIED kvg:part CDATA #IMPLIED kvg:number CDATA #IMPLIED kvg:tradForm CDATA #IMPLIED kvg:radicalForm CDATA #IMPLIED kvg:position CDATA #IMPLIED kvg:radical CDATA #IMPLIED kvg:phon CDATA #IMPLIED >
  <!ATTLIST path xmlns:kvg CDATA #FIXED "http://kanjivg.tagaini.net" kvg:type CDATA #IMPLIED >
  ]>
  <svg xmlns="http://www.w3.org/2000/svg" width="109" height="109" viewBox="0 0 109 109">
<g id="kvg:StrokePaths_06d41" style="fill:none;stroke:#000000;stroke-width:3;stroke-linecap:round;stroke-linejoin:round;">
<g id="kvg:06d41" kvg:element="流">
	<g id="kvg:06d41-g1" kvg:element="氵" kvg:variant="true" kvg:original="水" kvg:position="left" kvg:radical="general">
		<path style="fill:none;stroke:#808080" id="kvg:06d41-s1" kvg:type="㇔" d="M18.38,18.25c3.31,1.38,8.54,5.69,9.37,7.84"/>
		<path style="fill:none;stroke:#808080" id="kvg:06d41-s2" kvg:type="㇔" d="M12.12,39.25c3.57,1.59,9.23,6.53,10.12,9"/>
		<path style="fill:none;stroke:#808080" id="kvg:06d41-s3" kvg:type="㇀" d="M12.75,88.84c1.36,0.65,2.76,0.38,3.58-1.01c3.02-5.17,6.05-11.49,8.8-18.08"/>
	</g>
	<g id="kvg:06d41-g2" kvg:element="㐬" kvg:position="right">
		<g id="kvg:06d41-g3" kvg:position="top">
			<g id="kvg:06d41-g4" kvg:element="亠">
				<path style="fill:none;stroke:#808080" id="kvg:06d41-s4" kvg:type="㇑a" d="M58.75,12.75c0.88,0.88,1.3,2.38,1.3,3.37c0,3.06-0.1,4.38-0.1,7.05"/>
				<path style="fill:none;stroke:#808080" id="kvg:06d41-s5" kvg:type="㇐" d="M35.94,26.03c2.58,0.19,4.72,0.33,7.32,0.03c9.27-1.06,28.65-3.45,38.74-4.04c2.16-0.13,4.49-0.42,6.56,0.36"/>
			</g>
			<g id="kvg:06d41-g5" kvg:element="厶">
				<path style="fill:none;stroke-width:4;" id="kvg:06d41-s6" kvg:type="㇜" d="M55.69,28.5c0.31,0.88,0.28,2.06-0.3,2.9c-2.76,3.98-5.88,8.35-10.63,14.1c-2.83,3.43-1.76,3.9,1.75,3c10.25-2.62,20.25-4.75,31.75-7.25"/>
<circle cx="55.69" cy="28.5" r="5" style="fill:red;stroke:red;" />
			</g>
		</g>
		<g id="kvg:06d41-g6" kvg:element="川" kvg:variant="true" kvg:original="巛" kvg:position="bottom">
		</g>
	</g>
</g>
</g></svg>