<?xml version="1.0" encoding="UTF-8"?>
  <!DOCTYPE svg PUBLIC "-//W3C//DTD SVG 1.0//EN" "http://www.w3.org/TR/2001/REC-SVG-20010904/DTD/svg10.dtd" [
  <!ATTLIST g xmlns:kvg CDATA #FIXED "http://kanjivg.tagaini.net" kvg:element CDATA #IMPLIED kvg:variant CDATA #IMPLIED kvg:partial CDATA #IMPLIED kvg:original CDATA #IMPLIED kvg:part CDATA #IMPLIED kvg:number CDATA #IMPLIED kvg:tradForm CDATA #IMPLIED kvg:radicalForm CDATA #IMPLIED kvg:position CDATA #IMPLIED kvg:radical CDATA #IMPLIED kvg:phon CDATA #IMPLIED >
  <!ATTLIST path xmlns:kvg CDATA #FIXED "http://kanjivg.tagaini.net" kvg:type CDATA #IMPLIED >
  ]>
  <svg xmlns="http://www.w3.org/2000/svg" width="109" height="109" viewBox="0 0 109 109">
<g id="kvg:StrokePaths_06d88" style="fill:none;stroke:#000000;stroke-width:3;stroke-linecap:round;stroke-linejoin:round;">
<g id="kvg:06d88" kvg:element="消">
	<g id="kvg:06d88-g1" kvg:element="氵" kvg:variant="true" kvg:original="水" kvg:position="left" kvg:radical="general">
		<path style="fill:none;stroke:#808080" id="kvg:06d88-s1" kvg:type="㇔" d="M23.38,16.25c3.31,1.47,8.74,5.38,10.37,7.84"/>
		<path style="fill:none;stroke:#808080" id="kvg:06d88-s2" kvg:type="㇔" d="M17.12,38.75c4.02,1.15,10.37,6.72,11.38,8.5"/>
		<path style="fill:none;stroke:#808080" id="kvg:06d88-s3" kvg:type="㇀" d="M17.16,91.2c1.46,0.18,2.63-0.53,3.34-1.74C23.25,84.75,27.5,76,30,70"/>
	</g>
	<g id="kvg:06d88-g2" kvg:element="肖" kvg:position="right" kvg:phon="肖">
		<g id="kvg:06d88-g3" kvg:element="⺌" kvg:variant="true" kvg:original="小">
			<path style="fill:none;stroke:#808080" id="kvg:06d88-s4" kvg:type="㇑a" d="M65.99,11.5c1.13,1.13,1.67,2.62,1.67,4.34c0,8.16,0.09,21.01,0.09,24.91"/>
			<path style="fill:none;stroke:#808080" id="kvg:06d88-s5" kvg:type="㇔" d="M43.56,22.58c3.11,1.96,7.29,6.94,8.07,9.99"/>
			<path style="fill:none;stroke:#808080" id="kvg:06d88-s6" kvg:type="㇒" d="M90.21,15.85c0.04,0.78-0.04,1.84-0.31,2.37c-2.15,4.16-4.65,7.78-8.76,11.55"/>
		</g>
		<g id="kvg:06d88-g4" kvg:element="月" kvg:variant="true">
			<path style="fill:none;stroke-width:4;" id="kvg:06d88-s7" kvg:type="㇑" d="M51.61,41.44c1.1,1.1,1.49,2.43,1.49,3.78c0,0.78,0.2,31.1,0.21,45.02c0,2.98,0,5.16,0,6.08"/>
<circle cx="51.61" cy="41.44" r="5" style="fill:red;stroke:red;" />
		</g>
	</g>
</g>
</g></svg>