<?xml version="1.0" encoding="UTF-8"?>
  <!DOCTYPE svg PUBLIC "-//W3C//DTD SVG 1.0//EN" "http://www.w3.org/TR/2001/REC-SVG-20010904/DTD/svg10.dtd" [
  <!ATTLIST g xmlns:kvg CDATA #FIXED "http://kanjivg.tagaini.net" kvg:element CDATA #IMPLIED kvg:variant CDATA #IMPLIED kvg:partial CDATA #IMPLIED kvg:original CDATA #IMPLIED kvg:part CDATA #IMPLIED kvg:number CDATA #IMPLIED kvg:tradForm CDATA #IMPLIED kvg:radicalForm CDATA #IMPLIED kvg:position CDATA #IMPLIED kvg:radical CDATA #IMPLIED kvg:phon CDATA #IMPLIED >
  <!ATTLIST path xmlns:kvg CDATA #FIXED "http://kanjivg.tagaini.net" kvg:type CDATA #IMPLIED >
  ]>
  <svg xmlns="http://www.w3.org/2000/svg" width="109" height="109" viewBox="0 0 109 109">
<g id="kvg:StrokePaths_06db2" style="fill:none;stroke:#000000;stroke-width:3;stroke-linecap:round;stroke-linejoin:round;">
<g id="kvg:06db2" kvg:element="液">
	<g id="kvg:06db2-g1" kvg:element="氵" kvg:variant="true" kvg:original="水" kvg:position="left" kvg:radical="general">
		<path style="fill:none;stroke:#808080" id="kvg:06db2-s1" kvg:type="㇔" d="M19.88,18.25c3.31,1.47,8.54,5.05,9.37,7.34"/>
		<path style="fill:none;stroke:#808080" id="kvg:06db2-s2" kvg:type="㇔" d="M15.75,41c3.79,1.15,9.8,4.72,10.75,6.5"/>
		<path style="fill:none;stroke:#808080" id="kvg:06db2-s3" kvg:type="㇀" d="M12.29,88.08c1.25,0.48,2.51,0.22,3.26-0.97C18.45,82.5,21.36,76.87,24,71"/>
	</g>
	<g id="kvg:06db2-g2" kvg:element="夜" kvg:position="right" kvg:phon="夜">
		<g id="kvg:06db2-g3" kvg:element="亠" kvg:position="top">
			<path style="fill:none;stroke:#808080" id="kvg:06db2-s4" kvg:type="㇑a" d="M63.18,14.94c0.82,0.82,1.5,2.31,1.5,3.93c0,3.93-0.1,4.71-0.1,8.08"/>
			<path style="fill:none;stroke:#808080" id="kvg:06db2-s5" kvg:type="㇐" d="M35.83,31.12c3.34,0.27,6.07,0.39,9.43-0.04c10.17-1.31,28-3.8,39.48-4.48c2.68-0.16,5.66-0.58,8.21,0.48"/>
		</g>
		<g id="kvg:06db2-g4" kvg:position="bottom">
			<g id="kvg:06db2-g5" kvg:element="亻" kvg:variant="true" kvg:original="人">
				<path style="fill:none;stroke-width:4;" id="kvg:06db2-s6" kvg:type="㇒" d="M49.48,37.32c0.39,1.3,0.2,3.07-0.4,4.4c-3.8,8.45-9.12,17.88-17.83,28.16"/>
<circle cx="49.48" cy="37.32" r="5" style="fill:red;stroke:red;" />
			</g>
			<g id="kvg:06db2-g6" kvg:element="夕">
			</g>
		</g>
	</g>
</g>
</g></svg>