<?xml version="1.0" encoding="UTF-8"?>
  <!DOCTYPE svg PUBLIC "-//W3C//DTD SVG 1.0//EN" "http://www.w3.org/TR/2001/REC-SVG-20010904/DTD/svg10.dtd" [
  <!ATTLIST g xmlns:kvg CDATA #FIXED "http://kanjivg.tagaini.net" kvg:element CDATA #IMPLIED kvg:variant CDATA #IMPLIED kvg:partial CDATA #IMPLIED kvg:original CDATA #IMPLIED kvg:part CDATA #IMPLIED kvg:number CDATA #IMPLIED kvg:tradForm CDATA #IMPLIED kvg:radicalForm CDATA #IMPLIED kvg:position CDATA #IMPLIED kvg:radical CDATA #IMPLIED kvg:phon CDATA #IMPLIED >
  <!ATTLIST path xmlns:kvg CDATA #FIXED "http://kanjivg.tagaini.net" kvg:type CDATA #IMPLIED >
  ]>
  <svg xmlns="http://www.w3.org/2000/svg" width="109" height="109" viewBox="0 0 109 109">
<g id="kvg:StrokePaths_06df1" style="fill:none;stroke:#000000;stroke-width:3;stroke-linecap:round;stroke-linejoin:round;">
<g id="kvg:06df1" kvg:element="深">
	<g id="kvg:06df1-g1" kvg:element="氵" kvg:variant="true" kvg:original="水" kvg:position="left" kvg:radical="general">
		<path style="fill:none;stroke:#808080" id="kvg:06df1-s1" kvg:type="㇔" d="M15.88,15.75c3.31,1.47,7.54,5.05,8.37,7.34"/>
		<path style="fill:none;stroke:#808080" id="kvg:06df1-s2" kvg:type="㇔" d="M12,39.75c3.79,1.15,8.8,4.97,9.75,6.75"/>
		<path style="fill:none;stroke:#808080" id="kvg:06df1-s3" kvg:type="㇀" d="M12,90.46c2.38,0.17,3.31-0.89,4.25-2.5c2.75-4.7,5.5-10.45,8-16.45"/>
	</g>
	<g id="kvg:06df1-g2" kvg:position="right">
		<g id="kvg:06df1-g3" kvg:position="top" kvg:phon="㓁+木">
			<g id="kvg:06df1-g4" kvg:element="㓁">
				<g id="kvg:06df1-g5" kvg:element="冖">
					<path style="fill:none;stroke:#808080" id="kvg:06df1-s4" kvg:type="㇔" d="M37.88,19.75c-0.09,3.53-2.33,13.28-3.12,15.38"/>
					<path style="fill:none;stroke:#808080" id="kvg:06df1-s5" kvg:type="㇖b" d="M38.49,21.54c18.39-2.29,27.89-3.53,45.67-4.67c11.59-0.74,3.21,6.01-0.54,9.67"/>
				</g>
				<g id="kvg:06df1-g6" kvg:element="儿" kvg:original="八">
					<g id="kvg:06df1-g7" kvg:element="丿" kvg:position="left">
						<path style="fill:none;stroke-width:4;" id="kvg:06df1-s6" kvg:type="㇒" d="M50.51,26.5c0.07,0.55,0.07,1.41-0.13,2.21C48.57,35.77,46.24,41.16,38.5,48"/>
<circle cx="50.51" cy="26.5" r="5" style="fill:red;stroke:red;" />
					</g>
					<g id="kvg:06df1-g8" kvg:position="right">
					</g>
				</g>
			</g>
			<g id="kvg:06df1-g9" kvg:element="木" kvg:position="bottom">
			</g>
		</g>
	</g>
</g>
</g></svg>