<?xml version="1.0" encoding="UTF-8"?>
  <!DOCTYPE svg PUBLIC "-//W3C//DTD SVG 1.0//EN" "http://www.w3.org/TR/2001/REC-SVG-20010904/DTD/svg10.dtd" [
  <!ATTLIST g xmlns:kvg CDATA #FIXED "http://kanjivg.tagaini.net" kvg:element CDATA #IMPLIED kvg:variant CDATA #IMPLIED kvg:partial CDATA #IMPLIED kvg:original CDATA #IMPLIED kvg:part CDATA #IMPLIED kvg:number CDATA #IMPLIED kvg:tradForm CDATA #IMPLIED kvg:radicalForm CDATA #IMPLIED kvg:position CDATA #IMPLIED kvg:radical CDATA #IMPLIED kvg:phon CDATA #IMPLIED >
  <!ATTLIST path xmlns:kvg CDATA #FIXED "http://kanjivg.tagaini.net" kvg:type CDATA #IMPLIED >
  ]>
  <svg xmlns="http://www.w3.org/2000/svg" width="109" height="109" viewBox="0 0 109 109">
<g id="kvg:StrokePaths_06df7" style="fill:none;stroke:#000000;stroke-width:3;stroke-linecap:round;stroke-linejoin:round;">
<g id="kvg:06df7" kvg:element="混">
	<g id="kvg:06df7-g1" kvg:element="氵" kvg:variant="true" kvg:original="水" kvg:position="left" kvg:radical="general">
		<path style="fill:none;stroke:#808080" id="kvg:06df7-s1" kvg:type="㇔" d="M19.88,16.25C23.45,17.59,27.75,21,30,23.84"/>
		<path style="fill:none;stroke:#808080" id="kvg:06df7-s2" kvg:type="㇔" d="M17.25,40.5c3.88,1.75,7.25,4.25,9.75,7"/>
		<path style="fill:none;stroke:#808080" id="kvg:06df7-s3" kvg:type="㇀" d="M15.88,86.62c1.39,0.52,2.8,0.27,3.63-0.96c3.18-4.69,6.35-10.42,9.24-16.4"/>
	</g>
	<g id="kvg:06df7-g2" kvg:element="昆" kvg:position="right" kvg:phon="昆">
		<g id="kvg:06df7-g3" kvg:element="日" kvg:position="top">
			<path style="fill:none;stroke:#808080" id="kvg:06df7-s4" kvg:type="㇑" d="M41.05,19.04c0.95,0.95,1.71,2.2,1.92,3.82c0.6,4.65,2.12,15.69,2.96,21.83c0.34,2.49,0.56,4.17,0.56,4.28"/>
			<path style="fill:none;stroke-width:4;" id="kvg:06df7-s5" kvg:type="㇕a" d="M43.62,21c11.05-1.78,25.93-3.68,35.75-4.19c3.46-0.18,4.93,0.76,4.48,4.45c-0.4,3.27-1.73,12.88-3.2,21.07c-0.25,1.37-0.5,2.7-0.75,3.96"/>
<circle cx="43.62" cy="21" r="5" style="fill:red;stroke:red;" />
		</g>
		<g id="kvg:06df7-g4" kvg:element="比" kvg:position="bottom">
			<g id="kvg:06df7-g5" kvg:position="left">
			</g>
			<g id="kvg:06df7-g6" kvg:element="匕" kvg:position="right">
			</g>
		</g>
	</g>
</g>
</g></svg>