<?xml version="1.0" encoding="UTF-8"?>
  <!DOCTYPE svg PUBLIC "-//W3C//DTD SVG 1.0//EN" "http://www.w3.org/TR/2001/REC-SVG-20010904/DTD/svg10.dtd" [
  <!ATTLIST g xmlns:kvg CDATA #FIXED "http://kanjivg.tagaini.net" kvg:element CDATA #IMPLIED kvg:variant CDATA #IMPLIED kvg:partial CDATA #IMPLIED kvg:original CDATA #IMPLIED kvg:part CDATA #IMPLIED kvg:number CDATA #IMPLIED kvg:tradForm CDATA #IMPLIED kvg:radicalForm CDATA #IMPLIED kvg:position CDATA #IMPLIED kvg:radical CDATA #IMPLIED kvg:phon CDATA #IMPLIED >
  <!ATTLIST path xmlns:kvg CDATA #FIXED "http://kanjivg.tagaini.net" kvg:type CDATA #IMPLIED >
  ]>
  <svg xmlns="http://www.w3.org/2000/svg" width="109" height="109" viewBox="0 0 109 109">
<g id="kvg:StrokePaths_06e29" style="fill:none;stroke:#000000;stroke-width:3;stroke-linecap:round;stroke-linejoin:round;">
<g id="kvg:06e29" kvg:element="温">
	<g id="kvg:06e29-g1" kvg:element="氵" kvg:variant="true" kvg:original="水" kvg:position="left" kvg:radical="general">
		<path style="fill:none;stroke:#808080" id="kvg:06e29-s1" kvg:type="㇔" d="M21.38,18.75c3.48,1.48,8.99,6.08,9.87,8.38"/>
		<path style="fill:none;stroke:#808080" id="kvg:06e29-s2" kvg:type="㇔" d="M16.25,40.5C19.87,41.78,25,45.25,27,48.25"/>
		<path style="fill:none;stroke:#808080" id="kvg:06e29-s3" kvg:type="㇀" d="M13.62,86.2c2.58,0.69,4.14,0.37,5.17-1.29c2.99-4.83,5.99-10.74,8.71-16.91"/>
	</g>
	<g id="kvg:06e29-g2" kvg:position="right" kvg:phon="温right">
		<g id="kvg:06e29-g3" kvg:element="日">
			<path style="fill:none;stroke:#808080" id="kvg:06e29-s4" kvg:type="㇑" d="M43.89,21.51c0.98,0.99,1.47,2.29,1.62,3.87c0.45,4.72,1.9,18.1,2.6,24.36c0.21,1.82,0.35,3.04,0.38,3.26"/>
			<path style="fill:none;stroke-width:4;" id="kvg:06e29-s5" kvg:type="㇕a" d="M46.24,23.31c8.26-0.93,30.22-3.22,32.31-3.31c2.7-0.12,4.32,1.63,4.17,3.76c-0.11,1.45-3.1,16.63-4.6,23.88c-0.22,1.05-0.38,1.75-0.6,2.56"/>
<circle cx="46.24" cy="23.31" r="5" style="fill:red;stroke:red;" />
		</g>
		<g id="kvg:06e29-g4" kvg:element="皿">
		</g>
	</g>
</g>
</g></svg>