<?xml version="1.0" encoding="UTF-8"?>
  <!DOCTYPE svg PUBLIC "-//W3C//DTD SVG 1.0//EN" "http://www.w3.org/TR/2001/REC-SVG-20010904/DTD/svg10.dtd" [
  <!ATTLIST g xmlns:kvg CDATA #FIXED "http://kanjivg.tagaini.net" kvg:element CDATA #IMPLIED kvg:variant CDATA #IMPLIED kvg:partial CDATA #IMPLIED kvg:original CDATA #IMPLIED kvg:part CDATA #IMPLIED kvg:number CDATA #IMPLIED kvg:tradForm CDATA #IMPLIED kvg:radicalForm CDATA #IMPLIED kvg:position CDATA #IMPLIED kvg:radical CDATA #IMPLIED kvg:phon CDATA #IMPLIED >
  <!ATTLIST path xmlns:kvg CDATA #FIXED "http://kanjivg.tagaini.net" kvg:type CDATA #IMPLIED >
  ]>
  <svg xmlns="http://www.w3.org/2000/svg" width="109" height="109" viewBox="0 0 109 109">
<g id="kvg:StrokePaths_06e2f" style="fill:none;stroke:#000000;stroke-width:3;stroke-linecap:round;stroke-linejoin:round;">
<g id="kvg:06e2f" kvg:element="港">
	<g id="kvg:06e2f-g1" kvg:element="氵" kvg:variant="true" kvg:original="水" kvg:position="left" kvg:radical="general">
		<path style="fill:none;stroke:#808080" id="kvg:06e2f-s1" kvg:type="㇔" d="M19.25,18.38c5.1,1.74,10.05,5.21,12,8.22"/>
		<path style="fill:none;stroke:#808080" id="kvg:06e2f-s2" kvg:type="㇔" d="M13,44.12c4.5,1.35,10.5,4.88,12.75,7.62"/>
		<path style="fill:none;stroke:#808080" id="kvg:06e2f-s3" kvg:type="㇀" d="M14,87.96c1.88,0,2.81-0.39,3.75-2c2.75-4.7,5.5-10.45,8-16.45"/>
	</g>
	<g id="kvg:06e2f-g2" kvg:element="巷" kvg:position="right" kvg:phon="巷">
		<g id="kvg:06e2f-g3" kvg:element="共">
			<path style="fill:none;stroke:#808080" id="kvg:06e2f-s4" kvg:type="㇐" d="M41.91,30.73c1.39,0.28,3.95,0.49,5.32,0.28c9.4-1.51,20.28-3.26,31.6-4.4c2.3-0.23,3.7,0.13,4.85,0.27"/>
			<path style="fill:none;stroke:#808080" id="kvg:06e2f-s5" kvg:type="㇑a" d="M50,16.12c1,1,1.52,1.97,1.57,2.76c0.43,6.37,1.5,18.68,2.03,25.05"/>
			<path style="fill:none;stroke:#808080" id="kvg:06e2f-s6" kvg:type="㇑a" d="M70.79,14.5c0.71,1.12,1.01,2.25,0.88,3.66c-0.93,10.47-1.3,13.47-2.44,24.48"/>
			<path style="fill:none;stroke:#808080" id="kvg:06e2f-s7" kvg:type="㇐" d="M32.13,47.04c1.66,0.36,4.71,0.53,6.35,0.36c12.39-1.34,32.14-3.71,48.35-4.74c2.76-0.17,4.42,0.17,5.8,0.35"/>
			<g id="kvg:06e2f-g4" kvg:element="八">
				<path style="fill:none;stroke-width:4;" id="kvg:06e2f-s8" kvg:type="㇒" d="M52.79,47.78c0.06,0.48,0.22,1.29-0.12,1.94c-2.3,4.41-9.8,14.79-20.8,22.91"/>
<circle cx="52.79" cy="47.78" r="5" style="fill:red;stroke:red;" />
			</g>
		</g>
		<g id="kvg:06e2f-g5" kvg:element="己">
		</g>
	</g>
</g>
</g></svg>