<?xml version="1.0" encoding="UTF-8"?>
  <!DOCTYPE svg PUBLIC "-//W3C//DTD SVG 1.0//EN" "http://www.w3.org/TR/2001/REC-SVG-20010904/DTD/svg10.dtd" [
  <!ATTLIST g xmlns:kvg CDATA #FIXED "http://kanjivg.tagaini.net" kvg:element CDATA #IMPLIED kvg:variant CDATA #IMPLIED kvg:partial CDATA #IMPLIED kvg:original CDATA #IMPLIED kvg:part CDATA #IMPLIED kvg:number CDATA #IMPLIED kvg:tradForm CDATA #IMPLIED kvg:radicalForm CDATA #IMPLIED kvg:position CDATA #IMPLIED kvg:radical CDATA #IMPLIED kvg:phon CDATA #IMPLIED >
  <!ATTLIST path xmlns:kvg CDATA #FIXED "http://kanjivg.tagaini.net" kvg:type CDATA #IMPLIED >
  ]>
  <svg xmlns="http://www.w3.org/2000/svg" width="109" height="109" viewBox="0 0 109 109">
<g id="kvg:StrokePaths_06e56" style="fill:none;stroke:#000000;stroke-width:3;stroke-linecap:round;stroke-linejoin:round;">
<g id="kvg:06e56" kvg:element="湖">
	<g id="kvg:06e56-g1" kvg:element="氵" kvg:variant="true" kvg:original="水" kvg:position="left" kvg:radical="general">
		<path style="fill:none;stroke:#808080" id="kvg:06e56-s1" kvg:type="㇔" d="M20.13,17c3.31,1.47,8.54,6.05,9.37,8.34"/>
		<path style="fill:none;stroke:#808080" id="kvg:06e56-s2" kvg:type="㇔" d="M14.75,38c3.79,1.15,9.8,5.72,10.75,7.5"/>
		<path style="fill:none;stroke:#808080" id="kvg:06e56-s3" kvg:type="㇀" d="M14.75,82.46c1.88,0.42,3.31-0.39,4.25-2C21.75,75.75,24.5,70,27,64"/>
	</g>
	<g id="kvg:06e56-g2" kvg:element="胡" kvg:position="right" kvg:phon="胡">
		<g id="kvg:06e56-g3" kvg:element="古">
			<g id="kvg:06e56-g4" kvg:element="十">
				<path style="fill:none;stroke:#808080" id="kvg:06e56-s4" kvg:type="㇐" d="M32.25,41c1.25,0.62,3.12,0.67,5.5,0.5c7.12-0.5,19.12-2.5,24-3c0.99-0.1,2.62-0.25,3.75,0"/>
				<path style="fill:none;stroke:#808080" id="kvg:06e56-s5" kvg:type="㇑a" d="M48.73,15.63c1.19,1.19,1.7,2.74,1.7,4.43c0,14.43,0.25,33.72,0.12,38.88"/>
			</g>
			<g id="kvg:06e56-g5" kvg:element="口">
				<path style="fill:none;stroke:#808080" id="kvg:06e56-s6" kvg:type="㇑" d="M36.65,60.04c0.84,0.84,1.27,1.96,1.38,3.06c0.39,3.87,1.49,10.11,2.16,15.64c0.13,1.11,0.26,2.18,0.37,3.21"/>
				<path style="fill:none;stroke:#808080" id="kvg:06e56-s7" kvg:type="㇕b" d="M38.7,61.05c5.17-0.62,15.16-2.31,20.05-2.73c2.93-0.26,4.37,0.72,3.93,3.69c-0.57,3.92-1.73,8.91-2.51,13.6"/>
				<path style="fill:none;stroke:#808080" id="kvg:06e56-s8" kvg:type="㇐b" d="M40.37,78.17c3.99-0.24,12.09-1.41,18.01-2.01c1.19-0.12,2.3-0.22,3.27-0.28"/>
			</g>
		</g>
		<g id="kvg:06e56-g6" kvg:element="月">
			<path style="fill:none;stroke-width:4;" id="kvg:06e56-s9" kvg:type="㇓" d="M71.74,20c0.63,0.63,1.19,1.63,1.22,2.58c1.54,44.8-1.71,57.55-12.21,66.92"/>
<circle cx="71.74" cy="20" r="5" style="fill:red;stroke:red;" />
		</g>
	</g>
</g>
</g></svg>