<?xml version="1.0" encoding="UTF-8"?>
  <!DOCTYPE svg PUBLIC "-//W3C//DTD SVG 1.0//EN" "http://www.w3.org/TR/2001/REC-SVG-20010904/DTD/svg10.dtd" [
  <!ATTLIST g xmlns:kvg CDATA #FIXED "http://kanjivg.tagaini.net" kvg:element CDATA #IMPLIED kvg:variant CDATA #IMPLIED kvg:partial CDATA #IMPLIED kvg:original CDATA #IMPLIED kvg:part CDATA #IMPLIED kvg:number CDATA #IMPLIED kvg:tradForm CDATA #IMPLIED kvg:radicalForm CDATA #IMPLIED kvg:position CDATA #IMPLIED kvg:radical CDATA #IMPLIED kvg:phon CDATA #IMPLIED >
  <!ATTLIST path xmlns:kvg CDATA #FIXED "http://kanjivg.tagaini.net" kvg:type CDATA #IMPLIED >
  ]>
  <svg xmlns="http://www.w3.org/2000/svg" width="109" height="109" viewBox="0 0 109 109">
<g id="kvg:StrokePaths_06e6f" style="fill:none;stroke:#000000;stroke-width:3;stroke-linecap:round;stroke-linejoin:round;">
<g id="kvg:06e6f" kvg:element="湯">
	<g id="kvg:06e6f-g1" kvg:element="氵" kvg:variant="true" kvg:original="水" kvg:position="left" kvg:radical="general">
		<path style="fill:none;stroke:#808080" id="kvg:06e6f-s1" kvg:type="㇔" d="M21.76,17.5c3.79,1.38,9.79,5.69,10.74,7.84"/>
		<path style="fill:none;stroke:#808080" id="kvg:06e6f-s2" kvg:type="㇔" d="M15.62,43.75C19.64,45.12,26,49.37,27,51.5"/>
		<path style="fill:none;stroke:#808080" id="kvg:06e6f-s3" kvg:type="㇀" d="M17.41,90.95c1.34,0.3,2.96,0.02,3.59-1.24c3.12-6.33,5.75-12.2,8.25-18.2"/>
	</g>
	<g id="kvg:06e6f-g2" kvg:element="昜" kvg:position="right" kvg:phon="昜">
		<g id="kvg:06e6f-g3" kvg:element="旦" kvg:position="top">
			<g id="kvg:06e6f-g4" kvg:element="日">
				<path style="fill:none;stroke:#808080" id="kvg:06e6f-s4" kvg:type="㇑" d="M47.55,13.84c0.81,0.81,1.68,1.97,1.83,2.8c1,5.49,2.61,15.52,3.69,21.97c0.31,1.84,0.51,3.08,0.54,3.29"/>
				<path style="fill:none;stroke-width:4;" id="kvg:06e6f-s5" kvg:type="㇕a" d="M49.84,15.36c4.93-0.73,18.17-2.49,26.43-3.34c3.64-0.37,6.47,1.11,6.01,5c-0.74,6.25-1.97,13.21-2.87,18.51c-0.2,1.15-0.38,2.23-0.53,3.2"/>
<circle cx="49.84" cy="15.36" r="5" style="fill:red;stroke:red;" />
			</g>
			<g id="kvg:06e6f-g5" kvg:element="一">
			</g>
		</g>
		<g id="kvg:06e6f-g6" kvg:element="勿" kvg:position="bottom">
			<g id="kvg:06e6f-g7" kvg:element="勹">
			</g>
		</g>
	</g>
</g>
</g></svg>