<?xml version="1.0" encoding="UTF-8"?>
  <!DOCTYPE svg PUBLIC "-//W3C//DTD SVG 1.0//EN" "http://www.w3.org/TR/2001/REC-SVG-20010904/DTD/svg10.dtd" [
  <!ATTLIST g xmlns:kvg CDATA #FIXED "http://kanjivg.tagaini.net" kvg:element CDATA #IMPLIED kvg:variant CDATA #IMPLIED kvg:partial CDATA #IMPLIED kvg:original CDATA #IMPLIED kvg:part CDATA #IMPLIED kvg:number CDATA #IMPLIED kvg:tradForm CDATA #IMPLIED kvg:radicalForm CDATA #IMPLIED kvg:position CDATA #IMPLIED kvg:radical CDATA #IMPLIED kvg:phon CDATA #IMPLIED >
  <!ATTLIST path xmlns:kvg CDATA #FIXED "http://kanjivg.tagaini.net" kvg:type CDATA #IMPLIED >
  ]>
  <svg xmlns="http://www.w3.org/2000/svg" width="109" height="109" viewBox="0 0 109 109">
<g id="kvg:StrokePaths_06e80" style="fill:none;stroke:#000000;stroke-width:3;stroke-linecap:round;stroke-linejoin:round;">
<g id="kvg:06e80" kvg:element="満">
	<g id="kvg:06e80-g1" kvg:element="氵" kvg:variant="true" kvg:original="水" kvg:position="left" kvg:radical="general">
		<path style="fill:none;stroke:#808080" id="kvg:06e80-s1" kvg:type="㇔" d="M 19.88,17 c 3.31,1.47 8.12,5.38 10.37,8.34"/>
		<path style="fill:none;stroke:#808080" id="kvg:06e80-s2" kvg:type="㇔" d="M 15.5,38.75 c 3.71,1.41 8.5,5.12 10.5,8"/>
		<path style="fill:none;stroke:#808080" id="kvg:06e80-s3" kvg:type="㇀" d="M 12.62,90.48 c 1.3,0.38 2.57,0 3.35,-1.29 3.32,-5.52 6.64,-12.27 9.65,-19.31"/>
	</g>
	<g id="kvg:06e80-g2" kvg:position="right" kvg:phon="廿+両">
		<g id="kvg:06e80-g3" kvg:element="艹" kvg:position="top">
			<g id="kvg:06e80-g4" kvg:element="十">
				<path style="fill:none;stroke:#808080" id="kvg:06e80-s4" kvg:type="㇐" d="M 37.93726,29.02 c 1.76,0.53 5.09,0.47 6.84,0.28 14.78,-1.67 28.692576,-3.42 41.792576,-4.03 2.93,-0.14 4.69,0.25 6.15,0.51"/>
				<path style="fill:none;stroke:#808080" id="kvg:06e80-s5" kvg:type="㇑a" d="M 51.67,15.5 c 1.04,1.04 1.92,2.36 1.99,3.25 0.84,10.25 1.59,15.75 2,22.25"/>
			</g>
			<path style="fill:none;stroke:#808080" id="kvg:06e80-s6" kvg:type="㇑a" d="M 76.25,13.55 c 0.78,0.79 1.03,1.94 0.85,3.42 -1.06,8.72 -1.67,14.31 -3,22.55"/>
		</g>
		<g id="kvg:06e80-g5" kvg:element="両" kvg:position="bottom">
			<path style="fill:none;stroke-width:4;" id="kvg:06e80-s7" kvg:type="㇐" d="M 36.151595,43.43 c 1.55,0.42 4.402969,0.609834 5.94,0.42 9.752306,-1.204476 35.042963,-2.762866 47.628262,-3.84 2.573863,-0.220289 4.13,0.2 5.42,0.42"/>
<circle cx="36.151595" cy="43.43" r="5" style="fill:red;stroke:red;" />
			<g id="kvg:06e80-g6" kvg:element="冂">
			</g>
			<g id="kvg:06e80-g7" kvg:element="山">
			</g>
		</g>
	</g>
</g>
</g></svg>