<?xml version="1.0" encoding="UTF-8"?>
  <!DOCTYPE svg PUBLIC "-//W3C//DTD SVG 1.0//EN" "http://www.w3.org/TR/2001/REC-SVG-20010904/DTD/svg10.dtd" [
  <!ATTLIST g xmlns:kvg CDATA #FIXED "http://kanjivg.tagaini.net" kvg:element CDATA #IMPLIED kvg:variant CDATA #IMPLIED kvg:partial CDATA #IMPLIED kvg:original CDATA #IMPLIED kvg:part CDATA #IMPLIED kvg:number CDATA #IMPLIED kvg:tradForm CDATA #IMPLIED kvg:radicalForm CDATA #IMPLIED kvg:position CDATA #IMPLIED kvg:radical CDATA #IMPLIED kvg:phon CDATA #IMPLIED >
  <!ATTLIST path xmlns:kvg CDATA #FIXED "http://kanjivg.tagaini.net" kvg:type CDATA #IMPLIED >
  ]>
  <svg xmlns="http://www.w3.org/2000/svg" width="109" height="109" viewBox="0 0 109 109">
<g id="kvg:StrokePaths_06e96" style="fill:none;stroke:#000000;stroke-width:3;stroke-linecap:round;stroke-linejoin:round;">
<g id="kvg:06e96" kvg:element="準">
	<g id="kvg:06e96-g1" kvg:position="top">
		<g id="kvg:06e96-g2" kvg:element="氵" kvg:variant="true" kvg:original="水" kvg:radical="tradit">
			<path style="fill:none;stroke:#808080" id="kvg:06e96-s1" kvg:type="㇔" d="M29.11,12.25c3.12,1.36,8.04,5.61,8.83,7.73"/>
			<path style="fill:none;stroke:#808080" id="kvg:06e96-s2" kvg:type="㇔" d="M21.88,27.12c3.27,1.26,8.44,5.2,9.26,7.17"/>
			<path style="fill:none;stroke:#808080" id="kvg:06e96-s3" kvg:type="㇀" d="M22.51,58.14c1.5,0.73,3.3,0.77,4.25-0.14c2.75-2.64,5.5-5.88,7.99-9.25"/>
		</g>
		<g id="kvg:06e96-g3" kvg:element="隼" kvg:part="1" kvg:phon="隼1">
			<g id="kvg:06e96-g4" kvg:element="隹">
				<g id="kvg:06e96-g5" kvg:element="亻" kvg:variant="true" kvg:original="人">
					<path style="fill:none;stroke:#808080" id="kvg:06e96-s4" kvg:type="㇒" d="M55.36,8.75c0.16,1.17-0.04,2.7-0.56,3.7C51.53,18.83,47.38,24.23,39.88,32"/>
					<path style="fill:none;stroke:#808080" id="kvg:06e96-s5" kvg:type="㇑" d="M50.38,22.98c0.82,0.82,1.42,2.11,1.46,3.51c0.19,6.7,0.21,18.01,0.21,26.76c0,1.81,0,3.21,0.06,4"/>
				</g>
				<path style="fill:none;stroke-width:4;" id="kvg:06e96-s6" kvg:type="㇒" d="M74.9,9.5c0.05,0.57-0.02,1.32-0.19,1.81c-1.14,3.12-2.59,5.52-5.21,9.32"/>
<circle cx="74.9" cy="9.5" r="5" style="fill:red;stroke:red;" />
			</g>
		</g>
	</g>
	<g id="kvg:06e96-g6" kvg:element="隼" kvg:part="2" kvg:position="bottom" kvg:phon="隼2">
		<g id="kvg:06e96-g7" kvg:element="十" kvg:radical="nelson">
		</g>
	</g>
</g>
</g></svg>