<?xml version="1.0" encoding="UTF-8"?>
  <!DOCTYPE svg PUBLIC "-//W3C//DTD SVG 1.0//EN" "http://www.w3.org/TR/2001/REC-SVG-20010904/DTD/svg10.dtd" [
  <!ATTLIST g xmlns:kvg CDATA #FIXED "http://kanjivg.tagaini.net" kvg:element CDATA #IMPLIED kvg:variant CDATA #IMPLIED kvg:partial CDATA #IMPLIED kvg:original CDATA #IMPLIED kvg:part CDATA #IMPLIED kvg:number CDATA #IMPLIED kvg:tradForm CDATA #IMPLIED kvg:radicalForm CDATA #IMPLIED kvg:position CDATA #IMPLIED kvg:radical CDATA #IMPLIED kvg:phon CDATA #IMPLIED >
  <!ATTLIST path xmlns:kvg CDATA #FIXED "http://kanjivg.tagaini.net" kvg:type CDATA #IMPLIED >
  ]>
  <svg xmlns="http://www.w3.org/2000/svg" width="109" height="109" viewBox="0 0 109 109">
<g id="kvg:StrokePaths_06ecb" style="fill:none;stroke:#000000;stroke-width:3;stroke-linecap:round;stroke-linejoin:round;">
<g id="kvg:06ecb" kvg:element="滋">
	<g id="kvg:06ecb-g1" kvg:element="氵" kvg:variant="true" kvg:original="水" kvg:position="left" kvg:radical="general">
		<path style="fill:none;stroke:#808080" id="kvg:06ecb-s1" kvg:type="㇔" d="M22.01,18c3.97,1.38,10.25,5.69,11.24,7.84"/>
		<path style="fill:none;stroke:#808080" id="kvg:06ecb-s2" kvg:type="㇔" d="M14.88,41.25c4.02,1.32,10.37,5.44,11.38,7.5"/>
		<path style="fill:none;stroke:#808080" id="kvg:06ecb-s3" kvg:type="㇀" d="M14.25,87.86c1.25,0.65,2.54,0.41,3.28-0.95c2.74-4.98,5.48-11.06,7.97-17.41"/>
	</g>
	<g id="kvg:06ecb-g2" kvg:element="兹" kvg:variant="true" kvg:original="茲" kvg:position="right" kvg:phon="兹/茲V">
		<g id="kvg:06ecb-g3" kvg:element="艹" kvg:variant="true" kvg:original="艸" kvg:position="top">
			<g id="kvg:06ecb-g4" kvg:element="玄" kvg:part="1" kvg:number="1" kvg:partial="true">
				<g id="kvg:06ecb-g5" kvg:element="亠" kvg:partial="true">
					<path style="fill:none;stroke:#808080" id="kvg:06ecb-s4" kvg:type="㇔" d="M50.32,19.61c2.73,2.12,7.05,8.7,7.74,11.99"/>
				</g>
			</g>
			<path style="fill:none;stroke:#808080" id="kvg:06ecb-s5" kvg:type="㇒" d="M82.11,17.39c0.14,0.7-0.16,1.83-0.39,2.34c-1.97,4.4-5.27,9.84-7.6,12.65"/>
			<path style="fill:none;stroke-width:4;" id="kvg:06ecb-s6" kvg:type="㇐" d="M37.38,38.68c2.87,0.44,5.81,0.4,8.49,0.19c11.66-0.91,23.62-2.46,42.77-3.41c2.82-0.14,5.55-0.09,8.33,0.51"/>
<circle cx="37.38" cy="38.68" r="5" style="fill:red;stroke:red;" />
		</g>
		<g id="kvg:06ecb-g6" kvg:position="bottom">
			<g id="kvg:06ecb-g7" kvg:element="玄" kvg:part="2" kvg:number="1" kvg:partial="true" kvg:position="left">
				<g id="kvg:06ecb-g8" kvg:element="幺">
				</g>
			</g>
			<g id="kvg:06ecb-g9" kvg:element="玄" kvg:part="1" kvg:number="2" kvg:partial="true" kvg:position="right">
				<g id="kvg:06ecb-g10" kvg:element="幺">
				</g>
			</g>
		</g>
	</g>
</g>
</g></svg>