<?xml version="1.0" encoding="UTF-8"?>
  <!DOCTYPE svg PUBLIC "-//W3C//DTD SVG 1.0//EN" "http://www.w3.org/TR/2001/REC-SVG-20010904/DTD/svg10.dtd" [
  <!ATTLIST g xmlns:kvg CDATA #FIXED "http://kanjivg.tagaini.net" kvg:element CDATA #IMPLIED kvg:variant CDATA #IMPLIED kvg:partial CDATA #IMPLIED kvg:original CDATA #IMPLIED kvg:part CDATA #IMPLIED kvg:number CDATA #IMPLIED kvg:tradForm CDATA #IMPLIED kvg:radicalForm CDATA #IMPLIED kvg:position CDATA #IMPLIED kvg:radical CDATA #IMPLIED kvg:phon CDATA #IMPLIED >
  <!ATTLIST path xmlns:kvg CDATA #FIXED "http://kanjivg.tagaini.net" kvg:type CDATA #IMPLIED >
  ]>
  <svg xmlns="http://www.w3.org/2000/svg" width="109" height="109" viewBox="0 0 109 109">
<g id="kvg:StrokePaths_06f22" style="fill:none;stroke:#000000;stroke-width:3;stroke-linecap:round;stroke-linejoin:round;">
<g id="kvg:06f22" kvg:element="漢">
	<g id="kvg:06f22-g1" kvg:element="氵" kvg:variant="true" kvg:original="水" kvg:position="left" kvg:radical="general">
		<path style="fill:none;stroke:#808080" id="kvg:06f22-s1" kvg:type="㇔" d="M20,19.5c3.62,1.47,8.62,5.38,10.25,8.34"/>
		<path style="fill:none;stroke:#808080" id="kvg:06f22-s2" kvg:type="㇔" d="M15.25,44.12c4.24,1.43,10.94,5.9,12,8.12"/>
		<path style="fill:none;stroke:#808080" id="kvg:06f22-s3" kvg:type="㇀" d="M15.41,89.2c1.46,0.43,2.88-0.03,3.59-1.24c2.75-4.7,5.5-10.45,8-16.45"/>
	</g>
	<g id="kvg:06f22-g2" kvg:position="right" kvg:phon="𦰩">
		<g id="kvg:06f22-g3" kvg:element="艹" kvg:variant="true" kvg:original="艸" kvg:position="top">
			<path style="fill:none;stroke:#808080" id="kvg:06f22-s4" kvg:type="㇐" d="M36.07,23.3c2,0.54,5.08,0.53,7.07,0.27C55,21.98,71.25,20.32,83.19,19.6c3.32-0.2,5.57,0.23,7.24,0.5"/>
			<path style="fill:none;stroke-width:4;" id="kvg:06f22-s5" kvg:type="㇑a" d="M49.35,13.24c1.28,0.76,1.96,1.77,2.17,2.86c1.24,6.52,1.74,10.35,2.13,12.65"/>
<circle cx="49.35" cy="13.24" r="5" style="fill:red;stroke:red;" />
		</g>
		<g id="kvg:06f22-g4" kvg:position="bottom">
			<g id="kvg:06f22-g5" kvg:element="口">
			</g>
			<g id="kvg:06f22-g6" kvg:element="夫">
				<g id="kvg:06f22-g7" kvg:element="大">
				</g>
			</g>
		</g>
	</g>
</g>
</g></svg>