<?xml version="1.0" encoding="UTF-8"?>
  <!DOCTYPE svg PUBLIC "-//W3C//DTD SVG 1.0//EN" "http://www.w3.org/TR/2001/REC-SVG-20010904/DTD/svg10.dtd" [
  <!ATTLIST g xmlns:kvg CDATA #FIXED "http://kanjivg.tagaini.net" kvg:element CDATA #IMPLIED kvg:variant CDATA #IMPLIED kvg:partial CDATA #IMPLIED kvg:original CDATA #IMPLIED kvg:part CDATA #IMPLIED kvg:number CDATA #IMPLIED kvg:tradForm CDATA #IMPLIED kvg:radicalForm CDATA #IMPLIED kvg:position CDATA #IMPLIED kvg:radical CDATA #IMPLIED kvg:phon CDATA #IMPLIED >
  <!ATTLIST path xmlns:kvg CDATA #FIXED "http://kanjivg.tagaini.net" kvg:type CDATA #IMPLIED >
  ]>
  <svg xmlns="http://www.w3.org/2000/svg" width="109" height="109" viewBox="0 0 109 109">
<g id="kvg:StrokePaths_06f54" style="fill:none;stroke:#000000;stroke-width:3;stroke-linecap:round;stroke-linejoin:round;">
<g id="kvg:06f54" kvg:element="潔">
	<g id="kvg:06f54-g1" kvg:element="氵" kvg:variant="true" kvg:original="水" kvg:position="left" kvg:radical="general">
		<path style="fill:none;stroke:#808080" id="kvg:06f54-s1" kvg:type="㇔" d="M19.63,16.25c3.48,1.3,9,5.33,9.87,7.34"/>
		<path style="fill:none;stroke:#808080" id="kvg:06f54-s2" kvg:type="㇔" d="M15.75,42.5c3.79,1.15,9.8,4.72,10.75,6.5"/>
		<path style="fill:none;stroke:#808080" id="kvg:06f54-s3" kvg:type="㇀" d="M15.25,87.63c1.47,0.51,2.95,0.23,3.83-1.03c3.41-4.89,6.82-10.86,9.92-17.1"/>
	</g>
	<g id="kvg:06f54-g2" kvg:element="絜" kvg:position="right" kvg:phon="絜">
		<g id="kvg:06f54-g3" kvg:position="top">
			<path style="fill:none;stroke:#808080" id="kvg:06f54-s4" kvg:type="㇐" d="M36.75,23.9c1.75,0.35,3.35,0.23,4.88,0.01c4.63-0.68,10.72-2.53,14.12-3.34c1.21-0.29,2.37-0.37,3-0.24"/>
			<path style="fill:none;stroke:#808080" id="kvg:06f54-s5" kvg:type="㇑a" d="M47.37,12.75c0.75,0.75,1.21,1.98,1.21,3c0,7.25,0.03,16.75,0.03,27.5"/>
			<path style="fill:none;stroke-width:4;" id="kvg:06f54-s6" kvg:type="㇐" d="M37,33.89c1.46,0.74,3.39,0.32,4.89,0.07c3.83-0.64,7.53-1.59,11.25-2.5c1.25-0.31,3.1-0.83,4.35-0.7"/>
<circle cx="37" cy="33.89" r="5" style="fill:red;stroke:red;" />
			<g id="kvg:06f54-g4" kvg:element="刀">
			</g>
		</g>
		<g id="kvg:06f54-g5" kvg:element="糸" kvg:position="bottom">
		</g>
	</g>
</g>
</g></svg>