<?xml version="1.0" encoding="UTF-8"?>
  <!DOCTYPE svg PUBLIC "-//W3C//DTD SVG 1.0//EN" "http://www.w3.org/TR/2001/REC-SVG-20010904/DTD/svg10.dtd" [
  <!ATTLIST g xmlns:kvg CDATA #FIXED "http://kanjivg.tagaini.net" kvg:element CDATA #IMPLIED kvg:variant CDATA #IMPLIED kvg:partial CDATA #IMPLIED kvg:original CDATA #IMPLIED kvg:part CDATA #IMPLIED kvg:number CDATA #IMPLIED kvg:tradForm CDATA #IMPLIED kvg:radicalForm CDATA #IMPLIED kvg:position CDATA #IMPLIED kvg:radical CDATA #IMPLIED kvg:phon CDATA #IMPLIED >
  <!ATTLIST path xmlns:kvg CDATA #FIXED "http://kanjivg.tagaini.net" kvg:type CDATA #IMPLIED >
  ]>
  <svg xmlns="http://www.w3.org/2000/svg" width="109" height="109" viewBox="0 0 109 109">
<g id="kvg:StrokePaths_06f6e" style="fill:none;stroke:#000000;stroke-width:3;stroke-linecap:round;stroke-linejoin:round;">
<g id="kvg:06f6e" kvg:element="潮">
	<g id="kvg:06f6e-g1" kvg:element="氵" kvg:variant="true" kvg:original="水" kvg:position="left" kvg:radical="general">
		<path style="fill:none;stroke:#808080" id="kvg:06f6e-s1" kvg:type="㇔" d="M20.63,16.75c2.87,1.47,7.4,6.05,8.12,8.34"/>
		<path style="fill:none;stroke:#808080" id="kvg:06f6e-s2" kvg:type="㇔" d="M12.25,39.75c3.53,1.5,9.12,6.17,10,8.5"/>
		<path style="fill:none;stroke:#808080" id="kvg:06f6e-s3" kvg:type="㇀" d="M14.16,88.7c1.18,0.49,2.38,0.22,3.09-0.99c2.75-4.7,5.5-10.45,8-16.45"/>
	</g>
	<g id="kvg:06f6e-g2" kvg:element="朝" kvg:position="right" kvg:phon="朝">
		<g id="kvg:06f6e-g3" kvg:element="𠦝" kvg:position="left">
			<g id="kvg:06f6e-g4" kvg:element="十" kvg:position="top">
				<path style="fill:none;stroke:#808080" id="kvg:06f6e-s4" kvg:type="㇐" d="M36.04,29.63c1.46,0.25,3.22,0.14,3.87,0c4.59-1,13.79-3.17,18.6-3.76c1.21-0.15,3.58-0.6,4.74-0.05"/>
				<path style="fill:none;stroke:#808080" id="kvg:06f6e-s5" kvg:type="㇑a" d="M48.98,14c0.89,0.89,1.31,2.12,1.31,3.45c0,2.67-0.11,16.8-0.11,22.05"/>
			</g>
			<g id="kvg:06f6e-g5" kvg:element="早" kvg:position="bottom">
				<g id="kvg:06f6e-g6" kvg:element="日">
					<path style="fill:none;stroke-width:4;" id="kvg:06f6e-s6" kvg:type="㇑" d="M35.37,41.94c0.78,0.78,1.26,1.92,1.41,2.7c1.22,6.11,1.64,9.92,2.56,15.84c0.36,2.31,0.61,3.95,0.61,4.06"/>
<circle cx="35.37" cy="41.94" r="5" style="fill:red;stroke:red;" />
				</g>
				<g id="kvg:06f6e-g7" kvg:element="十">
				</g>
			</g>
		</g>
		<g id="kvg:06f6e-g8" kvg:element="月" kvg:position="right">
		</g>
	</g>
</g>
</g></svg>