<?xml version="1.0" encoding="UTF-8"?>
  <!DOCTYPE svg PUBLIC "-//W3C//DTD SVG 1.0//EN" "http://www.w3.org/TR/2001/REC-SVG-20010904/DTD/svg10.dtd" [
  <!ATTLIST g xmlns:kvg CDATA #FIXED "http://kanjivg.tagaini.net" kvg:element CDATA #IMPLIED kvg:variant CDATA #IMPLIED kvg:partial CDATA #IMPLIED kvg:original CDATA #IMPLIED kvg:part CDATA #IMPLIED kvg:number CDATA #IMPLIED kvg:tradForm CDATA #IMPLIED kvg:radicalForm CDATA #IMPLIED kvg:position CDATA #IMPLIED kvg:radical CDATA #IMPLIED kvg:phon CDATA #IMPLIED >
  <!ATTLIST path xmlns:kvg CDATA #FIXED "http://kanjivg.tagaini.net" kvg:type CDATA #IMPLIED >
  ]>
  <svg xmlns="http://www.w3.org/2000/svg" width="109" height="109" viewBox="0 0 109 109">
<g id="kvg:StrokePaths_070ad" style="fill:none;stroke:#000000;stroke-width:3;stroke-linecap:round;stroke-linejoin:round;">
<g id="kvg:070ad" kvg:element="炭">
	<g id="kvg:070ad-g1" kvg:element="山" kvg:position="top" kvg:radical="nelson">
		<path style="fill:none;stroke:#808080" id="kvg:070ad-s1" kvg:type="㇑a" d="M52.51,13.38c0.99,0.99,1.86,2.62,1.86,3.9c0,1.97-0.19,9.22-0.19,13.98"/>
		<path style="fill:none;stroke:#808080" id="kvg:070ad-s2" kvg:type="㇄a" d="M29.68,21c0.56,0.33,0.95,1.5,0.87,2.66c-0.17,2.59-0.42,5.47-0.84,9.26c-0.17,1.52,1.09,2.64,2.36,2.28c8.43-2.45,43.33-5.17,48.35-5.3"/>
		<path style="fill:none;stroke-width:4;" id="kvg:070ad-s3" kvg:type="㇑" d="M81.02,16.62c0.93,0.93,1.23,2,1.12,3.15c-0.28,2.96-0.62,6.15-0.84,9.23c-0.08,1.17-0.15,2.33-0.19,3.46"/>
<circle cx="81.02" cy="16.62" r="5" style="fill:red;stroke:red;" />
	</g>
	<g id="kvg:070ad-g2" kvg:element="灰" kvg:position="bottom">
		<g id="kvg:070ad-g3" kvg:element="厂" kvg:position="tare">
		</g>
		<g id="kvg:070ad-g4" kvg:element="火" kvg:position="tarec" kvg:radical="tradit">
		</g>
	</g>
</g>
</g></svg>