<?xml version="1.0" encoding="UTF-8"?>
  <!DOCTYPE svg PUBLIC "-//W3C//DTD SVG 1.0//EN" "http://www.w3.org/TR/2001/REC-SVG-20010904/DTD/svg10.dtd" [
  <!ATTLIST g xmlns:kvg CDATA #FIXED "http://kanjivg.tagaini.net" kvg:element CDATA #IMPLIED kvg:variant CDATA #IMPLIED kvg:partial CDATA #IMPLIED kvg:original CDATA #IMPLIED kvg:part CDATA #IMPLIED kvg:number CDATA #IMPLIED kvg:tradForm CDATA #IMPLIED kvg:radicalForm CDATA #IMPLIED kvg:position CDATA #IMPLIED kvg:radical CDATA #IMPLIED kvg:phon CDATA #IMPLIED >
  <!ATTLIST path xmlns:kvg CDATA #FIXED "http://kanjivg.tagaini.net" kvg:type CDATA #IMPLIED >
  ]>
  <svg xmlns="http://www.w3.org/2000/svg" width="109" height="109" viewBox="0 0 109 109">
<g id="kvg:StrokePaths_07121" style="fill:none;stroke:#000000;stroke-width:3;stroke-linecap:round;stroke-linejoin:round;">
<g id="kvg:07121" kvg:element="無">
	<g id="kvg:07121-g1" kvg:position="top" kvg:phon="丿+2+一+3+3+3+3+2">
		<g id="kvg:07121-g2" kvg:element="丿">
			<path style="fill:none;stroke:#808080" id="kvg:07121-s1" kvg:type="㇒" d="M40.82,12.5c0.05,0.6-0.24,1.75-0.6,2.39C36,22.5,30.38,30.38,21.5,36.54"/>
		</g>
		<path style="fill:none;stroke:#808080" id="kvg:07121-s2" kvg:type="㇐" d="M38.5,25.25c1.1,0.07,2.47,0.06,4-0.05c11-0.82,22.62-2.95,30.73-4.34c1.71-0.29,3.8-0.51,5.52-0.09"/>
		<g id="kvg:07121-g3" kvg:element="一">
			<path style="fill:none;stroke:#808080" id="kvg:07121-s3" kvg:type="㇐" d="M13.25,49.95c2.42,0.54,6.6,0.55,9,0.29c16.13-1.74,45.88-4.12,66.29-4.98c4.02-0.17,6.45,0.26,8.47,0.53"/>
		</g>
		<path style="fill:none;stroke:#808080" id="kvg:07121-s4" kvg:type="㇑a" d="M32.12,38.5c0.88,0.88,1.35,2.23,1.46,3.25c0.42,4,1.17,13.75,1.92,25"/>
		<path style="fill:none;stroke-width:4;" id="kvg:07121-s5" kvg:type="㇑a" d="M46.37,33.5c0.88,0.88,1.45,2.48,1.46,3.5c0.05,8,0.17,12.88,0.67,28.75"/>
<circle cx="46.37" cy="33.5" r="5" style="fill:red;stroke:red;" />
	</g>
	<g id="kvg:07121-g4" kvg:element="灬" kvg:variant="true" kvg:original="火" kvg:position="bottom" kvg:radical="general">
	</g>
</g>
</g></svg>