<?xml version="1.0" encoding="UTF-8"?>
  <!DOCTYPE svg PUBLIC "-//W3C//DTD SVG 1.0//EN" "http://www.w3.org/TR/2001/REC-SVG-20010904/DTD/svg10.dtd" [
  <!ATTLIST g xmlns:kvg CDATA #FIXED "http://kanjivg.tagaini.net" kvg:element CDATA #IMPLIED kvg:variant CDATA #IMPLIED kvg:partial CDATA #IMPLIED kvg:original CDATA #IMPLIED kvg:part CDATA #IMPLIED kvg:number CDATA #IMPLIED kvg:tradForm CDATA #IMPLIED kvg:radicalForm CDATA #IMPLIED kvg:position CDATA #IMPLIED kvg:radical CDATA #IMPLIED kvg:phon CDATA #IMPLIED >
  <!ATTLIST path xmlns:kvg CDATA #FIXED "http://kanjivg.tagaini.net" kvg:type CDATA #IMPLIED >
  ]>
  <svg xmlns="http://www.w3.org/2000/svg" width="109" height="109" viewBox="0 0 109 109">
<g id="kvg:StrokePaths_0713c" style="fill:none;stroke:#000000;stroke-width:3;stroke-linecap:round;stroke-linejoin:round;">
<g id="kvg:0713c" kvg:element="焼">
	<g id="kvg:0713c-g1" kvg:element="火" kvg:position="left" kvg:radical="general">
		<path style="fill:none;stroke:#808080" id="kvg:0713c-s1" kvg:type="㇔" d="M12.62,36.75c1.7,2.48,4.16,9.52,4.62,12"/>
		<path style="fill:none;stroke:#808080" id="kvg:0713c-s2" kvg:type="㇒" d="M40.49,30.75c0.38,1,0.26,2.34-0.38,3.22c-1.86,2.53-3.98,5.53-7.86,9.78"/>
		<path style="fill:none;stroke:#808080" id="kvg:0713c-s3" kvg:type="㇒" d="M27.76,18.25c0.74,0.72,0.99,2.18,0.99,3.38C28.6,69.4,23.88,75.88,10.25,90.5"/>
		<path style="fill:none;stroke:#808080" id="kvg:0713c-s4" kvg:type="㇔/㇏" d="M29.38,63.88c4.73,4.33,8.51,10.11,10.88,16.38"/>
	</g>
	<g id="kvg:0713c-g2" kvg:element="尭" kvg:position="right">
		<g id="kvg:0713c-g3" kvg:element="卉" kvg:position="top">
			<g id="kvg:0713c-g4" kvg:element="十" kvg:position="top">
				<path style="fill:none;stroke:#808080" id="kvg:0713c-s5" kvg:type="㇐" d="M50.61,25.75c2.14,0.5,4.4,0.11,6.52-0.12c6.98-0.77,17.72-2.23,26.13-2.96c1.97-0.17,3.7-0.44,5.64-0.03"/>
				<path style="fill:none;stroke:#808080" id="kvg:0713c-s6" kvg:type="㇑" d="M67.86,12.63c0.75,0.76,1.28,1.99,1.28,3.24c0,0.69,0.05,9.38,0.07,16c0,1.58,0.01,3.04,0.01,4.25"/>
			</g>
			<g id="kvg:0713c-g5" kvg:element="廾" kvg:position="bottom">
				<g id="kvg:0713c-g6" kvg:element="十" kvg:part="1">
					<path style="fill:none;stroke-width:4;" id="kvg:0713c-s7" kvg:type="㇐" d="M43.65,48.13c2.6,0.49,4.58,0.39,6.73,0.16c9.98-1.07,27.12-2.66,39.12-3.62c2.44-0.19,4.89-0.32,7.27,0.37"/>
<circle cx="43.65" cy="48.13" r="5" style="fill:red;stroke:red;" />
				</g>
				<g id="kvg:0713c-g7" kvg:element="丿">
				</g>
				<g id="kvg:0713c-g8" kvg:element="十" kvg:part="2">
				</g>
			</g>
		</g>
		<g id="kvg:0713c-g9" kvg:position="bottom">
			<g id="kvg:0713c-g10" kvg:element="兀">
				<g id="kvg:0713c-g11" kvg:element="一">
				</g>
			</g>
			<g id="kvg:0713c-g12" kvg:element="儿" kvg:original="八">
				<g id="kvg:0713c-g13" kvg:element="丿">
				</g>
			</g>
		</g>
	</g>
</g>
</g></svg>