<?xml version="1.0" encoding="UTF-8"?>
  <!DOCTYPE svg PUBLIC "-//W3C//DTD SVG 1.0//EN" "http://www.w3.org/TR/2001/REC-SVG-20010904/DTD/svg10.dtd" [
  <!ATTLIST g xmlns:kvg CDATA #FIXED "http://kanjivg.tagaini.net" kvg:element CDATA #IMPLIED kvg:variant CDATA #IMPLIED kvg:partial CDATA #IMPLIED kvg:original CDATA #IMPLIED kvg:part CDATA #IMPLIED kvg:number CDATA #IMPLIED kvg:tradForm CDATA #IMPLIED kvg:radicalForm CDATA #IMPLIED kvg:position CDATA #IMPLIED kvg:radical CDATA #IMPLIED kvg:phon CDATA #IMPLIED >
  <!ATTLIST path xmlns:kvg CDATA #FIXED "http://kanjivg.tagaini.net" kvg:type CDATA #IMPLIED >
  ]>
  <svg xmlns="http://www.w3.org/2000/svg" width="109" height="109" viewBox="0 0 109 109">
<g id="kvg:StrokePaths_07167" style="fill:none;stroke:#000000;stroke-width:3;stroke-linecap:round;stroke-linejoin:round;">
<g id="kvg:07167" kvg:element="照">
	<g id="kvg:07167-g1" kvg:element="昭" kvg:position="top" kvg:phon="昭">
		<g id="kvg:07167-g2" kvg:element="日" kvg:position="left">
			<path style="fill:none;stroke:#808080" id="kvg:07167-s1" kvg:type="㇑" d="M20.75,21.33c1.02,1.02,1.45,2.66,1.45,3.95c0,0.99,0.01,24.12,0.02,35.23c0,3.42,0,5.69,0,5.85"/>
			<path style="fill:none;stroke:#808080" id="kvg:07167-s2" kvg:type="㇕a" d="M23.02,23.66c1.63-0.23,11.93-2.17,16.49-3c3-0.54,4.3,0.25,4.18,3.45c-0.19,4.95-0.28,22.53-0.27,35.21c0,1.46-0.12,3.6-0.12,4.57"/>
			<path style="fill:none;stroke:#808080" id="kvg:07167-s3" kvg:type="㇐a" d="M23.37,42.32c4.51-0.57,14.76-2.32,18.88-2.73"/>
			<path style="fill:none;stroke:#808080" id="kvg:07167-s4" kvg:type="㇐a" d="M23.52,61.71c3.92-0.23,13.67-1.38,18.74-1.67"/>
		</g>
		<g id="kvg:07167-g3" kvg:element="召" kvg:position="right">
			<g id="kvg:07167-g4" kvg:element="刀">
				<path style="fill:none;stroke:#808080" id="kvg:07167-s5" kvg:type="㇆" d="M53.76,18.64c0.67,0.33,2.71,0.6,3.76,0.51c8.56-0.77,22.2-2.9,26.95-3.19c2.97-0.18,4.66,0.77,4.07,3.83c-0.96,4.94-4.29,13.47-7.04,18.73c-2.75,5.24-7.55,0.01-8.23-0.64"/>
				<path style="fill:none;stroke-width:4;" id="kvg:07167-s6" kvg:type="㇒" d="M68,21.35c0.05,0.55,0.14,1.44-0.1,2.23c-2.43,8.02-6.54,14.5-16.27,22.46"/>
<circle cx="68" cy="21.35" r="5" style="fill:red;stroke:red;" />
			</g>
			<g id="kvg:07167-g5" kvg:element="口">
			</g>
		</g>
	</g>
	<g id="kvg:07167-g6" kvg:element="灬" kvg:variant="true" kvg:original="火" kvg:position="bottom" kvg:radical="general">
	</g>
</g>
</g></svg>