<?xml version="1.0" encoding="UTF-8"?>
  <!DOCTYPE svg PUBLIC "-//W3C//DTD SVG 1.0//EN" "http://www.w3.org/TR/2001/REC-SVG-20010904/DTD/svg10.dtd" [
  <!ATTLIST g xmlns:kvg CDATA #FIXED "http://kanjivg.tagaini.net" kvg:element CDATA #IMPLIED kvg:variant CDATA #IMPLIED kvg:partial CDATA #IMPLIED kvg:original CDATA #IMPLIED kvg:part CDATA #IMPLIED kvg:number CDATA #IMPLIED kvg:tradForm CDATA #IMPLIED kvg:radicalForm CDATA #IMPLIED kvg:position CDATA #IMPLIED kvg:radical CDATA #IMPLIED kvg:phon CDATA #IMPLIED >
  <!ATTLIST path xmlns:kvg CDATA #FIXED "http://kanjivg.tagaini.net" kvg:type CDATA #IMPLIED >
  ]>
  <svg xmlns="http://www.w3.org/2000/svg" width="109" height="109" viewBox="0 0 109 109">
<g id="kvg:StrokePaths_0719f" style="fill:none;stroke:#000000;stroke-width:3;stroke-linecap:round;stroke-linejoin:round;">
<g id="kvg:0719f" kvg:element="熟">
	<g id="kvg:0719f-g1" kvg:element="孰" kvg:position="top" kvg:phon="孰">
		<g id="kvg:0719f-g2" kvg:element="享" kvg:position="left">
			<g id="kvg:0719f-g3" kvg:element="亠" kvg:position="top">
				<path style="fill:none;stroke:#808080" id="kvg:0719f-s1" kvg:type="㇑a" d="M34.17,11.7c0.88,0.88,1.07,2.17,1.07,3.42c0,2.85-0.11,4-0.11,6.77"/>
				<path style="fill:none;stroke:#808080" id="kvg:0719f-s2" kvg:type="㇐" d="M14.12,24.09c1.75,0.54,3.71,0.79,5.4,0.6c7.32-0.83,19.6-2.93,29.5-4.04c1.35-0.15,2.73-0.14,3.81,0.08"/>
			</g>
			<g id="kvg:0719f-g4" kvg:position="bottom">
				<g id="kvg:0719f-g5" kvg:element="口">
					<path style="fill:none;stroke:#808080" id="kvg:0719f-s3" kvg:type="㇑" d="M21.28,31.97c0.6,0.4,1.22,1.21,1.36,1.92c0.66,1.67,1.45,4.14,2.05,6.56c0.23,0.95,0.44,1.89,0.6,2.78"/>
					<path style="fill:none;stroke-width:4;" id="kvg:0719f-s4" kvg:type="㇕b" d="M23.23,32.68c6.78-1.33,15.46-2.98,19.89-3.61c2.6-0.37,4.1-0.01,3.3,2.79c-0.5,1.77-0.85,3.07-1.67,6"/>
<circle cx="23.23" cy="32.68" r="5" style="fill:red;stroke:red;" />
				</g>
				<g id="kvg:0719f-g6" kvg:element="子" kvg:variant="true">
				</g>
			</g>
		</g>
		<g id="kvg:0719f-g7" kvg:element="丸" kvg:position="right">
			<g id="kvg:0719f-g8" kvg:element="九">
				<g id="kvg:0719f-g9" kvg:element="乙">
				</g>
			</g>
			<g id="kvg:0719f-g10" kvg:element="丶">
			</g>
		</g>
	</g>
	<g id="kvg:0719f-g11" kvg:element="灬" kvg:variant="true" kvg:original="火" kvg:position="bottom" kvg:radical="general">
	</g>
</g>
</g></svg>