<?xml version="1.0" encoding="UTF-8"?>
  <!DOCTYPE svg PUBLIC "-//W3C//DTD SVG 1.0//EN" "http://www.w3.org/TR/2001/REC-SVG-20010904/DTD/svg10.dtd" [
  <!ATTLIST g xmlns:kvg CDATA #FIXED "http://kanjivg.tagaini.net" kvg:element CDATA #IMPLIED kvg:variant CDATA #IMPLIED kvg:partial CDATA #IMPLIED kvg:original CDATA #IMPLIED kvg:part CDATA #IMPLIED kvg:number CDATA #IMPLIED kvg:tradForm CDATA #IMPLIED kvg:radicalForm CDATA #IMPLIED kvg:position CDATA #IMPLIED kvg:radical CDATA #IMPLIED kvg:phon CDATA #IMPLIED >
  <!ATTLIST path xmlns:kvg CDATA #FIXED "http://kanjivg.tagaini.net" kvg:type CDATA #IMPLIED >
  ]>
  <svg xmlns="http://www.w3.org/2000/svg" width="109" height="109" viewBox="0 0 109 109">
<g id="kvg:StrokePaths_071b1" style="fill:none;stroke:#000000;stroke-width:3;stroke-linecap:round;stroke-linejoin:round;">
<g id="kvg:071b1" kvg:element="熱">
	<g id="kvg:071b1-g1" kvg:element="埶" kvg:position="top" kvg:phon="埶">
		<g id="kvg:071b1-g2" kvg:position="left">
			<g id="kvg:071b1-g3" kvg:element="土">
				<path style="fill:none;stroke:#808080" id="kvg:071b1-s1" kvg:type="㇐" d="M20.73,25.14c1.16,0.45,2.57,0.29,3.78,0.2c4.79-0.39,13.58-1.65,18.51-1.98c1.5-0.1,3.03-0.16,4.51,0.19"/>
				<path style="fill:none;stroke:#808080" id="kvg:071b1-s2" kvg:type="㇑a" d="M33.96,11.62c0.53,0.53,1.02,1.59,1.02,2.92c0,8.34-0.26,16.84-0.26,20.1"/>
				<path style="fill:none;stroke:#808080" id="kvg:071b1-s3" kvg:type="㇐" d="M15.43,37.9c1.09,0.39,3.08,0.53,4.16,0.39C29.25,37,40.25,35,48.52,34.04c1.8-0.21,2.9,0.18,3.8,0.38"/>
			</g>
			<g id="kvg:071b1-g4" kvg:element="儿" kvg:original="八">
				<g id="kvg:071b1-g5" kvg:element="丿" kvg:position="left">
					<path style="fill:none;stroke:#808080" id="kvg:071b1-s4" kvg:type="㇒" d="M25.09,41.7c0.06,0.44,0.14,1.15-0.13,1.76c-2.34,5.29-5.71,8.79-11.96,13.89"/>
				</g>
				<g id="kvg:071b1-g6" kvg:position="right">
					<path style="fill:none;stroke-width:4;" id="kvg:071b1-s5" kvg:type="㇟a/㇏" d="M40.48,36.9c0.59,0.72,1.09,1.82,1.09,2.92c0,1.49-0.18,4.29-0.18,5.35c0,2.9,2.01,3.85,5.86,3.85c3.48,0,6.04-0.25,7.51-1.19"/>
<circle cx="40.48" cy="36.9" r="5" style="fill:red;stroke:red;" />
				</g>
			</g>
			<g id="kvg:071b1-g7" kvg:element="土">
			</g>
		</g>
		<g id="kvg:071b1-g8" kvg:element="丸" kvg:position="right">
			<g id="kvg:071b1-g9" kvg:element="九">
				<g id="kvg:071b1-g10" kvg:element="乙">
				</g>
			</g>
			<g id="kvg:071b1-g11" kvg:element="丶">
			</g>
		</g>
	</g>
	<g id="kvg:071b1-g12" kvg:element="灬" kvg:variant="true" kvg:original="火" kvg:position="bottom" kvg:radical="general">
	</g>
</g>
</g></svg>