<?xml version="1.0" encoding="UTF-8"?>
  <!DOCTYPE svg PUBLIC "-//W3C//DTD SVG 1.0//EN" "http://www.w3.org/TR/2001/REC-SVG-20010904/DTD/svg10.dtd" [
  <!ATTLIST g xmlns:kvg CDATA #FIXED "http://kanjivg.tagaini.net" kvg:element CDATA #IMPLIED kvg:variant CDATA #IMPLIED kvg:partial CDATA #IMPLIED kvg:original CDATA #IMPLIED kvg:part CDATA #IMPLIED kvg:number CDATA #IMPLIED kvg:tradForm CDATA #IMPLIED kvg:radicalForm CDATA #IMPLIED kvg:position CDATA #IMPLIED kvg:radical CDATA #IMPLIED kvg:phon CDATA #IMPLIED >
  <!ATTLIST path xmlns:kvg CDATA #FIXED "http://kanjivg.tagaini.net" kvg:type CDATA #IMPLIED >
  ]>
  <svg xmlns="http://www.w3.org/2000/svg" width="109" height="109" viewBox="0 0 109 109">
<g id="kvg:StrokePaths_071c3" style="fill:none;stroke:#000000;stroke-width:3;stroke-linecap:round;stroke-linejoin:round;">
<g id="kvg:071c3" kvg:element="燃">
	<g id="kvg:071c3-g1" kvg:element="火" kvg:position="left" kvg:radical="general">
		<path style="fill:none;stroke:#808080" id="kvg:071c3-s1" kvg:type="㇔" d="M13.23,36.53c1.22,2.8,3,10.73,3.33,13.53"/>
		<path style="fill:none;stroke:#808080" id="kvg:071c3-s2" kvg:type="㇒" d="M36.16,27.96c0,0.91-0.51,2.26-1.04,3.09c-0.53,0.84-3.74,4.7-6.76,7.35"/>
		<path style="fill:none;stroke:#808080" id="kvg:071c3-s3" kvg:type="㇒" d="M24.81,18c0.78,0.78,1.22,2.36,1.22,3.51c0.09,38.37-2.91,52.74-14.65,67.24"/>
		<path style="fill:none;stroke:#808080" id="kvg:071c3-s4" kvg:type="㇔/㇏" d="M26.25,64.38c2.73,2.24,6.18,9.33,6.9,12.5"/>
	</g>
	<g id="kvg:071c3-g2" kvg:element="然" kvg:position="right" kvg:phon="然">
		<g id="kvg:071c3-g3" kvg:position="top">
			<g id="kvg:071c3-g4" kvg:element="月" kvg:position="left">
				<path style="fill:none;stroke:#808080" id="kvg:071c3-s5" kvg:type="㇒" d="M47.29,21.5c0.37,0.71,0.51,1.94-0.01,3.32c-2.66,7.06-7.03,15.93-11.85,22.32"/>
				<path style="fill:none;stroke:#808080" id="kvg:071c3-s6" kvg:type="㇇/㇆" d="M49.99,24.95c0.6-0.1,1.73-0.19,3.03-0.62c2.25-0.73,4.77-1.44,6.24-1.78c2.34-0.53,3.32,0.9,2.52,3.42C57.25,40.12,51.5,53.5,40.19,65.03"/>
				<path style="fill:none;stroke-width:4;" id="kvg:071c3-s7" kvg:type="㇔/㇐" d="M46.45,34.13c1.07,0.29,5.37,2.05,7.52,3.8"/>
<circle cx="46.45" cy="34.13" r="5" style="fill:red;stroke:red;" />
			</g>
			<g id="kvg:071c3-g5" kvg:element="犬" kvg:position="right">
				<g id="kvg:071c3-g6" kvg:element="大">
				</g>
				<g id="kvg:071c3-g7" kvg:element="丶">
				</g>
			</g>
		</g>
		<g id="kvg:071c3-g8" kvg:element="灬" kvg:variant="true" kvg:original="火" kvg:position="bottom">
		</g>
	</g>
</g>
</g></svg>