<?xml version="1.0" encoding="UTF-8"?>
  <!DOCTYPE svg PUBLIC "-//W3C//DTD SVG 1.0//EN" "http://www.w3.org/TR/2001/REC-SVG-20010904/DTD/svg10.dtd" [
  <!ATTLIST g xmlns:kvg CDATA #FIXED "http://kanjivg.tagaini.net" kvg:element CDATA #IMPLIED kvg:variant CDATA #IMPLIED kvg:partial CDATA #IMPLIED kvg:original CDATA #IMPLIED kvg:part CDATA #IMPLIED kvg:number CDATA #IMPLIED kvg:tradForm CDATA #IMPLIED kvg:radicalForm CDATA #IMPLIED kvg:position CDATA #IMPLIED kvg:radical CDATA #IMPLIED kvg:phon CDATA #IMPLIED >
  <!ATTLIST path xmlns:kvg CDATA #FIXED "http://kanjivg.tagaini.net" kvg:type CDATA #IMPLIED >
  ]>
  <svg xmlns="http://www.w3.org/2000/svg" width="109" height="109" viewBox="0 0 109 109">
<g id="kvg:StrokePaths_07279" style="fill:none;stroke:#000000;stroke-width:3;stroke-linecap:round;stroke-linejoin:round;">
<g id="kvg:07279" kvg:element="特">
	<g id="kvg:07279-g1" kvg:element="牛" kvg:variant="true" kvg:position="left" kvg:radical="general">
		<path style="fill:none;stroke:#808080" id="kvg:07279-s1" kvg:type="㇒" d="M22.03,26.39c0.22,0.73,0.4,1.84,0.2,2.69c-1.35,5.79-4.6,15.04-9.42,23.38"/>
		<path style="fill:none;stroke:#808080" id="kvg:07279-s2" kvg:type="㇐" d="M21.25,41.5c1.25,0.12,2.07,0.06,3.28-0.12c7.6-1.13,12.97-2.13,17.22-2.88c1.23-0.22,3.25-0.38,4.5,0"/>
		<path style="fill:none;stroke:#808080" id="kvg:07279-s3" kvg:type="㇑" d="M31.87,15c0.94,0.94,1.46,2.62,1.46,4c0,0.87,0.02,51.18,0.03,70.87c0,3.48,0,6,0,7.13"/>
		<path style="fill:none;stroke:#808080" id="kvg:07279-s4" kvg:type="㇀" d="M13.08,71.24c1.17,0.46,2.29,0.46,3.55-0.29c1.12-0.67,20.1-12.21,24.87-15.44"/>
	</g>
	<g id="kvg:07279-g2" kvg:element="寺" kvg:position="right" kvg:phon="寺">
		<g id="kvg:07279-g3" kvg:element="土" kvg:position="top">
			<path style="fill:none;stroke-width:4;" id="kvg:07279-s5" kvg:type="㇐" d="M52.38,27.53c1.37,0.31,3.9,0.21,5.25,0.06c5.54-0.6,19.12-2.59,26.33-3.06c2.27-0.15,3.65,0.15,4.79,0.3"/>
<circle cx="52.38" cy="27.53" r="5" style="fill:red;stroke:red;" />
		</g>
		<g id="kvg:07279-g4" kvg:element="寸" kvg:position="bottom">
		</g>
	</g>
</g>
</g></svg>