<?xml version="1.0" encoding="UTF-8"?>
  <!DOCTYPE svg PUBLIC "-//W3C//DTD SVG 1.0//EN" "http://www.w3.org/TR/2001/REC-SVG-20010904/DTD/svg10.dtd" [
  <!ATTLIST g xmlns:kvg CDATA #FIXED "http://kanjivg.tagaini.net" kvg:element CDATA #IMPLIED kvg:variant CDATA #IMPLIED kvg:partial CDATA #IMPLIED kvg:original CDATA #IMPLIED kvg:part CDATA #IMPLIED kvg:number CDATA #IMPLIED kvg:tradForm CDATA #IMPLIED kvg:radicalForm CDATA #IMPLIED kvg:position CDATA #IMPLIED kvg:radical CDATA #IMPLIED kvg:phon CDATA #IMPLIED >
  <!ATTLIST path xmlns:kvg CDATA #FIXED "http://kanjivg.tagaini.net" kvg:type CDATA #IMPLIED >
  ]>
  <svg xmlns="http://www.w3.org/2000/svg" width="109" height="109" viewBox="0 0 109 109">
<g id="kvg:StrokePaths_072b6" style="fill:none;stroke:#000000;stroke-width:3;stroke-linecap:round;stroke-linejoin:round;">
<g id="kvg:072b6" kvg:element="状">
	<g id="kvg:072b6-g1" kvg:element="⺦" kvg:variant="true" kvg:original="爿" kvg:position="left" kvg:radical="nelson" kvg:phon="丬">
		<path style="fill:none;stroke:#808080" id="kvg:072b6-s1" kvg:type="㇑" d="M33.37,16.5c0.94,0.94,1.46,3,1.46,4.25c0,0.85-0.11,46.62-0.11,67c0,3.92,0.03,6,0.03,7.87"/>
		<path style="fill:none;stroke:#808080" id="kvg:072b6-s2" kvg:type="㇔" d="M14.75,30.5c3.53,1.85,8.12,6.62,10,10.5"/>
		<path style="fill:none;stroke:#808080" id="kvg:072b6-s3" kvg:type="㇀" d="M11.25,73.14c1.5,0.99,3.37,0.36,4.54-0.96C19.21,68.34,21.5,66,26.75,59.5"/>
	</g>
	<g id="kvg:072b6-g2" kvg:element="犬" kvg:position="right" kvg:radical="tradit">
		<g id="kvg:072b6-g3" kvg:element="大">
			<path style="fill:none;stroke:#808080" id="kvg:072b6-s4" kvg:type="㇐" d="M43.88,47.11c2,0.64,4.9,0.47,6.62,0.26c8.75-1.08,24.18-3.39,31.96-4.29c1.79-0.21,4.41-0.21,6.19,0.17"/>
			<path style="fill:none;stroke-width:4;" id="kvg:072b6-s5" kvg:type="㇒" d="M63.01,16.5c1,0.99,1.42,2.66,1.49,4.82c1,29.68-2.75,57.56-21.72,72.43"/>
<circle cx="63.01" cy="16.5" r="5" style="fill:red;stroke:red;" />
		</g>
		<g id="kvg:072b6-g4" kvg:element="丶">
		</g>
	</g>
</g>
</g></svg>