<?xml version="1.0" encoding="UTF-8"?>
  <!DOCTYPE svg PUBLIC "-//W3C//DTD SVG 1.0//EN" "http://www.w3.org/TR/2001/REC-SVG-20010904/DTD/svg10.dtd" [
  <!ATTLIST g xmlns:kvg CDATA #FIXED "http://kanjivg.tagaini.net" kvg:element CDATA #IMPLIED kvg:variant CDATA #IMPLIED kvg:partial CDATA #IMPLIED kvg:original CDATA #IMPLIED kvg:part CDATA #IMPLIED kvg:number CDATA #IMPLIED kvg:tradForm CDATA #IMPLIED kvg:radicalForm CDATA #IMPLIED kvg:position CDATA #IMPLIED kvg:radical CDATA #IMPLIED kvg:phon CDATA #IMPLIED >
  <!ATTLIST path xmlns:kvg CDATA #FIXED "http://kanjivg.tagaini.net" kvg:type CDATA #IMPLIED >
  ]>
  <svg xmlns="http://www.w3.org/2000/svg" width="109" height="109" viewBox="0 0 109 109">
<g id="kvg:StrokePaths_073ed" style="fill:none;stroke:#000000;stroke-width:3;stroke-linecap:round;stroke-linejoin:round;">
<g id="kvg:073ed" kvg:element="班">
	<g id="kvg:073ed-g1" kvg:element="王" kvg:original="玉" kvg:partial="true" kvg:position="left" kvg:radical="general">
		<path style="fill:none;stroke:#808080" id="kvg:073ed-s1" kvg:type="㇐" d="M14.27,27.36c1.73,0.39,4.47,0.15,5.76,0c4.17-0.5,10.77-1.61,15.63-2.28c1.81-0.25,3.5-0.41,5.34-0.18"/>
		<path style="fill:none;stroke:#808080" id="kvg:073ed-s2" kvg:type="㇑a" d="M27.06,29.8c1,1,1.31,2.61,1.31,4.17c0,11.15-0.02,32.52-0.02,42.71"/>
		<path style="fill:none;stroke:#808080" id="kvg:073ed-s3" kvg:type="㇐" d="M14.32,52.05c1.68,0.45,3.76,0.28,4.83,0.07c4.56-0.86,11.26-2,16.28-2.94c0.73-0.14,2.36-0.4,3.46-0.08"/>
		<path style="fill:none;stroke:#808080" id="kvg:073ed-s4" kvg:type="㇀/㇐" d="M14.66,81.11c0.97,1.02,2.34,1.14,4.09,0.39c8.09-3.47,12-5.5,22.36-9.66"/>
	</g>
	<g id="kvg:073ed-g2" kvg:position="right">
		<g id="kvg:073ed-g3" kvg:element="刂" kvg:variant="true" kvg:original="刀">
			<path style="fill:none;stroke:#808080" id="kvg:073ed-s5" kvg:type="㇑" d="M46.02,35.33c0.98,0.92,1.76,1.99,1.76,5.02c0,8.6-0.01,14.48-0.02,18.9c0,2.46-0.01,4.47-0.01,6.25"/>
			<path style="fill:none;stroke:#808080" id="kvg:073ed-s6" kvg:type="㇒/㇚" d="M56.85,14.5c0.82,0.82,1.54,2.12,1.54,4.39C58.39,43.87,60,78,42.06,94.72"/>
		</g>
		<g id="kvg:073ed-g4" kvg:element="王" kvg:original="玉" kvg:partial="true">
			<path style="fill:none;stroke-width:4;" id="kvg:073ed-s7" kvg:type="㇐" d="M67.85,23.19c1.65,0.44,3.27,0.69,4.88,0.48c5.5-0.71,12.33-1.87,17.38-2.58c1.19-0.17,2.63-0.21,3.87,0.1"/>
<circle cx="67.85" cy="23.19" r="5" style="fill:red;stroke:red;" />
		</g>
	</g>
</g>
</g></svg>