<?xml version="1.0" encoding="UTF-8"?>
  <!DOCTYPE svg PUBLIC "-//W3C//DTD SVG 1.0//EN" "http://www.w3.org/TR/2001/REC-SVG-20010904/DTD/svg10.dtd" [
  <!ATTLIST g xmlns:kvg CDATA #FIXED "http://kanjivg.tagaini.net" kvg:element CDATA #IMPLIED kvg:variant CDATA #IMPLIED kvg:partial CDATA #IMPLIED kvg:original CDATA #IMPLIED kvg:part CDATA #IMPLIED kvg:number CDATA #IMPLIED kvg:tradForm CDATA #IMPLIED kvg:radicalForm CDATA #IMPLIED kvg:position CDATA #IMPLIED kvg:radical CDATA #IMPLIED kvg:phon CDATA #IMPLIED >
  <!ATTLIST path xmlns:kvg CDATA #FIXED "http://kanjivg.tagaini.net" kvg:type CDATA #IMPLIED >
  ]>
  <svg xmlns="http://www.w3.org/2000/svg" width="109" height="109" viewBox="0 0 109 109">
<g id="kvg:StrokePaths_07403" style="fill:none;stroke:#000000;stroke-width:3;stroke-linecap:round;stroke-linejoin:round;">
<g id="kvg:07403" kvg:element="球">
	<g id="kvg:07403-g1" kvg:element="王" kvg:original="玉" kvg:partial="true" kvg:position="left" kvg:radical="general">
		<path style="fill:none;stroke:#808080" id="kvg:07403-s1" kvg:type="㇐" d="M13.25,29.25c0.73,0.37,3.54,0.4,4.28,0.34c5.93-0.47,11.49-1.59,19.43-2.64c1.12-0.15,3.22-0.26,4.16,0.04"/>
		<path style="fill:none;stroke:#808080" id="kvg:07403-s2" kvg:type="㇑a" d="M26.82,31.77c1.21,1.21,1.48,2.73,1.48,4.48c0,5.95,0.1,35.5,0.1,40.82"/>
		<path style="fill:none;stroke:#808080" id="kvg:07403-s3" kvg:type="㇐" d="M12.5,54.5c1.12,0.5,3,0.46,4.01,0.37c5.73-0.51,13.61-1.9,20.23-3.19c1.39-0.27,3.13-0.55,4.5-0.31"/>
		<path style="fill:none;stroke:#808080" id="kvg:07403-s4" kvg:type="㇀/㇐" d="M13,84.25c1.12,0.5,2.65,0.13,3.5-0.25c6.12-2.75,12-6,21.25-11"/>
	</g>
	<g id="kvg:07403-g2" kvg:element="求" kvg:position="right" kvg:phon="求">
		<path style="fill:none;stroke:#808080" id="kvg:07403-s5" kvg:type="㇐" d="M46.14,34.91c2.48,0.33,4.95,0.3,7.39-0.09c10.37-1.36,21.08-2.24,31.39-3.32c2.38-0.2,4.75-0.12,7.13,0.24"/>
		<g id="kvg:07403-g3" kvg:element="氺" kvg:variant="true" kvg:original="水">
			<path style="fill:none;stroke-width:4;" id="kvg:07403-s6" kvg:type="㇚" d="M66.21,13.71c0.98,0.98,1.66,2.67,1.66,4.59c0,15.33-0.24,65.12-0.24,69.69c0,7.45-5,2.96-8.27,0.23"/>
<circle cx="66.21" cy="13.71" r="5" style="fill:red;stroke:red;" />
		</g>
		<g id="kvg:07403-g4" kvg:element="丶">
		</g>
	</g>
</g>
</g></svg>