<?xml version="1.0" encoding="UTF-8"?>
  <!DOCTYPE svg PUBLIC "-//W3C//DTD SVG 1.0//EN" "http://www.w3.org/TR/2001/REC-SVG-20010904/DTD/svg10.dtd" [
  <!ATTLIST g xmlns:kvg CDATA #FIXED "http://kanjivg.tagaini.net" kvg:element CDATA #IMPLIED kvg:variant CDATA #IMPLIED kvg:partial CDATA #IMPLIED kvg:original CDATA #IMPLIED kvg:part CDATA #IMPLIED kvg:number CDATA #IMPLIED kvg:tradForm CDATA #IMPLIED kvg:radicalForm CDATA #IMPLIED kvg:position CDATA #IMPLIED kvg:radical CDATA #IMPLIED kvg:phon CDATA #IMPLIED >
  <!ATTLIST path xmlns:kvg CDATA #FIXED "http://kanjivg.tagaini.net" kvg:type CDATA #IMPLIED >
  ]>
  <svg xmlns="http://www.w3.org/2000/svg" width="109" height="109" viewBox="0 0 109 109">
<g id="kvg:StrokePaths_07406" style="fill:none;stroke:#000000;stroke-width:3;stroke-linecap:round;stroke-linejoin:round;">
<g id="kvg:07406" kvg:element="理">
	<g id="kvg:07406-g1" kvg:element="王" kvg:variant="true" kvg:original="玉" kvg:partial="true" kvg:position="left" kvg:radical="general">
		<path style="fill:none;stroke:#808080" id="kvg:07406-s1" kvg:type="㇐" d="M11.75,27.75c1.87,0.5,3.23,0.52,5.1,0.25c6.9-1,13.82-2.25,19.42-3.25c1.21-0.22,2.49,0,3.73,0"/>
		<path style="fill:none;stroke:#808080" id="kvg:07406-s2" kvg:type="㇑a" d="M26.25,30.25c1,1,1.75,2.5,1.75,3.75s0,40.25,0,43"/>
		<path style="fill:none;stroke:#808080" id="kvg:07406-s3" kvg:type="㇐" d="M15.25,52.09c1.25,0.19,1.98,0.58,4.25,0.19c5.88-1.02,14.39-3.36,16.75-4.09c1-0.31,1.88-0.44,3-0.44"/>
		<path style="fill:none;stroke-width:4;" id="kvg:07406-s4" kvg:type="㇀/㇐" d="M12.75,82.75c1.25,1,3.3,0.91,4.25,0.5c5.75-2.5,17.25-8,22-10.5"/>
<circle cx="12.75" cy="82.75" r="5" style="fill:red;stroke:red;" />
	</g>
	<g id="kvg:07406-g2" kvg:element="里" kvg:position="right" kvg:phon="里">
		<g id="kvg:07406-g3" kvg:element="日">
		</g>
	</g>
</g>
</g></svg>