<?xml version="1.0" encoding="UTF-8"?>
  <!DOCTYPE svg PUBLIC "-//W3C//DTD SVG 1.0//EN" "http://www.w3.org/TR/2001/REC-SVG-20010904/DTD/svg10.dtd" [
  <!ATTLIST g xmlns:kvg CDATA #FIXED "http://kanjivg.tagaini.net" kvg:element CDATA #IMPLIED kvg:variant CDATA #IMPLIED kvg:partial CDATA #IMPLIED kvg:original CDATA #IMPLIED kvg:part CDATA #IMPLIED kvg:number CDATA #IMPLIED kvg:tradForm CDATA #IMPLIED kvg:radicalForm CDATA #IMPLIED kvg:position CDATA #IMPLIED kvg:radical CDATA #IMPLIED kvg:phon CDATA #IMPLIED >
  <!ATTLIST path xmlns:kvg CDATA #FIXED "http://kanjivg.tagaini.net" kvg:type CDATA #IMPLIED >
  ]>
  <svg xmlns="http://www.w3.org/2000/svg" width="109" height="109" viewBox="0 0 109 109">
<g id="kvg:StrokePaths_07565" style="fill:none;stroke:#000000;stroke-width:3;stroke-linecap:round;stroke-linejoin:round;">
<g id="kvg:07565" kvg:element="略">
	<g id="kvg:07565-g1" kvg:element="田" kvg:position="left" kvg:radical="general">
		<path style="fill:none;stroke:#808080" id="kvg:07565-s1" kvg:type="㇑" d="M12.37,33.18c0.66,0.66,0.97,2.03,1.09,2.98c0.86,6.97,1.24,24.04,1.72,37.84c0.06,1.64,0.11,3.23,0.17,4.76"/>
		<path style="fill:none;stroke:#808080" id="kvg:07565-s2" kvg:type="㇕a" d="M14.39,35.1c9.74-1.85,17.22-2.86,22.92-3.62c2.09-0.28,4.16,1.98,4.05,4.06c-0.38,6.99-0.32,23.26-0.8,35.2c-0.05,1.13-0.09,2.22-0.12,3.25"/>
		<path style="fill:none;stroke:#808080" id="kvg:07565-s3" kvg:type="㇑a" d="M26.73,34.13c0.63,0.63,0.97,1.74,0.97,2.86c0,9.1,0.14,32.39,0.14,35.66"/>
		<path style="fill:none;stroke:#808080" id="kvg:07565-s4" kvg:type="㇐a" d="M15.75,53.34c2.49-0.38,22.33-2.64,24.39-2.64"/>
		<path style="fill:none;stroke:#808080" id="kvg:07565-s5" kvg:type="㇐a" d="M16.25,75.73c8.5-1.23,14.25-2.23,23.24-2.95"/>
	</g>
	<g id="kvg:07565-g2" kvg:element="各" kvg:position="right" kvg:phon="各">
		<g id="kvg:07565-g3" kvg:element="夂" kvg:position="top">
			<path style="fill:none;stroke-width:4;" id="kvg:07565-s6" kvg:type="㇒" d="M60.81,14c0,0.88-0.01,1.89-0.33,2.88C58.5,23,53.88,35.38,46.87,44.42"/>
<circle cx="60.81" cy="14" r="5" style="fill:red;stroke:red;" />
		</g>
		<g id="kvg:07565-g4" kvg:element="口" kvg:position="bottom">
		</g>
	</g>
</g>
</g></svg>