<?xml version="1.0" encoding="UTF-8"?>
  <!DOCTYPE svg PUBLIC "-//W3C//DTD SVG 1.0//EN" "http://www.w3.org/TR/2001/REC-SVG-20010904/DTD/svg10.dtd" [
  <!ATTLIST g xmlns:kvg CDATA #FIXED "http://kanjivg.tagaini.net" kvg:element CDATA #IMPLIED kvg:variant CDATA #IMPLIED kvg:partial CDATA #IMPLIED kvg:original CDATA #IMPLIED kvg:part CDATA #IMPLIED kvg:number CDATA #IMPLIED kvg:tradForm CDATA #IMPLIED kvg:radicalForm CDATA #IMPLIED kvg:position CDATA #IMPLIED kvg:radical CDATA #IMPLIED kvg:phon CDATA #IMPLIED >
  <!ATTLIST path xmlns:kvg CDATA #FIXED "http://kanjivg.tagaini.net" kvg:type CDATA #IMPLIED >
  ]>
  <svg xmlns="http://www.w3.org/2000/svg" width="109" height="109" viewBox="0 0 109 109">
<g id="kvg:StrokePaths_075c5" style="fill:none;stroke:#000000;stroke-width:3;stroke-linecap:round;stroke-linejoin:round;">
<g id="kvg:075c5" kvg:element="病">
	<g id="kvg:075c5-g1" kvg:element="疒" kvg:position="tare" kvg:radical="general">
		<path style="fill:none;stroke:#808080" id="kvg:075c5-s1" kvg:type="㇑a" d="M57.56,11.13c1.28,1.28,1.76,2.99,1.76,4.15c0,0.79,0.08,4.65-0.07,9.46"/>
		<path style="fill:none;stroke:#808080" id="kvg:075c5-s2" kvg:type="㇐" d="M29.13,27.23c3.83,0.64,7.8,0.45,11.64,0.03c13.61-1.5,29.11-3.25,41.36-3.85c3.58-0.17,7.23-0.35,10.75,0.41"/>
		<path style="fill:none;stroke:#808080" id="kvg:075c5-s3" kvg:type="㇒" d="M30.99,28c1.07,1.07,1.48,2.59,1.41,4.88c-0.78,27.99-0.66,44.74-16.1,61.59"/>
		<path style="fill:none;stroke-width:4;" id="kvg:075c5-s4" kvg:type="㇔" d="M15,38c2.74,1.63,7.07,6.71,7.75,9.25"/>
<circle cx="15" cy="38" r="5" style="fill:red;stroke:red;" />
	</g>
	<g id="kvg:075c5-g2" kvg:element="丙" kvg:position="tarec" kvg:phon="丙">
		<g id="kvg:075c5-g3" kvg:element="一">
		</g>
		<g id="kvg:075c5-g4" kvg:element="内">
			<g id="kvg:075c5-g5" kvg:element="冂">
			</g>
			<g id="kvg:075c5-g6" kvg:element="人">
			</g>
		</g>
	</g>
</g>
</g></svg>