<?xml version="1.0" encoding="UTF-8"?>
  <!DOCTYPE svg PUBLIC "-//W3C//DTD SVG 1.0//EN" "http://www.w3.org/TR/2001/REC-SVG-20010904/DTD/svg10.dtd" [
  <!ATTLIST g xmlns:kvg CDATA #FIXED "http://kanjivg.tagaini.net" kvg:element CDATA #IMPLIED kvg:variant CDATA #IMPLIED kvg:partial CDATA #IMPLIED kvg:original CDATA #IMPLIED kvg:part CDATA #IMPLIED kvg:number CDATA #IMPLIED kvg:tradForm CDATA #IMPLIED kvg:radicalForm CDATA #IMPLIED kvg:position CDATA #IMPLIED kvg:radical CDATA #IMPLIED kvg:phon CDATA #IMPLIED >
  <!ATTLIST path xmlns:kvg CDATA #FIXED "http://kanjivg.tagaini.net" kvg:type CDATA #IMPLIED >
  ]>
  <svg xmlns="http://www.w3.org/2000/svg" width="109" height="109" viewBox="0 0 109 109">
<g id="kvg:StrokePaths_075db" style="fill:none;stroke:#000000;stroke-width:3;stroke-linecap:round;stroke-linejoin:round;">
<g id="kvg:075db" kvg:element="痛">
	<g id="kvg:075db-g1" kvg:element="疒" kvg:position="tare" kvg:radical="general">
		<path style="fill:none;stroke:#808080" id="kvg:075db-s1" kvg:type="㇑a" d="M55.06,11.38c0.97,0.97,1.26,2.49,1.26,3.9c0,0.79-0.07,4.59-0.07,7.46"/>
		<path style="fill:none;stroke:#808080" id="kvg:075db-s2" kvg:type="㇐" d="M26.13,25.73c2.75,0.65,5.94,0.63,8.74,0.35c15.75-1.58,34.38-3.7,48-4.74c2.76-0.21,5.53-0.35,8.25,0.23"/>
		<path style="fill:none;stroke:#808080" id="kvg:075db-s3" kvg:type="㇒" d="M29.24,26.75c1,1,1.43,2.12,1.41,3.63c-0.16,16.74,1.09,47.49-14.1,62.59"/>
		<path style="fill:none;stroke:#808080" id="kvg:075db-s4" kvg:type="㇔" d="M14.5,38.5c2.74,1.98,6.75,7.5,7.75,11.25"/>
		<path style="fill:none;stroke:#808080" id="kvg:075db-s5" kvg:type="㇀" d="M11.8,67.48c1.2,0.77,2.56,0.49,3.75-0.41c4.15-3.13,5.99-4.91,10.7-9.07"/>
	</g>
	<g id="kvg:075db-g2" kvg:element="甬" kvg:position="tarec" kvg:phon="甬">
		<g id="kvg:075db-g3" kvg:element="マ" kvg:position="top">
			<path style="fill:none;stroke:#808080" id="kvg:075db-s6" kvg:type="㇇" d="M43.12,35.65c1.86,0.72,3.85,0.59,5.77,0.31c5.52-0.81,21.23-3.33,27.57-4.29c3.03-0.46,3.92,1.48,1.94,3.28c-1.08,0.98-9.52,8.42-13.43,11.67"/>
			<path style="fill:none;stroke-width:4;" id="kvg:075db-s7" kvg:type="㇔" d="M56.62,42c2.46,1.01,8.81,4.89,9.97,7.52"/>
<circle cx="56.62" cy="42" r="5" style="fill:red;stroke:red;" />
		</g>
		<g id="kvg:075db-g4" kvg:element="用" kvg:position="bottom">
		</g>
	</g>
</g>
</g></svg>