<?xml version="1.0" encoding="UTF-8"?>
  <!DOCTYPE svg PUBLIC "-//W3C//DTD SVG 1.0//EN" "http://www.w3.org/TR/2001/REC-SVG-20010904/DTD/svg10.dtd" [
  <!ATTLIST g xmlns:kvg CDATA #FIXED "http://kanjivg.tagaini.net" kvg:element CDATA #IMPLIED kvg:variant CDATA #IMPLIED kvg:partial CDATA #IMPLIED kvg:original CDATA #IMPLIED kvg:part CDATA #IMPLIED kvg:number CDATA #IMPLIED kvg:tradForm CDATA #IMPLIED kvg:radicalForm CDATA #IMPLIED kvg:position CDATA #IMPLIED kvg:radical CDATA #IMPLIED kvg:phon CDATA #IMPLIED >
  <!ATTLIST path xmlns:kvg CDATA #FIXED "http://kanjivg.tagaini.net" kvg:type CDATA #IMPLIED >
  ]>
  <svg xmlns="http://www.w3.org/2000/svg" width="109" height="109" viewBox="0 0 109 109">
<g id="kvg:StrokePaths_0767d" style="fill:none;stroke:#000000;stroke-width:3;stroke-linecap:round;stroke-linejoin:round;">
<g id="kvg:0767d" kvg:element="白" kvg:radical="general">
	<g id="kvg:0767d-g1" kvg:position="top">
		<path style="fill:none;stroke:#808080" id="kvg:0767d-s1" kvg:type="㇒" d="M55,13c0.38,1.5,0,3.25-0.57,4.29C51.32,22.93,46,31.12,36.81,40.22"/>
	</g>
	<g id="kvg:0767d-g2" kvg:element="日" kvg:position="bottom">
		<path style="fill:none;stroke:#808080" id="kvg:0767d-s2" kvg:type="㇑" d="M25.5,40.47c1.14,1.14,1.63,2.81,1.63,4.63c0,1.55,0.95,32.47,1.32,47.14c0.06,2.58,0.13,4.66,0.18,6"/>
		<path style="fill:none;stroke:#808080" id="kvg:0767d-s3" kvg:type="㇕a" d="M28.27,43.98c13.98-1.73,39.08-4.47,49.67-5.48c5.19-0.5,7.37,0.76,7.06,5.38c-0.62,9.12-2.09,30.3-3.29,46.88c-0.17,2.42-0.33,4.65-0.46,6.57"/>
		<path style="fill:none;stroke-width:4;" id="kvg:0767d-s4" kvg:type="㇐a" d="M29.13,67.44C42.25,66,72.38,63.62,82.57,63.4"/>
<circle cx="29.13" cy="67.44" r="5" style="fill:red;stroke:red;" />
	</g>
</g>
</g></svg>