<?xml version="1.0" encoding="UTF-8"?>
  <!DOCTYPE svg PUBLIC "-//W3C//DTD SVG 1.0//EN" "http://www.w3.org/TR/2001/REC-SVG-20010904/DTD/svg10.dtd" [
  <!ATTLIST g xmlns:kvg CDATA #FIXED "http://kanjivg.tagaini.net" kvg:element CDATA #IMPLIED kvg:variant CDATA #IMPLIED kvg:partial CDATA #IMPLIED kvg:original CDATA #IMPLIED kvg:part CDATA #IMPLIED kvg:number CDATA #IMPLIED kvg:tradForm CDATA #IMPLIED kvg:radicalForm CDATA #IMPLIED kvg:position CDATA #IMPLIED kvg:radical CDATA #IMPLIED kvg:phon CDATA #IMPLIED >
  <!ATTLIST path xmlns:kvg CDATA #FIXED "http://kanjivg.tagaini.net" kvg:type CDATA #IMPLIED >
  ]>
  <svg xmlns="http://www.w3.org/2000/svg" width="109" height="109" viewBox="0 0 109 109">
<g id="kvg:StrokePaths_076df" style="fill:none;stroke:#000000;stroke-width:3;stroke-linecap:round;stroke-linejoin:round;">
<g id="kvg:076df" kvg:element="盟">
	<g id="kvg:076df-g1" kvg:element="明" kvg:position="top" kvg:phon="明">
		<g id="kvg:076df-g2" kvg:element="日" kvg:position="left">
			<path style="fill:none;stroke:#808080" id="kvg:076df-s1" kvg:type="㇑" d="M23.04,19.27c0.84,0.84,1.27,1.73,1.27,3.22c0,3.75,0.04,21.88,0.04,25.75c0,3.2-0.04,5.42-0.04,5.55"/>
			<path style="fill:none;stroke:#808080" id="kvg:076df-s2" kvg:type="㇕a" d="M25.19,21.42c4.18-0.54,17.43-2.5,19.41-2.65c1.65-0.13,2.58,0.98,2.58,2.72c0,2.76,0.13,16.23,0.04,24.76c-0.03,3.25-0.05,5.55-0.05,5.77"/>
			<path style="fill:none;stroke:#808080" id="kvg:076df-s3" kvg:type="㇐a" d="M25.58,35.83c4.05-0.33,17.14-2.13,20.45-2.13"/>
			<path style="fill:none;stroke:#808080" id="kvg:076df-s4" kvg:type="㇐a" d="M25.44,50.92c7.93-0.79,13.79-1.64,20.58-1.87"/>
		</g>
		<g id="kvg:076df-g3" kvg:element="月" kvg:position="right">
			<path style="fill:none;stroke:#808080" id="kvg:076df-s5" kvg:type="㇓" d="M59.91,13.72c0.81,0.81,1.2,1.91,1.25,3.28C62,40.88,59.25,52.75,49.32,62.75"/>
			<path style="fill:none;stroke:#808080" id="kvg:076df-s6" kvg:type="㇆a" d="M61.91,15.56c1.99-0.15,21.24-2.5,22.73-2.58c2.12-0.11,3.32,0.77,3.32,2.82c0,3.45,0,27.85,0,39.88c0,9.06-6.46,1.93-7.44,1.34"/>
			<path style="fill:none;stroke:#808080" id="kvg:076df-s7" kvg:type="㇐a" d="M62.66,29.03c6.84-0.78,18.41-1.74,24.39-2.18"/>
			<path style="fill:none;stroke:#808080" id="kvg:076df-s8" kvg:type="㇐a" d="M61.19,41.22c5.32-0.45,19.63-1.34,25.77-1.64"/>
		</g>
	</g>
	<g id="kvg:076df-g4" kvg:element="皿" kvg:position="bottom" kvg:radical="general">
		<path style="fill:none;stroke-width:4;" id="kvg:076df-s9" kvg:type="㇑a" d="M27.34,70.6c0.97,0.97,1.34,1.76,1.44,2.77s1.47,13,2.07,19.63"/>
<circle cx="27.34" cy="70.6" r="5" style="fill:red;stroke:red;" />
	</g>
</g>
</g></svg>