<?xml version="1.0" encoding="UTF-8"?>
  <!DOCTYPE svg PUBLIC "-//W3C//DTD SVG 1.0//EN" "http://www.w3.org/TR/2001/REC-SVG-20010904/DTD/svg10.dtd" [
  <!ATTLIST g xmlns:kvg CDATA #FIXED "http://kanjivg.tagaini.net" kvg:element CDATA #IMPLIED kvg:variant CDATA #IMPLIED kvg:partial CDATA #IMPLIED kvg:original CDATA #IMPLIED kvg:part CDATA #IMPLIED kvg:number CDATA #IMPLIED kvg:tradForm CDATA #IMPLIED kvg:radicalForm CDATA #IMPLIED kvg:position CDATA #IMPLIED kvg:radical CDATA #IMPLIED kvg:phon CDATA #IMPLIED >
  <!ATTLIST path xmlns:kvg CDATA #FIXED "http://kanjivg.tagaini.net" kvg:type CDATA #IMPLIED >
  ]>
  <svg xmlns="http://www.w3.org/2000/svg" width="109" height="109" viewBox="0 0 109 109">
<g id="kvg:StrokePaths_076f4" style="fill:none;stroke:#000000;stroke-width:3;stroke-linecap:round;stroke-linejoin:round;">
<g id="kvg:076f4" kvg:element="直">
	<g id="kvg:076f4-g1" kvg:element="十" kvg:radical="nelson">
		<path style="fill:none;stroke:#808080" id="kvg:076f4-s1" kvg:type="㇐" d="M25.15,27.9c1.92,0.35,5.43,0.36,7.35,0.19c16.72-1.53,29.48-2.6,46.27-3.74c3.19-0.22,5.11,0.04,6.71,0.2"/>
		<path style="fill:none;stroke:#808080" id="kvg:076f4-s2" kvg:type="㇑a" d="M53.73,12.51c1.38,1.38,2.01,3.12,2.01,4.89c0,3.35,0.09,8.6,0.09,19.6"/>
	</g>
	<g id="kvg:076f4-g2" kvg:element="目" kvg:radical="tradit">
		<path style="fill:none;stroke:#808080" id="kvg:076f4-s3" kvg:type="㇑" d="M36.56,37.49c1.19,1.26,1.66,3.14,1.66,4.57c0,1.2,0.39,24.33,0.19,37.94c-0.02,1.46-0.04,2.82-0.07,4.01"/>
		<path style="fill:none;stroke-width:4;" id="kvg:076f4-s4" kvg:type="㇕a" d="M39.52,39.91c8.14-0.78,28.45-3.08,30.99-3.25c2.46-0.17,3.99,1.59,4.19,4.16c0.11,1.44-0.12,22.29-0.19,36.93c-0.01,1.37-0.01,2.69-0.01,3.94"/>
<circle cx="39.52" cy="39.91" r="5" style="fill:red;stroke:red;" />
	</g>
</g>
</g></svg>