<?xml version="1.0" encoding="UTF-8"?>
  <!DOCTYPE svg PUBLIC "-//W3C//DTD SVG 1.0//EN" "http://www.w3.org/TR/2001/REC-SVG-20010904/DTD/svg10.dtd" [
  <!ATTLIST g xmlns:kvg CDATA #FIXED "http://kanjivg.tagaini.net" kvg:element CDATA #IMPLIED kvg:variant CDATA #IMPLIED kvg:partial CDATA #IMPLIED kvg:original CDATA #IMPLIED kvg:part CDATA #IMPLIED kvg:number CDATA #IMPLIED kvg:tradForm CDATA #IMPLIED kvg:radicalForm CDATA #IMPLIED kvg:position CDATA #IMPLIED kvg:radical CDATA #IMPLIED kvg:phon CDATA #IMPLIED >
  <!ATTLIST path xmlns:kvg CDATA #FIXED "http://kanjivg.tagaini.net" kvg:type CDATA #IMPLIED >
  ]>
  <svg xmlns="http://www.w3.org/2000/svg" width="109" height="109" viewBox="0 0 109 109">
<g id="kvg:StrokePaths_07701" style="fill:none;stroke:#000000;stroke-width:3;stroke-linecap:round;stroke-linejoin:round;">
<g id="kvg:07701" kvg:element="省">
	<g id="kvg:07701-g1" kvg:element="少" kvg:position="top">
		<g id="kvg:07701-g2" kvg:element="小">
			<path style="fill:none;stroke:#808080" id="kvg:07701-s1" kvg:type="㇚" d="M55.6,11.75c0.83,0.83,1.49,2.02,1.49,3.57c0,9.3,0,16.93,0,20.62c0,7.56-4.09,4.05-6.62,1.88"/>
			<path style="fill:none;stroke:#808080" id="kvg:07701-s2" kvg:type="㇒" d="M35.88,24.75c0.05,0.37-0.06,1.22-0.34,1.74C33.5,30.21,24.9,37.38,17.92,40.8"/>
			<path style="fill:none;stroke:#808080" id="kvg:07701-s3" kvg:type="㇔" d="M76.67,20.92c6.59,2.16,14.2,7.08,17.08,11.06"/>
		</g>
		<g id="kvg:07701-g3" kvg:element="丿" kvg:radical="nelson">
			<path style="fill:none;stroke-width:4;" id="kvg:07701-s4" kvg:type="㇒" d="M69.75,25.75c0.14,0.93-0.08,2.41-0.79,3.73c-5.86,10.88-28.4,28.46-51.27,35.77"/>
<circle cx="69.75" cy="25.75" r="5" style="fill:red;stroke:red;" />
		</g>
	</g>
	<g id="kvg:07701-g4" kvg:element="目" kvg:position="bottom" kvg:radical="tradit">
	</g>
</g>
</g></svg>