<?xml version="1.0" encoding="UTF-8"?>
  <!DOCTYPE svg PUBLIC "-//W3C//DTD SVG 1.0//EN" "http://www.w3.org/TR/2001/REC-SVG-20010904/DTD/svg10.dtd" [
  <!ATTLIST g xmlns:kvg CDATA #FIXED "http://kanjivg.tagaini.net" kvg:element CDATA #IMPLIED kvg:variant CDATA #IMPLIED kvg:partial CDATA #IMPLIED kvg:original CDATA #IMPLIED kvg:part CDATA #IMPLIED kvg:number CDATA #IMPLIED kvg:tradForm CDATA #IMPLIED kvg:radicalForm CDATA #IMPLIED kvg:position CDATA #IMPLIED kvg:radical CDATA #IMPLIED kvg:phon CDATA #IMPLIED >
  <!ATTLIST path xmlns:kvg CDATA #FIXED "http://kanjivg.tagaini.net" kvg:type CDATA #IMPLIED >
  ]>
  <svg xmlns="http://www.w3.org/2000/svg" width="109" height="109" viewBox="0 0 109 109">
<g id="kvg:StrokePaths_0770c" style="fill:none;stroke:#000000;stroke-width:3;stroke-linecap:round;stroke-linejoin:round;">
<g id="kvg:0770c" kvg:element="県">
	<g id="kvg:0770c-g1" kvg:position="top">
		<g id="kvg:0770c-g2" kvg:element="目" kvg:radical="tradit">
			<path style="fill:none;stroke:#808080" id="kvg:0770c-s1" kvg:type="㇑" d="M43.42,13.91c1.09,1.09,1.39,2.61,1.39,3.84c0,1.06,0,25.55,0,34.75c0,1.48,0,3.54,0,4.01"/>
			<path style="fill:none;stroke:#808080" id="kvg:0770c-s2" kvg:type="㇕a" d="M45.82,16.29c2.61-0.15,21.98-2.62,24.39-2.8c2.38-0.18,3.39,1.28,3.38,3.39c-0.02,5.77-0.12,25.48-0.16,33.87c-0.01,1.6-0.01,2.79-0.01,3.39"/>
			<path style="fill:none;stroke:#808080" id="kvg:0770c-s3" kvg:type="㇐a" d="M46.03,28.68c5.6-0.56,22.13-2.2,26.32-2.2"/>
			<path style="fill:none;stroke:#808080" id="kvg:0770c-s4" kvg:type="㇐a" d="M45.99,41.08c8.64-0.83,18.51-1.83,26.05-2.09"/>
			<path style="fill:none;stroke-width:4;" id="kvg:0770c-s5" kvg:type="㇐a" d="M46.56,53.67c6.31-0.29,18.31-1.42,25.65-1.63"/>
<circle cx="46.56" cy="53.67" r="5" style="fill:red;stroke:red;" />
		</g>
	</g>
	<g id="kvg:0770c-g3" kvg:element="小" kvg:variant="true" kvg:position="bottom" kvg:radical="nelson">
	</g>
</g>
</g></svg>