<?xml version="1.0" encoding="UTF-8"?>
  <!DOCTYPE svg PUBLIC "-//W3C//DTD SVG 1.0//EN" "http://www.w3.org/TR/2001/REC-SVG-20010904/DTD/svg10.dtd" [
  <!ATTLIST g xmlns:kvg CDATA #FIXED "http://kanjivg.tagaini.net" kvg:element CDATA #IMPLIED kvg:variant CDATA #IMPLIED kvg:partial CDATA #IMPLIED kvg:original CDATA #IMPLIED kvg:part CDATA #IMPLIED kvg:number CDATA #IMPLIED kvg:tradForm CDATA #IMPLIED kvg:radicalForm CDATA #IMPLIED kvg:position CDATA #IMPLIED kvg:radical CDATA #IMPLIED kvg:phon CDATA #IMPLIED >
  <!ATTLIST path xmlns:kvg CDATA #FIXED "http://kanjivg.tagaini.net" kvg:type CDATA #IMPLIED >
  ]>
  <svg xmlns="http://www.w3.org/2000/svg" width="109" height="109" viewBox="0 0 109 109">
<g id="kvg:StrokePaths_0771f" style="fill:none;stroke:#000000;stroke-width:3;stroke-linecap:round;stroke-linejoin:round;">
<g id="kvg:0771f" kvg:element="真">
	<g id="kvg:0771f-g1" kvg:element="十" kvg:position="top" kvg:radical="nelson">
		<path style="fill:none;stroke:#808080" id="kvg:0771f-s1" kvg:type="㇐" d="M23.63,23.92c3.25,0.33,6.04,0.35,8.62,0.08c12-1.25,32.73-3.03,43.75-3.46c2.8-0.11,5.9-0.1,8.63,0.58"/>
		<path style="fill:none;stroke:#808080" id="kvg:0771f-s2" kvg:type="㇑a" d="M51.96,9c1.04,1,1.48,2.38,1.28,4.17C52.5,19.75,51.5,26.75,50.7,32.5"/>
	</g>
	<g id="kvg:0771f-g2" kvg:element="具" kvg:position="bottom">
		<g id="kvg:0771f-g3" kvg:element="目" kvg:position="top" kvg:radical="tradit">
			<path style="fill:none;stroke:#808080" id="kvg:0771f-s3" kvg:type="㇑" d="M31.5,34.33c0.77,0.77,1.22,2.04,1.32,3.22c0.34,4.08,2.03,22.86,2.75,31.08c0.2,2.27,0.32,3.73,0.32,3.86"/>
			<path style="fill:none;stroke:#808080" id="kvg:0771f-s4" kvg:type="㇕a" d="M33.88,35.7c6.37-0.57,33.4-3.78,36.69-3.96c2.74-0.15,4.64,1.52,4.43,4.66c-0.5,7.35-1,16.35-1.81,30.22c-0.05,0.88-0.19,2.26-0.21,3.54"/>
			<path style="fill:none;stroke:#808080" id="kvg:0771f-s5" kvg:type="㇐a" d="M34.82,46.58C48.5,45.38,65,43.75,73.74,43.46"/>
			<path style="fill:none;stroke:#808080" id="kvg:0771f-s6" kvg:type="㇐a" d="M35.62,57.69c10.63-0.94,25.63-1.94,37.45-2.26"/>
			<path style="fill:none;stroke-width:4;" id="kvg:0771f-s7" kvg:type="㇐a" d="M36.76,69.46c14.24-1.21,23.49-2.21,35.27-2.82"/>
<circle cx="36.76" cy="69.46" r="5" style="fill:red;stroke:red;" />
		</g>
		<g id="kvg:0771f-g4" kvg:position="bottom">
			<g id="kvg:0771f-g5" kvg:element="八">
			</g>
		</g>
	</g>
</g>
</g></svg>