<?xml version="1.0" encoding="UTF-8"?>
  <!DOCTYPE svg PUBLIC "-//W3C//DTD SVG 1.0//EN" "http://www.w3.org/TR/2001/REC-SVG-20010904/DTD/svg10.dtd" [
  <!ATTLIST g xmlns:kvg CDATA #FIXED "http://kanjivg.tagaini.net" kvg:element CDATA #IMPLIED kvg:variant CDATA #IMPLIED kvg:partial CDATA #IMPLIED kvg:original CDATA #IMPLIED kvg:part CDATA #IMPLIED kvg:number CDATA #IMPLIED kvg:tradForm CDATA #IMPLIED kvg:radicalForm CDATA #IMPLIED kvg:position CDATA #IMPLIED kvg:radical CDATA #IMPLIED kvg:phon CDATA #IMPLIED >
  <!ATTLIST path xmlns:kvg CDATA #FIXED "http://kanjivg.tagaini.net" kvg:type CDATA #IMPLIED >
  ]>
  <svg xmlns="http://www.w3.org/2000/svg" width="109" height="109" viewBox="0 0 109 109">
<g id="kvg:StrokePaths_0773c" style="fill:none;stroke:#000000;stroke-width:3;stroke-linecap:round;stroke-linejoin:round;">
<g id="kvg:0773c" kvg:element="眼">
	<g id="kvg:0773c-g1" kvg:element="目" kvg:position="left" kvg:radical="general">
		<path style="fill:none;stroke:#808080" id="kvg:0773c-s1" kvg:type="㇑" d="M14.13,27.89c1.05,1.05,1.42,2.46,1.42,4.14c0,1.35,0,33.07,0,47.72c0,3.59,0,6.16,0,7"/>
		<path style="fill:none;stroke:#808080" id="kvg:0773c-s2" kvg:type="㇕a" d="M16.43,29.41c2.78-0.46,14.59-2.14,18.86-2.73c2.46-0.34,4.09,0.82,4.09,3.07c0,6.8-0.36,32.07-0.47,47.38c-0.02,2.71-0.03,5.11-0.03,7.03"/>
		<path style="fill:none;stroke:#808080" id="kvg:0773c-s3" kvg:type="㇐a" d="M16.64,45.97C22.5,45,33.25,43.5,38.01,43.29"/>
		<path style="fill:none;stroke:#808080" id="kvg:0773c-s4" kvg:type="㇐a" d="M16.57,62.22c5.62-0.71,13.56-1.97,21.19-2.53"/>
		<path style="fill:none;stroke-width:4;" id="kvg:0773c-s5" kvg:type="㇐a" d="M16.73,81.01C22.5,80.25,30.5,79,37.79,78.37"/>
<circle cx="16.73" cy="81.01" r="5" style="fill:red;stroke:red;" />
	</g>
	<g id="kvg:0773c-g2" kvg:element="艮" kvg:position="right" kvg:phon="艮">
	</g>
</g>
</g></svg>