<?xml version="1.0" encoding="UTF-8"?>
  <!DOCTYPE svg PUBLIC "-//W3C//DTD SVG 1.0//EN" "http://www.w3.org/TR/2001/REC-SVG-20010904/DTD/svg10.dtd" [
  <!ATTLIST g xmlns:kvg CDATA #FIXED "http://kanjivg.tagaini.net" kvg:element CDATA #IMPLIED kvg:variant CDATA #IMPLIED kvg:partial CDATA #IMPLIED kvg:original CDATA #IMPLIED kvg:part CDATA #IMPLIED kvg:number CDATA #IMPLIED kvg:tradForm CDATA #IMPLIED kvg:radicalForm CDATA #IMPLIED kvg:position CDATA #IMPLIED kvg:radical CDATA #IMPLIED kvg:phon CDATA #IMPLIED >
  <!ATTLIST path xmlns:kvg CDATA #FIXED "http://kanjivg.tagaini.net" kvg:type CDATA #IMPLIED >
  ]>
  <svg xmlns="http://www.w3.org/2000/svg" width="109" height="109" viewBox="0 0 109 109">
<g id="kvg:StrokePaths_077e5" style="fill:none;stroke:#000000;stroke-width:3;stroke-linecap:round;stroke-linejoin:round;">
<g id="kvg:077e5" kvg:element="知">
	<g id="kvg:077e5-g1" kvg:element="矢" kvg:variant="true" kvg:position="left" kvg:radical="general">
		<path style="fill:none;stroke:#808080" id="kvg:077e5-s1" kvg:type="㇒" d="M30.39,16.21c0.61,1.29,0.5,2.73,0.07,4.09C28.5,26.5,25,35.25,18.01,44.16"/>
		<g id="kvg:077e5-g2" kvg:element="天" kvg:variant="true">
			<path style="fill:none;stroke:#808080" id="kvg:077e5-s2" kvg:type="㇐" d="M28.91,33.73c1.79,0,2.19,0.14,3.08,0c4.13-0.63,8.18-1.52,14.78-2.89c1.91-0.39,3.86-0.47,5.48-0.1"/>
			<g id="kvg:077e5-g3" kvg:element="大" kvg:variant="true">
				<path style="fill:none;stroke:#808080" id="kvg:077e5-s3" kvg:type="㇐" d="M12.22,57.18c2.49,0.51,4.9,0.46,7.41,0.15c7.62-0.95,19.62-2.58,29.51-3.78c1.72-0.21,3.85-0.05,5.35,0.26"/>
				<path style="fill:none;stroke-width:4;" id="kvg:077e5-s4" kvg:type="㇒" d="M37.98,36c0.4,1.32,0.59,2.61,0.58,4.24c-0.18,25.01-8.68,42.88-24.75,51.93"/>
<circle cx="37.98" cy="36" r="5" style="fill:red;stroke:red;" />
			</g>
		</g>
	</g>
	<g id="kvg:077e5-g4" kvg:element="口" kvg:position="right">
	</g>
</g>
</g></svg>