<?xml version="1.0" encoding="UTF-8"?>
  <!DOCTYPE svg PUBLIC "-//W3C//DTD SVG 1.0//EN" "http://www.w3.org/TR/2001/REC-SVG-20010904/DTD/svg10.dtd" [
  <!ATTLIST g xmlns:kvg CDATA #FIXED "http://kanjivg.tagaini.net" kvg:element CDATA #IMPLIED kvg:variant CDATA #IMPLIED kvg:partial CDATA #IMPLIED kvg:original CDATA #IMPLIED kvg:part CDATA #IMPLIED kvg:number CDATA #IMPLIED kvg:tradForm CDATA #IMPLIED kvg:radicalForm CDATA #IMPLIED kvg:position CDATA #IMPLIED kvg:radical CDATA #IMPLIED kvg:phon CDATA #IMPLIED >
  <!ATTLIST path xmlns:kvg CDATA #FIXED "http://kanjivg.tagaini.net" kvg:type CDATA #IMPLIED >
  ]>
  <svg xmlns="http://www.w3.org/2000/svg" width="109" height="109" viewBox="0 0 109 109">
<g id="kvg:StrokePaths_07802" style="fill:none;stroke:#000000;stroke-width:3;stroke-linecap:round;stroke-linejoin:round;">
<g id="kvg:07802" kvg:element="砂">
	<g id="kvg:07802-g1" kvg:element="石" kvg:position="left" kvg:radical="general">
		<path style="fill:none;stroke:#808080" id="kvg:07802-s1" kvg:type="㇐" d="M18,26.85c1.91,0.56,4.4,0.52,6.37,0.25c4.87-0.67,13.43-2.33,18.26-2.93c2-0.25,3.65-0.26,5.62,0.08"/>
		<path style="fill:none;stroke:#808080" id="kvg:07802-s2" kvg:type="㇒" d="M27.03,29.65c0.6,0.98,0.72,2.08,0.42,3.34c-1.95,8.27-7.1,23.16-14.2,33.33"/>
		<g id="kvg:07802-g2" kvg:element="口">
			<path style="fill:none;stroke:#808080" id="kvg:07802-s3" kvg:type="㇑" d="M23.56,50.76c0.84,0.84,1.19,2.11,1.36,3.25c0.69,4.48,1.42,11.49,2.04,19.2c0.13,1.56,0.24,3.11,0.33,4.63"/>
			<path style="fill:none;stroke-width:4;" id="kvg:07802-s4" kvg:type="㇕b" d="M25.48,52.65c4.6-1.04,13.08-3.6,16.22-3.76c1.3-0.07,2.3,1.61,1.89,4.05c-0.71,4.16-1.33,9.06-2.33,17.81"/>
<circle cx="25.48" cy="52.65" r="5" style="fill:red;stroke:red;" />
		</g>
	</g>
	<g id="kvg:07802-g3" kvg:element="少" kvg:position="right" kvg:phon="少">
		<g id="kvg:07802-g4" kvg:element="小">
		</g>
		<g id="kvg:07802-g5" kvg:element="丿">
		</g>
	</g>
</g>
</g></svg>