<?xml version="1.0" encoding="UTF-8"?>
  <!DOCTYPE svg PUBLIC "-//W3C//DTD SVG 1.0//EN" "http://www.w3.org/TR/2001/REC-SVG-20010904/DTD/svg10.dtd" [
  <!ATTLIST g xmlns:kvg CDATA #FIXED "http://kanjivg.tagaini.net" kvg:element CDATA #IMPLIED kvg:variant CDATA #IMPLIED kvg:partial CDATA #IMPLIED kvg:original CDATA #IMPLIED kvg:part CDATA #IMPLIED kvg:number CDATA #IMPLIED kvg:tradForm CDATA #IMPLIED kvg:radicalForm CDATA #IMPLIED kvg:position CDATA #IMPLIED kvg:radical CDATA #IMPLIED kvg:phon CDATA #IMPLIED >
  <!ATTLIST path xmlns:kvg CDATA #FIXED "http://kanjivg.tagaini.net" kvg:type CDATA #IMPLIED >
  ]>
  <svg xmlns="http://www.w3.org/2000/svg" width="109" height="109" viewBox="0 0 109 109">
<g id="kvg:StrokePaths_07834" style="fill:none;stroke:#000000;stroke-width:3;stroke-linecap:round;stroke-linejoin:round;">
<g id="kvg:07834" kvg:element="破">
	<g id="kvg:07834-g1" kvg:element="石" kvg:position="left" kvg:radical="general">
		<path style="fill:none;stroke:#808080" id="kvg:07834-s1" kvg:type="㇐" d="M15.64,32.91c1.11,0.34,3.02,0.22,3.86,0.15c5.59-0.5,12.7-1.79,18.52-2.63C39.6,30.2,41.15,30,42.75,30"/>
		<path style="fill:none;stroke:#808080" id="kvg:07834-s2" kvg:type="㇒" d="M25.94,35.48c0.31,0.89,0.25,2.3-0.09,3.52C23.5,47.5,18.62,62,10.36,72.73"/>
		<g id="kvg:07834-g2" kvg:element="口">
			<path style="fill:none;stroke:#808080" id="kvg:07834-s3" kvg:type="㇑" d="M21.14,59.92c0.72,0.72,1.22,1.79,1.41,3.34c0.42,3.43,1.2,8.77,1.75,13.93c0.17,1.62,0.33,3.21,0.44,4.73"/>
			<path style="fill:none;stroke:#808080" id="kvg:07834-s4" kvg:type="㇕b" d="M22.99,61.08c4.44-0.49,12.76-1.84,17.03-2.32c2.77-0.31,4.06,0.38,3.43,3.39c-0.67,3.23-1.4,6.02-2.9,13.09"/>
			<path style="fill:none;stroke:#808080" id="kvg:07834-s5" kvg:type="㇐b" d="M25.47,78.19c2.72-0.31,8.46-1.24,13.27-1.79c1.32-0.15,2.51-0.25,3.47-0.28"/>
		</g>
	</g>
	<g id="kvg:07834-g3" kvg:element="皮" kvg:position="right" kvg:phon="皮">
		<path style="fill:none;stroke:#808080" id="kvg:07834-s6" kvg:type="㇒" d="M51.75,33.37c0.75,0.75,1.25,2.32,1.28,4.6c0.34,24.16-1.53,41.91-13.16,52.67"/>
		<path style="fill:none;stroke-width:4;" id="kvg:07834-s7" kvg:type="㇖b" d="M53.88,35.26c12.4-2.76,23.62-4.64,33.76-5.43c9.02-0.7,2.1,7.29,0.37,9.28"/>
<circle cx="53.88" cy="35.26" r="5" style="fill:red;stroke:red;" />
	</g>
</g>
</g></svg>