<?xml version="1.0" encoding="UTF-8"?>
  <!DOCTYPE svg PUBLIC "-//W3C//DTD SVG 1.0//EN" "http://www.w3.org/TR/2001/REC-SVG-20010904/DTD/svg10.dtd" [
  <!ATTLIST g xmlns:kvg CDATA #FIXED "http://kanjivg.tagaini.net" kvg:element CDATA #IMPLIED kvg:variant CDATA #IMPLIED kvg:partial CDATA #IMPLIED kvg:original CDATA #IMPLIED kvg:part CDATA #IMPLIED kvg:number CDATA #IMPLIED kvg:tradForm CDATA #IMPLIED kvg:radicalForm CDATA #IMPLIED kvg:position CDATA #IMPLIED kvg:radical CDATA #IMPLIED kvg:phon CDATA #IMPLIED >
  <!ATTLIST path xmlns:kvg CDATA #FIXED "http://kanjivg.tagaini.net" kvg:type CDATA #IMPLIED >
  ]>
  <svg xmlns="http://www.w3.org/2000/svg" width="109" height="109" viewBox="0 0 109 109">
<g id="kvg:StrokePaths_078ba" style="fill:none;stroke:#000000;stroke-width:3;stroke-linecap:round;stroke-linejoin:round;">
<g id="kvg:078ba" kvg:element="確">
	<g id="kvg:078ba-g1" kvg:element="石" kvg:position="left" kvg:radical="general">
		<path style="fill:none;stroke:#808080" id="kvg:078ba-s1" kvg:type="㇐" d="M15.13,31.01c1.23,0.26,2.89,0.36,4.12,0.3C25,31,32.38,29.75,39.03,28.72c1.39-0.21,2.98-0.22,4.35-0.05"/>
		<path style="fill:none;stroke:#808080" id="kvg:078ba-s2" kvg:type="㇒" d="M26.06,33.43c0.19,0.95,0.11,1.64-0.07,2.98c-1.06,7.9-7.16,25.23-15.49,35.84"/>
		<g id="kvg:078ba-g2" kvg:element="口">
			<path style="fill:none;stroke:#808080" id="kvg:078ba-s3" kvg:type="㇑" d="M21.5,56.04c0.79,0.79,1.41,1.87,1.51,2.96c0.49,5.44,1.37,11.88,2.01,17.63c0.17,1.51,0.32,2.98,0.44,4.37"/>
			<path style="fill:none;stroke-width:4;" id="kvg:078ba-s4" kvg:type="㇕b" d="M23.98,57.62c5.4-1.29,10.53-2.17,14.04-2.74c2.79-0.46,4.54,0.71,3.9,4.03c-1.05,5.47-1.67,8.72-3.17,15.44"/>
<circle cx="23.98" cy="57.62" r="5" style="fill:red;stroke:red;" />
		</g>
	</g>
	<g id="kvg:078ba-g3" kvg:element="寉" kvg:variant="true" kvg:original="隺" kvg:position="right" kvg:phon="寉">
		<g id="kvg:078ba-g4" kvg:element="宀" kvg:partial="true" kvg:position="top">
			<g id="kvg:078ba-g5" kvg:element="冖">
			</g>
		</g>
		<g id="kvg:078ba-g6" kvg:element="隹" kvg:position="bottom">
			<g id="kvg:078ba-g7" kvg:element="亻" kvg:variant="true" kvg:original="人">
			</g>
		</g>
	</g>
</g>
</g></svg>