<?xml version="1.0" encoding="UTF-8"?>
  <!DOCTYPE svg PUBLIC "-//W3C//DTD SVG 1.0//EN" "http://www.w3.org/TR/2001/REC-SVG-20010904/DTD/svg10.dtd" [
  <!ATTLIST g xmlns:kvg CDATA #FIXED "http://kanjivg.tagaini.net" kvg:element CDATA #IMPLIED kvg:variant CDATA #IMPLIED kvg:partial CDATA #IMPLIED kvg:original CDATA #IMPLIED kvg:part CDATA #IMPLIED kvg:number CDATA #IMPLIED kvg:tradForm CDATA #IMPLIED kvg:radicalForm CDATA #IMPLIED kvg:position CDATA #IMPLIED kvg:radical CDATA #IMPLIED kvg:phon CDATA #IMPLIED >
  <!ATTLIST path xmlns:kvg CDATA #FIXED "http://kanjivg.tagaini.net" kvg:type CDATA #IMPLIED >
  ]>
  <svg xmlns="http://www.w3.org/2000/svg" width="109" height="109" viewBox="0 0 109 109">
<g id="kvg:StrokePaths_078c1" style="fill:none;stroke:#000000;stroke-width:3;stroke-linecap:round;stroke-linejoin:round;">
<g id="kvg:078c1" kvg:element="磁">
	<g id="kvg:078c1-g1" kvg:element="石" kvg:position="left" kvg:radical="general">
		<path style="fill:none;stroke:#808080" id="kvg:078c1-s1" kvg:type="㇐" d="M12,28.85c1.95,0.57,3.91,0.33,5.88,0.09c4.96-0.6,14.64-1.53,19.62-2.07c1.85-0.2,3.42-0.18,5.25,0.14"/>
		<path style="fill:none;stroke:#808080" id="kvg:078c1-s2" kvg:type="㇒" d="M23.28,30.9c0.47,0.98,0.58,2.06,0.42,3.34C22.8,41.8,17.38,57.88,10,69.81"/>
		<g id="kvg:078c1-g2" kvg:element="口">
			<path style="fill:none;stroke:#808080" id="kvg:078c1-s3" kvg:type="㇑" d="M19.31,56.51c0.71,0.71,1.19,1.96,1.24,2.68c0.34,4.35,1.2,10.36,1.89,18.8c0.13,1.63,0.25,3.26,0.34,4.85"/>
			<path style="fill:none;stroke:#808080" id="kvg:078c1-s4" kvg:type="㇕b" d="M21.48,58.4c5.42-1.08,9-2.02,13.78-2.85c2.5-0.43,3.74,0.95,3.32,3.9c-0.59,4.17-1.33,8.06-2.33,16.81"/>
			<path style="fill:none;stroke-width:4;" id="kvg:078c1-s5" kvg:type="㇐b" d="M23.75,79.5c2.86-0.41,6.56-1.14,10.75-1.79c1.2-0.19,2.39-0.35,3.5-0.46"/>
<circle cx="23.75" cy="79.5" r="5" style="fill:red;stroke:red;" />
		</g>
	</g>
	<g id="kvg:078c1-g3" kvg:element="兹" kvg:variant="true" kvg:original="茲" kvg:position="right" kvg:phon="兹/茲V">
		<g id="kvg:078c1-g4" kvg:element="艹" kvg:variant="true" kvg:original="艸" kvg:position="top">
			<g id="kvg:078c1-g5" kvg:element="玄" kvg:part="1" kvg:number="1" kvg:partial="true">
				<g id="kvg:078c1-g6" kvg:element="亠" kvg:partial="true">
				</g>
			</g>
		</g>
		<g id="kvg:078c1-g7" kvg:position="bottom">
			<g id="kvg:078c1-g8" kvg:element="玄" kvg:part="2" kvg:number="1" kvg:partial="true" kvg:position="left">
				<g id="kvg:078c1-g9" kvg:element="幺">
				</g>
			</g>
			<g id="kvg:078c1-g10" kvg:element="玄" kvg:part="1" kvg:number="2" kvg:partial="true" kvg:position="right">
				<g id="kvg:078c1-g11" kvg:element="幺">
				</g>
			</g>
		</g>
	</g>
</g>
</g></svg>