<?xml version="1.0" encoding="UTF-8"?>
  <!DOCTYPE svg PUBLIC "-//W3C//DTD SVG 1.0//EN" "http://www.w3.org/TR/2001/REC-SVG-20010904/DTD/svg10.dtd" [
  <!ATTLIST g xmlns:kvg CDATA #FIXED "http://kanjivg.tagaini.net" kvg:element CDATA #IMPLIED kvg:variant CDATA #IMPLIED kvg:partial CDATA #IMPLIED kvg:original CDATA #IMPLIED kvg:part CDATA #IMPLIED kvg:number CDATA #IMPLIED kvg:tradForm CDATA #IMPLIED kvg:radicalForm CDATA #IMPLIED kvg:position CDATA #IMPLIED kvg:radical CDATA #IMPLIED kvg:phon CDATA #IMPLIED >
  <!ATTLIST path xmlns:kvg CDATA #FIXED "http://kanjivg.tagaini.net" kvg:type CDATA #IMPLIED >
  ]>
  <svg xmlns="http://www.w3.org/2000/svg" width="109" height="109" viewBox="0 0 109 109">
<g id="kvg:StrokePaths_0795d" style="fill:none;stroke:#000000;stroke-width:3;stroke-linecap:round;stroke-linejoin:round;">
<g id="kvg:0795d" kvg:element="祝">
	<g id="kvg:0795d-g1" kvg:element="礻" kvg:variant="true" kvg:original="示" kvg:position="left" kvg:radical="general">
		<path style="fill:none;stroke:#808080" id="kvg:0795d-s1" kvg:type="㇔" d="M23.62,16c3.74,2.12,7.75,5.29,10.95,9"/>
		<path style="fill:none;stroke:#808080" id="kvg:0795d-s2" kvg:type="㇇" d="M12.08,40.5c1.8,0.63,3.79,0.72,5.51,0.45C21.12,40.38,31,37.88,35.33,37c2.56-0.52,4.3,1.38,3,3.75C33.25,50,21.38,64.75,11.83,74"/>
		<path style="fill:none;stroke:#808080" id="kvg:0795d-s3" kvg:type="㇑" d="M28.75,57.36c0.76,0.76,1.27,2.01,1.27,3.39c0,6.63,0.03,20.43,0.05,28.38c0.01,2.77,0.01,4.83,0.01,5.62"/>
		<path style="fill:none;stroke:#808080" id="kvg:0795d-s4" kvg:type="㇔" d="M32.25,54.88c4.04,2.5,8.36,6.25,11.83,10.62"/>
	</g>
	<g id="kvg:0795d-g2" kvg:element="兄" kvg:position="right">
		<g id="kvg:0795d-g3" kvg:element="口" kvg:position="top">
			<path style="fill:none;stroke:#808080" id="kvg:0795d-s5" kvg:type="㇑" d="M49.61,22.6c0.83,0.83,1.49,1.77,1.66,2.85c0.55,3.6,1.95,10.18,3.51,18.29c0.28,1.48,0.57,3.01,0.86,4.58"/>
			<path style="fill:none;stroke-width:4;" id="kvg:0795d-s6" kvg:type="㇕b" d="M52.18,24.24c6.73-1.36,20.82-3.49,29.72-4.55c2.98-0.35,5.62,0.88,4.52,4.36c-1.72,5.49-3.04,10.69-5.01,17.38"/>
<circle cx="52.18" cy="24.24" r="5" style="fill:red;stroke:red;" />
		</g>
		<g id="kvg:0795d-g4" kvg:element="儿" kvg:original="八" kvg:position="bottom">
			<g id="kvg:0795d-g5" kvg:element="丿">
			</g>
		</g>
	</g>
</g>
</g></svg>