<?xml version="1.0" encoding="UTF-8"?>
  <!DOCTYPE svg PUBLIC "-//W3C//DTD SVG 1.0//EN" "http://www.w3.org/TR/2001/REC-SVG-20010904/DTD/svg10.dtd" [
  <!ATTLIST g xmlns:kvg CDATA #FIXED "http://kanjivg.tagaini.net" kvg:element CDATA #IMPLIED kvg:variant CDATA #IMPLIED kvg:partial CDATA #IMPLIED kvg:original CDATA #IMPLIED kvg:part CDATA #IMPLIED kvg:number CDATA #IMPLIED kvg:tradForm CDATA #IMPLIED kvg:radicalForm CDATA #IMPLIED kvg:position CDATA #IMPLIED kvg:radical CDATA #IMPLIED kvg:phon CDATA #IMPLIED >
  <!ATTLIST path xmlns:kvg CDATA #FIXED "http://kanjivg.tagaini.net" kvg:type CDATA #IMPLIED >
  ]>
  <svg xmlns="http://www.w3.org/2000/svg" width="109" height="109" viewBox="0 0 109 109">
<g id="kvg:StrokePaths_07956" style="fill:none;stroke:#000000;stroke-width:3;stroke-linecap:round;stroke-linejoin:round;">
<g id="kvg:07956" kvg:element="祖">
	<g id="kvg:07956-g1" kvg:element="礻" kvg:variant="true" kvg:original="示" kvg:position="left" kvg:radical="general">
		<path style="fill:none;stroke:#808080" id="kvg:07956-s1" kvg:type="㇔" d="M25.83,15.5c3.24,2,6.72,5,9.5,8.5"/>
		<path style="fill:none;stroke:#808080" id="kvg:07956-s2" kvg:type="㇇" d="M12.08,37.82c1.05,0.48,3.12,0.93,4.92,0.75c3.13-0.32,18.08-5.01,20.68-5.81c2.6-0.8,4.46,1.33,2.88,3.73c-5.45,8.29-16.81,23.26-26.95,33.26"/>
		<path style="fill:none;stroke:#808080" id="kvg:07956-s3" kvg:type="㇑" d="M29,54.36c0.88,0.88,1.77,2.51,1.77,3.89c0,10.25-0.02,20-0.02,30.75c0,3.01,0.08,5.47,0.08,6.25"/>
		<path style="fill:none;stroke:#808080" id="kvg:07956-s4" kvg:type="㇔" d="M33.58,51c3.76,2.65,7.78,6.62,11,11.25"/>
	</g>
	<g id="kvg:07956-g2" kvg:element="且" kvg:position="right" kvg:phon="且">
		<g id="kvg:07956-g3" kvg:element="月">
			<path style="fill:none;stroke-width:4;" id="kvg:07956-s5" kvg:type="㇑a" d="M54.69,25.48c0.98,0.98,1.38,2.4,1.38,3.64c0,0.97,0.09,52.38,0.09,59.25"/>
<circle cx="54.69" cy="25.48" r="5" style="fill:red;stroke:red;" />
		</g>
		<g id="kvg:07956-g4" kvg:element="一">
		</g>
	</g>
</g>
</g></svg>