<?xml version="1.0" encoding="UTF-8"?>
  <!DOCTYPE svg PUBLIC "-//W3C//DTD SVG 1.0//EN" "http://www.w3.org/TR/2001/REC-SVG-20010904/DTD/svg10.dtd" [
  <!ATTLIST g xmlns:kvg CDATA #FIXED "http://kanjivg.tagaini.net" kvg:element CDATA #IMPLIED kvg:variant CDATA #IMPLIED kvg:partial CDATA #IMPLIED kvg:original CDATA #IMPLIED kvg:part CDATA #IMPLIED kvg:number CDATA #IMPLIED kvg:tradForm CDATA #IMPLIED kvg:radicalForm CDATA #IMPLIED kvg:position CDATA #IMPLIED kvg:radical CDATA #IMPLIED kvg:phon CDATA #IMPLIED >
  <!ATTLIST path xmlns:kvg CDATA #FIXED "http://kanjivg.tagaini.net" kvg:type CDATA #IMPLIED >
  ]>
  <svg xmlns="http://www.w3.org/2000/svg" width="109" height="109" viewBox="0 0 109 109">
<g id="kvg:StrokePaths_07968" style="fill:none;stroke:#000000;stroke-width:3;stroke-linecap:round;stroke-linejoin:round;">
<g id="kvg:07968" kvg:element="票">
	<g id="kvg:07968-g1" kvg:element="覀" kvg:original="襾" kvg:position="top" kvg:radical="nelson">
		<path style="fill:none;stroke:#808080" id="kvg:07968-s1" kvg:type="㇐" d="M28.5,15.64c2.44,0.78,4.88,0.62,7.38,0.42c8.7-0.7,25.9-2.6,34.5-3.25c2.45-0.19,4.88-0.19,7.25,0.19"/>
		<path style="fill:none;stroke:#808080" id="kvg:07968-s2" kvg:type="㇑" d="M24,29.69c0.84,0.55,1.35,1.32,1.51,2.31c1.05,3.12,2.19,8.57,3.04,13.2c0.2,1.06,0.38,2.08,0.54,3.02"/>
		<path style="fill:none;stroke:#808080" id="kvg:07968-s3" kvg:type="㇕a" d="M26.54,31.03c11.21-1.4,41.58-4.53,55.08-5.32c3.31-0.19,6.16-0.08,5.05,3.95c-0.92,3.33-1.95,6.79-3.64,11.64c-0.37,1.08-0.78,2.22-1.22,3.45"/>
		<path style="fill:none;stroke:#808080" id="kvg:07968-s4" kvg:type="㇑" d="M41.37,19c1,1,1.82,2.24,1.96,3.25c0.42,3,1.92,14.12,2.67,21.5"/>
		<path style="fill:none;stroke-width:4;" id="kvg:07968-s5" kvg:type="㇑" d="M65.12,17c0.63,1.12,0.75,3,0.38,4.75c-0.86,4.03-2.25,11.38-4.5,20.5"/>
<circle cx="65.12" cy="17" r="5" style="fill:red;stroke:red;" />
	</g>
	<g id="kvg:07968-g2" kvg:element="示" kvg:position="bottom" kvg:radical="tradit">
		<g id="kvg:07968-g3" kvg:position="top">
		</g>
		<g id="kvg:07968-g4" kvg:position="bottom">
		</g>
	</g>
</g>
</g></svg>