<?xml version="1.0" encoding="UTF-8"?>
  <!DOCTYPE svg PUBLIC "-//W3C//DTD SVG 1.0//EN" "http://www.w3.org/TR/2001/REC-SVG-20010904/DTD/svg10.dtd" [
  <!ATTLIST g xmlns:kvg CDATA #FIXED "http://kanjivg.tagaini.net" kvg:element CDATA #IMPLIED kvg:variant CDATA #IMPLIED kvg:partial CDATA #IMPLIED kvg:original CDATA #IMPLIED kvg:part CDATA #IMPLIED kvg:number CDATA #IMPLIED kvg:tradForm CDATA #IMPLIED kvg:radicalForm CDATA #IMPLIED kvg:position CDATA #IMPLIED kvg:radical CDATA #IMPLIED kvg:phon CDATA #IMPLIED >
  <!ATTLIST path xmlns:kvg CDATA #FIXED "http://kanjivg.tagaini.net" kvg:type CDATA #IMPLIED >
  ]>
  <svg xmlns="http://www.w3.org/2000/svg" width="109" height="109" viewBox="0 0 109 109">
<g id="kvg:StrokePaths_07981" style="fill:none;stroke:#000000;stroke-width:3;stroke-linecap:round;stroke-linejoin:round;">
<g id="kvg:07981" kvg:element="禁">
	<g id="kvg:07981-g1" kvg:element="林" kvg:position="top">
		<g id="kvg:07981-g2" kvg:element="木" kvg:variant="true" kvg:position="left">
			<path style="fill:none;stroke:#808080" id="kvg:07981-s1" kvg:type="㇐" d="M17.66,26.85c0.7,0.17,2.82,0.4,4.69,0.25c6.56-0.52,13.28-1.6,20.36-2.47c1.86-0.23,3.28-0.27,4.45-0.09"/>
			<path style="fill:none;stroke:#808080" id="kvg:07981-s2" kvg:type="㇑" d="M34.57,13.38c0.9,0.9,1.36,2.12,1.36,3.24c0,6.41,0.01,20.05,0.01,28.01c0,2.14,0,3.87,0,4.94"/>
			<path style="fill:none;stroke:#808080" id="kvg:07981-s3" kvg:type="㇒" d="M34.74,27.47c0,1.16-0.49,2.01-1.13,3.1c-3.85,6.46-11.04,14.52-16.62,18.74"/>
			<path style="fill:none;stroke-width:4;" id="kvg:07981-s4" kvg:type="㇔/㇏" d="M39.75,32.25c2.79,1.66,6.28,4.76,8.72,7.37"/>
<circle cx="39.75" cy="32.25" r="5" style="fill:red;stroke:red;" />
		</g>
		<g id="kvg:07981-g3" kvg:element="木" kvg:position="right">
		</g>
	</g>
	<g id="kvg:07981-g4" kvg:element="示" kvg:position="bottom" kvg:radical="general">
		<g id="kvg:07981-g5" kvg:position="top">
		</g>
		<g id="kvg:07981-g6" kvg:position="bottom">
		</g>
	</g>
</g>
</g></svg>