<?xml version="1.0" encoding="UTF-8"?>
  <!DOCTYPE svg PUBLIC "-//W3C//DTD SVG 1.0//EN" "http://www.w3.org/TR/2001/REC-SVG-20010904/DTD/svg10.dtd" [
  <!ATTLIST g xmlns:kvg CDATA #FIXED "http://kanjivg.tagaini.net" kvg:element CDATA #IMPLIED kvg:variant CDATA #IMPLIED kvg:partial CDATA #IMPLIED kvg:original CDATA #IMPLIED kvg:part CDATA #IMPLIED kvg:number CDATA #IMPLIED kvg:tradForm CDATA #IMPLIED kvg:radicalForm CDATA #IMPLIED kvg:position CDATA #IMPLIED kvg:radical CDATA #IMPLIED kvg:phon CDATA #IMPLIED >
  <!ATTLIST path xmlns:kvg CDATA #FIXED "http://kanjivg.tagaini.net" kvg:type CDATA #IMPLIED >
  ]>
  <svg xmlns="http://www.w3.org/2000/svg" width="109" height="109" viewBox="0 0 109 109">
<g id="kvg:StrokePaths_079c1" style="fill:none;stroke:#000000;stroke-width:3;stroke-linecap:round;stroke-linejoin:round;">
<g id="kvg:079c1" kvg:element="私">
	<g id="kvg:079c1-g1" kvg:element="禾" kvg:position="left" kvg:radical="general">
		<g id="kvg:079c1-g2" kvg:element="丿" kvg:position="top">
			<path style="fill:none;stroke:#808080" id="kvg:079c1-s1" kvg:type="㇒" d="M45.24,13.5c0.01,1-0.5,2.25-1.43,2.99C39.75,19.75,31.75,23.88,18.75,29"/>
		</g>
		<g id="kvg:079c1-g3" kvg:element="木" kvg:position="bottom">
			<path style="fill:none;stroke:#808080" id="kvg:079c1-s2" kvg:type="㇐" d="M11.62,44.6c2.63,0.78,5.51,0.5,7.28,0.17c9.98-1.89,22.62-3.29,30.72-4.06c1.29-0.12,3.13-0.21,4.36,0.12"/>
			<path style="fill:none;stroke:#808080" id="kvg:079c1-s3" kvg:type="㇑" d="M36.08,26.66c0.95,0.95,1.41,2.84,1.41,4.69c0,3.83,0,40.18-0.04,55.4c-0.01,3.25-0.02,5.59-0.03,6.5"/>
			<path style="fill:none;stroke-width:4;" id="kvg:079c1-s4" kvg:type="㇒" d="M35.93,43.47c0,1.03-0.71,2.97-1.36,4.2C29.27,57.83,21.15,69.5,10.5,77.5"/>
<circle cx="35.93" cy="43.47" r="5" style="fill:red;stroke:red;" />
		</g>
	</g>
	<g id="kvg:079c1-g4" kvg:element="厶" kvg:position="right" kvg:phon="厶">
	</g>
</g>
</g></svg>