<?xml version="1.0" encoding="UTF-8"?>
  <!DOCTYPE svg PUBLIC "-//W3C//DTD SVG 1.0//EN" "http://www.w3.org/TR/2001/REC-SVG-20010904/DTD/svg10.dtd" [
  <!ATTLIST g xmlns:kvg CDATA #FIXED "http://kanjivg.tagaini.net" kvg:element CDATA #IMPLIED kvg:variant CDATA #IMPLIED kvg:partial CDATA #IMPLIED kvg:original CDATA #IMPLIED kvg:part CDATA #IMPLIED kvg:number CDATA #IMPLIED kvg:tradForm CDATA #IMPLIED kvg:radicalForm CDATA #IMPLIED kvg:position CDATA #IMPLIED kvg:radical CDATA #IMPLIED kvg:phon CDATA #IMPLIED >
  <!ATTLIST path xmlns:kvg CDATA #FIXED "http://kanjivg.tagaini.net" kvg:type CDATA #IMPLIED >
  ]>
  <svg xmlns="http://www.w3.org/2000/svg" width="109" height="109" viewBox="0 0 109 109">
<g id="kvg:StrokePaths_079cb" style="fill:none;stroke:#000000;stroke-width:3;stroke-linecap:round;stroke-linejoin:round;">
<g id="kvg:079cb" kvg:element="秋">
	<g id="kvg:079cb-g1" kvg:element="禾" kvg:position="left" kvg:radical="general">
		<g id="kvg:079cb-g2" kvg:element="丿" kvg:position="top">
			<path style="fill:none;stroke:#808080" id="kvg:079cb-s1" kvg:type="㇒" d="M39.62,15.38c-0.12,1.25-0.96,2.35-1.7,2.99c-5.2,4.45-12.22,8.98-23.42,13.39"/>
		</g>
		<g id="kvg:079cb-g3" kvg:element="木" kvg:position="bottom">
			<path style="fill:none;stroke:#808080" id="kvg:079cb-s2" kvg:type="㇐" d="M8.74,43.6c0.75,0.21,2.75,0.47,4.74,0.37c7.21-0.34,16.66-1.97,27.75-3.64c1.97-0.3,3-0.46,4.24-0.25"/>
			<path style="fill:none;stroke:#808080" id="kvg:079cb-s3" kvg:type="㇑" d="M29.08,28.16c1.01,1.01,1.42,2.59,1.42,4.09c0,6.99-0.05,40.67-0.05,55.5c0,2.25-0.03,4.04-0.04,5"/>
			<path style="fill:none;stroke:#808080" id="kvg:079cb-s4" kvg:type="㇒" d="M29.43,42.97c0,1.53-0.82,3.59-1.12,4.4c-3.6,9.6-8.94,20.27-16.31,27.88"/>
			<path style="fill:none;stroke:#808080" id="kvg:079cb-s5" kvg:type="㇔/㇏" d="M34,52c3.3,1.92,6.1,5.77,7.88,8.25"/>
		</g>
	</g>
	<g id="kvg:079cb-g4" kvg:element="火" kvg:position="right">
		<path style="fill:none;stroke-width:4;" id="kvg:079cb-s6" kvg:type="㇔" d="M51,41c1.92,2.82,4.72,10.81,5.25,13.62"/>
<circle cx="51" cy="41" r="5" style="fill:red;stroke:red;" />
	</g>
</g>
</g></svg>