<?xml version="1.0" encoding="UTF-8"?>
  <!DOCTYPE svg PUBLIC "-//W3C//DTD SVG 1.0//EN" "http://www.w3.org/TR/2001/REC-SVG-20010904/DTD/svg10.dtd" [
  <!ATTLIST g xmlns:kvg CDATA #FIXED "http://kanjivg.tagaini.net" kvg:element CDATA #IMPLIED kvg:variant CDATA #IMPLIED kvg:partial CDATA #IMPLIED kvg:original CDATA #IMPLIED kvg:part CDATA #IMPLIED kvg:number CDATA #IMPLIED kvg:tradForm CDATA #IMPLIED kvg:radicalForm CDATA #IMPLIED kvg:position CDATA #IMPLIED kvg:radical CDATA #IMPLIED kvg:phon CDATA #IMPLIED >
  <!ATTLIST path xmlns:kvg CDATA #FIXED "http://kanjivg.tagaini.net" kvg:type CDATA #IMPLIED >
  ]>
  <svg xmlns="http://www.w3.org/2000/svg" width="109" height="109" viewBox="0 0 109 109">
<g id="kvg:StrokePaths_07a2e" style="fill:none;stroke:#000000;stroke-width:3;stroke-linecap:round;stroke-linejoin:round;">
<g id="kvg:07a2e" kvg:element="種">
	<g id="kvg:07a2e-g1" kvg:element="禾" kvg:position="left" kvg:radical="general">
		<g id="kvg:07a2e-g2" kvg:element="丿" kvg:position="top">
			<path style="fill:none;stroke:#808080" id="kvg:07a2e-s1" kvg:type="㇒" d="M38.5,14.88c0.18,0.82-0.34,1.79-0.91,2.32C34.58,19.95,27.13,23.54,15,27.75"/>
		</g>
		<g id="kvg:07a2e-g3" kvg:element="木" kvg:position="bottom">
			<path style="fill:none;stroke:#808080" id="kvg:07a2e-s2" kvg:type="㇐" d="M10.99,41.6c1.84,0.4,4.17,0.37,6.04,0.2c6.32-0.58,18.3-2.14,23.98-2.97c1.03-0.15,2.32-0.21,2.97,0"/>
			<path style="fill:none;stroke:#808080" id="kvg:07a2e-s3" kvg:type="㇑" d="M30.08,24.16c1.01,1.01,1.41,2.47,1.41,3.94c0,0.67,0,41.86-0.04,60.15c-0.01,4.26-0.02,7.27-0.03,8.25"/>
			<path style="fill:none;stroke:#808080" id="kvg:07a2e-s4" kvg:type="㇒" d="M30.18,41.47c0,1.41-0.42,2.71-0.79,3.58C25.05,55.32,17.72,67.09,10,75.5"/>
			<path style="fill:none;stroke:#808080" id="kvg:07a2e-s5" kvg:type="㇔/㇏" d="M34,46.5c3.98,2.62,7.35,7.88,9.5,11.25"/>
		</g>
	</g>
	<g id="kvg:07a2e-g4" kvg:element="重" kvg:position="right" kvg:phon="重">
		<g id="kvg:07a2e-g5" kvg:element="千" kvg:part="1">
			<g id="kvg:07a2e-g6" kvg:element="丿">
				<path style="fill:none;stroke:#808080" id="kvg:07a2e-s6" kvg:type="㇒" d="M80.12,13.62c-0.06,1.07-0.54,1.81-1.29,2.31c-3.48,2.33-11.91,6.51-26.81,9.59"/>
			</g>
			<g id="kvg:07a2e-g7" kvg:element="十" kvg:part="1">
				<path style="fill:none;stroke-width:4;" id="kvg:07a2e-s7" kvg:type="㇐" d="M46.42,33.74c2.58,0.51,4.98,0.37,7.44,0.09c9.02-1.01,25.15-2.69,34.41-3.52c2.42-0.22,4.59-0.31,6.98,0.17"/>
<circle cx="46.42" cy="33.74" r="5" style="fill:red;stroke:red;" />
			</g>
		</g>
		<g id="kvg:07a2e-g8" kvg:element="里">
			<g id="kvg:07a2e-g9" kvg:element="千" kvg:part="2">
				<g id="kvg:07a2e-g10" kvg:element="十" kvg:part="2">
				</g>
			</g>
		</g>
	</g>
</g>
</g></svg>