<?xml version="1.0" encoding="UTF-8"?>
  <!DOCTYPE svg PUBLIC "-//W3C//DTD SVG 1.0//EN" "http://www.w3.org/TR/2001/REC-SVG-20010904/DTD/svg10.dtd" [
  <!ATTLIST g xmlns:kvg CDATA #FIXED "http://kanjivg.tagaini.net" kvg:element CDATA #IMPLIED kvg:variant CDATA #IMPLIED kvg:partial CDATA #IMPLIED kvg:original CDATA #IMPLIED kvg:part CDATA #IMPLIED kvg:number CDATA #IMPLIED kvg:tradForm CDATA #IMPLIED kvg:radicalForm CDATA #IMPLIED kvg:position CDATA #IMPLIED kvg:radical CDATA #IMPLIED kvg:phon CDATA #IMPLIED >
  <!ATTLIST path xmlns:kvg CDATA #FIXED "http://kanjivg.tagaini.net" kvg:type CDATA #IMPLIED >
  ]>
  <svg xmlns="http://www.w3.org/2000/svg" width="109" height="109" viewBox="0 0 109 109">
<g id="kvg:StrokePaths_07a40" style="fill:none;stroke:#000000;stroke-width:3;stroke-linecap:round;stroke-linejoin:round;">
<g id="kvg:07a40" kvg:element="穀">
	<g id="kvg:07a40-g1" kvg:position="left">
		<g id="kvg:07a40-g2" kvg:position="top" kvg:phon="殻1T">
			<g id="kvg:07a40-g3" kvg:element="士">
				<path style="fill:none;stroke:#808080" id="kvg:07a40-s1" kvg:type="㇐" d="M21.53,22.65c1.72,0.22,3.63,0.23,4.98,0.07c6.77-0.78,13.87-1.85,19.96-2.72c1.3-0.19,2.35-0.12,3.01,0.03"/>
				<path style="fill:none;stroke:#808080" id="kvg:07a40-s2" kvg:type="㇑a" d="M35.64,11c0.68,0.68,1.12,1.5,1.12,2.73c0,3.27,0.1,10.77,0.1,17.89"/>
				<path style="fill:none;stroke:#808080" id="kvg:07a40-s3" kvg:type="㇐" d="M22.98,34c1.53,0.35,3.1,0.19,4.63-0.02c6.51-0.86,10.63-1.48,17.66-2.5c1.2-0.17,2.47-0.17,3.09-0.08"/>
			</g>
			<g id="kvg:07a40-g4" kvg:element="冖">
				<path style="fill:none;stroke-width:4;" id="kvg:07a40-s4" kvg:type="㇔" d="M17.5,43.38c0,3.48-2.58,13.05-3.75,15.38"/>
<circle cx="17.5" cy="43.38" r="5" style="fill:red;stroke:red;" />
			</g>
		</g>
		<g id="kvg:07a40-g5" kvg:element="禾" kvg:position="bottom" kvg:radical="tradit">
			<g id="kvg:07a40-g6" kvg:element="丿" kvg:position="top">
			</g>
			<g id="kvg:07a40-g7" kvg:element="木" kvg:position="bottom">
			</g>
		</g>
	</g>
	<g id="kvg:07a40-g8" kvg:element="殳" kvg:position="right" kvg:radical="nelson" kvg:phon="殻2T">
		<g id="kvg:07a40-g9" kvg:element="几" kvg:position="top">
			<g id="kvg:07a40-g10" kvg:element="丿">
			</g>
		</g>
		<g id="kvg:07a40-g11" kvg:element="又" kvg:position="bottom">
		</g>
	</g>
</g>
</g></svg>