<?xml version="1.0" encoding="UTF-8"?>
  <!DOCTYPE svg PUBLIC "-//W3C//DTD SVG 1.0//EN" "http://www.w3.org/TR/2001/REC-SVG-20010904/DTD/svg10.dtd" [
  <!ATTLIST g xmlns:kvg CDATA #FIXED "http://kanjivg.tagaini.net" kvg:element CDATA #IMPLIED kvg:variant CDATA #IMPLIED kvg:partial CDATA #IMPLIED kvg:original CDATA #IMPLIED kvg:part CDATA #IMPLIED kvg:number CDATA #IMPLIED kvg:tradForm CDATA #IMPLIED kvg:radicalForm CDATA #IMPLIED kvg:position CDATA #IMPLIED kvg:radical CDATA #IMPLIED kvg:phon CDATA #IMPLIED >
  <!ATTLIST path xmlns:kvg CDATA #FIXED "http://kanjivg.tagaini.net" kvg:type CDATA #IMPLIED >
  ]>
  <svg xmlns="http://www.w3.org/2000/svg" width="109" height="109" viewBox="0 0 109 109">
<g id="kvg:StrokePaths_07a4d" style="fill:none;stroke:#000000;stroke-width:3;stroke-linecap:round;stroke-linejoin:round;">
<g id="kvg:07a4d" kvg:element="積">
	<g id="kvg:07a4d-g1" kvg:element="禾" kvg:position="left" kvg:radical="general">
		<g id="kvg:07a4d-g2" kvg:element="丿" kvg:position="top">
			<path style="fill:none;stroke:#808080" id="kvg:07a4d-s1" kvg:type="㇒" d="M39.25,15.25c0,1-0.94,2.03-1.66,2.6C34.12,20.62,27.62,23.5,16,27"/>
		</g>
		<g id="kvg:07a4d-g3" kvg:element="木" kvg:position="bottom">
			<path style="fill:none;stroke:#808080" id="kvg:07a4d-s2" kvg:type="㇐" d="M9.87,43.85c2.01,0.65,3.57,0.62,5.3,0.41c6.13-0.73,19.18-3.09,24.71-3.93c0.99-0.15,1.99-0.21,2.61,0"/>
			<path style="fill:none;stroke:#808080" id="kvg:07a4d-s3" kvg:type="㇑" d="M30.33,25.16c0.82,0.82,1.41,1.97,1.41,3.19c0,5.06-0.05,45.46-0.07,61.53c0,3.06,0,5.24,0,6.12"/>
			<path style="fill:none;stroke-width:4;" id="kvg:07a4d-s4" kvg:type="㇒" d="M30.18,43.47c0,1.16-0.26,2.43-0.53,3.17c-3.59,9.66-9.4,20.37-17.4,29.87"/>
<circle cx="30.18" cy="43.47" r="5" style="fill:red;stroke:red;" />
		</g>
	</g>
	<g id="kvg:07a4d-g4" kvg:element="責" kvg:position="right" kvg:phon="責">
		<g id="kvg:07a4d-g5" kvg:element="龶" kvg:position="top">
		</g>
		<g id="kvg:07a4d-g6" kvg:element="貝" kvg:position="bottom">
			<g id="kvg:07a4d-g7" kvg:element="目" kvg:position="top">
			</g>
			<g id="kvg:07a4d-g8" kvg:position="bottom">
			</g>
		</g>
	</g>
</g>
</g></svg>