<?xml version="1.0" encoding="UTF-8"?>
  <!DOCTYPE svg PUBLIC "-//W3C//DTD SVG 1.0//EN" "http://www.w3.org/TR/2001/REC-SVG-20010904/DTD/svg10.dtd" [
  <!ATTLIST g xmlns:kvg CDATA #FIXED "http://kanjivg.tagaini.net" kvg:element CDATA #IMPLIED kvg:variant CDATA #IMPLIED kvg:partial CDATA #IMPLIED kvg:original CDATA #IMPLIED kvg:part CDATA #IMPLIED kvg:number CDATA #IMPLIED kvg:tradForm CDATA #IMPLIED kvg:radicalForm CDATA #IMPLIED kvg:position CDATA #IMPLIED kvg:radical CDATA #IMPLIED kvg:phon CDATA #IMPLIED >
  <!ATTLIST path xmlns:kvg CDATA #FIXED "http://kanjivg.tagaini.net" kvg:type CDATA #IMPLIED >
  ]>
  <svg xmlns="http://www.w3.org/2000/svg" width="109" height="109" viewBox="0 0 109 109">
<g id="kvg:StrokePaths_07a93" style="fill:none;stroke:#000000;stroke-width:3;stroke-linecap:round;stroke-linejoin:round;">
<g id="kvg:07a93" kvg:element="窓">
	<g id="kvg:07a93-g1" kvg:element="穴" kvg:variant="true" kvg:position="top" kvg:radical="general">
		<g id="kvg:07a93-g2" kvg:element="宀" kvg:position="top">
			<path style="fill:none;stroke:#808080" id="kvg:07a93-s1" kvg:type="㇑a" d="M52.76,10.25c0.99,0.99,1.58,2.25,1.58,3.7c0,3.05-0.09,4.49-0.09,7.27"/>
			<g id="kvg:07a93-g3" kvg:element="冖">
				<path style="fill:none;stroke:#808080" id="kvg:07a93-s2" kvg:type="㇔" d="M24.44,22.38c0,4.1-1.86,15.38-2.71,18.12"/>
				<path style="fill:none;stroke:#808080" id="kvg:07a93-s3" kvg:type="㇖b" d="M25.07,26.24c17.68-3.12,40.18-5.99,56.02-6.63c10.79-0.44,2.29,6.66-0.4,8.55"/>
			</g>
		</g>
		<g id="kvg:07a93-g4" kvg:element="八" kvg:variant="true" kvg:position="bottom" kvg:phon="忩1">
			<path style="fill:none;stroke:#808080" id="kvg:07a93-s4" kvg:type="㇒" d="M40.02,31.5c0.1,1.1-0.08,1.79-0.54,2.8c-1.93,4.27-5.95,9.64-12.57,14.62"/>
			<path style="fill:none;stroke:#808080" id="kvg:07a93-s5" kvg:type="㇟a/㇏" d="M61.99,26.62c0.63,0.63,1.08,1.75,1.08,2.95c0,3.14-0.07,4.31-0.07,6.82c0,3.61,1.13,4.42,10.38,4.42c5.56,0,9.23-0.64,10.01-1.01"/>
		</g>
	</g>
	<g id="kvg:07a93-g5" kvg:position="bottom" kvg:phon="忩2">
		<g id="kvg:07a93-g6" kvg:element="厶">
			<path style="fill:none;stroke-width:4;" id="kvg:07a93-s6" kvg:type="㇜" d="M51.75,42.25c0.38,1.25-0.06,2.17-0.77,3.08c-4.98,6.42-7.86,9.55-14.43,16c-1.77,1.74-1.9,2.99,0.92,2.24c10.65-2.82,20.03-5.44,29.52-7.65"/>
<circle cx="51.75" cy="42.25" r="5" style="fill:red;stroke:red;" />
		</g>
		<g id="kvg:07a93-g7" kvg:element="心">
		</g>
	</g>
</g>
</g></svg>