<?xml version="1.0" encoding="UTF-8"?>
  <!DOCTYPE svg PUBLIC "-//W3C//DTD SVG 1.0//EN" "http://www.w3.org/TR/2001/REC-SVG-20010904/DTD/svg10.dtd" [
  <!ATTLIST g xmlns:kvg CDATA #FIXED "http://kanjivg.tagaini.net" kvg:element CDATA #IMPLIED kvg:variant CDATA #IMPLIED kvg:partial CDATA #IMPLIED kvg:original CDATA #IMPLIED kvg:part CDATA #IMPLIED kvg:number CDATA #IMPLIED kvg:tradForm CDATA #IMPLIED kvg:radicalForm CDATA #IMPLIED kvg:position CDATA #IMPLIED kvg:radical CDATA #IMPLIED kvg:phon CDATA #IMPLIED >
  <!ATTLIST path xmlns:kvg CDATA #FIXED "http://kanjivg.tagaini.net" kvg:type CDATA #IMPLIED >
  ]>
  <svg xmlns="http://www.w3.org/2000/svg" width="109" height="109" viewBox="0 0 109 109">
<g id="kvg:StrokePaths_07ae0" style="fill:none;stroke:#000000;stroke-width:3;stroke-linecap:round;stroke-linejoin:round;">
<g id="kvg:07ae0" kvg:element="章">
	<g id="kvg:07ae0-g1" kvg:element="音" kvg:part="1" kvg:position="top" kvg:radical="nelson">
		<g id="kvg:07ae0-g2" kvg:element="立" kvg:radical="tradit">
			<g id="kvg:07ae0-g3" kvg:element="亠" kvg:position="top">
				<path style="fill:none;stroke:#808080" id="kvg:07ae0-s1" kvg:type="㇑a" d="M51.75,9.25c1,0.75,1.5,1.75,1.5,3.5s0,1.5,0,6.25"/>
				<path style="fill:none;stroke:#808080" id="kvg:07ae0-s2" kvg:type="㇐" d="M28,21.95c2.75,0.3,5.21,0.19,7.75-0.07c9.16-0.93,24.63-2.66,37.25-3.61c2.64-0.2,5.13-0.38,7.75,0.06"/>
			</g>
			<g id="kvg:07ae0-g4" kvg:position="bottom">
				<path style="fill:none;stroke:#808080" id="kvg:07ae0-s3" kvg:type="㇔" d="M38.5,25.38c3.09,3.71,4.77,7.68,5.05,10.12"/>
				<path style="fill:none;stroke:#808080" id="kvg:07ae0-s4" kvg:type="㇒" d="M67.97,23c0.16,0.88,0.15,1.85-0.19,2.6c-1.15,2.53-3.64,6.64-4.77,8.15"/>
				<path style="fill:none;stroke-width:4;" id="kvg:07ae0-s5" kvg:type="㇐" d="M14.75,40.05c3.29,0.72,6.75,0.69,10.08,0.37c17.66-1.68,40.01-4.68,59.92-5.34c3.3-0.11,6.48-0.19,9.75,0.25"/>
<circle cx="14.75" cy="40.05" r="5" style="fill:red;stroke:red;" />
			</g>
		</g>
	</g>
	<g id="kvg:07ae0-g5" kvg:element="早" kvg:position="bottom">
		<g id="kvg:07ae0-g6" kvg:element="音" kvg:part="2" kvg:radical="nelson">
			<g id="kvg:07ae0-g7" kvg:element="日">
			</g>
		</g>
		<g id="kvg:07ae0-g8" kvg:element="十">
		</g>
	</g>
</g>
</g></svg>