<?xml version="1.0" encoding="UTF-8"?>
  <!DOCTYPE svg PUBLIC "-//W3C//DTD SVG 1.0//EN" "http://www.w3.org/TR/2001/REC-SVG-20010904/DTD/svg10.dtd" [
  <!ATTLIST g xmlns:kvg CDATA #FIXED "http://kanjivg.tagaini.net" kvg:element CDATA #IMPLIED kvg:variant CDATA #IMPLIED kvg:partial CDATA #IMPLIED kvg:original CDATA #IMPLIED kvg:part CDATA #IMPLIED kvg:number CDATA #IMPLIED kvg:tradForm CDATA #IMPLIED kvg:radicalForm CDATA #IMPLIED kvg:position CDATA #IMPLIED kvg:radical CDATA #IMPLIED kvg:phon CDATA #IMPLIED >
  <!ATTLIST path xmlns:kvg CDATA #FIXED "http://kanjivg.tagaini.net" kvg:type CDATA #IMPLIED >
  ]>
  <svg xmlns="http://www.w3.org/2000/svg" width="109" height="109" viewBox="0 0 109 109">
<g id="kvg:StrokePaths_07b4b" style="fill:none;stroke:#000000;stroke-width:3;stroke-linecap:round;stroke-linejoin:round;">
<g id="kvg:07b4b" kvg:element="筋">
	<g id="kvg:07b4b-g1" kvg:element="竹" kvg:variant="true" kvg:position="top" kvg:radical="general">
		<g id="kvg:07b4b-g2" kvg:position="left">
			<path style="fill:none;stroke:#808080" id="kvg:07b4b-s1" kvg:type="㇒" d="M29.42,13.69c0.09,1.24-0.08,2.27-0.54,3.44c-1.8,4.57-7.58,12.61-13.63,17.49"/>
			<path style="fill:none;stroke:#808080" id="kvg:07b4b-s2" kvg:type="㇐b" d="M28.14,25.82c2.88,0,10.52-1.91,15.98-2.87c1.82-0.32,3.4-0.53,4.47-0.53"/>
			<path style="fill:none;stroke:#808080" id="kvg:07b4b-s3" kvg:type="㇔/㇑" d="M33.18,27.92c1.66,1.48,4.29,6.1,4.7,8.41"/>
		</g>
		<g id="kvg:07b4b-g3" kvg:position="right">
			<path style="fill:none;stroke:#808080" id="kvg:07b4b-s4" kvg:type="㇒" d="M61.79,13.13c0.06,0.98-0.03,1.75-0.33,2.69c-1.5,4.57-4.96,10.72-9.46,16.06"/>
			<path style="fill:none;stroke-width:4;" id="kvg:07b4b-s5" kvg:type="㇐b" d="M62.04,24.35c3.92,0,18-2.93,25.69-4.01c1.93-0.27,3.55-0.19,4.65-0.19"/>
<circle cx="62.04" cy="24.35" r="5" style="fill:red;stroke:red;" />
		</g>
	</g>
	<g id="kvg:07b4b-g4" kvg:element="肋" kvg:position="bottom">
		<g id="kvg:07b4b-g5" kvg:element="月" kvg:position="left">
		</g>
		<g id="kvg:07b4b-g6" kvg:element="力" kvg:position="right">
		</g>
	</g>
</g>
</g></svg>