<?xml version="1.0" encoding="UTF-8"?>
  <!DOCTYPE svg PUBLIC "-//W3C//DTD SVG 1.0//EN" "http://www.w3.org/TR/2001/REC-SVG-20010904/DTD/svg10.dtd" [
  <!ATTLIST g xmlns:kvg CDATA #FIXED "http://kanjivg.tagaini.net" kvg:element CDATA #IMPLIED kvg:variant CDATA #IMPLIED kvg:partial CDATA #IMPLIED kvg:original CDATA #IMPLIED kvg:part CDATA #IMPLIED kvg:number CDATA #IMPLIED kvg:tradForm CDATA #IMPLIED kvg:radicalForm CDATA #IMPLIED kvg:position CDATA #IMPLIED kvg:radical CDATA #IMPLIED kvg:phon CDATA #IMPLIED >
  <!ATTLIST path xmlns:kvg CDATA #FIXED "http://kanjivg.tagaini.net" kvg:type CDATA #IMPLIED >
  ]>
  <svg xmlns="http://www.w3.org/2000/svg" width="109" height="109" viewBox="0 0 109 109">
<g id="kvg:StrokePaths_07b49" style="fill:none;stroke:#000000;stroke-width:3;stroke-linecap:round;stroke-linejoin:round;">
<g id="kvg:07b49" kvg:element="等">
	<g id="kvg:07b49-g1" kvg:element="竹" kvg:variant="true" kvg:position="top" kvg:radical="general">
		<g id="kvg:07b49-g2" kvg:position="left">
			<path style="fill:none;stroke:#808080" id="kvg:07b49-s1" kvg:type="㇒" d="M31.75,11.25c0.08,1.09-0.02,1.81-0.46,2.82C29.36,18.45,24.34,26.08,18.25,31"/>
			<path style="fill:none;stroke:#808080" id="kvg:07b49-s2" kvg:type="㇐b" d="M29.23,22.04c2.94,0,11.09-1.69,16.52-2.28c1.42-0.16,2.62-0.13,3.75,0"/>
			<path style="fill:none;stroke:#808080" id="kvg:07b49-s3" kvg:type="㇔/㇑" d="M37.14,23.96c1.74,1.45,4.48,7.5,4.92,9.76"/>
		</g>
		<g id="kvg:07b49-g3" kvg:position="right">
			<path style="fill:none;stroke:#808080" id="kvg:07b49-s4" kvg:type="㇒" d="M65.99,10c0.03,0.37,0.14,0.97-0.06,1.49c-1.5,3.9-4.16,8.22-9.67,13.01"/>
			<path style="fill:none;stroke:#808080" id="kvg:07b49-s5" kvg:type="㇐b" d="M64.98,19.66c6.02-0.03,14.27-1.16,19.9-2.11c1.56-0.26,2.87-0.17,4,0.04"/>
			<path style="fill:none;stroke-width:4;" id="kvg:07b49-s6" kvg:type="㇒/㇚" d="M72.5,21.75c0.09,0.61-0.01,1.43-0.32,1.95c-1.23,2.89-3.19,5.51-5.68,8.05"/>
<circle cx="72.5" cy="21.75" r="5" style="fill:red;stroke:red;" />
		</g>
	</g>
	<g id="kvg:07b49-g4" kvg:element="寺" kvg:position="bottom" kvg:phon="寺">
		<g id="kvg:07b49-g5" kvg:element="土" kvg:position="top">
		</g>
		<g id="kvg:07b49-g6" kvg:element="寸" kvg:position="bottom">
		</g>
	</g>
</g>
</g></svg>