<?xml version="1.0" encoding="UTF-8"?>
  <!DOCTYPE svg PUBLIC "-//W3C//DTD SVG 1.0//EN" "http://www.w3.org/TR/2001/REC-SVG-20010904/DTD/svg10.dtd" [
  <!ATTLIST g xmlns:kvg CDATA #FIXED "http://kanjivg.tagaini.net" kvg:element CDATA #IMPLIED kvg:variant CDATA #IMPLIED kvg:partial CDATA #IMPLIED kvg:original CDATA #IMPLIED kvg:part CDATA #IMPLIED kvg:number CDATA #IMPLIED kvg:tradForm CDATA #IMPLIED kvg:radicalForm CDATA #IMPLIED kvg:position CDATA #IMPLIED kvg:radical CDATA #IMPLIED kvg:phon CDATA #IMPLIED >
  <!ATTLIST path xmlns:kvg CDATA #FIXED "http://kanjivg.tagaini.net" kvg:type CDATA #IMPLIED >
  ]>
  <svg xmlns="http://www.w3.org/2000/svg" width="109" height="109" viewBox="0 0 109 109">
<g id="kvg:StrokePaths_07b56" style="fill:none;stroke:#000000;stroke-width:3;stroke-linecap:round;stroke-linejoin:round;">
<g id="kvg:07b56" kvg:element="策">
	<g id="kvg:07b56-g1" kvg:element="竹" kvg:variant="true" kvg:position="top" kvg:radical="general">
		<g id="kvg:07b56-g2" kvg:position="left">
			<path style="fill:none;stroke:#808080" id="kvg:07b56-s1" kvg:type="㇒" d="M29.5,11.5c0.08,1.11-0.03,1.82-0.47,2.86c-1.95,4.64-5.73,11.37-11.78,17.89"/>
			<path style="fill:none;stroke:#808080" id="kvg:07b56-s2" kvg:type="㇐b" d="M28.73,23.29c4.27-0.16,11.39-1.58,17.02-2.21C47.2,20.92,48.55,21,50,21"/>
			<path style="fill:none;stroke:#808080" id="kvg:07b56-s3" kvg:type="㇔/㇑" d="M35.52,25.96c1.44,1.37,4.18,6.12,4.54,8.26"/>
		</g>
		<g id="kvg:07b56-g3" kvg:position="right">
			<path style="fill:none;stroke:#808080" id="kvg:07b56-s4" kvg:type="㇒" d="M65,8c0.1,0.88-0.02,1.73-0.39,2.53c-1.86,3.97-4.05,8.51-7.61,12.72"/>
			<path style="fill:none;stroke:#808080" id="kvg:07b56-s5" kvg:type="㇐b" d="M63.48,20.41c5.14-0.16,13.51-1.61,21.77-2.68c1.75-0.23,2.87-0.14,3.63-0.14"/>
			<path style="fill:none;stroke:#808080" id="kvg:07b56-s6" kvg:type="㇒/㇚" d="M72.78,22.25c0.01,0.24,0.03,0.61-0.03,0.95c-0.36,2-2.42,6.37-5.25,9.05"/>
		</g>
	</g>
	<g id="kvg:07b56-g4" kvg:element="朿" kvg:position="bottom" kvg:phon="朿">
		<g id="kvg:07b56-g5" kvg:element="木" kvg:part="1">
			<path style="fill:none;stroke-width:4;" id="kvg:07b56-s7" kvg:type="㇐" d="M28.25,41.7c2.5,0.43,5.34,0.27,8.01-0.09c9.09-1.23,21.36-2.37,34.61-3.27c2.48-0.17,5.23-0.6,7.63,0.24"/>
<circle cx="28.25" cy="41.7" r="5" style="fill:red;stroke:red;" />
		</g>
		<g id="kvg:07b56-g6" kvg:element="冂">
		</g>
		<g id="kvg:07b56-g7" kvg:element="木" kvg:part="2">
		</g>
	</g>
</g>
</g></svg>