<?xml version="1.0" encoding="UTF-8"?>
  <!DOCTYPE svg PUBLIC "-//W3C//DTD SVG 1.0//EN" "http://www.w3.org/TR/2001/REC-SVG-20010904/DTD/svg10.dtd" [
  <!ATTLIST g xmlns:kvg CDATA #FIXED "http://kanjivg.tagaini.net" kvg:element CDATA #IMPLIED kvg:variant CDATA #IMPLIED kvg:partial CDATA #IMPLIED kvg:original CDATA #IMPLIED kvg:part CDATA #IMPLIED kvg:number CDATA #IMPLIED kvg:tradForm CDATA #IMPLIED kvg:radicalForm CDATA #IMPLIED kvg:position CDATA #IMPLIED kvg:radical CDATA #IMPLIED kvg:phon CDATA #IMPLIED >
  <!ATTLIST path xmlns:kvg CDATA #FIXED "http://kanjivg.tagaini.net" kvg:type CDATA #IMPLIED >
  ]>
  <svg xmlns="http://www.w3.org/2000/svg" width="109" height="109" viewBox="0 0 109 109">
<g id="kvg:StrokePaths_07b54" style="fill:none;stroke:#000000;stroke-width:3;stroke-linecap:round;stroke-linejoin:round;">
<g id="kvg:07b54" kvg:element="答">
	<g id="kvg:07b54-g1" kvg:element="竹" kvg:variant="true" kvg:position="top" kvg:radical="general">
		<g id="kvg:07b54-g2" kvg:position="left">
			<path style="fill:none;stroke:#808080" id="kvg:07b54-s1" kvg:type="㇒" d="M29.08,12.17c0.08,1.18-0.06,2.21-0.41,3.34c-1.49,4.75-5.86,12.65-12.3,17.99"/>
			<path style="fill:none;stroke:#808080" id="kvg:07b54-s2" kvg:type="㇐b" d="M29.23,23.29c2.78,0,9.92-1.57,15.2-2.35c1.76-0.26,3.07-0.44,4.32-0.19"/>
			<path style="fill:none;stroke:#808080" id="kvg:07b54-s3" kvg:type="㇔/㇑" d="M32.25,25.75c2.29,1.76,5.93,7.26,6.5,10"/>
		</g>
		<g id="kvg:07b54-g3" kvg:position="right">
			<path style="fill:none;stroke:#808080" id="kvg:07b54-s4" kvg:type="㇒" d="M65.59,11.33c0.12,1.01-0.09,1.96-0.62,2.84c-1.59,3.58-4.84,8.18-8.97,12.2"/>
			<path style="fill:none;stroke:#808080" id="kvg:07b54-s5" kvg:type="㇐b" d="M63.98,22.16c3.8,0,15.47-1.56,22.26-2.46c1.66-0.22,3-0.19,4.13,0.14"/>
			<path style="fill:none;stroke:#808080" id="kvg:07b54-s6" kvg:type="㇒/㇚" d="M75.08,24.08c0.06,0.8-0.08,1.56-0.43,2.28c-0.92,2.38-3.15,6.01-6.02,8.39"/>
		</g>
	</g>
	<g id="kvg:07b54-g4" kvg:element="合" kvg:position="bottom">
		<g id="kvg:07b54-g5" kvg:element="人">
			<path style="fill:none;stroke-width:4;" id="kvg:07b54-s7" kvg:type="㇒" d="M51.41,31.58c0.1,0.89-0.11,2.88-0.7,4.08c-4.85,9.78-14.34,21.24-33.33,33.83"/>
<circle cx="51.41" cy="31.58" r="5" style="fill:red;stroke:red;" />
		</g>
		<g id="kvg:07b54-g6" kvg:element="一">
		</g>
		<g id="kvg:07b54-g7" kvg:element="口">
		</g>
	</g>
</g>
</g></svg>