<?xml version="1.0" encoding="UTF-8"?>
  <!DOCTYPE svg PUBLIC "-//W3C//DTD SVG 1.0//EN" "http://www.w3.org/TR/2001/REC-SVG-20010904/DTD/svg10.dtd" [
  <!ATTLIST g xmlns:kvg CDATA #FIXED "http://kanjivg.tagaini.net" kvg:element CDATA #IMPLIED kvg:variant CDATA #IMPLIED kvg:partial CDATA #IMPLIED kvg:original CDATA #IMPLIED kvg:part CDATA #IMPLIED kvg:number CDATA #IMPLIED kvg:tradForm CDATA #IMPLIED kvg:radicalForm CDATA #IMPLIED kvg:position CDATA #IMPLIED kvg:radical CDATA #IMPLIED kvg:phon CDATA #IMPLIED >
  <!ATTLIST path xmlns:kvg CDATA #FIXED "http://kanjivg.tagaini.net" kvg:type CDATA #IMPLIED >
  ]>
  <svg xmlns="http://www.w3.org/2000/svg" width="109" height="109" viewBox="0 0 109 109">
<g id="kvg:StrokePaths_07ba1" style="fill:none;stroke:#000000;stroke-width:3;stroke-linecap:round;stroke-linejoin:round;">
<g id="kvg:07ba1" kvg:element="管">
	<g id="kvg:07ba1-g1" kvg:element="竹" kvg:variant="true" kvg:position="top" kvg:radical="general">
		<g id="kvg:07ba1-g2" kvg:position="left">
			<path style="fill:none;stroke:#808080" id="kvg:07ba1-s1" kvg:type="㇒" d="M32.25,12c0.03,0.46,0.14,1.22-0.07,1.87c-1.43,4.51-6.88,12.59-13.43,17.88"/>
			<path style="fill:none;stroke:#808080" id="kvg:07ba1-s2" kvg:type="㇐b" d="M30.73,23.54c2.83,0,12.39-1.41,17.02-2.18c1.76-0.29,3.27-0.11,4.25-0.11"/>
			<path style="fill:none;stroke:#808080" id="kvg:07ba1-s3" kvg:type="㇔/㇑" d="M35.89,25.96c1.65,1.55,4.26,6.35,4.67,8.76"/>
		</g>
		<g id="kvg:07ba1-g3" kvg:position="right">
			<path style="fill:none;stroke:#808080" id="kvg:07ba1-s4" kvg:type="㇒" d="M65.25,10.75c0.03,0.4,0.11,1.04-0.05,1.61c-1.24,4.21-4.41,10.22-8.94,15.39"/>
			<path style="fill:none;stroke:#808080" id="kvg:07ba1-s5" kvg:type="㇐b" d="M64.98,21.16c3.76,0,14.82-2.25,21.89-3.18c1.84-0.24,3-0.35,4.51-0.14"/>
			<path style="fill:none;stroke:#808080" id="kvg:07ba1-s6" kvg:type="㇒/㇚" d="M76.27,23c0.02,0.26,0.05,0.67-0.05,1.04c-0.49,1.77-2.84,5.26-6.22,8.09"/>
		</g>
	</g>
	<g id="kvg:07ba1-g4" kvg:element="官" kvg:position="bottom" kvg:phon="官">
		<g id="kvg:07ba1-g5" kvg:element="宀" kvg:position="top">
			<path style="fill:none;stroke:#808080" id="kvg:07ba1-s7" kvg:type="㇑a" d="M52.04,30c0.92,0.92,1.45,2.12,1.45,3.27c0,2.84-0.08,2.76-0.08,5.34"/>
			<g id="kvg:07ba1-g6" kvg:element="冖">
				<path style="fill:none;stroke-width:4;" id="kvg:07ba1-s8" kvg:type="㇔" d="M22.48,40.78c0,3.38-3.63,13.91-4.85,16.17"/>
<circle cx="22.48" cy="40.78" r="5" style="fill:red;stroke:red;" />
			</g>
		</g>
		<g id="kvg:07ba1-g7" kvg:position="bottom">
			<g id="kvg:07ba1-g8" kvg:element="口">
			</g>
		</g>
	</g>
</g>
</g></svg>