<?xml version="1.0" encoding="UTF-8"?>
  <!DOCTYPE svg PUBLIC "-//W3C//DTD SVG 1.0//EN" "http://www.w3.org/TR/2001/REC-SVG-20010904/DTD/svg10.dtd" [
  <!ATTLIST g xmlns:kvg CDATA #FIXED "http://kanjivg.tagaini.net" kvg:element CDATA #IMPLIED kvg:variant CDATA #IMPLIED kvg:partial CDATA #IMPLIED kvg:original CDATA #IMPLIED kvg:part CDATA #IMPLIED kvg:number CDATA #IMPLIED kvg:tradForm CDATA #IMPLIED kvg:radicalForm CDATA #IMPLIED kvg:position CDATA #IMPLIED kvg:radical CDATA #IMPLIED kvg:phon CDATA #IMPLIED >
  <!ATTLIST path xmlns:kvg CDATA #FIXED "http://kanjivg.tagaini.net" kvg:type CDATA #IMPLIED >
  ]>
  <svg xmlns="http://www.w3.org/2000/svg" width="109" height="109" viewBox="0 0 109 109">
<g id="kvg:StrokePaths_07bb1" style="fill:none;stroke:#000000;stroke-width:3;stroke-linecap:round;stroke-linejoin:round;">
<g id="kvg:07bb1" kvg:element="箱">
	<g id="kvg:07bb1-g1" kvg:element="竹" kvg:variant="true" kvg:position="top" kvg:radical="general">
		<g id="kvg:07bb1-g2" kvg:position="left">
			<path style="fill:none;stroke:#808080" id="kvg:07bb1-s1" kvg:type="㇒" d="M29.5,14.25c0.06,0.88,0,1.71-0.24,2.56C28.02,21.18,22.9,30.97,16.75,37"/>
			<path style="fill:none;stroke:#808080" id="kvg:07bb1-s2" kvg:type="㇐b" d="M27.73,27.54c2.89,0,13.77-1.54,19-2.69c1.66-0.37,3.02-0.35,4.02-0.1"/>
			<path style="fill:none;stroke:#808080" id="kvg:07bb1-s3" kvg:type="㇔/㇑" d="M35.62,29.88c1.44,1.28,5.07,6.6,5.43,8.59"/>
		</g>
		<g id="kvg:07bb1-g3" kvg:position="right">
			<path style="fill:none;stroke:#808080" id="kvg:07bb1-s4" kvg:type="㇒" d="M61.25,12.5c0.1,0.76,0.01,2.25-0.27,2.95C59.72,19.71,57,27,52.75,32.75"/>
			<path style="fill:none;stroke:#808080" id="kvg:07bb1-s5" kvg:type="㇐b" d="M60.98,23.16c8.63-0.42,18.95-2.91,25.4-3.73c1.7-0.21,2.87-0.43,4.25-0.09"/>
			<path style="fill:none;stroke-width:4;" id="kvg:07bb1-s6" kvg:type="㇒/㇚" d="M72.77,26c0.05,0.66,0.02,1.31-0.21,1.92c-1.19,3.2-2.57,6.58-5.82,10.2"/>
<circle cx="72.77" cy="26" r="5" style="fill:red;stroke:red;" />
		</g>
	</g>
	<g id="kvg:07bb1-g4" kvg:element="相" kvg:position="bottom" kvg:phon="相">
		<g id="kvg:07bb1-g5" kvg:element="木" kvg:position="left">
		</g>
		<g id="kvg:07bb1-g6" kvg:element="目" kvg:position="right">
		</g>
	</g>
</g>
</g></svg>