<?xml version="1.0" encoding="UTF-8"?>
  <!DOCTYPE svg PUBLIC "-//W3C//DTD SVG 1.0//EN" "http://www.w3.org/TR/2001/REC-SVG-20010904/DTD/svg10.dtd" [
  <!ATTLIST g xmlns:kvg CDATA #FIXED "http://kanjivg.tagaini.net" kvg:element CDATA #IMPLIED kvg:variant CDATA #IMPLIED kvg:partial CDATA #IMPLIED kvg:original CDATA #IMPLIED kvg:part CDATA #IMPLIED kvg:number CDATA #IMPLIED kvg:tradForm CDATA #IMPLIED kvg:radicalForm CDATA #IMPLIED kvg:position CDATA #IMPLIED kvg:radical CDATA #IMPLIED kvg:phon CDATA #IMPLIED >
  <!ATTLIST path xmlns:kvg CDATA #FIXED "http://kanjivg.tagaini.net" kvg:type CDATA #IMPLIED >
  ]>
  <svg xmlns="http://www.w3.org/2000/svg" width="109" height="109" viewBox="0 0 109 109">
<g id="kvg:StrokePaths_07bc9" style="fill:none;stroke:#000000;stroke-width:3;stroke-linecap:round;stroke-linejoin:round;">
<g id="kvg:07bc9" kvg:element="築">
	<g id="kvg:07bc9-g1" kvg:element="筑" kvg:position="top">
		<g id="kvg:07bc9-g2" kvg:element="竹" kvg:variant="true" kvg:position="top" kvg:radical="general" kvg:phon="竹">
			<g id="kvg:07bc9-g3" kvg:position="left">
				<path style="fill:none;stroke:#808080" id="kvg:07bc9-s1" kvg:type="㇒" d="M29.28,12.75c0.06,1.18-0.01,2.05-0.41,3.17c-1.8,5.01-5.76,12.42-11.29,18.92"/>
				<path style="fill:none;stroke:#808080" id="kvg:07bc9-s2" kvg:type="㇐b" d="M28.29,23.13c6.46-0.25,11.08-1.63,15.71-2.85c1.26-0.34,2.39-0.06,3.15-0.06"/>
				<path style="fill:none;stroke:#808080" id="kvg:07bc9-s3" kvg:type="㇔/㇑" d="M34.88,25.38c1.71,1.34,4.41,5.53,4.83,7.62"/>
			</g>
			<g id="kvg:07bc9-g4" kvg:position="right">
				<path style="fill:none;stroke:#808080" id="kvg:07bc9-s4" kvg:type="㇒" d="M61.35,10.5c0.06,1.1-0.05,1.97-0.37,3.03c-1.4,4.67-4.39,10.03-8.54,15.62"/>
				<path style="fill:none;stroke:#808080" id="kvg:07bc9-s5" kvg:type="㇐b" d="M61.67,19.81c3.38,0,13.58-1.81,20.84-3.8c1.69-0.46,3.19-0.14,4.15-0.14"/>
				<path style="fill:none;stroke:#808080" id="kvg:07bc9-s6" kvg:type="㇒/㇚" d="M73.44,21.44c0.07,0.71-0.11,1.36-0.53,1.95c-1.24,2.19-4.14,5.47-8.21,7.64"/>
			</g>
		</g>
		<g id="kvg:07bc9-g5" kvg:position="bottom">
			<g id="kvg:07bc9-g6" kvg:element="工" kvg:position="left">
				<path style="fill:none;stroke-width:4;" id="kvg:07bc9-s7" kvg:type="㇐" d="M21.56,42.32c1.1,0.56,2.95,0.27,4.08,0.18c4.44-0.37,12.15-1.38,16.37-1.95c1.18-0.16,2.74-0.43,4.11-0.41"/>
<circle cx="21.56" cy="42.32" r="5" style="fill:red;stroke:red;" />
			</g>
			<g id="kvg:07bc9-g7" kvg:element="凡" kvg:position="right">
				<g id="kvg:07bc9-g8" kvg:element="几">
					<g id="kvg:07bc9-g9" kvg:element="丿">
					</g>
				</g>
				<g id="kvg:07bc9-g10" kvg:element="丶">
				</g>
			</g>
		</g>
	</g>
	<g id="kvg:07bc9-g11" kvg:element="木" kvg:position="bottom">
	</g>
</g>
</g></svg>