<?xml version="1.0" encoding="UTF-8"?>
  <!DOCTYPE svg PUBLIC "-//W3C//DTD SVG 1.0//EN" "http://www.w3.org/TR/2001/REC-SVG-20010904/DTD/svg10.dtd" [
  <!ATTLIST g xmlns:kvg CDATA #FIXED "http://kanjivg.tagaini.net" kvg:element CDATA #IMPLIED kvg:variant CDATA #IMPLIED kvg:partial CDATA #IMPLIED kvg:original CDATA #IMPLIED kvg:part CDATA #IMPLIED kvg:number CDATA #IMPLIED kvg:tradForm CDATA #IMPLIED kvg:radicalForm CDATA #IMPLIED kvg:position CDATA #IMPLIED kvg:radical CDATA #IMPLIED kvg:phon CDATA #IMPLIED >
  <!ATTLIST path xmlns:kvg CDATA #FIXED "http://kanjivg.tagaini.net" kvg:type CDATA #IMPLIED >
  ]>
  <svg xmlns="http://www.w3.org/2000/svg" width="109" height="109" viewBox="0 0 109 109">
<g id="kvg:StrokePaths_07bc0" style="fill:none;stroke:#000000;stroke-width:3;stroke-linecap:round;stroke-linejoin:round;">
<g id="kvg:07bc0" kvg:element="節">
	<g id="kvg:07bc0-g1" kvg:element="竹" kvg:variant="true" kvg:position="top" kvg:radical="general">
		<g id="kvg:07bc0-g2" kvg:position="left">
			<path style="fill:none;stroke:#808080" id="kvg:07bc0-s1" kvg:type="㇒" d="M29.5,12c0.03,0.46,0.15,1.22-0.07,1.87C27.88,18.5,23.75,25.62,17,32.25"/>
			<path style="fill:none;stroke:#808080" id="kvg:07bc0-s2" kvg:type="㇐b" d="M29.48,21.54c3.03,0,12.44-1.44,18.15-1.88c1.28-0.1,2.62-0.03,3.37,0.09"/>
			<path style="fill:none;stroke:#808080" id="kvg:07bc0-s3" kvg:type="㇔/㇑" d="M35.02,24.33c1.6,1.44,5.14,6.9,5.54,9.13"/>
		</g>
		<g id="kvg:07bc0-g3" kvg:position="right">
			<path style="fill:none;stroke:#808080" id="kvg:07bc0-s4" kvg:type="㇒" d="M64,10c0.03,0.4,0.11,1.04-0.05,1.6c-1.22,4.2-5.73,11.86-10.2,17.02"/>
			<path style="fill:none;stroke-width:4;" id="kvg:07bc0-s5" kvg:type="㇐b" d="M64.48,19.91c3.77,0,15.31-2.04,22.63-2.77c1.86-0.19,3.51-0.14,4.77-0.05"/>
<circle cx="64.48" cy="19.91" r="5" style="fill:red;stroke:red;" />
		</g>
	</g>
	<g id="kvg:07bc0-g4" kvg:element="即" kvg:position="bottom" kvg:phon="即">
		<g id="kvg:07bc0-g5" kvg:element="艮" kvg:partial="true" kvg:position="left">
		</g>
		<g id="kvg:07bc0-g6" kvg:element="卩" kvg:position="right">
			<g id="kvg:07bc0-g7" kvg:element="厶" kvg:variant="true" kvg:original="厶">
			</g>
		</g>
	</g>
</g>
</g></svg>