<?xml version="1.0" encoding="UTF-8"?>
  <!DOCTYPE svg PUBLIC "-//W3C//DTD SVG 1.0//EN" "http://www.w3.org/TR/2001/REC-SVG-20010904/DTD/svg10.dtd" [
  <!ATTLIST g xmlns:kvg CDATA #FIXED "http://kanjivg.tagaini.net" kvg:element CDATA #IMPLIED kvg:variant CDATA #IMPLIED kvg:partial CDATA #IMPLIED kvg:original CDATA #IMPLIED kvg:part CDATA #IMPLIED kvg:number CDATA #IMPLIED kvg:tradForm CDATA #IMPLIED kvg:radicalForm CDATA #IMPLIED kvg:position CDATA #IMPLIED kvg:radical CDATA #IMPLIED kvg:phon CDATA #IMPLIED >
  <!ATTLIST path xmlns:kvg CDATA #FIXED "http://kanjivg.tagaini.net" kvg:type CDATA #IMPLIED >
  ]>
  <svg xmlns="http://www.w3.org/2000/svg" width="109" height="109" viewBox="0 0 109 109">
<g id="kvg:StrokePaths_07c21" style="fill:none;stroke:#000000;stroke-width:3;stroke-linecap:round;stroke-linejoin:round;">
<g id="kvg:07c21" kvg:element="簡">
	<g id="kvg:07c21-g1" kvg:element="竹" kvg:variant="true" kvg:position="top" kvg:radical="general">
		<g id="kvg:07c21-g2" kvg:position="left">
			<path style="fill:none;stroke:#808080" id="kvg:07c21-s1" kvg:type="㇒" d="M30.5,11.75c0.07,1.02,0,1.77-0.4,2.72C28.48,18.33,24.25,24.5,17.75,31"/>
			<path style="fill:none;stroke:#808080" id="kvg:07c21-s2" kvg:type="㇐b" d="M28.48,22.79c2.95,0,11.72-1.77,17.28-2.49c1.43-0.19,2.64-0.3,3.49-0.3"/>
			<path style="fill:none;stroke:#808080" id="kvg:07c21-s3" kvg:type="㇔/㇑" d="M35,24.75c1.96,1.23,5.07,5.06,5.56,6.97"/>
		</g>
		<g id="kvg:07c21-g3" kvg:position="right">
			<path style="fill:none;stroke:#808080" id="kvg:07c21-s4" kvg:type="㇒" d="M66.74,10c0.08,0.95-0.04,1.58-0.43,2.46c-1.74,4.01-5.69,9.38-10.81,14.04"/>
			<path style="fill:none;stroke:#808080" id="kvg:07c21-s5" kvg:type="㇐b" d="M65.48,20.41c3.89,0,16.07-2.17,23.32-3.02c1.56-0.19,2.89-0.3,3.83-0.3"/>
			<path style="fill:none;stroke:#808080" id="kvg:07c21-s6" kvg:type="㇒/㇚" d="M76.78,22.5c0.05,0.5,0.04,1-0.2,1.44c-1.08,1.94-2.95,4.56-5.08,6.31"/>
		</g>
	</g>
	<g id="kvg:07c21-g4" kvg:element="間" kvg:position="bottom" kvg:phon="間">
		<g id="kvg:07c21-g5" kvg:element="門" kvg:position="kamae">
			<g id="kvg:07c21-g6" kvg:position="left">
				<path style="fill:none;stroke-width:4;" id="kvg:07c21-s7" kvg:type="㇑" d="M21.39,39.18c0.84,0.84,1.09,2.19,1.09,3.21c0,0.58-0.16,34.48-0.16,48.36c0,2.55-0.05,4.33-0.07,5"/>
<circle cx="21.39" cy="39.18" r="5" style="fill:red;stroke:red;" />
			</g>
			<g id="kvg:07c21-g7" kvg:position="right">
			</g>
		</g>
		<g id="kvg:07c21-g8" kvg:element="日">
		</g>
	</g>
</g>
</g></svg>