<?xml version="1.0" encoding="UTF-8"?>
  <!DOCTYPE svg PUBLIC "-//W3C//DTD SVG 1.0//EN" "http://www.w3.org/TR/2001/REC-SVG-20010904/DTD/svg10.dtd" [
  <!ATTLIST g xmlns:kvg CDATA #FIXED "http://kanjivg.tagaini.net" kvg:element CDATA #IMPLIED kvg:variant CDATA #IMPLIED kvg:partial CDATA #IMPLIED kvg:original CDATA #IMPLIED kvg:part CDATA #IMPLIED kvg:number CDATA #IMPLIED kvg:tradForm CDATA #IMPLIED kvg:radicalForm CDATA #IMPLIED kvg:position CDATA #IMPLIED kvg:radical CDATA #IMPLIED kvg:phon CDATA #IMPLIED >
  <!ATTLIST path xmlns:kvg CDATA #FIXED "http://kanjivg.tagaini.net" kvg:type CDATA #IMPLIED >
  ]>
  <svg xmlns="http://www.w3.org/2000/svg" width="109" height="109" viewBox="0 0 109 109">
<g id="kvg:StrokePaths_07c89" style="fill:none;stroke:#000000;stroke-width:3;stroke-linecap:round;stroke-linejoin:round;">
<g id="kvg:07c89" kvg:element="粉">
	<g id="kvg:07c89-g1" kvg:element="米" kvg:variant="true" kvg:position="left" kvg:radical="general">
		<path style="fill:none;stroke:#808080" id="kvg:07c89-s1" kvg:type="㇔" d="M15.25,27.12c2.81,2.03,7.05,7.77,7.75,10.93"/>
		<path style="fill:none;stroke:#808080" id="kvg:07c89-s2" kvg:type="㇒" d="M47.51,21.22c0.07,0.8,0.01,1.58-0.31,2.31c-1.69,3.85-4.07,7.47-8.12,11.76"/>
		<path style="fill:none;stroke:#808080" id="kvg:07c89-s3" kvg:type="㇐" d="M14.85,46.27c2.02,0.36,3.77,0.17,5.41-0.08c5.6-0.83,14.49-2.44,20.63-3.73c1.28-0.27,2.67-0.52,3.97-0.19"/>
		<path style="fill:none;stroke:#808080" id="kvg:07c89-s4" kvg:type="㇑" d="M30.77,15.96c1.01,1.01,1.34,2.66,1.34,3.94c0,2.46-0.13,50.44-0.17,67.85c-0.01,2.75-0.01,4.7-0.01,5.54"/>
		<path style="fill:none;stroke-width:4;" id="kvg:07c89-s5" kvg:type="㇒" d="M31.27,46.46c0,1.54-0.39,2.61-0.92,3.96C26.41,60.53,19.88,70.88,12,79.48"/>
<circle cx="31.27" cy="46.46" r="5" style="fill:red;stroke:red;" />
	</g>
	<g id="kvg:07c89-g2" kvg:element="分" kvg:position="right" kvg:phon="分">
		<g id="kvg:07c89-g3" kvg:element="八" kvg:position="top">
		</g>
		<g id="kvg:07c89-g4" kvg:element="刀" kvg:position="bottom">
		</g>
	</g>
</g>
</g></svg>