<?xml version="1.0" encoding="UTF-8"?>
  <!DOCTYPE svg PUBLIC "-//W3C//DTD SVG 1.0//EN" "http://www.w3.org/TR/2001/REC-SVG-20010904/DTD/svg10.dtd" [
  <!ATTLIST g xmlns:kvg CDATA #FIXED "http://kanjivg.tagaini.net" kvg:element CDATA #IMPLIED kvg:variant CDATA #IMPLIED kvg:partial CDATA #IMPLIED kvg:original CDATA #IMPLIED kvg:part CDATA #IMPLIED kvg:number CDATA #IMPLIED kvg:tradForm CDATA #IMPLIED kvg:radicalForm CDATA #IMPLIED kvg:position CDATA #IMPLIED kvg:radical CDATA #IMPLIED kvg:phon CDATA #IMPLIED >
  <!ATTLIST path xmlns:kvg CDATA #FIXED "http://kanjivg.tagaini.net" kvg:type CDATA #IMPLIED >
  ]>
  <svg xmlns="http://www.w3.org/2000/svg" width="109" height="109" viewBox="0 0 109 109">
<g id="kvg:StrokePaths_07cbe" style="fill:none;stroke:#000000;stroke-width:3;stroke-linecap:round;stroke-linejoin:round;">
<g id="kvg:07cbe" kvg:element="精">
	<g id="kvg:07cbe-g1" kvg:element="米" kvg:variant="true" kvg:position="left" kvg:radical="general">
		<path style="fill:none;stroke:#808080" id="kvg:07cbe-s1" kvg:type="㇔" d="M16.12,26.62c2.67,2.03,6.71,7.77,7.38,10.93"/>
		<path style="fill:none;stroke:#808080" id="kvg:07cbe-s2" kvg:type="㇒" d="M45.27,21.47c0.23,0.91-0.03,1.89-0.38,2.76c-1.18,2.91-2.93,6.53-5.57,10.06"/>
		<path style="fill:none;stroke:#808080" id="kvg:07cbe-s3" kvg:type="㇐" d="M11.35,45.27c2.02,0.48,4.56,0.32,6.28,0.16c6.52-0.61,17.23-2.04,22.08-2.65c1.4-0.18,2.41-0.15,3.65,0"/>
		<path style="fill:none;stroke-width:4;" id="kvg:07cbe-s4" kvg:type="㇑" d="M30.52,14.96c0.94,0.94,1.59,2.41,1.59,3.69c0,7.35,0.05,50.74-0.09,70.1c-0.03,3.75-0.06,6.37-0.08,7.29"/>
<circle cx="30.52" cy="14.96" r="5" style="fill:red;stroke:red;" />
	</g>
	<g id="kvg:07cbe-g2" kvg:element="青" kvg:position="right" kvg:phon="青">
		<g id="kvg:07cbe-g3" kvg:element="龶" kvg:position="top">
		</g>
		<g id="kvg:07cbe-g4" kvg:element="月" kvg:position="bottom">
		</g>
	</g>
</g>
</g></svg>