<?xml version="1.0" encoding="UTF-8"?>
  <!DOCTYPE svg PUBLIC "-//W3C//DTD SVG 1.0//EN" "http://www.w3.org/TR/2001/REC-SVG-20010904/DTD/svg10.dtd" [
  <!ATTLIST g xmlns:kvg CDATA #FIXED "http://kanjivg.tagaini.net" kvg:element CDATA #IMPLIED kvg:variant CDATA #IMPLIED kvg:partial CDATA #IMPLIED kvg:original CDATA #IMPLIED kvg:part CDATA #IMPLIED kvg:number CDATA #IMPLIED kvg:tradForm CDATA #IMPLIED kvg:radicalForm CDATA #IMPLIED kvg:position CDATA #IMPLIED kvg:radical CDATA #IMPLIED kvg:phon CDATA #IMPLIED >
  <!ATTLIST path xmlns:kvg CDATA #FIXED "http://kanjivg.tagaini.net" kvg:type CDATA #IMPLIED >
  ]>
  <svg xmlns="http://www.w3.org/2000/svg" width="109" height="109" viewBox="0 0 109 109">
<g id="kvg:StrokePaths_07cbe" style="fill:none;stroke:#000000;stroke-width:3;stroke-linecap:round;stroke-linejoin:round;">
<g id="kvg:07cbe" kvg:element="精">
	<g id="kvg:07cbe-g1" kvg:element="米" kvg:variant="true" kvg:position="left" kvg:radical="general">
		<path style="fill:none;stroke:#808080" id="kvg:07cbe-s1" kvg:type="㇔" d="M16.12,26.62c2.67,2.03,6.71,7.77,7.38,10.93"/>
		<path style="fill:none;stroke:#808080" id="kvg:07cbe-s2" kvg:type="㇒" d="M45.27,21.47c0.23,0.91-0.03,1.89-0.38,2.76c-1.18,2.91-2.93,6.53-5.57,10.06"/>
		<path style="fill:none;stroke:#808080" id="kvg:07cbe-s3" kvg:type="㇐" d="M11.35,45.27c2.02,0.48,4.56,0.32,6.28,0.16c6.52-0.61,17.23-2.04,22.08-2.65c1.4-0.18,2.41-0.15,3.65,0"/>
		<path style="fill:none;stroke:#808080" id="kvg:07cbe-s4" kvg:type="㇑" d="M30.52,14.96c0.94,0.94,1.59,2.41,1.59,3.69c0,7.35,0.05,50.74-0.09,70.1c-0.03,3.75-0.06,6.37-0.08,7.29"/>
		<path style="fill:none;stroke:#808080" id="kvg:07cbe-s5" kvg:type="㇒" d="M30.27,44.96c0,2.16-0.51,3.73-1.25,5.64c-3.65,9.44-9.38,20.99-17.27,28.87"/>
		<path style="fill:none;stroke:#808080" id="kvg:07cbe-s6" kvg:type="㇔/㇏" d="M35.37,50.82c3.5,2.68,7,6.31,9.15,10.4"/>
	</g>
	<g id="kvg:07cbe-g2" kvg:element="青" kvg:position="right" kvg:phon="青">
		<g id="kvg:07cbe-g3" kvg:element="龶" kvg:position="top">
			<path style="fill:none;stroke:#808080" id="kvg:07cbe-s7" kvg:type="㇐" d="M52.53,23.1c2.1,0.27,3.74,0.08,5.48-0.12c6.19-0.68,16.94-2.38,22.86-3.08c1.64-0.19,3.53-0.15,5.17-0.03"/>
			<path style="fill:none;stroke:#808080" id="kvg:07cbe-s8" kvg:type="㇑a" d="M67.46,12.38c1.02,1.02,1.57,2.62,1.57,4.18c0,5.93-0.18,17.83-0.11,25.16"/>
			<path style="fill:none;stroke:#808080" id="kvg:07cbe-s9" kvg:type="㇐" d="M53.64,32.82c1.69,0.49,3.68,0.42,5.36,0.09c6.62-1.28,15.6-2.15,20.99-2.72c1.64-0.17,3.27-0.26,4.92-0.17"/>
			<path style="fill:none;stroke-width:4;" id="kvg:07cbe-s10" kvg:type="㇐" d="M48.38,44.39c2.58,0.52,5.03,0.28,7.6-0.08c10-1.42,22.6-2.86,34.15-3.57c2.23-0.14,4.87,0.02,6.62,0.43"/>
<circle cx="48.38" cy="44.39" r="5" style="fill:red;stroke:red;" />
		</g>
		<g id="kvg:07cbe-g4" kvg:element="月" kvg:position="bottom">
		</g>
	</g>
</g>
</g></svg>