<?xml version="1.0" encoding="UTF-8"?>
  <!DOCTYPE svg PUBLIC "-//W3C//DTD SVG 1.0//EN" "http://www.w3.org/TR/2001/REC-SVG-20010904/DTD/svg10.dtd" [
  <!ATTLIST g xmlns:kvg CDATA #FIXED "http://kanjivg.tagaini.net" kvg:element CDATA #IMPLIED kvg:variant CDATA #IMPLIED kvg:partial CDATA #IMPLIED kvg:original CDATA #IMPLIED kvg:part CDATA #IMPLIED kvg:number CDATA #IMPLIED kvg:tradForm CDATA #IMPLIED kvg:radicalForm CDATA #IMPLIED kvg:position CDATA #IMPLIED kvg:radical CDATA #IMPLIED kvg:phon CDATA #IMPLIED >
  <!ATTLIST path xmlns:kvg CDATA #FIXED "http://kanjivg.tagaini.net" kvg:type CDATA #IMPLIED >
  ]>
  <svg xmlns="http://www.w3.org/2000/svg" width="109" height="109" viewBox="0 0 109 109">
<g id="kvg:StrokePaths_07cd6" style="fill:none;stroke:#000000;stroke-width:3;stroke-linecap:round;stroke-linejoin:round;">
<g id="kvg:07cd6" kvg:element="糖">
	<g id="kvg:07cd6-g1" kvg:element="米" kvg:variant="true" kvg:position="left" kvg:radical="general">
		<path style="fill:none;stroke:#808080" id="kvg:07cd6-s1" kvg:type="㇔" d="M13,26.88c2.81,1.85,7.05,7.06,7.75,9.93"/>
		<path style="fill:none;stroke:#808080" id="kvg:07cd6-s2" kvg:type="㇒" d="M44.02,21.47c0.05,0.76-0.04,1.5-0.27,2.23c-0.69,2.47-2.78,5.99-5.43,9.6"/>
		<path style="fill:none;stroke:#808080" id="kvg:07cd6-s3" kvg:type="㇐" d="M12.35,43.88c1.82,0.68,3.55,0.52,5.43,0.32c6.84-0.7,16.24-2.67,21.03-3.21c1.35-0.15,2.44-0.19,3.29,0"/>
		<path style="fill:none;stroke:#808080" id="kvg:07cd6-s4" kvg:type="㇑" d="M29.02,17.21c0.88,0.88,1.34,2.29,1.34,3.44c0,0.76,0.05,46.3-0.09,65.1c-0.03,3.86-0.06,6.58-0.09,7.54"/>
		<path style="fill:none;stroke:#808080" id="kvg:07cd6-s5" kvg:type="㇒" d="M29.52,43.46c0,2.16-0.64,3.61-1.44,5.33C23.75,58,19.1,66.06,12,73.98"/>
		<path style="fill:none;stroke-width:4;" id="kvg:07cd6-s6" kvg:type="㇔/㇏" d="M32.87,49.82c3.38,2.43,7.13,6.56,9.15,10.65"/>
<circle cx="32.87" cy="49.82" r="5" style="fill:red;stroke:red;" />
	</g>
	<g id="kvg:07cd6-g2" kvg:element="唐" kvg:position="right" kvg:phon="唐">
		<g id="kvg:07cd6-g3" kvg:element="广" kvg:position="tare">
			<g id="kvg:07cd6-g4" kvg:element="厂">
			</g>
		</g>
		<g id="kvg:07cd6-g5" kvg:position="tarec">
			<g id="kvg:07cd6-g6" kvg:element="⺕" kvg:variant="true" kvg:original="彑">
			</g>
			<g id="kvg:07cd6-g7" kvg:element="口">
			</g>
		</g>
	</g>
</g>
</g></svg>