<?xml version="1.0" encoding="UTF-8"?>
  <!DOCTYPE svg PUBLIC "-//W3C//DTD SVG 1.0//EN" "http://www.w3.org/TR/2001/REC-SVG-20010904/DTD/svg10.dtd" [
  <!ATTLIST g xmlns:kvg CDATA #FIXED "http://kanjivg.tagaini.net" kvg:element CDATA #IMPLIED kvg:variant CDATA #IMPLIED kvg:partial CDATA #IMPLIED kvg:original CDATA #IMPLIED kvg:part CDATA #IMPLIED kvg:number CDATA #IMPLIED kvg:tradForm CDATA #IMPLIED kvg:radicalForm CDATA #IMPLIED kvg:position CDATA #IMPLIED kvg:radical CDATA #IMPLIED kvg:phon CDATA #IMPLIED >
  <!ATTLIST path xmlns:kvg CDATA #FIXED "http://kanjivg.tagaini.net" kvg:type CDATA #IMPLIED >
  ]>
  <svg xmlns="http://www.w3.org/2000/svg" width="109" height="109" viewBox="0 0 109 109">
<g id="kvg:StrokePaths_07d05" style="fill:none;stroke:#000000;stroke-width:3;stroke-linecap:round;stroke-linejoin:round;">
<g id="kvg:07d05" kvg:element="紅">
	<g id="kvg:07d05-g1" kvg:element="糸" kvg:position="left" kvg:radical="general">
		<path style="fill:none;stroke:#808080" id="kvg:07d05-s1" kvg:type="㇜" d="M30.08,17.17c0.29,1.14,0.23,2.57-0.4,3.74C26.95,26,23.68,31.37,19.65,36.18c-0.9,1.07-0.8,2.53,0.35,2.95c3.09,1.11,6.62,2.25,9.12,3.99"/>
		<path style="fill:none;stroke:#808080" id="kvg:07d05-s2" kvg:type="㇜" d="M41.8,26.43c0.2,0.82-0.07,2.5-0.5,3.09c-6.8,9.23-15.55,20.11-23.48,28.69c-2.45,2.66-1.27,4.74,1.65,3.84C26.12,60,31,58.12,41.02,54.77"/>
		<path style="fill:none;stroke-width:4;" id="kvg:07d05-s3" kvg:type="㇔" d="M38.38,48.38c2.34,2.22,6.04,9.14,6.62,12.6"/>
<circle cx="38.38" cy="48.38" r="5" style="fill:red;stroke:red;" />
	</g>
	<g id="kvg:07d05-g2" kvg:element="工" kvg:position="right" kvg:phon="工">
	</g>
</g>
</g></svg>