<?xml version="1.0" encoding="UTF-8"?>
  <!DOCTYPE svg PUBLIC "-//W3C//DTD SVG 1.0//EN" "http://www.w3.org/TR/2001/REC-SVG-20010904/DTD/svg10.dtd" [
  <!ATTLIST g xmlns:kvg CDATA #FIXED "http://kanjivg.tagaini.net" kvg:element CDATA #IMPLIED kvg:variant CDATA #IMPLIED kvg:partial CDATA #IMPLIED kvg:original CDATA #IMPLIED kvg:part CDATA #IMPLIED kvg:number CDATA #IMPLIED kvg:tradForm CDATA #IMPLIED kvg:radicalForm CDATA #IMPLIED kvg:position CDATA #IMPLIED kvg:radical CDATA #IMPLIED kvg:phon CDATA #IMPLIED >
  <!ATTLIST path xmlns:kvg CDATA #FIXED "http://kanjivg.tagaini.net" kvg:type CDATA #IMPLIED >
  ]>
  <svg xmlns="http://www.w3.org/2000/svg" width="109" height="109" viewBox="0 0 109 109">
<g id="kvg:StrokePaths_07d0d" style="fill:none;stroke:#000000;stroke-width:3;stroke-linecap:round;stroke-linejoin:round;">
<g id="kvg:07d0d" kvg:element="納">
	<g id="kvg:07d0d-g1" kvg:element="糸" kvg:position="left" kvg:radical="general">
		<path style="fill:none;stroke:#808080" id="kvg:07d0d-s1" kvg:type="㇜" d="M28.88,14.67c0.34,1.34,0.59,2.44-0.17,3.8c-3.33,5.9-6.65,10.69-11.8,17.22c-1.03,1.31-0.65,2.68,0.75,3.35c3.47,1.66,5.13,2.61,8.22,5.06"/>
		<path style="fill:none;stroke:#808080" id="kvg:07d0d-s2" kvg:type="㇜" d="M37.55,26.68c0.32,1.32-0.09,2.98-0.5,3.59c-6.3,9.23-13.18,18.36-21.48,27.44c-1.78,1.95-0.9,3.51,1.4,2.84c5.78-1.68,15.62-4.99,22.04-6.53"/>
		<path style="fill:none;stroke-width:4;" id="kvg:07d0d-s3" kvg:type="㇔" d="M35.25,47.25c2.56,2.16,6.61,8.87,7.25,12.23"/>
<circle cx="35.25" cy="47.25" r="5" style="fill:red;stroke:red;" />
	</g>
	<g id="kvg:07d0d-g2" kvg:element="内" kvg:position="right" kvg:phon="内">
		<g id="kvg:07d0d-g3" kvg:element="冂">
		</g>
		<g id="kvg:07d0d-g4" kvg:element="人">
		</g>
	</g>
</g>
</g></svg>