<?xml version="1.0" encoding="UTF-8"?>
  <!DOCTYPE svg PUBLIC "-//W3C//DTD SVG 1.0//EN" "http://www.w3.org/TR/2001/REC-SVG-20010904/DTD/svg10.dtd" [
  <!ATTLIST g xmlns:kvg CDATA #FIXED "http://kanjivg.tagaini.net" kvg:element CDATA #IMPLIED kvg:variant CDATA #IMPLIED kvg:partial CDATA #IMPLIED kvg:original CDATA #IMPLIED kvg:part CDATA #IMPLIED kvg:number CDATA #IMPLIED kvg:tradForm CDATA #IMPLIED kvg:radicalForm CDATA #IMPLIED kvg:position CDATA #IMPLIED kvg:radical CDATA #IMPLIED kvg:phon CDATA #IMPLIED >
  <!ATTLIST path xmlns:kvg CDATA #FIXED "http://kanjivg.tagaini.net" kvg:type CDATA #IMPLIED >
  ]>
  <svg xmlns="http://www.w3.org/2000/svg" width="109" height="109" viewBox="0 0 109 109">
<g id="kvg:StrokePaths_07d00" style="fill:none;stroke:#000000;stroke-width:3;stroke-linecap:round;stroke-linejoin:round;">
<g id="kvg:07d00" kvg:element="紀">
	<g id="kvg:07d00-g1" kvg:element="糸" kvg:position="left" kvg:radical="general">
		<path style="fill:none;stroke:#808080" id="kvg:07d00-s1" kvg:type="㇜" d="M30.65,14c0.31,1.21,0.25,2.44-0.41,3.69C27,23.88,22.5,30.62,18.17,34.99c-1.03,1.04-1.05,2.39,0.5,3.04c3.21,1.34,7.59,2.24,10.39,4.47"/>
		<path style="fill:none;stroke:#808080" id="kvg:07d00-s2" kvg:type="㇜" d="M44.03,23.19c0.34,0.93,0.12,2.35-0.25,2.94C38.25,34.75,26.25,48,18.65,55.86c-1.74,1.8-0.9,3.01,1.57,2.47c6.68-1.47,16.87-4.02,22.98-5.49"/>
		<path style="fill:none;stroke-width:4;" id="kvg:07d00-s3" kvg:type="㇔" d="M40.75,47c2.38,2.12,6.15,8.71,6.75,12"/>
<circle cx="40.75" cy="47" r="5" style="fill:red;stroke:red;" />
	</g>
	<g id="kvg:07d00-g2" kvg:element="己" kvg:position="right" kvg:phon="己">
	</g>
</g>
</g></svg>