<?xml version="1.0" encoding="UTF-8"?>
  <!DOCTYPE svg PUBLIC "-//W3C//DTD SVG 1.0//EN" "http://www.w3.org/TR/2001/REC-SVG-20010904/DTD/svg10.dtd" [
  <!ATTLIST g xmlns:kvg CDATA #FIXED "http://kanjivg.tagaini.net" kvg:element CDATA #IMPLIED kvg:variant CDATA #IMPLIED kvg:partial CDATA #IMPLIED kvg:original CDATA #IMPLIED kvg:part CDATA #IMPLIED kvg:number CDATA #IMPLIED kvg:tradForm CDATA #IMPLIED kvg:radicalForm CDATA #IMPLIED kvg:position CDATA #IMPLIED kvg:radical CDATA #IMPLIED kvg:phon CDATA #IMPLIED >
  <!ATTLIST path xmlns:kvg CDATA #FIXED "http://kanjivg.tagaini.net" kvg:type CDATA #IMPLIED >
  ]>
  <svg xmlns="http://www.w3.org/2000/svg" width="109" height="109" viewBox="0 0 109 109">
<g id="kvg:StrokePaths_07d14" style="fill:none;stroke:#000000;stroke-width:3;stroke-linecap:round;stroke-linejoin:round;">
<g id="kvg:07d14" kvg:element="純">
	<g id="kvg:07d14-g1" kvg:element="糸" kvg:position="left" kvg:radical="general">
		<path style="fill:none;stroke:#808080" id="kvg:07d14-s1" kvg:type="㇜" d="M28.38,13.67c0.34,1.34,0.07,2.68-0.67,4.05c-3.08,5.65-7.57,11.74-12.05,16.97c-0.9,1.06-0.9,2.68,0.5,3.35c3.94,1.89,6.88,3.86,9.97,6.31"/>
		<path style="fill:none;stroke:#808080" id="kvg:07d14-s2" kvg:type="㇜" d="M40.8,21.68c0.32,1.2,0.15,2.48-0.25,3.09c-6.68,10.11-17.43,23.98-25.98,33.94c-1.72,2-0.95,3.54,1.15,2.84c4.98-1.66,17.12-5.24,23.54-6.78"/>
		<path style="fill:none;stroke-width:4;" id="kvg:07d14-s3" kvg:type="㇔" d="M35.88,48c2.16,2.34,5.58,9.6,6.12,13.23"/>
<circle cx="35.88" cy="48" r="5" style="fill:red;stroke:red;" />
	</g>
	<g id="kvg:07d14-g2" kvg:element="屯" kvg:position="right" kvg:phon="屯">
		<g id="kvg:07d14-g3" kvg:element="丿">
		</g>
		<g id="kvg:07d14-g4" kvg:element="屮" kvg:variant="true">
			<g id="kvg:07d14-g5" kvg:element="凵">
			</g>
			<g id="kvg:07d14-g6" kvg:element="丿" kvg:variant="true">
			</g>
		</g>
	</g>
</g>
</g></svg>