<?xml version="1.0" encoding="UTF-8"?>
  <!DOCTYPE svg PUBLIC "-//W3C//DTD SVG 1.0//EN" "http://www.w3.org/TR/2001/REC-SVG-20010904/DTD/svg10.dtd" [
  <!ATTLIST g xmlns:kvg CDATA #FIXED "http://kanjivg.tagaini.net" kvg:element CDATA #IMPLIED kvg:variant CDATA #IMPLIED kvg:partial CDATA #IMPLIED kvg:original CDATA #IMPLIED kvg:part CDATA #IMPLIED kvg:number CDATA #IMPLIED kvg:tradForm CDATA #IMPLIED kvg:radicalForm CDATA #IMPLIED kvg:position CDATA #IMPLIED kvg:radical CDATA #IMPLIED kvg:phon CDATA #IMPLIED >
  <!ATTLIST path xmlns:kvg CDATA #FIXED "http://kanjivg.tagaini.net" kvg:type CDATA #IMPLIED >
  ]>
  <svg xmlns="http://www.w3.org/2000/svg" width="109" height="109" viewBox="0 0 109 109">
<g id="kvg:StrokePaths_07d1a" style="fill:none;stroke:#000000;stroke-width:3;stroke-linecap:round;stroke-linejoin:round;">
<g id="kvg:07d1a" kvg:element="級">
	<g id="kvg:07d1a-g1" kvg:element="糸" kvg:position="left" kvg:radical="general">
		<path style="fill:none;stroke:#808080" id="kvg:07d1a-s1" kvg:type="㇜" d="M26.9,16.5c0.31,1.21,0.21,2.42-0.41,3.69c-3.36,6.93-7.24,12.31-11.32,17.04c-0.93,1.87-0.7,2.98,0.69,3.34c3.02,1.34,6.35,3.1,8.95,5.16"/>
		<path style="fill:none;stroke:#808080" id="kvg:07d1a-s2" kvg:type="㇜" d="M37.28,27.19c0.34,1.31,0.22,2.56-0.5,3.69c-5.35,8.44-13.02,18.5-21.03,27.32c-1.38,1.53-0.04,3.95,1.99,3.3c4.99-1.61,13.56-4.63,19.26-6"/>
		<path style="fill:none;stroke-width:4;" id="kvg:07d1a-s3" kvg:type="㇔" d="M34.25,48.75c2.38,2.12,5.65,9.21,6.25,12.5"/>
<circle cx="34.25" cy="48.75" r="5" style="fill:red;stroke:red;" />
	</g>
	<g id="kvg:07d1a-g2" kvg:element="及" kvg:position="right" kvg:phon="及">
		<g id="kvg:07d1a-g3" kvg:element="丿">
		</g>
		<g id="kvg:07d1a-g4" kvg:element="又" kvg:variant="true">
		</g>
	</g>
</g>
</g></svg>