<?xml version="1.0" encoding="UTF-8"?>
  <!DOCTYPE svg PUBLIC "-//W3C//DTD SVG 1.0//EN" "http://www.w3.org/TR/2001/REC-SVG-20010904/DTD/svg10.dtd" [
  <!ATTLIST g xmlns:kvg CDATA #FIXED "http://kanjivg.tagaini.net" kvg:element CDATA #IMPLIED kvg:variant CDATA #IMPLIED kvg:partial CDATA #IMPLIED kvg:original CDATA #IMPLIED kvg:part CDATA #IMPLIED kvg:number CDATA #IMPLIED kvg:tradForm CDATA #IMPLIED kvg:radicalForm CDATA #IMPLIED kvg:position CDATA #IMPLIED kvg:radical CDATA #IMPLIED kvg:phon CDATA #IMPLIED >
  <!ATTLIST path xmlns:kvg CDATA #FIXED "http://kanjivg.tagaini.net" kvg:type CDATA #IMPLIED >
  ]>
  <svg xmlns="http://www.w3.org/2000/svg" width="109" height="109" viewBox="0 0 109 109">
<g id="kvg:StrokePaths_07d19" style="fill:none;stroke:#000000;stroke-width:3;stroke-linecap:round;stroke-linejoin:round;">
<g id="kvg:07d19" kvg:element="紙">
	<g id="kvg:07d19-g1" kvg:element="糸" kvg:position="left" kvg:radical="general">
		<path style="fill:none;stroke:#808080" id="kvg:07d19-s1" kvg:type="㇜" d="M25.75,17.75c0.3,1.18,0.15,2.34-0.4,3.59c-2.6,5.91-5.6,11.41-9.34,16.6c-0.49,0.68-0.59,2.73,0,2.95c3.13,1.18,7.06,1.65,9.75,3.81"/>
		<path style="fill:none;stroke:#808080" id="kvg:07d19-s2" kvg:type="㇜" d="M37.79,26.83C38,28,38,29.25,37.04,30.68c-5.53,8.23-13.81,21.36-21.11,29c-1.67,1.75,0.42,3.75,1.5,3.4c4.56-1.49,16.11-5.69,21.97-7.12"/>
		<path style="fill:none;stroke:#808080" id="kvg:07d19-s3" kvg:type="㇔" d="M36.02,48.81c2.29,2.06,6.9,8.46,7.48,11.66"/>
		<path style="fill:none;stroke:#808080" id="kvg:07d19-s4" kvg:type="㇑" d="M27.65,61.81c0.83,0.83,1.45,2.19,1.5,3.93c0.18,6.16,0.01,18.31-0.09,25.75C29.03,94.21,29,96.24,29,97"/>
		<path style="fill:none;stroke:#808080" id="kvg:07d19-s5" kvg:type="㇒" d="M18.38,71.97c0.49,1.28,0.52,2.41,0.22,3.7c-0.98,4.21-3.35,9.33-6.85,14.83"/>
		<path style="fill:none;stroke-width:4;" id="kvg:07d19-s6" kvg:type="㇔" d="M38.12,69.12c2.56,2.75,4.53,9.13,5.12,11.62"/>
<circle cx="38.12" cy="69.12" r="5" style="fill:red;stroke:red;" />
	</g>
	<g id="kvg:07d19-g2" kvg:element="氏" kvg:position="right" kvg:phon="氏">
	</g>
</g>
</g></svg>