<?xml version="1.0" encoding="UTF-8"?>
  <!DOCTYPE svg PUBLIC "-//W3C//DTD SVG 1.0//EN" "http://www.w3.org/TR/2001/REC-SVG-20010904/DTD/svg10.dtd" [
  <!ATTLIST g xmlns:kvg CDATA #FIXED "http://kanjivg.tagaini.net" kvg:element CDATA #IMPLIED kvg:variant CDATA #IMPLIED kvg:partial CDATA #IMPLIED kvg:original CDATA #IMPLIED kvg:part CDATA #IMPLIED kvg:number CDATA #IMPLIED kvg:tradForm CDATA #IMPLIED kvg:radicalForm CDATA #IMPLIED kvg:position CDATA #IMPLIED kvg:radical CDATA #IMPLIED kvg:phon CDATA #IMPLIED >
  <!ATTLIST path xmlns:kvg CDATA #FIXED "http://kanjivg.tagaini.net" kvg:type CDATA #IMPLIED >
  ]>
  <svg xmlns="http://www.w3.org/2000/svg" width="109" height="109" viewBox="0 0 109 109">
<g id="kvg:StrokePaths_07d30" style="fill:none;stroke:#000000;stroke-width:3;stroke-linecap:round;stroke-linejoin:round;">
<g id="kvg:07d30" kvg:element="細">
	<g id="kvg:07d30-g1" kvg:element="糸" kvg:position="left" kvg:radical="general">
		<path style="fill:none;stroke:#808080" id="kvg:07d30-s1" kvg:type="㇜" d="M30.47,16.5c0.29,1.27,0.3,2.6-0.4,3.85c-3.03,5.51-7.49,12.35-11.23,16.54c-1.1,1.23-0.85,2.36,0.5,2.93c3.03,1.28,5.11,2.64,7.71,4.97"/>
		<path style="fill:none;stroke:#808080" id="kvg:07d30-s2" kvg:type="㇜" d="M40.29,27.75c0.34,1.25,0.32,2.11-0.5,3.19c-7.41,9.81-14.41,17.93-23.7,27.85c-1.14,1.21-0.13,3,1.13,2.6c5.28-1.67,18.46-4.69,25.25-6.29"/>
		<path style="fill:none;stroke:#808080" id="kvg:07d30-s3" kvg:type="㇔" d="M38.5,48.25c2.65,2.34,6.34,9.11,7,12.75"/>
		<path style="fill:none;stroke-width:4;" id="kvg:07d30-s4" kvg:type="㇑" d="M30.19,60.45c0.68,0.68,1.14,1.74,1.19,3.26c0.16,5.28,0.01,17.33-0.08,25.04c-0.03,2.92-0.06,5.07-0.06,5.75"/>
<circle cx="30.19" cy="60.45" r="5" style="fill:red;stroke:red;" />
	</g>
	<g id="kvg:07d30-g2" kvg:element="田" kvg:position="right" kvg:phon="田">
	</g>
</g>
</g></svg>