<?xml version="1.0" encoding="UTF-8"?>
  <!DOCTYPE svg PUBLIC "-//W3C//DTD SVG 1.0//EN" "http://www.w3.org/TR/2001/REC-SVG-20010904/DTD/svg10.dtd" [
  <!ATTLIST g xmlns:kvg CDATA #FIXED "http://kanjivg.tagaini.net" kvg:element CDATA #IMPLIED kvg:variant CDATA #IMPLIED kvg:partial CDATA #IMPLIED kvg:original CDATA #IMPLIED kvg:part CDATA #IMPLIED kvg:number CDATA #IMPLIED kvg:tradForm CDATA #IMPLIED kvg:radicalForm CDATA #IMPLIED kvg:position CDATA #IMPLIED kvg:radical CDATA #IMPLIED kvg:phon CDATA #IMPLIED >
  <!ATTLIST path xmlns:kvg CDATA #FIXED "http://kanjivg.tagaini.net" kvg:type CDATA #IMPLIED >
  ]>
  <svg xmlns="http://www.w3.org/2000/svg" width="109" height="109" viewBox="0 0 109 109">
<g id="kvg:StrokePaths_07d4c" style="fill:none;stroke:#000000;stroke-width:3;stroke-linecap:round;stroke-linejoin:round;">
<g id="kvg:07d4c" kvg:element="経">
	<g id="kvg:07d4c-g1" kvg:element="糸" kvg:position="left" kvg:radical="general">
		<path style="fill:none;stroke:#808080" id="kvg:07d4c-s1" kvg:type="㇜" d="M27.9,14c0.31,1.21,0.51,2.2-0.16,3.44C24.25,24,19.75,30.75,15.92,35.49c-0.54,0.67-0.62,2.81,0,3.04c3.65,1.36,7.79,3.6,10.14,5.47"/>
		<path style="fill:none;stroke:#808080" id="kvg:07d4c-s2" kvg:type="㇜" d="M38.53,25.69c0.34,0.93,0.07,2.29-0.75,3.44c-6.03,8.49-15.03,20.12-22.63,27.98c-1.74,1.8,0.43,2.83,1.57,2.47c4.75-1.53,14.28-4.83,22.23-6.74"/>
		<path style="fill:none;stroke:#808080" id="kvg:07d4c-s3" kvg:type="㇔" d="M34.5,46.25c2.38,1.94,6.15,7.98,6.75,11"/>
		<path style="fill:none;stroke:#808080" id="kvg:07d4c-s4" kvg:type="㇑" d="M26.08,59.76c0.77,0.77,1.28,2.24,1.28,3.53c0,6.16-0.08,18.78-0.13,26.59c-0.02,3.16-0.03,5.53-0.03,6.37"/>
		<path style="fill:none;stroke-width:4;" id="kvg:07d4c-s5" kvg:type="㇒" d="M17.5,68.5c0.25,1,0.25,2-0.12,3.11c-1.35,3.98-4.66,11.52-6.75,14.89"/>
<circle cx="17.5" cy="68.5" r="5" style="fill:red;stroke:red;" />
	</g>
	<g id="kvg:07d4c-g2" kvg:element="圣" kvg:position="right" kvg:phon="圣">
		<g id="kvg:07d4c-g3" kvg:element="又" kvg:position="top">
		</g>
		<g id="kvg:07d4c-g4" kvg:element="土" kvg:position="bottom">
		</g>
	</g>
</g>
</g></svg>