<?xml version="1.0" encoding="UTF-8"?>
  <!DOCTYPE svg PUBLIC "-//W3C//DTD SVG 1.0//EN" "http://www.w3.org/TR/2001/REC-SVG-20010904/DTD/svg10.dtd" [
  <!ATTLIST g xmlns:kvg CDATA #FIXED "http://kanjivg.tagaini.net" kvg:element CDATA #IMPLIED kvg:variant CDATA #IMPLIED kvg:partial CDATA #IMPLIED kvg:original CDATA #IMPLIED kvg:part CDATA #IMPLIED kvg:number CDATA #IMPLIED kvg:tradForm CDATA #IMPLIED kvg:radicalForm CDATA #IMPLIED kvg:position CDATA #IMPLIED kvg:radical CDATA #IMPLIED kvg:phon CDATA #IMPLIED >
  <!ATTLIST path xmlns:kvg CDATA #FIXED "http://kanjivg.tagaini.net" kvg:type CDATA #IMPLIED >
  ]>
  <svg xmlns="http://www.w3.org/2000/svg" width="109" height="109" viewBox="0 0 109 109">
<g id="kvg:StrokePaths_07d50" style="fill:none;stroke:#000000;stroke-width:3;stroke-linecap:round;stroke-linejoin:round;">
<g id="kvg:07d50" kvg:element="結">
	<g id="kvg:07d50-g1" kvg:element="糸" kvg:position="left" kvg:radical="general">
		<path style="fill:none;stroke:#808080" id="kvg:07d50-s1" kvg:type="㇜" d="M28.57,12c0.35,1.21,0.17,3.1-0.43,4.44C25.12,23.25,21,31.25,16.79,37.24c-0.89,1.26-1.17,2.26,0.25,2.79c3.64,1.35,5.96,1.23,10.89,4.22"/>
		<path style="fill:none;stroke:#808080" id="kvg:07d50-s2" kvg:type="㇜" d="M40.58,24.44c0.42,1.31,0.29,2.68-0.5,3.94c-5.69,9-15.06,20.94-23.23,29.23C14.5,60,15.5,61.5,17.88,60.83c5.38-1.52,17.51-5.52,24.42-6.99"/>
		<path style="fill:none;stroke:#808080" id="kvg:07d50-s3" kvg:type="㇔" d="M38,47.38c2.91,2.32,7.52,9.52,8.25,13.12"/>
		<path style="fill:none;stroke:#808080" id="kvg:07d50-s4" kvg:type="㇑" d="M29.48,60.51c0.94,0.94,1.38,2.23,1.38,4.03c0,7.21-0.09,19.56-0.15,26.96c-0.02,2.83-0.03,4.94-0.03,5.75"/>
		<path style="fill:none;stroke:#808080" id="kvg:07d50-s5" kvg:type="㇒" d="M19.19,70.5c0.18,1.12,0.18,2.38-0.14,3.45c-1.35,4.49-5.91,12.8-8.3,16.55"/>
		<path style="fill:none;stroke-width:4;" id="kvg:07d50-s6" kvg:type="㇔" d="M40.75,70.75c3.25,3.15,5.75,10.48,6.5,13.33"/>
<circle cx="40.75" cy="70.75" r="5" style="fill:red;stroke:red;" />
	</g>
	<g id="kvg:07d50-g2" kvg:element="吉" kvg:position="right" kvg:phon="吉">
		<g id="kvg:07d50-g3" kvg:element="士" kvg:position="top">
		</g>
		<g id="kvg:07d50-g4" kvg:element="口" kvg:position="bottom">
		</g>
	</g>
</g>
</g></svg>