<?xml version="1.0" encoding="UTF-8"?>
  <!DOCTYPE svg PUBLIC "-//W3C//DTD SVG 1.0//EN" "http://www.w3.org/TR/2001/REC-SVG-20010904/DTD/svg10.dtd" [
  <!ATTLIST g xmlns:kvg CDATA #FIXED "http://kanjivg.tagaini.net" kvg:element CDATA #IMPLIED kvg:variant CDATA #IMPLIED kvg:partial CDATA #IMPLIED kvg:original CDATA #IMPLIED kvg:part CDATA #IMPLIED kvg:number CDATA #IMPLIED kvg:tradForm CDATA #IMPLIED kvg:radicalForm CDATA #IMPLIED kvg:position CDATA #IMPLIED kvg:radical CDATA #IMPLIED kvg:phon CDATA #IMPLIED >
  <!ATTLIST path xmlns:kvg CDATA #FIXED "http://kanjivg.tagaini.net" kvg:type CDATA #IMPLIED >
  ]>
  <svg xmlns="http://www.w3.org/2000/svg" width="109" height="109" viewBox="0 0 109 109">
<g id="kvg:StrokePaths_07d66" style="fill:none;stroke:#000000;stroke-width:3;stroke-linecap:round;stroke-linejoin:round;">
<g id="kvg:07d66" kvg:element="給">
	<g id="kvg:07d66-g1" kvg:element="糸" kvg:position="left" kvg:radical="general">
		<path style="fill:none;stroke:#808080" id="kvg:07d66-s1" kvg:type="㇜" d="M27.4,15.25c0.31,1.21,0.47,2.18-0.16,3.44c-2.02,4.1-6.11,11.68-11.32,17.79c-0.95,1.11-1.17,2.01,0.5,3.04c2.97,1.82,6.34,4.24,9.14,6.47"/>
		<path style="fill:none;stroke:#808080" id="kvg:07d66-s2" kvg:type="㇜" d="M38.03,26.44c0.22,0.93,0.38,2.6,0,3.19c-5.53,8.62-14.78,20.62-22.38,28.48c-1.74,1.8,0.43,2.83,1.57,2.47c4.75-1.53,15.12-4.27,21.23-5.74"/>
		<path style="fill:none;stroke:#808080" id="kvg:07d66-s3" kvg:type="㇔" d="M34.75,47.75c2.38,2.12,5.65,8.71,6.25,12"/>
		<path style="fill:none;stroke:#808080" id="kvg:07d66-s4" kvg:type="㇑" d="M26.58,60.51c0.71,0.71,1.28,1.98,1.28,3.78c0,7.76-0.09,19.56-0.13,26.34c-0.02,2.36-0.03,4.11-0.03,4.88"/>
		<path style="fill:none;stroke-width:4;" id="kvg:07d66-s5" kvg:type="㇒" d="M17.75,70.5c0.12,0.76,0.08,2.25-0.12,2.8C16,77.75,13.5,83,10.5,86.75"/>
<circle cx="17.75" cy="70.5" r="5" style="fill:red;stroke:red;" />
	</g>
	<g id="kvg:07d66-g2" kvg:element="合" kvg:position="right">
		<g id="kvg:07d66-g3" kvg:position="top">
			<g id="kvg:07d66-g4" kvg:element="人">
			</g>
			<g id="kvg:07d66-g5" kvg:element="一">
			</g>
		</g>
		<g id="kvg:07d66-g6" kvg:element="口" kvg:position="bottom">
		</g>
	</g>
</g>
</g></svg>