<?xml version="1.0" encoding="UTF-8"?>
  <!DOCTYPE svg PUBLIC "-//W3C//DTD SVG 1.0//EN" "http://www.w3.org/TR/2001/REC-SVG-20010904/DTD/svg10.dtd" [
  <!ATTLIST g xmlns:kvg CDATA #FIXED "http://kanjivg.tagaini.net" kvg:element CDATA #IMPLIED kvg:variant CDATA #IMPLIED kvg:partial CDATA #IMPLIED kvg:original CDATA #IMPLIED kvg:part CDATA #IMPLIED kvg:number CDATA #IMPLIED kvg:tradForm CDATA #IMPLIED kvg:radicalForm CDATA #IMPLIED kvg:position CDATA #IMPLIED kvg:radical CDATA #IMPLIED kvg:phon CDATA #IMPLIED >
  <!ATTLIST path xmlns:kvg CDATA #FIXED "http://kanjivg.tagaini.net" kvg:type CDATA #IMPLIED >
  ]>
  <svg xmlns="http://www.w3.org/2000/svg" width="109" height="109" viewBox="0 0 109 109">
<g id="kvg:StrokePaths_07d79" style="fill:none;stroke:#000000;stroke-width:3;stroke-linecap:round;stroke-linejoin:round;">
<g id="kvg:07d79" kvg:element="絹">
	<g id="kvg:07d79-g1" kvg:element="糸" kvg:position="left" kvg:radical="general">
		<path style="fill:none;stroke:#808080" id="kvg:07d79-s1" kvg:type="㇜" d="M33.13,14.17c0.34,1.34,0.32,2.68-0.42,4.05c-3.08,5.65-7.49,12.82-12.05,17.97c-0.63,0.71-0.68,3.1,0,3.35c3.6,1.34,6.22,1.95,10.22,4.31"/>
		<path style="fill:none;stroke:#808080" id="kvg:07d79-s2" kvg:type="㇜" d="M43.55,26.93c0.32,1.07,0.32,2.32-0.25,3.09c-7.3,9.8-15.74,19.68-23.73,27.94c-1.83,1.89-0.7,3.42,1.65,2.84c5.1-1.25,16.87-4.74,23.29-6.28"/>
		<path style="fill:none;stroke:#808080" id="kvg:07d79-s3" kvg:type="㇔" d="M40.62,48.62c2.51,2.27,6.5,9.33,7.12,12.86"/>
		<path style="fill:none;stroke:#808080" id="kvg:07d79-s4" kvg:type="㇑" d="M32.39,61.12c0.81,0.81,1.23,2.26,1.23,3.84c0,7.42-0.09,16.79-0.09,23.54c0,2.96-0.11,4-0.11,6.42"/>
		<path style="fill:none;stroke:#808080" id="kvg:07d79-s5" kvg:type="㇒" d="M24.12,70.75c0.18,0.92,0.15,2.5-0.18,3.16c-2.12,4.32-7.18,12.89-10.19,16.59"/>
		<path style="fill:none;stroke:#808080" id="kvg:07d79-s6" kvg:type="㇔" d="M41.5,70.12c3.71,3.63,6.56,12.06,7.42,15.35"/>
	</g>
	<g id="kvg:07d79-g2" kvg:element="肙" kvg:position="right" kvg:phon="肙">
		<g id="kvg:07d79-g3" kvg:element="口" kvg:position="top">
			<path style="fill:none;stroke:#808080" id="kvg:07d79-s7" kvg:type="㇑" d="M55.21,15.98c0.71,0.71,1.16,1.52,1.33,2.35c0.89,4.31,1.79,8.89,2.5,13.41c0.21,1.34,0.41,2.61,0.58,3.72"/>
			<path style="fill:none;stroke:#808080" id="kvg:07d79-s8" kvg:type="㇕b" d="M57.17,17.54c7.81-1.16,22.21-2.44,28.33-3c2.84-0.26,4.62,0.51,3.78,3.6c-0.95,3.46-1.91,6.36-3.59,12.02"/>
			<path style="fill:none;stroke-width:4;" id="kvg:07d79-s9" kvg:type="㇐b" d="M60.48,33.44c4.36-0.41,15.32-1.55,23.78-2.05c1.76-0.1,3.39-0.19,4.83-0.25"/>
<circle cx="60.48" cy="33.44" r="5" style="fill:red;stroke:red;" />
		</g>
		<g id="kvg:07d79-g4" kvg:element="月" kvg:position="bottom">
		</g>
	</g>
</g>
</g></svg>