<?xml version="1.0" encoding="UTF-8"?>
  <!DOCTYPE svg PUBLIC "-//W3C//DTD SVG 1.0//EN" "http://www.w3.org/TR/2001/REC-SVG-20010904/DTD/svg10.dtd" [
  <!ATTLIST g xmlns:kvg CDATA #FIXED "http://kanjivg.tagaini.net" kvg:element CDATA #IMPLIED kvg:variant CDATA #IMPLIED kvg:partial CDATA #IMPLIED kvg:original CDATA #IMPLIED kvg:part CDATA #IMPLIED kvg:number CDATA #IMPLIED kvg:tradForm CDATA #IMPLIED kvg:radicalForm CDATA #IMPLIED kvg:position CDATA #IMPLIED kvg:radical CDATA #IMPLIED kvg:phon CDATA #IMPLIED >
  <!ATTLIST path xmlns:kvg CDATA #FIXED "http://kanjivg.tagaini.net" kvg:type CDATA #IMPLIED >
  ]>
  <svg xmlns="http://www.w3.org/2000/svg" width="109" height="109" viewBox="0 0 109 109">
<g id="kvg:StrokePaths_07d76" style="fill:none;stroke:#000000;stroke-width:3;stroke-linecap:round;stroke-linejoin:round;">
<g id="kvg:07d76" kvg:element="絶">
	<g id="kvg:07d76-g1" kvg:element="糸" kvg:position="left" kvg:radical="general">
		<path style="fill:none;stroke:#808080" id="kvg:07d76-s1" kvg:type="㇜" d="M29.65,13c0.31,1.21,0.49,2.19-0.16,3.44c-3.11,6.06-7.41,12.22-12.32,17.54c-1.05,1.14-1.3,2.14,0.25,2.54c3.37,0.87,7.59,3.24,10.39,5.47"/>
		<path style="fill:none;stroke:#808080" id="kvg:07d76-s2" kvg:type="㇜" d="M41.42,23.19c0.31,0.59,0.4,2.54,0,3.17c-5.97,9.3-14.54,18.39-23.12,28.05c-1.8,2.02-1.05,3.71,1.19,3.16c5.24-1.29,13.39-3.45,20.72-5.58"/>
		<path style="fill:none;stroke:#808080" id="kvg:07d76-s3" kvg:type="㇔" d="M37.25,45.5c2.38,2.12,6.15,8.71,6.75,12"/>
		<path style="fill:none;stroke:#808080" id="kvg:07d76-s4" kvg:type="㇑" d="M29.83,58.01c0.77,0.77,1.28,2.24,1.28,4.28c0,6.45-0.1,19.09-0.1,28.21c0,2.74-0.06,4.75-0.06,5.5"/>
		<path style="fill:none;stroke:#808080" id="kvg:07d76-s5" kvg:type="㇒" d="M20.75,69c0.12,0.76,0.09,2-0.12,2.55c-1.88,4.95-4.5,9.95-7.13,13.95"/>
		<path style="fill:none;stroke-width:4;" id="kvg:07d76-s6" kvg:type="㇔" d="M39.75,67.5c2.75,3.6,4.86,11.98,5.5,15.25"/>
<circle cx="39.75" cy="67.5" r="5" style="fill:red;stroke:red;" />
	</g>
	<g id="kvg:07d76-g2" kvg:element="色" kvg:position="right">
		<g id="kvg:07d76-g3" kvg:element="𠂊" kvg:variant="true" kvg:original="勹" kvg:position="top">
		</g>
		<g id="kvg:07d76-g4" kvg:element="巴" kvg:position="bottom">
			<g id="kvg:07d76-g5" kvg:element="己" kvg:original="巳">
			</g>
		</g>
	</g>
</g>
</g></svg>