<?xml version="1.0" encoding="UTF-8"?>
  <!DOCTYPE svg PUBLIC "-//W3C//DTD SVG 1.0//EN" "http://www.w3.org/TR/2001/REC-SVG-20010904/DTD/svg10.dtd" [
  <!ATTLIST g xmlns:kvg CDATA #FIXED "http://kanjivg.tagaini.net" kvg:element CDATA #IMPLIED kvg:variant CDATA #IMPLIED kvg:partial CDATA #IMPLIED kvg:original CDATA #IMPLIED kvg:part CDATA #IMPLIED kvg:number CDATA #IMPLIED kvg:tradForm CDATA #IMPLIED kvg:radicalForm CDATA #IMPLIED kvg:position CDATA #IMPLIED kvg:radical CDATA #IMPLIED kvg:phon CDATA #IMPLIED >
  <!ATTLIST path xmlns:kvg CDATA #FIXED "http://kanjivg.tagaini.net" kvg:type CDATA #IMPLIED >
  ]>
  <svg xmlns="http://www.w3.org/2000/svg" width="109" height="109" viewBox="0 0 109 109">
<g id="kvg:StrokePaths_07d71" style="fill:none;stroke:#000000;stroke-width:3;stroke-linecap:round;stroke-linejoin:round;">
<g id="kvg:07d71" kvg:element="統">
	<g id="kvg:07d71-g1" kvg:element="糸" kvg:position="left" kvg:radical="general">
		<path style="fill:none;stroke:#808080" id="kvg:07d71-s1" kvg:type="㇜" d="M28.4,17c0.31,1.21,0.23,2.43-0.41,3.69c-3.11,6.18-6.98,12.65-10.07,17.04c-0.8,1.14-0.56,2.69,0,3.04c3.33,2.1,5.34,2.99,8.14,5.22"/>
		<path style="fill:none;stroke:#808080" id="kvg:07d71-s2" kvg:type="㇜" d="M37.28,30.69c0.09,1.06-0.03,1.93-0.75,2.94c-5.94,8.34-12.78,17.12-20.38,24.98c-1.74,1.8,0.43,2.83,1.57,2.47c4.75-1.53,16.12-4.27,22.23-5.74"/>
		<path style="fill:none;stroke:#808080" id="kvg:07d71-s3" kvg:type="㇔" d="M37.25,49.62c1.94,1.96,5.01,8.07,5.5,11.12"/>
		<path style="fill:none;stroke-width:4;" id="kvg:07d71-s4" kvg:type="㇑" d="M29.08,60.26c0.58,0.58,1.03,1.99,1.03,3.03c0,6.11,0.02,18.46-0.08,26.21c-0.04,3.21-0.08,5.64-0.08,6.5"/>
<circle cx="29.08" cy="60.26" r="5" style="fill:red;stroke:red;" />
	</g>
	<g id="kvg:07d71-g2" kvg:element="充" kvg:position="right" kvg:phon="充">
		<g id="kvg:07d71-g3" kvg:position="top">
			<g id="kvg:07d71-g4" kvg:element="亠">
			</g>
			<g id="kvg:07d71-g5" kvg:element="允" kvg:part="1">
				<g id="kvg:07d71-g6" kvg:element="厶">
				</g>
			</g>
		</g>
		<g id="kvg:07d71-g7" kvg:element="允" kvg:part="2" kvg:position="bottom">
			<g id="kvg:07d71-g8" kvg:element="儿">
				<g id="kvg:07d71-g9" kvg:element="八" kvg:variant="true">
					<g id="kvg:07d71-g10" kvg:element="丿" kvg:position="left">
					</g>
					<g id="kvg:07d71-g11" kvg:position="right">
					</g>
				</g>
			</g>
		</g>
	</g>
</g>
</g></svg>