<?xml version="1.0" encoding="UTF-8"?>
  <!DOCTYPE svg PUBLIC "-//W3C//DTD SVG 1.0//EN" "http://www.w3.org/TR/2001/REC-SVG-20010904/DTD/svg10.dtd" [
  <!ATTLIST g xmlns:kvg CDATA #FIXED "http://kanjivg.tagaini.net" kvg:element CDATA #IMPLIED kvg:variant CDATA #IMPLIED kvg:partial CDATA #IMPLIED kvg:original CDATA #IMPLIED kvg:part CDATA #IMPLIED kvg:number CDATA #IMPLIED kvg:tradForm CDATA #IMPLIED kvg:radicalForm CDATA #IMPLIED kvg:position CDATA #IMPLIED kvg:radical CDATA #IMPLIED kvg:phon CDATA #IMPLIED >
  <!ATTLIST path xmlns:kvg CDATA #FIXED "http://kanjivg.tagaini.net" kvg:type CDATA #IMPLIED >
  ]>
  <svg xmlns="http://www.w3.org/2000/svg" width="109" height="109" viewBox="0 0 109 109">
<g id="kvg:StrokePaths_07d9a" style="fill:none;stroke:#000000;stroke-width:3;stroke-linecap:round;stroke-linejoin:round;">
<g id="kvg:07d9a" kvg:element="続">
	<g id="kvg:07d9a-g1" kvg:element="糸" kvg:position="left" kvg:radical="general">
		<path style="fill:none;stroke:#808080" id="kvg:07d9a-s1" kvg:type="㇜" d="M28.15,14c0.31,1.21,0.27,2.7-0.41,3.94c-3.24,5.96-6.52,11.14-11.06,16.22c-1.42,1.59-1.01,3.39,0.57,3.98c3.18,1.19,6.13,2.42,9.82,4.35"/>
		<path style="fill:none;stroke:#808080" id="kvg:07d9a-s2" kvg:type="㇜" d="M39.53,24.94c0.47,1.18,0.47,2.31-0.25,3.44c-5.48,8.65-15.53,19.87-23.13,27.73c-1.74,1.8,0.43,2.83,1.57,2.47c4.75-1.53,15.62-4.27,21.73-5.74"/>
		<path style="fill:none;stroke-width:4;" id="kvg:07d9a-s3" kvg:type="㇔" d="M35.12,46.12C37.55,48.04,41.39,54.01,42,57"/>
<circle cx="35.12" cy="46.12" r="5" style="fill:red;stroke:red;" />
	</g>
	<g id="kvg:07d9a-g2" kvg:element="売" kvg:position="right" kvg:phon="売">
		<g id="kvg:07d9a-g3" kvg:element="士" kvg:position="top">
		</g>
		<g id="kvg:07d9a-g4" kvg:position="bottom">
			<g id="kvg:07d9a-g5" kvg:element="冖">
			</g>
			<g id="kvg:07d9a-g6" kvg:element="儿" kvg:original="八">
				<g id="kvg:07d9a-g7" kvg:element="丿">
				</g>
			</g>
		</g>
	</g>
</g>
</g></svg>