<?xml version="1.0" encoding="UTF-8"?>
  <!DOCTYPE svg PUBLIC "-//W3C//DTD SVG 1.0//EN" "http://www.w3.org/TR/2001/REC-SVG-20010904/DTD/svg10.dtd" [
  <!ATTLIST g xmlns:kvg CDATA #FIXED "http://kanjivg.tagaini.net" kvg:element CDATA #IMPLIED kvg:variant CDATA #IMPLIED kvg:partial CDATA #IMPLIED kvg:original CDATA #IMPLIED kvg:part CDATA #IMPLIED kvg:number CDATA #IMPLIED kvg:tradForm CDATA #IMPLIED kvg:radicalForm CDATA #IMPLIED kvg:position CDATA #IMPLIED kvg:radical CDATA #IMPLIED kvg:phon CDATA #IMPLIED >
  <!ATTLIST path xmlns:kvg CDATA #FIXED "http://kanjivg.tagaini.net" kvg:type CDATA #IMPLIED >
  ]>
  <svg xmlns="http://www.w3.org/2000/svg" width="109" height="109" viewBox="0 0 109 109">
<g id="kvg:StrokePaths_07dbf" style="fill:none;stroke:#000000;stroke-width:3;stroke-linecap:round;stroke-linejoin:round;">
<g id="kvg:07dbf" kvg:element="綿">
	<g id="kvg:07dbf-g1" kvg:element="糸" kvg:position="left" kvg:radical="general">
		<path style="fill:none;stroke:#808080" id="kvg:07dbf-s1" kvg:type="㇜" d="M29.19,15.67c0.29,1.32,0.09,2.67-0.65,3.99C25,26,20.75,32.02,16.83,37.09c-0.54,0.7-0.34,2.3,0.25,2.55c3.09,1.32,6.04,2.61,9.49,4.98"/>
		<path style="fill:none;stroke:#808080" id="kvg:07dbf-s2" kvg:type="㇜" d="M41.05,23.18c0.2,0.82,0.32,2.2-0.25,3.09c-6.16,9.62-14.93,22.36-22.98,31.94c-1.69,2.02,0.46,2.98,1.65,2.59c5-1.61,15.03-5.05,22.04-7.28"/>
		<path style="fill:none;stroke:#808080" id="kvg:07dbf-s3" kvg:type="㇔" d="M38.13,46.63c2.6,2.14,6.72,8.78,7.37,12.1"/>
		<path style="fill:none;stroke:#808080" id="kvg:07dbf-s4" kvg:type="㇑" d="M30.39,61.12c0.81,0.81,1.23,1.88,1.23,3.34c0,9.3-0.11,20.34-0.17,27.79c-0.02,2.39-0.03,4.49-0.03,6.17"/>
		<path style="fill:none;stroke:#808080" id="kvg:07dbf-s5" kvg:type="㇒" d="M20.1,71.1c0.16,0.92-0.11,2.48-0.41,3.14c-1.94,4.3-7.06,12.58-9.81,16.26"/>
		<path style="fill:none;stroke:#808080" id="kvg:07dbf-s6" kvg:type="㇔" d="M39.88,67.12c2.15,3.45,3.8,11.47,4.3,14.6"/>
	</g>
	<g id="kvg:07dbf-g2" kvg:element="帛" kvg:position="right">
		<g id="kvg:07dbf-g3" kvg:element="白" kvg:position="top">
			<g id="kvg:07dbf-g4" kvg:position="top">
				<path style="fill:none;stroke-width:4;" id="kvg:07dbf-s7" kvg:type="㇔" d="M70.25,10c0.25,0.88,0.12,1.88-0.25,2.69c-1.34,2.96-2.87,5.18-5.88,9.31"/>
<circle cx="70.25" cy="10" r="5" style="fill:red;stroke:red;" />
			</g>
			<g id="kvg:07dbf-g5" kvg:element="日" kvg:position="bottom">
			</g>
		</g>
		<g id="kvg:07dbf-g6" kvg:element="巾" kvg:position="bottom">
		</g>
	</g>
</g>
</g></svg>