<?xml version="1.0" encoding="UTF-8"?>
  <!DOCTYPE svg PUBLIC "-//W3C//DTD SVG 1.0//EN" "http://www.w3.org/TR/2001/REC-SVG-20010904/DTD/svg10.dtd" [
  <!ATTLIST g xmlns:kvg CDATA #FIXED "http://kanjivg.tagaini.net" kvg:element CDATA #IMPLIED kvg:variant CDATA #IMPLIED kvg:partial CDATA #IMPLIED kvg:original CDATA #IMPLIED kvg:part CDATA #IMPLIED kvg:number CDATA #IMPLIED kvg:tradForm CDATA #IMPLIED kvg:radicalForm CDATA #IMPLIED kvg:position CDATA #IMPLIED kvg:radical CDATA #IMPLIED kvg:phon CDATA #IMPLIED >
  <!ATTLIST path xmlns:kvg CDATA #FIXED "http://kanjivg.tagaini.net" kvg:type CDATA #IMPLIED >
  ]>
  <svg xmlns="http://www.w3.org/2000/svg" width="109" height="109" viewBox="0 0 109 109">
<g id="kvg:StrokePaths_07dd1" style="fill:none;stroke:#000000;stroke-width:3;stroke-linecap:round;stroke-linejoin:round;">
<g id="kvg:07dd1" kvg:element="緑">
	<g id="kvg:07dd1-g1" kvg:element="糸" kvg:position="left" kvg:radical="general">
		<path style="fill:none;stroke:#808080" id="kvg:07dd1-s1" kvg:type="㇜" d="M27.65,14c0.31,1.21,0.26,2.45-0.41,3.69c-2.49,4.68-7.21,12.46-10.32,15.29c-0.64,0.58-0.62,2.81,0,3.04c3.26,1.21,6.84,3.24,9.64,5.47"/>
		<path style="fill:none;stroke:#808080" id="kvg:07dd1-s2" kvg:type="㇜" d="M38.28,25.69c0.22,1.06-0.05,2.67-0.75,3.69c-5.78,8.49-13.16,17.87-21.38,27.73c-1.61,1.93-1.03,3.26,0.82,2.72c5.72-1.69,12.53-3.58,18.98-5.24"/>
		<path style="fill:none;stroke:#808080" id="kvg:07dd1-s3" kvg:type="㇔" d="M34.5,49.25c2.5,2.88,5,6.41,6.75,11.5"/>
		<path style="fill:none;stroke-width:4;" id="kvg:07dd1-s4" kvg:type="㇑" d="M26.83,59.76c1.08,1.08,1.53,2.48,1.53,4.28c0,8.03-0.1,19.06-0.14,26.34c-0.01,2.1-0.02,3.86-0.02,5.12"/>
<circle cx="26.83" cy="59.76" r="5" style="fill:red;stroke:red;" />
	</g>
	<g id="kvg:07dd1-g2" kvg:element="彔" kvg:variant="true" kvg:position="right" kvg:phon="彔V">
		<g id="kvg:07dd1-g3" kvg:element="⺕" kvg:variant="true" kvg:original="彑">
		</g>
		<g id="kvg:07dd1-g4" kvg:element="氺" kvg:variant="true" kvg:original="水">
		</g>
	</g>
</g>
</g></svg>