<?xml version="1.0" encoding="UTF-8"?>
  <!DOCTYPE svg PUBLIC "-//W3C//DTD SVG 1.0//EN" "http://www.w3.org/TR/2001/REC-SVG-20010904/DTD/svg10.dtd" [
  <!ATTLIST g xmlns:kvg CDATA #FIXED "http://kanjivg.tagaini.net" kvg:element CDATA #IMPLIED kvg:variant CDATA #IMPLIED kvg:partial CDATA #IMPLIED kvg:original CDATA #IMPLIED kvg:part CDATA #IMPLIED kvg:number CDATA #IMPLIED kvg:tradForm CDATA #IMPLIED kvg:radicalForm CDATA #IMPLIED kvg:position CDATA #IMPLIED kvg:radical CDATA #IMPLIED kvg:phon CDATA #IMPLIED >
  <!ATTLIST path xmlns:kvg CDATA #FIXED "http://kanjivg.tagaini.net" kvg:type CDATA #IMPLIED >
  ]>
  <svg xmlns="http://www.w3.org/2000/svg" width="109" height="109" viewBox="0 0 109 109">
<g id="kvg:StrokePaths_07dda" style="fill:none;stroke:#000000;stroke-width:3;stroke-linecap:round;stroke-linejoin:round;">
<g id="kvg:07dda" kvg:element="線">
	<g id="kvg:07dda-g1" kvg:element="糸" kvg:position="left" kvg:radical="general">
		<path style="fill:none;stroke:#808080" id="kvg:07dda-s1" kvg:type="㇜" d="M30.9,14c0.49,1.93,0.1,3.5-0.93,5.15c-4.47,7.1-10.65,15.21-13.54,17.84c-0.64,0.58-0.62,2.81,0,3.04c3.26,1.21,6.84,3.74,9.64,5.97"/>
		<path style="fill:none;stroke:#808080" id="kvg:07dda-s2" kvg:type="㇜" d="M40.53,25.44c0.47,1.31-0.11,3.17-0.95,4.27C33,38.25,24.44,50.07,17.15,57.61c-1.74,1.8,0.43,2.83,1.57,2.47c4.75-1.53,13.62-3.77,19.73-5.24"/>
		<path style="fill:none;stroke:#808080" id="kvg:07dda-s3" kvg:type="㇔" d="M36.25,47.5c2.47,2.25,6.38,9.25,7,12.75"/>
		<path style="fill:none;stroke:#808080" id="kvg:07dda-s4" kvg:type="㇑" d="M26.99,59.75c1,1,1.68,2.02,1.68,4.17c0,9.66-0.1,20.53-0.15,26.83c-0.02,2.56-0.04,4.49-0.04,5.5"/>
		<path style="fill:none;stroke:#808080" id="kvg:07dda-s5" kvg:type="㇒" d="M18.63,70.62c0.36,1.76,0.09,2.86-0.36,3.94c-1.5,3.61-3.65,8.06-6.77,12.69"/>
		<path style="fill:none;stroke:#808080" id="kvg:07dda-s6" kvg:type="㇔" d="M37.5,69.12c2.85,3.35,4.09,10.09,4.75,13.12"/>
	</g>
	<g id="kvg:07dda-g2" kvg:element="泉" kvg:position="right" kvg:phon="泉">
		<g id="kvg:07dda-g3" kvg:element="白" kvg:position="top">
			<g id="kvg:07dda-g4" kvg:position="top">
				<path style="fill:none;stroke:#808080" id="kvg:07dda-s7" kvg:type="㇔" d="M66.12,12.12c0.32,0.79,0.3,2-0.03,2.75c-0.84,2.6-3.37,6.27-5.71,9.06"/>
			</g>
			<g id="kvg:07dda-g5" kvg:element="日" kvg:position="bottom">
				<path style="fill:none;stroke:#808080" id="kvg:07dda-s8" kvg:type="㇑" d="M49.09,26.97c0.97,0.97,1.76,2.43,2.03,4.01c1.25,7.15,2.09,12.2,2.88,17.53c0.2,1.34,0.34,2.42,0.38,3.08"/>
				<path style="fill:none;stroke:#808080" id="kvg:07dda-s9" kvg:type="㇕a" d="M51.28,27.74c9.1-1.24,28.72-3.86,33.77-4.18c2.38-0.15,3.87,1.34,3.43,3.6c-0.2,1.07-1.82,9.53-3.62,17.61c-0.26,1.15-0.52,2.3-0.79,3.41"/>
				<path style="fill:none;stroke-width:4;" id="kvg:07dda-s10" kvg:type="㇐a" d="M53.64,38.24c9.11-1.24,21.98-2.86,32.19-3.67"/>
<circle cx="53.64" cy="38.24" r="5" style="fill:red;stroke:red;" />
			</g>
		</g>
		<g id="kvg:07dda-g6" kvg:element="水" kvg:position="bottom">
		</g>
	</g>
</g>
</g></svg>