<?xml version="1.0" encoding="UTF-8"?>
  <!DOCTYPE svg PUBLIC "-//W3C//DTD SVG 1.0//EN" "http://www.w3.org/TR/2001/REC-SVG-20010904/DTD/svg10.dtd" [
  <!ATTLIST g xmlns:kvg CDATA #FIXED "http://kanjivg.tagaini.net" kvg:element CDATA #IMPLIED kvg:variant CDATA #IMPLIED kvg:partial CDATA #IMPLIED kvg:original CDATA #IMPLIED kvg:part CDATA #IMPLIED kvg:number CDATA #IMPLIED kvg:tradForm CDATA #IMPLIED kvg:radicalForm CDATA #IMPLIED kvg:position CDATA #IMPLIED kvg:radical CDATA #IMPLIED kvg:phon CDATA #IMPLIED >
  <!ATTLIST path xmlns:kvg CDATA #FIXED "http://kanjivg.tagaini.net" kvg:type CDATA #IMPLIED >
  ]>
  <svg xmlns="http://www.w3.org/2000/svg" width="109" height="109" viewBox="0 0 109 109">
<g id="kvg:StrokePaths_07dda" style="fill:none;stroke:#000000;stroke-width:3;stroke-linecap:round;stroke-linejoin:round;">
<g id="kvg:07dda" kvg:element="線">
	<g id="kvg:07dda-g1" kvg:element="糸" kvg:position="left" kvg:radical="general">
		<path style="fill:none;stroke:#808080" id="kvg:07dda-s1" kvg:type="㇜" d="M30.9,14c0.49,1.93,0.1,3.5-0.93,5.15c-4.47,7.1-10.65,15.21-13.54,17.84c-0.64,0.58-0.62,2.81,0,3.04c3.26,1.21,6.84,3.74,9.64,5.97"/>
		<path style="fill:none;stroke:#808080" id="kvg:07dda-s2" kvg:type="㇜" d="M40.53,25.44c0.47,1.31-0.11,3.17-0.95,4.27C33,38.25,24.44,50.07,17.15,57.61c-1.74,1.8,0.43,2.83,1.57,2.47c4.75-1.53,13.62-3.77,19.73-5.24"/>
		<path style="fill:none;stroke:#808080" id="kvg:07dda-s3" kvg:type="㇔" d="M36.25,47.5c2.47,2.25,6.38,9.25,7,12.75"/>
		<path style="fill:none;stroke-width:4;" id="kvg:07dda-s4" kvg:type="㇑" d="M26.99,59.75c1,1,1.68,2.02,1.68,4.17c0,9.66-0.1,20.53-0.15,26.83c-0.02,2.56-0.04,4.49-0.04,5.5"/>
<circle cx="26.99" cy="59.75" r="5" style="fill:red;stroke:red;" />
	</g>
	<g id="kvg:07dda-g2" kvg:element="泉" kvg:position="right" kvg:phon="泉">
		<g id="kvg:07dda-g3" kvg:element="白" kvg:position="top">
			<g id="kvg:07dda-g4" kvg:position="top">
			</g>
			<g id="kvg:07dda-g5" kvg:element="日" kvg:position="bottom">
			</g>
		</g>
		<g id="kvg:07dda-g6" kvg:element="水" kvg:position="bottom">
		</g>
	</g>
</g>
</g></svg>