<?xml version="1.0" encoding="UTF-8"?>
  <!DOCTYPE svg PUBLIC "-//W3C//DTD SVG 1.0//EN" "http://www.w3.org/TR/2001/REC-SVG-20010904/DTD/svg10.dtd" [
  <!ATTLIST g xmlns:kvg CDATA #FIXED "http://kanjivg.tagaini.net" kvg:element CDATA #IMPLIED kvg:variant CDATA #IMPLIED kvg:partial CDATA #IMPLIED kvg:original CDATA #IMPLIED kvg:part CDATA #IMPLIED kvg:number CDATA #IMPLIED kvg:tradForm CDATA #IMPLIED kvg:radicalForm CDATA #IMPLIED kvg:position CDATA #IMPLIED kvg:radical CDATA #IMPLIED kvg:phon CDATA #IMPLIED >
  <!ATTLIST path xmlns:kvg CDATA #FIXED "http://kanjivg.tagaini.net" kvg:type CDATA #IMPLIED >
  ]>
  <svg xmlns="http://www.w3.org/2000/svg" width="109" height="109" viewBox="0 0 109 109">
<g id="kvg:StrokePaths_07e04" style="fill:none;stroke:#000000;stroke-width:3;stroke-linecap:round;stroke-linejoin:round;">
<g id="kvg:07e04" kvg:element="縄">
	<g id="kvg:07e04-g1" kvg:element="糸" kvg:position="left" kvg:radical="general">
		<path style="fill:none;stroke:#808080" id="kvg:07e04-s1" kvg:type="㇜" d="M26.88,14.42c0.34,1.34,0.06,2.18-0.67,3.55c-2.95,5.53-7.08,11.9-11.8,17.72c-0.6,0.74-0.95,2.28,0.5,2.85c3.35,1.33,5.22,1.83,8.97,4.06"/>
		<path style="fill:none;stroke:#808080" id="kvg:07e04-s2" kvg:type="㇜" d="M36.05,24.43c0.32,1.2,0.17,2.24-0.25,2.84c-6.55,9.36-14.05,20.86-21.98,29.94c-1.73,1.99-0.57,3.04,1.65,2.34c5.01-1.57,13.28-4.43,19.79-6.28"/>
		<path style="fill:none;stroke-width:4;" id="kvg:07e04-s3" kvg:type="㇔" d="M32.38,46.75c2.34,2.11,6.04,8.69,6.62,11.98"/>
<circle cx="32.38" cy="46.75" r="5" style="fill:red;stroke:red;" />
	</g>
	<g id="kvg:07e04-g2" kvg:element="电" kvg:position="right">
		<g id="kvg:07e04-g3" kvg:element="日">
		</g>
		<g id="kvg:07e04-g4" kvg:element="日">
		</g>
	</g>
</g>
</g></svg>