<?xml version="1.0" encoding="UTF-8"?>
  <!DOCTYPE svg PUBLIC "-//W3C//DTD SVG 1.0//EN" "http://www.w3.org/TR/2001/REC-SVG-20010904/DTD/svg10.dtd" [
  <!ATTLIST g xmlns:kvg CDATA #FIXED "http://kanjivg.tagaini.net" kvg:element CDATA #IMPLIED kvg:variant CDATA #IMPLIED kvg:partial CDATA #IMPLIED kvg:original CDATA #IMPLIED kvg:part CDATA #IMPLIED kvg:number CDATA #IMPLIED kvg:tradForm CDATA #IMPLIED kvg:radicalForm CDATA #IMPLIED kvg:position CDATA #IMPLIED kvg:radical CDATA #IMPLIED kvg:phon CDATA #IMPLIED >
  <!ATTLIST path xmlns:kvg CDATA #FIXED "http://kanjivg.tagaini.net" kvg:type CDATA #IMPLIED >
  ]>
  <svg xmlns="http://www.w3.org/2000/svg" width="109" height="109" viewBox="0 0 109 109">
<g id="kvg:StrokePaths_07e3e" style="fill:none;stroke:#000000;stroke-width:3;stroke-linecap:round;stroke-linejoin:round;">
<g id="kvg:07e3e" kvg:element="績">
	<g id="kvg:07e3e-g1" kvg:element="糸" kvg:position="left" kvg:radical="general">
		<path style="fill:none;stroke:#808080" id="kvg:07e3e-s1" kvg:type="㇜" d="M29.9,14.25c0.31,1.21,0.54,2.22-0.16,3.44C26.12,24,22.12,30,16.92,35.49c-1.25,1.31-0.67,2.64,0.75,3.04c3.72,1.04,7.84,2.74,10.64,4.97"/>
		<path style="fill:none;stroke:#808080" id="kvg:07e3e-s2" kvg:type="㇜" d="M41.78,24.44c0.34,0.93,0.22,2.31-0.5,3.44C35.8,36.53,25.5,48.12,17.9,56.61c-1.67,1.87-0.65,3.14,1.57,2.47c4.78-1.44,12.78-4.21,20.48-6.49"/>
		<path style="fill:none;stroke:#808080" id="kvg:07e3e-s3" kvg:type="㇔" d="M37,46.75c2.47,2.03,6.38,8.34,7,11.5"/>
		<path style="fill:none;stroke:#808080" id="kvg:07e3e-s4" kvg:type="㇑" d="M30.33,59.01c0.58,0.58,1.28,1.87,1.28,3.28c0,7.59-0.1,20.34-0.1,28.71c0,2.87-0.06,4.99-0.06,5.75"/>
		<path style="fill:none;stroke-width:4;" id="kvg:07e3e-s5" kvg:type="㇒" d="M22.75,68.25c0.12,0.76-0.15,2.26-0.37,2.8c-1.45,3.55-5.33,11.15-7.38,14.2"/>
<circle cx="22.75" cy="68.25" r="5" style="fill:red;stroke:red;" />
	</g>
	<g id="kvg:07e3e-g2" kvg:element="責" kvg:position="right" kvg:phon="責">
		<g id="kvg:07e3e-g3" kvg:element="龶" kvg:position="top">
		</g>
		<g id="kvg:07e3e-g4" kvg:element="貝" kvg:position="bottom">
			<g id="kvg:07e3e-g5" kvg:element="目" kvg:position="top">
			</g>
			<g id="kvg:07e3e-g6" kvg:position="bottom">
			</g>
		</g>
	</g>
</g>
</g></svg>