<?xml version="1.0" encoding="UTF-8"?>
  <!DOCTYPE svg PUBLIC "-//W3C//DTD SVG 1.0//EN" "http://www.w3.org/TR/2001/REC-SVG-20010904/DTD/svg10.dtd" [
  <!ATTLIST g xmlns:kvg CDATA #FIXED "http://kanjivg.tagaini.net" kvg:element CDATA #IMPLIED kvg:variant CDATA #IMPLIED kvg:partial CDATA #IMPLIED kvg:original CDATA #IMPLIED kvg:part CDATA #IMPLIED kvg:number CDATA #IMPLIED kvg:tradForm CDATA #IMPLIED kvg:radicalForm CDATA #IMPLIED kvg:position CDATA #IMPLIED kvg:radical CDATA #IMPLIED kvg:phon CDATA #IMPLIED >
  <!ATTLIST path xmlns:kvg CDATA #FIXED "http://kanjivg.tagaini.net" kvg:type CDATA #IMPLIED >
  ]>
  <svg xmlns="http://www.w3.org/2000/svg" width="109" height="109" viewBox="0 0 109 109">
<g id="kvg:StrokePaths_07f6a" style="fill:none;stroke:#000000;stroke-width:3;stroke-linecap:round;stroke-linejoin:round;">
<g id="kvg:07f6a" kvg:element="罪">
	<g id="kvg:07f6a-g1" kvg:element="罒" kvg:variant="true" kvg:original="网" kvg:position="top" kvg:radical="general">
		<path style="fill:none;stroke:#808080" id="kvg:07f6a-s1" kvg:type="㇑" d="M21.25,16.34c0.83,0.83,1.57,2.09,1.81,3.27c0.94,4.64,1.53,7.63,2.26,11.88c0.32,1.84,0.6,3.57,0.81,5.01"/>
		<path style="fill:none;stroke:#808080" id="kvg:07f6a-s2" kvg:type="㇕a" d="M23.44,18.27c16.81-2.02,55.81-5.27,61.74-5.54c1.51-0.07,3.8,1.59,3.39,3.4c-0.65,2.91-2.27,7.72-3.89,12.24c-0.49,1.35-0.99,2.68-1.51,3.93"/>
		<path style="fill:none;stroke:#808080" id="kvg:07f6a-s3" kvg:type="㇑a" d="M42.42,17.47c0.74,0.74,1.08,1.78,1.14,2.77c0.27,3.98,0.68,7.26,0.96,10.52"/>
		<path style="fill:none;stroke:#808080" id="kvg:07f6a-s4" kvg:type="㇑a" d="M63.54,15.63c0.6,0.6,0.87,1.61,0.76,2.66c-0.44,4.19-1.77,9.14-2.15,10.86"/>
		<path style="fill:none;stroke:#808080" id="kvg:07f6a-s5" kvg:type="㇐a" d="M26.74,33.74c6.51-0.99,47.26-4.37,56.74-4.69"/>
	</g>
	<g id="kvg:07f6a-g2" kvg:element="非" kvg:position="bottom">
		<g id="kvg:07f6a-g3" kvg:position="left">
			<path style="fill:none;stroke-width:4;" id="kvg:07f6a-s6" kvg:type="㇓" d="M42.83,39.09c0.91,0.91,1.43,2.41,1.46,3.67C45,73.62,44.75,85.12,30.23,96"/>
<circle cx="42.83" cy="39.09" r="5" style="fill:red;stroke:red;" />
		</g>
		<g id="kvg:07f6a-g4" kvg:position="right">
		</g>
	</g>
</g>
</g></svg>