<?xml version="1.0" encoding="UTF-8"?>
  <!DOCTYPE svg PUBLIC "-//W3C//DTD SVG 1.0//EN" "http://www.w3.org/TR/2001/REC-SVG-20010904/DTD/svg10.dtd" [
  <!ATTLIST g xmlns:kvg CDATA #FIXED "http://kanjivg.tagaini.net" kvg:element CDATA #IMPLIED kvg:variant CDATA #IMPLIED kvg:partial CDATA #IMPLIED kvg:original CDATA #IMPLIED kvg:part CDATA #IMPLIED kvg:number CDATA #IMPLIED kvg:tradForm CDATA #IMPLIED kvg:radicalForm CDATA #IMPLIED kvg:position CDATA #IMPLIED kvg:radical CDATA #IMPLIED kvg:phon CDATA #IMPLIED >
  <!ATTLIST path xmlns:kvg CDATA #FIXED "http://kanjivg.tagaini.net" kvg:type CDATA #IMPLIED >
  ]>
  <svg xmlns="http://www.w3.org/2000/svg" width="109" height="109" viewBox="0 0 109 109">
<g id="kvg:StrokePaths_07f72" style="fill:none;stroke:#000000;stroke-width:3;stroke-linecap:round;stroke-linejoin:round;">
<g id="kvg:07f72" kvg:element="署">
	<g id="kvg:07f72-g1" kvg:element="罒" kvg:variant="true" kvg:original="网" kvg:position="top" kvg:radical="general">
		<path style="fill:none;stroke:#808080" id="kvg:07f72-s1" kvg:type="㇑" d="M23.62,12.94c0.78,0.78,1.13,1.56,1.5,2.65c0.88,2.61,1.89,6.58,2.74,10.58c0.3,1.39,0.55,2.7,0.72,3.83"/>
		<path style="fill:none;stroke:#808080" id="kvg:07f72-s2" kvg:type="㇕a" d="M25.85,14.83c12.5-1.6,43.09-3.8,53.78-4.28c3.04-0.13,5.15,0.44,4.21,3.88c-0.69,2.52-1.79,5.86-3.06,9.08c-0.4,1.02-0.81,2.02-1.23,2.98"/>
		<path style="fill:none;stroke:#808080" id="kvg:07f72-s3" kvg:type="㇑a" d="M42.55,14.28c0.59,0.59,0.94,1.37,1.12,2.49c0.52,3.28,1.15,6.92,1.31,8.48"/>
		<path style="fill:none;stroke:#808080" id="kvg:07f72-s4" kvg:type="㇑a" d="M62.15,12.87c0.55,0.55,0.62,1.47,0.52,2.42c-0.4,3.61-0.92,6.46-1.23,9.06"/>
		<path style="fill:none;stroke-width:4;" id="kvg:07f72-s5" kvg:type="㇐a" d="M29.33,27.74c9.54-0.86,42.54-2.99,50.23-3.36"/>
<circle cx="29.33" cy="27.74" r="5" style="fill:red;stroke:red;" />
	</g>
	<g id="kvg:07f72-g2" kvg:element="者" kvg:position="bottom" kvg:phon="者">
		<g id="kvg:07f72-g3" kvg:element="耂" kvg:original="老" kvg:partial="true">
			<g id="kvg:07f72-g4" kvg:element="土">
			</g>
		</g>
		<g id="kvg:07f72-g5" kvg:element="日">
		</g>
	</g>
</g>
</g></svg>