<?xml version="1.0" encoding="UTF-8"?>
  <!DOCTYPE svg PUBLIC "-//W3C//DTD SVG 1.0//EN" "http://www.w3.org/TR/2001/REC-SVG-20010904/DTD/svg10.dtd" [
  <!ATTLIST g xmlns:kvg CDATA #FIXED "http://kanjivg.tagaini.net" kvg:element CDATA #IMPLIED kvg:variant CDATA #IMPLIED kvg:partial CDATA #IMPLIED kvg:original CDATA #IMPLIED kvg:part CDATA #IMPLIED kvg:number CDATA #IMPLIED kvg:tradForm CDATA #IMPLIED kvg:radicalForm CDATA #IMPLIED kvg:position CDATA #IMPLIED kvg:radical CDATA #IMPLIED kvg:phon CDATA #IMPLIED >
  <!ATTLIST path xmlns:kvg CDATA #FIXED "http://kanjivg.tagaini.net" kvg:type CDATA #IMPLIED >
  ]>
  <svg xmlns="http://www.w3.org/2000/svg" width="109" height="109" viewBox="0 0 109 109">
<g id="kvg:StrokePaths_07f8e" style="fill:none;stroke:#000000;stroke-width:3;stroke-linecap:round;stroke-linejoin:round;">
<g id="kvg:07f8e" kvg:element="美">
	<g id="kvg:07f8e-g1" kvg:element="⺷" kvg:variant="true" kvg:original="羊" kvg:position="top" kvg:radical="general">
		<path style="fill:none;stroke:#808080" id="kvg:07f8e-s1" kvg:type="㇔" d="M35.64,15.4c3.28,2.07,8.47,8.53,9.29,11.76"/>
		<path style="fill:none;stroke:#808080" id="kvg:07f8e-s2" kvg:type="㇒" d="M70,11.82c0.03,0.32,0.12,0.85-0.06,1.29c-1.32,3.33-3.19,6.58-8.94,11.58"/>
		<path style="fill:none;stroke:#808080" id="kvg:07f8e-s3" kvg:type="㇐" d="M29.5,30.21c2.61,0.49,4.98,0.28,7.09,0.03c7.38-0.89,28.24-2.94,36.17-3.44c1.94-0.12,3.96-0.26,5.87,0.28"/>
		<path style="fill:none;stroke:#808080" id="kvg:07f8e-s4" kvg:type="㇑a" d="M52.49,29.82c0.86,0.5,1.55,2.24,1.55,3.25c0,6-0.04,12.25-0.04,20.25"/>
		<path style="fill:none;stroke:#808080" id="kvg:07f8e-s5" kvg:type="㇐" d="M31.75,42.71c1.88,0.49,4.73,0.29,6.71,0.02c7.22-0.98,21.44-2.77,30.92-3.56c2.09-0.17,4.13-0.23,6.37,0.16"/>
		<path style="fill:none;stroke-width:4;" id="kvg:07f8e-s6" kvg:type="㇐" d="M26,55.77c3.19,0.43,6.1,0.21,9.04-0.15c8.29-0.99,29.45-3,37.93-3.74c2.86-0.25,6.06-0.44,8.9,0.23"/>
<circle cx="26" cy="55.77" r="5" style="fill:red;stroke:red;" />
	</g>
	<g id="kvg:07f8e-g2" kvg:element="大" kvg:position="bottom">
	</g>
</g>
</g></svg>