<?xml version="1.0" encoding="UTF-8"?>
  <!DOCTYPE svg PUBLIC "-//W3C//DTD SVG 1.0//EN" "http://www.w3.org/TR/2001/REC-SVG-20010904/DTD/svg10.dtd" [
  <!ATTLIST g xmlns:kvg CDATA #FIXED "http://kanjivg.tagaini.net" kvg:element CDATA #IMPLIED kvg:variant CDATA #IMPLIED kvg:partial CDATA #IMPLIED kvg:original CDATA #IMPLIED kvg:part CDATA #IMPLIED kvg:number CDATA #IMPLIED kvg:tradForm CDATA #IMPLIED kvg:radicalForm CDATA #IMPLIED kvg:position CDATA #IMPLIED kvg:radical CDATA #IMPLIED kvg:phon CDATA #IMPLIED >
  <!ATTLIST path xmlns:kvg CDATA #FIXED "http://kanjivg.tagaini.net" kvg:type CDATA #IMPLIED >
  ]>
  <svg xmlns="http://www.w3.org/2000/svg" width="109" height="109" viewBox="0 0 109 109">
<g id="kvg:StrokePaths_07fa4" style="fill:none;stroke:#000000;stroke-width:3;stroke-linecap:round;stroke-linejoin:round;">
<g id="kvg:07fa4" kvg:element="群">
	<g id="kvg:07fa4-g1" kvg:element="君" kvg:position="left" kvg:phon="君">
		<g id="kvg:07fa4-g2" kvg:element="尹">
			<g id="kvg:07fa4-g3" kvg:element="⺕" kvg:variant="true" kvg:original="彑">
				<g id="kvg:07fa4-g4" kvg:element="尸" kvg:part="1">
					<path style="fill:none;stroke:#808080" id="kvg:07fa4-s1" kvg:type="㇕c" d="M17.22,22.63c2.17,0.85,3.59,0.8,5.91,0.5c7.87-1.01,15.97-2.18,21.24-2.63c2.03-0.18,3.38,1.75,3.13,3.38c-0.69,4.54-2.68,13.37-3.77,21.07"/>
					<path style="fill:none;stroke:#808080" id="kvg:07fa4-s2" kvg:type="㇐" d="M11.24,35.64c1.41,0.17,2.52,0.54,4.07,0.34c11.86-1.47,21.69-2.86,33.78-3.84c1.73-0.14,3.03-0.02,4.17,0.26"/>
				</g>
				<path style="fill:none;stroke:#808080" id="kvg:07fa4-s3" kvg:type="㇐" d="M15.05,48.26c1.91,0.42,3.23,0.53,5.2,0.28c7.35-0.91,14.47-2.61,21.25-3.07c1.44-0.1,2.87-0.16,4.29,0.1"/>
			</g>
			<g id="kvg:07fa4-g5" kvg:element="尸" kvg:part="2">
				<g id="kvg:07fa4-g6" kvg:element="丿">
					<path style="fill:none;stroke-width:4;" id="kvg:07fa4-s4" kvg:type="㇒" d="M29.25,24.31c0.9,0.93,1.1,2.48,0.93,3.67C27.5,45.75,24,60.5,9.05,73.78"/>
<circle cx="29.25" cy="24.31" r="5" style="fill:red;stroke:red;" />
				</g>
			</g>
		</g>
		<g id="kvg:07fa4-g7" kvg:element="口">
		</g>
	</g>
	<g id="kvg:07fa4-g8" kvg:element="羊" kvg:position="right" kvg:radical="general">
		<g id="kvg:07fa4-g9" kvg:element="䒑">
		</g>
	</g>
</g>
</g></svg>