<?xml version="1.0" encoding="UTF-8"?>
  <!DOCTYPE svg PUBLIC "-//W3C//DTD SVG 1.0//EN" "http://www.w3.org/TR/2001/REC-SVG-20010904/DTD/svg10.dtd" [
  <!ATTLIST g xmlns:kvg CDATA #FIXED "http://kanjivg.tagaini.net" kvg:element CDATA #IMPLIED kvg:variant CDATA #IMPLIED kvg:partial CDATA #IMPLIED kvg:original CDATA #IMPLIED kvg:part CDATA #IMPLIED kvg:number CDATA #IMPLIED kvg:tradForm CDATA #IMPLIED kvg:radicalForm CDATA #IMPLIED kvg:position CDATA #IMPLIED kvg:radical CDATA #IMPLIED kvg:phon CDATA #IMPLIED >
  <!ATTLIST path xmlns:kvg CDATA #FIXED "http://kanjivg.tagaini.net" kvg:type CDATA #IMPLIED >
  ]>
  <svg xmlns="http://www.w3.org/2000/svg" width="109" height="109" viewBox="0 0 109 109">
<g id="kvg:StrokePaths_07fa9" style="fill:none;stroke:#000000;stroke-width:3;stroke-linecap:round;stroke-linejoin:round;">
<g id="kvg:07fa9" kvg:element="義">
	<g id="kvg:07fa9-g1" kvg:element="羊" kvg:variant="true" kvg:position="top" kvg:radical="general">
		<g id="kvg:07fa9-g2" kvg:element="䒑">
			<path style="fill:none;stroke:#808080" id="kvg:07fa9-s1" kvg:type="㇔" d="M34.53,11.15c3.36,1.79,8.68,7.35,9.52,10.13"/>
			<path style="fill:none;stroke:#808080" id="kvg:07fa9-s2" kvg:type="㇒" d="M66.87,9.64c0.12,0.61,0.02,1.43-0.25,1.96c-1.75,3.4-4.38,6.51-8.92,10.68"/>
			<path style="fill:none;stroke:#808080" id="kvg:07fa9-s3" kvg:type="㇐" d="M31,26.78c2,0.47,4.55,0.36,6.51,0.17c8.24-0.79,26.18-2.79,34.75-3.39c1.96-0.14,4.78-0.35,6.71,0.07"/>
		</g>
		<path style="fill:none;stroke-width:4;" id="kvg:07fa9-s4" kvg:type="㇑a" d="M53.1,27.44c0.79,0.79,1.11,1.93,1.11,3.31c0,3.37-0.18,9.12-0.18,14.49"/>
<circle cx="53.1" cy="27.44" r="5" style="fill:red;stroke:red;" />
	</g>
	<g id="kvg:07fa9-g3" kvg:element="我" kvg:position="bottom" kvg:phon="我">
		<g id="kvg:07fa9-g4" kvg:element="丿">
		</g>
		<g id="kvg:07fa9-g5" kvg:element="戈" kvg:part="1">
			<g id="kvg:07fa9-g6" kvg:element="弋" kvg:part="1">
			</g>
		</g>
		<g id="kvg:07fa9-g7" kvg:element="亅">
		</g>
		<g id="kvg:07fa9-g8" kvg:element="戈" kvg:part="2">
			<g id="kvg:07fa9-g9" kvg:element="丿">
			</g>
			<g id="kvg:07fa9-g10" kvg:element="弋" kvg:part="2">
				<g id="kvg:07fa9-g11" kvg:element="丶">
				</g>
			</g>
		</g>
	</g>
</g>
</g></svg>