<?xml version="1.0" encoding="UTF-8"?>
  <!DOCTYPE svg PUBLIC "-//W3C//DTD SVG 1.0//EN" "http://www.w3.org/TR/2001/REC-SVG-20010904/DTD/svg10.dtd" [
  <!ATTLIST g xmlns:kvg CDATA #FIXED "http://kanjivg.tagaini.net" kvg:element CDATA #IMPLIED kvg:variant CDATA #IMPLIED kvg:partial CDATA #IMPLIED kvg:original CDATA #IMPLIED kvg:part CDATA #IMPLIED kvg:number CDATA #IMPLIED kvg:tradForm CDATA #IMPLIED kvg:radicalForm CDATA #IMPLIED kvg:position CDATA #IMPLIED kvg:radical CDATA #IMPLIED kvg:phon CDATA #IMPLIED >
  <!ATTLIST path xmlns:kvg CDATA #FIXED "http://kanjivg.tagaini.net" kvg:type CDATA #IMPLIED >
  ]>
  <svg xmlns="http://www.w3.org/2000/svg" width="109" height="109" viewBox="0 0 109 109">
<g id="kvg:StrokePaths_07fa9" style="fill:none;stroke:#000000;stroke-width:3;stroke-linecap:round;stroke-linejoin:round;">
<g id="kvg:07fa9" kvg:element="義">
	<g id="kvg:07fa9-g1" kvg:element="羊" kvg:variant="true" kvg:position="top" kvg:radical="general">
		<g id="kvg:07fa9-g2" kvg:element="䒑">
			<path style="fill:none;stroke:#808080" id="kvg:07fa9-s1" kvg:type="㇔" d="M34.53,11.15c3.36,1.79,8.68,7.35,9.52,10.13"/>
			<path style="fill:none;stroke:#808080" id="kvg:07fa9-s2" kvg:type="㇒" d="M66.87,9.64c0.12,0.61,0.02,1.43-0.25,1.96c-1.75,3.4-4.38,6.51-8.92,10.68"/>
			<path style="fill:none;stroke:#808080" id="kvg:07fa9-s3" kvg:type="㇐" d="M31,26.78c2,0.47,4.55,0.36,6.51,0.17c8.24-0.79,26.18-2.79,34.75-3.39c1.96-0.14,4.78-0.35,6.71,0.07"/>
		</g>
		<path style="fill:none;stroke:#808080" id="kvg:07fa9-s4" kvg:type="㇑a" d="M53.1,27.44c0.79,0.79,1.11,1.93,1.11,3.31c0,3.37-0.18,9.12-0.18,14.49"/>
		<path style="fill:none;stroke:#808080" id="kvg:07fa9-s5" kvg:type="㇐" d="M34.86,37.2c2.01,0.42,4.43,0.06,6.4-0.16c7.81-0.87,20.85-2.51,27.87-2.95c1.84-0.12,3.76-0.27,5.58,0.12"/>
		<path style="fill:none;stroke:#808080" id="kvg:07fa9-s6" kvg:type="㇐" d="M24.75,47.52c2.44,0.77,5.61,0.4,8.12,0.15c9.29-0.91,31.49-2.93,44.01-3.79c2.98-0.2,6.17-0.32,9.11,0.24"/>
	</g>
	<g id="kvg:07fa9-g3" kvg:element="我" kvg:position="bottom" kvg:phon="我">
		<g id="kvg:07fa9-g4" kvg:element="丿">
			<path style="fill:none;stroke:#808080" id="kvg:07fa9-s7" kvg:type="㇒" d="M43.76,50.91c-0.01,0.96-0.66,1.78-1.44,2.29c-3.69,2.42-8.81,4.42-17.76,7.66"/>
		</g>
		<g id="kvg:07fa9-g5" kvg:element="戈" kvg:part="1">
			<g id="kvg:07fa9-g6" kvg:element="弋" kvg:part="1">
				<path style="fill:none;stroke-width:4;" id="kvg:07fa9-s8" kvg:type="㇐" d="M17,68.51c4.25,0.74,7.82,0.35,11.52-0.15c13.73-1.86,37.73-4.61,54.74-5.77c3.52-0.24,7-0.19,10.5,0.44"/>
<circle cx="17" cy="68.51" r="5" style="fill:red;stroke:red;" />
			</g>
		</g>
		<g id="kvg:07fa9-g7" kvg:element="亅">
		</g>
		<g id="kvg:07fa9-g8" kvg:element="戈" kvg:part="2">
			<g id="kvg:07fa9-g9" kvg:element="丿">
			</g>
			<g id="kvg:07fa9-g10" kvg:element="弋" kvg:part="2">
				<g id="kvg:07fa9-g11" kvg:element="丶">
				</g>
			</g>
		</g>
	</g>
</g>
</g></svg>