<?xml version="1.0" encoding="UTF-8"?>
  <!DOCTYPE svg PUBLIC "-//W3C//DTD SVG 1.0//EN" "http://www.w3.org/TR/2001/REC-SVG-20010904/DTD/svg10.dtd" [
  <!ATTLIST g xmlns:kvg CDATA #FIXED "http://kanjivg.tagaini.net" kvg:element CDATA #IMPLIED kvg:variant CDATA #IMPLIED kvg:partial CDATA #IMPLIED kvg:original CDATA #IMPLIED kvg:part CDATA #IMPLIED kvg:number CDATA #IMPLIED kvg:tradForm CDATA #IMPLIED kvg:radicalForm CDATA #IMPLIED kvg:position CDATA #IMPLIED kvg:radical CDATA #IMPLIED kvg:phon CDATA #IMPLIED >
  <!ATTLIST path xmlns:kvg CDATA #FIXED "http://kanjivg.tagaini.net" kvg:type CDATA #IMPLIED >
  ]>
  <svg xmlns="http://www.w3.org/2000/svg" width="109" height="109" viewBox="0 0 109 109">
<g id="kvg:StrokePaths_07fcc" style="fill:none;stroke:#000000;stroke-width:3;stroke-linecap:round;stroke-linejoin:round;">
<g id="kvg:07fcc" kvg:element="翌">
	<g id="kvg:07fcc-g1" kvg:element="羽" kvg:position="top" kvg:radical="general" kvg:phon="翼T">
		<g id="kvg:07fcc-g2" kvg:position="left">
			<path style="fill:none;stroke:#808080" id="kvg:07fcc-s1" kvg:type="㇆" d="M18.23,20c1.77,1,3.22,1,5.76,0.59c5.16-0.84,13.96-2.41,15.54-2.6c2.85-0.36,4.18,0.39,4.18,2.8c0,4.35,0.03,18.56,0.03,29.32c0,8.19-5.62,0.96-6.27,0.29"/>
			<path style="fill:none;stroke:#808080" id="kvg:07fcc-s2" kvg:type="㇔" d="M21.88,27.75c3.02,1.1,7.79,4.51,8.55,6.22"/>
			<path style="fill:none;stroke:#808080" id="kvg:07fcc-s3" kvg:type="㇀" d="M17.19,48.81c1.25,0.62,2.41,0.72,3.74-0.07c1.05-0.63,9.46-6.21,13.9-9.23"/>
		</g>
		<g id="kvg:07fcc-g3" kvg:position="right">
			<path style="fill:none;stroke:#808080" id="kvg:07fcc-s4" kvg:type="㇆" d="M57.08,17c1.55,0.62,3.22,0.75,5.76,0.34c5.17-0.84,16.2-3.25,17.75-3.6c2.67-0.61,4.18,1.14,4.18,2.8c0,3.26-0.01,22.25-0.01,32.29c0,7.22-6.1,0.89-6.81,0.27"/>
			<path style="fill:none;stroke-width:4;" id="kvg:07fcc-s5" kvg:type="㇔" d="M61.05,25.08c2.81,1.08,7.25,4.45,7.95,6.13"/>
<circle cx="61.05" cy="25.08" r="5" style="fill:red;stroke:red;" />
		</g>
	</g>
	<g id="kvg:07fcc-g4" kvg:element="立" kvg:position="bottom">
		<g id="kvg:07fcc-g5" kvg:element="亠" kvg:position="top">
		</g>
		<g id="kvg:07fcc-g6" kvg:position="bottom">
		</g>
	</g>
</g>
</g></svg>