<?xml version="1.0" encoding="UTF-8"?>
  <!DOCTYPE svg PUBLIC "-//W3C//DTD SVG 1.0//EN" "http://www.w3.org/TR/2001/REC-SVG-20010904/DTD/svg10.dtd" [
  <!ATTLIST g xmlns:kvg CDATA #FIXED "http://kanjivg.tagaini.net" kvg:element CDATA #IMPLIED kvg:variant CDATA #IMPLIED kvg:partial CDATA #IMPLIED kvg:original CDATA #IMPLIED kvg:part CDATA #IMPLIED kvg:number CDATA #IMPLIED kvg:tradForm CDATA #IMPLIED kvg:radicalForm CDATA #IMPLIED kvg:position CDATA #IMPLIED kvg:radical CDATA #IMPLIED kvg:phon CDATA #IMPLIED >
  <!ATTLIST path xmlns:kvg CDATA #FIXED "http://kanjivg.tagaini.net" kvg:type CDATA #IMPLIED >
  ]>
  <svg xmlns="http://www.w3.org/2000/svg" width="109" height="109" viewBox="0 0 109 109">
<g id="kvg:StrokePaths_0805e" style="fill:none;stroke:#000000;stroke-width:3;stroke-linecap:round;stroke-linejoin:round;">
<g id="kvg:0805e" kvg:element="聞">
	<g id="kvg:0805e-g1" kvg:element="門" kvg:position="kamae" kvg:radical="nelson" kvg:phon="門">
		<g id="kvg:0805e-g2" kvg:position="left">
			<path style="fill:none;stroke:#808080" id="kvg:0805e-s1" kvg:type="㇑" d="M16.14,17.97c0.94,0.94,1.51,2.16,1.51,3.25c0,0.77-0.03,48.45-0.18,66.29c-0.03,3.16-0.05,5.37-0.07,6.21"/>
			<path style="fill:none;stroke:#808080" id="kvg:0805e-s2" kvg:type="㇕a" d="M19.01,19.6c6.86-1.22,18.49-3.1,21.08-3.39c1.9-0.21,3.03,0.79,3,2.46c-0.04,1.84-0.59,10.46-1.44,20.02c-0.09,1.04-0.15,2-0.15,2.69"/>
			<path style="fill:none;stroke:#808080" id="kvg:0805e-s3" kvg:type="㇐a" d="M18.81,30.43c6.94-1.05,15.82-2.55,22.41-2.9"/>
			<path style="fill:none;stroke:#808080" id="kvg:0805e-s4" kvg:type="㇐a" d="M17.86,42.57C26.25,41.25,33,40,40.42,39.4"/>
		</g>
		<g id="kvg:0805e-g3" kvg:position="right">
			<path style="fill:none;stroke-width:4;" id="kvg:0805e-s5" kvg:type="㇑" d="M66.21,14.22c0.66,0.66,1.17,1.78,1.17,2.93c0,0.56,0.12,13.19,0.17,19.1c0.02,1.71,0.03,2.83,0.03,2.91"/>
<circle cx="66.21" cy="14.22" r="5" style="fill:red;stroke:red;" />
		</g>
	</g>
	<g id="kvg:0805e-g4" kvg:element="耳" kvg:radical="tradit">
	</g>
</g>
</g></svg>