<?xml version="1.0" encoding="UTF-8"?>
  <!DOCTYPE svg PUBLIC "-//W3C//DTD SVG 1.0//EN" "http://www.w3.org/TR/2001/REC-SVG-20010904/DTD/svg10.dtd" [
  <!ATTLIST g xmlns:kvg CDATA #FIXED "http://kanjivg.tagaini.net" kvg:element CDATA #IMPLIED kvg:variant CDATA #IMPLIED kvg:partial CDATA #IMPLIED kvg:original CDATA #IMPLIED kvg:part CDATA #IMPLIED kvg:number CDATA #IMPLIED kvg:tradForm CDATA #IMPLIED kvg:radicalForm CDATA #IMPLIED kvg:position CDATA #IMPLIED kvg:radical CDATA #IMPLIED kvg:phon CDATA #IMPLIED >
  <!ATTLIST path xmlns:kvg CDATA #FIXED "http://kanjivg.tagaini.net" kvg:type CDATA #IMPLIED >
  ]>
  <svg xmlns="http://www.w3.org/2000/svg" width="109" height="109" viewBox="0 0 109 109">
<g id="kvg:StrokePaths_08056" style="fill:none;stroke:#000000;stroke-width:3;stroke-linecap:round;stroke-linejoin:round;">
<g id="kvg:08056" kvg:element="聖">
	<g id="kvg:08056-g1" kvg:position="top">
		<g id="kvg:08056-g2" kvg:element="耳" kvg:position="left" kvg:radical="tradit">
			<path style="fill:none;stroke:#808080" id="kvg:08056-s1" kvg:type="㇐" d="M16.69,18.5c1.76,0.56,4.46,0.5,6.32,0.25c8.37-1.12,18.24-3.02,26.1-3.78c2.2-0.21,4.5-0.2,6.64,0.2"/>
			<path style="fill:none;stroke:#808080" id="kvg:08056-s2" kvg:type="㇑a" d="M25.93,22.07c0.88,0.88,1.03,2.33,1.03,3.72c0,3.96-0.08,21.38-0.08,27.84"/>
			<path style="fill:none;stroke:#808080" id="kvg:08056-s3" kvg:type="㇐a" d="M28.05,29.73c7.57-1.48,12.57-2.11,19.33-3.08"/>
			<path style="fill:none;stroke:#808080" id="kvg:08056-s4" kvg:type="㇐a" d="M27.74,41.7C34,40.5,40.62,39,48.41,37.9"/>
			<path style="fill:none;stroke:#808080" id="kvg:08056-s5" kvg:type="㇀" d="M14,57.39c1,0.86,2.41,0.97,3.45,0.63c6.43-2.14,17.68-5.64,29.43-9.67"/>
			<path style="fill:none;stroke-width:4;" id="kvg:08056-s6" kvg:type="㇑" d="M47.75,18.5c0.62,0.62,1.1,1.71,1.1,3.1c0,1.22-0.13,18.68-0.1,30.65c0,1.62,0.01,3.14,0.01,4.5"/>
<circle cx="47.75" cy="18.5" r="5" style="fill:red;stroke:red;" />
		</g>
		<g id="kvg:08056-g3" kvg:element="口" kvg:position="right" kvg:phon="呈1">
		</g>
	</g>
	<g id="kvg:08056-g4" kvg:element="王" kvg:original="玉" kvg:partial="true" kvg:position="bottom" kvg:radical="nelson" kvg:phon="呈2">
	</g>
</g>
</g></svg>