<?xml version="1.0" encoding="UTF-8"?>
  <!DOCTYPE svg PUBLIC "-//W3C//DTD SVG 1.0//EN" "http://www.w3.org/TR/2001/REC-SVG-20010904/DTD/svg10.dtd" [
  <!ATTLIST g xmlns:kvg CDATA #FIXED "http://kanjivg.tagaini.net" kvg:element CDATA #IMPLIED kvg:variant CDATA #IMPLIED kvg:partial CDATA #IMPLIED kvg:original CDATA #IMPLIED kvg:part CDATA #IMPLIED kvg:number CDATA #IMPLIED kvg:tradForm CDATA #IMPLIED kvg:radicalForm CDATA #IMPLIED kvg:position CDATA #IMPLIED kvg:radical CDATA #IMPLIED kvg:phon CDATA #IMPLIED >
  <!ATTLIST path xmlns:kvg CDATA #FIXED "http://kanjivg.tagaini.net" kvg:type CDATA #IMPLIED >
  ]>
  <svg xmlns="http://www.w3.org/2000/svg" width="109" height="109" viewBox="0 0 109 109">
<g id="kvg:StrokePaths_080ba" style="fill:none;stroke:#000000;stroke-width:3;stroke-linecap:round;stroke-linejoin:round;">
<g id="kvg:080ba" kvg:element="肺">
	<g id="kvg:080ba-g1" kvg:element="月" kvg:variant="true" kvg:original="肉" kvg:position="left" kvg:radical="general">
		<path style="fill:none;stroke:#808080" id="kvg:080ba-s1" kvg:type="㇓" d="M19.57,17.76c0.52,0.96,0.77,2.14,0.78,3.09C20.75,57,19.5,74.38,11,90.87"/>
		<path style="fill:none;stroke:#808080" id="kvg:080ba-s2" kvg:type="㇆a" d="M21.38,19.84c4.87-0.84,12.43-2.37,13.97-2.5c2.75-0.23,3.44,1.32,3.44,2.7c0,3.27-0.02,46.09-0.02,64.67c0,11.37-5.8,3.6-7.56,2.07"/>
		<path style="fill:none;stroke:#808080" id="kvg:080ba-s3" kvg:type="㇐a" d="M21.38,40.01c5.49-0.88,10.37-1.63,16.77-1.85"/>
		<path style="fill:none;stroke:#808080" id="kvg:080ba-s4" kvg:type="㇐a" d="M20.83,57.45c5.05-0.57,12.18-1.04,17.23-1.47"/>
	</g>
	<g id="kvg:080ba-g2" kvg:element="市" kvg:position="right" kvg:phon="朮V/市">
		<g id="kvg:080ba-g3" kvg:element="亠" kvg:position="top">
			<path style="fill:none;stroke:#808080" id="kvg:080ba-s5" kvg:type="㇑a" d="M69.38,12.75c1.12,1.12,1.52,2.5,1.52,4.16c0,3.34-0.1,6.09-0.1,8.4"/>
			<path style="fill:none;stroke-width:4;" id="kvg:080ba-s6" kvg:type="㇐" d="M46,28.61c2.64,0.28,5.26,0.19,7.88-0.08c9.31-0.97,27.06-2.87,37-3.44c2.18-0.12,4.75-0.21,6.63,0.32"/>
<circle cx="46" cy="28.61" r="5" style="fill:red;stroke:red;" />
		</g>
		<g id="kvg:080ba-g4" kvg:element="巾" kvg:position="bottom">
		</g>
	</g>
</g>
</g></svg>