<?xml version="1.0" encoding="UTF-8"?>
  <!DOCTYPE svg PUBLIC "-//W3C//DTD SVG 1.0//EN" "http://www.w3.org/TR/2001/REC-SVG-20010904/DTD/svg10.dtd" [
  <!ATTLIST g xmlns:kvg CDATA #FIXED "http://kanjivg.tagaini.net" kvg:element CDATA #IMPLIED kvg:variant CDATA #IMPLIED kvg:partial CDATA #IMPLIED kvg:original CDATA #IMPLIED kvg:part CDATA #IMPLIED kvg:number CDATA #IMPLIED kvg:tradForm CDATA #IMPLIED kvg:radicalForm CDATA #IMPLIED kvg:position CDATA #IMPLIED kvg:radical CDATA #IMPLIED kvg:phon CDATA #IMPLIED >
  <!ATTLIST path xmlns:kvg CDATA #FIXED "http://kanjivg.tagaini.net" kvg:type CDATA #IMPLIED >
  ]>
  <svg xmlns="http://www.w3.org/2000/svg" width="109" height="109" viewBox="0 0 109 109">
<g id="kvg:StrokePaths_080c3" style="fill:none;stroke:#000000;stroke-width:3;stroke-linecap:round;stroke-linejoin:round;">
<g id="kvg:080c3" kvg:element="胃">
	<g id="kvg:080c3-g1" kvg:element="田" kvg:position="top" kvg:radical="nelson">
		<path style="fill:none;stroke:#808080" id="kvg:080c3-s1" kvg:type="㇑" d="M23.43,14.17c0.83,0.83,1.55,2.08,1.68,2.75c1.35,7.15,2.48,15.22,4.13,24.83c0.21,1.24,0.44,2.51,0.67,3.81"/>
		<path style="fill:none;stroke:#808080" id="kvg:080c3-s2" kvg:type="㇕a" d="M25.97,16.4C43,14.5,65,12.24,79.19,11.77c4.44-0.15,6.65,1.27,5.92,5.37c-0.82,4.62-2.3,10.93-4.31,19.12c-0.28,1.15-0.57,2.34-0.88,3.56"/>
		<path style="fill:none;stroke:#808080" id="kvg:080c3-s3" kvg:type="㇑a" d="M52.72,14.58c1.17,1.17,1.65,2.63,1.65,4.38c0,8.04-0.12,12.07-0.12,20.54"/>
		<path style="fill:none;stroke:#808080" id="kvg:080c3-s4" kvg:type="㇐a" d="M28.45,29.52c10.43-1.15,42.68-4.27,53.66-4.72"/>
		<path style="fill:none;stroke-width:4;" id="kvg:080c3-s5" kvg:type="㇐a" d="M30.45,42.39c14.18-1.26,33.4-3.15,48.61-3.92"/>
<circle cx="30.45" cy="42.39" r="5" style="fill:red;stroke:red;" />
	</g>
	<g id="kvg:080c3-g2" kvg:element="月" kvg:original="肉" kvg:position="bottom" kvg:radical="tradit">
	</g>
</g>
</g></svg>