<?xml version="1.0" encoding="UTF-8"?>
  <!DOCTYPE svg PUBLIC "-//W3C//DTD SVG 1.0//EN" "http://www.w3.org/TR/2001/REC-SVG-20010904/DTD/svg10.dtd" [
  <!ATTLIST g xmlns:kvg CDATA #FIXED "http://kanjivg.tagaini.net" kvg:element CDATA #IMPLIED kvg:variant CDATA #IMPLIED kvg:partial CDATA #IMPLIED kvg:original CDATA #IMPLIED kvg:part CDATA #IMPLIED kvg:number CDATA #IMPLIED kvg:tradForm CDATA #IMPLIED kvg:radicalForm CDATA #IMPLIED kvg:position CDATA #IMPLIED kvg:radical CDATA #IMPLIED kvg:phon CDATA #IMPLIED >
  <!ATTLIST path xmlns:kvg CDATA #FIXED "http://kanjivg.tagaini.net" kvg:type CDATA #IMPLIED >
  ]>
  <svg xmlns="http://www.w3.org/2000/svg" width="109" height="109" viewBox="0 0 109 109">
<g id="kvg:StrokePaths_080fd" style="fill:none;stroke:#000000;stroke-width:3;stroke-linecap:round;stroke-linejoin:round;">
<g id="kvg:080fd" kvg:element="能">
	<g id="kvg:080fd-g1" kvg:position="left">
		<g id="kvg:080fd-g2" kvg:element="厶" kvg:position="top" kvg:radical="nelson">
			<path style="fill:none;stroke:#808080" id="kvg:080fd-s1" kvg:type="㇜" d="M32.94,13.25c0.43,0.88,0.15,1.93-0.15,2.5C29.12,22.62,24.38,29,19.31,35.48c-1.41,1.8-1.28,2.92,0.97,2.44c6.6-1.42,17.98-3.79,26.78-5.6"/>
			<path style="fill:none;stroke:#808080" id="kvg:080fd-s2" kvg:type="㇔" d="M41.97,24.63c3.12,2.53,8.06,10.4,8.84,14.33"/>
		</g>
		<g id="kvg:080fd-g3" kvg:element="月" kvg:original="肉" kvg:position="bottom" kvg:radical="tradit">
			<path style="fill:none;stroke:#808080" id="kvg:080fd-s3" kvg:type="㇑" d="M21.83,46.65c0.83,0.83,1.17,2.1,1.19,3.43c0.04,2.91-0.18,29.86-0.14,40.92c0.01,3.16,0.03,5.02,0.04,4.66"/>
			<path style="fill:none;stroke:#808080" id="kvg:080fd-s4" kvg:type="㇆a" d="M24.21,48.79C26.1,48.63,42.9,46,44.28,45.73c1.84-0.36,3.14,1.14,3.14,3.31c0,0.98,0.03,27.46,0.03,40.98c0,8.37-5.02,3.15-6.59,1.7"/>
			<path style="fill:none;stroke-width:4;" id="kvg:080fd-s5" kvg:type="㇐a" d="M24.21,61.18c6.44-0.96,16.46-1.66,22.11-2.14"/>
<circle cx="24.21" cy="61.18" r="5" style="fill:red;stroke:red;" />
		</g>
	</g>
	<g id="kvg:080fd-g4" kvg:position="right">
		<g id="kvg:080fd-g5" kvg:element="匕" kvg:position="top">
		</g>
		<g id="kvg:080fd-g6" kvg:element="匕" kvg:position="bottom">
		</g>
	</g>
</g>
</g></svg>