<?xml version="1.0" encoding="UTF-8"?>
  <!DOCTYPE svg PUBLIC "-//W3C//DTD SVG 1.0//EN" "http://www.w3.org/TR/2001/REC-SVG-20010904/DTD/svg10.dtd" [
  <!ATTLIST g xmlns:kvg CDATA #FIXED "http://kanjivg.tagaini.net" kvg:element CDATA #IMPLIED kvg:variant CDATA #IMPLIED kvg:partial CDATA #IMPLIED kvg:original CDATA #IMPLIED kvg:part CDATA #IMPLIED kvg:number CDATA #IMPLIED kvg:tradForm CDATA #IMPLIED kvg:radicalForm CDATA #IMPLIED kvg:position CDATA #IMPLIED kvg:radical CDATA #IMPLIED kvg:phon CDATA #IMPLIED >
  <!ATTLIST path xmlns:kvg CDATA #FIXED "http://kanjivg.tagaini.net" kvg:type CDATA #IMPLIED >
  ]>
  <svg xmlns="http://www.w3.org/2000/svg" width="109" height="109" viewBox="0 0 109 109">
<g id="kvg:StrokePaths_08108" style="fill:none;stroke:#000000;stroke-width:3;stroke-linecap:round;stroke-linejoin:round;">
<g id="kvg:08108" kvg:element="脈">
	<g id="kvg:08108-g1" kvg:element="月" kvg:variant="true" kvg:original="肉" kvg:position="left" kvg:radical="general">
		<path style="fill:none;stroke:#808080" id="kvg:08108-s1" kvg:type="㇓" d="M16,20c0.88,0.88,1.24,2.25,1.25,3.25C17.62,58.62,17.5,71.62,10,92"/>
		<path style="fill:none;stroke:#808080" id="kvg:08108-s2" kvg:type="㇆a" d="M18.25,22.5c3.53-0.73,9.19-2.11,12.25-2.88c3.14-0.78,4.54-0.09,4.46,3.25C34.78,30.92,35,66.12,35,85.25c0,13-6,4.5-8.5,2.25"/>
		<path style="fill:none;stroke:#808080" id="kvg:08108-s3" kvg:type="㇐a" d="M18.5,41.75c3.75-0.5,9.5-1.5,15.25-2"/>
		<path style="fill:none;stroke:#808080" id="kvg:08108-s4" kvg:type="㇐a" d="M18.25,59.25c5-0.5,10.25-1.25,15.5-1.5"/>
	</g>
	<g id="kvg:08108-g2" kvg:element="𠂢" kvg:position="right" kvg:phon="𠂢">
		<path style="fill:none;stroke:#808080" id="kvg:08108-s5" kvg:type="㇒" d="M71.32,13.25c0.05,0.5-0.23,1.46-0.6,1.99C66.07,21.9,61.62,26.41,51.75,34"/>
		<g id="kvg:08108-g3" kvg:element="丿">
			<path style="fill:none;stroke-width:4;" id="kvg:08108-s6" kvg:type="㇒" d="M48.74,34.78c0.99,0.99,1.42,2.3,1.42,4.26c0,17.91,2.09,38.45-10.35,51.7"/>
<circle cx="48.74" cy="34.78" r="5" style="fill:red;stroke:red;" />
		</g>
		<g id="kvg:08108-g4" kvg:element="亻" kvg:variant="true" kvg:original="人">
		</g>
	</g>
</g>
</g></svg>