<?xml version="1.0" encoding="UTF-8"?>
  <!DOCTYPE svg PUBLIC "-//W3C//DTD SVG 1.0//EN" "http://www.w3.org/TR/2001/REC-SVG-20010904/DTD/svg10.dtd" [
  <!ATTLIST g xmlns:kvg CDATA #FIXED "http://kanjivg.tagaini.net" kvg:element CDATA #IMPLIED kvg:variant CDATA #IMPLIED kvg:partial CDATA #IMPLIED kvg:original CDATA #IMPLIED kvg:part CDATA #IMPLIED kvg:number CDATA #IMPLIED kvg:tradForm CDATA #IMPLIED kvg:radicalForm CDATA #IMPLIED kvg:position CDATA #IMPLIED kvg:radical CDATA #IMPLIED kvg:phon CDATA #IMPLIED >
  <!ATTLIST path xmlns:kvg CDATA #FIXED "http://kanjivg.tagaini.net" kvg:type CDATA #IMPLIED >
  ]>
  <svg xmlns="http://www.w3.org/2000/svg" width="109" height="109" viewBox="0 0 109 109">
<g id="kvg:StrokePaths_08178" style="fill:none;stroke:#000000;stroke-width:3;stroke-linecap:round;stroke-linejoin:round;">
<g id="kvg:08178" kvg:element="腸">
	<g id="kvg:08178-g1" kvg:element="月" kvg:variant="true" kvg:original="肉" kvg:position="left" kvg:radical="general">
		<path style="fill:none;stroke:#808080" id="kvg:08178-s1" kvg:type="㇓" d="M20,18.75c1,1,1.46,2.22,1.5,3.25c1.12,32.62-2,58.88-11,70"/>
		<path style="fill:none;stroke:#808080" id="kvg:08178-s2" kvg:type="㇆a" d="M22.25,20c4.25-0.88,10.27-2.72,12.5-3c4-0.5,4.5,1.67,4.5,3.25C39.25,27,39,65.5,39,85.75C39,96.5,34.75,91,32,88"/>
		<path style="fill:none;stroke:#808080" id="kvg:08178-s3" kvg:type="㇐a" d="M22.75,39.25c4.5-0.5,9-1.25,15.25-2"/>
		<path style="fill:none;stroke:#808080" id="kvg:08178-s4" kvg:type="㇐a" d="M21.75,58.25c5.25-0.5,9.62-1.25,16-1.75"/>
	</g>
	<g id="kvg:08178-g2" kvg:element="昜" kvg:position="right" kvg:phon="昜">
		<g id="kvg:08178-g3" kvg:element="旦" kvg:position="top">
			<g id="kvg:08178-g4" kvg:element="日">
				<path style="fill:none;stroke:#808080" id="kvg:08178-s5" kvg:type="㇑" d="M53.36,15.8c0.73,0.73,1.32,1.57,1.51,2.78c0.88,5.73,1.58,11.71,2.52,20.17c0.13,1.2,0.27,2.44,0.42,3.75"/>
				<path style="fill:none;stroke:#808080" id="kvg:08178-s6" kvg:type="㇕a" d="M55.24,16.56c4.53-0.76,16.84-2.63,23.64-3.4c3.59-0.41,4.67,0.68,4.33,4.23c-0.55,5.89-1.31,13.17-2.28,18.67c-0.25,1.41-0.51,2.7-0.78,3.82"/>
				<path style="fill:none;stroke-width:4;" id="kvg:08178-s7" kvg:type="㇐a" d="M57.22,28.05c4.28-0.67,20.16-2.67,24.16-2.74"/>
<circle cx="57.22" cy="28.05" r="5" style="fill:red;stroke:red;" />
			</g>
			<g id="kvg:08178-g5" kvg:element="一">
			</g>
		</g>
		<g id="kvg:08178-g6" kvg:element="勿" kvg:position="bottom">
			<g id="kvg:08178-g7" kvg:element="勹">
			</g>
		</g>
	</g>
</g>
</g></svg>