<?xml version="1.0" encoding="UTF-8"?>
  <!DOCTYPE svg PUBLIC "-//W3C//DTD SVG 1.0//EN" "http://www.w3.org/TR/2001/REC-SVG-20010904/DTD/svg10.dtd" [
  <!ATTLIST g xmlns:kvg CDATA #FIXED "http://kanjivg.tagaini.net" kvg:element CDATA #IMPLIED kvg:variant CDATA #IMPLIED kvg:partial CDATA #IMPLIED kvg:original CDATA #IMPLIED kvg:part CDATA #IMPLIED kvg:number CDATA #IMPLIED kvg:tradForm CDATA #IMPLIED kvg:radicalForm CDATA #IMPLIED kvg:position CDATA #IMPLIED kvg:radical CDATA #IMPLIED kvg:phon CDATA #IMPLIED >
  <!ATTLIST path xmlns:kvg CDATA #FIXED "http://kanjivg.tagaini.net" kvg:type CDATA #IMPLIED >
  ]>
  <svg xmlns="http://www.w3.org/2000/svg" width="109" height="109" viewBox="0 0 109 109">
<g id="kvg:StrokePaths_08179" style="fill:none;stroke:#000000;stroke-width:3;stroke-linecap:round;stroke-linejoin:round;">
<g id="kvg:08179" kvg:element="腹">
	<g id="kvg:08179-g1" kvg:element="月" kvg:variant="true" kvg:original="肉" kvg:position="left" kvg:radical="general">
		<path style="fill:none;stroke:#808080" id="kvg:08179-s1" kvg:type="㇓" d="M17.42,22.99c0.73,0.73,1.09,1.87,1.11,2.81C19.25,60.25,16.5,81.5,8.5,93.88"/>
		<path style="fill:none;stroke:#808080" id="kvg:08179-s2" kvg:type="㇆a" d="M19.38,24.07c4.5-0.82,13.58-2.84,15.22-2.97c2.95-0.23,3.69,0.9,3.69,3.43c0,3.24-0.05,44.37-0.05,62.76c0,11.26-6.22,3.57-8.1,2.05"/>
		<path style="fill:none;stroke:#808080" id="kvg:08179-s3" kvg:type="㇐a" d="M19.63,42.03c6-0.78,11.87-1.78,17.73-2.33"/>
		<path style="fill:none;stroke:#808080" id="kvg:08179-s4" kvg:type="㇐a" d="M18.57,61.04c5.43-0.79,13.25-2.28,18.67-2.7"/>
	</g>
	<g id="kvg:08179-g2" kvg:element="复" kvg:position="right" kvg:phon="复">
		<g id="kvg:08179-g3" kvg:element="𠂉">
			<path style="fill:none;stroke:#808080" id="kvg:08179-s5" kvg:type="㇒" d="M56.36,12.5c0.07,1.15-0.01,1.98-0.43,3.06c-2.55,6.56-5.49,11.3-10.93,17.73"/>
			<path style="fill:none;stroke-width:4;" id="kvg:08179-s6" kvg:type="㇐" d="M57.25,21.97c1.75,0.28,2.98-0.01,4.15-0.15c5.16-0.64,16.6-2.29,23.37-3.33c1.44-0.22,3.06-0.16,4.51-0.1"/>
<circle cx="57.25" cy="21.97" r="5" style="fill:red;stroke:red;" />
		</g>
		<g id="kvg:08179-g4" kvg:element="日">
		</g>
		<g id="kvg:08179-g5" kvg:element="夂">
		</g>
	</g>
</g>
</g></svg>