<?xml version="1.0" encoding="UTF-8"?>
  <!DOCTYPE svg PUBLIC "-//W3C//DTD SVG 1.0//EN" "http://www.w3.org/TR/2001/REC-SVG-20010904/DTD/svg10.dtd" [
  <!ATTLIST g xmlns:kvg CDATA #FIXED "http://kanjivg.tagaini.net" kvg:element CDATA #IMPLIED kvg:variant CDATA #IMPLIED kvg:partial CDATA #IMPLIED kvg:original CDATA #IMPLIED kvg:part CDATA #IMPLIED kvg:number CDATA #IMPLIED kvg:tradForm CDATA #IMPLIED kvg:radicalForm CDATA #IMPLIED kvg:position CDATA #IMPLIED kvg:radical CDATA #IMPLIED kvg:phon CDATA #IMPLIED >
  <!ATTLIST path xmlns:kvg CDATA #FIXED "http://kanjivg.tagaini.net" kvg:type CDATA #IMPLIED >
  ]>
  <svg xmlns="http://www.w3.org/2000/svg" width="109" height="109" viewBox="0 0 109 109">
<g id="kvg:StrokePaths_081d3" style="fill:none;stroke:#000000;stroke-width:3;stroke-linecap:round;stroke-linejoin:round;">
<g id="kvg:081d3" kvg:element="臓">
	<g id="kvg:081d3-g1" kvg:element="月" kvg:variant="true" kvg:original="肉" kvg:position="left" kvg:radical="general">
		<path style="fill:none;stroke:#808080" id="kvg:081d3-s1" kvg:type="㇓" d="M16.48,20.05c0.8,0.8,0.9,2.2,0.9,3.17c0,33.53,0.25,51.78-6.88,67.38"/>
		<path style="fill:none;stroke:#808080" id="kvg:081d3-s2" kvg:type="㇆a" d="M18.28,21.67c3.34-0.67,11.14-2.44,12.49-2.57c2.41-0.24,3.01,1.36,3.01,2.78c0,3.37,0.05,59.37,0.05,64.91c0,11.71-5.58,3.71-7.12,2.13"/>
		<path style="fill:none;stroke:#808080" id="kvg:081d3-s3" kvg:type="㇐a" d="M18.28,40.62c4.47-0.74,9.97-1.37,14.2-1.89"/>
		<path style="fill:none;stroke:#808080" id="kvg:081d3-s4" kvg:type="㇐a" d="M17.99,58.08c4.64-0.58,10.51-1.33,14.94-1.77"/>
	</g>
	<g id="kvg:081d3-g2" kvg:element="蔵" kvg:position="right" kvg:phon="蔵">
		<g id="kvg:081d3-g3" kvg:element="艹" kvg:variant="true" kvg:original="艸" kvg:position="top">
			<path style="fill:none;stroke:#808080" id="kvg:081d3-s5" kvg:type="㇐" d="M41,25.57c2.25,0.56,4.39,0.35,6.24,0.16c9.47-1.01,24.02-2.73,37.27-3.86c2.34-0.2,4.75,0.01,7.02,0.35"/>
			<path style="fill:none;stroke:#808080" id="kvg:081d3-s6" kvg:type="㇑a" d="M53.49,15.08c0.84,0.84,1.4,1.61,1.51,2.26c1.06,6.02,2.22,11.73,2.52,13.92"/>
			<path style="fill:none;stroke:#808080" id="kvg:081d3-s7" kvg:type="㇑a" d="M75.35,13c0.4,0.88,0.43,1.94,0.22,2.77c-1.22,4.91-1.78,6.62-3.11,11.24"/>
		</g>
		<g id="kvg:081d3-g4" kvg:position="bottom">
			<g id="kvg:081d3-g5" kvg:element="厂" kvg:part="1" kvg:variant="true">
				<path style="fill:none;stroke:#808080" id="kvg:081d3-s8" kvg:type="㇒" d="M45.03,38.72c0.88,0.88,1.37,1.87,1.33,3.88C46,60.62,45.62,75.5,38.94,92"/>
			</g>
			<g id="kvg:081d3-g6" kvg:element="戈" kvg:part="1">
				<g id="kvg:081d3-g7" kvg:element="弋" kvg:part="1">
					<g id="kvg:081d3-g8" kvg:element="厂" kvg:part="2" kvg:variant="true">
						<path style="fill:none;stroke-width:4;" id="kvg:081d3-s9" kvg:type="㇐" d="M46.08,39.77c1.42,0.48,3.92,0.11,5.78-0.14c8.8-1.19,23.77-2.59,32.26-3.27c1.88-0.15,3.88-0.23,5.7,0.01"/>
<circle cx="46.08" cy="39.77" r="5" style="fill:red;stroke:red;" />
					</g>
					<g id="kvg:081d3-g9" kvg:element="臣">
					</g>
					<g id="kvg:081d3-g10" kvg:element="戈" kvg:part="2">
						<g id="kvg:081d3-g11" kvg:element="弋" kvg:part="2">
						</g>
						<g id="kvg:081d3-g12" kvg:element="丿">
						</g>
						<g id="kvg:081d3-g13" kvg:element="弋" kvg:part="3">
							<g id="kvg:081d3-g14" kvg:element="丶">
							</g>
						</g>
					</g>
				</g>
			</g>
		</g>
	</g>
</g>
</g></svg>