<?xml version="1.0" encoding="UTF-8"?>
  <!DOCTYPE svg PUBLIC "-//W3C//DTD SVG 1.0//EN" "http://www.w3.org/TR/2001/REC-SVG-20010904/DTD/svg10.dtd" [
  <!ATTLIST g xmlns:kvg CDATA #FIXED "http://kanjivg.tagaini.net" kvg:element CDATA #IMPLIED kvg:variant CDATA #IMPLIED kvg:partial CDATA #IMPLIED kvg:original CDATA #IMPLIED kvg:part CDATA #IMPLIED kvg:number CDATA #IMPLIED kvg:tradForm CDATA #IMPLIED kvg:radicalForm CDATA #IMPLIED kvg:position CDATA #IMPLIED kvg:radical CDATA #IMPLIED kvg:phon CDATA #IMPLIED >
  <!ATTLIST path xmlns:kvg CDATA #FIXED "http://kanjivg.tagaini.net" kvg:type CDATA #IMPLIED >
  ]>
  <svg xmlns="http://www.w3.org/2000/svg" width="109" height="109" viewBox="0 0 109 109">
<g id="kvg:StrokePaths_081e8" style="fill:none;stroke:#000000;stroke-width:3;stroke-linecap:round;stroke-linejoin:round;">
<g id="kvg:081e8" kvg:element="臨">
	<g id="kvg:081e8-g1" kvg:element="臣" kvg:position="left" kvg:radical="general">
		<path style="fill:none;stroke:#808080" id="kvg:081e8-s1" kvg:type="㇑" d="M12.63,23.33c0.83,0.84,1.18,1.83,1.18,2.98c0,0.61-0.04,39.05-0.05,59.95c0,2.49,0,4.73,0,6.62"/>
		<path style="fill:none;stroke:#808080" id="kvg:081e8-s2" kvg:type="㇐b" d="M14.67,24.66c6.96-1.28,14.33-2.41,24.21-3.61c0.97-0.12,3.51-0.16,4.54,0.21"/>
		<path style="fill:none;stroke:#808080" id="kvg:081e8-s3" kvg:type="㇑a" d="M28.44,24.59c0.74,0.74,0.93,1.78,0.93,2.73c0,0.85,0.01,9.38,0.01,14.68"/>
		<path style="fill:none;stroke:#808080" id="kvg:081e8-s4" kvg:type="㇕b" d="M15.18,45.49c7.89-1.31,14.93-2.52,22.6-3.79c2.64-0.44,3.84,0.62,3.47,3.38c-0.56,4.15-1.51,8.42-2.69,14.09"/>
		<path style="fill:none;stroke:#808080" id="kvg:081e8-s5" kvg:type="㇐b" d="M15.28,64.04c2.64-0.57,14.43-2.61,21.24-3.69c1.86-0.3,3.11-0.37,3.97-0.37"/>
		<path style="fill:none;stroke:#808080" id="kvg:081e8-s6" kvg:type="㇑a" d="M27.92,63.93c0.76,0.76,0.93,1.94,0.93,2.98c0,2.34-0.09,12.59-0.09,18.09"/>
		<path style="fill:none;stroke:#808080" id="kvg:081e8-s7" kvg:type="㇐b" d="M15.25,87.88c5.5-0.62,13.34-1.94,21-2.84c1.54-0.18,3.75-0.39,5.47-0.39"/>
	</g>
	<g id="kvg:081e8-g2" kvg:position="right">
		<g id="kvg:081e8-g3" kvg:element="𠂉">
			<path style="fill:none;stroke:#808080" id="kvg:081e8-s8" kvg:type="㇒" d="M59.28,13.14c0.32,1.23,0.25,2.25-0.14,3.4c-2.03,5.9-5.75,13.96-10.58,21.67"/>
			<path style="fill:none;stroke-width:4;" id="kvg:081e8-s9" kvg:type="㇐" d="M57,29.64c2.25,0.11,4.24-0.17,6.13-0.46c6.87-1.05,13.49-3.05,20.01-4.43c1.9-0.4,3.46-0.45,5.36,0.01"/>
<circle cx="57" cy="29.64" r="5" style="fill:red;stroke:red;" />
		</g>
		<g id="kvg:081e8-g4" kvg:element="品">
			<g id="kvg:081e8-g5" kvg:element="口" kvg:position="top">
			</g>
			<g id="kvg:081e8-g6" kvg:position="bottom">
				<g id="kvg:081e8-g7" kvg:position="left">
					<g id="kvg:081e8-g8" kvg:element="口">
					</g>
					<g id="kvg:081e8-g9" kvg:element="口" kvg:position="right">
					</g>
				</g>
			</g>
		</g>
	</g>
</g>
</g></svg>