<?xml version="1.0" encoding="UTF-8"?>
  <!DOCTYPE svg PUBLIC "-//W3C//DTD SVG 1.0//EN" "http://www.w3.org/TR/2001/REC-SVG-20010904/DTD/svg10.dtd" [
  <!ATTLIST g xmlns:kvg CDATA #FIXED "http://kanjivg.tagaini.net" kvg:element CDATA #IMPLIED kvg:variant CDATA #IMPLIED kvg:partial CDATA #IMPLIED kvg:original CDATA #IMPLIED kvg:part CDATA #IMPLIED kvg:number CDATA #IMPLIED kvg:tradForm CDATA #IMPLIED kvg:radicalForm CDATA #IMPLIED kvg:position CDATA #IMPLIED kvg:radical CDATA #IMPLIED kvg:phon CDATA #IMPLIED >
  <!ATTLIST path xmlns:kvg CDATA #FIXED "http://kanjivg.tagaini.net" kvg:type CDATA #IMPLIED >
  ]>
  <svg xmlns="http://www.w3.org/2000/svg" width="109" height="109" viewBox="0 0 109 109">
<g id="kvg:StrokePaths_08208" style="fill:none;stroke:#000000;stroke-width:3;stroke-linecap:round;stroke-linejoin:round;">
<g id="kvg:08208" kvg:element="興">
	<g id="kvg:08208-g1" kvg:position="top">
		<g id="kvg:08208-g2" kvg:element="𦥑" kvg:part="1" kvg:variant="true" kvg:original="臼" kvg:tradForm="true" kvg:radical="tradit">
			<path style="fill:none;stroke:#808080" id="kvg:08208-s1" kvg:type="㇒" d="M30.11,20c0.07,0.76-0.26,1.57-0.66,2.17C26.88,26,24.62,28.5,19,32.92"/>
			<path style="fill:none;stroke:#808080" id="kvg:08208-s2" kvg:type="㇑a" d="M16.62,32.75c1.09,0.5,1.74,2.25,1.96,3.25c0.22,1,3.17,24.38,4.67,33.5"/>
			<path style="fill:none;stroke:#808080" id="kvg:08208-s3" kvg:type="㇐b" d="M20.75,42.75c3.68-0.77,7.02-1.66,9.47-2.14c1.13-0.22,2.32-0.36,3.03-0.36"/>
		</g>
		<path style="fill:none;stroke-width:4;" id="kvg:08208-s4" kvg:type="㇐b" d="M22.5,56.5c3.37-0.75,7-2.2,9.64-2.88c0.88-0.23,1.68-0.37,2.36-0.37"/>
<circle cx="22.5" cy="56.5" r="5" style="fill:red;stroke:red;" />
		<g id="kvg:08208-g3" kvg:element="同">
			<g id="kvg:08208-g4" kvg:element="冂">
			</g>
			<g id="kvg:08208-g5" kvg:element="一">
			</g>
			<g id="kvg:08208-g6" kvg:element="口">
			</g>
		</g>
		<g id="kvg:08208-g7" kvg:element="𦥑" kvg:part="2" kvg:variant="true" kvg:original="臼" kvg:tradForm="true" kvg:radical="tradit">
		</g>
		<g id="kvg:08208-g8" kvg:element="𦥑" kvg:part="3" kvg:variant="true" kvg:original="臼" kvg:tradForm="true">
		</g>
	</g>
	<g id="kvg:08208-g9" kvg:element="八" kvg:variant="true" kvg:position="bottom" kvg:radical="nelson">
	</g>
</g>
</g></svg>