<?xml version="1.0" encoding="UTF-8"?>
  <!DOCTYPE svg PUBLIC "-//W3C//DTD SVG 1.0//EN" "http://www.w3.org/TR/2001/REC-SVG-20010904/DTD/svg10.dtd" [
  <!ATTLIST g xmlns:kvg CDATA #FIXED "http://kanjivg.tagaini.net" kvg:element CDATA #IMPLIED kvg:variant CDATA #IMPLIED kvg:partial CDATA #IMPLIED kvg:original CDATA #IMPLIED kvg:part CDATA #IMPLIED kvg:number CDATA #IMPLIED kvg:tradForm CDATA #IMPLIED kvg:radicalForm CDATA #IMPLIED kvg:position CDATA #IMPLIED kvg:radical CDATA #IMPLIED kvg:phon CDATA #IMPLIED >
  <!ATTLIST path xmlns:kvg CDATA #FIXED "http://kanjivg.tagaini.net" kvg:type CDATA #IMPLIED >
  ]>
  <svg xmlns="http://www.w3.org/2000/svg" width="109" height="109" viewBox="0 0 109 109">
<g id="kvg:StrokePaths_08239" style="fill:none;stroke:#000000;stroke-width:3;stroke-linecap:round;stroke-linejoin:round;">
<g id="kvg:08239" kvg:element="船">
	<g id="kvg:08239-g1" kvg:element="舟" kvg:position="left" kvg:radical="general">
		<path style="fill:none;stroke:#808080" id="kvg:08239-s1" kvg:type="㇒" d="M33.2,13.5c0.42,1.12,0.44,2.21,0,3.72c-0.96,3.28-2.46,6.16-4.46,9.78"/>
		<path style="fill:none;stroke:#808080" id="kvg:08239-s2" kvg:type="㇒" d="M19.4,29.72c1.19,1.19,1.69,3,1.75,4.59C22.5,71.5,17.5,87.75,11.5,95"/>
		<path style="fill:none;stroke:#808080" id="kvg:08239-s3" kvg:type="㇆a" d="M22.02,31.15c4.96-0.93,14.89-2.67,17.83-3.09c3.02-0.44,4.1,1.19,4.1,4c0,2.22-0.4,55.71-0.4,58.89c0,7.8-4.05,3.3-6.7,1.02"/>
		<path style="fill:none;stroke:#808080" id="kvg:08239-s4" kvg:type="㇔" d="M30.28,39.52C32.25,42,33,44.5,33.62,46.49"/>
		<path style="fill:none;stroke-width:4;" id="kvg:08239-s5" kvg:type="㇑" d="M30.55,56.64c1.09,1.09,1.7,3.04,1.7,4.31c0,4.3-0.17,10.67-0.17,16.55c0,1.75,0.02,3,0.02,4.41"/>
<circle cx="30.55" cy="56.64" r="5" style="fill:red;stroke:red;" />
	</g>
	<g id="kvg:08239-g2" kvg:element="㕣" kvg:position="right" kvg:phon="㕣">
		<g id="kvg:08239-g3" kvg:element="八">
		</g>
		<g id="kvg:08239-g4" kvg:element="口">
		</g>
	</g>
</g>
</g></svg>