<?xml version="1.0" encoding="UTF-8"?>
  <!DOCTYPE svg PUBLIC "-//W3C//DTD SVG 1.0//EN" "http://www.w3.org/TR/2001/REC-SVG-20010904/DTD/svg10.dtd" [
  <!ATTLIST g xmlns:kvg CDATA #FIXED "http://kanjivg.tagaini.net" kvg:element CDATA #IMPLIED kvg:variant CDATA #IMPLIED kvg:partial CDATA #IMPLIED kvg:original CDATA #IMPLIED kvg:part CDATA #IMPLIED kvg:number CDATA #IMPLIED kvg:tradForm CDATA #IMPLIED kvg:radicalForm CDATA #IMPLIED kvg:position CDATA #IMPLIED kvg:radical CDATA #IMPLIED kvg:phon CDATA #IMPLIED >
  <!ATTLIST path xmlns:kvg CDATA #FIXED "http://kanjivg.tagaini.net" kvg:type CDATA #IMPLIED >
  ]>
  <svg xmlns="http://www.w3.org/2000/svg" width="109" height="109" viewBox="0 0 109 109">
<g id="kvg:StrokePaths_082bd" style="fill:none;stroke:#000000;stroke-width:3;stroke-linecap:round;stroke-linejoin:round;">
<g id="kvg:082bd" kvg:element="芽">
	<g id="kvg:082bd-g1" kvg:element="艹" kvg:variant="true" kvg:original="艸" kvg:position="top" kvg:radical="general">
		<path style="fill:none;stroke:#808080" id="kvg:082bd-s1" kvg:type="㇐" d="M19.75,24.02c3.25,0.48,5.96,0.38,8.76,0.1c13.55-1.31,40.4-4.37,54.62-4.99c2.96-0.13,5.97-0.32,8.88,0.39"/>
		<path style="fill:none;stroke:#808080" id="kvg:082bd-s2" kvg:type="㇑a" d="M37.75,12c1.68,1.37,2.22,1.79,2.4,2.63c1.68,7.88,2.37,15.01,2.85,17.87"/>
		<path style="fill:none;stroke:#808080" id="kvg:082bd-s3" kvg:type="㇑a" d="M68.58,9.5c0.54,1.12,0.75,2.19,0.51,3.39c-1.41,7.01-1.8,10.02-3.34,16.61"/>
	</g>
	<g id="kvg:082bd-g2" kvg:element="牙" kvg:variant="true" kvg:position="bottom" kvg:phon="⽛V">
		<path style="fill:none;stroke:#808080" id="kvg:082bd-s4" kvg:type="㇐" d="M31,40.9c3.12,0.35,5.6,0.02,8.27-0.29c7.48-0.86,23.96-3.23,33.1-4.15c2.33-0.23,4.58-0.35,6.88,0.16"/>
		<path style="fill:none;stroke-width:4;" id="kvg:082bd-s5" kvg:type="㇑a" d="M37.75,42c0.88,0.88,1.25,2.16,1.25,3.25c-0.01,4.98-0.25,12.5-0.25,16"/>
<circle cx="37.75" cy="42" r="5" style="fill:red;stroke:red;" />
		<g id="kvg:082bd-g3" kvg:element="亅">
		</g>
		<g id="kvg:082bd-g4" kvg:element="丿">
		</g>
	</g>
</g>
</g></svg>