<?xml version="1.0" encoding="UTF-8"?>
  <!DOCTYPE svg PUBLIC "-//W3C//DTD SVG 1.0//EN" "http://www.w3.org/TR/2001/REC-SVG-20010904/DTD/svg10.dtd" [
  <!ATTLIST g xmlns:kvg CDATA #FIXED "http://kanjivg.tagaini.net" kvg:element CDATA #IMPLIED kvg:variant CDATA #IMPLIED kvg:partial CDATA #IMPLIED kvg:original CDATA #IMPLIED kvg:part CDATA #IMPLIED kvg:number CDATA #IMPLIED kvg:tradForm CDATA #IMPLIED kvg:radicalForm CDATA #IMPLIED kvg:position CDATA #IMPLIED kvg:radical CDATA #IMPLIED kvg:phon CDATA #IMPLIED >
  <!ATTLIST path xmlns:kvg CDATA #FIXED "http://kanjivg.tagaini.net" kvg:type CDATA #IMPLIED >
  ]>
  <svg xmlns="http://www.w3.org/2000/svg" width="109" height="109" viewBox="0 0 109 109">
<g id="kvg:StrokePaths_082b1" style="fill:none;stroke:#000000;stroke-width:3;stroke-linecap:round;stroke-linejoin:round;">
<g id="kvg:082b1" kvg:element="花">
	<g id="kvg:082b1-g1" kvg:element="艹" kvg:variant="true" kvg:original="艸" kvg:position="top" kvg:radical="general">
		<path style="fill:none;stroke:#808080" id="kvg:082b1-s1" kvg:type="㇐" d="M17,29.77c3,0.73,6.35,0.54,9.37,0.29c16.22-1.35,36.31-4.64,56.76-4.79c2.4-0.02,4.77,0.04,7.12,0.51"/>
		<path style="fill:none;stroke:#808080" id="kvg:082b1-s2" kvg:type="㇑a" d="M32.25,16c1.25,0.5,2.25,1.62,2.5,2.75c1.33,5.97,4.86,19.92,5,20.75"/>
		<path style="fill:none;stroke:#808080" id="kvg:082b1-s3" kvg:type="㇑a" d="M71.25,12.5c0.42,1.18,0.47,3.05,0,4.5c-2.19,6.77-6.14,19.12-6.75,20.75"/>
	</g>
	<g id="kvg:082b1-g2" kvg:element="化" kvg:position="bottom" kvg:phon="化">
		<g id="kvg:082b1-g3" kvg:element="亻" kvg:variant="true" kvg:original="人">
			<path style="fill:none;stroke-width:4;" id="kvg:082b1-s4" kvg:type="㇒" d="M38.25,48.25c0.25,1.75-0.37,3.31-0.98,4.44C33.25,60,24.8,69.67,19.5,74.5"/>
<circle cx="38.25" cy="48.25" r="5" style="fill:red;stroke:red;" />
		</g>
		<g id="kvg:082b1-g4" kvg:element="匕">
		</g>
	</g>
</g>
</g></svg>