<?xml version="1.0" encoding="UTF-8"?>
  <!DOCTYPE svg PUBLIC "-//W3C//DTD SVG 1.0//EN" "http://www.w3.org/TR/2001/REC-SVG-20010904/DTD/svg10.dtd" [
  <!ATTLIST g xmlns:kvg CDATA #FIXED "http://kanjivg.tagaini.net" kvg:element CDATA #IMPLIED kvg:variant CDATA #IMPLIED kvg:partial CDATA #IMPLIED kvg:original CDATA #IMPLIED kvg:part CDATA #IMPLIED kvg:number CDATA #IMPLIED kvg:tradForm CDATA #IMPLIED kvg:radicalForm CDATA #IMPLIED kvg:position CDATA #IMPLIED kvg:radical CDATA #IMPLIED kvg:phon CDATA #IMPLIED >
  <!ATTLIST path xmlns:kvg CDATA #FIXED "http://kanjivg.tagaini.net" kvg:type CDATA #IMPLIED >
  ]>
  <svg xmlns="http://www.w3.org/2000/svg" width="109" height="109" viewBox="0 0 109 109">
<g id="kvg:StrokePaths_082e5" style="fill:none;stroke:#000000;stroke-width:3;stroke-linecap:round;stroke-linejoin:round;">
<g id="kvg:082e5" kvg:element="若">
	<g id="kvg:082e5-g1" kvg:element="艹" kvg:variant="true" kvg:original="艸" kvg:position="top" kvg:radical="general">
		<path style="fill:none;stroke:#808080" id="kvg:082e5-s1" kvg:type="㇐" d="M18.75,28.85c2.88,0.77,6.08,0.66,8.75,0.39c15.87-1.62,38.37-3.62,54.25-4.39c2.88-0.14,6.2-0.02,9,0.66"/>
		<path style="fill:none;stroke:#808080" id="kvg:082e5-s2" kvg:type="㇑a" d="M36.23,15.33c0.91,0.91,1.77,2.17,2.05,3.8c1.43,8.47,3.31,17.05,3.82,20.11"/>
		<path style="fill:none;stroke:#808080" id="kvg:082e5-s3" kvg:type="㇑a" d="M70.16,11.77c0.34,0.98,0.4,2.15,0.08,3.67c-1.84,8.92-2.5,12.19-4.44,21.27"/>
	</g>
	<g id="kvg:082e5-g2" kvg:element="右" kvg:position="bottom">
		<path style="fill:none;stroke:#808080" id="kvg:082e5-s4" kvg:type="㇒" d="M49.75,42.75c0.37,1,0.43,2.33,0.04,3.61C46.5,57.25,38.25,73,24.25,82.75"/>
		<path style="fill:none;stroke-width:4;" id="kvg:082e5-s5" kvg:type="㇐" d="M12,56.9c3.25,0.85,6.39,1.01,9.39,0.66c19.3-2.24,48.36-5.3,63.12-5.99c3.56-0.17,7-0.2,10.49,0.68"/>
<circle cx="12" cy="56.9" r="5" style="fill:red;stroke:red;" />
		<g id="kvg:082e5-g3" kvg:element="口">
		</g>
	</g>
</g>
</g></svg>