<?xml version="1.0" encoding="UTF-8"?>
  <!DOCTYPE svg PUBLIC "-//W3C//DTD SVG 1.0//EN" "http://www.w3.org/TR/2001/REC-SVG-20010904/DTD/svg10.dtd" [
  <!ATTLIST g xmlns:kvg CDATA #FIXED "http://kanjivg.tagaini.net" kvg:element CDATA #IMPLIED kvg:variant CDATA #IMPLIED kvg:partial CDATA #IMPLIED kvg:original CDATA #IMPLIED kvg:part CDATA #IMPLIED kvg:number CDATA #IMPLIED kvg:tradForm CDATA #IMPLIED kvg:radicalForm CDATA #IMPLIED kvg:position CDATA #IMPLIED kvg:radical CDATA #IMPLIED kvg:phon CDATA #IMPLIED >
  <!ATTLIST path xmlns:kvg CDATA #FIXED "http://kanjivg.tagaini.net" kvg:type CDATA #IMPLIED >
  ]>
  <svg xmlns="http://www.w3.org/2000/svg" width="109" height="109" viewBox="0 0 109 109">
<g id="kvg:StrokePaths_082e6" style="fill:none;stroke:#000000;stroke-width:3;stroke-linecap:round;stroke-linejoin:round;">
<g id="kvg:082e6" kvg:element="苦">
	<g id="kvg:082e6-g1" kvg:element="艹" kvg:variant="true" kvg:original="艸" kvg:position="top" kvg:radical="general">
		<path style="fill:none;stroke:#808080" id="kvg:082e6-s1" kvg:type="㇐" d="M19.5,29.65c3.31,0.68,6.61,0.8,9.93,0.43c17.14-1.91,33.6-3.07,52.71-4.02c3.38-0.14,6.75,0.05,10.1,0.58"/>
		<path style="fill:none;stroke:#808080" id="kvg:082e6-s2" kvg:type="㇑a" d="M37.25,15.25c1.06,1.06,1.38,2.25,1.5,3.5C39.53,26.53,40.09,31.42,41,39"/>
		<path style="fill:none;stroke:#808080" id="kvg:082e6-s3" kvg:type="㇑a" d="M71.5,13.75c0.42,1.18,0.6,2.52,0.25,4c-1.5,6.25-2.5,11-4.5,19.5"/>
	</g>
	<g id="kvg:082e6-g2" kvg:element="古" kvg:position="bottom" kvg:phon="古">
		<g id="kvg:082e6-g3" kvg:element="十">
			<path style="fill:none;stroke:#808080" id="kvg:082e6-s4" kvg:type="㇐" d="M15.62,56.19c3.46,0.6,6.92,0.72,10.36,0.27c17-2.22,37.18-3.78,56.63-4.78c3.97-0.2,7.93-0.16,11.89,0.23"/>
			<path style="fill:none;stroke:#808080" id="kvg:082e6-s5" kvg:type="㇑a" d="M52.83,36.75c1.02,1.02,1.56,2.62,1.56,3.71c0,8.42,0.02,21.42,0.02,29.04"/>
		</g>
		<g id="kvg:082e6-g4" kvg:element="口">
			<path style="fill:none;stroke-width:4;" id="kvg:082e6-s6" kvg:type="㇑" d="M33.02,71.09c0.82,0.82,1.42,1.87,1.59,3.02c0.84,5.74,1.9,11.46,2.93,18.62c0.18,1.27,0.36,2.53,0.54,3.78"/>
<circle cx="33.02" cy="71.09" r="5" style="fill:red;stroke:red;" />
		</g>
	</g>
</g>
</g></svg>