<?xml version="1.0" encoding="UTF-8"?>
  <!DOCTYPE svg PUBLIC "-//W3C//DTD SVG 1.0//EN" "http://www.w3.org/TR/2001/REC-SVG-20010904/DTD/svg10.dtd" [
  <!ATTLIST g xmlns:kvg CDATA #FIXED "http://kanjivg.tagaini.net" kvg:element CDATA #IMPLIED kvg:variant CDATA #IMPLIED kvg:partial CDATA #IMPLIED kvg:original CDATA #IMPLIED kvg:part CDATA #IMPLIED kvg:number CDATA #IMPLIED kvg:tradForm CDATA #IMPLIED kvg:radicalForm CDATA #IMPLIED kvg:position CDATA #IMPLIED kvg:radical CDATA #IMPLIED kvg:phon CDATA #IMPLIED >
  <!ATTLIST path xmlns:kvg CDATA #FIXED "http://kanjivg.tagaini.net" kvg:type CDATA #IMPLIED >
  ]>
  <svg xmlns="http://www.w3.org/2000/svg" width="109" height="109" viewBox="0 0 109 109">
<g id="kvg:StrokePaths_08328" style="fill:none;stroke:#000000;stroke-width:3;stroke-linecap:round;stroke-linejoin:round;">
<g id="kvg:08328" kvg:element="茨">
	<g id="kvg:08328-g1" kvg:element="艹" kvg:original="艸" kvg:position="top" kvg:radical="general">
		<path style="fill:none;stroke:#808080" id="kvg:08328-s1" kvg:type="㇐" d="M19,27.77c1.29,0.53,2.8,0.63,4.1,0.53c11.9-0.96,47.4-4.46,61.12-4.53c2.16-0.01,3.45,0.25,4.53,0.51"/>
		<path style="fill:none;stroke:#808080" id="kvg:08328-s2" kvg:type="㇑a" d="M35.25,15.5c1.75,1.43,2.37,1.86,2.5,2.75C39,27,40,34.5,40.5,37.5"/>
		<path style="fill:none;stroke:#808080" id="kvg:08328-s3" kvg:type="㇑a" d="M70.25,12.25c0.42,1.18,0.82,2.01,0.5,3.5c-1.62,7.45-2.75,12-4.5,19.25"/>
	</g>
	<g id="kvg:08328-g2" kvg:element="次" kvg:position="bottom">
		<g id="kvg:08328-g3" kvg:element="冫" kvg:original="二" kvg:position="left">
			<g id="kvg:08328-g4" kvg:position="top">
				<path style="fill:none;stroke:#808080" id="kvg:08328-s4" kvg:type="㇐/㇔" d="M20.27,46.25c0.85,0.3,1.88,0.58,2.98,0.55c2.25-0.05,5.98-0.55,8.02-0.69C33,46,33.25,46,35,46.25"/>
			</g>
			<g id="kvg:08328-g5" kvg:position="bottom">
				<path style="fill:none;stroke-width:4;" id="kvg:08328-s5" kvg:type="㇀" d="M17.52,84.61c1.53,1.29,3.52,1.08,4.59,0c1.04-1.05,7.34-9.35,11.32-14.7"/>
<circle cx="17.52" cy="84.61" r="5" style="fill:red;stroke:red;" />
			</g>
		</g>
		<g id="kvg:08328-g6" kvg:element="欠" kvg:position="right">
		</g>
	</g>
</g>
</g></svg>