<?xml version="1.0" encoding="UTF-8"?>
  <!DOCTYPE svg PUBLIC "-//W3C//DTD SVG 1.0//EN" "http://www.w3.org/TR/2001/REC-SVG-20010904/DTD/svg10.dtd" [
  <!ATTLIST g xmlns:kvg CDATA #FIXED "http://kanjivg.tagaini.net" kvg:element CDATA #IMPLIED kvg:variant CDATA #IMPLIED kvg:partial CDATA #IMPLIED kvg:original CDATA #IMPLIED kvg:part CDATA #IMPLIED kvg:number CDATA #IMPLIED kvg:tradForm CDATA #IMPLIED kvg:radicalForm CDATA #IMPLIED kvg:position CDATA #IMPLIED kvg:radical CDATA #IMPLIED kvg:phon CDATA #IMPLIED >
  <!ATTLIST path xmlns:kvg CDATA #FIXED "http://kanjivg.tagaini.net" kvg:type CDATA #IMPLIED >
  ]>
  <svg xmlns="http://www.w3.org/2000/svg" width="109" height="109" viewBox="0 0 109 109">
<g id="kvg:StrokePaths_08349" style="fill:none;stroke:#000000;stroke-width:3;stroke-linecap:round;stroke-linejoin:round;">
<g id="kvg:08349" kvg:element="草">
	<g id="kvg:08349-g1" kvg:element="艹" kvg:variant="true" kvg:original="艸" kvg:position="top" kvg:radical="general">
		<path style="fill:none;stroke:#808080" id="kvg:08349-s1" kvg:type="㇐" d="M19.62,24.14c2.75,0.7,5.46,0.47,8.25,0.22c14.47-1.31,38.06-3.33,54-3.91c2.84-0.1,5.57-0.05,8.38,0.37"/>
		<path style="fill:none;stroke:#808080" id="kvg:08349-s2" kvg:type="㇑a" d="M40,14.12c1,0.88,1.56,2.03,1.67,2.75c0.99,6.74,1.59,12.93,1.88,15.38"/>
		<path style="fill:none;stroke:#808080" id="kvg:08349-s3" kvg:type="㇑a" d="M67.34,10.88c0.53,0.88,0.55,2.05,0.34,3.18c-1.19,6.49-2.46,11.76-3.43,15.9"/>
	</g>
	<g id="kvg:08349-g2" kvg:element="早" kvg:position="bottom" kvg:phon="早">
		<g id="kvg:08349-g3" kvg:element="日">
			<path style="fill:none;stroke:#808080" id="kvg:08349-s4" kvg:type="㇑" d="M31.25,38.22c0.77,0.77,1.5,2.03,1.8,3.69c0.75,4.08,2.31,13.24,3.34,19.81c0.36,2.28,0.61,2.53,0.82,4.03"/>
			<path style="fill:none;stroke-width:4;" id="kvg:08349-s5" kvg:type="㇕a" d="M33.27,39.47c12.1-1.34,38.03-4.49,41.29-4.48C76.88,35,78.54,36.4,78,39.04c-0.87,4.21-2.32,12.1-3.89,19.44c-0.32,1.47-0.61,2.77-0.86,3.77"/>
<circle cx="33.27" cy="39.47" r="5" style="fill:red;stroke:red;" />
		</g>
		<g id="kvg:08349-g4" kvg:element="十">
		</g>
	</g>
</g>
</g></svg>