<?xml version="1.0" encoding="UTF-8"?>
  <!DOCTYPE svg PUBLIC "-//W3C//DTD SVG 1.0//EN" "http://www.w3.org/TR/2001/REC-SVG-20010904/DTD/svg10.dtd" [
  <!ATTLIST g xmlns:kvg CDATA #FIXED "http://kanjivg.tagaini.net" kvg:element CDATA #IMPLIED kvg:variant CDATA #IMPLIED kvg:partial CDATA #IMPLIED kvg:original CDATA #IMPLIED kvg:part CDATA #IMPLIED kvg:number CDATA #IMPLIED kvg:tradForm CDATA #IMPLIED kvg:radicalForm CDATA #IMPLIED kvg:position CDATA #IMPLIED kvg:radical CDATA #IMPLIED kvg:phon CDATA #IMPLIED >
  <!ATTLIST path xmlns:kvg CDATA #FIXED "http://kanjivg.tagaini.net" kvg:type CDATA #IMPLIED >
  ]>
  <svg xmlns="http://www.w3.org/2000/svg" width="109" height="109" viewBox="0 0 109 109">
<g id="kvg:StrokePaths_08457" style="fill:none;stroke:#000000;stroke-width:3;stroke-linecap:round;stroke-linejoin:round;">
<g id="kvg:08457" kvg:element="著">
	<g id="kvg:08457-g1" kvg:element="艹" kvg:variant="true" kvg:original="艸" kvg:position="top" kvg:radical="general">
		<path style="fill:none;stroke:#808080" id="kvg:08457-s1" kvg:type="㇐" d="M22.11,24.07c2.64,0.43,5.23,0.42,7.39,0.15c13.37-1.71,31.87-4.09,47.12-5.47c2.75-0.25,5.56-0.34,8.26,0.32"/>
		<path style="fill:none;stroke:#808080" id="kvg:08457-s2" kvg:type="㇑a" d="M37.29,13.43c0.82,0.83,1.45,1.81,1.59,2.55c0.87,4.64,2.72,12.76,3.14,15.27"/>
		<path style="fill:none;stroke:#808080" id="kvg:08457-s3" kvg:type="㇑a" d="M68.71,8.5c0.34,1,0.52,2.25,0.15,3.48c-2.2,7.24-2.94,10.36-5.34,17.17"/>
	</g>
	<g id="kvg:08457-g2" kvg:element="者" kvg:position="bottom" kvg:phon="者">
		<g id="kvg:08457-g3" kvg:element="耂" kvg:original="老" kvg:partial="true">
			<g id="kvg:08457-g4" kvg:element="土">
				<path style="fill:none;stroke-width:4;" id="kvg:08457-s4" kvg:type="㇐" d="M34.46,40.23c1.45,0.56,3.88,0.49,5.42,0.31c5.43-0.62,14.59-2.17,21.87-3.02c1.33-0.16,2.79-0.43,4.12-0.13"/>
<circle cx="34.46" cy="40.23" r="5" style="fill:red;stroke:red;" />
			</g>
		</g>
		<g id="kvg:08457-g5" kvg:element="日">
		</g>
	</g>
</g>
</g></svg>