<?xml version="1.0" encoding="UTF-8"?>
  <!DOCTYPE svg PUBLIC "-//W3C//DTD SVG 1.0//EN" "http://www.w3.org/TR/2001/REC-SVG-20010904/DTD/svg10.dtd" [
  <!ATTLIST g xmlns:kvg CDATA #FIXED "http://kanjivg.tagaini.net" kvg:element CDATA #IMPLIED kvg:variant CDATA #IMPLIED kvg:partial CDATA #IMPLIED kvg:original CDATA #IMPLIED kvg:part CDATA #IMPLIED kvg:number CDATA #IMPLIED kvg:tradForm CDATA #IMPLIED kvg:radicalForm CDATA #IMPLIED kvg:position CDATA #IMPLIED kvg:radical CDATA #IMPLIED kvg:phon CDATA #IMPLIED >
  <!ATTLIST path xmlns:kvg CDATA #FIXED "http://kanjivg.tagaini.net" kvg:type CDATA #IMPLIED >
  ]>
  <svg xmlns="http://www.w3.org/2000/svg" width="109" height="109" viewBox="0 0 109 109">
<g id="kvg:StrokePaths_084b8" style="fill:none;stroke:#000000;stroke-width:3;stroke-linecap:round;stroke-linejoin:round;">
<g id="kvg:084b8" kvg:element="蒸">
	<g id="kvg:084b8-g1" kvg:element="艹" kvg:variant="true" kvg:original="艸" kvg:position="top" kvg:radical="general">
		<path style="fill:none;stroke:#808080" id="kvg:084b8-s1" kvg:type="㇐" d="M23.6,23.07c2.65,0.56,5.52,0.37,7.89,0.15c12.44-1.2,35.91-2.97,48.76-3.37c2.63-0.08,5.59,0.02,8.15,0.64"/>
		<path style="fill:none;stroke:#808080" id="kvg:084b8-s2" kvg:type="㇑a" d="M40.33,12.5c0.77,0.77,1.55,1.86,1.67,2.63c1.25,8.49,1.82,13.52,2.25,16.12"/>
		<path style="fill:none;stroke:#808080" id="kvg:084b8-s3" kvg:type="㇑a" d="M71.09,10.5c0.33,0.92,0.51,2.11,0.14,3.24C69.08,20.4,68.35,22.73,66,29"/>
	</g>
	<g id="kvg:084b8-g2" kvg:element="烝" kvg:position="bottom" kvg:phon="烝">
		<g id="kvg:084b8-g3" kvg:position="top">
			<g id="kvg:084b8-g4" kvg:element="丞" kvg:position="top">
				<g id="kvg:084b8-g5" kvg:element="了">
					<path style="fill:none;stroke:#808080" id="kvg:084b8-s4" kvg:type="㇇" d="M36.72,37.38c1.66,0.87,4.34,0.8,6.16,0.54c5.88-0.83,17.99-2.55,21.65-3.13c1.65-0.26,2.99,1.73,1.17,3.1c-4.61,3.46-7.2,5.65-12.61,9.35"/>
					<g id="kvg:084b8-g6" kvg:element="亅">
						<path style="fill:none;stroke-width:4;" id="kvg:084b8-s5" kvg:type="㇁" d="M51.09,47.16c5.66,2.84,7.66,12.09,3.82,21.85c-1.62,4.1-4.78,0.12-6.09-1.62"/>
<circle cx="51.09" cy="47.16" r="5" style="fill:red;stroke:red;" />
					</g>
				</g>
				<g id="kvg:084b8-g7" kvg:element="水" kvg:partial="true">
				</g>
			</g>
			<g id="kvg:084b8-g8" kvg:element="一" kvg:position="bottom">
			</g>
		</g>
		<g id="kvg:084b8-g9" kvg:element="灬" kvg:variant="true" kvg:original="火" kvg:position="bottom">
		</g>
	</g>
</g>
</g></svg>