<?xml version="1.0" encoding="UTF-8"?>
  <!DOCTYPE svg PUBLIC "-//W3C//DTD SVG 1.0//EN" "http://www.w3.org/TR/2001/REC-SVG-20010904/DTD/svg10.dtd" [
  <!ATTLIST g xmlns:kvg CDATA #FIXED "http://kanjivg.tagaini.net" kvg:element CDATA #IMPLIED kvg:variant CDATA #IMPLIED kvg:partial CDATA #IMPLIED kvg:original CDATA #IMPLIED kvg:part CDATA #IMPLIED kvg:number CDATA #IMPLIED kvg:tradForm CDATA #IMPLIED kvg:radicalForm CDATA #IMPLIED kvg:position CDATA #IMPLIED kvg:radical CDATA #IMPLIED kvg:phon CDATA #IMPLIED >
  <!ATTLIST path xmlns:kvg CDATA #FIXED "http://kanjivg.tagaini.net" kvg:type CDATA #IMPLIED >
  ]>
  <svg xmlns="http://www.w3.org/2000/svg" width="109" height="109" viewBox="0 0 109 109">
<g id="kvg:StrokePaths_08535" style="fill:none;stroke:#000000;stroke-width:3;stroke-linecap:round;stroke-linejoin:round;">
<g id="kvg:08535" kvg:element="蔵">
	<g id="kvg:08535-g1" kvg:element="艹" kvg:variant="true" kvg:original="艸" kvg:position="top" kvg:radical="general">
		<path style="fill:none;stroke:#808080" id="kvg:08535-s1" kvg:type="㇐" d="M17.5,25.27c3.38,0.23,6.27,0.13,9.01-0.19C40,23.5,63.25,21.12,76,20.39c3-0.17,6-0.14,9,0.63"/>
		<path style="fill:none;stroke:#808080" id="kvg:08535-s2" kvg:type="㇑a" d="M35.5,14.25c0.75,0.75,1.36,1.74,1.5,2.45c1,4.92,2.35,12.15,2.75,14.55"/>
		<path style="fill:none;stroke:#808080" id="kvg:08535-s3" kvg:type="㇑a" d="M62.89,11.5c0.28,1.23,0.28,2.16,0.03,3.38c-1.1,5.35-1.92,8.56-3.19,13.87"/>
	</g>
	<g id="kvg:08535-g2" kvg:position="bottom" kvg:phon="臧T">
		<g id="kvg:08535-g3" kvg:element="厂" kvg:part="1" kvg:variant="true">
			<path style="fill:none;stroke:#808080" id="kvg:08535-s4" kvg:type="㇒" d="M24.42,42.28c0.58,0.72,0.98,1.84,0.98,3.26c0,17.91,0.72,38.58-12.1,51.95"/>
		</g>
		<g id="kvg:08535-g4" kvg:element="戈" kvg:part="1">
			<g id="kvg:08535-g5" kvg:element="弋" kvg:part="1">
				<g id="kvg:08535-g6" kvg:element="厂" kvg:part="2" kvg:variant="true">
					<path style="fill:none;stroke:#808080" id="kvg:08535-s5" kvg:type="㇐" d="M25.5,43.24c2.38,0.51,4.44,0.21,6.52-0.02c11-1.23,30.66-3.69,42.38-4.64c2.74-0.22,5.67-0.16,8.36,0.43"/>
				</g>
			</g>
		</g>
		<g id="kvg:08535-g7" kvg:element="臣">
			<path style="fill:none;stroke:#808080" id="kvg:08535-s6" kvg:type="㇑" d="M34.12,51.89c0.62,0.62,0.9,1.61,0.9,2.75c0,3.87-0.01,23.91-0.02,34.86c0,3.49,0,6.06,0,6.88"/>
			<path style="fill:none;stroke:#808080" id="kvg:08535-s7" kvg:type="㇐b" d="M35.39,52.98c4.99-0.36,15.16-2.13,22.86-2.53c1.17-0.06,1.87-0.13,2.45,0.02"/>
			<path style="fill:none;stroke-width:4;" id="kvg:08535-s8" kvg:type="㇑a" d="M47.61,52.41c0.49,0.49,0.8,1.21,0.81,2.33c0.02,2.54-0.02,5.24-0.09,7.57"/>
<circle cx="47.61" cy="52.41" r="5" style="fill:red;stroke:red;" />
		</g>
		<g id="kvg:08535-g8" kvg:element="戈" kvg:part="2">
			<g id="kvg:08535-g9" kvg:element="弋" kvg:part="2">
			</g>
			<g id="kvg:08535-g10" kvg:element="丿">
			</g>
			<g id="kvg:08535-g11" kvg:element="弋" kvg:part="3">
				<g id="kvg:08535-g12" kvg:element="丶">
				</g>
			</g>
		</g>
	</g>
</g>
</g></svg>