<?xml version="1.0" encoding="UTF-8"?>
  <!DOCTYPE svg PUBLIC "-//W3C//DTD SVG 1.0//EN" "http://www.w3.org/TR/2001/REC-SVG-20010904/DTD/svg10.dtd" [
  <!ATTLIST g xmlns:kvg CDATA #FIXED "http://kanjivg.tagaini.net" kvg:element CDATA #IMPLIED kvg:variant CDATA #IMPLIED kvg:partial CDATA #IMPLIED kvg:original CDATA #IMPLIED kvg:part CDATA #IMPLIED kvg:number CDATA #IMPLIED kvg:tradForm CDATA #IMPLIED kvg:radicalForm CDATA #IMPLIED kvg:position CDATA #IMPLIED kvg:radical CDATA #IMPLIED kvg:phon CDATA #IMPLIED >
  <!ATTLIST path xmlns:kvg CDATA #FIXED "http://kanjivg.tagaini.net" kvg:type CDATA #IMPLIED >
  ]>
  <svg xmlns="http://www.w3.org/2000/svg" width="109" height="109" viewBox="0 0 109 109">
<g id="kvg:StrokePaths_0866b" style="fill:none;stroke:#000000;stroke-width:3;stroke-linecap:round;stroke-linejoin:round;">
<g id="kvg:0866b" kvg:element="虫" kvg:radical="general">
	<g id="kvg:0866b-g1" kvg:element="中">
		<g id="kvg:0866b-g2" kvg:element="口">
			<path style="fill:none;stroke:#808080" id="kvg:0866b-s1" kvg:type="㇑" d="M23.64,36.26c0.8,0.8,1.49,1.74,1.7,2.54c1.23,4.63,2.06,10.62,3.38,18.66c0.25,1.52,0.51,3.11,0.78,4.78"/>
			<path style="fill:none;stroke:#808080" id="kvg:0866b-s2" kvg:type="㇕b" d="M25.76,38.04c14.91-1.35,45.03-4.16,53.74-4.54c3.84-0.17,4.01,1.78,3.63,4.25c-0.68,4.46-2.51,12.12-4.07,17.32"/>
			<path style="fill:none;stroke:#808080" id="kvg:0866b-s3" kvg:type="㇐b" d="M30,60c9.65-0.99,29.67-2.45,44.76-3.49c2.03-0.14,3.98-0.27,5.79-0.4"/>
		</g>
		<g id="kvg:0866b-g3" kvg:element="丨">
			<path style="fill:none;stroke-width:4;" id="kvg:0866b-s4" kvg:type="㇑a" d="M52.51,16.12c1,1,1.67,2.84,1.67,3.99c0,5.39,0.08,62.61,0.04,63.63"/>
<circle cx="52.51" cy="16.12" r="5" style="fill:red;stroke:red;" />
		</g>
	</g>
</g>
</g></svg>