<?xml version="1.0" encoding="UTF-8"?>
  <!DOCTYPE svg PUBLIC "-//W3C//DTD SVG 1.0//EN" "http://www.w3.org/TR/2001/REC-SVG-20010904/DTD/svg10.dtd" [
  <!ATTLIST g xmlns:kvg CDATA #FIXED "http://kanjivg.tagaini.net" kvg:element CDATA #IMPLIED kvg:variant CDATA #IMPLIED kvg:partial CDATA #IMPLIED kvg:original CDATA #IMPLIED kvg:part CDATA #IMPLIED kvg:number CDATA #IMPLIED kvg:tradForm CDATA #IMPLIED kvg:radicalForm CDATA #IMPLIED kvg:position CDATA #IMPLIED kvg:radical CDATA #IMPLIED kvg:phon CDATA #IMPLIED >
  <!ATTLIST path xmlns:kvg CDATA #FIXED "http://kanjivg.tagaini.net" kvg:type CDATA #IMPLIED >
  ]>
  <svg xmlns="http://www.w3.org/2000/svg" width="109" height="109" viewBox="0 0 109 109">
<g id="kvg:StrokePaths_08695" style="fill:none;stroke:#000000;stroke-width:3;stroke-linecap:round;stroke-linejoin:round;">
<g id="kvg:08695" kvg:element="蚕">
	<g id="kvg:08695-g1" kvg:element="天" kvg:position="top" kvg:phon="天">
		<g id="kvg:08695-g2" kvg:element="一" kvg:radical="nelson">
			<path style="fill:none;stroke:#808080" id="kvg:08695-s1" kvg:type="㇐" d="M19.13,18.58c2.77,1.06,6.63,0.53,9.49,0.15c16.75-2.23,36.17-4.13,50.12-5.22c3.38-0.26,7.33-0.28,10.64,0.47"/>
		</g>
		<g id="kvg:08695-g3" kvg:element="大">
			<path style="fill:none;stroke:#808080" id="kvg:08695-s2" kvg:type="㇐" d="M26.81,37c2.94,0.75,6.09,0.46,8.56,0.11c10.61-1.53,31.59-4.06,42.1-5.09c2.93-0.29,6.11-0.48,8.98,0.16"/>
			<path style="fill:none;stroke:#808080" id="kvg:08695-s3" kvg:type="㇒" d="M50.62,19.75c0.38,1.12,0.4,2.38,0,3.92C46,41.12,34,60,11.25,72.87"/>
			<path style="fill:none;stroke:#808080" id="kvg:08695-s4" kvg:type="㇏" d="M61.1,34.39c7.65,8.23,17.6,18.77,25.93,25.97C88.86,61.94,91,64,94,66.25"/>
		</g>
	</g>
	<g id="kvg:08695-g4" kvg:element="虫" kvg:position="bottom" kvg:radical="tradit">
		<g id="kvg:08695-g5" kvg:element="中">
			<g id="kvg:08695-g6" kvg:element="口">
				<path style="fill:none;stroke:#808080" id="kvg:08695-s5" kvg:type="㇑" d="M34.78,61.35c0.81,0.81,1.47,1.9,1.74,2.97c0.84,3.2,1.17,7.08,2.09,12.67c0.16,0.96,0.32,1.95,0.49,3"/>
				<path style="fill:none;stroke-width:4;" id="kvg:08695-s6" kvg:type="㇕b" d="M37.48,63.69c11.33-1.69,24.58-3.79,31.77-4.3c3.33-0.24,5.44,0.15,4.5,3.74c-0.96,3.66-1.9,7.65-2.92,11.08"/>
<circle cx="37.48" cy="63.69" r="5" style="fill:red;stroke:red;" />
			</g>
			<g id="kvg:08695-g7" kvg:element="丨">
			</g>
		</g>
	</g>
</g>
</g></svg>