<?xml version="1.0" encoding="UTF-8"?>
  <!DOCTYPE svg PUBLIC "-//W3C//DTD SVG 1.0//EN" "http://www.w3.org/TR/2001/REC-SVG-20010904/DTD/svg10.dtd" [
  <!ATTLIST g xmlns:kvg CDATA #FIXED "http://kanjivg.tagaini.net" kvg:element CDATA #IMPLIED kvg:variant CDATA #IMPLIED kvg:partial CDATA #IMPLIED kvg:original CDATA #IMPLIED kvg:part CDATA #IMPLIED kvg:number CDATA #IMPLIED kvg:tradForm CDATA #IMPLIED kvg:radicalForm CDATA #IMPLIED kvg:position CDATA #IMPLIED kvg:radical CDATA #IMPLIED kvg:phon CDATA #IMPLIED >
  <!ATTLIST path xmlns:kvg CDATA #FIXED "http://kanjivg.tagaini.net" kvg:type CDATA #IMPLIED >
  ]>
  <svg xmlns="http://www.w3.org/2000/svg" width="109" height="109" viewBox="0 0 109 109">
<g id="kvg:StrokePaths_08853" style="fill:none;stroke:#000000;stroke-width:3;stroke-linecap:round;stroke-linejoin:round;">
<g id="kvg:08853" kvg:element="術">
	<g id="kvg:08853-g1" kvg:element="行" kvg:part="1" kvg:position="kamae" kvg:radical="tradit">
		<g id="kvg:08853-g2" kvg:element="彳" kvg:position="left" kvg:radical="nelson">
			<path style="fill:none;stroke:#808080" id="kvg:08853-s1" kvg:type="㇒" d="M26.88,14.5c0,0.88-0.31,2.04-0.76,2.7c-2.34,3.44-7.12,8.3-14.49,14.3"/>
			<g id="kvg:08853-g3" kvg:element="亻" kvg:variant="true" kvg:original="人">
				<path style="fill:none;stroke:#808080" id="kvg:08853-s2" kvg:type="㇒" d="M28.03,32c0.05,0.68-0.01,1.87-0.35,2.72C24.62,42.38,18.75,51,10,61"/>
				<path style="fill:none;stroke:#808080" id="kvg:08853-s3" kvg:type="㇑" d="M22.71,49c0.71,0.71,1.06,2.25,1.06,3.41c0,0.39-0.02,24.09-0.02,34.09c0,4.15-0.03,7.21-0.04,8"/>
			</g>
		</g>
	</g>
	<g id="kvg:08853-g4" kvg:element="朮" kvg:phon="朮">
		<g id="kvg:08853-g5" kvg:element="木" kvg:variant="true">
			<path style="fill:none;stroke:#808080" id="kvg:08853-s4" kvg:type="㇐" d="M36.4,36.5c1.85,0.38,2.94,0.53,4.48,0.39c4.57-0.42,12.75-1.76,18.88-3.09c1.22-0.26,2.74-0.3,4.06-0.01"/>
			<path style="fill:none;stroke:#808080" id="kvg:08853-s5" kvg:type="㇑" d="M48.77,14.5c0.8,0.8,1.51,2.12,1.51,3.38c0,4.99,0.14,45.74,0.14,65.37c0,3.99-0.13,7.54-0.17,8.5"/>
			<path style="fill:none;stroke:#808080" id="kvg:08853-s6" kvg:type="㇒" d="M40.37,46.75c0.13,0.75,0.3,2.26,0.21,3.15C39.5,60,37.38,69.62,32.5,79.79"/>
			<path style="fill:none;stroke:#808080" id="kvg:08853-s7" kvg:type="㇔/㇏" d="M58.52,49.08c1.87,4.52,5.08,18.35,5.54,25.38"/>
		</g>
		<g id="kvg:08853-g6" kvg:element="丶">
			<path style="fill:none;stroke-width:4;" id="kvg:08853-s8" kvg:type="㇔" d="M58.02,15.33c2.31,1.7,5.96,6.99,6.54,9.63"/>
<circle cx="58.02" cy="15.33" r="5" style="fill:red;stroke:red;" />
		</g>
	</g>
	<g id="kvg:08853-g7" kvg:position="kamae">
		<g id="kvg:08853-g8" kvg:element="行" kvg:part="2" kvg:position="right" kvg:radical="tradit">
		</g>
	</g>
</g>
</g></svg>