<?xml version="1.0" encoding="UTF-8"?>
  <!DOCTYPE svg PUBLIC "-//W3C//DTD SVG 1.0//EN" "http://www.w3.org/TR/2001/REC-SVG-20010904/DTD/svg10.dtd" [
  <!ATTLIST g xmlns:kvg CDATA #FIXED "http://kanjivg.tagaini.net" kvg:element CDATA #IMPLIED kvg:variant CDATA #IMPLIED kvg:partial CDATA #IMPLIED kvg:original CDATA #IMPLIED kvg:part CDATA #IMPLIED kvg:number CDATA #IMPLIED kvg:tradForm CDATA #IMPLIED kvg:radicalForm CDATA #IMPLIED kvg:position CDATA #IMPLIED kvg:radical CDATA #IMPLIED kvg:phon CDATA #IMPLIED >
  <!ATTLIST path xmlns:kvg CDATA #FIXED "http://kanjivg.tagaini.net" kvg:type CDATA #IMPLIED >
  ]>
  <svg xmlns="http://www.w3.org/2000/svg" width="109" height="109" viewBox="0 0 109 109">
<g id="kvg:StrokePaths_08857" style="fill:none;stroke:#000000;stroke-width:3;stroke-linecap:round;stroke-linejoin:round;">
<g id="kvg:08857" kvg:element="街">
	<g id="kvg:08857-g1" kvg:element="行" kvg:part="1" kvg:position="kamae" kvg:radical="tradit">
		<g id="kvg:08857-g2" kvg:element="彳" kvg:position="left" kvg:radical="nelson">
			<path style="fill:none;stroke:#808080" id="kvg:08857-s1" kvg:type="㇒" d="M29.45,17.75c0.1,1.05-0.02,1.59-0.56,2.51c-2.15,3.64-6.82,9.32-13.14,14.86"/>
			<g id="kvg:08857-g3" kvg:element="亻" kvg:variant="true" kvg:original="人">
				<path style="fill:none;stroke:#808080" id="kvg:08857-s2" kvg:type="㇒" d="M29.02,36.74c0.05,0.64,0.19,1.73-0.11,2.56c-2.36,6.6-9.4,15.54-19.04,24.49"/>
				<path style="fill:none;stroke:#808080" id="kvg:08857-s3" kvg:type="㇑" d="M23.42,50.65c0.96,0.96,1.54,2.35,1.54,3.72c0,0.38-0.04,21.75-0.06,32.37c0,2.25,0,4.02,0,5"/>
			</g>
		</g>
	</g>
	<g id="kvg:08857-g4" kvg:element="圭" kvg:phon="圭">
		<g id="kvg:08857-g5" kvg:element="土" kvg:position="top">
			<path style="fill:none;stroke:#808080" id="kvg:08857-s4" kvg:type="㇐" d="M38.13,30.42c0.98,0.38,2.78,0.43,3.76,0.38c5.74-0.3,14.24-1.42,18.8-1.88c1.63-0.16,2.62-0.07,3.43,0.12"/>
			<path style="fill:none;stroke:#808080" id="kvg:08857-s5" kvg:type="㇑a" d="M50.67,14.37c1.11,1.11,1.52,2.77,1.52,4.64c0,11.25,0.14,19.12,0.14,24.36"/>
			<path style="fill:none;stroke-width:4;" id="kvg:08857-s6" kvg:type="㇐" d="M36.88,45.49c1.13,0.18,3.21,0.26,4.33,0.18c5.66-0.41,13.91-1.66,20.21-2.27c1.87-0.18,3.01,0.08,3.96,0.17"/>
<circle cx="36.88" cy="45.49" r="5" style="fill:red;stroke:red;" />
		</g>
		<g id="kvg:08857-g6" kvg:element="土" kvg:position="bottom">
		</g>
	</g>
	<g id="kvg:08857-g7" kvg:element="行" kvg:part="2" kvg:position="kamae" kvg:radical="tradit">
		<g id="kvg:08857-g8" kvg:position="right">
		</g>
	</g>
</g>
</g></svg>