<?xml version="1.0" encoding="UTF-8"?>
  <!DOCTYPE svg PUBLIC "-//W3C//DTD SVG 1.0//EN" "http://www.w3.org/TR/2001/REC-SVG-20010904/DTD/svg10.dtd" [
  <!ATTLIST g xmlns:kvg CDATA #FIXED "http://kanjivg.tagaini.net" kvg:element CDATA #IMPLIED kvg:variant CDATA #IMPLIED kvg:partial CDATA #IMPLIED kvg:original CDATA #IMPLIED kvg:part CDATA #IMPLIED kvg:number CDATA #IMPLIED kvg:tradForm CDATA #IMPLIED kvg:radicalForm CDATA #IMPLIED kvg:position CDATA #IMPLIED kvg:radical CDATA #IMPLIED kvg:phon CDATA #IMPLIED >
  <!ATTLIST path xmlns:kvg CDATA #FIXED "http://kanjivg.tagaini.net" kvg:type CDATA #IMPLIED >
  ]>
  <svg xmlns="http://www.w3.org/2000/svg" width="109" height="109" viewBox="0 0 109 109">
<g id="kvg:StrokePaths_0885b" style="fill:none;stroke:#000000;stroke-width:3;stroke-linecap:round;stroke-linejoin:round;">
<g id="kvg:0885b" kvg:element="衛">
	<g id="kvg:0885b-g1" kvg:element="行" kvg:part="1" kvg:position="kamae" kvg:radical="tradit">
		<g id="kvg:0885b-g2" kvg:element="彳" kvg:position="left" kvg:radical="nelson">
			<path style="fill:none;stroke:#808080" id="kvg:0885b-s1" kvg:type="㇒" d="M29.38,17.62c0.03,0.37-0.09,1.04-0.31,1.5c-1.53,3.23-5.56,8.85-11.18,14.32"/>
			<g id="kvg:0885b-g3" kvg:element="亻" kvg:variant="true" kvg:original="人">
				<path style="fill:none;stroke:#808080" id="kvg:0885b-s2" kvg:type="㇒" d="M27.53,38.08c0.05,0.6,0.16,1.62-0.09,2.39c-2.04,6.15-8.37,14.25-16.69,22.59"/>
				<path style="fill:none;stroke:#808080" id="kvg:0885b-s3" kvg:type="㇑" d="M24,50.49c0.69,0.69,1.18,1.76,1.18,2.75c0,0.59,0,24.25-0.03,34.13c-0.01,2.09-0.01,3.56-0.02,4.08"/>
			</g>
		</g>
	</g>
	<g id="kvg:0885b-g4" kvg:element="韋" kvg:phon="韋">
		<g id="kvg:0885b-g5" kvg:position="top">
			<path style="fill:none;stroke:#808080" id="kvg:0885b-s4" kvg:type="㇑a" d="M48.77,14.26c0.48,0.99,0.83,1.63,0.66,2.71c-1.05,6.65-2.66,14.57-3.34,17.5"/>
			<path style="fill:none;stroke:#808080" id="kvg:0885b-s5" kvg:type="㇕c" d="M38.11,24.18c1.34,0.86,2.64,0.79,4.11,0.6c5.86-0.75,13.7-1.94,17.03-2.5c2.37-0.4,3.59,0.74,2.91,2.96C61,29,60.62,30.38,59.8,32.93"/>
			<path style="fill:none;stroke:#808080" id="kvg:0885b-s6" kvg:type="㇐" d="M34.94,36c1.56,0.38,3.74,0.21,5.2,0.09c5.46-0.46,15.8-1.53,24.74-2.15c1.63-0.11,3.31-0.36,4.91,0.1"/>
		</g>
		<g id="kvg:0885b-g6" kvg:position="bottom">
			<g id="kvg:0885b-g7" kvg:element="口">
				<path style="fill:none;stroke:#808080" id="kvg:0885b-s7" kvg:type="㇑" d="M38.7,43.67c0.76,0.76,1.3,1.98,1.38,2.95c0.48,2.1,1.01,4.12,1.57,6.61c0.23,1.01,0.46,2.1,0.7,3.31"/>
				<path style="fill:none;stroke:#808080" id="kvg:0885b-s8" kvg:type="㇕b" d="M40.46,44.59c5.92-0.84,18.24-2.05,21.06-2.47c2.48-0.37,2.98,1.13,2.5,2.75c-0.36,1.22-1.81,6.22-1.97,7.1"/>
				<path style="fill:none;stroke-width:4;" id="kvg:0885b-s9" kvg:type="㇐b" d="M43.26,54.95c3.42-0.28,10.94-1.14,16.11-1.62c1.55-0.14,2.89-0.26,3.85-0.31"/>
<circle cx="43.26" cy="54.95" r="5" style="fill:red;stroke:red;" />
			</g>
		</g>
	</g>
	<g id="kvg:0885b-g8" kvg:element="行" kvg:part="2" kvg:position="kamae" kvg:radical="tradit">
		<g id="kvg:0885b-g9" kvg:position="right">
		</g>
	</g>
</g>
</g></svg>