<?xml version="1.0" encoding="UTF-8"?>
  <!DOCTYPE svg PUBLIC "-//W3C//DTD SVG 1.0//EN" "http://www.w3.org/TR/2001/REC-SVG-20010904/DTD/svg10.dtd" [
  <!ATTLIST g xmlns:kvg CDATA #FIXED "http://kanjivg.tagaini.net" kvg:element CDATA #IMPLIED kvg:variant CDATA #IMPLIED kvg:partial CDATA #IMPLIED kvg:original CDATA #IMPLIED kvg:part CDATA #IMPLIED kvg:number CDATA #IMPLIED kvg:tradForm CDATA #IMPLIED kvg:radicalForm CDATA #IMPLIED kvg:position CDATA #IMPLIED kvg:radical CDATA #IMPLIED kvg:phon CDATA #IMPLIED >
  <!ATTLIST path xmlns:kvg CDATA #FIXED "http://kanjivg.tagaini.net" kvg:type CDATA #IMPLIED >
  ]>
  <svg xmlns="http://www.w3.org/2000/svg" width="109" height="109" viewBox="0 0 109 109">
<g id="kvg:StrokePaths_088c1" style="fill:none;stroke:#000000;stroke-width:3;stroke-linecap:round;stroke-linejoin:round;">
<g id="kvg:088c1" kvg:element="裁">
	<g id="kvg:088c1-g1" kvg:element="𢦏" kvg:position="kamae">
		<g id="kvg:088c1-g2" kvg:element="土" kvg:part="1" kvg:phon="土戈1">
			<g id="kvg:088c1-g3" kvg:element="十" kvg:radical="nelson">
				<path style="fill:none;stroke:#808080" id="kvg:088c1-s1" kvg:type="㇐" d="M23.63,25.63c1.68,0.45,3.54,0.3,5.24,0.16c6.57-0.5,14.34-1.94,20.32-2.48c1.62-0.14,2.87-0.12,3.68,0.01"/>
				<path style="fill:none;stroke:#808080" id="kvg:088c1-s2" kvg:type="㇑a" d="M39.42,12.87c0.67,0.67,1.27,2.13,1.27,3.64c0,3.5,0.14,16.5,0.14,21.36"/>
			</g>
			<g id="kvg:088c1-g4" kvg:element="戈" kvg:part="1">
				<g id="kvg:088c1-g5" kvg:element="弋" kvg:part="1">
					<path style="fill:none;stroke:#808080" id="kvg:088c1-s3" kvg:type="㇐" d="M13.13,40.73c3.12,1.11,7.15,0.64,10.37,0.23c19.02-2.41,44.54-6.14,60.62-7.21c3.07-0.2,5.99-0.32,9.01,0.33"/>
				</g>
			</g>
		</g>
	</g>
	<g id="kvg:088c1-g6" kvg:element="衣" kvg:position="kamaec" kvg:radical="tradit">
		<g id="kvg:088c1-g7" kvg:element="亠" kvg:position="top">
			<path style="fill:none;stroke-width:4;" id="kvg:088c1-s4" kvg:type="㇑a" d="M39.85,44.5c0.7,0.7,1.22,2.12,1.22,3.58c0,2.76-0.11,3.67-0.11,6.28"/>
<circle cx="39.85" cy="44.5" r="5" style="fill:red;stroke:red;" />
		</g>
		<g id="kvg:088c1-g8" kvg:position="bottom">
		</g>
	</g>
	<g id="kvg:088c1-g9" kvg:element="𢦏" kvg:position="kamae">
		<g id="kvg:088c1-g10" kvg:element="戈" kvg:part="2" kvg:phon="土戈2">
			<g id="kvg:088c1-g11" kvg:element="弋" kvg:part="2">
			</g>
			<g id="kvg:088c1-g12" kvg:element="丿">
			</g>
			<g id="kvg:088c1-g13" kvg:element="弋" kvg:part="3">
				<g id="kvg:088c1-g14" kvg:element="丶">
				</g>
			</g>
		</g>
	</g>
</g>
</g></svg>