<?xml version="1.0" encoding="UTF-8"?>
  <!DOCTYPE svg PUBLIC "-//W3C//DTD SVG 1.0//EN" "http://www.w3.org/TR/2001/REC-SVG-20010904/DTD/svg10.dtd" [
  <!ATTLIST g xmlns:kvg CDATA #FIXED "http://kanjivg.tagaini.net" kvg:element CDATA #IMPLIED kvg:variant CDATA #IMPLIED kvg:partial CDATA #IMPLIED kvg:original CDATA #IMPLIED kvg:part CDATA #IMPLIED kvg:number CDATA #IMPLIED kvg:tradForm CDATA #IMPLIED kvg:radicalForm CDATA #IMPLIED kvg:position CDATA #IMPLIED kvg:radical CDATA #IMPLIED kvg:phon CDATA #IMPLIED >
  <!ATTLIST path xmlns:kvg CDATA #FIXED "http://kanjivg.tagaini.net" kvg:type CDATA #IMPLIED >
  ]>
  <svg xmlns="http://www.w3.org/2000/svg" width="109" height="109" viewBox="0 0 109 109">
<g id="kvg:StrokePaths_088cf" style="fill:none;stroke:#000000;stroke-width:3;stroke-linecap:round;stroke-linejoin:round;">
<g id="kvg:088cf" kvg:element="裏">
	<g id="kvg:088cf-g1" kvg:element="衣" kvg:part="1" kvg:position="top" kvg:radical="tradit">
		<g id="kvg:088cf-g2" kvg:element="亠" kvg:radical="nelson">
			<path style="fill:none;stroke:#808080" id="kvg:088cf-s1" kvg:type="㇑a" d="M52.69,8.5c1.03,1.03,1.45,2.12,1.45,3.77c0,1.98-0.02,1.79-0.02,4.98"/>
			<path style="fill:none;stroke:#808080" id="kvg:088cf-s2" kvg:type="㇐" d="M16,21.11c3.38,0.24,6.74,0.23,10.12-0.12c13.14-1.38,40.73-3.9,56.13-4.62c3.2-0.15,6.62-0.48,9.75,0.3"/>
		</g>
	</g>
	<g id="kvg:088cf-g3" kvg:position="bottom">
		<g id="kvg:088cf-g4" kvg:element="里" kvg:phon="里">
			<g id="kvg:088cf-g5" kvg:element="日">
				<path style="fill:none;stroke:#808080" id="kvg:088cf-s3" kvg:type="㇑" d="M28.3,28.66c0.71,0.71,1.11,1.73,1.37,2.58c1.33,4.39,2.78,10.38,3.8,16.43c0.23,1.34,0.43,2.63,0.6,3.84"/>
				<path style="fill:none;stroke:#808080" id="kvg:088cf-s4" kvg:type="㇕a" d="M30.5,30.17c14.38-1.54,35.62-3.54,46.03-4.39c2.48-0.2,3.97,1.34,3.6,3.29c-0.94,4.93-2.3,10.06-3.75,14.31c-0.43,1.27-0.89,2.49-1.38,3.64"/>
				<path style="fill:none;stroke:#808080" id="kvg:088cf-s5" kvg:type="㇐a" d="M33.37,39.51c8.75-0.89,34.38-3.14,43.98-3.77"/>
				<path style="fill:none;stroke:#808080" id="kvg:088cf-s6" kvg:type="㇐a" d="M34.98,49.47C47,48,61.86,46.61,74.5,45.94"/>
			</g>
			<path style="fill:none;stroke-width:4;" id="kvg:088cf-s7" kvg:type="㇑a" d="M52.92,30.43c0.95,0.95,1.4,2.07,1.4,3.57c0,15.11-0.07,27.65-0.07,31.75"/>
<circle cx="52.92" cy="30.43" r="5" style="fill:red;stroke:red;" />
		</g>
		<g id="kvg:088cf-g6" kvg:element="衣" kvg:part="2" kvg:radical="tradit">
		</g>
	</g>
</g>
</g></svg>