<?xml version="1.0" encoding="UTF-8"?>
  <!DOCTYPE svg PUBLIC "-//W3C//DTD SVG 1.0//EN" "http://www.w3.org/TR/2001/REC-SVG-20010904/DTD/svg10.dtd" [
  <!ATTLIST g xmlns:kvg CDATA #FIXED "http://kanjivg.tagaini.net" kvg:element CDATA #IMPLIED kvg:variant CDATA #IMPLIED kvg:partial CDATA #IMPLIED kvg:original CDATA #IMPLIED kvg:part CDATA #IMPLIED kvg:number CDATA #IMPLIED kvg:tradForm CDATA #IMPLIED kvg:radicalForm CDATA #IMPLIED kvg:position CDATA #IMPLIED kvg:radical CDATA #IMPLIED kvg:phon CDATA #IMPLIED >
  <!ATTLIST path xmlns:kvg CDATA #FIXED "http://kanjivg.tagaini.net" kvg:type CDATA #IMPLIED >
  ]>
  <svg xmlns="http://www.w3.org/2000/svg" width="109" height="109" viewBox="0 0 109 109">
<g id="kvg:StrokePaths_088c5" style="fill:none;stroke:#000000;stroke-width:3;stroke-linecap:round;stroke-linejoin:round;">
<g id="kvg:088c5" kvg:element="装">
	<g id="kvg:088c5-g1" kvg:element="壮" kvg:position="top" kvg:phon="壮">
		<g id="kvg:088c5-g2" kvg:element="⺦" kvg:variant="true" kvg:original="爿" kvg:position="left">
			<path style="fill:none;stroke:#808080" id="kvg:088c5-s1" kvg:type="㇑" d="M39.31,12.75c0.84,0.84,1.25,2.12,1.25,3.5c0,4.48-0.04,18.2-0.06,29.13c0,1.9,0,3.71,0,5.38"/>
			<path style="fill:none;stroke:#808080" id="kvg:088c5-s2" kvg:type="㇔" d="M23.02,19.42c3.02,1.31,7.79,5.37,8.55,7.4"/>
			<path style="fill:none;stroke:#808080" id="kvg:088c5-s3" kvg:type="㇀" d="M21,45.13c1.38,0.74,1.98,0.56,3.1-0.11c3.27-1.94,7.05-4.55,10.02-7.02"/>
		</g>
		<g id="kvg:088c5-g3" kvg:element="士" kvg:position="right">
			<path style="fill:none;stroke:#808080" id="kvg:088c5-s4" kvg:type="㇐" d="M49.21,26.86c2.17,0.39,4.34,0.38,5.91,0.13c8.25-1.36,21.88-2.61,28.89-2.95c1.86-0.09,3.61-0.28,4.95,0"/>
			<path style="fill:none;stroke:#808080" id="kvg:088c5-s5" kvg:type="㇑a" d="M66.49,12.4c0.8,0.8,1.23,1.85,1.23,3c0,4.73,0.06,13.42,0.06,25.13"/>
			<path style="fill:none;stroke-width:4;" id="kvg:088c5-s6" kvg:type="㇐" d="M51.9,42.93c1.73,0.32,3.61,0.36,5.23,0.18c7.62-0.86,15.32-1.68,23.62-2.35c1.64-0.13,3.32-0.12,4.93,0.25"/>
<circle cx="51.9" cy="42.93" r="5" style="fill:red;stroke:red;" />
		</g>
	</g>
	<g id="kvg:088c5-g4" kvg:element="衣" kvg:position="bottom" kvg:radical="general">
		<g id="kvg:088c5-g5" kvg:element="亠" kvg:position="top">
		</g>
		<g id="kvg:088c5-g6" kvg:position="bottom">
		</g>
	</g>
</g>
</g></svg>