<?xml version="1.0" encoding="UTF-8"?>
  <!DOCTYPE svg PUBLIC "-//W3C//DTD SVG 1.0//EN" "http://www.w3.org/TR/2001/REC-SVG-20010904/DTD/svg10.dtd" [
  <!ATTLIST g xmlns:kvg CDATA #FIXED "http://kanjivg.tagaini.net" kvg:element CDATA #IMPLIED kvg:variant CDATA #IMPLIED kvg:partial CDATA #IMPLIED kvg:original CDATA #IMPLIED kvg:part CDATA #IMPLIED kvg:number CDATA #IMPLIED kvg:tradForm CDATA #IMPLIED kvg:radicalForm CDATA #IMPLIED kvg:position CDATA #IMPLIED kvg:radical CDATA #IMPLIED kvg:phon CDATA #IMPLIED >
  <!ATTLIST path xmlns:kvg CDATA #FIXED "http://kanjivg.tagaini.net" kvg:type CDATA #IMPLIED >
  ]>
  <svg xmlns="http://www.w3.org/2000/svg" width="109" height="109" viewBox="0 0 109 109">
<g id="kvg:StrokePaths_08907" style="fill:none;stroke:#000000;stroke-width:3;stroke-linecap:round;stroke-linejoin:round;">
<g id="kvg:08907" kvg:element="複">
	<g id="kvg:08907-g1" kvg:element="衤" kvg:variant="true" kvg:original="衣" kvg:position="left" kvg:radical="general">
		<path style="fill:none;stroke:#808080" id="kvg:08907-s1" kvg:type="㇔" d="M23.38,14.62c2.69,2.17,5.58,5.42,7.89,9.21"/>
		<path style="fill:none;stroke:#808080" id="kvg:08907-s2" kvg:type="㇇" d="M15.35,34.65c1.52,0.48,3.49,0.55,4.99,0.19c4.53-1.08,14.53-5.08,18.03-6.35c2.18-0.79,3.82,0.68,2.57,2.94C33.63,44.69,22.5,58.42,11.75,68.49"/>
		<path style="fill:none;stroke:#808080" id="kvg:08907-s3" kvg:type="㇑" d="M29.21,51.67c0.68,0.68,1.05,2,1.05,3.83c0,9.24,0.03,24.47,0.04,34.5c0,2.45,0,4.58,0,6.25"/>
		<path style="fill:none;stroke-width:4;" id="kvg:08907-s4" kvg:type="㇒" d="M42.85,44.85c0.18,0.83-0.15,1.56-0.5,2.17c-1.05,1.83-4.05,5.84-6.16,8.01"/>
<circle cx="42.85" cy="44.85" r="5" style="fill:red;stroke:red;" />
	</g>
	<g id="kvg:08907-g2" kvg:element="复" kvg:position="right" kvg:phon="复">
		<g id="kvg:08907-g3" kvg:element="𠂉">
		</g>
		<g id="kvg:08907-g4" kvg:element="日">
		</g>
		<g id="kvg:08907-g5" kvg:element="夂">
		</g>
	</g>
</g>
</g></svg>