<?xml version="1.0" encoding="UTF-8"?>
  <!DOCTYPE svg PUBLIC "-//W3C//DTD SVG 1.0//EN" "http://www.w3.org/TR/2001/REC-SVG-20010904/DTD/svg10.dtd" [
  <!ATTLIST g xmlns:kvg CDATA #FIXED "http://kanjivg.tagaini.net" kvg:element CDATA #IMPLIED kvg:variant CDATA #IMPLIED kvg:partial CDATA #IMPLIED kvg:original CDATA #IMPLIED kvg:part CDATA #IMPLIED kvg:number CDATA #IMPLIED kvg:tradForm CDATA #IMPLIED kvg:radicalForm CDATA #IMPLIED kvg:position CDATA #IMPLIED kvg:radical CDATA #IMPLIED kvg:phon CDATA #IMPLIED >
  <!ATTLIST path xmlns:kvg CDATA #FIXED "http://kanjivg.tagaini.net" kvg:type CDATA #IMPLIED >
  ]>
  <svg xmlns="http://www.w3.org/2000/svg" width="109" height="109" viewBox="0 0 109 109">
<g id="kvg:StrokePaths_08981" style="fill:none;stroke:#000000;stroke-width:3;stroke-linecap:round;stroke-linejoin:round;">
<g id="kvg:08981" kvg:element="要">
	<g id="kvg:08981-g1" kvg:element="覀" kvg:variant="true" kvg:original="襾" kvg:position="top" kvg:radical="general">
		<path style="fill:none;stroke:#808080" id="kvg:08981-s1" kvg:type="㇐" d="M21,17.24c1.78,0.73,5.05,0.84,6.84,0.73c13.66-0.84,39.57-3.31,50.42-4c2.97-0.19,4.87-0.34,6.24-0.04"/>
		<path style="fill:none;stroke:#808080" id="kvg:08981-s2" kvg:type="㇑" d="M22.75,31.19c0.78,0.78,1.46,1.75,1.57,2.88c0.83,3.01,1.49,7.88,2.12,12.18c0.22,1.5,0.43,2.94,0.65,4.2"/>
		<path style="fill:none;stroke-width:4;" id="kvg:08981-s3" kvg:type="㇕a" d="M25.29,33.28c20.46-2.78,40.83-4.65,54.33-5.54c3.65-0.24,5.58,0.93,4.45,5.03c-0.81,2.92-1.86,6.35-3.15,9.87c-0.5,1.37-1.04,2.75-1.61,4.12"/>
<circle cx="25.29" cy="33.28" r="5" style="fill:red;stroke:red;" />
	</g>
	<g id="kvg:08981-g2" kvg:element="女" kvg:position="bottom">
	</g>
</g>
</g></svg>