<?xml version="1.0" encoding="UTF-8"?>
  <!DOCTYPE svg PUBLIC "-//W3C//DTD SVG 1.0//EN" "http://www.w3.org/TR/2001/REC-SVG-20010904/DTD/svg10.dtd" [
  <!ATTLIST g xmlns:kvg CDATA #FIXED "http://kanjivg.tagaini.net" kvg:element CDATA #IMPLIED kvg:variant CDATA #IMPLIED kvg:partial CDATA #IMPLIED kvg:original CDATA #IMPLIED kvg:part CDATA #IMPLIED kvg:number CDATA #IMPLIED kvg:tradForm CDATA #IMPLIED kvg:radicalForm CDATA #IMPLIED kvg:position CDATA #IMPLIED kvg:radical CDATA #IMPLIED kvg:phon CDATA #IMPLIED >
  <!ATTLIST path xmlns:kvg CDATA #FIXED "http://kanjivg.tagaini.net" kvg:type CDATA #IMPLIED >
  ]>
  <svg xmlns="http://www.w3.org/2000/svg" width="109" height="109" viewBox="0 0 109 109">
<g id="kvg:StrokePaths_0899a" style="fill:none;stroke:#000000;stroke-width:3;stroke-linecap:round;stroke-linejoin:round;">
<g id="kvg:0899a" kvg:element="覚">
	<g id="kvg:0899a-g1" kvg:position="top" kvg:phon="𦥯">
		<g id="kvg:0899a-g2" kvg:element="⺍" kvg:original="つ">
			<path style="fill:none;stroke:#808080" id="kvg:0899a-s1" kvg:type="㇔" d="M30.5,16.5c3.5,3.23,7.25,8.88,7.75,10.5"/>
			<path style="fill:none;stroke:#808080" id="kvg:0899a-s2" kvg:type="㇔" d="M49.25,13c1.64,2,5.59,7.25,6.25,10.5"/>
			<path style="fill:none;stroke:#808080" id="kvg:0899a-s3" kvg:type="㇒" d="M78.06,10.25c0.44,1.12,0.29,2.02-0.33,3C76,16,71.16,21.75,69,24"/>
		</g>
		<g id="kvg:0899a-g3" kvg:element="冖">
			<path style="fill:none;stroke:#808080" id="kvg:0899a-s4" kvg:type="㇔" d="M22.67,33.25c-0.3,5.62-2.05,11.75-4.59,17.25"/>
			<path style="fill:none;stroke:#808080" id="kvg:0899a-s5" kvg:type="㇖b" d="M24,35.5c21.75-2.38,44.88-4.88,61.5-5.75c11.76-0.62,4.75,5.25,1.5,8"/>
		</g>
	</g>
	<g id="kvg:0899a-g4" kvg:element="見" kvg:position="bottom" kvg:radical="general">
		<g id="kvg:0899a-g5" kvg:element="目" kvg:position="top">
			<path style="fill:none;stroke-width:4;" id="kvg:0899a-s6" kvg:type="㇑" d="M36.28,42.83c0.53,0.75,1.31,2.79,1.31,3.83c0,0.81,0,18.28,0,26.84c0,2.4,0,4.09,0,4.54"/>
<circle cx="36.28" cy="42.83" r="5" style="fill:red;stroke:red;" />
		</g>
		<g id="kvg:0899a-g6" kvg:position="bottom">
		</g>
	</g>
</g>
</g></svg>