<?xml version="1.0" encoding="UTF-8"?>
  <!DOCTYPE svg PUBLIC "-//W3C//DTD SVG 1.0//EN" "http://www.w3.org/TR/2001/REC-SVG-20010904/DTD/svg10.dtd" [
  <!ATTLIST g xmlns:kvg CDATA #FIXED "http://kanjivg.tagaini.net" kvg:element CDATA #IMPLIED kvg:variant CDATA #IMPLIED kvg:partial CDATA #IMPLIED kvg:original CDATA #IMPLIED kvg:part CDATA #IMPLIED kvg:number CDATA #IMPLIED kvg:tradForm CDATA #IMPLIED kvg:radicalForm CDATA #IMPLIED kvg:position CDATA #IMPLIED kvg:radical CDATA #IMPLIED kvg:phon CDATA #IMPLIED >
  <!ATTLIST path xmlns:kvg CDATA #FIXED "http://kanjivg.tagaini.net" kvg:type CDATA #IMPLIED >
  ]>
  <svg xmlns="http://www.w3.org/2000/svg" width="109" height="109" viewBox="0 0 109 109">
<g id="kvg:StrokePaths_08996" style="fill:none;stroke:#000000;stroke-width:3;stroke-linecap:round;stroke-linejoin:round;">
<g id="kvg:08996" kvg:element="視">
	<g id="kvg:08996-g1" kvg:element="礻" kvg:variant="true" kvg:original="示" kvg:position="left" kvg:radical="nelson" kvg:phon="しめすへん/示V">
		<path style="fill:none;stroke:#808080" id="kvg:08996-s1" kvg:type="㇔" d="M22.08,15.25c3.41,2.12,7.07,5.29,10,9"/>
		<path style="fill:none;stroke:#808080" id="kvg:08996-s2" kvg:type="㇇" d="M10.83,39.25c2.21,0.98,4.59,0.88,6.92,0.37c5.93-1.3,16.96-4.23,19.08-4.87c2.5-0.75,4.45,1.22,3,3.5c-5.95,9.38-18,22.5-26.75,30.25"/>
		<path style="fill:none;stroke:#808080" id="kvg:08996-s3" kvg:type="㇑" d="M28.25,55.11c0.88,0.88,1.27,2.52,1.27,4.39c0,5.23,0.03,22.47,0.05,30.75c0,2.6,0.01,4.31,0.01,4.5"/>
		<path style="fill:none;stroke:#808080" id="kvg:08996-s4" kvg:type="㇔" d="M32.25,54.25c3.18,2.65,6.6,6.61,9.33,11.25"/>
	</g>
	<g id="kvg:08996-g2" kvg:element="見" kvg:position="right" kvg:radical="tradit">
		<g id="kvg:08996-g3" kvg:element="目" kvg:position="top">
			<path style="fill:none;stroke-width:4;" id="kvg:08996-s5" kvg:type="㇑" d="M53.01,17.73c0.82,0.81,1.37,1.87,1.37,3.3c0,1.16,0,28.75-0.01,39.47c0,2.51,0,4.11,0,4.25"/>
<circle cx="53.01" cy="17.73" r="5" style="fill:red;stroke:red;" />
		</g>
		<g id="kvg:08996-g4" kvg:position="bottom">
		</g>
	</g>
</g>
</g></svg>