<?xml version="1.0" encoding="UTF-8"?>
  <!DOCTYPE svg PUBLIC "-//W3C//DTD SVG 1.0//EN" "http://www.w3.org/TR/2001/REC-SVG-20010904/DTD/svg10.dtd" [
  <!ATTLIST g xmlns:kvg CDATA #FIXED "http://kanjivg.tagaini.net" kvg:element CDATA #IMPLIED kvg:variant CDATA #IMPLIED kvg:partial CDATA #IMPLIED kvg:original CDATA #IMPLIED kvg:part CDATA #IMPLIED kvg:number CDATA #IMPLIED kvg:tradForm CDATA #IMPLIED kvg:radicalForm CDATA #IMPLIED kvg:position CDATA #IMPLIED kvg:radical CDATA #IMPLIED kvg:phon CDATA #IMPLIED >
  <!ATTLIST path xmlns:kvg CDATA #FIXED "http://kanjivg.tagaini.net" kvg:type CDATA #IMPLIED >
  ]>
  <svg xmlns="http://www.w3.org/2000/svg" width="109" height="109" viewBox="0 0 109 109">
<g id="kvg:StrokePaths_089aa" style="fill:none;stroke:#000000;stroke-width:3;stroke-linecap:round;stroke-linejoin:round;">
<g id="kvg:089aa" kvg:element="親">
	<g id="kvg:089aa-g1" kvg:position="left" kvg:phon="辛+木">
		<g id="kvg:089aa-g2" kvg:element="立">
			<g id="kvg:089aa-g3" kvg:element="亠" kvg:position="top">
				<path style="fill:none;stroke:#808080" id="kvg:089aa-s1" kvg:type="㇑a" d="M31.18,13.51c0.97,0.97,1.62,2.28,1.62,3.71c0,1.44,0.01,4.82,0.01,8.72"/>
				<path style="fill:none;stroke:#808080" id="kvg:089aa-s2" kvg:type="㇐" d="M16.82,29.19c1.12,0.11,2.45,0.15,3.55,0.03C25.75,28.62,36,26.62,42.39,26c1.86-0.18,3.24-0.25,4.27,0.02"/>
			</g>
			<g id="kvg:089aa-g4" kvg:position="bottom">
				<path style="fill:none;stroke:#808080" id="kvg:089aa-s3" kvg:type="㇔" d="M21.81,33.25c2.44,3.38,4.02,7.74,4.35,10.98"/>
				<path style="fill:none;stroke:#808080" id="kvg:089aa-s4" kvg:type="㇒" d="M40.93,30.75c0.25,0.67,0.28,1.87,0.11,2.58c-0.4,3.04-2.04,7.79-2.42,9.67"/>
				<path style="fill:none;stroke:#808080" id="kvg:089aa-s5" kvg:type="㇐" d="M12.92,48.45c2.08,0.3,3.29,0.33,5.54,0.03c7.29-0.98,21.04-3.98,28.37-4.49c1.43-0.1,3.45-0.04,4.17,0.01"/>
			</g>
		</g>
		<g id="kvg:089aa-g5" kvg:element="木">
			<path style="fill:none;stroke-width:4;" id="kvg:089aa-s6" kvg:type="㇐" d="M13.76,62.95c0.77,0.23,2.48,0.59,4.5,0.34c7.37-0.91,18.57-3.05,26.1-4.48c2.01-0.38,3.14-0.3,4.14-0.3"/>
<circle cx="13.76" cy="62.95" r="5" style="fill:red;stroke:red;" />
		</g>
	</g>
	<g id="kvg:089aa-g6" kvg:element="見" kvg:position="right" kvg:radical="general">
		<g id="kvg:089aa-g7" kvg:element="目">
		</g>
	</g>
</g>
</g></svg>