<?xml version="1.0" encoding="UTF-8"?>
  <!DOCTYPE svg PUBLIC "-//W3C//DTD SVG 1.0//EN" "http://www.w3.org/TR/2001/REC-SVG-20010904/DTD/svg10.dtd" [
  <!ATTLIST g xmlns:kvg CDATA #FIXED "http://kanjivg.tagaini.net" kvg:element CDATA #IMPLIED kvg:variant CDATA #IMPLIED kvg:partial CDATA #IMPLIED kvg:original CDATA #IMPLIED kvg:part CDATA #IMPLIED kvg:number CDATA #IMPLIED kvg:tradForm CDATA #IMPLIED kvg:radicalForm CDATA #IMPLIED kvg:position CDATA #IMPLIED kvg:radical CDATA #IMPLIED kvg:phon CDATA #IMPLIED >
  <!ATTLIST path xmlns:kvg CDATA #FIXED "http://kanjivg.tagaini.net" kvg:type CDATA #IMPLIED >
  ]>
  <svg xmlns="http://www.w3.org/2000/svg" width="109" height="109" viewBox="0 0 109 109">
<g id="kvg:StrokePaths_089b3" style="fill:none;stroke:#000000;stroke-width:3;stroke-linecap:round;stroke-linejoin:round;">
<g id="kvg:089b3" kvg:element="観">
	<g id="kvg:089b3-g1" kvg:position="left" kvg:phon="雚V">
		<g id="kvg:089b3-g2" kvg:element="𠂉">
			<path style="fill:none;stroke:#808080" id="kvg:089b3-s1" kvg:type="㇒" d="M31.2,12.43c0.05,0.59,0.26,1.59-0.1,2.39C28.25,21,24,28,13.64,36.4"/>
			<path style="fill:none;stroke:#808080" id="kvg:089b3-s2" kvg:type="㇐" d="M27,27.5c1,0.12,1.8,0.22,3.25,0.06c5.29-0.59,14.44-2.52,16.5-2.81c1.24-0.18,2.5-0.25,3.75,0"/>
		</g>
		<path style="fill:none;stroke:#808080" id="kvg:089b3-s3" kvg:type="㇐" d="M12,43.39c1.94,0.79,4.86,0.71,6.87,0.46c7.63-0.97,20.03-3.04,28-4.4c2.19-0.37,4.88-0.82,6.63-0.44"/>
		<g id="kvg:089b3-g3" kvg:element="隹">
			<g id="kvg:089b3-g4" kvg:element="亻" kvg:variant="true" kvg:original="人">
				<path style="fill:none;stroke:#808080" id="kvg:089b3-s4" kvg:type="㇒" d="M33.81,30.5c0.11,0.97,0.17,2.08-0.09,3.14C30.5,46.75,21.12,61.62,11.62,70"/>
				<path style="fill:none;stroke-width:4;" id="kvg:089b3-s5" kvg:type="㇑" d="M24.67,56.28c0.59,0.59,0.75,1.38,0.75,2.59c0,8.22-0.01,24.1-0.02,33.01c0,2.38,0,4.26,0,5.37"/>
<circle cx="24.67" cy="56.28" r="5" style="fill:red;stroke:red;" />
			</g>
		</g>
	</g>
	<g id="kvg:089b3-g5" kvg:element="見" kvg:position="right" kvg:radical="general">
		<g id="kvg:089b3-g6" kvg:element="目" kvg:position="top">
		</g>
		<g id="kvg:089b3-g7" kvg:position="bottom">
		</g>
	</g>
</g>
</g></svg>