<?xml version="1.0" encoding="UTF-8"?>
  <!DOCTYPE svg PUBLIC "-//W3C//DTD SVG 1.0//EN" "http://www.w3.org/TR/2001/REC-SVG-20010904/DTD/svg10.dtd" [
  <!ATTLIST g xmlns:kvg CDATA #FIXED "http://kanjivg.tagaini.net" kvg:element CDATA #IMPLIED kvg:variant CDATA #IMPLIED kvg:partial CDATA #IMPLIED kvg:original CDATA #IMPLIED kvg:part CDATA #IMPLIED kvg:number CDATA #IMPLIED kvg:tradForm CDATA #IMPLIED kvg:radicalForm CDATA #IMPLIED kvg:position CDATA #IMPLIED kvg:radical CDATA #IMPLIED kvg:phon CDATA #IMPLIED >
  <!ATTLIST path xmlns:kvg CDATA #FIXED "http://kanjivg.tagaini.net" kvg:type CDATA #IMPLIED >
  ]>
  <svg xmlns="http://www.w3.org/2000/svg" width="109" height="109" viewBox="0 0 109 109">
<g id="kvg:StrokePaths_089e3" style="fill:none;stroke:#000000;stroke-width:3;stroke-linecap:round;stroke-linejoin:round;">
<g id="kvg:089e3" kvg:element="解">
	<g id="kvg:089e3-g1" kvg:element="角" kvg:position="left" kvg:radical="general">
		<g id="kvg:089e3-g2" kvg:element="𠂊" kvg:variant="true" kvg:original="勹" kvg:position="top">
			<path style="fill:none;stroke:#808080" id="kvg:089e3-s1" kvg:type="㇒" d="M28.73,11c0.04,0.49,0.19,1.3-0.08,1.96c-1.9,4.54-6.77,12.16-15.15,18.79"/>
			<path style="fill:none;stroke:#808080" id="kvg:089e3-s2" kvg:type="㇇a" d="M28.39,18c2,0,10.36-1.25,14.07-2.25c2.16-0.58,3.24,1.1,2,2.75c-4.33,5.75-6.96,9-10.9,15.25"/>
		</g>
		<g id="kvg:089e3-g3" kvg:position="bottom">
			<path style="fill:none;stroke:#808080" id="kvg:089e3-s3" kvg:type="㇒" d="M18.17,36.25c0.98,0.98,1.24,2.38,1.23,3.94C19.25,61.25,19.38,80.5,9.5,93.5"/>
			<path style="fill:none;stroke:#808080" id="kvg:089e3-s4" kvg:type="㇆a" d="M20.57,37.45c4.18-0.7,21.17-3.25,23.03-3.46c2.15-0.24,4.16,1.13,4.16,3.96c0,2.55,0.12,34.8,0.12,51.68c0,12.12-5.39,4.75-7.43,2.37"/>
			<path style="fill:none;stroke:#808080" id="kvg:089e3-s5" kvg:type="㇑a" d="M31.42,37.12c0.8,0.8,1.23,2.13,1.23,3.27c0,8.87,0.1,19.62,0.1,25.37"/>
			<path style="fill:none;stroke:#808080" id="kvg:089e3-s6" kvg:type="㇐a" d="M20.32,52.6c7.8-1.1,18.05-2.48,26.12-3.1"/>
			<path style="fill:none;stroke:#808080" id="kvg:089e3-s7" kvg:type="㇐a" d="M19.57,68.5c8.31-1,17.18-2.25,26.94-3"/>
		</g>
	</g>
	<g id="kvg:089e3-g4" kvg:position="right">
		<g id="kvg:089e3-g5" kvg:element="刀" kvg:position="top">
			<path style="fill:none;stroke-width:4;" id="kvg:089e3-s8" kvg:type="㇆" d="M59.14,18.67c1.5,0.4,3.55,0.43,5.12,0.25c8.32-0.95,20.84-2.92,25.13-3.21c2.97-0.21,3.78,2.12,3.62,3.56c-0.43,3.8-3.85,13.68-7.24,18.63c-4.52,6.61-5.27,1.86-6.91,0.19"/>
<circle cx="59.14" cy="18.67" r="5" style="fill:red;stroke:red;" />
		</g>
		<g id="kvg:089e3-g6" kvg:element="牛" kvg:position="bottom">
		</g>
	</g>
</g>
</g></svg>