<?xml version="1.0" encoding="UTF-8"?>
  <!DOCTYPE svg PUBLIC "-//W3C//DTD SVG 1.0//EN" "http://www.w3.org/TR/2001/REC-SVG-20010904/DTD/svg10.dtd" [
  <!ATTLIST g xmlns:kvg CDATA #FIXED "http://kanjivg.tagaini.net" kvg:element CDATA #IMPLIED kvg:variant CDATA #IMPLIED kvg:partial CDATA #IMPLIED kvg:original CDATA #IMPLIED kvg:part CDATA #IMPLIED kvg:number CDATA #IMPLIED kvg:tradForm CDATA #IMPLIED kvg:radicalForm CDATA #IMPLIED kvg:position CDATA #IMPLIED kvg:radical CDATA #IMPLIED kvg:phon CDATA #IMPLIED >
  <!ATTLIST path xmlns:kvg CDATA #FIXED "http://kanjivg.tagaini.net" kvg:type CDATA #IMPLIED >
  ]>
  <svg xmlns="http://www.w3.org/2000/svg" width="109" height="109" viewBox="0 0 109 109">
<g id="kvg:StrokePaths_08a0e" style="fill:none;stroke:#000000;stroke-width:3;stroke-linecap:round;stroke-linejoin:round;">
<g id="kvg:08a0e" kvg:element="討">
	<g id="kvg:08a0e-g1" kvg:element="言" kvg:position="left" kvg:radical="general">
		<path style="fill:none;stroke:#808080" id="kvg:08a0e-s1" kvg:type="㇔" d="M27,13.75c2.71,1.68,7,6.89,7.68,9.5"/>
		<path style="fill:none;stroke:#808080" id="kvg:08a0e-s2" kvg:type="㇐" d="M12.12,32.83c1.7,0.56,4.01,0.25,5.76,0.14c7.65-0.5,17.35-1.91,23.87-2.9c1.92-0.29,3.62-0.54,5.6-0.15"/>
		<path style="fill:none;stroke:#808080" id="kvg:08a0e-s3" kvg:type="㇐" d="M20.68,45.81c1.26,0.36,2.89,0.16,4.2,0.09c4.05-0.2,9.13-1.06,13.23-1.65c1.23-0.18,2.68-0.46,3.91-0.25"/>
		<path style="fill:none;stroke:#808080" id="kvg:08a0e-s4" kvg:type="㇐" d="M21.55,58.08c1.16,0.35,2.74,0.15,3.95,0.07c3.76-0.24,9.21-1.03,13.13-1.44c1.22-0.13,2.49-0.21,3.71,0"/>
		<g id="kvg:08a0e-g2" kvg:element="口">
			<path style="fill:none;stroke-width:4;" id="kvg:08a0e-s5" kvg:type="㇑" d="M20.76,71.07c0.85,0.78,1.06,1.99,1.28,3.05c0.73,3.42,1.42,8.69,2.22,13.59c0.24,1.46,0.47,2.83,0.69,4.04"/>
<circle cx="20.76" cy="71.07" r="5" style="fill:red;stroke:red;" />
		</g>
	</g>
	<g id="kvg:08a0e-g3" kvg:element="寸" kvg:position="right" kvg:phon="寸">
	</g>
</g>
</g></svg>