<?xml version="1.0" encoding="UTF-8"?>
  <!DOCTYPE svg PUBLIC "-//W3C//DTD SVG 1.0//EN" "http://www.w3.org/TR/2001/REC-SVG-20010904/DTD/svg10.dtd" [
  <!ATTLIST g xmlns:kvg CDATA #FIXED "http://kanjivg.tagaini.net" kvg:element CDATA #IMPLIED kvg:variant CDATA #IMPLIED kvg:partial CDATA #IMPLIED kvg:original CDATA #IMPLIED kvg:part CDATA #IMPLIED kvg:number CDATA #IMPLIED kvg:tradForm CDATA #IMPLIED kvg:radicalForm CDATA #IMPLIED kvg:position CDATA #IMPLIED kvg:radical CDATA #IMPLIED kvg:phon CDATA #IMPLIED >
  <!ATTLIST path xmlns:kvg CDATA #FIXED "http://kanjivg.tagaini.net" kvg:type CDATA #IMPLIED >
  ]>
  <svg xmlns="http://www.w3.org/2000/svg" width="109" height="109" viewBox="0 0 109 109">
<g id="kvg:StrokePaths_08a00" style="fill:none;stroke:#000000;stroke-width:3;stroke-linecap:round;stroke-linejoin:round;">
<g id="kvg:08a00" kvg:element="言" kvg:radical="general">
	<path style="fill:none;stroke:#808080" id="kvg:08a00-s1" kvg:type="㇔" d="M48.38,11.25c4.38,2.5,8.88,7.75,10.38,11.5"/>
	<path style="fill:none;stroke:#808080" id="kvg:08a00-s2" kvg:type="㇐" d="M14.88,33.98c2.52,0.54,6.91,0.76,9.42,0.54c22.95-2.02,40.82-4.02,59.99-4.73c4.2-0.16,6.73,0.26,8.83,0.53"/>
	<path style="fill:none;stroke:#808080" id="kvg:08a00-s3" kvg:type="㇐" d="M38.63,46.65C40,47,41,47,42.45,46.88c7.06-0.6,18.6-2.27,22.81-2.6c1.86-0.15,3.36-0.15,4.74,0.22"/>
	<path style="fill:none;stroke-width:4;" id="kvg:08a00-s4" kvg:type="㇐" d="M37.88,61.4c1.5,0.23,2.75,0.35,4.16,0.23c7.68-0.67,20.23-2.28,24.8-2.85c2.16-0.27,3.66-0.15,5.17,0.22"/>
<circle cx="37.88" cy="61.4" r="5" style="fill:red;stroke:red;" />
	<g id="kvg:08a00-g1" kvg:element="口">
	</g>
</g>
</g></svg>