<?xml version="1.0" encoding="UTF-8"?>
  <!DOCTYPE svg PUBLIC "-//W3C//DTD SVG 1.0//EN" "http://www.w3.org/TR/2001/REC-SVG-20010904/DTD/svg10.dtd" [
  <!ATTLIST g xmlns:kvg CDATA #FIXED "http://kanjivg.tagaini.net" kvg:element CDATA #IMPLIED kvg:variant CDATA #IMPLIED kvg:partial CDATA #IMPLIED kvg:original CDATA #IMPLIED kvg:part CDATA #IMPLIED kvg:number CDATA #IMPLIED kvg:tradForm CDATA #IMPLIED kvg:radicalForm CDATA #IMPLIED kvg:position CDATA #IMPLIED kvg:radical CDATA #IMPLIED kvg:phon CDATA #IMPLIED >
  <!ATTLIST path xmlns:kvg CDATA #FIXED "http://kanjivg.tagaini.net" kvg:type CDATA #IMPLIED >
  ]>
  <svg xmlns="http://www.w3.org/2000/svg" width="109" height="109" viewBox="0 0 109 109">
<g id="kvg:StrokePaths_08a08" style="fill:none;stroke:#000000;stroke-width:3;stroke-linecap:round;stroke-linejoin:round;">
<g id="kvg:08a08" kvg:element="計">
	<g id="kvg:08a08-g1" kvg:element="言" kvg:position="left" kvg:radical="general">
		<path style="fill:none;stroke:#808080" id="kvg:08a08-s1" kvg:type="㇔" d="M29.56,16c2.45,1.59,6.32,6.53,6.94,9"/>
		<path style="fill:none;stroke:#808080" id="kvg:08a08-s2" kvg:type="㇐" d="M12.25,36.16c2.23,0.34,3.73,0.33,6,0.03c8.88-1.19,17.01-2.69,24.93-3.69c1.71-0.22,4.31-0.12,5.17,0.02"/>
		<path style="fill:none;stroke:#808080" id="kvg:08a08-s3" kvg:type="㇐" d="M21.05,47.19c0.7,0.19,1.67,0.24,3.19,0.18c4.09-0.2,10.74-1.69,15.14-2.53c1.23-0.23,2-0.34,3.22-0.08"/>
		<path style="fill:none;stroke:#808080" id="kvg:08a08-s4" kvg:type="㇐" d="M21.48,58.42c0.76,0.29,1.77,0.2,3.19,0.15c4.1-0.15,9.83-0.82,14.29-1.76c1.77-0.37,3.04-0.44,4.22-0.1"/>
		<g id="kvg:08a08-g2" kvg:element="口">
			<path style="fill:none;stroke:#808080" id="kvg:08a08-s5" kvg:type="㇑" d="M21.8,71.87c0.6,0.6,1.05,1.61,1.18,2.08c1.01,3.46,2.11,9.36,3.29,15.25c0.23,1.13,0.45,2.21,0.66,3.19"/>
			<path style="fill:none;stroke:#808080" id="kvg:08a08-s6" kvg:type="㇕b" d="M23.78,72.91c5.91-0.99,14.56-2.63,19.69-3.67c2.41-0.49,3.79,0.76,3.33,2.44c-0.86,3.17-2.19,9.42-2.94,13.34"/>
			<path style="fill:none;stroke-width:4;" id="kvg:08a08-s7" kvg:type="㇐b" d="M26.57,88.66c4.21-0.67,10.05-1.66,16.92-2.46c0.98-0.12,1.88-0.32,2.92-0.22"/>
<circle cx="26.57" cy="88.66" r="5" style="fill:red;stroke:red;" />
		</g>
	</g>
	<g id="kvg:08a08-g3" kvg:element="十" kvg:position="right">
	</g>
</g>
</g></svg>