<?xml version="1.0" encoding="UTF-8"?>
  <!DOCTYPE svg PUBLIC "-//W3C//DTD SVG 1.0//EN" "http://www.w3.org/TR/2001/REC-SVG-20010904/DTD/svg10.dtd" [
  <!ATTLIST g xmlns:kvg CDATA #FIXED "http://kanjivg.tagaini.net" kvg:element CDATA #IMPLIED kvg:variant CDATA #IMPLIED kvg:partial CDATA #IMPLIED kvg:original CDATA #IMPLIED kvg:part CDATA #IMPLIED kvg:number CDATA #IMPLIED kvg:tradForm CDATA #IMPLIED kvg:radicalForm CDATA #IMPLIED kvg:position CDATA #IMPLIED kvg:radical CDATA #IMPLIED kvg:phon CDATA #IMPLIED >
  <!ATTLIST path xmlns:kvg CDATA #FIXED "http://kanjivg.tagaini.net" kvg:type CDATA #IMPLIED >
  ]>
  <svg xmlns="http://www.w3.org/2000/svg" width="109" height="109" viewBox="0 0 109 109">
<g id="kvg:StrokePaths_08a13" style="fill:none;stroke:#000000;stroke-width:3;stroke-linecap:round;stroke-linejoin:round;">
<g id="kvg:08a13" kvg:element="訓">
	<g id="kvg:08a13-g1" kvg:element="言" kvg:position="left" kvg:radical="general">
		<path style="fill:none;stroke:#808080" id="kvg:08a13-s1" kvg:type="㇔" d="M23.88,13.25c3.4,1.72,8.78,7.07,9.62,9.75"/>
		<path style="fill:none;stroke:#808080" id="kvg:08a13-s2" kvg:type="㇐" d="M13.62,31.58c1.52,0.56,3.7,0.24,5.27,0.13c7.06-0.52,16.37-1.97,21.88-2.61c1.54-0.18,3.05-0.51,4.58-0.18"/>
		<path style="fill:none;stroke:#808080" id="kvg:08a13-s3" kvg:type="㇐" d="M18.98,44.56c1.17,0.37,2.81,0.15,4.02,0.07c3.83-0.25,10.63-1.25,13.93-2.04c1.45-0.34,2.99-0.63,4.46-0.35"/>
		<path style="fill:none;stroke:#808080" id="kvg:08a13-s4" kvg:type="㇐" d="M19.48,56.08c0.98,0.34,2.36,0.15,3.4,0.08c3.24-0.22,9.07-1.21,12.76-1.49c1.5-0.11,3.24-0.3,4.89-0.21"/>
		<g id="kvg:08a13-g2" kvg:element="口">
			<path style="fill:none;stroke:#808080" id="kvg:08a13-s5" kvg:type="㇑" d="M18.64,69.4c0.72,0.62,1.1,1.4,1.12,2.34c0.74,3.72,1.33,9.34,1.77,15c0.08,1,0.15,2.01,0.22,3"/>
			<path style="fill:none;stroke:#808080" id="kvg:08a13-s6" kvg:type="㇕b" d="M20.56,70.87c5.99-0.83,10.99-1.72,16.44-2.56c2.72-0.42,3.65,0.73,3.17,3.34c-0.71,3.82-1.07,7.68-2.5,14.06"/>
			<path style="fill:none;stroke-width:4;" id="kvg:08a13-s7" kvg:type="㇐b" d="M22.47,87.8c4.18-0.47,7.64-0.92,13.78-1.36c0.91-0.07,1.88-0.13,2.91-0.2"/>
<circle cx="22.47" cy="87.8" r="5" style="fill:red;stroke:red;" />
		</g>
	</g>
	<g id="kvg:08a13-g3" kvg:element="川" kvg:variant="true" kvg:original="巛" kvg:position="right" kvg:phon="川">
	</g>
</g>
</g></svg>