<?xml version="1.0" encoding="UTF-8"?>
  <!DOCTYPE svg PUBLIC "-//W3C//DTD SVG 1.0//EN" "http://www.w3.org/TR/2001/REC-SVG-20010904/DTD/svg10.dtd" [
  <!ATTLIST g xmlns:kvg CDATA #FIXED "http://kanjivg.tagaini.net" kvg:element CDATA #IMPLIED kvg:variant CDATA #IMPLIED kvg:partial CDATA #IMPLIED kvg:original CDATA #IMPLIED kvg:part CDATA #IMPLIED kvg:number CDATA #IMPLIED kvg:tradForm CDATA #IMPLIED kvg:radicalForm CDATA #IMPLIED kvg:position CDATA #IMPLIED kvg:radical CDATA #IMPLIED kvg:phon CDATA #IMPLIED >
  <!ATTLIST path xmlns:kvg CDATA #FIXED "http://kanjivg.tagaini.net" kvg:type CDATA #IMPLIED >
  ]>
  <svg xmlns="http://www.w3.org/2000/svg" width="109" height="109" viewBox="0 0 109 109">
<g id="kvg:StrokePaths_08a18" style="fill:none;stroke:#000000;stroke-width:3;stroke-linecap:round;stroke-linejoin:round;">
<g id="kvg:08a18" kvg:element="記">
	<g id="kvg:08a18-g1" kvg:element="言" kvg:position="left" kvg:radical="general">
		<path style="fill:none;stroke:#808080" id="kvg:08a18-s1" kvg:type="㇔" d="M25.5,14.25c3,1.59,7.75,6.53,8.5,9"/>
		<path style="fill:none;stroke:#808080" id="kvg:08a18-s2" kvg:type="㇐" d="M13.37,33.72c0.67,0.28,3.21,0.33,3.88,0.28c8.25-0.52,16.75-1.75,24-3c1.1-0.19,3.79-0.36,4.34-0.22"/>
		<path style="fill:none;stroke:#808080" id="kvg:08a18-s3" kvg:type="㇐" d="M21.23,47.01c1.14,0.37,2.02,0.24,3.1,0.18c3.97-0.23,10.1-1.54,13.96-2.06C39.25,45,40.75,45,41.65,45.3"/>
		<path style="fill:none;stroke:#808080" id="kvg:08a18-s4" kvg:type="㇐" d="M21.73,59.64C22.62,60,24,59.91,25.08,59.8c4.17-0.42,8.79-1.17,14.09-2.29c0.82-0.17,2.45-0.26,3.36-0.1"/>
		<g id="kvg:08a18-g2" kvg:element="口">
			<path style="fill:none;stroke:#808080" id="kvg:08a18-s5" kvg:type="㇑" d="M19.64,72.65c0.86,0.6,1.25,1.66,1.36,2.15c0.82,3.5,1.32,8.43,2.2,14.17c0.19,1.23,0.38,2.42,0.55,3.53"/>
			<path style="fill:none;stroke-width:4;" id="kvg:08a18-s6" kvg:type="㇕b" d="M22,73.74c5.78-0.95,14.6-2.33,19.74-3.12c1.49-0.22,2.39,1.05,2.18,2.08c-0.72,3.47-2.53,9.95-3.5,14.38"/>
<circle cx="22" cy="73.74" r="5" style="fill:red;stroke:red;" />
		</g>
	</g>
	<g id="kvg:08a18-g3" kvg:element="己" kvg:position="right" kvg:phon="己">
	</g>
</g>
</g></svg>