<?xml version="1.0" encoding="UTF-8"?>
  <!DOCTYPE svg PUBLIC "-//W3C//DTD SVG 1.0//EN" "http://www.w3.org/TR/2001/REC-SVG-20010904/DTD/svg10.dtd" [
  <!ATTLIST g xmlns:kvg CDATA #FIXED "http://kanjivg.tagaini.net" kvg:element CDATA #IMPLIED kvg:variant CDATA #IMPLIED kvg:partial CDATA #IMPLIED kvg:original CDATA #IMPLIED kvg:part CDATA #IMPLIED kvg:number CDATA #IMPLIED kvg:tradForm CDATA #IMPLIED kvg:radicalForm CDATA #IMPLIED kvg:position CDATA #IMPLIED kvg:radical CDATA #IMPLIED kvg:phon CDATA #IMPLIED >
  <!ATTLIST path xmlns:kvg CDATA #FIXED "http://kanjivg.tagaini.net" kvg:type CDATA #IMPLIED >
  ]>
  <svg xmlns="http://www.w3.org/2000/svg" width="109" height="109" viewBox="0 0 109 109">
<g id="kvg:StrokePaths_08a33" style="fill:none;stroke:#000000;stroke-width:3;stroke-linecap:round;stroke-linejoin:round;">
<g id="kvg:08a33" kvg:element="訳">
	<g id="kvg:08a33-g1" kvg:element="言" kvg:position="left" kvg:radical="general">
		<path style="fill:none;stroke:#808080" id="kvg:08a33-s1" kvg:type="㇔" d="M23.55,13.25c2.69,1.41,6.96,5.8,7.63,8"/>
		<path style="fill:none;stroke:#808080" id="kvg:08a33-s2" kvg:type="㇐" d="M10.62,31.83c1.7,0.56,4.01,0.55,5.76,0.39c7.62-0.72,15.85-1.79,22.38-2.67c2.14-0.29,4.19-0.54,6.34-0.12"/>
		<path style="fill:none;stroke:#808080" id="kvg:08a33-s3" kvg:type="㇐" d="M16.43,44.81c1.28,0.36,3.01,0.25,4.32,0.07c4.27-0.59,9-1.66,13.01-2.35c1.39-0.24,3.11-0.52,4.51-0.28"/>
		<path style="fill:none;stroke:#808080" id="kvg:08a33-s4" kvg:type="㇐" d="M17.05,55.83c1.21,0.37,2.98,0.17,4.22,0.03c3.67-0.39,7.21-1.02,12.59-2.09c1.38-0.27,3.07-0.56,4.47-0.31"/>
		<g id="kvg:08a33-g2" kvg:element="口">
			<path style="fill:none;stroke:#808080" id="kvg:08a33-s5" kvg:type="㇑" d="M14.26,68.4c0.86,0.86,1.39,2.21,1.72,3.95c1.14,6.03,1.83,9.96,2.47,15.63c0.16,1.39,0.3,2.75,0.41,4.02"/>
			<path style="fill:none;stroke:#808080" id="kvg:08a33-s6" kvg:type="㇕b" d="M16.19,70.12c7.93-1.5,13.03-2.16,19.19-3.03c2.69-0.38,4.35,0.49,3.77,3.54c-1.03,5.37-1.99,9.41-3.59,15.83"/>
			<path style="fill:none;stroke-width:4;" id="kvg:08a33-s7" kvg:type="㇐b" d="M18.92,89.05c4.49-0.45,9.18-0.83,14.81-1.42c1.11-0.12,2.28-0.25,3.49-0.38"/>
<circle cx="18.92" cy="89.05" r="5" style="fill:red;stroke:red;" />
		</g>
	</g>
	<g id="kvg:08a33-g3" kvg:element="尺" kvg:position="right" kvg:phon="尺">
		<g id="kvg:08a33-g4" kvg:element="尸">
			<g id="kvg:08a33-g5" kvg:element="八" kvg:part="1">
			</g>
		</g>
		<g id="kvg:08a33-g6" kvg:element="八" kvg:part="2">
		</g>
	</g>
</g>
</g></svg>