<?xml version="1.0" encoding="UTF-8"?>
  <!DOCTYPE svg PUBLIC "-//W3C//DTD SVG 1.0//EN" "http://www.w3.org/TR/2001/REC-SVG-20010904/DTD/svg10.dtd" [
  <!ATTLIST g xmlns:kvg CDATA #FIXED "http://kanjivg.tagaini.net" kvg:element CDATA #IMPLIED kvg:variant CDATA #IMPLIED kvg:partial CDATA #IMPLIED kvg:original CDATA #IMPLIED kvg:part CDATA #IMPLIED kvg:number CDATA #IMPLIED kvg:tradForm CDATA #IMPLIED kvg:radicalForm CDATA #IMPLIED kvg:position CDATA #IMPLIED kvg:radical CDATA #IMPLIED kvg:phon CDATA #IMPLIED >
  <!ATTLIST path xmlns:kvg CDATA #FIXED "http://kanjivg.tagaini.net" kvg:type CDATA #IMPLIED >
  ]>
  <svg xmlns="http://www.w3.org/2000/svg" width="109" height="109" viewBox="0 0 109 109">
<g id="kvg:StrokePaths_08a55" style="fill:none;stroke:#000000;stroke-width:3;stroke-linecap:round;stroke-linejoin:round;">
<g id="kvg:08a55" kvg:element="評">
	<g id="kvg:08a55-g1" kvg:element="言" kvg:position="left" kvg:radical="general">
		<path style="fill:none;stroke:#808080" id="kvg:08a55-s1" kvg:type="㇔" d="M26.05,14.5c2.34,1.41,6.04,5.8,6.63,8"/>
		<path style="fill:none;stroke:#808080" id="kvg:08a55-s2" kvg:type="㇐" d="M12.12,33.08c1.66,0.54,3.81,0.28,5.5,0.07c7.04-0.89,15.51-2.99,21.24-3.6c1.57-0.17,3.17-0.18,4.73,0.12"/>
		<path style="fill:none;stroke:#808080" id="kvg:08a55-s3" kvg:type="㇐" d="M19.68,43.56c1.29,0.37,2.99,0.16,4.33,0.08c3.83-0.24,7.64-1.26,11.5-1.87c1.61-0.25,2.9-0.55,4.51-0.28"/>
		<path style="fill:none;stroke:#808080" id="kvg:08a55-s4" kvg:type="㇐" d="M20.3,55.58c1.16,0.35,2.76,0.16,3.96,0.07c3.54-0.26,8.19-1.34,11.87-1.89c1.44-0.22,3.01-0.55,4.46-0.29"/>
		<g id="kvg:08a55-g2" kvg:element="口">
			<path style="fill:none;stroke-width:4;" id="kvg:08a55-s5" kvg:type="㇑" d="M18.01,68.65c0.9,0.84,1.12,2.18,1.37,3.31c0.79,3.54,1.58,8.63,2.26,14.02c0.17,1.33,0.33,2.67,0.48,4.02"/>
<circle cx="18.01" cy="68.65" r="5" style="fill:red;stroke:red;" />
		</g>
	</g>
	<g id="kvg:08a55-g3" kvg:element="平" kvg:position="right" kvg:phon="平">
		<g id="kvg:08a55-g4" kvg:element="干" kvg:part="1">
		</g>
		<g id="kvg:08a55-g5" kvg:element="干" kvg:part="2">
			<g id="kvg:08a55-g6" kvg:element="十">
			</g>
		</g>
	</g>
</g>
</g></svg>