<?xml version="1.0" encoding="UTF-8"?>
  <!DOCTYPE svg PUBLIC "-//W3C//DTD SVG 1.0//EN" "http://www.w3.org/TR/2001/REC-SVG-20010904/DTD/svg10.dtd" [
  <!ATTLIST g xmlns:kvg CDATA #FIXED "http://kanjivg.tagaini.net" kvg:element CDATA #IMPLIED kvg:variant CDATA #IMPLIED kvg:partial CDATA #IMPLIED kvg:original CDATA #IMPLIED kvg:part CDATA #IMPLIED kvg:number CDATA #IMPLIED kvg:tradForm CDATA #IMPLIED kvg:radicalForm CDATA #IMPLIED kvg:position CDATA #IMPLIED kvg:radical CDATA #IMPLIED kvg:phon CDATA #IMPLIED >
  <!ATTLIST path xmlns:kvg CDATA #FIXED "http://kanjivg.tagaini.net" kvg:type CDATA #IMPLIED >
  ]>
  <svg xmlns="http://www.w3.org/2000/svg" width="109" height="109" viewBox="0 0 109 109">
<g id="kvg:StrokePaths_08a5e" style="fill:none;stroke:#000000;stroke-width:3;stroke-linecap:round;stroke-linejoin:round;">
<g id="kvg:08a5e" kvg:element="詞">
	<g id="kvg:08a5e-g1" kvg:element="言" kvg:position="left" kvg:radical="general">
		<path style="fill:none;stroke:#808080" id="kvg:08a5e-s1" kvg:type="㇔" d="M26.8,12.25c2.43,1.59,6.27,6.53,6.88,9"/>
		<path style="fill:none;stroke:#808080" id="kvg:08a5e-s2" kvg:type="㇐" d="M11.12,29.83c1.7,0.56,4.01,0.26,5.76,0.13c7.78-0.54,17.78-2.01,23.73-2.81c1.78-0.24,3.89-0.53,5.23-0.23"/>
		<path style="fill:none;stroke:#808080" id="kvg:08a5e-s3" kvg:type="㇐" d="M17.68,43.81c1.41,0.4,3.25,0.4,4.68,0.23c4.46-0.52,9.29-1.49,13.26-2.04c1.53-0.21,3.36-0.51,4.89-0.25"/>
		<path style="fill:none;stroke:#808080" id="kvg:08a5e-s4" kvg:type="㇐" d="M18.8,56.33c1.31,0.4,3.25,0.38,4.58,0.28c3.7-0.27,8.74-1.3,12.76-1.89c1.38-0.2,3.06-0.5,4.44-0.25"/>
		<g id="kvg:08a5e-g2" kvg:element="口">
			<path style="fill:none;stroke:#808080" id="kvg:08a5e-s5" kvg:type="㇑" d="M17.01,68.9c0.92,0.92,1.3,1.92,1.53,2.96c0.71,3.22,1.52,8.39,2.28,13.12c0.36,2.27,0.72,4.45,1.05,6.26"/>
			<path style="fill:none;stroke-width:4;" id="kvg:08a5e-s6" kvg:type="㇕b" d="M19.5,70.62c7.02-1.37,14.77-2.54,18.74-3.2c2.64-0.44,3.91,0.85,3.44,3.52c-0.67,3.76-1.49,6.38-2.88,12.77"/>
<circle cx="19.5" cy="70.62" r="5" style="fill:red;stroke:red;" />
		</g>
	</g>
	<g id="kvg:08a5e-g3" kvg:element="司" kvg:position="right" kvg:phon="司">
		<g id="kvg:08a5e-g4" kvg:element="一">
		</g>
		<g id="kvg:08a5e-g5" kvg:element="口">
		</g>
	</g>
</g>
</g></svg>