<?xml version="1.0" encoding="UTF-8"?>
  <!DOCTYPE svg PUBLIC "-//W3C//DTD SVG 1.0//EN" "http://www.w3.org/TR/2001/REC-SVG-20010904/DTD/svg10.dtd" [
  <!ATTLIST g xmlns:kvg CDATA #FIXED "http://kanjivg.tagaini.net" kvg:element CDATA #IMPLIED kvg:variant CDATA #IMPLIED kvg:partial CDATA #IMPLIED kvg:original CDATA #IMPLIED kvg:part CDATA #IMPLIED kvg:number CDATA #IMPLIED kvg:tradForm CDATA #IMPLIED kvg:radicalForm CDATA #IMPLIED kvg:position CDATA #IMPLIED kvg:radical CDATA #IMPLIED kvg:phon CDATA #IMPLIED >
  <!ATTLIST path xmlns:kvg CDATA #FIXED "http://kanjivg.tagaini.net" kvg:type CDATA #IMPLIED >
  ]>
  <svg xmlns="http://www.w3.org/2000/svg" width="109" height="109" viewBox="0 0 109 109">
<g id="kvg:StrokePaths_08a8d" style="fill:none;stroke:#000000;stroke-width:3;stroke-linecap:round;stroke-linejoin:round;">
<g id="kvg:08a8d" kvg:element="認">
	<g id="kvg:08a8d-g1" kvg:element="言" kvg:position="left" kvg:radical="general">
		<path style="fill:none;stroke:#808080" id="kvg:08a8d-s1" kvg:type="㇔" d="M20.5,15.12c2.8,1.43,7.23,5.89,7.93,8.12"/>
		<path style="fill:none;stroke:#808080" id="kvg:08a8d-s2" kvg:type="㇐" d="M10.62,34.08c1.58,0.52,3.65,0.4,5.27,0.17c8.48-1.24,15.13-2.41,20.91-3.3c1.17-0.18,2.95-0.14,3.54-0.02"/>
		<path style="fill:none;stroke:#808080" id="kvg:08a8d-s3" kvg:type="㇐" d="M16.18,45.81c1.15,0.33,2.65,0.45,3.83,0.33c3.62-0.39,9.49-1.64,12.75-2.36c1.39-0.31,3.1-0.52,4.51-0.28"/>
		<path style="fill:none;stroke-width:4;" id="kvg:08a8d-s4" kvg:type="㇐" d="M16.3,58.33c1.24,0.38,3.2,0.34,4.45,0.24c4-0.32,8.88-1.45,12.73-1.96c1.37-0.18,2.51-0.37,3.85-0.14"/>
<circle cx="16.3" cy="58.33" r="5" style="fill:red;stroke:red;" />
		<g id="kvg:08a8d-g2" kvg:element="口">
		</g>
	</g>
	<g id="kvg:08a8d-g3" kvg:element="忍" kvg:position="right" kvg:phon="忍">
		<g id="kvg:08a8d-g4" kvg:element="刃" kvg:position="top">
			<g id="kvg:08a8d-g5" kvg:element="刀">
			</g>
			<g id="kvg:08a8d-g6" kvg:element="丶">
			</g>
		</g>
		<g id="kvg:08a8d-g7" kvg:element="心" kvg:position="bottom">
		</g>
	</g>
</g>
</g></svg>