<?xml version="1.0" encoding="UTF-8"?>
  <!DOCTYPE svg PUBLIC "-//W3C//DTD SVG 1.0//EN" "http://www.w3.org/TR/2001/REC-SVG-20010904/DTD/svg10.dtd" [
  <!ATTLIST g xmlns:kvg CDATA #FIXED "http://kanjivg.tagaini.net" kvg:element CDATA #IMPLIED kvg:variant CDATA #IMPLIED kvg:partial CDATA #IMPLIED kvg:original CDATA #IMPLIED kvg:part CDATA #IMPLIED kvg:number CDATA #IMPLIED kvg:tradForm CDATA #IMPLIED kvg:radicalForm CDATA #IMPLIED kvg:position CDATA #IMPLIED kvg:radical CDATA #IMPLIED kvg:phon CDATA #IMPLIED >
  <!ATTLIST path xmlns:kvg CDATA #FIXED "http://kanjivg.tagaini.net" kvg:type CDATA #IMPLIED >
  ]>
  <svg xmlns="http://www.w3.org/2000/svg" width="109" height="109" viewBox="0 0 109 109">
<g id="kvg:StrokePaths_08a95" style="fill:none;stroke:#000000;stroke-width:3;stroke-linecap:round;stroke-linejoin:round;">
<g id="kvg:08a95" kvg:element="誕">
	<g id="kvg:08a95-g1" kvg:element="言" kvg:position="left" kvg:radical="general">
		<path style="fill:none;stroke:#808080" id="kvg:08a95-s1" kvg:type="㇔" d="M19.3,14c2.52,1.5,6.5,6.17,7.13,8.5"/>
		<path style="fill:none;stroke:#808080" id="kvg:08a95-s2" kvg:type="㇐" d="M7.62,32.83c1.48,0.48,3.37,0.31,4.9,0.15c6.6-0.68,15.1-2.23,21.14-3.15c1.43-0.22,3-0.44,4.44-0.16"/>
		<path style="fill:none;stroke:#808080" id="kvg:08a95-s3" kvg:type="㇐" d="M13.68,46.06c1.32,0.38,3.01,0.2,4.35-0.04c4.52-0.82,8.16-1.6,12.2-2.27c1.25-0.21,2.54-0.22,3.79-0.01"/>
		<path style="fill:none;stroke:#808080" id="kvg:08a95-s4" kvg:type="㇐" d="M14.3,58.08c1.13,0.35,3.02,0.18,4.2,0.05c3.5-0.38,8.2-1.29,11.62-1.66c1.22-0.13,2.63-0.35,3.96-0.25"/>
		<g id="kvg:08a95-g2" kvg:element="口">
			<path style="fill:none;stroke:#808080" id="kvg:08a95-s5" kvg:type="㇑" d="M13.01,70.51c0.87,0.87,1.24,2.12,1.39,2.86c0.71,3.4,1.37,8.69,2.03,13.32c0.2,1.38,0.37,2.68,0.52,3.82"/>
			<path style="fill:none;stroke:#808080" id="kvg:08a95-s6" kvg:type="㇕b" d="M14.76,71.62c5.75-0.76,11.54-1.95,16.88-2.78c2.59-0.41,3.86,0.17,3.3,2.9c-0.73,3.56-1.33,7.3-2.71,13.2"/>
			<path style="fill:none;stroke:#808080" id="kvg:08a95-s7" kvg:type="㇐b" d="M17.47,87.81c4.01-0.43,8.73-1.29,13.83-1.87c0.84-0.1,1.83-0.19,2.63-0.06"/>
		</g>
	</g>
	<g id="kvg:08a95-g3" kvg:element="延" kvg:position="right" kvg:phon="延">
		<g id="kvg:08a95-g4" kvg:element="正" kvg:variant="true" kvg:position="nyoc">
			<g id="kvg:08a95-g5" kvg:element="丿">
				<path style="fill:none;stroke-width:4;" id="kvg:08a95-s8" kvg:type="㇒" d="M85.84,15.25c0.06,0.39-0.23,1.41-0.62,1.82c-4.84,5.06-9.47,8.81-21.51,14.48"/>
<circle cx="85.84" cy="15.25" r="5" style="fill:red;stroke:red;" />
			</g>
			<g id="kvg:08a95-g6" kvg:element="止">
				<g id="kvg:08a95-g7" kvg:element="卜" kvg:original="ト">
				</g>
			</g>
		</g>
		<g id="kvg:08a95-g8" kvg:element="廴" kvg:position="nyo">
		</g>
	</g>
</g>
</g></svg>