<?xml version="1.0" encoding="UTF-8"?>
  <!DOCTYPE svg PUBLIC "-//W3C//DTD SVG 1.0//EN" "http://www.w3.org/TR/2001/REC-SVG-20010904/DTD/svg10.dtd" [
  <!ATTLIST g xmlns:kvg CDATA #FIXED "http://kanjivg.tagaini.net" kvg:element CDATA #IMPLIED kvg:variant CDATA #IMPLIED kvg:partial CDATA #IMPLIED kvg:original CDATA #IMPLIED kvg:part CDATA #IMPLIED kvg:number CDATA #IMPLIED kvg:tradForm CDATA #IMPLIED kvg:radicalForm CDATA #IMPLIED kvg:position CDATA #IMPLIED kvg:radical CDATA #IMPLIED kvg:phon CDATA #IMPLIED >
  <!ATTLIST path xmlns:kvg CDATA #FIXED "http://kanjivg.tagaini.net" kvg:type CDATA #IMPLIED >
  ]>
  <svg xmlns="http://www.w3.org/2000/svg" width="109" height="109" viewBox="0 0 109 109">
<g id="kvg:StrokePaths_08aad" style="fill:none;stroke:#000000;stroke-width:3;stroke-linecap:round;stroke-linejoin:round;">
<g id="kvg:08aad" kvg:element="読">
	<g id="kvg:08aad-g1" kvg:element="言" kvg:position="left" kvg:radical="general">
		<path style="fill:none;stroke:#808080" id="kvg:08aad-s1" kvg:type="㇔" d="M22.38,14.75c2.25,1.63,5.81,6.71,6.37,9.25"/>
		<path style="fill:none;stroke:#808080" id="kvg:08aad-s2" kvg:type="㇐" d="M10.37,33.08c1.61,0.48,3.62,0.35,5.27,0.14c5.96-0.76,13.52-1.42,20.1-2.38c1.5-0.22,3.09-0.43,4.6-0.16"/>
		<path style="fill:none;stroke:#808080" id="kvg:08aad-s3" kvg:type="㇐" d="M16.23,46.31c1.17,0.37,2.73,0.18,3.93-0.01c3.99-0.62,8.33-1.2,11.58-1.97c1.35-0.32,3.26-0.58,4.65-0.58"/>
		<path style="fill:none;stroke:#808080" id="kvg:08aad-s4" kvg:type="㇐" d="M16.73,58.58c1.02,0.35,2.46,0.15,3.53,0.04c3.8-0.4,9.57-1.17,12.55-1.77c1.45-0.29,2.94-0.48,4.22-0.14"/>
		<g id="kvg:08aad-g2" kvg:element="口">
			<path style="fill:none;stroke:#808080" id="kvg:08aad-s5" kvg:type="㇑" d="M15.64,70.4c0.71,0.61,1.08,1.37,1.12,2.29c0.79,3.76,1.71,9.85,2.52,15.05c0.16,1.05,0.32,2.06,0.48,3"/>
			<path style="fill:none;stroke:#808080" id="kvg:08aad-s6" kvg:type="㇕b" d="M17.75,72.05c6.09-0.91,11.59-1.7,17.42-2.67c1.7-0.28,2.73,1.3,2.49,2.58c-0.85,4.46-1.61,6.91-2.88,12.78"/>
			<path style="fill:none;stroke-width:4;" id="kvg:08aad-s7" kvg:type="㇐b" d="M20.47,88.3c4.06-0.46,7.76-1.19,12.79-1.92c0.92-0.13,1.88-0.26,2.9-0.39"/>
<circle cx="20.47" cy="88.3" r="5" style="fill:red;stroke:red;" />
		</g>
	</g>
	<g id="kvg:08aad-g3" kvg:element="売" kvg:position="right" kvg:phon="売">
		<g id="kvg:08aad-g4" kvg:element="士" kvg:position="top">
		</g>
		<g id="kvg:08aad-g5" kvg:position="bottom">
			<g id="kvg:08aad-g6" kvg:element="冖">
			</g>
			<g id="kvg:08aad-g7" kvg:element="儿" kvg:original="八">
				<g id="kvg:08aad-g8" kvg:element="丿">
				</g>
			</g>
		</g>
	</g>
</g>
</g></svg>