<?xml version="1.0" encoding="UTF-8"?>
  <!DOCTYPE svg PUBLIC "-//W3C//DTD SVG 1.0//EN" "http://www.w3.org/TR/2001/REC-SVG-20010904/DTD/svg10.dtd" [
  <!ATTLIST g xmlns:kvg CDATA #FIXED "http://kanjivg.tagaini.net" kvg:element CDATA #IMPLIED kvg:variant CDATA #IMPLIED kvg:partial CDATA #IMPLIED kvg:original CDATA #IMPLIED kvg:part CDATA #IMPLIED kvg:number CDATA #IMPLIED kvg:tradForm CDATA #IMPLIED kvg:radicalForm CDATA #IMPLIED kvg:position CDATA #IMPLIED kvg:radical CDATA #IMPLIED kvg:phon CDATA #IMPLIED >
  <!ATTLIST path xmlns:kvg CDATA #FIXED "http://kanjivg.tagaini.net" kvg:type CDATA #IMPLIED >
  ]>
  <svg xmlns="http://www.w3.org/2000/svg" width="109" height="109" viewBox="0 0 109 109">
<g id="kvg:StrokePaths_08aa4" style="fill:none;stroke:#000000;stroke-width:3;stroke-linecap:round;stroke-linejoin:round;">
<g id="kvg:08aa4" kvg:element="誤">
	<g id="kvg:08aa4-g1" kvg:element="言" kvg:position="left" kvg:radical="general">
		<path style="fill:none;stroke:#808080" id="kvg:08aa4-s1" kvg:type="㇔" d="M22.75,11.5c3.15,1.85,8.14,7.62,8.93,10.5"/>
		<path style="fill:none;stroke:#808080" id="kvg:08aa4-s2" kvg:type="㇐" d="M11.62,32.08c0.71,0.23,3.4,0.31,4.1,0.23c9.15-1.06,17.03-2.44,23.83-3.37c1.17-0.16,2.95-0.14,3.54-0.02"/>
		<path style="fill:none;stroke:#808080" id="kvg:08aa4-s3" kvg:type="㇐" d="M15.68,45.06c0.95,0.19,1.95,0.31,3.47,0.12c5.22-0.66,10.17-1.3,14.59-2.3c1.14-0.26,2.64-0.38,4.04-0.13"/>
		<path style="fill:none;stroke-width:4;" id="kvg:08aa4-s4" kvg:type="㇐" d="M16.3,58.08c1.2,0.17,2.21,0.22,3.1,0.12c5.11-0.58,11.23-1.7,15.33-2.34c0.63-0.1,2.54-0.19,2.85-0.14"/>
<circle cx="16.3" cy="58.08" r="5" style="fill:red;stroke:red;" />
		<g id="kvg:08aa4-g2" kvg:element="口">
		</g>
	</g>
	<g id="kvg:08aa4-g3" kvg:element="呉" kvg:position="right" kvg:phon="呉">
		<g id="kvg:08aa4-g4" kvg:position="top">
			<g id="kvg:08aa4-g5" kvg:element="口">
			</g>
		</g>
		<g id="kvg:08aa4-g6" kvg:position="bottom">
			<g id="kvg:08aa4-g7" kvg:element="八">
				<g id="kvg:08aa4-g8" kvg:position="left">
				</g>
				<g id="kvg:08aa4-g9" kvg:position="right">
				</g>
			</g>
		</g>
	</g>
</g>
</g></svg>