<?xml version="1.0" encoding="UTF-8"?>
  <!DOCTYPE svg PUBLIC "-//W3C//DTD SVG 1.0//EN" "http://www.w3.org/TR/2001/REC-SVG-20010904/DTD/svg10.dtd" [
  <!ATTLIST g xmlns:kvg CDATA #FIXED "http://kanjivg.tagaini.net" kvg:element CDATA #IMPLIED kvg:variant CDATA #IMPLIED kvg:partial CDATA #IMPLIED kvg:original CDATA #IMPLIED kvg:part CDATA #IMPLIED kvg:number CDATA #IMPLIED kvg:tradForm CDATA #IMPLIED kvg:radicalForm CDATA #IMPLIED kvg:position CDATA #IMPLIED kvg:radical CDATA #IMPLIED kvg:phon CDATA #IMPLIED >
  <!ATTLIST path xmlns:kvg CDATA #FIXED "http://kanjivg.tagaini.net" kvg:type CDATA #IMPLIED >
  ]>
  <svg xmlns="http://www.w3.org/2000/svg" width="109" height="109" viewBox="0 0 109 109">
<g id="kvg:StrokePaths_08aac" style="fill:none;stroke:#000000;stroke-width:3;stroke-linecap:round;stroke-linejoin:round;">
<g id="kvg:08aac" kvg:element="説">
	<g id="kvg:08aac-g1" kvg:element="言" kvg:position="left" kvg:radical="general">
		<path style="fill:none;stroke:#808080" id="kvg:08aac-s1" kvg:type="㇔" d="M24.63,14.75c3.04,1.9,7.86,7.8,8.62,10.75"/>
		<path style="fill:none;stroke:#808080" id="kvg:08aac-s2" kvg:type="㇐" d="M12.62,34.58c1.29,0.48,3.02,0.27,4.38,0.19c7.23-0.41,16.27-1.43,21.64-1.98c1.41-0.14,2.8-0.19,4.2,0.12"/>
		<path style="fill:none;stroke:#808080" id="kvg:08aac-s3" kvg:type="㇐" d="M17.48,47.31c1.28,0.41,3.22,0.39,4.53,0.29c3.59-0.27,9.57-1.07,13.23-1.55c1.5-0.2,3.41-0.58,4.91-0.3"/>
		<path style="fill:none;stroke:#808080" id="kvg:08aac-s4" kvg:type="㇐" d="M18.48,60.08c1.11,0.38,2.78,0.13,3.93,0.05c3.64-0.27,10.2-0.91,13.36-1.59c1.24-0.27,2.74-0.57,4-0.32"/>
		<g id="kvg:08aac-g2" kvg:element="口">
			<path style="fill:none;stroke:#808080" id="kvg:08aac-s5" kvg:type="㇑" d="M16.64,71.9c0.86,0.79,1.52,2.03,1.49,3.22c0.76,4.1,1.63,10.95,2.4,16.26c0.16,1.12,0.32,2.17,0.47,3.11"/>
			<path style="fill:none;stroke-width:4;" id="kvg:08aac-s6" kvg:type="㇕b" d="M19.06,74.12c5.7-0.79,11.88-1.63,17.34-2.44c3.58-0.53,4.56,0.1,3.87,3.7c-0.75,3.94-1.51,8.8-2.85,14.83"/>
<circle cx="19.06" cy="74.12" r="5" style="fill:red;stroke:red;" />
		</g>
	</g>
	<g id="kvg:08aac-g3" kvg:element="兌" kvg:position="right" kvg:phon="兌">
		<g id="kvg:08aac-g4" kvg:element="八" kvg:variant="true" kvg:position="top">
			<g id="kvg:08aac-g5" kvg:position="left">
			</g>
			<g id="kvg:08aac-g6" kvg:position="right">
			</g>
		</g>
		<g id="kvg:08aac-g7" kvg:element="兄" kvg:position="bottom">
			<g id="kvg:08aac-g8" kvg:element="口" kvg:position="top">
			</g>
			<g id="kvg:08aac-g9" kvg:element="儿" kvg:original="八" kvg:position="bottom">
				<g id="kvg:08aac-g10" kvg:element="丿">
				</g>
			</g>
		</g>
	</g>
</g>
</g></svg>