<?xml version="1.0" encoding="UTF-8"?>
  <!DOCTYPE svg PUBLIC "-//W3C//DTD SVG 1.0//EN" "http://www.w3.org/TR/2001/REC-SVG-20010904/DTD/svg10.dtd" [
  <!ATTLIST g xmlns:kvg CDATA #FIXED "http://kanjivg.tagaini.net" kvg:element CDATA #IMPLIED kvg:variant CDATA #IMPLIED kvg:partial CDATA #IMPLIED kvg:original CDATA #IMPLIED kvg:part CDATA #IMPLIED kvg:number CDATA #IMPLIED kvg:tradForm CDATA #IMPLIED kvg:radicalForm CDATA #IMPLIED kvg:position CDATA #IMPLIED kvg:radical CDATA #IMPLIED kvg:phon CDATA #IMPLIED >
  <!ATTLIST path xmlns:kvg CDATA #FIXED "http://kanjivg.tagaini.net" kvg:type CDATA #IMPLIED >
  ]>
  <svg xmlns="http://www.w3.org/2000/svg" width="109" height="109" viewBox="0 0 109 109">
<g id="kvg:StrokePaths_08abf" style="fill:none;stroke:#000000;stroke-width:3;stroke-linecap:round;stroke-linejoin:round;">
<g id="kvg:08abf" kvg:element="調">
	<g id="kvg:08abf-g1" kvg:element="言" kvg:position="left" kvg:radical="general">
		<path style="fill:none;stroke:#808080" id="kvg:08abf-s1" kvg:type="㇔" d="M23.12,15.62c2.43,1.43,6.27,5.89,6.88,8.12"/>
		<path style="fill:none;stroke:#808080" id="kvg:08abf-s2" kvg:type="㇐" d="M11.12,33.08c1.51,0.56,3.69,0.25,5.26,0.13c6.51-0.49,13.87-1.33,19.48-2.35c1.77-0.32,3.89-0.48,5.49-0.19"/>
		<path style="fill:none;stroke:#808080" id="kvg:08abf-s3" kvg:type="㇐" d="M17.23,46.81c1.09,0.35,2.54,0.15,3.67,0.05c4.06-0.36,9.18-1.45,12.49-2.06c1.24-0.23,2.51-0.29,3.76-0.05"/>
		<path style="fill:none;stroke:#808080" id="kvg:08abf-s4" kvg:type="㇐" d="M17.48,59.33c1.09,0.37,2.76,0.14,3.89,0.04c3.35-0.28,9.19-1.22,12.04-1.83c1.33-0.28,2.77-0.35,4.12-0.08"/>
		<g id="kvg:08abf-g2" kvg:element="口">
			<path style="fill:none;stroke:#808080" id="kvg:08abf-s5" kvg:type="㇑" d="M16.64,72.15c0.79,0.79,1.27,1.99,1.32,2.83c0.71,3.51,1.31,8.41,2,13.15c0.18,1.23,0.36,2.44,0.55,3.62"/>
			<path style="fill:none;stroke:#808080" id="kvg:08abf-s6" kvg:type="㇕b" d="M18.31,73.12c6.44-0.89,12.23-2.1,18.17-3c1.49-0.22,2.64,1.29,2.43,2.31c-0.89,4.25-1.66,6.72-3.24,13.78"/>
			<path style="fill:none;stroke:#808080" id="kvg:08abf-s7" kvg:type="㇐b" d="M21.22,89.05c4.1-0.46,8.02-1.03,13.18-1.7c0.88-0.12,1.8-0.23,2.77-0.35"/>
		</g>
	</g>
	<g id="kvg:08abf-g3" kvg:element="周" kvg:position="right" kvg:phon="周">
		<g id="kvg:08abf-g4" kvg:element="冂" kvg:variant="true">
			<path style="fill:none;stroke-width:4;" id="kvg:08abf-s8" kvg:type="㇒/㇑" d="M50.38,21.13c0.75,0.75,1.39,1.99,1.42,3.48C52.5,63.12,50,80.25,39.5,93.25"/>
<circle cx="50.38" cy="21.13" r="5" style="fill:red;stroke:red;" />
		</g>
		<g id="kvg:08abf-g5" kvg:element="吉">
			<g id="kvg:08abf-g6" kvg:element="士">
			</g>
			<g id="kvg:08abf-g7" kvg:element="口">
			</g>
		</g>
	</g>
</g>
</g></svg>