<?xml version="1.0" encoding="UTF-8"?>
  <!DOCTYPE svg PUBLIC "-//W3C//DTD SVG 1.0//EN" "http://www.w3.org/TR/2001/REC-SVG-20010904/DTD/svg10.dtd" [
  <!ATTLIST g xmlns:kvg CDATA #FIXED "http://kanjivg.tagaini.net" kvg:element CDATA #IMPLIED kvg:variant CDATA #IMPLIED kvg:partial CDATA #IMPLIED kvg:original CDATA #IMPLIED kvg:part CDATA #IMPLIED kvg:number CDATA #IMPLIED kvg:tradForm CDATA #IMPLIED kvg:radicalForm CDATA #IMPLIED kvg:position CDATA #IMPLIED kvg:radical CDATA #IMPLIED kvg:phon CDATA #IMPLIED >
  <!ATTLIST path xmlns:kvg CDATA #FIXED "http://kanjivg.tagaini.net" kvg:type CDATA #IMPLIED >
  ]>
  <svg xmlns="http://www.w3.org/2000/svg" width="109" height="109" viewBox="0 0 109 109">
<g id="kvg:StrokePaths_08ab2" style="fill:none;stroke:#000000;stroke-width:3;stroke-linecap:round;stroke-linejoin:round;">
<g id="kvg:08ab2" kvg:element="課">
	<g id="kvg:08ab2-g1" kvg:element="言" kvg:position="left" kvg:radical="general">
		<path style="fill:none;stroke:#808080" id="kvg:08ab2-s1" kvg:type="㇔" d="M22.13,14.5c2.25,1.5,5.81,6.17,6.37,8.5"/>
		<path style="fill:none;stroke:#808080" id="kvg:08ab2-s2" kvg:type="㇐" d="M9.87,32.33c1.54,0.57,3.79,0.24,5.38,0.12c6.8-0.51,14.43-1.89,19.99-2.78c1.59-0.26,3.02-0.35,4.61,0"/>
		<path style="fill:none;stroke:#808080" id="kvg:08ab2-s3" kvg:type="㇐" d="M16.23,45.81c1.22,0.39,3.13,0.42,4.37,0.21c3.53-0.59,7.13-1.52,10.66-2.03c1.4-0.2,3.24-0.5,4.63-0.24"/>
		<path style="fill:none;stroke:#808080" id="kvg:08ab2-s4" kvg:type="㇐" d="M16.98,58.08c1.04,0.36,2.56,0.15,3.64,0.06c3.24-0.26,7.94-1,11.28-1.63c1.32-0.25,2.8-0.57,4.13-0.3"/>
		<g id="kvg:08ab2-g2" kvg:element="口">
			<path style="fill:none;stroke-width:4;" id="kvg:08ab2-s5" kvg:type="㇑" d="M15.39,70.65c0.82,0.75,1.24,1.85,1.48,3.08c0.73,3.67,1.38,8.74,2.15,13.54c0.17,1.02,0.33,2.03,0.48,2.98"/>
<circle cx="15.39" cy="70.65" r="5" style="fill:red;stroke:red;" />
		</g>
	</g>
	<g id="kvg:08ab2-g3" kvg:element="果" kvg:position="right" kvg:phon="果">
		<g id="kvg:08ab2-g4" kvg:element="日" kvg:part="1">
			<g id="kvg:08ab2-g5" kvg:element="日">
			</g>
		</g>
		<g id="kvg:08ab2-g6" kvg:element="木">
			<g id="kvg:08ab2-g7" kvg:element="日" kvg:part="2">
			</g>
		</g>
	</g>
</g>
</g></svg>