<?xml version="1.0" encoding="UTF-8"?>
  <!DOCTYPE svg PUBLIC "-//W3C//DTD SVG 1.0//EN" "http://www.w3.org/TR/2001/REC-SVG-20010904/DTD/svg10.dtd" [
  <!ATTLIST g xmlns:kvg CDATA #FIXED "http://kanjivg.tagaini.net" kvg:element CDATA #IMPLIED kvg:variant CDATA #IMPLIED kvg:partial CDATA #IMPLIED kvg:original CDATA #IMPLIED kvg:part CDATA #IMPLIED kvg:number CDATA #IMPLIED kvg:tradForm CDATA #IMPLIED kvg:radicalForm CDATA #IMPLIED kvg:position CDATA #IMPLIED kvg:radical CDATA #IMPLIED kvg:phon CDATA #IMPLIED >
  <!ATTLIST path xmlns:kvg CDATA #FIXED "http://kanjivg.tagaini.net" kvg:type CDATA #IMPLIED >
  ]>
  <svg xmlns="http://www.w3.org/2000/svg" width="109" height="109" viewBox="0 0 109 109">
<g id="kvg:StrokePaths_08ac7" style="fill:none;stroke:#000000;stroke-width:3;stroke-linecap:round;stroke-linejoin:round;">
<g id="kvg:08ac7" kvg:element="談">
	<g id="kvg:08ac7-g1" kvg:element="言" kvg:position="left" kvg:radical="general">
		<path style="fill:none;stroke:#808080" id="kvg:08ac7-s1" kvg:type="㇔" d="M23.38,15.25c2.43,1.52,6.27,6.23,6.87,8.58"/>
		<path style="fill:none;stroke:#808080" id="kvg:08ac7-s2" kvg:type="㇐" d="M10.37,33.77c0.82,0.23,3.19,0.32,4,0.23c7.62-0.75,17.75-2.12,23.37-2.9c1.35-0.19,3.42-0.14,4.1-0.02"/>
		<path style="fill:none;stroke:#808080" id="kvg:08ac7-s3" kvg:type="㇐" d="M17.23,46.63c0.89,0.25,1.75,0.17,2.72,0.12c4.79-0.25,9.29-1,14.54-1.82c0.96-0.15,2.66,0.06,3.02,0.12"/>
		<path style="fill:none;stroke:#808080" id="kvg:08ac7-s4" kvg:type="㇐" d="M17.48,59.27c0.87,0.23,2.01,0.21,3.14,0.12c4.75-0.39,8.88-1.14,13.49-1.87c0.91-0.14,2.49-0.28,3.66-0.14"/>
		<g id="kvg:08ac7-g2" kvg:element="口">
			<path style="fill:none;stroke:#808080" id="kvg:08ac7-s5" kvg:type="㇑" d="M16.39,72.2c0.8,0.74,1.71,2.17,1.72,3.28c0.79,3.77,1.52,8.81,2.27,13.65c0.12,0.8,0.25,1.59,0.37,2.38"/>
			<path style="fill:none;stroke:#808080" id="kvg:08ac7-s6" kvg:type="㇕b" d="M18.56,73.19c6.44-0.9,12.23-1.87,18.17-2.77c1.49-0.22,2.64,1.3,2.43,2.33c-0.89,4.29-1.66,6.28-3.24,13.42"/>
			<path style="fill:none;stroke:#808080" id="kvg:08ac7-s7" kvg:type="㇐b" d="M21.47,89.02c4.13-0.47,8.07-1.05,13.28-1.73c0.85-0.11,1.74-0.23,2.67-0.35"/>
		</g>
	</g>
	<g id="kvg:08ac7-g3" kvg:element="炎" kvg:position="right" kvg:phon="炎">
		<g id="kvg:08ac7-g4" kvg:element="火" kvg:position="top">
			<path style="fill:none;stroke-width:4;" id="kvg:08ac7-s8" kvg:type="㇔" d="M48.5,24.88c1.83,2,4.5,7.65,5,9.64"/>
<circle cx="48.5" cy="24.88" r="5" style="fill:red;stroke:red;" />
		</g>
		<g id="kvg:08ac7-g5" kvg:element="火" kvg:position="bottom">
		</g>
	</g>
</g>
</g></svg>