<?xml version="1.0" encoding="UTF-8"?>
  <!DOCTYPE svg PUBLIC "-//W3C//DTD SVG 1.0//EN" "http://www.w3.org/TR/2001/REC-SVG-20010904/DTD/svg10.dtd" [
  <!ATTLIST g xmlns:kvg CDATA #FIXED "http://kanjivg.tagaini.net" kvg:element CDATA #IMPLIED kvg:variant CDATA #IMPLIED kvg:partial CDATA #IMPLIED kvg:original CDATA #IMPLIED kvg:part CDATA #IMPLIED kvg:number CDATA #IMPLIED kvg:tradForm CDATA #IMPLIED kvg:radicalForm CDATA #IMPLIED kvg:position CDATA #IMPLIED kvg:radical CDATA #IMPLIED kvg:phon CDATA #IMPLIED >
  <!ATTLIST path xmlns:kvg CDATA #FIXED "http://kanjivg.tagaini.net" kvg:type CDATA #IMPLIED >
  ]>
  <svg xmlns="http://www.w3.org/2000/svg" width="109" height="109" viewBox="0 0 109 109">
<g id="kvg:StrokePaths_08ad6" style="fill:none;stroke:#000000;stroke-width:3;stroke-linecap:round;stroke-linejoin:round;">
<g id="kvg:08ad6" kvg:element="論">
	<g id="kvg:08ad6-g1" kvg:element="言" kvg:position="left" kvg:radical="general">
		<path style="fill:none;stroke:#808080" id="kvg:08ad6-s1" kvg:type="㇔" d="M21.55,15.25c2.52,1.5,6.5,6.17,7.13,8.5"/>
		<path style="fill:none;stroke:#808080" id="kvg:08ad6-s2" kvg:type="㇐" d="M9.62,33.58c1.61,0.53,3.72,0.27,5.38,0.16c7.68-0.48,13.44-1.78,20.49-2.67c1.48-0.19,3.12-0.44,4.6-0.15"/>
		<path style="fill:none;stroke:#808080" id="kvg:08ad6-s3" kvg:type="㇐" d="M15.93,47.31c1.31,0.37,3.11,0.3,4.45,0.07C24.62,46.62,28,46,31.5,45.24c1.39-0.3,3.25-0.62,4.52-0.49"/>
		<path style="fill:none;stroke:#808080" id="kvg:08ad6-s4" kvg:type="㇐" d="M16.55,59.33c1.13,0.35,2.66,0.15,3.83,0.08c3.6-0.2,8.15-0.97,11.77-1.65c1.3-0.25,2.87-0.53,4.18-0.29"/>
		<g id="kvg:08ad6-g2" kvg:element="口">
			<path style="fill:none;stroke:#808080" id="kvg:08ad6-s5" kvg:type="㇑" d="M15.26,72.01c0.67,0.66,0.89,1.6,1.08,2.48c0.71,3.3,1.4,8.74,2.28,13.49c0.25,1.33,0.48,2.61,0.68,3.77"/>
			<path style="fill:none;stroke:#808080" id="kvg:08ad6-s6" kvg:type="㇕b" d="M17.04,72.87c5.77-0.74,11.14-1.7,16.46-2.49c2.4-0.36,4.34-0.26,3.72,2.62c-0.77,3.6-1.38,7.16-2.82,13.19"/>
			<path style="fill:none;stroke:#808080" id="kvg:08ad6-s7" kvg:type="㇐b" d="M20,89.33c3.8-0.35,7.32-0.91,12-1.46c1.23-0.15,2.52-0.29,3.9-0.43"/>
		</g>
	</g>
	<g id="kvg:08ad6-g3" kvg:element="侖" kvg:position="right" kvg:phon="侖">
		<g id="kvg:08ad6-g4" kvg:element="人" kvg:position="top">
			<path style="fill:none;stroke:#808080" id="kvg:08ad6-s8" kvg:type="㇒" d="M65.57,13.9c0.3,0.98,0.16,2.43-0.39,3.64c-4.43,9.71-10.43,21.71-24.95,35.09"/>
			<path style="fill:none;stroke:#808080" id="kvg:08ad6-s9" kvg:type="㇏" d="M66.12,18.13c4.41,3.74,15.76,15.99,22.47,22.42c2.04,1.96,4.66,4.08,7.43,5.52"/>
		</g>
		<g id="kvg:08ad6-g5" kvg:position="bottom">
			<g id="kvg:08ad6-g6" kvg:element="一">
				<path style="fill:none;stroke-width:4;" id="kvg:08ad6-s10" kvg:type="㇐" d="M53.66,46.35c1.84,0.27,3.55,0.25,4.99,0.05c4.68-0.64,11.99-1.86,16.97-2.34c1.63-0.16,3.19-0.26,4.8,0.14"/>
<circle cx="53.66" cy="46.35" r="5" style="fill:red;stroke:red;" />
			</g>
			<g id="kvg:08ad6-g7" kvg:element="冊">
				<g id="kvg:08ad6-g8" kvg:element="冂">
				</g>
				<g id="kvg:08ad6-g9" kvg:element="廾" kvg:variant="true">
					<g id="kvg:08ad6-g10" kvg:element="十" kvg:part="1" kvg:variant="true">
					</g>
					<g id="kvg:08ad6-g11" kvg:element="丿" kvg:variant="true">
					</g>
					<g id="kvg:08ad6-g12" kvg:element="十" kvg:part="2" kvg:variant="true">
					</g>
				</g>
			</g>
		</g>
	</g>
</g>
</g></svg>