<?xml version="1.0" encoding="UTF-8"?>
  <!DOCTYPE svg PUBLIC "-//W3C//DTD SVG 1.0//EN" "http://www.w3.org/TR/2001/REC-SVG-20010904/DTD/svg10.dtd" [
  <!ATTLIST g xmlns:kvg CDATA #FIXED "http://kanjivg.tagaini.net" kvg:element CDATA #IMPLIED kvg:variant CDATA #IMPLIED kvg:partial CDATA #IMPLIED kvg:original CDATA #IMPLIED kvg:part CDATA #IMPLIED kvg:number CDATA #IMPLIED kvg:tradForm CDATA #IMPLIED kvg:radicalForm CDATA #IMPLIED kvg:position CDATA #IMPLIED kvg:radical CDATA #IMPLIED kvg:phon CDATA #IMPLIED >
  <!ATTLIST path xmlns:kvg CDATA #FIXED "http://kanjivg.tagaini.net" kvg:type CDATA #IMPLIED >
  ]>
  <svg xmlns="http://www.w3.org/2000/svg" width="109" height="109" viewBox="0 0 109 109">
<g id="kvg:StrokePaths_08af8" style="fill:none;stroke:#000000;stroke-width:3;stroke-linecap:round;stroke-linejoin:round;">
<g id="kvg:08af8" kvg:element="諸">
	<g id="kvg:08af8-g1" kvg:element="言" kvg:position="left" kvg:radical="general">
		<path style="fill:none;stroke:#808080" id="kvg:08af8-s1" kvg:type="㇔" d="M24.55,15.75c2.6,1.72,6.73,7.07,7.38,9.75"/>
		<path style="fill:none;stroke:#808080" id="kvg:08af8-s2" kvg:type="㇐" d="M11.87,34.83c0.71,0.23,3.4,0.27,4.1,0.23c8.73-0.42,15.28-1.69,22.58-2.37c1.18-0.11,3.2,0.11,3.79,0.23"/>
		<path style="fill:none;stroke:#808080" id="kvg:08af8-s3" kvg:type="㇐" d="M17.18,48.56c1.26,0.36,2.9,0.25,4.2,0.09c4.37-0.53,7.66-0.85,11.62-1.42c1.42-0.2,3.1-0.48,4.52-0.23"/>
		<path style="fill:none;stroke-width:4;" id="kvg:08af8-s4" kvg:type="㇐" d="M16.55,60.58c1.19,0.36,2.84,0.4,4.07,0.32c3.71-0.24,9.13-1.11,12.77-1.46c1.45-0.14,3.25-0.48,4.69-0.23"/>
<circle cx="16.55" cy="60.58" r="5" style="fill:red;stroke:red;" />
		<g id="kvg:08af8-g2" kvg:element="口">
		</g>
	</g>
	<g id="kvg:08af8-g3" kvg:element="者" kvg:position="right" kvg:phon="者">
		<g id="kvg:08af8-g4" kvg:element="耂" kvg:original="老" kvg:partial="true">
			<g id="kvg:08af8-g5" kvg:element="土">
			</g>
		</g>
		<g id="kvg:08af8-g6" kvg:element="日">
		</g>
	</g>
</g>
</g></svg>