<?xml version="1.0" encoding="UTF-8"?>
  <!DOCTYPE svg PUBLIC "-//W3C//DTD SVG 1.0//EN" "http://www.w3.org/TR/2001/REC-SVG-20010904/DTD/svg10.dtd" [
  <!ATTLIST g xmlns:kvg CDATA #FIXED "http://kanjivg.tagaini.net" kvg:element CDATA #IMPLIED kvg:variant CDATA #IMPLIED kvg:partial CDATA #IMPLIED kvg:original CDATA #IMPLIED kvg:part CDATA #IMPLIED kvg:number CDATA #IMPLIED kvg:tradForm CDATA #IMPLIED kvg:radicalForm CDATA #IMPLIED kvg:position CDATA #IMPLIED kvg:radical CDATA #IMPLIED kvg:phon CDATA #IMPLIED >
  <!ATTLIST path xmlns:kvg CDATA #FIXED "http://kanjivg.tagaini.net" kvg:type CDATA #IMPLIED >
  ]>
  <svg xmlns="http://www.w3.org/2000/svg" width="109" height="109" viewBox="0 0 109 109">
<g id="kvg:StrokePaths_08b1b" style="fill:none;stroke:#000000;stroke-width:3;stroke-linecap:round;stroke-linejoin:round;">
<g id="kvg:08b1b" kvg:element="講">
	<g id="kvg:08b1b-g1" kvg:element="言" kvg:position="left" kvg:radical="general">
		<path style="fill:none;stroke:#808080" id="kvg:08b1b-s1" kvg:type="㇔" d="M24.12,14.12c2.76,1.39,7.12,5.71,7.81,7.88"/>
		<path style="fill:none;stroke:#808080" id="kvg:08b1b-s2" kvg:type="㇐" d="M11.62,32.33c1.73,0.57,4.52,0.52,6.27,0.29c5.23-0.7,12.39-2.45,19.23-3.71c1.83-0.34,3.38-0.6,5.22-0.23"/>
		<path style="fill:none;stroke:#808080" id="kvg:08b1b-s3" kvg:type="㇐" d="M19.68,44.51c1.24,0.41,3.16,0.16,4.44,0.04c3.29-0.32,6.56-1.35,9.87-1.97c1.15-0.22,2.61-0.51,3.78-0.28"/>
		<path style="fill:none;stroke:#808080" id="kvg:08b1b-s4" kvg:type="㇐" d="M18.55,57.83c1.15,0.39,3.03,0.14,4.2,0c3.13-0.37,7.35-1.45,10.39-2.02c1.33-0.25,3.1-0.61,4.44-0.34"/>
		<g id="kvg:08b1b-g2" kvg:element="口">
			<path style="fill:none;stroke-width:4;" id="kvg:08b1b-s5" kvg:type="㇑" d="M18.01,71.67c0.78,0.78,1.33,2.01,1.58,3.05c0.74,2.96,1.7,7.51,2.64,11.72c0.43,1.95,0.82,3.79,1.12,5.3"/>
<circle cx="18.01" cy="71.67" r="5" style="fill:red;stroke:red;" />
		</g>
	</g>
	<g id="kvg:08b1b-g3" kvg:element="冓" kvg:position="right" kvg:phon="冓">
		<g id="kvg:08b1b-g4" kvg:element="三" kvg:part="1" kvg:position="top">
			<g id="kvg:08b1b-g5" kvg:element="一">
			</g>
			<g id="kvg:08b1b-g6" kvg:element="三" kvg:part="2">
				<g id="kvg:08b1b-g7" kvg:element="一">
				</g>
				<g id="kvg:08b1b-g8" kvg:element="再" kvg:part="1">
					<g id="kvg:08b1b-g9" kvg:element="一">
					</g>
				</g>
			</g>
		</g>
		<g id="kvg:08b1b-g10" kvg:element="再" kvg:part="2" kvg:position="bottom">
			<g id="kvg:08b1b-g11" kvg:element="冉">
				<g id="kvg:08b1b-g12" kvg:element="冂">
				</g>
				<g id="kvg:08b1b-g13" kvg:element="土" kvg:variant="true">
				</g>
			</g>
		</g>
	</g>
</g>
</g></svg>