<?xml version="1.0" encoding="UTF-8"?>
  <!DOCTYPE svg PUBLIC "-//W3C//DTD SVG 1.0//EN" "http://www.w3.org/TR/2001/REC-SVG-20010904/DTD/svg10.dtd" [
  <!ATTLIST g xmlns:kvg CDATA #FIXED "http://kanjivg.tagaini.net" kvg:element CDATA #IMPLIED kvg:variant CDATA #IMPLIED kvg:partial CDATA #IMPLIED kvg:original CDATA #IMPLIED kvg:part CDATA #IMPLIED kvg:number CDATA #IMPLIED kvg:tradForm CDATA #IMPLIED kvg:radicalForm CDATA #IMPLIED kvg:position CDATA #IMPLIED kvg:radical CDATA #IMPLIED kvg:phon CDATA #IMPLIED >
  <!ATTLIST path xmlns:kvg CDATA #FIXED "http://kanjivg.tagaini.net" kvg:type CDATA #IMPLIED >
  ]>
  <svg xmlns="http://www.w3.org/2000/svg" width="109" height="109" viewBox="0 0 109 109">
<g id="kvg:StrokePaths_08b1d" style="fill:none;stroke:#000000;stroke-width:3;stroke-linecap:round;stroke-linejoin:round;">
<g id="kvg:08b1d" kvg:element="謝">
	<g id="kvg:08b1d-g1" kvg:element="言" kvg:position="left" kvg:radical="general">
		<path style="fill:none;stroke:#808080" id="kvg:08b1d-s1" kvg:type="㇔" d="M20.88,16c2.52,1.5,6.5,6.17,7.13,8.5"/>
		<path style="fill:none;stroke:#808080" id="kvg:08b1d-s2" kvg:type="㇐" d="M9.19,33.33c1.69,0.29,3.37,0.34,5.06,0.15c4.69-0.46,12.43-2.03,17.38-2.79c1.17-0.18,3.2-0.39,3.79-0.27"/>
		<path style="fill:none;stroke:#808080" id="kvg:08b1d-s3" kvg:type="㇐" d="M15.25,45.81c0.43,0.12,3.04,0.13,3.47,0.12c4.44-0.14,6.86-1.18,11.34-1.8c0.7-0.1,2.93-0.44,3.29-0.38"/>
		<path style="fill:none;stroke:#808080" id="kvg:08b1d-s4" kvg:type="㇐" d="M14.87,58.58c1.08,0.13,1.92,0.44,3,0.32c4.38-0.53,6.92-1.04,11.18-2.29c0.61-0.18,2.79-0.44,3.1-0.39"/>
		<g id="kvg:08b1d-g2" kvg:element="口">
			<path style="fill:none;stroke:#808080" id="kvg:08b1d-s5" kvg:type="㇑" d="M12.33,71c0.96,0.7,1.55,1.65,1.77,2.85c0.76,2.84,1.62,7.41,2.36,11.38c0.31,1.67,0.6,3.23,0.86,4.52"/>
			<path style="fill:none;stroke:#808080" id="kvg:08b1d-s6" kvg:type="㇕b" d="M13.59,72.68c7.58-1.47,12.4-2.48,17.8-3.2c1.62-0.21,3.32,0.59,2.9,2.4c-0.73,3.14-1.37,6.39-2.79,11.6"/>
			<path style="fill:none;stroke:#808080" id="kvg:08b1d-s7" kvg:type="㇐b" d="M17.59,86.52c3.68-0.34,7.02-1.18,11.39-1.74c1.24-0.16,2.56-0.32,4-0.46"/>
		</g>
	</g>
	<g id="kvg:08b1d-g3" kvg:element="射" kvg:position="right" kvg:phon="射">
		<g id="kvg:08b1d-g4" kvg:element="身" kvg:position="left">
			<path style="fill:none;stroke:#808080" id="kvg:08b1d-s8" kvg:type="㇒" d="M55.48,12.02c0.4,1.1,0.41,2.18,0.03,3.24c-1.63,3.75-3.01,6.25-6.3,11.62"/>
			<path style="fill:none;stroke:#808080" id="kvg:08b1d-s9" kvg:type="㇑a" d="M44.34,26.59c0.85,0.85,1.27,2.16,1.27,3.33c0,2.08-0.1,27.83-0.1,31.96"/>
			<path style="fill:none;stroke-width:4;" id="kvg:08b1d-s10" kvg:type="㇆a" d="M46.51,28.72c2.73-0.73,11.93-2.65,14.17-2.67c1.88-0.01,3.09,0.64,3.09,3.25c0,10.79-0.1,49.14-0.1,58.81c0,8.99-4.29,5.01-6.75,2.21"/>
<circle cx="46.51" cy="28.72" r="5" style="fill:red;stroke:red;" />
		</g>
		<g id="kvg:08b1d-g5" kvg:element="寸" kvg:position="right">
		</g>
	</g>
</g>
</g></svg>