<?xml version="1.0" encoding="UTF-8"?>
  <!DOCTYPE svg PUBLIC "-//W3C//DTD SVG 1.0//EN" "http://www.w3.org/TR/2001/REC-SVG-20010904/DTD/svg10.dtd" [
  <!ATTLIST g xmlns:kvg CDATA #FIXED "http://kanjivg.tagaini.net" kvg:element CDATA #IMPLIED kvg:variant CDATA #IMPLIED kvg:partial CDATA #IMPLIED kvg:original CDATA #IMPLIED kvg:part CDATA #IMPLIED kvg:number CDATA #IMPLIED kvg:tradForm CDATA #IMPLIED kvg:radicalForm CDATA #IMPLIED kvg:position CDATA #IMPLIED kvg:radical CDATA #IMPLIED kvg:phon CDATA #IMPLIED >
  <!ATTLIST path xmlns:kvg CDATA #FIXED "http://kanjivg.tagaini.net" kvg:type CDATA #IMPLIED >
  ]>
  <svg xmlns="http://www.w3.org/2000/svg" width="109" height="109" viewBox="0 0 109 109">
<g id="kvg:StrokePaths_08b66" style="fill:none;stroke:#000000;stroke-width:3;stroke-linecap:round;stroke-linejoin:round;">
<g id="kvg:08b66" kvg:element="警">
	<g id="kvg:08b66-g1" kvg:element="敬" kvg:position="top" kvg:phon="敬">
		<g id="kvg:08b66-g2" kvg:element="苟" kvg:position="left">
			<g id="kvg:08b66-g3" kvg:element="艹" kvg:variant="true" kvg:original="艸" kvg:position="top">
				<path style="fill:none;stroke:#808080" id="kvg:08b66-s1" kvg:type="㇐" d="M13.82,18.95c1.81,0.3,3.39,0.27,4.95,0.1c8.01-0.88,25.64-3.31,33.99-3.74c1.59-0.08,3.2-0.18,4.74,0.28"/>
				<path style="fill:none;stroke:#808080" id="kvg:08b66-s2" kvg:type="㇑a" d="M26.95,8.7c0.61,0.61,1.02,1.55,1.04,2.16c0.13,5.26,0.38,7.64,0.43,12.22"/>
				<path style="fill:none;stroke:#808080" id="kvg:08b66-s3" kvg:type="㇑a" d="M46.08,7.89c0.17,0.63,0.38,1.09,0.2,1.87c-1.08,4.53-2.05,8.28-3.22,12.54"/>
			</g>
			<g id="kvg:08b66-g4" kvg:element="句" kvg:position="bottom">
				<g id="kvg:08b66-g5" kvg:element="勹">
					<g id="kvg:08b66-g6" kvg:element="丿">
						<path style="fill:none;stroke:#808080" id="kvg:08b66-s4" kvg:type="㇒" d="M20.75,25.5c0.09,0.83,0,1.63-0.3,2.4c-1.45,3.73-5.2,9.6-11.2,14.88"/>
					</g>
					<path style="fill:none;stroke:#808080" id="kvg:08b66-s5" kvg:type="㇆" d="M22.19,29.2c1.18,0.17,2.26,0.1,3.17-0.04c3.39-0.49,19.5-2.58,21.61-2.95c2.77-0.49,4.87,0.83,4.28,3.84C49.7,38,49.18,43.58,45.29,50.1c-1.93,3.23-3.61,4.54-6.59,1.42"/>
				</g>
				<g id="kvg:08b66-g7" kvg:element="口">
					<path style="fill:none;stroke:#808080" id="kvg:08b66-s6" kvg:type="㇑" d="M22.18,36.66c0.58,0.54,0.87,1.23,0.88,2.07c0.37,1.69,0.71,4.19,0.95,6.98c0.1,1.13,0.18,2.07,0.23,3.27"/>
					<path style="fill:none;stroke:#808080" id="kvg:08b66-s7" kvg:type="㇕b" d="M24.16,37.85c3.89-0.81,8.43-1.78,11.35-2.27c2.25-0.38,3.24,1.05,2.83,3.07c-0.42,2.04-0.88,2.91-1.59,5.69"/>
					<path style="fill:none;stroke:#808080" id="kvg:08b66-s8" kvg:type="㇐b" d="M25.37,46.76c2.53-0.25,6.42-0.99,10.35-1.5c0.87-0.11,1.7-0.22,2.47-0.3"/>
				</g>
			</g>
		</g>
		<g id="kvg:08b66-g8" kvg:element="攵" kvg:variant="true" kvg:original="攴" kvg:position="right">
			<g id="kvg:08b66-g9" kvg:position="top">
				<path style="fill:none;stroke:#808080" id="kvg:08b66-s9" kvg:type="㇒" d="M68.94,7.89c0.07,1.12-0.04,1.77-0.48,2.83c-1.71,4.12-4.71,10.03-9.71,16.22"/>
				<path style="fill:none;stroke:#808080" id="kvg:08b66-s10" kvg:type="㇐" d="M65.33,22.62c1.09,0,2.12,0.16,3.18-0.06c5.12-1.06,10.98-2.18,16.17-3.45c1.4-0.34,3.5-0.69,4.92-0.26"/>
			</g>
			<g id="kvg:08b66-g10" kvg:element="乂" kvg:position="bottom">
				<g id="kvg:08b66-g11" kvg:element="丿">
					<path style="fill:none;stroke:#808080" id="kvg:08b66-s11" kvg:type="㇒" d="M79.54,23.53c0.29,0.59,0.15,1.83-0.35,2.83C75.5,33.75,70.25,41,60.58,46.75"/>
				</g>
				<path style="fill:none;stroke:#808080" id="kvg:08b66-s12" kvg:type="㇏" d="M60.65,31.71c3.85-0.21,16.71,10.06,26.46,15.56c2.18,1.23,4.49,2.29,6.89,2.99"/>
			</g>
		</g>
	</g>
	<g id="kvg:08b66-g12" kvg:element="言" kvg:position="bottom" kvg:radical="general">
		<path style="fill:none;stroke-width:4;" id="kvg:08b66-s13" kvg:type="㇔" d="M51.88,48.88c2.51,1.04,6.5,4.26,7.12,5.88"/>
<circle cx="51.88" cy="48.88" r="5" style="fill:red;stroke:red;" />
		<g id="kvg:08b66-g13" kvg:element="口">
		</g>
	</g>
</g>
</g></svg>