<?xml version="1.0" encoding="UTF-8"?>
  <!DOCTYPE svg PUBLIC "-//W3C//DTD SVG 1.0//EN" "http://www.w3.org/TR/2001/REC-SVG-20010904/DTD/svg10.dtd" [
  <!ATTLIST g xmlns:kvg CDATA #FIXED "http://kanjivg.tagaini.net" kvg:element CDATA #IMPLIED kvg:variant CDATA #IMPLIED kvg:partial CDATA #IMPLIED kvg:original CDATA #IMPLIED kvg:part CDATA #IMPLIED kvg:number CDATA #IMPLIED kvg:tradForm CDATA #IMPLIED kvg:radicalForm CDATA #IMPLIED kvg:position CDATA #IMPLIED kvg:radical CDATA #IMPLIED kvg:phon CDATA #IMPLIED >
  <!ATTLIST path xmlns:kvg CDATA #FIXED "http://kanjivg.tagaini.net" kvg:type CDATA #IMPLIED >
  ]>
  <svg xmlns="http://www.w3.org/2000/svg" width="109" height="109" viewBox="0 0 109 109">
<g id="kvg:StrokePaths_08b77" style="fill:none;stroke:#000000;stroke-width:3;stroke-linecap:round;stroke-linejoin:round;">
<g id="kvg:08b77" kvg:element="護">
	<g id="kvg:08b77-g1" kvg:element="言" kvg:position="left" kvg:radical="general">
		<path style="fill:none;stroke:#808080" id="kvg:08b77-s1" kvg:type="㇔" d="M26,14.12c2.45,1.3,6.32,5.35,6.93,7.38"/>
		<path style="fill:none;stroke:#808080" id="kvg:08b77-s2" kvg:type="㇐" d="M12.62,31.83c1.13,0.3,2.76,0.34,4.1,0.23c6.78-0.56,15.03-1.81,23.08-3.12c1.17-0.19,2.95-0.14,3.54-0.02"/>
		<path style="fill:none;stroke:#808080" id="kvg:08b77-s3" kvg:type="㇐" d="M17.43,44.56c1.15,0.33,2.54,0.14,3.7-0.01c3.37-0.43,9.74-1.61,13.88-2.27c1.25-0.2,2.75-0.49,4.01-0.28"/>
		<path style="fill:none;stroke:#808080" id="kvg:08b77-s4" kvg:type="㇐" d="M17.55,56.83c1.18,0.36,2.76,0.16,3.97,0.02c3.91-0.46,10.3-1.31,13.86-1.67c1.28-0.13,2.68-0.44,3.95-0.21"/>
		<g id="kvg:08b77-g2" kvg:element="口">
			<path style="fill:none;stroke:#808080" id="kvg:08b77-s5" kvg:type="㇑" d="M18.9,71.06c0.8,0.71,0.99,1.85,1.23,2.82c0.72,2.94,1.6,7.3,2.36,11.25c0.25,1.28,0.48,2.52,0.7,3.65"/>
			<path style="fill:none;stroke:#808080" id="kvg:08b77-s6" kvg:type="㇕b" d="M20.67,71.81c7.44-1.43,11.65-2.27,16.84-3.03c2.87-0.42,3.79,0.29,3.19,3.12c-0.65,3.06-1.33,5.96-2.67,11.09"/>
			<path style="fill:none;stroke-width:4;" id="kvg:08b77-s7" kvg:type="㇐b" d="M23.71,85.89c4.05-0.39,8.01-1.03,13.02-1.68c0.89-0.12,1.82-0.23,2.79-0.35"/>
<circle cx="23.71" cy="85.89" r="5" style="fill:red;stroke:red;" />
		</g>
	</g>
	<g id="kvg:08b77-g3" kvg:element="蒦" kvg:position="right" kvg:phon="蒦">
		<g id="kvg:08b77-g4" kvg:element="艹" kvg:variant="true" kvg:original="艸" kvg:position="top">
		</g>
		<g id="kvg:08b77-g5" kvg:element="隻" kvg:position="bottom">
			<g id="kvg:08b77-g6" kvg:element="隹" kvg:position="top">
				<g id="kvg:08b77-g7" kvg:element="亻" kvg:variant="true" kvg:original="人">
				</g>
			</g>
			<g id="kvg:08b77-g8" kvg:element="又" kvg:position="bottom">
			</g>
		</g>
	</g>
</g>
</g></svg>