<?xml version="1.0" encoding="UTF-8"?>
  <!DOCTYPE svg PUBLIC "-//W3C//DTD SVG 1.0//EN" "http://www.w3.org/TR/2001/REC-SVG-20010904/DTD/svg10.dtd" [
  <!ATTLIST g xmlns:kvg CDATA #FIXED "http://kanjivg.tagaini.net" kvg:element CDATA #IMPLIED kvg:variant CDATA #IMPLIED kvg:partial CDATA #IMPLIED kvg:original CDATA #IMPLIED kvg:part CDATA #IMPLIED kvg:number CDATA #IMPLIED kvg:tradForm CDATA #IMPLIED kvg:radicalForm CDATA #IMPLIED kvg:position CDATA #IMPLIED kvg:radical CDATA #IMPLIED kvg:phon CDATA #IMPLIED >
  <!ATTLIST path xmlns:kvg CDATA #FIXED "http://kanjivg.tagaini.net" kvg:type CDATA #IMPLIED >
  ]>
  <svg xmlns="http://www.w3.org/2000/svg" width="109" height="109" viewBox="0 0 109 109">
<g id="kvg:StrokePaths_08b70" style="fill:none;stroke:#000000;stroke-width:3;stroke-linecap:round;stroke-linejoin:round;">
<g id="kvg:08b70" kvg:element="議">
	<g id="kvg:08b70-g1" kvg:element="言" kvg:position="left" kvg:radical="general">
		<path style="fill:none;stroke:#808080" id="kvg:08b70-s1" kvg:type="㇔" d="M23.75,15.5c2.38,1.46,6.15,5.98,6.75,8.25"/>
		<path style="fill:none;stroke:#808080" id="kvg:08b70-s2" kvg:type="㇐" d="M11.37,34.08c0.63,0.23,3.03,0.26,3.67,0.23C22.25,34,31,32.25,38.93,31.19c1.05-0.14,2.64,0.11,3.16,0.23"/>
		<path style="fill:none;stroke:#808080" id="kvg:08b70-s3" kvg:type="㇐" d="M17.98,47.56c0.99,0.31,2.38,0.14,3.39,0.06c3.67-0.29,8.73-1.4,12.76-1.89c1.15-0.14,2.36-0.21,3.51,0.01"/>
		<path style="fill:none;stroke-width:4;" id="kvg:08b70-s4" kvg:type="㇐" d="M18.48,60.08c1.1,0.38,2.76,0.14,3.91,0.05c3.19-0.23,7.37-0.93,10.76-1.41c1.19-0.17,2.69-0.5,3.88-0.26"/>
<circle cx="18.48" cy="60.08" r="5" style="fill:red;stroke:red;" />
		<g id="kvg:08b70-g2" kvg:element="口">
		</g>
	</g>
	<g id="kvg:08b70-g3" kvg:element="義" kvg:position="right" kvg:phon="義">
		<g id="kvg:08b70-g4" kvg:element="羊" kvg:variant="true" kvg:position="top">
			<g id="kvg:08b70-g5" kvg:element="䒑">
			</g>
		</g>
		<g id="kvg:08b70-g6" kvg:element="我" kvg:position="bottom">
			<g id="kvg:08b70-g7" kvg:element="丿">
			</g>
			<g id="kvg:08b70-g8" kvg:element="戈" kvg:part="1">
				<g id="kvg:08b70-g9" kvg:element="弋" kvg:part="1">
				</g>
			</g>
			<g id="kvg:08b70-g10" kvg:element="亅">
			</g>
			<g id="kvg:08b70-g11" kvg:element="戈" kvg:part="2">
				<g id="kvg:08b70-g12" kvg:element="丿">
				</g>
				<g id="kvg:08b70-g13" kvg:element="弋" kvg:part="2">
					<g id="kvg:08b70-g14" kvg:element="丶">
					</g>
				</g>
			</g>
		</g>
	</g>
</g>
</g></svg>