<?xml version="1.0" encoding="UTF-8"?>
  <!DOCTYPE svg PUBLIC "-//W3C//DTD SVG 1.0//EN" "http://www.w3.org/TR/2001/REC-SVG-20010904/DTD/svg10.dtd" [
  <!ATTLIST g xmlns:kvg CDATA #FIXED "http://kanjivg.tagaini.net" kvg:element CDATA #IMPLIED kvg:variant CDATA #IMPLIED kvg:partial CDATA #IMPLIED kvg:original CDATA #IMPLIED kvg:part CDATA #IMPLIED kvg:number CDATA #IMPLIED kvg:tradForm CDATA #IMPLIED kvg:radicalForm CDATA #IMPLIED kvg:position CDATA #IMPLIED kvg:radical CDATA #IMPLIED kvg:phon CDATA #IMPLIED >
  <!ATTLIST path xmlns:kvg CDATA #FIXED "http://kanjivg.tagaini.net" kvg:type CDATA #IMPLIED >
  ]>
  <svg xmlns="http://www.w3.org/2000/svg" width="109" height="109" viewBox="0 0 109 109">
<g id="kvg:StrokePaths_08b77" style="fill:none;stroke:#000000;stroke-width:3;stroke-linecap:round;stroke-linejoin:round;">
<g id="kvg:08b77" kvg:element="護">
	<g id="kvg:08b77-g1" kvg:element="言" kvg:position="left" kvg:radical="general">
		<path style="fill:none;stroke:#808080" id="kvg:08b77-s1" kvg:type="㇔" d="M26,14.12c2.45,1.3,6.32,5.35,6.93,7.38"/>
		<path style="fill:none;stroke:#808080" id="kvg:08b77-s2" kvg:type="㇐" d="M12.62,31.83c1.13,0.3,2.76,0.34,4.1,0.23c6.78-0.56,15.03-1.81,23.08-3.12c1.17-0.19,2.95-0.14,3.54-0.02"/>
		<path style="fill:none;stroke:#808080" id="kvg:08b77-s3" kvg:type="㇐" d="M17.43,44.56c1.15,0.33,2.54,0.14,3.7-0.01c3.37-0.43,9.74-1.61,13.88-2.27c1.25-0.2,2.75-0.49,4.01-0.28"/>
		<path style="fill:none;stroke:#808080" id="kvg:08b77-s4" kvg:type="㇐" d="M17.55,56.83c1.18,0.36,2.76,0.16,3.97,0.02c3.91-0.46,10.3-1.31,13.86-1.67c1.28-0.13,2.68-0.44,3.95-0.21"/>
		<g id="kvg:08b77-g2" kvg:element="口">
			<path style="fill:none;stroke:#808080" id="kvg:08b77-s5" kvg:type="㇑" d="M18.9,71.06c0.8,0.71,0.99,1.85,1.23,2.82c0.72,2.94,1.6,7.3,2.36,11.25c0.25,1.28,0.48,2.52,0.7,3.65"/>
			<path style="fill:none;stroke:#808080" id="kvg:08b77-s6" kvg:type="㇕b" d="M20.67,71.81c7.44-1.43,11.65-2.27,16.84-3.03c2.87-0.42,3.79,0.29,3.19,3.12c-0.65,3.06-1.33,5.96-2.67,11.09"/>
			<path style="fill:none;stroke:#808080" id="kvg:08b77-s7" kvg:type="㇐b" d="M23.71,85.89c4.05-0.39,8.01-1.03,13.02-1.68c0.89-0.12,1.82-0.23,2.79-0.35"/>
		</g>
	</g>
	<g id="kvg:08b77-g3" kvg:element="蒦" kvg:position="right" kvg:phon="蒦">
		<g id="kvg:08b77-g4" kvg:element="艹" kvg:variant="true" kvg:original="艸" kvg:position="top">
			<path style="fill:none;stroke:#808080" id="kvg:08b77-s8" kvg:type="㇐" d="M47.5,19.78c2.5,0.47,4.33,0.28,6.37,0.09c8.95-0.85,23.74-2.27,33-2.58c1.89-0.06,3.78-0.37,5.63,0.08"/>
			<path style="fill:none;stroke:#808080" id="kvg:08b77-s9" kvg:type="㇑a" d="M59.58,9.57c0.92,0.92,1.49,2.2,1.59,2.89c0.94,6.41,1.49,12.27,1.76,14.6"/>
			<path style="fill:none;stroke:#808080" id="kvg:08b77-s10" kvg:type="㇑a" d="M81.7,9.19c0.55,0.94,0.76,2.23,0.51,3.28c-1.44,6.14-1.59,7.66-2.92,13.24"/>
		</g>
		<g id="kvg:08b77-g5" kvg:element="隻" kvg:position="bottom">
			<g id="kvg:08b77-g6" kvg:element="隹" kvg:position="top">
				<g id="kvg:08b77-g7" kvg:element="亻" kvg:variant="true" kvg:original="人">
					<path style="fill:none;stroke:#808080" id="kvg:08b77-s11" kvg:type="㇒" d="M57.87,30.37c0.14,0.92-0.04,2.13-0.49,2.91c-2.85,5.02-6.46,9.28-12.99,15.4"/>
					<path style="fill:none;stroke:#808080" id="kvg:08b77-s12" kvg:type="㇑" d="M54.23,39.49c0.58,0.58,0.75,1.51,0.75,2.63c0,5.53-0.01,14.01-0.02,19.38c0,1.9,0,3.4,0,4.25"/>
				</g>
				<path style="fill:none;stroke:#808080" id="kvg:08b77-s13" kvg:type="㇒" d="M73.08,27.75c0.04,0.36-0.01,0.83-0.13,1.14c-0.77,1.96-1.5,2.97-3.26,5.36"/>
				<path style="fill:none;stroke-width:4;" id="kvg:08b77-s14" kvg:type="㇐b" d="M55.68,37.41c5.27-0.44,21.87-2.26,30.21-3.17c2.3-0.25,3.97-0.44,4.6-0.5"/>
<circle cx="55.68" cy="37.41" r="5" style="fill:red;stroke:red;" />
			</g>
			<g id="kvg:08b77-g8" kvg:element="又" kvg:position="bottom">
			</g>
		</g>
	</g>
</g>
</g></svg>