<?xml version="1.0" encoding="UTF-8"?>
  <!DOCTYPE svg PUBLIC "-//W3C//DTD SVG 1.0//EN" "http://www.w3.org/TR/2001/REC-SVG-20010904/DTD/svg10.dtd" [
  <!ATTLIST g xmlns:kvg CDATA #FIXED "http://kanjivg.tagaini.net" kvg:element CDATA #IMPLIED kvg:variant CDATA #IMPLIED kvg:partial CDATA #IMPLIED kvg:original CDATA #IMPLIED kvg:part CDATA #IMPLIED kvg:number CDATA #IMPLIED kvg:tradForm CDATA #IMPLIED kvg:radicalForm CDATA #IMPLIED kvg:position CDATA #IMPLIED kvg:radical CDATA #IMPLIED kvg:phon CDATA #IMPLIED >
  <!ATTLIST path xmlns:kvg CDATA #FIXED "http://kanjivg.tagaini.net" kvg:type CDATA #IMPLIED >
  ]>
  <svg xmlns="http://www.w3.org/2000/svg" width="109" height="109" viewBox="0 0 109 109">
<g id="kvg:StrokePaths_08c4a" style="fill:none;stroke:#000000;stroke-width:3;stroke-linecap:round;stroke-linejoin:round;">
<g id="kvg:08c4a" kvg:element="豊">
	<g id="kvg:08c4a-g1" kvg:element="曲" kvg:position="top">
		<g id="kvg:08c4a-g2" kvg:element="日" kvg:part="1">
			<path style="fill:none;stroke:#808080" id="kvg:08c4a-s1" kvg:type="㇑" d="M25.4,23c0.61,0.61,1.15,1.68,1.29,2.48C27.5,30,28.83,38.13,30.03,44.7c0.4,2.21,0.56,4.23,0.69,5.05"/>
			<path style="fill:none;stroke:#808080" id="kvg:08c4a-s2" kvg:type="㇕a" d="M27.6,24.64c8.29-0.96,40.92-4.25,49.9-4.82c3.19-0.2,5.09,1.69,4.37,4.92c-0.78,3.47-2.56,11.33-4.2,16.8c-0.77,2.55-1.37,4.41-1.59,4.75"/>
		</g>
		<g id="kvg:08c4a-g3" kvg:element="廾">
			<g id="kvg:08c4a-g4" kvg:element="丿" kvg:variant="true">
				<path style="fill:none;stroke-width:4;" id="kvg:08c4a-s3" kvg:type="㇑a" d="M40.98,11.59c0.71,0.71,1.55,1.91,1.73,3.19c1.78,12.6,3.33,25.67,3.89,30.47"/>
<circle cx="40.98" cy="11.59" r="5" style="fill:red;stroke:red;" />
			</g>
			<g id="kvg:08c4a-g5" kvg:element="十">
			</g>
		</g>
		<g id="kvg:08c4a-g6" kvg:element="日" kvg:part="2">
		</g>
	</g>
	<g id="kvg:08c4a-g7" kvg:element="豆" kvg:position="bottom" kvg:radical="general">
		<g id="kvg:08c4a-g8" kvg:position="top">
		</g>
		<g id="kvg:08c4a-g9" kvg:position="bottom">
			<g id="kvg:08c4a-g10" kvg:element="口">
			</g>
		</g>
	</g>
</g>
</g></svg>