<?xml version="1.0" encoding="UTF-8"?>
  <!DOCTYPE svg PUBLIC "-//W3C//DTD SVG 1.0//EN" "http://www.w3.org/TR/2001/REC-SVG-20010904/DTD/svg10.dtd" [
  <!ATTLIST g xmlns:kvg CDATA #FIXED "http://kanjivg.tagaini.net" kvg:element CDATA #IMPLIED kvg:variant CDATA #IMPLIED kvg:partial CDATA #IMPLIED kvg:original CDATA #IMPLIED kvg:part CDATA #IMPLIED kvg:number CDATA #IMPLIED kvg:tradForm CDATA #IMPLIED kvg:radicalForm CDATA #IMPLIED kvg:position CDATA #IMPLIED kvg:radical CDATA #IMPLIED kvg:phon CDATA #IMPLIED >
  <!ATTLIST path xmlns:kvg CDATA #FIXED "http://kanjivg.tagaini.net" kvg:type CDATA #IMPLIED >
  ]>
  <svg xmlns="http://www.w3.org/2000/svg" width="109" height="109" viewBox="0 0 109 109">
<g id="kvg:StrokePaths_08c61" style="fill:none;stroke:#000000;stroke-width:3;stroke-linecap:round;stroke-linejoin:round;">
<g id="kvg:08c61" kvg:element="象">
	<g id="kvg:08c61-g1" kvg:element="𠂊" kvg:variant="true" kvg:original="勹" kvg:position="top">
		<path style="fill:none;stroke:#808080" id="kvg:08c61-s1" kvg:type="㇒" d="M45,10.88c0.06,0.43,0.12,1.12-0.11,1.74C43.52,16.28,35.71,24.33,25,29.25"/>
		<path style="fill:none;stroke:#808080" id="kvg:08c61-s2" kvg:type="㇇" d="M45.66,15c0.96,0.13,1.67,0.17,2.98,0.05c4.21-0.4,11.06-1.32,14.03-1.9c2.7-0.53,3.48,0.96,2.01,2.74c-3.81,4.61-6.7,9.42-9.93,13.86"/>
	</g>
	<g id="kvg:08c61-g2" kvg:position="bottom">
		<path style="fill:none;stroke-width:4;" id="kvg:08c61-s3" kvg:type="㇑" d="M25.58,34.83c0.92,0.42,1.63,1.18,1.85,2.02c1.13,4.32,1.64,6.45,2.44,9.43c0.31,1.17,0.67,2.48,1.13,4.11"/>
<circle cx="25.58" cy="34.83" r="5" style="fill:red;stroke:red;" />
		<g id="kvg:08c61-g3" kvg:element="豕" kvg:radical="general">
		</g>
	</g>
</g>
</g></svg>