<?xml version="1.0" encoding="UTF-8"?>
  <!DOCTYPE svg PUBLIC "-//W3C//DTD SVG 1.0//EN" "http://www.w3.org/TR/2001/REC-SVG-20010904/DTD/svg10.dtd" [
  <!ATTLIST g xmlns:kvg CDATA #FIXED "http://kanjivg.tagaini.net" kvg:element CDATA #IMPLIED kvg:variant CDATA #IMPLIED kvg:partial CDATA #IMPLIED kvg:original CDATA #IMPLIED kvg:part CDATA #IMPLIED kvg:number CDATA #IMPLIED kvg:tradForm CDATA #IMPLIED kvg:radicalForm CDATA #IMPLIED kvg:position CDATA #IMPLIED kvg:radical CDATA #IMPLIED kvg:phon CDATA #IMPLIED >
  <!ATTLIST path xmlns:kvg CDATA #FIXED "http://kanjivg.tagaini.net" kvg:type CDATA #IMPLIED >
  ]>
  <svg xmlns="http://www.w3.org/2000/svg" width="109" height="109" viewBox="0 0 109 109">
<g id="kvg:StrokePaths_08caf" style="fill:none;stroke:#000000;stroke-width:3;stroke-linecap:round;stroke-linejoin:round;">
<g id="kvg:08caf" kvg:element="貯">
	<g id="kvg:08caf-g1" kvg:element="貝" kvg:position="left" kvg:radical="general">
		<g id="kvg:08caf-g2" kvg:element="目" kvg:position="top">
			<path style="fill:none;stroke:#808080" id="kvg:08caf-s1" kvg:type="㇑" d="M17.59,22.01c0.76,0.76,1.14,2.14,1.14,3.59c0,1.17,0.01,29.78,0.01,40.9c0,2.58,0,4.22,0,4.36"/>
			<path style="fill:none;stroke:#808080" id="kvg:08caf-s2" kvg:type="㇕a" d="M19.58,23.71C23,23,36.75,19.96,38.62,19.74c1.56-0.18,2.78,1.01,2.65,2.35c-0.15,1.53-0.12,25.19-0.11,41.53c0,1.86,0,3.62,0,5.25"/>
			<path style="fill:none;stroke:#808080" id="kvg:08caf-s3" kvg:type="㇐a" d="M19.8,38.49C24,37.88,36.38,36,40.2,35.55"/>
			<path style="fill:none;stroke:#808080" id="kvg:08caf-s4" kvg:type="㇐a" d="M19.46,52.05c5.16-0.67,14.16-1.92,20.5-2.42"/>
			<path style="fill:none;stroke-width:4;" id="kvg:08caf-s5" kvg:type="㇐a" d="M19.99,67.4c4.88-0.53,14.51-2.03,19.74-2.42"/>
<circle cx="19.99" cy="67.4" r="5" style="fill:red;stroke:red;" />
		</g>
		<g id="kvg:08caf-g3" kvg:position="bottom">
		</g>
	</g>
	<g id="kvg:08caf-g4" kvg:element="宁" kvg:position="right" kvg:phon="宀丁">
		<g id="kvg:08caf-g5" kvg:element="宀" kvg:position="top">
			<g id="kvg:08caf-g6" kvg:element="冖">
			</g>
		</g>
		<g id="kvg:08caf-g7" kvg:element="丁" kvg:position="bottom">
			<g id="kvg:08caf-g8" kvg:element="一">
			</g>
			<g id="kvg:08caf-g9" kvg:element="亅">
			</g>
		</g>
	</g>
</g>
</g></svg>