<?xml version="1.0" encoding="UTF-8"?>
  <!DOCTYPE svg PUBLIC "-//W3C//DTD SVG 1.0//EN" "http://www.w3.org/TR/2001/REC-SVG-20010904/DTD/svg10.dtd" [
  <!ATTLIST g xmlns:kvg CDATA #FIXED "http://kanjivg.tagaini.net" kvg:element CDATA #IMPLIED kvg:variant CDATA #IMPLIED kvg:partial CDATA #IMPLIED kvg:original CDATA #IMPLIED kvg:part CDATA #IMPLIED kvg:number CDATA #IMPLIED kvg:tradForm CDATA #IMPLIED kvg:radicalForm CDATA #IMPLIED kvg:position CDATA #IMPLIED kvg:radical CDATA #IMPLIED kvg:phon CDATA #IMPLIED >
  <!ATTLIST path xmlns:kvg CDATA #FIXED "http://kanjivg.tagaini.net" kvg:type CDATA #IMPLIED >
  ]>
  <svg xmlns="http://www.w3.org/2000/svg" width="109" height="109" viewBox="0 0 109 109">
<g id="kvg:StrokePaths_08ca1" style="fill:none;stroke:#000000;stroke-width:3;stroke-linecap:round;stroke-linejoin:round;">
<g id="kvg:08ca1" kvg:element="財">
	<g id="kvg:08ca1-g1" kvg:element="貝" kvg:position="left" kvg:radical="general">
		<g id="kvg:08ca1-g2" kvg:element="目" kvg:position="top">
			<path style="fill:none;stroke:#808080" id="kvg:08ca1-s1" kvg:type="㇑" d="M19.2,21.18c0.81,0.81,0.99,2.04,0.99,3.6c0,8.22-0.07,30.89-0.06,42.47c0,1.95,0.01,3.4,0.04,4.14"/>
			<path style="fill:none;stroke:#808080" id="kvg:08ca1-s2" kvg:type="㇕a" d="M20.86,21.67c2.29-0.19,19.22-2.69,21.3-2.92c1.74-0.19,2.96,1.08,2.96,2.53c0,5.85-0.1,27.22-0.1,42.97c0,2.22,0.04,3.88,0.04,5.71"/>
			<path style="fill:none;stroke:#808080" id="kvg:08ca1-s3" kvg:type="㇐a" d="M21.32,36.87c8.93-1.24,17.8-2.24,22.55-2.66"/>
			<path style="fill:none;stroke:#808080" id="kvg:08ca1-s4" kvg:type="㇐a" d="M21.01,51.95c8.74-0.95,13.24-1.7,22.84-2.59"/>
			<path style="fill:none;stroke-width:4;" id="kvg:08ca1-s5" kvg:type="㇐a" d="M21.35,68.98c7.15-0.98,14.4-2.23,22.59-2.84"/>
<circle cx="21.35" cy="68.98" r="5" style="fill:red;stroke:red;" />
		</g>
		<g id="kvg:08ca1-g3" kvg:position="bottom">
		</g>
	</g>
	<g id="kvg:08ca1-g4" kvg:element="才" kvg:position="right" kvg:phon="才">
		<g id="kvg:08ca1-g5" kvg:element="扌" kvg:variant="true" kvg:original="手">
			<g id="kvg:08ca1-g6" kvg:element="亅">
			</g>
		</g>
	</g>
</g>
</g></svg>