<?xml version="1.0" encoding="UTF-8"?>
  <!DOCTYPE svg PUBLIC "-//W3C//DTD SVG 1.0//EN" "http://www.w3.org/TR/2001/REC-SVG-20010904/DTD/svg10.dtd" [
  <!ATTLIST g xmlns:kvg CDATA #FIXED "http://kanjivg.tagaini.net" kvg:element CDATA #IMPLIED kvg:variant CDATA #IMPLIED kvg:partial CDATA #IMPLIED kvg:original CDATA #IMPLIED kvg:part CDATA #IMPLIED kvg:number CDATA #IMPLIED kvg:tradForm CDATA #IMPLIED kvg:radicalForm CDATA #IMPLIED kvg:position CDATA #IMPLIED kvg:radical CDATA #IMPLIED kvg:phon CDATA #IMPLIED >
  <!ATTLIST path xmlns:kvg CDATA #FIXED "http://kanjivg.tagaini.net" kvg:type CDATA #IMPLIED >
  ]>
  <svg xmlns="http://www.w3.org/2000/svg" width="109" height="109" viewBox="0 0 109 109">
<g id="kvg:StrokePaths_08cac" style="fill:none;stroke:#000000;stroke-width:3;stroke-linecap:round;stroke-linejoin:round;">
<g id="kvg:08cac" kvg:element="責">
	<g id="kvg:08cac-g1" kvg:element="龶" kvg:position="top" kvg:phon="朿V">
		<path style="fill:none;stroke:#808080" id="kvg:08cac-s1" kvg:type="㇐" d="M29.55,21.13c1.95,0.24,4.3,0.04,5.98-0.22c8.47-1.29,24.6-3.79,33.98-4.61c2.06-0.18,4.36-0.39,6.42-0.24"/>
		<path style="fill:none;stroke:#808080" id="kvg:08cac-s2" kvg:type="㇑a" d="M52.67,9.38c1.1,1.1,1.46,2.62,1.46,3.85c0,6.27-0.19,17.75-0.13,24.79"/>
		<path style="fill:none;stroke:#808080" id="kvg:08cac-s3" kvg:type="㇐" d="M31.59,31.18c2.16,0.19,4.41,0.26,6.43-0.09c8.49-1.47,22.35-3.62,29.86-4.63c2.26-0.31,4.48-0.57,6.77-0.44"/>
		<path style="fill:none;stroke:#808080" id="kvg:08cac-s4" kvg:type="㇐" d="M16.63,42.8c2.55,0.52,5.69,0.51,8.26,0.16c15.36-2.08,39.86-5.83,57.38-7.01c3.19-0.21,6.56-0.51,9.73,0.07"/>
	</g>
	<g id="kvg:08cac-g2" kvg:element="貝" kvg:position="bottom" kvg:radical="general">
		<g id="kvg:08cac-g3" kvg:element="目" kvg:position="top">
			<path style="fill:none;stroke-width:4;" id="kvg:08cac-s5" kvg:type="㇑" d="M37.22,50.05c0.74,0.74,1.3,2.01,1.3,3.02c0,2.93-0.07,18.93-0.1,27.05c0,1.39-0.01,2.56-0.01,3.38"/>
<circle cx="37.22" cy="50.05" r="5" style="fill:red;stroke:red;" />
		</g>
		<g id="kvg:08cac-g4" kvg:position="bottom">
		</g>
	</g>
</g>
</g></svg>