<?xml version="1.0" encoding="UTF-8"?>
  <!DOCTYPE svg PUBLIC "-//W3C//DTD SVG 1.0//EN" "http://www.w3.org/TR/2001/REC-SVG-20010904/DTD/svg10.dtd" [
  <!ATTLIST g xmlns:kvg CDATA #FIXED "http://kanjivg.tagaini.net" kvg:element CDATA #IMPLIED kvg:variant CDATA #IMPLIED kvg:partial CDATA #IMPLIED kvg:original CDATA #IMPLIED kvg:part CDATA #IMPLIED kvg:number CDATA #IMPLIED kvg:tradForm CDATA #IMPLIED kvg:radicalForm CDATA #IMPLIED kvg:position CDATA #IMPLIED kvg:radical CDATA #IMPLIED kvg:phon CDATA #IMPLIED >
  <!ATTLIST path xmlns:kvg CDATA #FIXED "http://kanjivg.tagaini.net" kvg:type CDATA #IMPLIED >
  ]>
  <svg xmlns="http://www.w3.org/2000/svg" width="109" height="109" viewBox="0 0 109 109">
<g id="kvg:StrokePaths_08cb7" style="fill:none;stroke:#000000;stroke-width:3;stroke-linecap:round;stroke-linejoin:round;">
<g id="kvg:08cb7" kvg:element="買">
	<g id="kvg:08cb7-g1" kvg:element="罒" kvg:variant="true" kvg:original="网" kvg:position="top" kvg:radical="nelson">
		<path style="fill:none;stroke:#808080" id="kvg:08cb7-s1" kvg:type="㇑" d="M20.5,14.64c0.49,0.49,1.44,1.59,1.66,2.43c1.09,4.17,1.51,6.88,2.4,11.91c0.2,1.15,0.39,2.26,0.55,3.26"/>
		<path style="fill:none;stroke:#808080" id="kvg:08cb7-s2" kvg:type="㇕a" d="M23.25,16.2c15.2-1.38,58.15-3.72,64.01-4.22c2.74-0.23,4.12,1.39,3.32,3.95c-1.08,3.44-1.82,5.56-3.62,10.4c-0.38,1.02-0.87,1.99-1.32,2.94"/>
		<path style="fill:none;stroke:#808080" id="kvg:08cb7-s3" kvg:type="㇑a" d="M43.25,16.5c0.75,0.75,0.68,1.25,0.85,2.27c0.6,3.64,1.21,7.47,1.4,9.23"/>
		<path style="fill:none;stroke:#808080" id="kvg:08cb7-s4" kvg:type="㇑a" d="M66.25,14.5c0.5,0.75,0.42,2.03,0.29,3.01c-0.54,4.37-0.79,6.62-1.29,9.24"/>
		<path style="fill:none;stroke-width:4;" id="kvg:08cb7-s5" kvg:type="㇐a" d="M26.3,30.62c8.83-0.74,51.2-3.49,59.17-3.65"/>
<circle cx="26.3" cy="30.62" r="5" style="fill:red;stroke:red;" />
	</g>
	<g id="kvg:08cb7-g2" kvg:element="貝" kvg:position="bottom" kvg:radical="tradit">
		<g id="kvg:08cb7-g3" kvg:element="目" kvg:position="top">
		</g>
		<g id="kvg:08cb7-g4" kvg:position="bottom">
		</g>
	</g>
</g>
</g></svg>