<?xml version="1.0" encoding="UTF-8"?>
  <!DOCTYPE svg PUBLIC "-//W3C//DTD SVG 1.0//EN" "http://www.w3.org/TR/2001/REC-SVG-20010904/DTD/svg10.dtd" [
  <!ATTLIST g xmlns:kvg CDATA #FIXED "http://kanjivg.tagaini.net" kvg:element CDATA #IMPLIED kvg:variant CDATA #IMPLIED kvg:partial CDATA #IMPLIED kvg:original CDATA #IMPLIED kvg:part CDATA #IMPLIED kvg:number CDATA #IMPLIED kvg:tradForm CDATA #IMPLIED kvg:radicalForm CDATA #IMPLIED kvg:position CDATA #IMPLIED kvg:radical CDATA #IMPLIED kvg:phon CDATA #IMPLIED >
  <!ATTLIST path xmlns:kvg CDATA #FIXED "http://kanjivg.tagaini.net" kvg:type CDATA #IMPLIED >
  ]>
  <svg xmlns="http://www.w3.org/2000/svg" width="109" height="109" viewBox="0 0 109 109">
<g id="kvg:StrokePaths_08cc3" style="fill:none;stroke:#000000;stroke-width:3;stroke-linecap:round;stroke-linejoin:round;">
<g id="kvg:08cc3" kvg:element="賃">
	<g id="kvg:08cc3-g1" kvg:element="任" kvg:position="top" kvg:phon="任">
		<g id="kvg:08cc3-g2" kvg:element="亻" kvg:variant="true" kvg:original="人" kvg:position="left">
			<path style="fill:none;stroke:#808080" id="kvg:08cc3-s1" kvg:type="㇒" d="M36.34,10.15c0.21,1.11-0.14,2.52-0.73,3.53C32,19.75,27,26,17.03,34.42"/>
			<path style="fill:none;stroke:#808080" id="kvg:08cc3-s2" kvg:type="㇑" d="M30.31,25.22c0.49,0.49,0.93,1.41,0.93,2.57c0,4.89-0.11,11.27-0.21,17.71C31.01,46.58,31,47.67,31,48.75"/>
		</g>
		<g id="kvg:08cc3-g3" kvg:element="壬" kvg:position="right">
			<g id="kvg:08cc3-g4" kvg:element="丿">
				<path style="fill:none;stroke:#808080" id="kvg:08cc3-s3" kvg:type="㇒" d="M77.97,9c0,1.25-0.97,2.25-2.39,3.11c-5.98,3.61-14.16,6.66-28.73,10.35"/>
			</g>
			<g id="kvg:08cc3-g5" kvg:element="士">
				<path style="fill:none;stroke:#808080" id="kvg:08cc3-s4" kvg:type="㇐" d="M41.43,29.96c2.57,0.41,4.94,0.31,7.32,0.08c10.87-1.04,27.78-2.61,39.13-3.06c2.7-0.11,5.47-0.3,8.14,0.18"/>
				<path style="fill:none;stroke:#808080" id="kvg:08cc3-s5" kvg:type="㇑a" d="M66.53,19.63c0.86,0.85,1.28,2.24,1.28,3.28c0,0.89,0,10.59,0,17.15"/>
				<path style="fill:none;stroke:#808080" id="kvg:08cc3-s6" kvg:type="㇐" d="M48.49,42.21c1.89,0.16,3.92,0.25,5.76,0.1c8.82-0.73,20.15-1.8,29.62-2.03c1.88-0.05,3.8-0.13,5.67,0.16"/>
			</g>
		</g>
	</g>
	<g id="kvg:08cc3-g6" kvg:element="貝" kvg:position="bottom" kvg:radical="general">
		<g id="kvg:08cc3-g7" kvg:element="目" kvg:position="top">
			<path style="fill:none;stroke:#808080" id="kvg:08cc3-s7" kvg:type="㇑" d="M37.01,52.36c0.82,0.82,1.17,2.36,1.17,3.4c0,2.92-0.03,18.36-0.04,26.24c0,1.92,0,3.39,0,4.12"/>
			<path style="fill:none;stroke:#808080" id="kvg:08cc3-s8" kvg:type="㇕a" d="M39.13,53.18c3.26-0.13,28.37-2.29,31.34-2.45c2.48-0.13,4.22,0.76,4.22,3.19c0,3.13-0.04,17.75-0.06,26.95c0,1.67,0,3.16,0,4.38"/>
			<path style="fill:none;stroke-width:4;" id="kvg:08cc3-s9" kvg:type="㇐a" d="M39.33,63.64c5.92-0.39,28.42-1.77,34.37-2.11"/>
<circle cx="39.33" cy="63.64" r="5" style="fill:red;stroke:red;" />
		</g>
		<g id="kvg:08cc3-g8" kvg:position="bottom">
		</g>
	</g>
</g>
</g></svg>