<?xml version="1.0" encoding="UTF-8"?>
  <!DOCTYPE svg PUBLIC "-//W3C//DTD SVG 1.0//EN" "http://www.w3.org/TR/2001/REC-SVG-20010904/DTD/svg10.dtd" [
  <!ATTLIST g xmlns:kvg CDATA #FIXED "http://kanjivg.tagaini.net" kvg:element CDATA #IMPLIED kvg:variant CDATA #IMPLIED kvg:partial CDATA #IMPLIED kvg:original CDATA #IMPLIED kvg:part CDATA #IMPLIED kvg:number CDATA #IMPLIED kvg:tradForm CDATA #IMPLIED kvg:radicalForm CDATA #IMPLIED kvg:position CDATA #IMPLIED kvg:radical CDATA #IMPLIED kvg:phon CDATA #IMPLIED >
  <!ATTLIST path xmlns:kvg CDATA #FIXED "http://kanjivg.tagaini.net" kvg:type CDATA #IMPLIED >
  ]>
  <svg xmlns="http://www.w3.org/2000/svg" width="109" height="109" viewBox="0 0 109 109">
<g id="kvg:StrokePaths_08cc7" style="fill:none;stroke:#000000;stroke-width:3;stroke-linecap:round;stroke-linejoin:round;">
<g id="kvg:08cc7" kvg:element="資">
	<g id="kvg:08cc7-g1" kvg:element="次" kvg:position="top" kvg:phon="次">
		<g id="kvg:08cc7-g2" kvg:element="冫" kvg:original="二" kvg:position="left">
			<g id="kvg:08cc7-g3" kvg:position="top">
				<path style="fill:none;stroke:#808080" id="kvg:08cc7-s1" kvg:type="㇔" d="M17.75,12.5c3.84,1.59,9.93,6.55,10.89,9.03"/>
			</g>
			<g id="kvg:08cc7-g4" kvg:position="bottom">
				<path style="fill:none;stroke:#808080" id="kvg:08cc7-s2" kvg:type="㇀" d="M14.75,45.48c1.65,1.06,3.79,0.89,4.95,0c1.12-0.86,7.91-7.68,12.2-12.08"/>
			</g>
		</g>
		<g id="kvg:08cc7-g5" kvg:element="欠" kvg:position="right">
			<path style="fill:none;stroke:#808080" id="kvg:08cc7-s3" kvg:type="㇒" d="M53.8,8.75c0.1,1.15-0.03,1.91-0.51,2.96c-2.33,5.05-6.75,11.06-15.92,17.26"/>
			<path style="fill:none;stroke:#808080" id="kvg:08cc7-s4" kvg:type="㇖" d="M52.89,18c1.1,0.16,2.95,0.12,4.57-0.23c5.42-1.15,10.92-2.53,18.65-4c5.84-1.12,3.4,4.23-4.76,11.3"/>
			<path style="fill:none;stroke:#808080" id="kvg:08cc7-s5" kvg:type="㇒" d="M57.29,23.91c0.15,1.24-0.22,2.51-0.66,3.64C54.84,32.16,49.49,39.4,38.99,43"/>
			<path style="fill:none;stroke-width:4;" id="kvg:08cc7-s6" kvg:type="㇏" d="M58.19,27.39c4.39,2.95,18.47,10.99,27.62,15.14c2.46,1.12,4.19,2.1,6.69,2.83"/>
<circle cx="58.19" cy="27.39" r="5" style="fill:red;stroke:red;" />
		</g>
	</g>
	<g id="kvg:08cc7-g6" kvg:element="貝" kvg:position="bottom" kvg:radical="general">
		<g id="kvg:08cc7-g7" kvg:element="目" kvg:position="top">
		</g>
		<g id="kvg:08cc7-g8" kvg:position="bottom">
		</g>
	</g>
</g>
</g></svg>