<?xml version="1.0" encoding="UTF-8"?>
  <!DOCTYPE svg PUBLIC "-//W3C//DTD SVG 1.0//EN" "http://www.w3.org/TR/2001/REC-SVG-20010904/DTD/svg10.dtd" [
  <!ATTLIST g xmlns:kvg CDATA #FIXED "http://kanjivg.tagaini.net" kvg:element CDATA #IMPLIED kvg:variant CDATA #IMPLIED kvg:partial CDATA #IMPLIED kvg:original CDATA #IMPLIED kvg:part CDATA #IMPLIED kvg:number CDATA #IMPLIED kvg:tradForm CDATA #IMPLIED kvg:radicalForm CDATA #IMPLIED kvg:position CDATA #IMPLIED kvg:radical CDATA #IMPLIED kvg:phon CDATA #IMPLIED >
  <!ATTLIST path xmlns:kvg CDATA #FIXED "http://kanjivg.tagaini.net" kvg:type CDATA #IMPLIED >
  ]>
  <svg xmlns="http://www.w3.org/2000/svg" width="109" height="109" viewBox="0 0 109 109">
<g id="kvg:StrokePaths_08cc0" style="fill:none;stroke:#000000;stroke-width:3;stroke-linecap:round;stroke-linejoin:round;">
<g id="kvg:08cc0" kvg:element="賀">
	<g id="kvg:08cc0-g1" kvg:element="加" kvg:position="top" kvg:phon="奇">
		<g id="kvg:08cc0-g2" kvg:element="力" kvg:position="left">
			<path style="fill:none;stroke:#808080" id="kvg:08cc0-s1" kvg:type="㇆" d="M16.4,21.14c1.12,0.42,3.14,0.6,4.33,0.49c7.14-0.64,22.07-2.87,27.02-3.41c2.92-0.32,4.14,0.58,3.85,3.54c-0.43,4.44-1.9,11.18-6.18,17.54c-3.01,4.47-5.17,0.7-5.97,0.14"/>
			<path style="fill:none;stroke:#808080" id="kvg:08cc0-s2" kvg:type="㇒" d="M34.36,8.93c0.79,0.79,0.88,2.31,0.79,3.09c-1.28,11.11-5.4,25.48-18.03,35.25"/>
		</g>
		<g id="kvg:08cc0-g3" kvg:element="口" kvg:position="right">
			<path style="fill:none;stroke:#808080" id="kvg:08cc0-s3" kvg:type="㇑" d="M60.36,16.61c1.14,0.64,1.6,2.06,1.9,3.39c0.76,3.3,1.6,8.15,2.36,14.35c0.15,1.24,0.3,2.53,0.45,3.88"/>
			<path style="fill:none;stroke-width:4;" id="kvg:08cc0-s4" kvg:type="㇕b" d="M62.54,17.64c9.21-1.14,17.33-2.39,22.65-2.84c3.29-0.28,4.56,0.96,3.97,4.04c-0.63,3.3-1.66,6.66-3.26,13.58"/>
<circle cx="62.54" cy="17.64" r="5" style="fill:red;stroke:red;" />
		</g>
	</g>
	<g id="kvg:08cc0-g4" kvg:element="貝" kvg:position="bottom" kvg:radical="general">
		<g id="kvg:08cc0-g5" kvg:element="目" kvg:position="top">
		</g>
		<g id="kvg:08cc0-g6" kvg:position="bottom">
		</g>
	</g>
</g>
</g></svg>