<?xml version="1.0" encoding="UTF-8"?>
  <!DOCTYPE svg PUBLIC "-//W3C//DTD SVG 1.0//EN" "http://www.w3.org/TR/2001/REC-SVG-20010904/DTD/svg10.dtd" [
  <!ATTLIST g xmlns:kvg CDATA #FIXED "http://kanjivg.tagaini.net" kvg:element CDATA #IMPLIED kvg:variant CDATA #IMPLIED kvg:partial CDATA #IMPLIED kvg:original CDATA #IMPLIED kvg:part CDATA #IMPLIED kvg:number CDATA #IMPLIED kvg:tradForm CDATA #IMPLIED kvg:radicalForm CDATA #IMPLIED kvg:position CDATA #IMPLIED kvg:radical CDATA #IMPLIED kvg:phon CDATA #IMPLIED >
  <!ATTLIST path xmlns:kvg CDATA #FIXED "http://kanjivg.tagaini.net" kvg:type CDATA #IMPLIED >
  ]>
  <svg xmlns="http://www.w3.org/2000/svg" width="109" height="109" viewBox="0 0 109 109">
<g id="kvg:StrokePaths_08cdb" style="fill:none;stroke:#000000;stroke-width:3;stroke-linecap:round;stroke-linejoin:round;">
<g id="kvg:08cdb" kvg:element="賛">
	<g id="kvg:08cdb-g1" kvg:position="top">
		<g id="kvg:08cdb-g2" kvg:element="夫" kvg:variant="true" kvg:position="left">
			<path style="fill:none;stroke:#808080" id="kvg:08cdb-s1" kvg:type="㇐" d="M22.1,21.82c0.94,0.38,2.68,0.27,3.65,0.2c5.25-0.39,12.62-1.27,18.49-2.19c1.04-0.16,2.68-0.15,3.7,0.1"/>
			<g id="kvg:08cdb-g3" kvg:element="大" kvg:variant="true">
				<path style="fill:none;stroke:#808080" id="kvg:08cdb-s2" kvg:type="㇐" d="M18.47,34.32c1,0.41,3.02,0.47,4.03,0.32c5.28-0.79,18.33-2.87,24.12-3.38c1.24-0.11,2.58-0.27,3.8,0.03"/>
				<path style="fill:none;stroke:#808080" id="kvg:08cdb-s3" kvg:type="㇒" d="M36.28,13c0.29,0.61,0.4,1.18,0.4,2.37C36.75,33.5,30.75,48.25,19.75,53"/>
				<path style="fill:none;stroke:#808080" id="kvg:08cdb-s4" kvg:type="㇔/㇏" d="M37.13,35.88c4.29,1.51,8.96,6.23,10.62,8.56"/>
			</g>
		</g>
		<g id="kvg:08cdb-g4" kvg:element="夫" kvg:position="right">
			<path style="fill:none;stroke:#808080" id="kvg:08cdb-s5" kvg:type="㇐" d="M58.85,20.5c1.4,0.37,2.9,0.39,3.9,0.33c4.93-0.3,14.64-1.72,19.66-2.42c1.22-0.17,2.6-0.23,3.81,0.06"/>
			<g id="kvg:08cdb-g5" kvg:element="大">
				<path style="fill:none;stroke:#808080" id="kvg:08cdb-s6" kvg:type="㇐" d="M56.38,32.45c0.97,0.4,3.19,0.13,4.13,0c6.01-0.88,20.53-2.83,26.36-3.35c1.14-0.1,2.62,0,3.76,0.27"/>
				<path style="fill:none;stroke:#808080" id="kvg:08cdb-s7" kvg:type="㇒" d="M71.75,11.5c0.63,0.63,0.86,1.73,0.85,2.72C72.5,29.75,68.23,40.32,57.76,45"/>
				<path style="fill:none;stroke-width:4;" id="kvg:08cdb-s8" kvg:type="㇏" d="M72.1,30.92c4.16,4.33,11.13,11.56,16.23,14.85c1.17,0.75,2.93,1.86,4.68,2.57"/>
<circle cx="72.1" cy="30.92" r="5" style="fill:red;stroke:red;" />
			</g>
		</g>
	</g>
	<g id="kvg:08cdb-g6" kvg:element="貝" kvg:position="bottom" kvg:radical="general">
		<g id="kvg:08cdb-g7" kvg:element="目" kvg:position="top">
		</g>
		<g id="kvg:08cdb-g8" kvg:position="bottom">
		</g>
	</g>
</g>
</g></svg>