<?xml version="1.0" encoding="UTF-8"?>
  <!DOCTYPE svg PUBLIC "-//W3C//DTD SVG 1.0//EN" "http://www.w3.org/TR/2001/REC-SVG-20010904/DTD/svg10.dtd" [
  <!ATTLIST g xmlns:kvg CDATA #FIXED "http://kanjivg.tagaini.net" kvg:element CDATA #IMPLIED kvg:variant CDATA #IMPLIED kvg:partial CDATA #IMPLIED kvg:original CDATA #IMPLIED kvg:part CDATA #IMPLIED kvg:number CDATA #IMPLIED kvg:tradForm CDATA #IMPLIED kvg:radicalForm CDATA #IMPLIED kvg:position CDATA #IMPLIED kvg:radical CDATA #IMPLIED kvg:phon CDATA #IMPLIED >
  <!ATTLIST path xmlns:kvg CDATA #FIXED "http://kanjivg.tagaini.net" kvg:type CDATA #IMPLIED >
  ]>
  <svg xmlns="http://www.w3.org/2000/svg" width="109" height="109" viewBox="0 0 109 109">
<g id="kvg:StrokePaths_08cde" style="fill:none;stroke:#000000;stroke-width:3;stroke-linecap:round;stroke-linejoin:round;">
<g id="kvg:08cde" kvg:element="賞">
	<g id="kvg:08cde-g1" kvg:element="尚" kvg:variant="true" kvg:position="top" kvg:phon="尚">
		<g id="kvg:08cde-g2" kvg:element="⺌" kvg:variant="true" kvg:original="小" kvg:position="top" kvg:radical="nelson">
			<path style="fill:none;stroke:#808080" id="kvg:08cde-s1" kvg:type="㇑a" d="M52.96,10.37c0.9,0.9,1.51,2.35,1.51,3.99c0,3.14-0.01,8.77-0.01,14.76"/>
			<path style="fill:none;stroke:#808080" id="kvg:08cde-s2" kvg:type="㇔" d="M30.88,15.12c3.24,1.83,8.37,7.5,9.18,10.34"/>
			<path style="fill:none;stroke:#808080" id="kvg:08cde-s3" kvg:type="㇒" d="M74.76,14.25c0,0.75-0.1,1.6-0.3,2.02c-1.58,3.35-3.83,6.73-9.02,11.69"/>
		</g>
		<g id="kvg:08cde-g3" kvg:position="bottom">
			<g id="kvg:08cde-g4" kvg:element="冂" kvg:variant="true">
				<path style="fill:none;stroke:#808080" id="kvg:08cde-s4" kvg:type="㇔/㇑" d="M21.2,31.5c-0.13,4.04-2.35,13.52-3.45,15.94"/>
				<path style="fill:none;stroke:#808080" id="kvg:08cde-s5" kvg:type="㇖b" d="M22.24,33.18c12.89-1.3,43.89-4.43,64.05-5.12c11.21-0.38,0.4,7.44-1.15,8.7"/>
			</g>
			<g id="kvg:08cde-g5" kvg:element="口">
				<path style="fill:none;stroke:#808080" id="kvg:08cde-s6" kvg:type="㇑" d="M37.64,39.13C38.5,40,39,40.94,39.16,41.74c0.56,2.82,0.9,4.36,1.23,5.75c0.23,1.02,0.46,1.95,0.74,3.26"/>
				<path style="fill:none;stroke-width:4;" id="kvg:08cde-s7" kvg:type="㇕b" d="M39.6,40.07c4.6-0.47,21.97-2.29,28.66-3.02c2.7-0.29,4.36,0.04,3.38,3.08c-0.47,1.44-0.63,1.97-1.76,4.69"/>
<circle cx="39.6" cy="40.07" r="5" style="fill:red;stroke:red;" />
			</g>
		</g>
	</g>
	<g id="kvg:08cde-g6" kvg:element="貝" kvg:position="bottom" kvg:radical="tradit">
		<g id="kvg:08cde-g7" kvg:element="目" kvg:position="top">
		</g>
		<g id="kvg:08cde-g8" kvg:position="bottom">
		</g>
	</g>
</g>
</g></svg>