<?xml version="1.0" encoding="UTF-8"?>
  <!DOCTYPE svg PUBLIC "-//W3C//DTD SVG 1.0//EN" "http://www.w3.org/TR/2001/REC-SVG-20010904/DTD/svg10.dtd" [
  <!ATTLIST g xmlns:kvg CDATA #FIXED "http://kanjivg.tagaini.net" kvg:element CDATA #IMPLIED kvg:variant CDATA #IMPLIED kvg:partial CDATA #IMPLIED kvg:original CDATA #IMPLIED kvg:part CDATA #IMPLIED kvg:number CDATA #IMPLIED kvg:tradForm CDATA #IMPLIED kvg:radicalForm CDATA #IMPLIED kvg:position CDATA #IMPLIED kvg:radical CDATA #IMPLIED kvg:phon CDATA #IMPLIED >
  <!ATTLIST path xmlns:kvg CDATA #FIXED "http://kanjivg.tagaini.net" kvg:type CDATA #IMPLIED >
  ]>
  <svg xmlns="http://www.w3.org/2000/svg" width="109" height="109" viewBox="0 0 109 109">
<g id="kvg:StrokePaths_08cea" style="fill:none;stroke:#000000;stroke-width:3;stroke-linecap:round;stroke-linejoin:round;">
<g id="kvg:08cea" kvg:element="質">
	<g id="kvg:08cea-g1" kvg:position="top">
		<g id="kvg:08cea-g2" kvg:element="斤" kvg:position="left">
			<path style="fill:none;stroke:#808080" id="kvg:08cea-s1" kvg:type="㇒" d="M43.05,11.84c-0.05,1.04-0.57,1.92-1.2,2.53c-3,2.89-6.23,4.88-13.9,7.93"/>
			<path style="fill:none;stroke:#808080" id="kvg:08cea-s2" kvg:type="㇒" d="M25.96,21.62c0.8,0.88,1.29,2.21,1.29,3.16c0.01,15.46-2.62,20.34-8.18,25.21"/>
			<path style="fill:none;stroke:#808080" id="kvg:08cea-s3" kvg:type="㇐" d="M29.22,29.63c0.83-0.03,2.06-0.15,3.53-0.34c4.46-0.57,11.15-1.69,15.77-2.27c1.26-0.16,2.37-0.27,3.24-0.32"/>
			<path style="fill:none;stroke:#808080" id="kvg:08cea-s4" kvg:type="㇑" d="M39.41,28.55c0.73,0.73,1.22,2.31,1.22,3.3c0,0.79-0.12,2.42-0.08,10.4c0.01,2.12,0.04,3.54,0.08,3.75"/>
		</g>
		<g id="kvg:08cea-g3" kvg:element="斤" kvg:position="right">
			<path style="fill:none;stroke-width:4;" id="kvg:08cea-s5" kvg:type="㇒" d="M76.8,11.09c0.14,0.93-0.08,1.75-0.79,2.42c-3.76,3.49-6.88,5.99-13.3,8.79"/>
<circle cx="76.8" cy="11.09" r="5" style="fill:red;stroke:red;" />
		</g>
	</g>
	<g id="kvg:08cea-g4" kvg:element="貝" kvg:position="bottom" kvg:radical="general">
		<g id="kvg:08cea-g5" kvg:element="目" kvg:position="top">
		</g>
		<g id="kvg:08cea-g6" kvg:position="bottom">
		</g>
	</g>
</g>
</g></svg>