<?xml version="1.0" encoding="UTF-8"?>
  <!DOCTYPE svg PUBLIC "-//W3C//DTD SVG 1.0//EN" "http://www.w3.org/TR/2001/REC-SVG-20010904/DTD/svg10.dtd" [
  <!ATTLIST g xmlns:kvg CDATA #FIXED "http://kanjivg.tagaini.net" kvg:element CDATA #IMPLIED kvg:variant CDATA #IMPLIED kvg:partial CDATA #IMPLIED kvg:original CDATA #IMPLIED kvg:part CDATA #IMPLIED kvg:number CDATA #IMPLIED kvg:tradForm CDATA #IMPLIED kvg:radicalForm CDATA #IMPLIED kvg:position CDATA #IMPLIED kvg:radical CDATA #IMPLIED kvg:phon CDATA #IMPLIED >
  <!ATTLIST path xmlns:kvg CDATA #FIXED "http://kanjivg.tagaini.net" kvg:type CDATA #IMPLIED >
  ]>
  <svg xmlns="http://www.w3.org/2000/svg" width="109" height="109" viewBox="0 0 109 109">
<g id="kvg:StrokePaths_08d70" style="fill:none;stroke:#000000;stroke-width:3;stroke-linecap:round;stroke-linejoin:round;">
<g id="kvg:08d70" kvg:element="走" kvg:radical="general">
	<g id="kvg:08d70-g1" kvg:element="土" kvg:position="top">
		<path style="fill:none;stroke:#808080" id="kvg:08d70-s1" kvg:type="㇐" d="M30.13,28.92c1.62,0.38,4.6,0.57,6.21,0.38C47.25,28,60.75,26,70.08,25.16c2.69-0.24,4.32,0.18,5.67,0.37"/>
		<path style="fill:none;stroke:#808080" id="kvg:08d70-s2" kvg:type="㇑a" d="M52.01,12.37c1.25,1.25,2.05,2.85,2.05,5.01c0,4.58-0.06,25.5-0.06,26.37"/>
		<path style="fill:none;stroke:#808080" id="kvg:08d70-s3" kvg:type="㇐" d="M15.13,48.05c2.29,0.69,6.48,0.95,8.77,0.69c24.84-2.74,36-4.24,60.98-6.45c3.79-0.33,6.35,0.08,8.25,0.43"/>
	</g>
	<g id="kvg:08d70-g2" kvg:element="龰" kvg:position="bottom">
		<path style="fill:none;stroke-width:4;" id="kvg:08d70-s4" kvg:type="㇑a" d="M53.12,49c1.13,1.13,1.78,3.13,1.78,4.75c0,6.38-0.15,21.5-0.15,27"/>
<circle cx="53.12" cy="49" r="5" style="fill:red;stroke:red;" />
	</g>
</g>
</g></svg>