<?xml version="1.0" encoding="UTF-8"?>
  <!DOCTYPE svg PUBLIC "-//W3C//DTD SVG 1.0//EN" "http://www.w3.org/TR/2001/REC-SVG-20010904/DTD/svg10.dtd" [
  <!ATTLIST g xmlns:kvg CDATA #FIXED "http://kanjivg.tagaini.net" kvg:element CDATA #IMPLIED kvg:variant CDATA #IMPLIED kvg:partial CDATA #IMPLIED kvg:original CDATA #IMPLIED kvg:part CDATA #IMPLIED kvg:number CDATA #IMPLIED kvg:tradForm CDATA #IMPLIED kvg:radicalForm CDATA #IMPLIED kvg:position CDATA #IMPLIED kvg:radical CDATA #IMPLIED kvg:phon CDATA #IMPLIED >
  <!ATTLIST path xmlns:kvg CDATA #FIXED "http://kanjivg.tagaini.net" kvg:type CDATA #IMPLIED >
  ]>
  <svg xmlns="http://www.w3.org/2000/svg" width="109" height="109" viewBox="0 0 109 109">
<g id="kvg:StrokePaths_08d77" style="fill:none;stroke:#000000;stroke-width:3;stroke-linecap:round;stroke-linejoin:round;">
<g id="kvg:08d77" kvg:element="起">
	<g id="kvg:08d77-g1" kvg:element="走" kvg:position="nyo" kvg:radical="general">
		<g id="kvg:08d77-g2" kvg:element="土">
			<path style="fill:none;stroke:#808080" id="kvg:08d77-s1" kvg:type="㇐" d="M18.2,31.55c1.62,0.35,3.24,0.42,4.86,0.23c7.72-0.7,16-1.96,21.56-2.73c1.71-0.3,3.44-0.35,5.19-0.13"/>
			<path style="fill:none;stroke:#808080" id="kvg:08d77-s2" kvg:type="㇑a" d="M34.09,14.62c0.83,0.83,1.33,2.03,1.33,3.89c0,10.25-0.02,23.2-0.02,26.25"/>
			<path style="fill:none;stroke:#808080" id="kvg:08d77-s3" kvg:type="㇐" d="M13.35,47.95c1.36,0.55,3.85,0.74,5.23,0.55c7.37-1,19.26-3.12,27.17-4c2.25-0.25,4.04-0.23,6.5,0.17"/>
		</g>
		<g id="kvg:08d77-g3" kvg:element="龰">
			<path style="fill:none;stroke:#808080" id="kvg:08d77-s4" kvg:type="㇑a" d="M34.55,49.25c0.97,0.97,1.47,2.25,1.47,3.75c0,3.68-0.06,19.67-0.06,24.75"/>
			<path style="fill:none;stroke:#808080" id="kvg:08d77-s5" kvg:type="㇐b" d="M37.16,63.5c4.51-0.5,9.58-1.59,11.61-1.84c1.35-0.16,2.63-0.07,3.22,0.12"/>
			<path style="fill:none;stroke:#808080" id="kvg:08d77-s6" kvg:type="㇒" d="M24.9,63c0.2,1.3,0.1,2.56-0.3,3.77c-1.85,6.61-6.42,18.33-14.1,26.48"/>
			<path style="fill:none;stroke-width:4;" id="kvg:08d77-s7" kvg:type="㇏" d="M23.6,75.25c11.51,2.08,40.24,13.29,55.89,16.38c3.34,0.66,7.48,1.15,10.76,1.37"/>
<circle cx="23.6" cy="75.25" r="5" style="fill:red;stroke:red;" />
		</g>
	</g>
	<g id="kvg:08d77-g4" kvg:element="己" kvg:position="nyoc" kvg:phon="己">
	</g>
</g>
</g></svg>