<?xml version="1.0" encoding="UTF-8"?>
  <!DOCTYPE svg PUBLIC "-//W3C//DTD SVG 1.0//EN" "http://www.w3.org/TR/2001/REC-SVG-20010904/DTD/svg10.dtd" [
  <!ATTLIST g xmlns:kvg CDATA #FIXED "http://kanjivg.tagaini.net" kvg:element CDATA #IMPLIED kvg:variant CDATA #IMPLIED kvg:partial CDATA #IMPLIED kvg:original CDATA #IMPLIED kvg:part CDATA #IMPLIED kvg:number CDATA #IMPLIED kvg:tradForm CDATA #IMPLIED kvg:radicalForm CDATA #IMPLIED kvg:position CDATA #IMPLIED kvg:radical CDATA #IMPLIED kvg:phon CDATA #IMPLIED >
  <!ATTLIST path xmlns:kvg CDATA #FIXED "http://kanjivg.tagaini.net" kvg:type CDATA #IMPLIED >
  ]>
  <svg xmlns="http://www.w3.org/2000/svg" width="109" height="109" viewBox="0 0 109 109">
<g id="kvg:StrokePaths_08def" style="fill:none;stroke:#000000;stroke-width:3;stroke-linecap:round;stroke-linejoin:round;">
<g id="kvg:08def" kvg:element="路">
	<g id="kvg:08def-g1" kvg:element="足" kvg:position="left" kvg:radical="general">
		<g id="kvg:08def-g2" kvg:element="口">
			<path style="fill:none;stroke:#808080" id="kvg:08def-s1" kvg:type="㇑" d="M14.03,19.24c0.78,0.62,1.23,1.41,1.38,2.38c1.03,3.52,2.15,9.94,2.99,15.38c0.19,1.23,0.36,2.42,0.52,3.5"/>
			<path style="fill:none;stroke:#808080" id="kvg:08def-s2" kvg:type="㇕b" d="M16.22,20.69c8.44-1.14,15.56-2.28,20.29-2.96c3.36-0.48,4.51,0.69,3.75,4.02c-0.93,4.1-1.51,8.43-2.86,13.74"/>
			<path style="fill:none;stroke:#808080" id="kvg:08def-s3" kvg:type="㇐b" d="M19.34,38.32c4.48-0.45,10.04-1.17,16.04-1.87c1.22-0.14,2.46-0.29,3.71-0.43"/>
		</g>
		<path style="fill:none;stroke:#808080" id="kvg:08def-s4" kvg:type="㇑a" d="M28.12,40.49c0.88,0.88,1.71,2.48,1.71,3.5c0,4.38,0.03,25.51,0.03,33.25"/>
		<path style="fill:none;stroke:#808080" id="kvg:08def-s5" kvg:type="㇐b" d="M30.38,55.24c3.37-0.49,6.87-1.24,10.35-1.5c1.74-0.13,2.18-0.25,3.26,0"/>
		<path style="fill:none;stroke:#808080" id="kvg:08def-s6" kvg:type="㇑" d="M15.62,57.99c0.94,0.95,1.46,2.26,1.46,3.75c0,4.26,0.03,15.51,0.03,22.25"/>
		<path style="fill:none;stroke:#808080" id="kvg:08def-s7" kvg:type="㇀/㇏" d="M12.28,85.8c0.83,0.39,2.37,0.13,2.84-0.11c7.72-4.01,15.74-8.45,24.25-12.94"/>
	</g>
	<g id="kvg:08def-g3" kvg:element="各" kvg:position="right" kvg:phon="各">
		<g id="kvg:08def-g4" kvg:element="夂" kvg:position="top">
			<path style="fill:none;stroke-width:4;" id="kvg:08def-s8" kvg:type="㇒" d="M59.75,12.88c0.04,0.67,0.2,1.76-0.09,2.7c-2.02,6.42-7.36,18.21-15.94,25.87"/>
<circle cx="59.75" cy="12.88" r="5" style="fill:red;stroke:red;" />
		</g>
		<g id="kvg:08def-g5" kvg:element="口" kvg:position="bottom">
		</g>
	</g>
</g>
</g></svg>