<?xml version="1.0" encoding="UTF-8"?>
  <!DOCTYPE svg PUBLIC "-//W3C//DTD SVG 1.0//EN" "http://www.w3.org/TR/2001/REC-SVG-20010904/DTD/svg10.dtd" [
  <!ATTLIST g xmlns:kvg CDATA #FIXED "http://kanjivg.tagaini.net" kvg:element CDATA #IMPLIED kvg:variant CDATA #IMPLIED kvg:partial CDATA #IMPLIED kvg:original CDATA #IMPLIED kvg:part CDATA #IMPLIED kvg:number CDATA #IMPLIED kvg:tradForm CDATA #IMPLIED kvg:radicalForm CDATA #IMPLIED kvg:position CDATA #IMPLIED kvg:radical CDATA #IMPLIED kvg:phon CDATA #IMPLIED >
  <!ATTLIST path xmlns:kvg CDATA #FIXED "http://kanjivg.tagaini.net" kvg:type CDATA #IMPLIED >
  ]>
  <svg xmlns="http://www.w3.org/2000/svg" width="109" height="109" viewBox="0 0 109 109">
<g id="kvg:StrokePaths_08eca" style="fill:none;stroke:#000000;stroke-width:3;stroke-linecap:round;stroke-linejoin:round;">
<g id="kvg:08eca" kvg:element="車" kvg:radical="general">
	<path style="fill:none;stroke:#808080" id="kvg:08eca-s1" kvg:type="㇐" d="M26,26c2.85,0.69,6.1,0.14,8.98-0.1c11.09-0.93,25.8-2.64,38.89-3.51c2.68-0.18,5.22-0.16,7.88,0.23"/>
	<path style="fill:none;stroke:#808080" id="kvg:08eca-s2" kvg:type="㇑" d="M27.5,37.92c0.81,0.5,1.83,2.39,1.98,3.05c0.85,3.73,1.83,11.31,2.95,18.54c0.32,2.09,0.41,3.2,0.75,5.24"/>
	<path style="fill:none;stroke:#808080" id="kvg:08eca-s3" kvg:type="㇕a" d="M30.36,39.49c14.52-1.61,36.14-4.11,47.63-4.5c3.46-0.12,4.17,1.57,4.03,3.08c-0.42,4.32-2.01,13.81-3.5,20.19c-0.21,0.89-0.51,1.87-0.76,3"/>
	<path style="fill:none;stroke:#808080" id="kvg:08eca-s4" kvg:type="㇐a" d="M32.5,51.25c13.75-1.5,34.25-3.75,47-4.25"/>
	<path style="fill:none;stroke-width:4;" id="kvg:08eca-s5" kvg:type="㇐a" d="M34.25,63.25C46,61.62,65,59.75,77,59.25"/>
<circle cx="34.25" cy="63.25" r="5" style="fill:red;stroke:red;" />
</g>
</g></svg>