<?xml version="1.0" encoding="UTF-8"?>
  <!DOCTYPE svg PUBLIC "-//W3C//DTD SVG 1.0//EN" "http://www.w3.org/TR/2001/REC-SVG-20010904/DTD/svg10.dtd" [
  <!ATTLIST g xmlns:kvg CDATA #FIXED "http://kanjivg.tagaini.net" kvg:element CDATA #IMPLIED kvg:variant CDATA #IMPLIED kvg:partial CDATA #IMPLIED kvg:original CDATA #IMPLIED kvg:part CDATA #IMPLIED kvg:number CDATA #IMPLIED kvg:tradForm CDATA #IMPLIED kvg:radicalForm CDATA #IMPLIED kvg:position CDATA #IMPLIED kvg:radical CDATA #IMPLIED kvg:phon CDATA #IMPLIED >
  <!ATTLIST path xmlns:kvg CDATA #FIXED "http://kanjivg.tagaini.net" kvg:type CDATA #IMPLIED >
  ]>
  <svg xmlns="http://www.w3.org/2000/svg" width="109" height="109" viewBox="0 0 109 109">
<g id="kvg:StrokePaths_08ecd" style="fill:none;stroke:#000000;stroke-width:3;stroke-linecap:round;stroke-linejoin:round;">
<g id="kvg:08ecd" kvg:element="軍">
	<g id="kvg:08ecd-g1" kvg:element="冖" kvg:position="top" kvg:radical="nelson">
		<path style="fill:none;stroke:#808080" id="kvg:08ecd-s1" kvg:type="㇔" d="M23.04,16.47c-0.13,4.46-3.19,16.12-4.29,18.78"/>
		<path style="fill:none;stroke:#808080" id="kvg:08ecd-s2" kvg:type="㇖b" d="M24.08,18.83c10.17-1.45,43.09-4.17,58.76-4.83c11.91-0.5,1.6,8.57,0.13,9.97"/>
	</g>
	<g id="kvg:08ecd-g2" kvg:element="車" kvg:position="bottom" kvg:radical="tradit">
		<path style="fill:none;stroke:#808080" id="kvg:08ecd-s3" kvg:type="㇐" d="M32.89,30.7c2.12,0.82,4.7,0.29,6.88,0.07c8.06-0.82,18.34-2.19,27.37-2.79c2.36-0.16,4.66-0.37,6.98,0.17"/>
		<path style="fill:none;stroke:#808080" id="kvg:08ecd-s4" kvg:type="㇑" d="M28.32,40.89c0.77,0.77,1.47,2.12,1.62,2.77c0.88,4.03,1.73,12.72,2.86,20.73c0.19,1.37,0.4,2.72,0.61,4.02"/>
		<path style="fill:none;stroke:#808080" id="kvg:08ecd-s5" kvg:type="㇕a" d="M30.74,42.67C44.17,41.18,66.42,38.8,75,38.53c3.55-0.11,4.92,0.84,4.42,4.36c-0.64,4.54-2.14,11.5-4,18.09c-0.34,1.19-0.69,2.37-1.04,3.53"/>
		<path style="fill:none;stroke-width:4;" id="kvg:08ecd-s6" kvg:type="㇐a" d="M32.71,53.94c10.54-1.06,27.91-2.56,44.27-3.17"/>
<circle cx="32.71" cy="53.94" r="5" style="fill:red;stroke:red;" />
	</g>
</g>
</g></svg>