<?xml version="1.0" encoding="UTF-8"?>
  <!DOCTYPE svg PUBLIC "-//W3C//DTD SVG 1.0//EN" "http://www.w3.org/TR/2001/REC-SVG-20010904/DTD/svg10.dtd" [
  <!ATTLIST g xmlns:kvg CDATA #FIXED "http://kanjivg.tagaini.net" kvg:element CDATA #IMPLIED kvg:variant CDATA #IMPLIED kvg:partial CDATA #IMPLIED kvg:original CDATA #IMPLIED kvg:part CDATA #IMPLIED kvg:number CDATA #IMPLIED kvg:tradForm CDATA #IMPLIED kvg:radicalForm CDATA #IMPLIED kvg:position CDATA #IMPLIED kvg:radical CDATA #IMPLIED kvg:phon CDATA #IMPLIED >
  <!ATTLIST path xmlns:kvg CDATA #FIXED "http://kanjivg.tagaini.net" kvg:type CDATA #IMPLIED >
  ]>
  <svg xmlns="http://www.w3.org/2000/svg" width="109" height="109" viewBox="0 0 109 109">
<g id="kvg:StrokePaths_08efd" style="fill:none;stroke:#000000;stroke-width:3;stroke-linecap:round;stroke-linejoin:round;">
<g id="kvg:08efd" kvg:element="軽">
	<g id="kvg:08efd-g1" kvg:element="車" kvg:position="left" kvg:radical="general">
		<path style="fill:none;stroke:#808080" id="kvg:08efd-s1" kvg:type="㇐" d="M13.25,28.56c1.77,0.56,3.81,0.35,5.62,0.22c8.22-0.6,15-2.04,22.52-2.88c1.77-0.2,3.59-0.42,5.36-0.09"/>
		<path style="fill:none;stroke:#808080" id="kvg:08efd-s2" kvg:type="㇑" d="M13,39.69c0.9,0.9,1.5,1.81,1.67,2.89c0.56,3.52,1.82,10.42,2.76,17.28c0.21,1.56,0.41,3.12,0.58,4.64"/>
		<path style="fill:none;stroke-width:4;" id="kvg:08efd-s3" kvg:type="㇕a" d="M15.09,42.08c8.16-1.33,22.1-4.21,27.05-4.34c2.05-0.06,3.22,1.43,3.13,2.79c-0.25,3.83-1.28,10.12-2.84,16.39c-0.34,1.36-0.7,2.71-1.08,4.04"/>
<circle cx="15.09" cy="42.08" r="5" style="fill:red;stroke:red;" />
	</g>
	<g id="kvg:08efd-g2" kvg:element="圣" kvg:position="right" kvg:phon="圣">
		<g id="kvg:08efd-g3" kvg:element="又" kvg:position="top">
		</g>
		<g id="kvg:08efd-g4" kvg:element="土" kvg:position="bottom">
		</g>
	</g>
</g>
</g></svg>