<?xml version="1.0" encoding="UTF-8"?>
  <!DOCTYPE svg PUBLIC "-//W3C//DTD SVG 1.0//EN" "http://www.w3.org/TR/2001/REC-SVG-20010904/DTD/svg10.dtd" [
  <!ATTLIST g xmlns:kvg CDATA #FIXED "http://kanjivg.tagaini.net" kvg:element CDATA #IMPLIED kvg:variant CDATA #IMPLIED kvg:partial CDATA #IMPLIED kvg:original CDATA #IMPLIED kvg:part CDATA #IMPLIED kvg:number CDATA #IMPLIED kvg:tradForm CDATA #IMPLIED kvg:radicalForm CDATA #IMPLIED kvg:position CDATA #IMPLIED kvg:radical CDATA #IMPLIED kvg:phon CDATA #IMPLIED >
  <!ATTLIST path xmlns:kvg CDATA #FIXED "http://kanjivg.tagaini.net" kvg:type CDATA #IMPLIED >
  ]>
  <svg xmlns="http://www.w3.org/2000/svg" width="109" height="109" viewBox="0 0 109 109">
<g id="kvg:StrokePaths_08f38" style="fill:none;stroke:#000000;stroke-width:3;stroke-linecap:round;stroke-linejoin:round;">
<g id="kvg:08f38" kvg:element="輸">
	<g id="kvg:08f38-g1" kvg:element="車" kvg:position="left" kvg:radical="general">
		<path style="fill:none;stroke:#808080" id="kvg:08f38-s1" kvg:type="㇐" d="M11.08,27.3c1.17,0.45,3.72,0.42,4.34,0.36c6.77-0.64,14.29-2.54,22.48-3.54c1.11-0.14,2.44-0.42,3.54-0.03"/>
		<path style="fill:none;stroke:#808080" id="kvg:08f38-s2" kvg:type="㇑" d="M11.81,39.02c0.71,0.71,1.06,1.77,1.14,2.35c0.52,3.41,1.27,9.16,2.19,16.11c0.21,1.56,0.4,3.08,0.56,4.53"/>
		<path style="fill:none;stroke-width:4;" id="kvg:08f38-s3" kvg:type="㇕a" d="M13.85,40.6c7.42-1.66,18.11-4.03,23.77-4.6c3.2-0.32,4.24,0.77,3.98,3.88c-0.33,3.83-0.92,9.55-2.03,15.13c-0.24,1.19-0.48,2.39-0.74,3.59"/>
<circle cx="13.85" cy="40.6" r="5" style="fill:red;stroke:red;" />
	</g>
	<g id="kvg:08f38-g2" kvg:element="兪" kvg:variant="true" kvg:position="right" kvg:phon="兪">
		<g id="kvg:08f38-g3" kvg:element="入" kvg:original="人" kvg:position="top">
		</g>
		<g id="kvg:08f38-g4" kvg:position="bottom">
			<g id="kvg:08f38-g5" kvg:element="一">
			</g>
			<g id="kvg:08f38-g6" kvg:element="月">
			</g>
			<g id="kvg:08f38-g7" kvg:element="刂" kvg:variant="true" kvg:original="刀">
			</g>
		</g>
	</g>
</g>
</g></svg>