<?xml version="1.0" encoding="UTF-8"?>
  <!DOCTYPE svg PUBLIC "-//W3C//DTD SVG 1.0//EN" "http://www.w3.org/TR/2001/REC-SVG-20010904/DTD/svg10.dtd" [
  <!ATTLIST g xmlns:kvg CDATA #FIXED "http://kanjivg.tagaini.net" kvg:element CDATA #IMPLIED kvg:variant CDATA #IMPLIED kvg:partial CDATA #IMPLIED kvg:original CDATA #IMPLIED kvg:part CDATA #IMPLIED kvg:number CDATA #IMPLIED kvg:tradForm CDATA #IMPLIED kvg:radicalForm CDATA #IMPLIED kvg:position CDATA #IMPLIED kvg:radical CDATA #IMPLIED kvg:phon CDATA #IMPLIED >
  <!ATTLIST path xmlns:kvg CDATA #FIXED "http://kanjivg.tagaini.net" kvg:type CDATA #IMPLIED >
  ]>
  <svg xmlns="http://www.w3.org/2000/svg" width="109" height="109" viewBox="0 0 109 109">
<g id="kvg:StrokePaths_08f38" style="fill:none;stroke:#000000;stroke-width:3;stroke-linecap:round;stroke-linejoin:round;">
<g id="kvg:08f38" kvg:element="輸">
	<g id="kvg:08f38-g1" kvg:element="車" kvg:position="left" kvg:radical="general">
		<path style="fill:none;stroke:#808080" id="kvg:08f38-s1" kvg:type="㇐" d="M11.08,27.3c1.17,0.45,3.72,0.42,4.34,0.36c6.77-0.64,14.29-2.54,22.48-3.54c1.11-0.14,2.44-0.42,3.54-0.03"/>
		<path style="fill:none;stroke:#808080" id="kvg:08f38-s2" kvg:type="㇑" d="M11.81,39.02c0.71,0.71,1.06,1.77,1.14,2.35c0.52,3.41,1.27,9.16,2.19,16.11c0.21,1.56,0.4,3.08,0.56,4.53"/>
		<path style="fill:none;stroke:#808080" id="kvg:08f38-s3" kvg:type="㇕a" d="M13.85,40.6c7.42-1.66,18.11-4.03,23.77-4.6c3.2-0.32,4.24,0.77,3.98,3.88c-0.33,3.83-0.92,9.55-2.03,15.13c-0.24,1.19-0.48,2.39-0.74,3.59"/>
		<path style="fill:none;stroke:#808080" id="kvg:08f38-s4" kvg:type="㇐a" d="M15.27,50.03c8.1-1.53,17.23-3.16,24.5-3.76"/>
		<path style="fill:none;stroke:#808080" id="kvg:08f38-s5" kvg:type="㇐a" d="M16.75,59.21c6.2-0.87,13.25-2.08,21.33-2.72"/>
		<path style="fill:none;stroke:#808080" id="kvg:08f38-s6" kvg:type="㇐" d="M10.03,73.96c1.61,0.29,3.57,0.12,4.83-0.03c9.78-1.18,14.76-2.81,22.57-3.56c2.09-0.2,3.36-0.28,4.41-0.04"/>
		<path style="fill:none;stroke:#808080" id="kvg:08f38-s7" kvg:type="㇑" d="M24.8,12.38c1.09,1.09,1.39,2.51,1.48,3.65c0.08,0.95-0.02,50.61-0.1,70.97c-0.02,3.92-0.03,6.74-0.05,7.88"/>
	</g>
	<g id="kvg:08f38-g2" kvg:element="兪" kvg:variant="true" kvg:position="right" kvg:phon="兪">
		<g id="kvg:08f38-g3" kvg:element="入" kvg:original="人" kvg:position="top">
			<path style="fill:none;stroke-width:4;" id="kvg:08f38-s8" kvg:type="㇒" d="M64.82,12c0.06,0.8,0.07,2.15-0.37,3.2c-2.7,6.42-9.7,18.92-19.7,29.4"/>
<circle cx="64.82" cy="12" r="5" style="fill:red;stroke:red;" />
		</g>
		<g id="kvg:08f38-g4" kvg:position="bottom">
			<g id="kvg:08f38-g5" kvg:element="一">
			</g>
			<g id="kvg:08f38-g6" kvg:element="月">
			</g>
			<g id="kvg:08f38-g7" kvg:element="刂" kvg:variant="true" kvg:original="刀">
			</g>
		</g>
	</g>
</g>
</g></svg>