<?xml version="1.0" encoding="UTF-8"?>
  <!DOCTYPE svg PUBLIC "-//W3C//DTD SVG 1.0//EN" "http://www.w3.org/TR/2001/REC-SVG-20010904/DTD/svg10.dtd" [
  <!ATTLIST g xmlns:kvg CDATA #FIXED "http://kanjivg.tagaini.net" kvg:element CDATA #IMPLIED kvg:variant CDATA #IMPLIED kvg:partial CDATA #IMPLIED kvg:original CDATA #IMPLIED kvg:part CDATA #IMPLIED kvg:number CDATA #IMPLIED kvg:tradForm CDATA #IMPLIED kvg:radicalForm CDATA #IMPLIED kvg:position CDATA #IMPLIED kvg:radical CDATA #IMPLIED kvg:phon CDATA #IMPLIED >
  <!ATTLIST path xmlns:kvg CDATA #FIXED "http://kanjivg.tagaini.net" kvg:type CDATA #IMPLIED >
  ]>
  <svg xmlns="http://www.w3.org/2000/svg" width="109" height="109" viewBox="0 0 109 109">
<g id="kvg:StrokePaths_08fb2" style="fill:none;stroke:#000000;stroke-width:3;stroke-linecap:round;stroke-linejoin:round;">
<g id="kvg:08fb2" kvg:element="農">
	<g id="kvg:08fb2-g1" kvg:element="曲" kvg:position="top">
		<g id="kvg:08fb2-g2" kvg:element="日" kvg:part="1">
			<path style="fill:none;stroke:#808080" id="kvg:08fb2-s1" kvg:type="㇑" d="M28.05,19.42c0.95,0.46,1.52,1.55,1.7,2.21c0.87,3.25,2.75,12.87,3.95,17.86c0.2,0.81,0.35,1.51,0.48,2.28"/>
			<path style="fill:none;stroke:#808080" id="kvg:08fb2-s2" kvg:type="㇕a" d="M30.34,20.63c2.95-0.29,36.86-3.14,44.78-3.69c3.46-0.24,5.52,0.59,4.6,4.23c-1.09,4.33-1.87,7.53-3.75,14.48c-0.27,1-0.56,2.06-0.86,3.17"/>
		</g>
		<g id="kvg:08fb2-g3" kvg:element="廾" kvg:part="1" kvg:variant="true">
			<g id="kvg:08fb2-g4" kvg:element="丿">
				<g id="kvg:08fb2-g5" kvg:element="十" kvg:part="1">
					<path style="fill:none;stroke-width:4;" id="kvg:08fb2-s3" kvg:type="㇑a" d="M43.39,11.16c1.24,0.96,1.71,2.07,1.82,3.02c1.29,11.57,1.29,12.57,2.51,23.79"/>
<circle cx="43.39" cy="11.16" r="5" style="fill:red;stroke:red;" />
				</g>
			</g>
			<g id="kvg:08fb2-g6" kvg:element="日" kvg:part="2">
				<g id="kvg:08fb2-g7" kvg:element="十" kvg:part="2">
				</g>
			</g>
		</g>
	</g>
	<g id="kvg:08fb2-g8" kvg:element="辰" kvg:position="bottom" kvg:radical="general">
		<g id="kvg:08fb2-g9" kvg:element="厂">
		</g>
	</g>
</g>
</g></svg>