<?xml version="1.0" encoding="UTF-8"?>
  <!DOCTYPE svg PUBLIC "-//W3C//DTD SVG 1.0//EN" "http://www.w3.org/TR/2001/REC-SVG-20010904/DTD/svg10.dtd" [
  <!ATTLIST g xmlns:kvg CDATA #FIXED "http://kanjivg.tagaini.net" kvg:element CDATA #IMPLIED kvg:variant CDATA #IMPLIED kvg:partial CDATA #IMPLIED kvg:original CDATA #IMPLIED kvg:part CDATA #IMPLIED kvg:number CDATA #IMPLIED kvg:tradForm CDATA #IMPLIED kvg:radicalForm CDATA #IMPLIED kvg:position CDATA #IMPLIED kvg:radical CDATA #IMPLIED kvg:phon CDATA #IMPLIED >
  <!ATTLIST path xmlns:kvg CDATA #FIXED "http://kanjivg.tagaini.net" kvg:type CDATA #IMPLIED >
  ]>
  <svg xmlns="http://www.w3.org/2000/svg" width="109" height="109" viewBox="0 0 109 109">
<g id="kvg:StrokePaths_08fd4" style="fill:none;stroke:#000000;stroke-width:3;stroke-linecap:round;stroke-linejoin:round;">
<g id="kvg:08fd4" kvg:element="返">
	<g id="kvg:08fd4-g1" kvg:element="反" kvg:position="nyoc" kvg:phon="反">
		<g id="kvg:08fd4-g2" kvg:element="厂">
			<path style="fill:none;stroke:#808080" id="kvg:08fd4-s1" kvg:type="㇐" d="M47.29,21.2c2.34,0.68,5.1,0.4,7.36,0.13c7.2-0.88,15.44-3.19,22.73-3.69c2.12-0.15,4.28-0.19,6.36,0.32"/>
			<path style="fill:none;stroke:#808080" id="kvg:08fd4-s2" kvg:type="㇒" d="M49.86,21.63c0.94,0.94,1.26,2.36,1.18,4.1c-0.92,19.77-3.92,34.02-13.2,47"/>
		</g>
		<g id="kvg:08fd4-g3" kvg:element="又">
			<path style="fill:none;stroke:#808080" id="kvg:08fd4-s3" kvg:type="㇇" d="M54.16,38.25c1.24,0.29,2.39,0.48,4.87,0.04c2.48-0.44,15.15-3.97,16.85-4.4c1.7-0.44,3.66,1.09,3.07,2.7C72.5,54.38,62.88,69.62,44.91,77.51"/>
			<path style="fill:none;stroke-width:4;" id="kvg:08fd4-s4" kvg:type="㇏" d="M54.14,47.38c3.21,0.65,17.21,16.04,28.92,24.68c2.48,1.83,5.25,3.99,8.32,4.7"/>
<circle cx="54.14" cy="47.38" r="5" style="fill:red;stroke:red;" />
		</g>
	</g>
	<g id="kvg:08fd4-g4" kvg:element="⻌" kvg:original="辶" kvg:position="nyo" kvg:radical="general">
	</g>
</g>
</g></svg>