<?xml version="1.0" encoding="UTF-8"?>
  <!DOCTYPE svg PUBLIC "-//W3C//DTD SVG 1.0//EN" "http://www.w3.org/TR/2001/REC-SVG-20010904/DTD/svg10.dtd" [
  <!ATTLIST g xmlns:kvg CDATA #FIXED "http://kanjivg.tagaini.net" kvg:element CDATA #IMPLIED kvg:variant CDATA #IMPLIED kvg:partial CDATA #IMPLIED kvg:original CDATA #IMPLIED kvg:part CDATA #IMPLIED kvg:number CDATA #IMPLIED kvg:tradForm CDATA #IMPLIED kvg:radicalForm CDATA #IMPLIED kvg:position CDATA #IMPLIED kvg:radical CDATA #IMPLIED kvg:phon CDATA #IMPLIED >
  <!ATTLIST path xmlns:kvg CDATA #FIXED "http://kanjivg.tagaini.net" kvg:type CDATA #IMPLIED >
  ]>
  <svg xmlns="http://www.w3.org/2000/svg" width="109" height="109" viewBox="0 0 109 109">
<g id="kvg:StrokePaths_08fd1" style="fill:none;stroke:#000000;stroke-width:3;stroke-linecap:round;stroke-linejoin:round;">
<g id="kvg:08fd1" kvg:element="近">
	<g id="kvg:08fd1-g1" kvg:element="斤" kvg:position="nyoc" kvg:phon="斤">
		<path style="fill:none;stroke:#808080" id="kvg:08fd1-s1" kvg:type="㇒" d="M77.75,13.25c-0.25,1.5-1.74,2.71-2.86,3.4C70.25,19.5,62.5,23,51.81,26.72"/>
		<path style="fill:none;stroke:#808080" id="kvg:08fd1-s2" kvg:type="㇒" d="M48.54,25.5c0.96,1.25,1.45,2.93,1.45,4.56c0,18.44,0.14,31.94-9.18,44.15"/>
		<path style="fill:none;stroke:#808080" id="kvg:08fd1-s3" kvg:type="㇐" d="M52.75,40.9c0.58,0.12,3.06,0.31,4.6,0.12C65.62,40,78.72,37.99,87.9,37.2c1.54-0.13,4.25-0.12,5.22,0"/>
		<path style="fill:none;stroke:#808080" id="kvg:08fd1-s4" kvg:type="㇑" d="M72.87,41.75c1.19,1.19,1.71,2.38,1.71,3.75c0,2.08-0.07,22.38-0.09,35c0,1.75,0,3.36,0,4.75"/>
	</g>
	<g id="kvg:08fd1-g2" kvg:element="⻌" kvg:original="辶" kvg:position="nyo" kvg:radical="general">
		<path style="fill:none;stroke-width:4;" id="kvg:08fd1-s5" kvg:type="㇔" d="M20.96,19.25c3.63,1.74,9.38,7.17,10.29,9.88"/>
<circle cx="20.96" cy="19.25" r="5" style="fill:red;stroke:red;" />
	</g>
</g>
</g></svg>