<?xml version="1.0" encoding="UTF-8"?>
  <!DOCTYPE svg PUBLIC "-//W3C//DTD SVG 1.0//EN" "http://www.w3.org/TR/2001/REC-SVG-20010904/DTD/svg10.dtd" [
  <!ATTLIST g xmlns:kvg CDATA #FIXED "http://kanjivg.tagaini.net" kvg:element CDATA #IMPLIED kvg:variant CDATA #IMPLIED kvg:partial CDATA #IMPLIED kvg:original CDATA #IMPLIED kvg:part CDATA #IMPLIED kvg:number CDATA #IMPLIED kvg:tradForm CDATA #IMPLIED kvg:radicalForm CDATA #IMPLIED kvg:position CDATA #IMPLIED kvg:radical CDATA #IMPLIED kvg:phon CDATA #IMPLIED >
  <!ATTLIST path xmlns:kvg CDATA #FIXED "http://kanjivg.tagaini.net" kvg:type CDATA #IMPLIED >
  ]>
  <svg xmlns="http://www.w3.org/2000/svg" width="109" height="109" viewBox="0 0 109 109">
<g id="kvg:StrokePaths_08ff0" style="fill:none;stroke:#000000;stroke-width:3;stroke-linecap:round;stroke-linejoin:round;">
<g id="kvg:08ff0" kvg:element="述">
	<g id="kvg:08ff0-g1" kvg:element="朮" kvg:position="nyoc" kvg:phon="朮">
		<g id="kvg:08ff0-g2" kvg:element="木" kvg:variant="true">
			<path style="fill:none;stroke:#808080" id="kvg:08ff0-s1" kvg:type="㇐" d="M41.11,35c2.14,0.5,4.51,0.46,6.79,0.09C57,33.62,70.75,32,80.14,31.14c1.48-0.14,3.78-0.27,5.22,0.15"/>
			<path style="fill:none;stroke:#808080" id="kvg:08ff0-s2" kvg:type="㇑" d="M61.87,13.5c1,1,1.8,2.5,1.8,3.88c0,0.78,0.09,34.87,0.09,51.74c0,3.88-0.04,5.38-0.04,7.88"/>
			<path style="fill:none;stroke:#808080" id="kvg:08ff0-s3" kvg:type="㇒" d="M50.58,44.5c0.42,0.88,0.4,2.16,0.24,2.9c-1.94,9.1-6.07,17.85-12.32,25.39"/>
			<path style="fill:none;stroke:#808080" id="kvg:08ff0-s4" kvg:type="㇔/㇏" d="M75.37,46.08C79.25,51,84.5,62.75,85.95,70.22"/>
		</g>
		<g id="kvg:08ff0-g3" kvg:element="丶">
			<path style="fill:none;stroke-width:4;" id="kvg:08ff0-s5" kvg:type="㇔" d="M75.44,14.33c4.06,2.29,8.19,6.17,10.12,9.13"/>
<circle cx="75.44" cy="14.33" r="5" style="fill:red;stroke:red;" />
		</g>
	</g>
	<g id="kvg:08ff0-g4" kvg:element="⻌" kvg:original="辶" kvg:position="nyo" kvg:radical="general">
	</g>
</g>
</g></svg>