<?xml version="1.0" encoding="UTF-8"?>
  <!DOCTYPE svg PUBLIC "-//W3C//DTD SVG 1.0//EN" "http://www.w3.org/TR/2001/REC-SVG-20010904/DTD/svg10.dtd" [
  <!ATTLIST g xmlns:kvg CDATA #FIXED "http://kanjivg.tagaini.net" kvg:element CDATA #IMPLIED kvg:variant CDATA #IMPLIED kvg:partial CDATA #IMPLIED kvg:original CDATA #IMPLIED kvg:part CDATA #IMPLIED kvg:number CDATA #IMPLIED kvg:tradForm CDATA #IMPLIED kvg:radicalForm CDATA #IMPLIED kvg:position CDATA #IMPLIED kvg:radical CDATA #IMPLIED kvg:phon CDATA #IMPLIED >
  <!ATTLIST path xmlns:kvg CDATA #FIXED "http://kanjivg.tagaini.net" kvg:type CDATA #IMPLIED >
  ]>
  <svg xmlns="http://www.w3.org/2000/svg" width="109" height="109" viewBox="0 0 109 109">
<g id="kvg:StrokePaths_08ff7" style="fill:none;stroke:#000000;stroke-width:3;stroke-linecap:round;stroke-linejoin:round;">
<g id="kvg:08ff7" kvg:element="迷">
	<g id="kvg:08ff7-g1" kvg:element="米" kvg:variant="true" kvg:position="nyoc" kvg:phon="米">
		<path style="fill:none;stroke:#808080" id="kvg:08ff7-s1" kvg:type="㇔" d="M44.32,24.39c3.24,2.4,8.12,9.18,8.93,12.91"/>
		<path style="fill:none;stroke:#808080" id="kvg:08ff7-s2" kvg:type="㇒" d="M85.76,21.47c0.08,0.82,0.04,1.63-0.35,2.35c-1.66,3.06-4.79,7.33-8.84,11.48"/>
		<path style="fill:none;stroke:#808080" id="kvg:08ff7-s3" kvg:type="㇐" d="M40.35,47.23c2.15,0.39,4.7,0.36,6.9,0.03c10.19-1.5,27.19-3.32,36.64-4.23c2.47-0.24,5.03-0.35,7.47,0.27"/>
		<path style="fill:none;stroke:#808080" id="kvg:08ff7-s4" kvg:type="㇑" d="M64.77,11.96c0.88,0.88,1.34,2.29,1.34,3.69c0,5.22-0.08,55.47-0.08,60.6c0,4.36-0.06,7.48-0.1,8.54"/>
		<path style="fill:none;stroke-width:4;" id="kvg:08ff7-s5" kvg:type="㇒" d="M62.27,46.71c0,0.91-0.35,1.92-1.19,3.47c-4.94,9.08-13.79,19.5-21.83,24.3"/>
<circle cx="62.27" cy="46.71" r="5" style="fill:red;stroke:red;" />
	</g>
	<g id="kvg:08ff7-g2" kvg:element="⻌" kvg:original="辶" kvg:position="nyo" kvg:radical="general">
	</g>
</g>
</g></svg>