<?xml version="1.0" encoding="UTF-8"?>
  <!DOCTYPE svg PUBLIC "-//W3C//DTD SVG 1.0//EN" "http://www.w3.org/TR/2001/REC-SVG-20010904/DTD/svg10.dtd" [
  <!ATTLIST g xmlns:kvg CDATA #FIXED "http://kanjivg.tagaini.net" kvg:element CDATA #IMPLIED kvg:variant CDATA #IMPLIED kvg:partial CDATA #IMPLIED kvg:original CDATA #IMPLIED kvg:part CDATA #IMPLIED kvg:number CDATA #IMPLIED kvg:tradForm CDATA #IMPLIED kvg:radicalForm CDATA #IMPLIED kvg:position CDATA #IMPLIED kvg:radical CDATA #IMPLIED kvg:phon CDATA #IMPLIED >
  <!ATTLIST path xmlns:kvg CDATA #FIXED "http://kanjivg.tagaini.net" kvg:type CDATA #IMPLIED >
  ]>
  <svg xmlns="http://www.w3.org/2000/svg" width="109" height="109" viewBox="0 0 109 109">
<g id="kvg:StrokePaths_09000" style="fill:none;stroke:#000000;stroke-width:3;stroke-linecap:round;stroke-linejoin:round;">
<g id="kvg:09000" kvg:element="退">
	<g id="kvg:09000-g1" kvg:element="艮" kvg:position="nyoc">
		<path style="fill:none;stroke:#808080" id="kvg:09000-s1" kvg:type="㇕" d="M51.5,17.82c8.45-1.47,16.9-2.84,21.77-3.41c2.48-0.29,4.73,1.34,4.39,3.72c-0.7,5.04-2,14.91-2.88,20.42c-0.27,1.71-0.52,3.03-0.71,3.72"/>
		<path style="fill:none;stroke:#808080" id="kvg:09000-s2" kvg:type="㇐a" d="M51.65,29.88c6.72-0.88,18.76-2.4,23.81-2.82"/>
		<path style="fill:none;stroke:#808080" id="kvg:09000-s3" kvg:type="㇐a" d="M51.59,42.87c8.28-1.37,13.83-1.83,21.66-2.65"/>
		<path style="fill:none;stroke-width:4;" id="kvg:09000-s4" kvg:type="㇙" d="M48.54,16.69c1.33,1.06,1.89,2.94,1.89,4.98c0,3.84-0.01,47.81-0.01,50.48c0,4.23,2.11,4.47,4.58,2.1c3-2.88,6.88-6.12,10.19-8.81"/>
<circle cx="48.54" cy="16.69" r="5" style="fill:red;stroke:red;" />
	</g>
	<g id="kvg:09000-g2" kvg:element="⻌" kvg:original="辶" kvg:position="nyo" kvg:radical="general">
	</g>
</g>
</g></svg>