<?xml version="1.0" encoding="UTF-8"?>
  <!DOCTYPE svg PUBLIC "-//W3C//DTD SVG 1.0//EN" "http://www.w3.org/TR/2001/REC-SVG-20010904/DTD/svg10.dtd" [
  <!ATTLIST g xmlns:kvg CDATA #FIXED "http://kanjivg.tagaini.net" kvg:element CDATA #IMPLIED kvg:variant CDATA #IMPLIED kvg:partial CDATA #IMPLIED kvg:original CDATA #IMPLIED kvg:part CDATA #IMPLIED kvg:number CDATA #IMPLIED kvg:tradForm CDATA #IMPLIED kvg:radicalForm CDATA #IMPLIED kvg:position CDATA #IMPLIED kvg:radical CDATA #IMPLIED kvg:phon CDATA #IMPLIED >
  <!ATTLIST path xmlns:kvg CDATA #FIXED "http://kanjivg.tagaini.net" kvg:type CDATA #IMPLIED >
  ]>
  <svg xmlns="http://www.w3.org/2000/svg" width="109" height="109" viewBox="0 0 109 109">
<g id="kvg:StrokePaths_09006" style="fill:none;stroke:#000000;stroke-width:3;stroke-linecap:round;stroke-linejoin:round;">
<g id="kvg:09006" kvg:element="逆">
	<g id="kvg:09006-g1" kvg:element="屰" kvg:position="nyoc" kvg:phon="1+4+2+屮">
		<path style="fill:none;stroke:#808080" id="kvg:09006-s1" kvg:type="㇔" d="M46.39,15.81c3.2,2.12,7.61,7.07,9.07,11.99"/>
		<path style="fill:none;stroke:#808080" id="kvg:09006-s2" kvg:type="㇒" d="M78.53,13.29c0.06,0.85-0.13,1.76-0.48,2.53c-1.75,3.89-4.84,8.5-9.94,14.25"/>
		<path style="fill:none;stroke:#808080" id="kvg:09006-s3" kvg:type="㇐" d="M40.75,35.39c2.75,0.49,4.9,0.32,7.14-0.06c9.36-1.58,26.25-3.84,34.63-4.84c2.13-0.25,4.4-0.49,6.48,0.02"/>
		<g id="kvg:09006-g2" kvg:element="屮">
			<g id="kvg:09006-g3" kvg:element="凵">
				<path style="fill:none;stroke-width:4;" id="kvg:09006-s4" kvg:type="㇗a" d="M47.05,46.58c0.75,0.75,0.98,2.19,0.75,3.63c-0.67,4.16-1.21,9.87-1.39,11.85c-0.14,1.54,0.24,2.63,1.79,2.25c10.56-2.57,22.56-4.82,33.29-5.47"/>
<circle cx="47.05" cy="46.58" r="5" style="fill:red;stroke:red;" />
			</g>
			<g id="kvg:09006-g4" kvg:element="丿">
			</g>
		</g>
	</g>
	<g id="kvg:09006-g5" kvg:element="⻌" kvg:original="辶" kvg:position="nyo" kvg:radical="general">
	</g>
</g>
</g></svg>