<?xml version="1.0" encoding="UTF-8"?>
  <!DOCTYPE svg PUBLIC "-//W3C//DTD SVG 1.0//EN" "http://www.w3.org/TR/2001/REC-SVG-20010904/DTD/svg10.dtd" [
  <!ATTLIST g xmlns:kvg CDATA #FIXED "http://kanjivg.tagaini.net" kvg:element CDATA #IMPLIED kvg:variant CDATA #IMPLIED kvg:partial CDATA #IMPLIED kvg:original CDATA #IMPLIED kvg:part CDATA #IMPLIED kvg:number CDATA #IMPLIED kvg:tradForm CDATA #IMPLIED kvg:radicalForm CDATA #IMPLIED kvg:position CDATA #IMPLIED kvg:radical CDATA #IMPLIED kvg:phon CDATA #IMPLIED >
  <!ATTLIST path xmlns:kvg CDATA #FIXED "http://kanjivg.tagaini.net" kvg:type CDATA #IMPLIED >
  ]>
  <svg xmlns="http://www.w3.org/2000/svg" width="109" height="109" viewBox="0 0 109 109">
<g id="kvg:StrokePaths_0901a" style="fill:none;stroke:#000000;stroke-width:3;stroke-linecap:round;stroke-linejoin:round;">
<g id="kvg:0901a" kvg:element="通">
	<g id="kvg:0901a-g1" kvg:element="甬" kvg:position="nyoc" kvg:phon="甬">
		<g id="kvg:0901a-g2" kvg:element="マ" kvg:position="top">
			<path style="fill:none;stroke:#808080" id="kvg:0901a-s1" kvg:type="㇇" d="M42.26,16.34c2.02,1.05,3.83,1.18,6.02,0.82c4.89-0.81,17.88-2.68,24.07-3.87c5.4-1.04,5.65,0.21,2.48,3.24c-1.27,1.22-10.89,9.19-12.62,10.4"/>
			<path style="fill:none;stroke:#808080" id="kvg:0901a-s2" kvg:type="㇔" d="M53.25,24.5c2.46,0.84,8.84,4.06,10,6.25"/>
		</g>
		<g id="kvg:0901a-g3" kvg:element="用" kvg:position="bottom">
			<path style="fill:none;stroke:#808080" id="kvg:0901a-s3" kvg:type="㇑/㇒" d="M42.91,33.72c1,1,1.06,2.28,1.08,3.53c0.1,5.12,0.12,25.25,0.12,34.75c0,2.93,0,4.9,0,5.18"/>
			<path style="fill:none;stroke:#808080" id="kvg:0901a-s4" kvg:type="㇆a" d="M45.08,35.4c9.66-1.15,31.03-4.16,32.28-4.28c2.39-0.24,4.44,1.51,4.44,3.58c0,2.68-0.02,28.32-0.02,40.41c0,6.64-3.78,3.39-6.48,0.77"/>
			<path style="fill:none;stroke-width:4;" id="kvg:0901a-s5" kvg:type="㇐a" d="M45.23,48.8c10.02-1.55,28.02-3.55,35.12-3.88"/>
<circle cx="45.23" cy="48.8" r="5" style="fill:red;stroke:red;" />
		</g>
	</g>
	<g id="kvg:0901a-g4" kvg:element="⻌" kvg:original="辶" kvg:position="nyo" kvg:radical="general">
	</g>
</g>
</g></svg>