<?xml version="1.0" encoding="UTF-8"?>
  <!DOCTYPE svg PUBLIC "-//W3C//DTD SVG 1.0//EN" "http://www.w3.org/TR/2001/REC-SVG-20010904/DTD/svg10.dtd" [
  <!ATTLIST g xmlns:kvg CDATA #FIXED "http://kanjivg.tagaini.net" kvg:element CDATA #IMPLIED kvg:variant CDATA #IMPLIED kvg:partial CDATA #IMPLIED kvg:original CDATA #IMPLIED kvg:part CDATA #IMPLIED kvg:number CDATA #IMPLIED kvg:tradForm CDATA #IMPLIED kvg:radicalForm CDATA #IMPLIED kvg:position CDATA #IMPLIED kvg:radical CDATA #IMPLIED kvg:phon CDATA #IMPLIED >
  <!ATTLIST path xmlns:kvg CDATA #FIXED "http://kanjivg.tagaini.net" kvg:type CDATA #IMPLIED >
  ]>
  <svg xmlns="http://www.w3.org/2000/svg" width="109" height="109" viewBox="0 0 109 109">
<g id="kvg:StrokePaths_09023" style="fill:none;stroke:#000000;stroke-width:3;stroke-linecap:round;stroke-linejoin:round;">
<g id="kvg:09023" kvg:element="連">
	<g id="kvg:09023-g1" kvg:element="車" kvg:position="nyoc">
		<path style="fill:none;stroke:#808080" id="kvg:09023-s1" kvg:type="㇐" d="M44.79,24.29c1.96,0.59,3.74,0.31,5.47,0.16c8.42-0.77,23.24-2.57,31-2.96c1.79-0.09,3.44-0.29,5.21,0.16"/>
		<path style="fill:none;stroke:#808080" id="kvg:09023-s2" kvg:type="㇑" d="M44.3,34.99c0.79,0.79,1.4,1.52,1.6,2.45c0.93,4.19,2.76,13.02,4.06,20.8c0.23,1.4,0.45,2.76,0.64,4.06"/>
		<path style="fill:none;stroke:#808080" id="kvg:09023-s3" kvg:type="㇕a" d="M46.56,35.94c10.77-1.22,28.9-3.5,36.82-3.93c3.68-0.2,5.22,0.53,4.71,4.37c-0.58,4.41-1.92,12.26-3.57,19.06c-0.31,1.26-0.62,2.49-0.95,3.65"/>
		<path style="fill:none;stroke:#808080" id="kvg:09023-s4" kvg:type="㇐a" d="M49.4,47.67c9.85-0.92,23.48-2.8,36.2-3.51"/>
		<path style="fill:none;stroke:#808080" id="kvg:09023-s5" kvg:type="㇐a" d="M51.4,59.64c8.69-0.94,20.1-2.14,31.42-2.74"/>
		<path style="fill:none;stroke-width:4;" id="kvg:09023-s6" kvg:type="㇐" d="M41.75,71.47c2.32,0.62,4.8,0.45,7.14,0.21c11.18-1.12,26.08-2.74,38.61-3.32c2.41-0.11,4.75-0.12,7,0.34"/>
<circle cx="41.75" cy="71.47" r="5" style="fill:red;stroke:red;" />
	</g>
	<g id="kvg:09023-g2" kvg:element="⻌" kvg:original="辶" kvg:position="nyo" kvg:radical="general">
	</g>
</g>
</g></svg>