<?xml version="1.0" encoding="UTF-8"?>
  <!DOCTYPE svg PUBLIC "-//W3C//DTD SVG 1.0//EN" "http://www.w3.org/TR/2001/REC-SVG-20010904/DTD/svg10.dtd" [
  <!ATTLIST g xmlns:kvg CDATA #FIXED "http://kanjivg.tagaini.net" kvg:element CDATA #IMPLIED kvg:variant CDATA #IMPLIED kvg:partial CDATA #IMPLIED kvg:original CDATA #IMPLIED kvg:part CDATA #IMPLIED kvg:number CDATA #IMPLIED kvg:tradForm CDATA #IMPLIED kvg:radicalForm CDATA #IMPLIED kvg:position CDATA #IMPLIED kvg:radical CDATA #IMPLIED kvg:phon CDATA #IMPLIED >
  <!ATTLIST path xmlns:kvg CDATA #FIXED "http://kanjivg.tagaini.net" kvg:type CDATA #IMPLIED >
  ]>
  <svg xmlns="http://www.w3.org/2000/svg" width="109" height="109" viewBox="0 0 109 109">
<g id="kvg:StrokePaths_09032" style="fill:none;stroke:#000000;stroke-width:3;stroke-linecap:round;stroke-linejoin:round;">
<g id="kvg:09032" kvg:element="進">
	<g id="kvg:09032-g1" kvg:element="隹" kvg:position="nyoc">
		<g id="kvg:09032-g2" kvg:element="亻" kvg:variant="true" kvg:original="人">
			<path style="fill:none;stroke:#808080" id="kvg:09032-s1" kvg:type="㇒" d="M54.54,14.25c0.16,1.48-0.04,3.42-0.56,4.69c-3.31,8.08-7.5,14.93-15.07,24.76"/>
			<path style="fill:none;stroke:#808080" id="kvg:09032-s2" kvg:type="㇑" d="M48.14,31.68c0.78,0.78,1.21,1.69,1.21,2.69c0,10.51,0.04,29.7,0.02,40.26c0,2.13-0.01,3.82-0.01,4.88"/>
		</g>
		<path style="fill:none;stroke:#808080" id="kvg:09032-s3" kvg:type="㇒" d="M74.87,14c0.07,0.74-0.02,1.71-0.24,2.35c-1.43,4.05-2.5,6.43-5.77,11.37"/>
		<path style="fill:none;stroke:#808080" id="kvg:09032-s4" kvg:type="㇐b" d="M49.76,33.27c6.73-0.78,24.36-3.17,33.38-4.08c2.31-0.23,4.06-0.35,4.91-0.3"/>
		<path style="fill:none;stroke:#808080" id="kvg:09032-s5" kvg:type="㇑a" d="M69.12,33.66c0.8,0.8,1.23,2.09,1.23,3.58c0,6.76-0.2,23.51-0.2,33.11"/>
		<path style="fill:none;stroke:#808080" id="kvg:09032-s6" kvg:type="㇐b" d="M49.77,46.1c6.36-0.65,22.86-2.85,30.6-3.56c2.04-0.19,3.5-0.41,4.98-0.06"/>
		<path style="fill:none;stroke-width:4;" id="kvg:09032-s7" kvg:type="㇐b" d="M50.55,58.57c6.92-0.56,23.46-2.53,31.43-3.1c1.6-0.11,3.42-0.18,4.25-0.1"/>
<circle cx="50.55" cy="58.57" r="5" style="fill:red;stroke:red;" />
	</g>
	<g id="kvg:09032-g3" kvg:element="⻌" kvg:original="辶" kvg:position="nyo" kvg:radical="general">
	</g>
</g>
</g></svg>