<?xml version="1.0" encoding="UTF-8"?>
  <!DOCTYPE svg PUBLIC "-//W3C//DTD SVG 1.0//EN" "http://www.w3.org/TR/2001/REC-SVG-20010904/DTD/svg10.dtd" [
  <!ATTLIST g xmlns:kvg CDATA #FIXED "http://kanjivg.tagaini.net" kvg:element CDATA #IMPLIED kvg:variant CDATA #IMPLIED kvg:partial CDATA #IMPLIED kvg:original CDATA #IMPLIED kvg:part CDATA #IMPLIED kvg:number CDATA #IMPLIED kvg:tradForm CDATA #IMPLIED kvg:radicalForm CDATA #IMPLIED kvg:position CDATA #IMPLIED kvg:radical CDATA #IMPLIED kvg:phon CDATA #IMPLIED >
  <!ATTLIST path xmlns:kvg CDATA #FIXED "http://kanjivg.tagaini.net" kvg:type CDATA #IMPLIED >
  ]>
  <svg xmlns="http://www.w3.org/2000/svg" width="109" height="109" viewBox="0 0 109 109">
<g id="kvg:StrokePaths_0904b" style="fill:none;stroke:#000000;stroke-width:3;stroke-linecap:round;stroke-linejoin:round;">
<g id="kvg:0904b" kvg:element="運">
	<g id="kvg:0904b-g1" kvg:element="軍" kvg:position="nyoc" kvg:phon="軍">
		<g id="kvg:0904b-g2" kvg:element="冖">
			<path style="fill:none;stroke:#808080" id="kvg:0904b-s1" kvg:type="㇔" d="M42.88,15.75c-0.1,3.3-2.52,10.03-3.38,12"/>
			<path style="fill:none;stroke:#808080" id="kvg:0904b-s2" kvg:type="㇖b" d="M43.58,18.04c11.79-1.73,28.79-3.79,41.2-4.54c6.23-0.38,4.22,4-0.93,7.98"/>
		</g>
		<g id="kvg:0904b-g3" kvg:element="車">
			<path style="fill:none;stroke:#808080" id="kvg:0904b-s3" kvg:type="㇐" d="M48.43,28.32c1.57,0.3,3.95,0.14,5.71-0.06c6.53-0.76,13.77-1.78,20.74-2.4c1.77-0.16,3.6-0.19,5.35,0.22"/>
			<path style="fill:none;stroke:#808080" id="kvg:0904b-s4" kvg:type="㇑" d="M46.08,37.83c0.92,0.92,1.2,2.01,1.29,2.58c0.61,3.57,1.83,10.77,2.87,18.06c0.17,1.16,0.32,2.3,0.46,3.38"/>
			<path style="fill:none;stroke:#808080" id="kvg:0904b-s5" kvg:type="㇕a" d="M48.51,39.06c8.85-1.1,26.09-3.65,30.95-4.1c2.3-0.21,3.8,0.79,3.63,3.43c-0.25,3.83-1.92,11.09-3.23,17.83c-0.22,1.12-0.45,2.21-0.71,3.26"/>
			<path style="fill:none;stroke:#808080" id="kvg:0904b-s6" kvg:type="㇐a" d="M50.25,49.24c7.38-0.99,21.5-3.24,30.52-3.73"/>
			<path style="fill:none;stroke:#808080" id="kvg:0904b-s7" kvg:type="㇐a" d="M51.5,59.56c7.02-0.86,18.75-2.19,26.89-2.69"/>
			<path style="fill:none;stroke-width:4;" id="kvg:0904b-s8" kvg:type="㇐" d="M40.29,70.38c2.96,0.75,5.35,0.67,7.96,0.43c10.72-0.99,24.7-2.28,34.88-2.85c2.7-0.15,5.19-0.09,7.84,0.46"/>
<circle cx="40.29" cy="70.38" r="5" style="fill:red;stroke:red;" />
		</g>
	</g>
	<g id="kvg:0904b-g4" kvg:element="⻌" kvg:original="辶" kvg:position="nyo" kvg:radical="general">
	</g>
</g>
</g></svg>