<?xml version="1.0" encoding="UTF-8"?>
  <!DOCTYPE svg PUBLIC "-//W3C//DTD SVG 1.0//EN" "http://www.w3.org/TR/2001/REC-SVG-20010904/DTD/svg10.dtd" [
  <!ATTLIST g xmlns:kvg CDATA #FIXED "http://kanjivg.tagaini.net" kvg:element CDATA #IMPLIED kvg:variant CDATA #IMPLIED kvg:partial CDATA #IMPLIED kvg:original CDATA #IMPLIED kvg:part CDATA #IMPLIED kvg:number CDATA #IMPLIED kvg:tradForm CDATA #IMPLIED kvg:radicalForm CDATA #IMPLIED kvg:position CDATA #IMPLIED kvg:radical CDATA #IMPLIED kvg:phon CDATA #IMPLIED >
  <!ATTLIST path xmlns:kvg CDATA #FIXED "http://kanjivg.tagaini.net" kvg:type CDATA #IMPLIED >
  ]>
  <svg xmlns="http://www.w3.org/2000/svg" width="109" height="109" viewBox="0 0 109 109">
<g id="kvg:StrokePaths_09054" style="fill:none;stroke:#000000;stroke-width:3;stroke-linecap:round;stroke-linejoin:round;">
<g id="kvg:09054" kvg:element="達">
	<g id="kvg:09054-g1" kvg:position="nyoc">
		<g id="kvg:09054-g2" kvg:element="土" kvg:phon="大V">
			<path style="fill:none;stroke:#808080" id="kvg:09054-s1" kvg:type="㇐" d="M48.18,21.38c1.2,0.3,3.67,0.24,4.86,0.05c4.89-0.81,14.39-2.56,20.19-3.4c1.98-0.29,3.46-0.11,4.46,0.04"/>
			<path style="fill:none;stroke:#808080" id="kvg:09054-s2" kvg:type="㇑a" d="M61.98,9.87c0.92,0.92,1.77,2.27,1.77,4.14c0,6.12,0.14,12.5,0.14,17.11"/>
			<path style="fill:none;stroke:#808080" id="kvg:09054-s3" kvg:type="㇐" d="M37.43,34.73c2.75,0.52,4.98,0.25,6.71,0.04C58.57,33,68.7,31.12,84.43,29.79c2.9-0.25,4.92,0.01,6.38,0.28"/>
		</g>
		<g id="kvg:09054-g3" kvg:element="羊">
			<g id="kvg:09054-g4" kvg:element="䒑">
				<path style="fill:none;stroke:#808080" id="kvg:09054-s4" kvg:type="㇔" d="M52.7,36.6c1.68,1.27,4.35,5.4,4.77,7.52"/>
				<path style="fill:none;stroke-width:4;" id="kvg:09054-s5" kvg:type="㇒" d="M75,32.85c0.31,0.52,0.33,1.58,0.22,1.89c-0.79,2.26-1.79,4.63-4.39,8.53"/>
<circle cx="75" cy="32.85" r="5" style="fill:red;stroke:red;" />
			</g>
		</g>
	</g>
	<g id="kvg:09054-g5" kvg:element="⻌" kvg:original="辶" kvg:position="nyo" kvg:radical="general">
	</g>
</g>
</g></svg>