<?xml version="1.0" encoding="UTF-8"?>
  <!DOCTYPE svg PUBLIC "-//W3C//DTD SVG 1.0//EN" "http://www.w3.org/TR/2001/REC-SVG-20010904/DTD/svg10.dtd" [
  <!ATTLIST g xmlns:kvg CDATA #FIXED "http://kanjivg.tagaini.net" kvg:element CDATA #IMPLIED kvg:variant CDATA #IMPLIED kvg:partial CDATA #IMPLIED kvg:original CDATA #IMPLIED kvg:part CDATA #IMPLIED kvg:number CDATA #IMPLIED kvg:tradForm CDATA #IMPLIED kvg:radicalForm CDATA #IMPLIED kvg:position CDATA #IMPLIED kvg:radical CDATA #IMPLIED kvg:phon CDATA #IMPLIED >
  <!ATTLIST path xmlns:kvg CDATA #FIXED "http://kanjivg.tagaini.net" kvg:type CDATA #IMPLIED >
  ]>
  <svg xmlns="http://www.w3.org/2000/svg" width="109" height="109" viewBox="0 0 109 109">
<g id="kvg:StrokePaths_09060" style="fill:none;stroke:#000000;stroke-width:3;stroke-linecap:round;stroke-linejoin:round;">
<g id="kvg:09060" kvg:element="遠">
	<g id="kvg:09060-g1" kvg:element="袁" kvg:position="nyoc" kvg:phon="袁">
		<g id="kvg:09060-g2" kvg:element="土" kvg:position="top">
			<path style="fill:none;stroke:#808080" id="kvg:09060-s1" kvg:type="㇐" d="M45.82,23.35c1.16,0.32,3.27,0.47,4.43,0.32c6.16-0.8,16.04-2.18,22.01-2.9c1.92-0.23,3.08,0.16,4.04,0.32"/>
			<path style="fill:none;stroke:#808080" id="kvg:09060-s2" kvg:type="㇑a" d="M59.23,10.62c0.89,0.89,1.61,2.38,1.61,4.07c0,9.57-0.06,16.66-0.06,17.81"/>
			<g id="kvg:09060-g3" kvg:element="衣" kvg:part="1" kvg:variant="true" kvg:partial="true">
				<g id="kvg:09060-g4" kvg:element="亠" kvg:partial="true">
					<path style="fill:none;stroke:#808080" id="kvg:09060-s3" kvg:type="㇐" d="M36.89,35.45c1.67,0.46,4.5,0.41,6.15,0.21C54.88,34.25,67,32.88,82.4,31.44c2.77-0.26,4.45,0.22,5.84,0.45"/>
				</g>
			</g>
		</g>
		<g id="kvg:09060-g5" kvg:position="bottom">
			<g id="kvg:09060-g6" kvg:element="口">
				<path style="fill:none;stroke:#808080" id="kvg:09060-s4" kvg:type="㇑" d="M46.56,43.29c0.76,0.76,1.19,1.84,1.34,2.54c0.4,1.86,1.29,4.33,2.16,8.42c0.28,1.33,0.54,2.12,0.75,3.27"/>
				<path style="fill:none;stroke-width:4;" id="kvg:09060-s5" kvg:type="㇕b" d="M48.53,44.19c6.72-1.06,20.53-3.37,25.47-3.55c1.9-0.07,3.25,0.99,2.77,2.79c-0.48,1.77-2.39,5.97-3.1,8.13"/>
<circle cx="48.53" cy="44.19" r="5" style="fill:red;stroke:red;" />
			</g>
			<g id="kvg:09060-g7" kvg:element="衣" kvg:part="2" kvg:variant="true" kvg:partial="true">
			</g>
		</g>
	</g>
	<g id="kvg:09060-g8" kvg:element="⻌" kvg:original="辶" kvg:position="nyo" kvg:radical="general">
	</g>
</g>
</g></svg>