<?xml version="1.0" encoding="UTF-8"?>
  <!DOCTYPE svg PUBLIC "-//W3C//DTD SVG 1.0//EN" "http://www.w3.org/TR/2001/REC-SVG-20010904/DTD/svg10.dtd" [
  <!ATTLIST g xmlns:kvg CDATA #FIXED "http://kanjivg.tagaini.net" kvg:element CDATA #IMPLIED kvg:variant CDATA #IMPLIED kvg:partial CDATA #IMPLIED kvg:original CDATA #IMPLIED kvg:part CDATA #IMPLIED kvg:number CDATA #IMPLIED kvg:tradForm CDATA #IMPLIED kvg:radicalForm CDATA #IMPLIED kvg:position CDATA #IMPLIED kvg:radical CDATA #IMPLIED kvg:phon CDATA #IMPLIED >
  <!ATTLIST path xmlns:kvg CDATA #FIXED "http://kanjivg.tagaini.net" kvg:type CDATA #IMPLIED >
  ]>
  <svg xmlns="http://www.w3.org/2000/svg" width="109" height="109" viewBox="0 0 109 109">
<g id="kvg:StrokePaths_09069" style="fill:none;stroke:#000000;stroke-width:3;stroke-linecap:round;stroke-linejoin:round;">
<g id="kvg:09069" kvg:element="適">
	<g id="kvg:09069-g1" kvg:element="啇" kvg:position="nyoc" kvg:phon="啇">
		<g id="kvg:09069-g2" kvg:element="亠">
			<path style="fill:none;stroke:#808080" id="kvg:09069-s1" kvg:type="㇑a" d="M63.66,10.25c1.11,1.11,1.65,2.5,1.65,4.25c0,1.12,0,4,0,6.25"/>
			<path style="fill:none;stroke:#808080" id="kvg:09069-s2" kvg:type="㇐" d="M43.5,23.95c2.31,0.59,4.8,0.16,7.14-0.15c9.99-1.31,22.19-2.85,32-3.94c2.3-0.26,4.58-0.13,6.87,0.22"/>
		</g>
		<path style="fill:none;stroke:#808080" id="kvg:09069-s3" kvg:type="㇔" d="M53.17,26.75c2.85,3.92,4.15,7.92,4.41,10.5"/>
		<path style="fill:none;stroke:#808080" id="kvg:09069-s4" kvg:type="㇒" d="M76.56,23.5c0.31,1,0.19,1.88-0.15,2.69c-0.9,2.16-3.66,7.56-5.09,10.06"/>
		<g id="kvg:09069-g3" kvg:element="冂">
			<path style="fill:none;stroke-width:4;" id="kvg:09069-s5" kvg:type="㇑" d="M44.68,40.73c0.79,0.79,1.34,1.99,1.34,3.38c0,2.67-0.07,20.11-0.09,30.76c-0.01,2.38-0.01,4.42-0.01,5.88"/>
<circle cx="44.68" cy="40.73" r="5" style="fill:red;stroke:red;" />
		</g>
		<g id="kvg:09069-g4" kvg:element="古">
			<g id="kvg:09069-g5" kvg:element="十" kvg:position="top">
			</g>
			<g id="kvg:09069-g6" kvg:element="口" kvg:position="bottom">
			</g>
		</g>
	</g>
	<g id="kvg:09069-g7" kvg:element="⻌" kvg:original="辶" kvg:position="nyo" kvg:radical="general">
	</g>
</g>
</g></svg>