<?xml version="1.0" encoding="UTF-8"?>
  <!DOCTYPE svg PUBLIC "-//W3C//DTD SVG 1.0//EN" "http://www.w3.org/TR/2001/REC-SVG-20010904/DTD/svg10.dtd" [
  <!ATTLIST g xmlns:kvg CDATA #FIXED "http://kanjivg.tagaini.net" kvg:element CDATA #IMPLIED kvg:variant CDATA #IMPLIED kvg:partial CDATA #IMPLIED kvg:original CDATA #IMPLIED kvg:part CDATA #IMPLIED kvg:number CDATA #IMPLIED kvg:tradForm CDATA #IMPLIED kvg:radicalForm CDATA #IMPLIED kvg:position CDATA #IMPLIED kvg:radical CDATA #IMPLIED kvg:phon CDATA #IMPLIED >
  <!ATTLIST path xmlns:kvg CDATA #FIXED "http://kanjivg.tagaini.net" kvg:type CDATA #IMPLIED >
  ]>
  <svg xmlns="http://www.w3.org/2000/svg" width="109" height="109" viewBox="0 0 109 109">
<g id="kvg:StrokePaths_09078" style="fill:none;stroke:#000000;stroke-width:3;stroke-linecap:round;stroke-linejoin:round;">
<g id="kvg:09078" kvg:element="選">
	<g id="kvg:09078-g1" kvg:element="巽" kvg:position="nyoc" kvg:phon="巽">
		<g id="kvg:09078-g2" kvg:position="top">
			<g id="kvg:09078-g3" kvg:element="己" kvg:position="left">
				<path style="fill:none;stroke:#808080" id="kvg:09078-s1" kvg:type="㇕c" d="M40.76,17.19c0.81,0.41,2,0.41,3.19,0.27c1.92-0.22,9.23-1.21,12.69-1.64c2.04-0.25,2.87,0.8,2.43,2.81c-0.35,1.63-1.24,4.19-1.74,6.41"/>
				<path style="fill:none;stroke:#808080" id="kvg:09078-s2" kvg:type="㇐" d="M41.83,26.5c0.98,0.36,1.56,0.58,2.68,0.56c3.24-0.06,8.15-0.46,10.88-0.76c1.37-0.15,2.35-0.3,3.43-0.2"/>
				<path style="fill:none;stroke:#808080" id="kvg:09078-s3" kvg:type="㇟" d="M43.06,27.37c0.41,0.41,0.63,1.32,0.63,2.09c0,1.42-0.07,2.06-0.07,4.05c0,5.12,1.26,5.88,9.07,5.88c8.19,0,9.11-1.5,9.11-4.33"/>
			</g>
			<g id="kvg:09078-g4" kvg:element="己" kvg:position="right">
				<path style="fill:none;stroke-width:4;" id="kvg:09078-s4" kvg:type="㇕c" d="M68.58,15.19c1.17,0.44,2.25,0.41,3.44,0.27c1.92-0.22,7.11-1.21,11.44-2.14c2.01-0.43,3.3,0.55,2.68,2.31c-0.55,1.58-1.49,4.94-1.99,7.16"/>
<circle cx="68.58" cy="15.19" r="5" style="fill:red;stroke:red;" />
			</g>
		</g>
		<g id="kvg:09078-g5" kvg:element="共" kvg:position="bottom">
			<g id="kvg:09078-g6" kvg:position="top">
			</g>
			<g id="kvg:09078-g7" kvg:element="八" kvg:position="bottom">
			</g>
		</g>
	</g>
	<g id="kvg:09078-g8" kvg:element="⻌" kvg:original="辶" kvg:position="nyo" kvg:radical="general">
	</g>
</g>
</g></svg>