<?xml version="1.0" encoding="UTF-8"?>
  <!DOCTYPE svg PUBLIC "-//W3C//DTD SVG 1.0//EN" "http://www.w3.org/TR/2001/REC-SVG-20010904/DTD/svg10.dtd" [
  <!ATTLIST g xmlns:kvg CDATA #FIXED "http://kanjivg.tagaini.net" kvg:element CDATA #IMPLIED kvg:variant CDATA #IMPLIED kvg:partial CDATA #IMPLIED kvg:original CDATA #IMPLIED kvg:part CDATA #IMPLIED kvg:number CDATA #IMPLIED kvg:tradForm CDATA #IMPLIED kvg:radicalForm CDATA #IMPLIED kvg:position CDATA #IMPLIED kvg:radical CDATA #IMPLIED kvg:phon CDATA #IMPLIED >
  <!ATTLIST path xmlns:kvg CDATA #FIXED "http://kanjivg.tagaini.net" kvg:type CDATA #IMPLIED >
  ]>
  <svg xmlns="http://www.w3.org/2000/svg" width="109" height="109" viewBox="0 0 109 109">
<g id="kvg:StrokePaths_090e1" style="fill:none;stroke:#000000;stroke-width:3;stroke-linecap:round;stroke-linejoin:round;">
<g id="kvg:090e1" kvg:element="郡">
	<g id="kvg:090e1-g1" kvg:element="君" kvg:position="left" kvg:phon="君">
		<g id="kvg:090e1-g2" kvg:element="尹">
			<g id="kvg:090e1-g3" kvg:element="⺕" kvg:variant="true" kvg:original="彑">
				<g id="kvg:090e1-g4" kvg:element="尸" kvg:part="1">
					<path style="fill:none;stroke:#808080" id="kvg:090e1-s1" kvg:type="㇕c" d="M19.97,19.8c1.41,0.32,3.01,0.62,4.72,0.5c10.44-0.75,18.43-2.05,25.95-2.55c2.42-0.16,3.99,1.5,3.23,4.68C52,30.25,51.25,34,49.72,42.3"/>
					<path style="fill:none;stroke:#808080" id="kvg:090e1-s2" kvg:type="㇐" d="M13.83,34.04c2.43,0.27,4.46,0.12,6.93-0.12c9.49-0.92,22.37-2.8,32.38-3.67c2.51-0.22,5.06-0.32,7.54,0.17"/>
				</g>
				<path style="fill:none;stroke:#808080" id="kvg:090e1-s3" kvg:type="㇐" d="M17.74,46.47c1.77,0.36,3.45,0.34,5.24,0.17c8.23-0.79,16.1-2.2,25.57-3.04c1.49-0.13,2.42-0.25,3.54-0.06"/>
			</g>
			<g id="kvg:090e1-g5" kvg:element="尸" kvg:part="2">
				<g id="kvg:090e1-g6" kvg:element="丿">
					<path style="fill:none;stroke:#808080" id="kvg:090e1-s4" kvg:type="㇒" d="M33.77,22.48c0.55,0.57,0.86,2.23,0.8,2.79C32.62,41.75,27.5,61.12,11.6,75"/>
				</g>
			</g>
		</g>
		<g id="kvg:090e1-g7" kvg:element="口">
			<path style="fill:none;stroke:#808080" id="kvg:090e1-s5" kvg:type="㇑" d="M26.15,61.23c0.37,0.41,1.03,2.44,1.09,2.99c0.63,5.41,1.35,10.77,2.07,16.92c0.14,1.18,0.27,2.38,0.39,3.58"/>
			<path style="fill:none;stroke-width:4;" id="kvg:090e1-s6" kvg:type="㇕b" d="M27.44,61.89c8.9-1.57,15.92-2.79,20.58-3.45c2.11-0.3,4.75,0.25,4.18,3.16c-1.01,5.16-1.89,8.84-3.4,17.64"/>
<circle cx="27.44" cy="61.89" r="5" style="fill:red;stroke:red;" />
		</g>
	</g>
	<g id="kvg:090e1-g8" kvg:element="⻏" kvg:variant="true" kvg:original="邑" kvg:position="right" kvg:radical="general">
	</g>
</g>
</g></svg>