<?xml version="1.0" encoding="UTF-8"?>
  <!DOCTYPE svg PUBLIC "-//W3C//DTD SVG 1.0//EN" "http://www.w3.org/TR/2001/REC-SVG-20010904/DTD/svg10.dtd" [
  <!ATTLIST g xmlns:kvg CDATA #FIXED "http://kanjivg.tagaini.net" kvg:element CDATA #IMPLIED kvg:variant CDATA #IMPLIED kvg:partial CDATA #IMPLIED kvg:original CDATA #IMPLIED kvg:part CDATA #IMPLIED kvg:number CDATA #IMPLIED kvg:tradForm CDATA #IMPLIED kvg:radicalForm CDATA #IMPLIED kvg:position CDATA #IMPLIED kvg:radical CDATA #IMPLIED kvg:phon CDATA #IMPLIED >
  <!ATTLIST path xmlns:kvg CDATA #FIXED "http://kanjivg.tagaini.net" kvg:type CDATA #IMPLIED >
  ]>
  <svg xmlns="http://www.w3.org/2000/svg" width="109" height="109" viewBox="0 0 109 109">
<g id="kvg:StrokePaths_090e8" style="fill:none;stroke:#000000;stroke-width:3;stroke-linecap:round;stroke-linejoin:round;">
<g id="kvg:090e8" kvg:element="部">
	<g id="kvg:090e8-g1" kvg:element="咅" kvg:position="left" kvg:phon="立口/否V">
		<g id="kvg:090e8-g2" kvg:element="立" kvg:position="top">
			<g id="kvg:090e8-g3" kvg:element="亠" kvg:position="top">
				<path style="fill:none;stroke:#808080" id="kvg:090e8-s1" kvg:type="㇑a" d="M35.6,13.25c0.88,0.66,1.32,1.91,1.32,3.45s0,4.63,0,8.81"/>
				<path style="fill:none;stroke:#808080" id="kvg:090e8-s2" kvg:type="㇐" d="M16.79,27.98c1.81,0.51,3.75,0.46,5.6,0.34c6.87-0.44,18.87-2.19,26.99-3.98c2.05-0.45,4.15-0.46,6.23-0.11"/>
			</g>
			<g id="kvg:090e8-g4" kvg:position="bottom">
				<path style="fill:none;stroke:#808080" id="kvg:090e8-s3" kvg:type="㇔" d="M23.64,32.15c3.38,4.42,4.91,8.93,5.21,11.84"/>
				<path style="fill:none;stroke:#808080" id="kvg:090e8-s4" kvg:type="㇒" d="M47.75,28c0.38,0.75,0.5,1.93,0.19,2.78c-1.81,4.96-4.31,11.09-5.87,14.25"/>
				<path style="fill:none;stroke:#808080" id="kvg:090e8-s5" kvg:type="㇐" d="M12.67,50.39c2.29,0.61,4.53,0.3,6.84,0.04C30.98,49.12,39,47.72,52.13,47c2.61-0.14,5.12-0.24,7.71,0.18"/>
			</g>
		</g>
		<g id="kvg:090e8-g5" kvg:element="口" kvg:position="bottom">
			<path style="fill:none;stroke:#808080" id="kvg:090e8-s6" kvg:type="㇑" d="M22.16,63.08c0.8,0.64,1.26,1.47,1.38,2.49c0.98,3.6,1.97,10.3,2.75,15.78c0.19,1.31,0.36,2.54,0.52,3.65"/>
			<path style="fill:none;stroke:#808080" id="kvg:090e8-s7" kvg:type="㇕b" d="M24.07,64.38c7.15-1.03,17.57-2.36,23.07-3.05c2.61-0.33,4.48,1.05,3.95,3.84c-0.84,4.42-2.09,10.38-3.34,15.32"/>
			<path style="fill:none;stroke-width:4;" id="kvg:090e8-s8" kvg:type="㇐b" d="M28.25,83.78c4.48-0.45,11.21-1.17,17.99-1.87c1.28-0.13,2.52-0.27,3.68-0.4"/>
<circle cx="28.25" cy="83.78" r="5" style="fill:red;stroke:red;" />
		</g>
	</g>
	<g id="kvg:090e8-g6" kvg:element="⻏" kvg:variant="true" kvg:original="邑" kvg:position="right" kvg:radical="general">
	</g>
</g>
</g></svg>