<?xml version="1.0" encoding="UTF-8"?>
  <!DOCTYPE svg PUBLIC "-//W3C//DTD SVG 1.0//EN" "http://www.w3.org/TR/2001/REC-SVG-20010904/DTD/svg10.dtd" [
  <!ATTLIST g xmlns:kvg CDATA #FIXED "http://kanjivg.tagaini.net" kvg:element CDATA #IMPLIED kvg:variant CDATA #IMPLIED kvg:partial CDATA #IMPLIED kvg:original CDATA #IMPLIED kvg:part CDATA #IMPLIED kvg:number CDATA #IMPLIED kvg:tradForm CDATA #IMPLIED kvg:radicalForm CDATA #IMPLIED kvg:position CDATA #IMPLIED kvg:radical CDATA #IMPLIED kvg:phon CDATA #IMPLIED >
  <!ATTLIST path xmlns:kvg CDATA #FIXED "http://kanjivg.tagaini.net" kvg:type CDATA #IMPLIED >
  ]>
  <svg xmlns="http://www.w3.org/2000/svg" width="109" height="109" viewBox="0 0 109 109">
<g id="kvg:StrokePaths_090fd" style="fill:none;stroke:#000000;stroke-width:3;stroke-linecap:round;stroke-linejoin:round;">
<g id="kvg:090fd" kvg:element="都">
	<g id="kvg:090fd-g1" kvg:element="者" kvg:position="left" kvg:phon="者">
		<g id="kvg:090fd-g2" kvg:element="耂" kvg:original="老" kvg:partial="true">
			<g id="kvg:090fd-g3" kvg:element="土">
				<path style="fill:none;stroke:#808080" id="kvg:090fd-s1" kvg:type="㇐" d="M20.68,27.91c1.04,0.36,3.12,0.38,4.18,0.25C30.25,27.5,37.25,26.88,43,26.3c1.41-0.14,3.62-0.34,5-0.05"/>
				<path style="fill:none;stroke:#808080" id="kvg:090fd-s2" kvg:type="㇑a" d="M34.63,11.67c1.04,1.04,1.45,2.37,1.54,4.05c0.41,8.04,0.22,21.42,0.22,24.16"/>
				<path style="fill:none;stroke:#808080" id="kvg:090fd-s3" kvg:type="㇐" d="M10.25,43.27c2.55,0.38,4.97,0.14,7.51-0.08c9.37-0.82,26.46-2.77,35.48-3.53c2.39-0.2,4.57-0.43,6.89,0.33"/>
			</g>
			<path style="fill:none;stroke:#808080" id="kvg:090fd-s4" kvg:type="㇒" d="M55.13,17.1c0.11,1.16-0.12,2.78-0.98,4.15C43,39.12,31.12,54.88,13.42,68.52"/>
		</g>
		<g id="kvg:090fd-g4" kvg:element="日">
			<path style="fill:none;stroke:#808080" id="kvg:090fd-s5" kvg:type="㇑" d="M28.12,56.89c0.31,0.76,0.62,1.89,0.62,2.9c0,0.78,0.13,16.5,0.07,24.7c-0.02,2.44-0.03,4.06-0.03,4.18"/>
			<path style="fill:none;stroke:#808080" id="kvg:090fd-s6" kvg:type="㇕a" d="M30.02,55.52c1.54-0.11,14.72-1.61,19.11-2.09c2.37-0.26,3.43,0.55,3.33,2.94c-0.14,3.26-0.22,16.07-0.24,26c0,1.87-0.01,3.63,0,5.21"/>
			<path style="fill:none;stroke:#808080" id="kvg:090fd-s7" kvg:type="㇐a" d="M29.83,69.75c4.3-0.5,17.17-2,21.06-2.22"/>
			<path style="fill:none;stroke-width:4;" id="kvg:090fd-s8" kvg:type="㇐a" d="M29.97,84.6c4.85-0.55,15.12-1.5,21.16-1.97"/>
<circle cx="29.97" cy="84.6" r="5" style="fill:red;stroke:red;" />
		</g>
	</g>
	<g id="kvg:090fd-g5" kvg:element="⻏" kvg:variant="true" kvg:original="邑" kvg:position="right" kvg:radical="general">
	</g>
</g>
</g></svg>