<?xml version="1.0" encoding="UTF-8"?>
  <!DOCTYPE svg PUBLIC "-//W3C//DTD SVG 1.0//EN" "http://www.w3.org/TR/2001/REC-SVG-20010904/DTD/svg10.dtd" [
  <!ATTLIST g xmlns:kvg CDATA #FIXED "http://kanjivg.tagaini.net" kvg:element CDATA #IMPLIED kvg:variant CDATA #IMPLIED kvg:partial CDATA #IMPLIED kvg:original CDATA #IMPLIED kvg:part CDATA #IMPLIED kvg:number CDATA #IMPLIED kvg:tradForm CDATA #IMPLIED kvg:radicalForm CDATA #IMPLIED kvg:position CDATA #IMPLIED kvg:radical CDATA #IMPLIED kvg:phon CDATA #IMPLIED >
  <!ATTLIST path xmlns:kvg CDATA #FIXED "http://kanjivg.tagaini.net" kvg:type CDATA #IMPLIED >
  ]>
  <svg xmlns="http://www.w3.org/2000/svg" width="109" height="109" viewBox="0 0 109 109">
<g id="kvg:StrokePaths_090f5" style="fill:none;stroke:#000000;stroke-width:3;stroke-linecap:round;stroke-linejoin:round;">
<g id="kvg:090f5" kvg:element="郵">
	<g id="kvg:090f5-g1" kvg:element="垂" kvg:position="left">
		<g id="kvg:090f5-g2" kvg:element="千" kvg:part="1">
			<g id="kvg:090f5-g3" kvg:element="丿">
				<path style="fill:none;stroke:#808080" id="kvg:090f5-s1" kvg:type="㇒" d="M46.08,12.5c0,1.12-0.38,2.02-1.56,2.78c-6.14,3.97-13.27,7.35-23.21,10.61"/>
			</g>
			<g id="kvg:090f5-g4" kvg:element="十" kvg:part="1">
				<path style="fill:none;stroke:#808080" id="kvg:090f5-s2" kvg:type="㇐" d="M15.92,34.49c2.33,0.51,4.92,0.24,6.95-0.03c6.94-0.9,19.62-3.12,27.15-4.01c2.37-0.28,4.99-0.34,7.32,0.22"/>
			</g>
		</g>
		<path style="fill:none;stroke:#808080" id="kvg:090f5-s3" kvg:type="㇐" d="M11.95,49.8c1.82,0.74,4.53,0.52,6.44,0.31c9.19-1.01,25.87-3.71,36.23-4.68c2.52-0.24,5.26-0.3,7.79,0.04"/>
		<path style="fill:none;stroke:#808080" id="kvg:090f5-s4" kvg:type="㇑a" d="M21.66,40.67c0.77,0.77,1.23,2.38,1.35,3.27c1.12,8.31,2.08,16.13,2.4,19.15"/>
		<path style="fill:none;stroke:#808080" id="kvg:090f5-s5" kvg:type="㇑a" d="M52.2,36.99c0.55,1.13,0.76,2.47,0.51,3.69c-1.45,7.13-2.09,11.07-3.45,18.67"/>
		<g id="kvg:090f5-g5" kvg:element="土">
			<path style="fill:none;stroke-width:4;" id="kvg:090f5-s6" kvg:type="㇐" d="M16.59,65.44c1.92,0.78,4.81,0.75,6.8,0.47c6.94-0.99,19.26-3.13,26.86-4.35c2.05-0.33,4.11-0.68,6.22-0.32"/>
<circle cx="16.59" cy="65.44" r="5" style="fill:red;stroke:red;" />
			<g id="kvg:090f5-g6" kvg:element="千" kvg:part="2">
				<g id="kvg:090f5-g7" kvg:element="十" kvg:part="2">
				</g>
			</g>
		</g>
	</g>
	<g id="kvg:090f5-g8" kvg:element="⻏" kvg:variant="true" kvg:original="邑" kvg:position="right" kvg:radical="general">
	</g>
</g>
</g></svg>