<?xml version="1.0" encoding="UTF-8"?>
  <!DOCTYPE svg PUBLIC "-//W3C//DTD SVG 1.0//EN" "http://www.w3.org/TR/2001/REC-SVG-20010904/DTD/svg10.dtd" [
  <!ATTLIST g xmlns:kvg CDATA #FIXED "http://kanjivg.tagaini.net" kvg:element CDATA #IMPLIED kvg:variant CDATA #IMPLIED kvg:partial CDATA #IMPLIED kvg:original CDATA #IMPLIED kvg:part CDATA #IMPLIED kvg:number CDATA #IMPLIED kvg:tradForm CDATA #IMPLIED kvg:radicalForm CDATA #IMPLIED kvg:position CDATA #IMPLIED kvg:radical CDATA #IMPLIED kvg:phon CDATA #IMPLIED >
  <!ATTLIST path xmlns:kvg CDATA #FIXED "http://kanjivg.tagaini.net" kvg:type CDATA #IMPLIED >
  ]>
  <svg xmlns="http://www.w3.org/2000/svg" width="109" height="109" viewBox="0 0 109 109">
<g id="kvg:StrokePaths_090f7" style="fill:none;stroke:#000000;stroke-width:3;stroke-linecap:round;stroke-linejoin:round;">
<g id="kvg:090f7" kvg:element="郷">
	<g id="kvg:090f7-g1" kvg:position="left" kvg:phon="卿">
		<g id="kvg:090f7-g2" kvg:element="乡" kvg:variant="true">
			<path style="fill:none;stroke:#808080" id="kvg:090f7-s1" kvg:type="㇜" d="M25.47,18.62c0.28,1.01,0.31,2.33-0.42,3.79c-2.68,5.34-7.1,12.84-10.77,17.27c-0.62,0.75-0.39,2.35,0.28,2.61c3.53,1.34,5.69,2.58,10.13,5.54"/>
			<path style="fill:none;stroke:#808080" id="kvg:090f7-s2" kvg:type="㇜" d="M34.03,31.4c0.35,1.1,0.1,2.23-0.46,3.18c-3.81,6.5-12.8,20.38-18.85,27.8c-0.81,1,0,2.76,1,2.46C22,63,25.62,61.88,31.79,60.2"/>
			<path style="fill:none;stroke:#808080" id="kvg:090f7-s3" kvg:type="㇒/㇔" d="M33.52,50.25c0.35,1,0.52,2.33,0.42,3.63c-0.69,8.37-4.44,27.37-15.02,35.28"/>
		</g>
		<g id="kvg:090f7-g3" kvg:element="艮" kvg:partial="true">
			<path style="fill:none;stroke:#808080" id="kvg:090f7-s4" kvg:type="㇕" d="M42.87,22.01c1.88,0.99,2.78,1.06,4.92,0.7c3.51-0.6,8.93-1.4,11.98-1.83c3.62-0.52,5.29-0.14,4.74,3.88c-0.71,5.3-1.32,11.97-2.16,18.51c-0.2,1.59-0.42,3.18-0.66,4.77"/>
			<path style="fill:none;stroke:#808080" id="kvg:090f7-s5" kvg:type="㇐a" d="M45.46,35.53c5.17-0.66,12.29-2.03,17.03-2.66"/>
			<path style="fill:none;stroke:#808080" id="kvg:090f7-s6" kvg:type="㇐a" d="M45.62,48.1c4.11-0.43,9.38-1.23,15.46-1.97"/>
			<path style="fill:none;stroke:#808080" id="kvg:090f7-s7" kvg:type="㇙" d="M42.87,22.01c0.85,0.46,1.53,2.05,1.53,2.99c0,4,0.17,45.5,0.17,51.22c0,2.08,0.77,2.89,2.81,1.28c2.04-1.61,12.38-8.75,16.62-11.25"/>
			<path style="fill:none;stroke-width:4;" id="kvg:090f7-s8" kvg:type="㇔" d="M59.88,57.12C62.3,60.05,66.11,67.83,67.5,74"/>
<circle cx="59.88" cy="57.12" r="5" style="fill:red;stroke:red;" />
		</g>
	</g>
	<g id="kvg:090f7-g4" kvg:element="⻏" kvg:variant="true" kvg:original="邑" kvg:position="right" kvg:radical="general">
	</g>
</g>
</g></svg>