<?xml version="1.0" encoding="UTF-8"?>
  <!DOCTYPE svg PUBLIC "-//W3C//DTD SVG 1.0//EN" "http://www.w3.org/TR/2001/REC-SVG-20010904/DTD/svg10.dtd" [
  <!ATTLIST g xmlns:kvg CDATA #FIXED "http://kanjivg.tagaini.net" kvg:element CDATA #IMPLIED kvg:variant CDATA #IMPLIED kvg:partial CDATA #IMPLIED kvg:original CDATA #IMPLIED kvg:part CDATA #IMPLIED kvg:number CDATA #IMPLIED kvg:tradForm CDATA #IMPLIED kvg:radicalForm CDATA #IMPLIED kvg:position CDATA #IMPLIED kvg:radical CDATA #IMPLIED kvg:phon CDATA #IMPLIED >
  <!ATTLIST path xmlns:kvg CDATA #FIXED "http://kanjivg.tagaini.net" kvg:type CDATA #IMPLIED >
  ]>
  <svg xmlns="http://www.w3.org/2000/svg" width="109" height="109" viewBox="0 0 109 109">
<g id="kvg:StrokePaths_0914d" style="fill:none;stroke:#000000;stroke-width:3;stroke-linecap:round;stroke-linejoin:round;">
<g id="kvg:0914d" kvg:element="配">
	<g id="kvg:0914d-g1" kvg:element="酉" kvg:position="left" kvg:radical="general">
		<g id="kvg:0914d-g2" kvg:element="西" kvg:part="1" kvg:original="襾">
			<path style="fill:none;stroke:#808080" id="kvg:0914d-s1" kvg:type="㇐" d="M12.22,23.18c1.96,0.5,3.86,0.52,6.2,0.35c7.12-0.53,18.75-1.82,25.66-2.55c2.2-0.23,4.21-0.23,5.31,0.09"/>
			<path style="fill:none;stroke:#808080" id="kvg:0914d-s2" kvg:type="㇑" d="M14.27,39.86c0.75,0.75,1.11,2.01,1.11,3.26c0,0.85-0.03,34.89-0.04,44.75c0,1.79,0.04,3.58,0.04,5.38"/>
			<path style="fill:none;stroke-width:4;" id="kvg:0914d-s3" kvg:type="㇕a" d="M15.6,41.15c2.48-0.12,27.36-3.69,29.63-3.84c1.89-0.12,3.23,1.19,3.23,3.98c0,1.46-0.67,32.48-0.75,45.45c-0.01,1.44-0.16,2.88-0.16,4.31"/>
<circle cx="15.6" cy="41.15" r="5" style="fill:red;stroke:red;" />
		</g>
		<g id="kvg:0914d-g3" kvg:element="一">
		</g>
		<g id="kvg:0914d-g4" kvg:element="西" kvg:part="2" kvg:original="襾">
		</g>
	</g>
	<g id="kvg:0914d-g5" kvg:element="己" kvg:position="right">
	</g>
</g>
</g></svg>