<?xml version="1.0" encoding="UTF-8"?>
  <!DOCTYPE svg PUBLIC "-//W3C//DTD SVG 1.0//EN" "http://www.w3.org/TR/2001/REC-SVG-20010904/DTD/svg10.dtd" [
  <!ATTLIST g xmlns:kvg CDATA #FIXED "http://kanjivg.tagaini.net" kvg:element CDATA #IMPLIED kvg:variant CDATA #IMPLIED kvg:partial CDATA #IMPLIED kvg:original CDATA #IMPLIED kvg:part CDATA #IMPLIED kvg:number CDATA #IMPLIED kvg:tradForm CDATA #IMPLIED kvg:radicalForm CDATA #IMPLIED kvg:position CDATA #IMPLIED kvg:radical CDATA #IMPLIED kvg:phon CDATA #IMPLIED >
  <!ATTLIST path xmlns:kvg CDATA #FIXED "http://kanjivg.tagaini.net" kvg:type CDATA #IMPLIED >
  ]>
  <svg xmlns="http://www.w3.org/2000/svg" width="109" height="109" viewBox="0 0 109 109">
<g id="kvg:StrokePaths_09178" style="fill:none;stroke:#000000;stroke-width:3;stroke-linecap:round;stroke-linejoin:round;">
<g id="kvg:09178" kvg:element="酸">
	<g id="kvg:09178-g1" kvg:element="酉" kvg:position="left" kvg:radical="general">
		<g id="kvg:09178-g2" kvg:element="西" kvg:part="1" kvg:original="襾">
			<path style="fill:none;stroke:#808080" id="kvg:09178-s1" kvg:type="㇐" d="M11.29,23.16c1.96,0.71,3.94,0.69,5.83,0.49c7.18-0.76,21.06-3.17,23.64-3.4c1.57-0.15,3.34-0.62,4.68-0.13"/>
			<path style="fill:none;stroke:#808080" id="kvg:09178-s2" kvg:type="㇑" d="M12.13,39.64c0.87,0.87,1.33,2.36,1.33,3.73c0,0.91-0.03,43.06-0.03,43.52c0,0.46,0.03,2.86,0.03,4.36"/>
			<path style="fill:none;stroke-width:4;" id="kvg:09178-s3" kvg:type="㇕a" d="M14.16,41.31c8.34-1.18,20.84-2.93,26.1-3.51c2.25-0.25,4.09,1.09,4.09,3.67c0,1.44-0.47,32.83-0.46,42.81c0,1.03,0.11,3.97,0.11,4.66"/>
<circle cx="14.16" cy="41.31" r="5" style="fill:red;stroke:red;" />
		</g>
		<g id="kvg:09178-g3" kvg:element="一">
		</g>
		<g id="kvg:09178-g4" kvg:element="西" kvg:part="2" kvg:original="襾">
		</g>
	</g>
	<g id="kvg:09178-g5" kvg:element="夋" kvg:position="right" kvg:phon="夋">
		<g id="kvg:09178-g6" kvg:element="允" kvg:position="top">
			<g id="kvg:09178-g7" kvg:element="厶" kvg:position="top">
			</g>
			<g id="kvg:09178-g8" kvg:element="儿" kvg:variant="true" kvg:original="八" kvg:position="bottom">
				<g id="kvg:09178-g9" kvg:element="丿" kvg:position="left">
				</g>
				<g id="kvg:09178-g10" kvg:position="right">
				</g>
			</g>
		</g>
		<g id="kvg:09178-g11" kvg:element="夂" kvg:position="bottom">
		</g>
	</g>
</g>
</g></svg>