<?xml version="1.0" encoding="UTF-8"?>
  <!DOCTYPE svg PUBLIC "-//W3C//DTD SVG 1.0//EN" "http://www.w3.org/TR/2001/REC-SVG-20010904/DTD/svg10.dtd" [
  <!ATTLIST g xmlns:kvg CDATA #FIXED "http://kanjivg.tagaini.net" kvg:element CDATA #IMPLIED kvg:variant CDATA #IMPLIED kvg:partial CDATA #IMPLIED kvg:original CDATA #IMPLIED kvg:part CDATA #IMPLIED kvg:number CDATA #IMPLIED kvg:tradForm CDATA #IMPLIED kvg:radicalForm CDATA #IMPLIED kvg:position CDATA #IMPLIED kvg:radical CDATA #IMPLIED kvg:phon CDATA #IMPLIED >
  <!ATTLIST path xmlns:kvg CDATA #FIXED "http://kanjivg.tagaini.net" kvg:type CDATA #IMPLIED >
  ]>
  <svg xmlns="http://www.w3.org/2000/svg" width="109" height="109" viewBox="0 0 109 109">
<g id="kvg:StrokePaths_091cc" style="fill:none;stroke:#000000;stroke-width:3;stroke-linecap:round;stroke-linejoin:round;">
<g id="kvg:091cc" kvg:element="里" kvg:radical="general">
	<g id="kvg:091cc-g1" kvg:element="日">
		<path style="fill:none;stroke:#808080" id="kvg:091cc-s1" kvg:type="㇑" d="M24.83,19.94c0.93,0.93,1.42,2.06,1.66,3.15c1.53,6.96,3,17.79,4.16,28.14c0.16,1.43,0.31,2.82,0.46,4.14"/>
		<path style="fill:none;stroke:#808080" id="kvg:091cc-s2" kvg:type="㇕a" d="M27.51,22.11c15.08-1.48,37.74-4.36,51.76-5.05c4.06-0.2,6.23,1.44,5.9,4.24c-0.86,7.17-2.71,17.2-5.09,26.29c-0.38,1.45-0.76,2.87-1.15,4.26"/>
		<path style="fill:none;stroke:#808080" id="kvg:091cc-s3" kvg:type="㇐a" d="M30.05,36.97c8.7-0.97,38.08-3.47,51.66-3.99"/>
		<path style="fill:none;stroke-width:4;" id="kvg:091cc-s4" kvg:type="㇐a" d="M32.12,53.04C44,52,63.25,50.62,78.43,49.8"/>
<circle cx="32.12" cy="53.04" r="5" style="fill:red;stroke:red;" />
	</g>
</g>
</g></svg>