<?xml version="1.0" encoding="UTF-8"?>
  <!DOCTYPE svg PUBLIC "-//W3C//DTD SVG 1.0//EN" "http://www.w3.org/TR/2001/REC-SVG-20010904/DTD/svg10.dtd" [
  <!ATTLIST g xmlns:kvg CDATA #FIXED "http://kanjivg.tagaini.net" kvg:element CDATA #IMPLIED kvg:variant CDATA #IMPLIED kvg:partial CDATA #IMPLIED kvg:original CDATA #IMPLIED kvg:part CDATA #IMPLIED kvg:number CDATA #IMPLIED kvg:tradForm CDATA #IMPLIED kvg:radicalForm CDATA #IMPLIED kvg:position CDATA #IMPLIED kvg:radical CDATA #IMPLIED kvg:phon CDATA #IMPLIED >
  <!ATTLIST path xmlns:kvg CDATA #FIXED "http://kanjivg.tagaini.net" kvg:type CDATA #IMPLIED >
  ]>
  <svg xmlns="http://www.w3.org/2000/svg" width="109" height="109" viewBox="0 0 109 109">
<g id="kvg:StrokePaths_091cf" style="fill:none;stroke:#000000;stroke-width:3;stroke-linecap:round;stroke-linejoin:round;">
<g id="kvg:091cf" kvg:element="量">
	<g id="kvg:091cf-g1" kvg:element="旦" kvg:position="top">
		<g id="kvg:091cf-g2" kvg:element="日" kvg:position="top" kvg:radical="nelson">
			<path style="fill:none;stroke:#808080" id="kvg:091cf-s1" kvg:type="㇑" d="M27.75,13.57c0.78,0.78,1.14,1.76,1.3,2.41c0.41,1.72,2.33,11.48,3.37,17c0.42,2.18,0.7,3.7,0.7,3.79"/>
			<path style="fill:none;stroke:#808080" id="kvg:091cf-s2" kvg:type="㇕a" d="M30.12,14.9c6.13-0.52,40.64-3.5,45.53-3.91c2.84-0.24,4.59,1.38,4.09,4.26c-0.5,2.85-1.54,7.35-3.13,14.77c-0.24,1.12-0.49,2.31-0.76,3.57"/>
			<path style="fill:none;stroke:#808080" id="kvg:091cf-s3" kvg:type="㇐a" d="M31.02,24.75c10.11-1,38.11-3.12,46.62-3.33"/>
			<path style="fill:none;stroke-width:4;" id="kvg:091cf-s4" kvg:type="㇐a" d="M34.12,34.34c10.88-0.84,26.5-2.21,41.09-2.66"/>
<circle cx="34.12" cy="34.34" r="5" style="fill:red;stroke:red;" />
		</g>
		<g id="kvg:091cf-g3" kvg:element="一" kvg:position="bottom">
		</g>
	</g>
	<g id="kvg:091cf-g4" kvg:element="里" kvg:position="bottom" kvg:radical="tradit">
		<g id="kvg:091cf-g5" kvg:element="日">
		</g>
	</g>
</g>
</g></svg>