<?xml version="1.0" encoding="UTF-8"?>
  <!DOCTYPE svg PUBLIC "-//W3C//DTD SVG 1.0//EN" "http://www.w3.org/TR/2001/REC-SVG-20010904/DTD/svg10.dtd" [
  <!ATTLIST g xmlns:kvg CDATA #FIXED "http://kanjivg.tagaini.net" kvg:element CDATA #IMPLIED kvg:variant CDATA #IMPLIED kvg:partial CDATA #IMPLIED kvg:original CDATA #IMPLIED kvg:part CDATA #IMPLIED kvg:number CDATA #IMPLIED kvg:tradForm CDATA #IMPLIED kvg:radicalForm CDATA #IMPLIED kvg:position CDATA #IMPLIED kvg:radical CDATA #IMPLIED kvg:phon CDATA #IMPLIED >
  <!ATTLIST path xmlns:kvg CDATA #FIXED "http://kanjivg.tagaini.net" kvg:type CDATA #IMPLIED >
  ]>
  <svg xmlns="http://www.w3.org/2000/svg" width="109" height="109" viewBox="0 0 109 109">
<g id="kvg:StrokePaths_091cd" style="fill:none;stroke:#000000;stroke-width:3;stroke-linecap:round;stroke-linejoin:round;">
<g id="kvg:091cd" kvg:element="重">
	<g id="kvg:091cd-g1" kvg:element="千" kvg:part="1">
		<g id="kvg:091cd-g2" kvg:element="丿" kvg:radical="nelson">
			<path style="fill:none;stroke:#808080" id="kvg:091cd-s1" kvg:type="㇒" d="M67.25,11.17c-0.38,1.08-1,2.08-2.99,2.89c-5.43,2.22-16.96,5.78-36,8.72"/>
		</g>
		<g id="kvg:091cd-g3" kvg:element="十" kvg:part="1">
			<path style="fill:none;stroke:#808080" id="kvg:091cd-s2" kvg:type="㇐" d="M12.75,33.95c4.38,0.93,7.82,0.32,11.49-0.04c13.33-1.33,41.94-3.94,58.24-4.86c3.86-0.22,7.64-0.42,11.52,0.25"/>
		</g>
	</g>
	<g id="kvg:091cd-g4" kvg:element="里" kvg:radical="tradit">
		<path style="fill:none;stroke:#808080" id="kvg:091cd-s3" kvg:type="㇑" d="M28.69,44.28c0.7,0.7,1.01,1.67,1.1,2.22c1.05,6.49,2.41,14.8,3.44,22.11c0.16,1.12,0.31,2.23,0.45,3.29"/>
		<path style="fill:none;stroke-width:4;" id="kvg:091cd-s4" kvg:type="㇕a" d="M30.46,46.36c14.66-1.86,35.83-4.17,45.76-5.07c3.65-0.33,5.01,2.6,4.83,3.78c-0.57,3.56-2.1,10.62-3.88,17.07c-0.38,1.39-0.78,2.74-1.17,4.03"/>
<circle cx="30.46" cy="46.36" r="5" style="fill:red;stroke:red;" />
		<g id="kvg:091cd-g5" kvg:element="千" kvg:part="2">
			<g id="kvg:091cd-g6" kvg:element="十" kvg:part="2">
			</g>
		</g>
	</g>
</g>
</g></svg>