<?xml version="1.0" encoding="UTF-8"?>
  <!DOCTYPE svg PUBLIC "-//W3C//DTD SVG 1.0//EN" "http://www.w3.org/TR/2001/REC-SVG-20010904/DTD/svg10.dtd" [
  <!ATTLIST g xmlns:kvg CDATA #FIXED "http://kanjivg.tagaini.net" kvg:element CDATA #IMPLIED kvg:variant CDATA #IMPLIED kvg:partial CDATA #IMPLIED kvg:original CDATA #IMPLIED kvg:part CDATA #IMPLIED kvg:number CDATA #IMPLIED kvg:tradForm CDATA #IMPLIED kvg:radicalForm CDATA #IMPLIED kvg:position CDATA #IMPLIED kvg:radical CDATA #IMPLIED kvg:phon CDATA #IMPLIED >
  <!ATTLIST path xmlns:kvg CDATA #FIXED "http://kanjivg.tagaini.net" kvg:type CDATA #IMPLIED >
  ]>
  <svg xmlns="http://www.w3.org/2000/svg" width="109" height="109" viewBox="0 0 109 109">
<g id="kvg:StrokePaths_091d1" style="fill:none;stroke:#000000;stroke-width:3;stroke-linecap:round;stroke-linejoin:round;">
<g id="kvg:091d1" kvg:element="金" kvg:radical="general">
	<g id="kvg:091d1-g1" kvg:position="top" kvg:phon="今1">
		<path style="fill:none;stroke:#808080" id="kvg:091d1-s1" kvg:type="㇒" d="M51.75,11.88c0.25,1.52-0.22,3.57-0.8,4.84C47.73,23.79,33.13,47.1,14.5,58"/>
		<path style="fill:none;stroke:#808080" id="kvg:091d1-s2" kvg:type="㇏" d="M52.25,18.25c9.5,7.5,34.14,30.88,37.21,32.67c3.12,1.82,4.14,2.66,5.54,2.83"/>
	</g>
	<g id="kvg:091d1-g2" kvg:position="bottom">
		<g id="kvg:091d1-g3" kvg:phon="今2">
			<path style="fill:none;stroke:#808080" id="kvg:091d1-s3" kvg:type="㇐" d="M34.02,47.08c1.69,0.65,3.85,0.36,5.6,0.21c6.91-0.6,14.33-1.69,23.99-2.64c2.07-0.2,4.1-0.4,6.15,0.12"/>
			<path style="fill:none;stroke:#808080" id="kvg:091d1-s4" kvg:type="㇐" d="M30.18,64.96c1.95,0.67,4.47,0.31,6.47,0.12c9.24-0.87,17.42-1.58,31.35-2.53c2.3-0.16,4.68-0.36,6.96,0.08"/>
		</g>
		<path style="fill:none;stroke-width:4;" id="kvg:091d1-s5" kvg:type="㇑a" d="M51.47,48.82c0.89,0.85,0.89,3.76,0.89,4.43c0,3.64,0.27,38.71,0.22,39.82"/>
<circle cx="51.47" cy="48.82" r="5" style="fill:red;stroke:red;" />
	</g>
</g>
</g></svg>