<?xml version="1.0" encoding="UTF-8"?>
  <!DOCTYPE svg PUBLIC "-//W3C//DTD SVG 1.0//EN" "http://www.w3.org/TR/2001/REC-SVG-20010904/DTD/svg10.dtd" [
  <!ATTLIST g xmlns:kvg CDATA #FIXED "http://kanjivg.tagaini.net" kvg:element CDATA #IMPLIED kvg:variant CDATA #IMPLIED kvg:partial CDATA #IMPLIED kvg:original CDATA #IMPLIED kvg:part CDATA #IMPLIED kvg:number CDATA #IMPLIED kvg:tradForm CDATA #IMPLIED kvg:radicalForm CDATA #IMPLIED kvg:position CDATA #IMPLIED kvg:radical CDATA #IMPLIED kvg:phon CDATA #IMPLIED >
  <!ATTLIST path xmlns:kvg CDATA #FIXED "http://kanjivg.tagaini.net" kvg:type CDATA #IMPLIED >
  ]>
  <svg xmlns="http://www.w3.org/2000/svg" width="109" height="109" viewBox="0 0 109 109">
<g id="kvg:StrokePaths_09271" style="fill:none;stroke:#000000;stroke-width:3;stroke-linecap:round;stroke-linejoin:round;">
<g id="kvg:09271" kvg:element="鉱">
	<g id="kvg:09271-g1" kvg:element="金" kvg:position="left" kvg:radical="general">
		<path style="fill:none;stroke:#808080" id="kvg:09271-s1" kvg:type="㇒" d="M32.35,16.75c0,0.8,0.05,1.44-0.16,2.41C31.1,24.17,22.62,39.62,12,48.25"/>
		<path style="fill:none;stroke:#808080" id="kvg:09271-s2" kvg:type="㇔/㇏" d="M34.47,22.82c4.83,1.77,10.65,6.06,13.57,10.61"/>
		<path style="fill:none;stroke:#808080" id="kvg:09271-s3" kvg:type="㇐" d="M22.52,42.58c1.54,0,2.93,0.06,4.48-0.09c3.59-0.35,7.79-1.06,11.73-1.71c1.26-0.21,2.27-0.28,3.55-0.27"/>
		<path style="fill:none;stroke:#808080" id="kvg:09271-s4" kvg:type="㇐" d="M16.56,55.89c2.19,0.49,4.29,0.32,6.17,0.06c5.4-0.76,13.52-2.35,19.53-3.33c1.57-0.26,3.4-0.72,4.99-0.33"/>
		<path style="fill:none;stroke:#808080" id="kvg:09271-s5" kvg:type="㇑a" d="M30.71,44.44c1.23,1.23,1.48,3.06,1.48,4.69c0,4.06-0.06,23.61-0.06,30.6"/>
		<path style="fill:none;stroke:#808080" id="kvg:09271-s6" kvg:type="㇔" d="M18.58,67.38c3.18,3.57,4.72,7.43,5.37,9.51"/>
		<path style="fill:none;stroke-width:4;" id="kvg:09271-s7" kvg:type="㇒" d="M44.25,58.84c0.23,0.67,0.24,1.68,0,2.19c-1.13,2.46-1.81,4.07-4.41,8.3"/>
<circle cx="44.25" cy="58.84" r="5" style="fill:red;stroke:red;" />
	</g>
	<g id="kvg:09271-g2" kvg:element="広" kvg:position="right" kvg:phon="広">
		<g id="kvg:09271-g3" kvg:element="广" kvg:position="tare">
			<g id="kvg:09271-g4" kvg:element="厂">
			</g>
		</g>
		<g id="kvg:09271-g5" kvg:element="厶" kvg:position="tarec">
		</g>
	</g>
</g>
</g></svg>