<?xml version="1.0" encoding="UTF-8"?>
  <!DOCTYPE svg PUBLIC "-//W3C//DTD SVG 1.0//EN" "http://www.w3.org/TR/2001/REC-SVG-20010904/DTD/svg10.dtd" [
  <!ATTLIST g xmlns:kvg CDATA #FIXED "http://kanjivg.tagaini.net" kvg:element CDATA #IMPLIED kvg:variant CDATA #IMPLIED kvg:partial CDATA #IMPLIED kvg:original CDATA #IMPLIED kvg:part CDATA #IMPLIED kvg:number CDATA #IMPLIED kvg:tradForm CDATA #IMPLIED kvg:radicalForm CDATA #IMPLIED kvg:position CDATA #IMPLIED kvg:radical CDATA #IMPLIED kvg:phon CDATA #IMPLIED >
  <!ATTLIST path xmlns:kvg CDATA #FIXED "http://kanjivg.tagaini.net" kvg:type CDATA #IMPLIED >
  ]>
  <svg xmlns="http://www.w3.org/2000/svg" width="109" height="109" viewBox="0 0 109 109">
<g id="kvg:StrokePaths_09285" style="fill:none;stroke:#000000;stroke-width:3;stroke-linecap:round;stroke-linejoin:round;">
<g id="kvg:09285" kvg:element="銅">
	<g id="kvg:09285-g1" kvg:element="金" kvg:position="left" kvg:radical="general">
		<path style="fill:none;stroke:#808080" id="kvg:09285-s1" kvg:type="㇒" d="M31,14.74c0,0.78,0.05,1.4-0.15,2.33c-1.04,4.87-9.6,19.67-18.88,28.55"/>
		<path style="fill:none;stroke:#808080" id="kvg:09285-s2" kvg:type="㇔/㇏" d="M32.39,21.21c4.11,2.04,8.73,6.54,11.36,11.04"/>
		<path style="fill:none;stroke:#808080" id="kvg:09285-s3" kvg:type="㇐" d="M20.25,41.75c1.37,0,2.65,0.08,4.02-0.07c3.79-0.41,8.22-1.36,12.6-1.99c1.07-0.16,2.05-0.19,3.13-0.19"/>
		<path style="fill:none;stroke:#808080" id="kvg:09285-s4" kvg:type="㇐" d="M13.59,56.31c1.29,0.44,3.58,0.4,5.03,0.24c5.42-0.62,14.18-1.99,20.64-2.77c1.71-0.21,3.5-0.28,5.27-0.05"/>
		<path style="fill:none;stroke:#808080" id="kvg:09285-s5" kvg:type="㇑a" d="M30.2,44.19c0.93,0.93,1.24,2.43,1.24,3.89c0,5.79,0.06,27.17,0.06,33.48"/>
		<path style="fill:none;stroke:#808080" id="kvg:09285-s6" kvg:type="㇔" d="M18.14,68.26c2.6,4.01,3.87,8.35,4.4,10.69"/>
		<path style="fill:none;stroke:#808080" id="kvg:09285-s7" kvg:type="㇒" d="M43.54,60.8c0,0.7-0.24,1.54-0.49,2.1C41.62,66,41,67.25,38.42,71.78"/>
		<path style="fill:none;stroke-width:4;" id="kvg:09285-s8" kvg:type="㇀/㇐" d="M13.5,88.75c1,0.88,2.42,0.68,3.5,0.25c1.25-0.5,12.5-5.62,26.25-11.75"/>
<circle cx="13.5" cy="88.75" r="5" style="fill:red;stroke:red;" />
	</g>
	<g id="kvg:09285-g2" kvg:element="同" kvg:position="right" kvg:phon="同">
		<g id="kvg:09285-g3" kvg:element="冂">
		</g>
		<g id="kvg:09285-g4" kvg:element="一">
		</g>
		<g id="kvg:09285-g5" kvg:element="口">
		</g>
	</g>
</g>
</g></svg>