<?xml version="1.0" encoding="UTF-8"?>
  <!DOCTYPE svg PUBLIC "-//W3C//DTD SVG 1.0//EN" "http://www.w3.org/TR/2001/REC-SVG-20010904/DTD/svg10.dtd" [
  <!ATTLIST g xmlns:kvg CDATA #FIXED "http://kanjivg.tagaini.net" kvg:element CDATA #IMPLIED kvg:variant CDATA #IMPLIED kvg:partial CDATA #IMPLIED kvg:original CDATA #IMPLIED kvg:part CDATA #IMPLIED kvg:number CDATA #IMPLIED kvg:tradForm CDATA #IMPLIED kvg:radicalForm CDATA #IMPLIED kvg:position CDATA #IMPLIED kvg:radical CDATA #IMPLIED kvg:phon CDATA #IMPLIED >
  <!ATTLIST path xmlns:kvg CDATA #FIXED "http://kanjivg.tagaini.net" kvg:type CDATA #IMPLIED >
  ]>
  <svg xmlns="http://www.w3.org/2000/svg" width="109" height="109" viewBox="0 0 109 109">
<g id="kvg:StrokePaths_092ad" style="fill:none;stroke:#000000;stroke-width:3;stroke-linecap:round;stroke-linejoin:round;">
<g id="kvg:092ad" kvg:element="銭">
	<g id="kvg:092ad-g1" kvg:element="金" kvg:position="left" kvg:radical="general">
		<path style="fill:none;stroke:#808080" id="kvg:092ad-s1" kvg:type="㇒" d="M32.25,13.74c0,1.32-0.1,2.44-0.57,3.69c-2.36,6.28-12.66,22.5-21.43,30.69"/>
		<path style="fill:none;stroke:#808080" id="kvg:092ad-s2" kvg:type="㇔/㇏" d="M33.88,20.88c4.02,1.68,9.17,6.14,11.12,10.38"/>
		<path style="fill:none;stroke:#808080" id="kvg:092ad-s3" kvg:type="㇐" d="M21.75,40.5c0.88,0.12,1.88,0.11,2.67,0.06c4.33-0.31,9.71-1.43,15.44-2c0.74-0.07,0.9-0.05,2.15-0.05"/>
		<path style="fill:none;stroke:#808080" id="kvg:092ad-s4" kvg:type="㇐" d="M15.59,55.56c1.91,0.56,3.6,0.4,5.04,0.26c6.24-0.6,14.88-2.08,20.28-2.78c1.51-0.2,3.59-0.46,5.12-0.07"/>
		<path style="fill:none;stroke:#808080" id="kvg:092ad-s5" kvg:type="㇑a" d="M30.95,42.19c1.24,0.78,1.24,2.52,1.24,3.14c0,4.35,0.62,32.63,0.31,36.98"/>
		<path style="fill:none;stroke:#808080" id="kvg:092ad-s6" kvg:type="㇔" d="M17.14,67.14c3.93,4.24,5.85,8.84,6.65,11.31"/>
		<path style="fill:none;stroke-width:4;" id="kvg:092ad-s7" kvg:type="㇒" d="M43.54,61.55c0.23,0.71,0.27,1.8,0.01,2.35c-1.05,2.23-2.68,6.11-4.63,8.88"/>
<circle cx="43.54" cy="61.55" r="5" style="fill:red;stroke:red;" />
	</g>
	<g id="kvg:092ad-g2" kvg:element="戋" kvg:variant="true" kvg:original="戔" kvg:position="right" kvg:phon="戋/戔V">
		<g id="kvg:092ad-g3" kvg:element="三" kvg:part="1">
			<g id="kvg:092ad-g4" kvg:element="一" kvg:position="top">
			</g>
			<g id="kvg:092ad-g5" kvg:element="一" kvg:position="bottom">
			</g>
			<g id="kvg:092ad-g6" kvg:element="戈">
				<g id="kvg:092ad-g7" kvg:element="弋" kvg:part="1">
					<g id="kvg:092ad-g8" kvg:element="三" kvg:part="2">
						<g id="kvg:092ad-g9" kvg:element="一">
						</g>
					</g>
				</g>
				<g id="kvg:092ad-g10" kvg:element="丿">
				</g>
				<g id="kvg:092ad-g11" kvg:element="弋" kvg:part="2">
					<g id="kvg:092ad-g12" kvg:element="丶">
					</g>
				</g>
			</g>
		</g>
	</g>
</g>
</g></svg>