<?xml version="1.0" encoding="UTF-8"?>
  <!DOCTYPE svg PUBLIC "-//W3C//DTD SVG 1.0//EN" "http://www.w3.org/TR/2001/REC-SVG-20010904/DTD/svg10.dtd" [
  <!ATTLIST g xmlns:kvg CDATA #FIXED "http://kanjivg.tagaini.net" kvg:element CDATA #IMPLIED kvg:variant CDATA #IMPLIED kvg:partial CDATA #IMPLIED kvg:original CDATA #IMPLIED kvg:part CDATA #IMPLIED kvg:number CDATA #IMPLIED kvg:tradForm CDATA #IMPLIED kvg:radicalForm CDATA #IMPLIED kvg:position CDATA #IMPLIED kvg:radical CDATA #IMPLIED kvg:phon CDATA #IMPLIED >
  <!ATTLIST path xmlns:kvg CDATA #FIXED "http://kanjivg.tagaini.net" kvg:type CDATA #IMPLIED >
  ]>
  <svg xmlns="http://www.w3.org/2000/svg" width="109" height="109" viewBox="0 0 109 109">
<g id="kvg:StrokePaths_092fc" style="fill:none;stroke:#000000;stroke-width:3;stroke-linecap:round;stroke-linejoin:round;">
<g id="kvg:092fc" kvg:element="鋼">
	<g id="kvg:092fc-g1" kvg:element="金" kvg:position="left" kvg:radical="general">
		<path style="fill:none;stroke:#808080" id="kvg:092fc-s1" kvg:type="㇒" d="M32,14.99c0,0.73,0.05,1.32-0.14,2.2C30.5,23.5,20.46,36.59,12.22,43.38"/>
		<path style="fill:none;stroke:#808080" id="kvg:092fc-s2" kvg:type="㇔/㇏" d="M33.75,22c4.34,1.25,9.89,4.59,12,7.75"/>
		<path style="fill:none;stroke:#808080" id="kvg:092fc-s3" kvg:type="㇐" d="M20.5,42.25c1.5,0,2.18,0.09,2.67,0.06c4.33-0.31,10.21-1.93,15.19-2.75c0.73-0.12,1.65-0.3,2.9-0.3"/>
		<path style="fill:none;stroke:#808080" id="kvg:092fc-s4" kvg:type="㇐" d="M14.59,56.06c1.79,0.56,3.6,0.41,5.04,0.21c5.9-0.82,15.62-3.14,22.16-4.2c0.74-0.12,2.34-0.2,3.49-0.1"/>
		<path style="fill:none;stroke:#808080" id="kvg:092fc-s5" kvg:type="㇑a" d="M30.2,44.19c0.99,0.99,1.24,2.43,1.24,3.89c0,4.35,0.06,28.29,0.06,34.98"/>
		<path style="fill:none;stroke:#808080" id="kvg:092fc-s6" kvg:type="㇔" d="M17.14,69.51c3.34,3.35,4.97,6.98,5.65,8.94"/>
		<path style="fill:none;stroke:#808080" id="kvg:092fc-s7" kvg:type="㇒" d="M43.98,61.8c0.28,0.71,0.12,1.82-0.18,2.35c-1.42,2.48-2.24,4.11-5.38,8.63"/>
		<path style="fill:none;stroke-width:4;" id="kvg:092fc-s8" kvg:type="㇀/㇐" d="M17.25,90.91c0.75,1.34,2.72,0.6,3.72,0.08c1.16-0.6,9.45-6.35,21.53-13.49"/>
<circle cx="17.25" cy="90.91" r="5" style="fill:red;stroke:red;" />
	</g>
	<g id="kvg:092fc-g2" kvg:element="岡" kvg:position="right" kvg:phon="岡">
		<g id="kvg:092fc-g3" kvg:element="冂" kvg:position="kamae">
		</g>
		<g id="kvg:092fc-g4" kvg:element="山">
		</g>
	</g>
</g>
</g></svg>