<?xml version="1.0" encoding="UTF-8"?>
  <!DOCTYPE svg PUBLIC "-//W3C//DTD SVG 1.0//EN" "http://www.w3.org/TR/2001/REC-SVG-20010904/DTD/svg10.dtd" [
  <!ATTLIST g xmlns:kvg CDATA #FIXED "http://kanjivg.tagaini.net" kvg:element CDATA #IMPLIED kvg:variant CDATA #IMPLIED kvg:partial CDATA #IMPLIED kvg:original CDATA #IMPLIED kvg:part CDATA #IMPLIED kvg:number CDATA #IMPLIED kvg:tradForm CDATA #IMPLIED kvg:radicalForm CDATA #IMPLIED kvg:position CDATA #IMPLIED kvg:radical CDATA #IMPLIED kvg:phon CDATA #IMPLIED >
  <!ATTLIST path xmlns:kvg CDATA #FIXED "http://kanjivg.tagaini.net" kvg:type CDATA #IMPLIED >
  ]>
  <svg xmlns="http://www.w3.org/2000/svg" width="109" height="109" viewBox="0 0 109 109">
<g id="kvg:StrokePaths_09332" style="fill:none;stroke:#000000;stroke-width:3;stroke-linecap:round;stroke-linejoin:round;">
<g id="kvg:09332" kvg:element="録">
	<g id="kvg:09332-g1" kvg:element="金" kvg:position="left" kvg:radical="general">
		<path style="fill:none;stroke:#808080" id="kvg:09332-s1" kvg:type="㇒" d="M30,13.74c0,0.81,0.05,1.45-0.15,2.42c-1.03,5.04-10.34,21.87-18.73,29.34"/>
		<path style="fill:none;stroke:#808080" id="kvg:09332-s2" kvg:type="㇔/㇏" d="M32.53,20.3c4.47,2.57,8.72,6.95,11.22,12.2"/>
		<path style="fill:none;stroke:#808080" id="kvg:09332-s3" kvg:type="㇐" d="M21,40c1.38,0.12,2.41,0.09,3.63-0.03c3.87-0.36,8.52-1.25,12.76-1.8c1.05-0.14,2.04-0.17,3.1-0.17"/>
		<path style="fill:none;stroke:#808080" id="kvg:09332-s4" kvg:type="㇐" d="M12.59,55.23c1.91,0.52,4.11,0.53,5.79,0.36c7.37-0.72,13.79-1.61,20.52-2.76c1.22-0.21,2.72-0.21,3.87-0.07"/>
		<path style="fill:none;stroke:#808080" id="kvg:09332-s5" kvg:type="㇑a" d="M29.45,40.94c0.99,0.99,1.24,2.18,1.24,3.39c0,4.17,0.06,31.79,0.06,36.98"/>
		<path style="fill:none;stroke:#808080" id="kvg:09332-s6" kvg:type="㇔" d="M16.38,65.62c2.9,4.43,4.32,9.24,4.92,11.82"/>
		<path style="fill:none;stroke:#808080" id="kvg:09332-s7" kvg:type="㇒" d="M41.54,60.3c0.23,0.71,0.35,1.75,0.26,2.35c-0.23,1.54-2.05,4.36-4.63,8.88"/>
		<path style="fill:none;stroke:#808080" id="kvg:09332-s8" kvg:type="㇀/㇐" d="M14.25,88c1,0.62,2.42,0.68,3.5,0.25c1.25-0.5,12-6,25-12"/>
	</g>
	<g id="kvg:09332-g2" kvg:element="彔" kvg:variant="true" kvg:position="right" kvg:phon="彔V">
		<g id="kvg:09332-g3" kvg:element="⺕" kvg:variant="true" kvg:original="彑">
			<path style="fill:none;stroke-width:4;" id="kvg:09332-s9" kvg:type="㇕c" d="M50.53,17.5c1.97,0.5,3.37,0.69,5.46,0.5c8.27-0.75,18.02-1.88,24.19-2.25c1.82-0.11,3.25,1.5,2.8,4c-1.19,6.54-1.8,11-3.39,22.25"/>
<circle cx="50.53" cy="17.5" r="5" style="fill:red;stroke:red;" />
		</g>
		<g id="kvg:09332-g4" kvg:element="氺" kvg:variant="true" kvg:original="水">
		</g>
	</g>
</g>
</g></svg>