<?xml version="1.0" encoding="UTF-8"?>
  <!DOCTYPE svg PUBLIC "-//W3C//DTD SVG 1.0//EN" "http://www.w3.org/TR/2001/REC-SVG-20010904/DTD/svg10.dtd" [
  <!ATTLIST g xmlns:kvg CDATA #FIXED "http://kanjivg.tagaini.net" kvg:element CDATA #IMPLIED kvg:variant CDATA #IMPLIED kvg:partial CDATA #IMPLIED kvg:original CDATA #IMPLIED kvg:part CDATA #IMPLIED kvg:number CDATA #IMPLIED kvg:tradForm CDATA #IMPLIED kvg:radicalForm CDATA #IMPLIED kvg:position CDATA #IMPLIED kvg:radical CDATA #IMPLIED kvg:phon CDATA #IMPLIED >
  <!ATTLIST path xmlns:kvg CDATA #FIXED "http://kanjivg.tagaini.net" kvg:type CDATA #IMPLIED >
  ]>
  <svg xmlns="http://www.w3.org/2000/svg" width="109" height="109" viewBox="0 0 109 109">
<g id="kvg:StrokePaths_0958b" style="fill:none;stroke:#000000;stroke-width:3;stroke-linecap:round;stroke-linejoin:round;">
<g id="kvg:0958b" kvg:element="開">
	<g id="kvg:0958b-g1" kvg:element="門" kvg:position="kamae" kvg:radical="general">
		<g id="kvg:0958b-g2" kvg:position="left">
			<path style="fill:none;stroke:#808080" id="kvg:0958b-s1" kvg:type="㇑" d="M18.64,14.79c0.91,0.91,1.18,2.09,1.18,3.4c0,0.69-0.11,51.55-0.2,70.68c-0.02,4.55-0.04,7.4-0.04,7.51"/>
			<path style="fill:none;stroke:#808080" id="kvg:0958b-s2" kvg:type="㇕a" d="M20.76,16.84c5.55-0.57,18.96-2.45,20.76-2.54c1.85-0.1,2.9,0.83,2.9,2.21c0,1.24-0.31,12.26-0.64,20.51c-0.04,0.91-0.14,2.31-0.14,2.91"/>
			<path style="fill:none;stroke:#808080" id="kvg:0958b-s3" kvg:type="㇐a" d="M20.95,27.89c5.99-0.59,16.37-2.12,22.13-2.76"/>
			<path style="fill:none;stroke:#808080" id="kvg:0958b-s4" kvg:type="㇐a" d="M20.77,39.48c8.11-1.15,14.64-2.03,21.81-2.56"/>
		</g>
		<g id="kvg:0958b-g3" kvg:position="right">
			<path style="fill:none;stroke:#808080" id="kvg:0958b-s5" kvg:type="㇑" d="M62.94,13.26c0.78,0.77,1.13,1.61,1.13,2.73c0,0.74-0.29,20.31-0.29,20.67s0.04,1.21,0.04,1.86"/>
			<path style="fill:none;stroke-width:4;" id="kvg:0958b-s6" kvg:type="㇆a" d="M65.03,14.83c5.74-0.74,19.94-3.24,21.76-3.34c1.9-0.11,2.97,1.65,2.97,2.3c0,19.46-0.25,65.71-0.25,78.15c0,9.94-6.45,2.16-7.9,0.86"/>
<circle cx="65.03" cy="14.83" r="5" style="fill:red;stroke:red;" />
		</g>
	</g>
	<g id="kvg:0958b-g4" kvg:element="开" kvg:original="幵" kvg:partial="true">
		<g id="kvg:0958b-g5" kvg:element="干">
			<g id="kvg:0958b-g6" kvg:element="十">
			</g>
		</g>
		<g id="kvg:0958b-g7" kvg:element="干" kvg:partial="true">
			<g id="kvg:0958b-g8" kvg:element="十" kvg:partial="true">
			</g>
		</g>
	</g>
</g>
</g></svg>