<?xml version="1.0" encoding="UTF-8"?>
  <!DOCTYPE svg PUBLIC "-//W3C//DTD SVG 1.0//EN" "http://www.w3.org/TR/2001/REC-SVG-20010904/DTD/svg10.dtd" [
  <!ATTLIST g xmlns:kvg CDATA #FIXED "http://kanjivg.tagaini.net" kvg:element CDATA #IMPLIED kvg:variant CDATA #IMPLIED kvg:partial CDATA #IMPLIED kvg:original CDATA #IMPLIED kvg:part CDATA #IMPLIED kvg:number CDATA #IMPLIED kvg:tradForm CDATA #IMPLIED kvg:radicalForm CDATA #IMPLIED kvg:position CDATA #IMPLIED kvg:radical CDATA #IMPLIED kvg:phon CDATA #IMPLIED >
  <!ATTLIST path xmlns:kvg CDATA #FIXED "http://kanjivg.tagaini.net" kvg:type CDATA #IMPLIED >
  ]>
  <svg xmlns="http://www.w3.org/2000/svg" width="109" height="109" viewBox="0 0 109 109">
<g id="kvg:StrokePaths_09580" style="fill:none;stroke:#000000;stroke-width:3;stroke-linecap:round;stroke-linejoin:round;">
<g id="kvg:09580" kvg:element="門" kvg:radical="general">
	<g id="kvg:09580-g1" kvg:position="left">
		<path style="fill:none;stroke:#808080" id="kvg:09580-s1" kvg:type="㇑" d="M17.39,14.97c0.94,0.94,1.26,2.28,1.26,4c0,0.77-0.18,49.78-0.18,69.28c0,3.3-0.04,4.11-0.07,4.97"/>
		<path style="fill:none;stroke:#808080" id="kvg:09580-s2" kvg:type="㇕a" d="M19.77,17.18c6.04-0.81,20.02-2.86,21.83-2.97c1.91-0.12,2.9,1.04,3,1.96c0.11,1.07-1.17,15.69-1.78,22.84c-0.19,2.21-0.31,3.71-0.31,3.87"/>
		<path style="fill:none;stroke:#808080" id="kvg:09580-s3" kvg:type="㇐a" d="M20.06,30.18C27,29,36.5,27.75,42.46,27.02"/>
		<path style="fill:none;stroke-width:4;" id="kvg:09580-s4" kvg:type="㇐a" d="M19.61,43.82c8.39-1.32,14.14-2.57,21.55-3.17"/>
<circle cx="19.61" cy="43.82" r="5" style="fill:red;stroke:red;" />
	</g>
	<g id="kvg:09580-g2" kvg:position="right">
	</g>
</g>
</g></svg>