<?xml version="1.0" encoding="UTF-8"?>
  <!DOCTYPE svg PUBLIC "-//W3C//DTD SVG 1.0//EN" "http://www.w3.org/TR/2001/REC-SVG-20010904/DTD/svg10.dtd" [
  <!ATTLIST g xmlns:kvg CDATA #FIXED "http://kanjivg.tagaini.net" kvg:element CDATA #IMPLIED kvg:variant CDATA #IMPLIED kvg:partial CDATA #IMPLIED kvg:original CDATA #IMPLIED kvg:part CDATA #IMPLIED kvg:number CDATA #IMPLIED kvg:tradForm CDATA #IMPLIED kvg:radicalForm CDATA #IMPLIED kvg:position CDATA #IMPLIED kvg:radical CDATA #IMPLIED kvg:phon CDATA #IMPLIED >
  <!ATTLIST path xmlns:kvg CDATA #FIXED "http://kanjivg.tagaini.net" kvg:type CDATA #IMPLIED >
  ]>
  <svg xmlns="http://www.w3.org/2000/svg" width="109" height="109" viewBox="0 0 109 109">
<g id="kvg:StrokePaths_09593" style="fill:none;stroke:#000000;stroke-width:3;stroke-linecap:round;stroke-linejoin:round;">
<g id="kvg:09593" kvg:element="間">
	<g id="kvg:09593-g1" kvg:element="門" kvg:position="kamae" kvg:radical="general">
		<g id="kvg:09593-g2" kvg:position="left">
			<path style="fill:none;stroke:#808080" id="kvg:09593-s1" kvg:type="㇑" d="M18.64,15.3c0.71,0.71,1.18,1.82,1.18,3.43c0,3.89-0.05,56.65-0.19,72.77c-0.02,1.92-0.03,4.03-0.05,4.65"/>
			<path style="fill:none;stroke:#808080" id="kvg:09593-s2" kvg:type="㇕a" d="M21.01,16.81c5.75-0.6,18.73-2.74,20.5-2.84c1.85-0.1,2.86,0.28,2.9,2.02c0.06,2.75-0.5,16.1-0.85,20.76c-0.12,1.55-0.19,2.57-0.19,2.7"/>
			<path style="fill:none;stroke:#808080" id="kvg:09593-s3" kvg:type="㇐a" d="M20.95,27.27c5.99-0.61,14.92-2.02,21.88-2.6"/>
			<path style="fill:none;stroke:#808080" id="kvg:09593-s4" kvg:type="㇐a" d="M21.02,39.04c8.11-1.19,14.14-2.1,21.31-2.64"/>
		</g>
		<g id="kvg:09593-g3" kvg:position="right">
			<path style="fill:none;stroke-width:4;" id="kvg:09593-s5" kvg:type="㇑" d="M63.19,13.1c0.98,0.98,1.34,2.15,1.34,2.97c0,5.8-0.08,12.65-0.06,18.93c0.01,2.01,0.02,3.4,0.06,3.58"/>
<circle cx="63.19" cy="13.1" r="5" style="fill:red;stroke:red;" />
		</g>
	</g>
	<g id="kvg:09593-g4" kvg:element="日">
	</g>
</g>
</g></svg>