<?xml version="1.0" encoding="UTF-8"?>
  <!DOCTYPE svg PUBLIC "-//W3C//DTD SVG 1.0//EN" "http://www.w3.org/TR/2001/REC-SVG-20010904/DTD/svg10.dtd" [
  <!ATTLIST g xmlns:kvg CDATA #FIXED "http://kanjivg.tagaini.net" kvg:element CDATA #IMPLIED kvg:variant CDATA #IMPLIED kvg:partial CDATA #IMPLIED kvg:original CDATA #IMPLIED kvg:part CDATA #IMPLIED kvg:number CDATA #IMPLIED kvg:tradForm CDATA #IMPLIED kvg:radicalForm CDATA #IMPLIED kvg:position CDATA #IMPLIED kvg:radical CDATA #IMPLIED kvg:phon CDATA #IMPLIED >
  <!ATTLIST path xmlns:kvg CDATA #FIXED "http://kanjivg.tagaini.net" kvg:type CDATA #IMPLIED >
  ]>
  <svg xmlns="http://www.w3.org/2000/svg" width="109" height="109" viewBox="0 0 109 109">
<g id="kvg:StrokePaths_095a2" style="fill:none;stroke:#000000;stroke-width:3;stroke-linecap:round;stroke-linejoin:round;">
<g id="kvg:095a2" kvg:element="関">
	<g id="kvg:095a2-g1" kvg:element="門" kvg:position="kamae" kvg:radical="general">
		<g id="kvg:095a2-g2" kvg:position="left">
			<path style="fill:none;stroke:#808080" id="kvg:095a2-s1" kvg:type="㇑" d="M18.39,15.29c0.91,0.91,1.43,2.47,1.43,3.4c0,3.03,0.01,51.35,0.01,70.18c0,3.28,0,5.66,0,6.76"/>
			<path style="fill:none;stroke:#808080" id="kvg:095a2-s2" kvg:type="㇕a" d="M20.02,17.08c2.11-0.09,15.2-2.02,20.11-2.62c2.68-0.32,4.58,0.07,4.55,3.04c-0.04,3.63-0.39,12.69-0.67,19.52c-0.04,0.91-0.14,1.81-0.14,2.41"/>
			<path style="fill:none;stroke:#808080" id="kvg:095a2-s3" kvg:type="㇐a" d="M20.95,27.39c6.67-0.89,15.67-2.14,22.38-2.76"/>
			<path style="fill:none;stroke:#808080" id="kvg:095a2-s4" kvg:type="㇐a" d="M21.02,38.98c8.11-1.15,14.64-2.03,21.81-2.56"/>
		</g>
		<g id="kvg:095a2-g3" kvg:position="right">
			<path style="fill:none;stroke:#808080" id="kvg:095a2-s5" kvg:type="㇑" d="M63.69,13.01c0.84,0.84,1.13,1.74,1.13,2.98c0,0.56-0.02,13.04-0.04,19.14c0,1.92-0.01,3.2-0.01,3.29"/>
			<path style="fill:none;stroke:#808080" id="kvg:095a2-s6" kvg:type="㇆a" d="M65.55,14.66c3.51-0.46,15.87-2.38,20.6-2.99c3.21-0.41,4.62,0.61,4.55,3.96c-0.41,20.46,0.05,63.63,0.05,77.57c0,9.05-5.14,3-8.65-0.14"/>
			<path style="fill:none;stroke:#808080" id="kvg:095a2-s7" kvg:type="㇐a" d="M65.99,24.72c4.76-0.22,19.09-1.99,22.9-1.99"/>
			<path style="fill:none;stroke:#808080" id="kvg:095a2-s8" kvg:type="㇐a" d="M66.05,36.26c6.7-0.76,14.2-1.76,23.05-2.06"/>
		</g>
	</g>
	<g id="kvg:095a2-g4" kvg:element="关" kvg:phon="关">
		<path style="fill:none;stroke-width:4;" id="kvg:095a2-s9" kvg:type="㇔" d="M41.85,44.67c1.66,1.34,4.28,5.52,4.69,7.61"/>
<circle cx="41.85" cy="44.67" r="5" style="fill:red;stroke:red;" />
		<g id="kvg:095a2-g5" kvg:element="天">
			<g id="kvg:095a2-g6" kvg:element="大">
			</g>
		</g>
	</g>
</g>
</g></svg>