<?xml version="1.0" encoding="UTF-8"?>
  <!DOCTYPE svg PUBLIC "-//W3C//DTD SVG 1.0//EN" "http://www.w3.org/TR/2001/REC-SVG-20010904/DTD/svg10.dtd" [
  <!ATTLIST g xmlns:kvg CDATA #FIXED "http://kanjivg.tagaini.net" kvg:element CDATA #IMPLIED kvg:variant CDATA #IMPLIED kvg:partial CDATA #IMPLIED kvg:original CDATA #IMPLIED kvg:part CDATA #IMPLIED kvg:number CDATA #IMPLIED kvg:tradForm CDATA #IMPLIED kvg:radicalForm CDATA #IMPLIED kvg:position CDATA #IMPLIED kvg:radical CDATA #IMPLIED kvg:phon CDATA #IMPLIED >
  <!ATTLIST path xmlns:kvg CDATA #FIXED "http://kanjivg.tagaini.net" kvg:type CDATA #IMPLIED >
  ]>
  <svg xmlns="http://www.w3.org/2000/svg" width="109" height="109" viewBox="0 0 109 109">
<g id="kvg:StrokePaths_095a3" style="fill:none;stroke:#000000;stroke-width:3;stroke-linecap:round;stroke-linejoin:round;">
<g id="kvg:095a3" kvg:element="閣">
	<g id="kvg:095a3-g1" kvg:element="門" kvg:position="kamae" kvg:radical="general">
		<g id="kvg:095a3-g2" kvg:position="left">
			<path style="fill:none;stroke:#808080" id="kvg:095a3-s1" kvg:type="㇑" d="M18.89,15.54c1.03,1.03,1.18,2.59,1.18,4.15c0,2.15,0.02,49.46,0.01,68.56c0,4.73,0,7.73-0.01,7.88"/>
			<path style="fill:none;stroke:#808080" id="kvg:095a3-s2" kvg:type="㇕a" d="M21.02,16.83c2.16-0.09,14.57-1.91,18.98-2.41c2.35-0.27,4.15,0.09,4.19,2.71c0.05,3.37-0.02,13.15-0.06,18.75c-0.01,1.63-0.02,2.9-0.02,3.56"/>
			<path style="fill:none;stroke:#808080" id="kvg:095a3-s3" kvg:type="㇐a" d="M20.95,27.39c7.17-0.89,15.42-2.14,22.13-2.76"/>
			<path style="fill:none;stroke:#808080" id="kvg:095a3-s4" kvg:type="㇐a" d="M21.27,38.98c8.11-1.15,14.64-2.28,21.81-2.81"/>
		</g>
		<g id="kvg:095a3-g3" kvg:position="right">
			<path style="fill:none;stroke:#808080" id="kvg:095a3-s5" kvg:type="㇑" d="M63.69,13.51c0.71,0.71,0.88,1.49,0.88,2.48c0,2.45-0.03,12.6-0.04,19.01c0,1.46,0,2.48,0,3.42"/>
			<path style="fill:none;stroke:#808080" id="kvg:095a3-s6" kvg:type="㇆a" d="M65.3,14.66c2.49-0.11,19.96-3.04,22.24-3.17c1.9-0.11,2.97,0.76,2.97,2.3c0,19.47-0.5,64.04-0.5,78.15c0,10.69-4.51,4.06-7.65,1.36"/>
			<path style="fill:none;stroke-width:4;" id="kvg:095a3-s7" kvg:type="㇐a" d="M65.74,24.72c6.38-0.47,19.84-1.99,23.65-1.99"/>
<circle cx="65.74" cy="24.72" r="5" style="fill:red;stroke:red;" />
		</g>
	</g>
	<g id="kvg:095a3-g4" kvg:element="各" kvg:phon="各">
		<g id="kvg:095a3-g5" kvg:element="夂" kvg:position="top">
		</g>
		<g id="kvg:095a3-g6" kvg:element="口" kvg:position="bottom">
		</g>
	</g>
</g>
</g></svg>