<?xml version="1.0" encoding="UTF-8"?>
  <!DOCTYPE svg PUBLIC "-//W3C//DTD SVG 1.0//EN" "http://www.w3.org/TR/2001/REC-SVG-20010904/DTD/svg10.dtd" [
  <!ATTLIST g xmlns:kvg CDATA #FIXED "http://kanjivg.tagaini.net" kvg:element CDATA #IMPLIED kvg:variant CDATA #IMPLIED kvg:partial CDATA #IMPLIED kvg:original CDATA #IMPLIED kvg:part CDATA #IMPLIED kvg:number CDATA #IMPLIED kvg:tradForm CDATA #IMPLIED kvg:radicalForm CDATA #IMPLIED kvg:position CDATA #IMPLIED kvg:radical CDATA #IMPLIED kvg:phon CDATA #IMPLIED >
  <!ATTLIST path xmlns:kvg CDATA #FIXED "http://kanjivg.tagaini.net" kvg:type CDATA #IMPLIED >
  ]>
  <svg xmlns="http://www.w3.org/2000/svg" width="109" height="109" viewBox="0 0 109 109">
<g id="kvg:StrokePaths_0962a" style="fill:none;stroke:#000000;stroke-width:3;stroke-linecap:round;stroke-linejoin:round;">
<g id="kvg:0962a" kvg:element="阪">
	<g id="kvg:0962a-g1" kvg:element="⻖" kvg:variant="true" kvg:original="阜" kvg:position="left" kvg:radical="general">
		<path style="fill:none;stroke:#808080" id="kvg:0962a-s1" kvg:type="㇇" d="M13.62,20.25c1.75,0.64,3.59,0.74,5.37,0.34c4.88-1.09,10.18-2.17,12.17-2.87c3.4-1.2,6.08,1.04,4.45,4.07c-1.34,2.5-4.5,7.97-7.65,13.94"/>
		<path style="fill:none;stroke:#808080" id="kvg:0962a-s2" kvg:type="㇁" d="M27.35,36.5c12.56,8.33,8.02,34.88-0.93,26.5"/>
		<path style="fill:none;stroke:#808080" id="kvg:0962a-s3" kvg:type="㇑" d="M14.62,21.25c0.88,0.88,1.1,1.92,1.1,3.25c0,0.81-0.06,38.88-0.08,58.25c-0.01,5.08-0.01,8.87-0.01,10.37"/>
	</g>
	<g id="kvg:0962a-g2" kvg:element="反" kvg:position="right">
		<g id="kvg:0962a-g3" kvg:element="厂">
			<path style="fill:none;stroke:#808080" id="kvg:0962a-s4" kvg:type="㇐" d="M44.56,24.24c2.51,0.67,5.02,0.63,7.56,0.23c8.38-1.34,16.38-2.96,25.14-4.39c2.76-0.45,5.41-0.71,8.11,0.02"/>
			<path style="fill:none;stroke-width:4;" id="kvg:0962a-s5" kvg:type="㇒" d="M47.37,25.43c0.85,0.85,1.15,1.95,1.09,3.77c-0.96,29.05-5.34,45.93-17.49,57.76"/>
<circle cx="47.37" cy="25.43" r="5" style="fill:red;stroke:red;" />
		</g>
		<g id="kvg:0962a-g4" kvg:element="又">
		</g>
	</g>
</g>
</g></svg>