<?xml version="1.0" encoding="UTF-8"?>
  <!DOCTYPE svg PUBLIC "-//W3C//DTD SVG 1.0//EN" "http://www.w3.org/TR/2001/REC-SVG-20010904/DTD/svg10.dtd" [
  <!ATTLIST g xmlns:kvg CDATA #FIXED "http://kanjivg.tagaini.net" kvg:element CDATA #IMPLIED kvg:variant CDATA #IMPLIED kvg:partial CDATA #IMPLIED kvg:original CDATA #IMPLIED kvg:part CDATA #IMPLIED kvg:number CDATA #IMPLIED kvg:tradForm CDATA #IMPLIED kvg:radicalForm CDATA #IMPLIED kvg:position CDATA #IMPLIED kvg:radical CDATA #IMPLIED kvg:phon CDATA #IMPLIED >
  <!ATTLIST path xmlns:kvg CDATA #FIXED "http://kanjivg.tagaini.net" kvg:type CDATA #IMPLIED >
  ]>
  <svg xmlns="http://www.w3.org/2000/svg" width="109" height="109" viewBox="0 0 109 109">
<g id="kvg:StrokePaths_09632" style="fill:none;stroke:#000000;stroke-width:3;stroke-linecap:round;stroke-linejoin:round;">
<g id="kvg:09632" kvg:element="防">
	<g id="kvg:09632-g1" kvg:element="⻖" kvg:variant="true" kvg:original="阜" kvg:position="left" kvg:radical="general">
		<path style="fill:none;stroke:#808080" id="kvg:09632-s1" kvg:type="㇇" d="M14.87,17.97c1.26,0.66,2.66,0.57,3.91,0.45c4.47-0.42,11.85-1.92,16.35-3c3.85-0.92,5.45,1.01,3.3,4.86C36,24.62,30.5,33.08,28.04,36.06"/>
		<path style="fill:none;stroke:#808080" id="kvg:09632-s2" kvg:type="㇁" d="M28.04,36.06c14.71,11.06,11.08,34.81-0.75,28.19"/>
		<path style="fill:none;stroke:#808080" id="kvg:09632-s3" kvg:type="㇑" d="M16.04,18.78c0.91,0.91,1.25,2.07,1.25,3.24c0,5.24,0.08,44.69,0.04,66.24c-0.01,4.18-0.01,7.51-0.01,9.5"/>
	</g>
	<g id="kvg:09632-g2" kvg:element="方" kvg:position="right" kvg:phon="方">
		<g id="kvg:09632-g3" kvg:element="亠" kvg:position="top">
			<path style="fill:none;stroke-width:4;" id="kvg:09632-s4" kvg:type="㇑a" d="M67.61,12c1,1.01,1.73,2.38,1.73,3.91c0,4.45,0.1,8.84,0.1,12.9"/>
<circle cx="67.61" cy="12" r="5" style="fill:red;stroke:red;" />
		</g>
		<g id="kvg:09632-g4" kvg:position="bottom">
		</g>
	</g>
</g>
</g></svg>