<?xml version="1.0" encoding="UTF-8"?>
  <!DOCTYPE svg PUBLIC "-//W3C//DTD SVG 1.0//EN" "http://www.w3.org/TR/2001/REC-SVG-20010904/DTD/svg10.dtd" [
  <!ATTLIST g xmlns:kvg CDATA #FIXED "http://kanjivg.tagaini.net" kvg:element CDATA #IMPLIED kvg:variant CDATA #IMPLIED kvg:partial CDATA #IMPLIED kvg:original CDATA #IMPLIED kvg:part CDATA #IMPLIED kvg:number CDATA #IMPLIED kvg:tradForm CDATA #IMPLIED kvg:radicalForm CDATA #IMPLIED kvg:position CDATA #IMPLIED kvg:radical CDATA #IMPLIED kvg:phon CDATA #IMPLIED >
  <!ATTLIST path xmlns:kvg CDATA #FIXED "http://kanjivg.tagaini.net" kvg:type CDATA #IMPLIED >
  ]>
  <svg xmlns="http://www.w3.org/2000/svg" width="109" height="109" viewBox="0 0 109 109">
<g id="kvg:StrokePaths_0964d" style="fill:none;stroke:#000000;stroke-width:3;stroke-linecap:round;stroke-linejoin:round;">
<g id="kvg:0964d" kvg:element="降">
	<g id="kvg:0964d-g1" kvg:element="⻖" kvg:variant="true" kvg:original="阜" kvg:position="left" kvg:radical="general">
		<path style="fill:none;stroke:#808080" id="kvg:0964d-s1" kvg:type="㇇" d="M12.5,21c1.62,0.5,3.38,0.62,5.08,0.35c5.02-0.8,10.17-2.23,13.5-3.17c3.02-0.85,4.41,1.31,3.1,3.77c-1.31,2.46-6.89,14.43-9.19,17.95"/>
		<path style="fill:none;stroke:#808080" id="kvg:0964d-s2" kvg:type="㇁" d="M24.99,39.91c13.51,9.47,10.63,35.72-0.17,27.66"/>
		<path style="fill:none;stroke:#808080" id="kvg:0964d-s3" kvg:type="㇑" d="M13.79,21.85c0.93,0.93,1.43,2.27,1.43,3.43c0,0.89,0.31,42.56,0.15,60.96c-0.04,3.95-0.07,6.83-0.11,8"/>
	</g>
	<g id="kvg:0964d-g2" kvg:element="夅" kvg:position="right" kvg:phon="夅">
		<g id="kvg:0964d-g3" kvg:element="夂">
			<path style="fill:none;stroke:#808080" id="kvg:0964d-s4" kvg:type="㇒" d="M55.69,13.25c0.05,0.51,0.1,1.32-0.09,2.05c-1.11,4.33-7.46,13.83-16.15,19.65"/>
			<path style="fill:none;stroke:#808080" id="kvg:0964d-s5" kvg:type="㇇" d="M58.43,16.24c0.94,0.14,1.9,0.08,2.63-0.09c2.81-0.65,8.7-1.85,12.22-2.73c2.41-0.61,3.94,0.62,2.98,2.84c-4.14,9.62-18.64,29.12-35.52,35.73"/>
			<path style="fill:none;stroke-width:4;" id="kvg:0964d-s6" kvg:type="㇏" d="M53.03,25.59c3.41,0.61,24.1,15.26,32.98,20.89c2.47,1.56,5,2.87,7.74,3.9"/>
<circle cx="53.03" cy="25.59" r="5" style="fill:red;stroke:red;" />
		</g>
		<g id="kvg:0964d-g4" kvg:element="㐄">
		</g>
	</g>
</g>
</g></svg>