<?xml version="1.0" encoding="UTF-8"?>
  <!DOCTYPE svg PUBLIC "-//W3C//DTD SVG 1.0//EN" "http://www.w3.org/TR/2001/REC-SVG-20010904/DTD/svg10.dtd" [
  <!ATTLIST g xmlns:kvg CDATA #FIXED "http://kanjivg.tagaini.net" kvg:element CDATA #IMPLIED kvg:variant CDATA #IMPLIED kvg:partial CDATA #IMPLIED kvg:original CDATA #IMPLIED kvg:part CDATA #IMPLIED kvg:number CDATA #IMPLIED kvg:tradForm CDATA #IMPLIED kvg:radicalForm CDATA #IMPLIED kvg:position CDATA #IMPLIED kvg:radical CDATA #IMPLIED kvg:phon CDATA #IMPLIED >
  <!ATTLIST path xmlns:kvg CDATA #FIXED "http://kanjivg.tagaini.net" kvg:type CDATA #IMPLIED >
  ]>
  <svg xmlns="http://www.w3.org/2000/svg" width="109" height="109" viewBox="0 0 109 109">
<g id="kvg:StrokePaths_0965b" style="fill:none;stroke:#000000;stroke-width:3;stroke-linecap:round;stroke-linejoin:round;">
<g id="kvg:0965b" kvg:element="陛">
	<g id="kvg:0965b-g1" kvg:element="⻖" kvg:variant="true" kvg:original="阜" kvg:position="left" kvg:radical="general">
		<path style="fill:none;stroke:#808080" id="kvg:0965b-s1" kvg:type="㇇" d="M17.42,22.11c1.45,0.64,3.12,0.9,4.1,0.73c4.14-0.73,10.3-2.22,12.48-2.95c2.7-0.91,4.14,1.16,2.94,3.27c-1.2,2.11-7.54,12.38-9.64,15.4"/>
		<path style="fill:none;stroke:#808080" id="kvg:0965b-s2" kvg:type="㇁" d="M27.3,38.57C41.38,47.55,39,70.5,29.55,63.05"/>
		<path style="fill:none;stroke:#808080" id="kvg:0965b-s3" kvg:type="㇑" d="M18.87,23c0.88,0.88,1.21,2.38,1.21,3.75c0,3.96,0.02,46,0.03,63.38c0,3.49,0,5.96,0,6.88"/>
	</g>
	<g id="kvg:0965b-g2" kvg:position="right" kvg:phon="比土">
		<g id="kvg:0965b-g3" kvg:element="比" kvg:position="top">
			<g id="kvg:0965b-g4" kvg:position="left">
				<path style="fill:none;stroke:#808080" id="kvg:0965b-s4" kvg:type="㇐b" d="M50.52,30.5c3.05-0.75,8.81-2.5,12.2-3.25c1-0.22,2.28-0.25,2.96,0"/>
				<path style="fill:none;stroke:#808080" id="kvg:0965b-s5" kvg:type="㇙" d="M48,14.89c0.8,0.8,1.26,2.68,1.26,4.02c0,1.25,0.03,20.96,0.04,27.09c0,3.42,0.33,5.27,4.35,3.03c4.84-2.69,7.23-3.78,11.11-5.78"/>
			</g>
			<g id="kvg:0965b-g5" kvg:element="匕" kvg:position="right">
				<path style="fill:none;stroke-width:4;" id="kvg:0965b-s6" kvg:type="㇒" d="M89.38,20.4c0,1.1-0.76,2.16-1.23,2.62c-3.02,2.92-7.23,6.09-14.29,9.66"/>
<circle cx="89.38" cy="20.4" r="5" style="fill:red;stroke:red;" />
			</g>
		</g>
		<g id="kvg:0965b-g6" kvg:element="土" kvg:position="bottom">
		</g>
	</g>
</g>
</g></svg>