<?xml version="1.0" encoding="UTF-8"?>
  <!DOCTYPE svg PUBLIC "-//W3C//DTD SVG 1.0//EN" "http://www.w3.org/TR/2001/REC-SVG-20010904/DTD/svg10.dtd" [
  <!ATTLIST g xmlns:kvg CDATA #FIXED "http://kanjivg.tagaini.net" kvg:element CDATA #IMPLIED kvg:variant CDATA #IMPLIED kvg:partial CDATA #IMPLIED kvg:original CDATA #IMPLIED kvg:part CDATA #IMPLIED kvg:number CDATA #IMPLIED kvg:tradForm CDATA #IMPLIED kvg:radicalForm CDATA #IMPLIED kvg:position CDATA #IMPLIED kvg:radical CDATA #IMPLIED kvg:phon CDATA #IMPLIED >
  <!ATTLIST path xmlns:kvg CDATA #FIXED "http://kanjivg.tagaini.net" kvg:type CDATA #IMPLIED >
  ]>
  <svg xmlns="http://www.w3.org/2000/svg" width="109" height="109" viewBox="0 0 109 109">
<g id="kvg:StrokePaths_09650" style="fill:none;stroke:#000000;stroke-width:3;stroke-linecap:round;stroke-linejoin:round;">
<g id="kvg:09650" kvg:element="限">
	<g id="kvg:09650-g1" kvg:element="⻖" kvg:variant="true" kvg:original="阜" kvg:position="left" kvg:radical="general">
		<path style="fill:none;stroke:#808080" id="kvg:09650-s1" kvg:type="㇇" d="M15.25,17.5c0.9,0.22,1.92,0.48,3,0.33c6.5-0.95,15.35-2.8,17.92-3.66c3-1,5.5,1.5,4.17,3.83C39,20.33,31.83,33.17,29.5,36.5"/>
		<path style="fill:none;stroke:#808080" id="kvg:09650-s2" kvg:type="㇁" d="M29.5,36.5c13,11.25,12.38,32.25,1.17,26"/>
		<path style="fill:none;stroke:#808080" id="kvg:09650-s3" kvg:type="㇑" d="M17.87,18.5c0.5,0.5,0.96,1.25,0.96,2c0,0.88,0.02,49.67,0.03,68.25c0,2.95,0,5.14,0,6.25"/>
	</g>
	<g id="kvg:09650-g2" kvg:element="艮" kvg:position="right" kvg:phon="艮">
		<path style="fill:none;stroke-width:4;" id="kvg:09650-s4" kvg:type="㇕" d="M49.95,17.31c1.8,0.94,5.05,0.83,6.55,0.55c6.21-1.17,14.63-2.73,19.75-3.39c3.47-0.45,5.54,0.58,5.24,4.67c-0.39,5.4-1.71,14.77-2.64,21.48c-0.2,1.46-0.38,2.79-0.53,3.93"/>
<circle cx="49.95" cy="17.31" r="5" style="fill:red;stroke:red;" />
	</g>
</g>
</g></svg>