<?xml version="1.0" encoding="UTF-8"?>
  <!DOCTYPE svg PUBLIC "-//W3C//DTD SVG 1.0//EN" "http://www.w3.org/TR/2001/REC-SVG-20010904/DTD/svg10.dtd" [
  <!ATTLIST g xmlns:kvg CDATA #FIXED "http://kanjivg.tagaini.net" kvg:element CDATA #IMPLIED kvg:variant CDATA #IMPLIED kvg:partial CDATA #IMPLIED kvg:original CDATA #IMPLIED kvg:part CDATA #IMPLIED kvg:number CDATA #IMPLIED kvg:tradForm CDATA #IMPLIED kvg:radicalForm CDATA #IMPLIED kvg:position CDATA #IMPLIED kvg:radical CDATA #IMPLIED kvg:phon CDATA #IMPLIED >
  <!ATTLIST path xmlns:kvg CDATA #FIXED "http://kanjivg.tagaini.net" kvg:type CDATA #IMPLIED >
  ]>
  <svg xmlns="http://www.w3.org/2000/svg" width="109" height="109" viewBox="0 0 109 109">
<g id="kvg:StrokePaths_09662" style="fill:none;stroke:#000000;stroke-width:3;stroke-linecap:round;stroke-linejoin:round;">
<g id="kvg:09662" kvg:element="院">
	<g id="kvg:09662-g1" kvg:element="⻖" kvg:variant="true" kvg:original="阜" kvg:position="left" kvg:radical="general">
		<path style="fill:none;stroke:#808080" id="kvg:09662-s1" kvg:type="㇇" d="M12.17,21.67c1.12,0.14,2.26,0.34,3.33,0.13c6.75-1.3,11.37-2.5,13.92-3.13c3.71-0.92,5.09,1.67,3.92,4.08C31.75,26,26.33,36.17,24,39.5"/>
		<path style="fill:none;stroke:#808080" id="kvg:09662-s2" kvg:type="㇁" d="M24,39.5c13.33,8.33,12.25,36,1.67,28.5"/>
		<path style="fill:none;stroke:#808080" id="kvg:09662-s3" kvg:type="㇑" d="M13.37,22c0.88,0.88,1.46,2.12,1.46,3.25c0,0.88,0.05,47.33-0.13,64.25c-0.03,2.83-0.06,4.86-0.09,5.75"/>
	</g>
	<g id="kvg:09662-g2" kvg:element="完" kvg:position="right" kvg:phon="完">
		<g id="kvg:09662-g3" kvg:element="宀">
			<path style="fill:none;stroke-width:4;" id="kvg:09662-s4" kvg:type="㇑a" d="M62.28,13.92c0.96,0.96,1.44,2.38,1.42,3.5c-0.06,3.51-0.06,5.73-0.06,8.93"/>
<circle cx="62.28" cy="13.92" r="5" style="fill:red;stroke:red;" />
			<g id="kvg:09662-g4" kvg:element="冖">
			</g>
		</g>
		<g id="kvg:09662-g5" kvg:element="元">
			<g id="kvg:09662-g6" kvg:element="二" kvg:position="top">
			</g>
			<g id="kvg:09662-g7" kvg:element="儿" kvg:original="八" kvg:position="bottom">
				<g id="kvg:09662-g8" kvg:element="丿">
				</g>
			</g>
		</g>
	</g>
</g>
</g></svg>