<?xml version="1.0" encoding="UTF-8"?>
  <!DOCTYPE svg PUBLIC "-//W3C//DTD SVG 1.0//EN" "http://www.w3.org/TR/2001/REC-SVG-20010904/DTD/svg10.dtd" [
  <!ATTLIST g xmlns:kvg CDATA #FIXED "http://kanjivg.tagaini.net" kvg:element CDATA #IMPLIED kvg:variant CDATA #IMPLIED kvg:partial CDATA #IMPLIED kvg:original CDATA #IMPLIED kvg:part CDATA #IMPLIED kvg:number CDATA #IMPLIED kvg:tradForm CDATA #IMPLIED kvg:radicalForm CDATA #IMPLIED kvg:position CDATA #IMPLIED kvg:radical CDATA #IMPLIED kvg:phon CDATA #IMPLIED >
  <!ATTLIST path xmlns:kvg CDATA #FIXED "http://kanjivg.tagaini.net" kvg:type CDATA #IMPLIED >
  ]>
  <svg xmlns="http://www.w3.org/2000/svg" width="109" height="109" viewBox="0 0 109 109">
<g id="kvg:StrokePaths_0967d" style="fill:none;stroke:#000000;stroke-width:3;stroke-linecap:round;stroke-linejoin:round;">
<g id="kvg:0967d" kvg:element="陽">
	<g id="kvg:0967d-g1" kvg:element="⻖" kvg:variant="true" kvg:original="阜" kvg:position="left" kvg:radical="general">
		<path style="fill:none;stroke:#808080" id="kvg:0967d-s1" kvg:type="㇇" d="M15.92,18.17c1.46,0.71,3.08,0.72,3.84,0.62c5.12-0.66,9.74-1.41,12.91-2.12c3.09-0.69,4.27,1.63,3.17,4.08C34.38,24,30.5,32.38,28,37"/>
		<path style="fill:none;stroke:#808080" id="kvg:0967d-s2" kvg:type="㇁" d="M27.75,37.5c14.12,9.75,9.12,35.5-0.58,26.75"/>
		<path style="fill:none;stroke:#808080" id="kvg:0967d-s3" kvg:type="㇑" d="M17.12,18.75c0.63,0.63,1.21,1.73,1.21,2.75c0,2.84,0.02,48.88,0.03,67.12c0,3.44,0,5.88,0,6.88"/>
	</g>
	<g id="kvg:0967d-g2" kvg:element="昜" kvg:position="right" kvg:phon="昜">
		<g id="kvg:0967d-g3" kvg:element="旦" kvg:position="top">
			<g id="kvg:0967d-g4" kvg:element="日">
				<path style="fill:none;stroke:#808080" id="kvg:0967d-s4" kvg:type="㇑" d="M50.82,15.51c0.84,0.84,1.43,1.62,1.56,2.83c0.57,5.28,1.27,10.88,2.38,18.91c0.1,0.77,0.21,1.56,0.33,2.37"/>
				<path style="fill:none;stroke-width:4;" id="kvg:0967d-s5" kvg:type="㇕a" d="M52.57,16.66c4.86-0.65,18.44-2.69,26.08-3.46c3.1-0.31,4.54,1.08,4.15,3.69c-0.92,6.11-2.27,12.97-3.63,18.15c-0.24,0.92-0.47,1.78-0.69,2.56"/>
<circle cx="52.57" cy="16.66" r="5" style="fill:red;stroke:red;" />
			</g>
			<g id="kvg:0967d-g5" kvg:element="一">
			</g>
		</g>
		<g id="kvg:0967d-g6" kvg:element="勿" kvg:position="bottom">
			<g id="kvg:0967d-g7" kvg:element="勹">
			</g>
		</g>
	</g>
</g>
</g></svg>