<?xml version="1.0" encoding="UTF-8"?>
  <!DOCTYPE svg PUBLIC "-//W3C//DTD SVG 1.0//EN" "http://www.w3.org/TR/2001/REC-SVG-20010904/DTD/svg10.dtd" [
  <!ATTLIST g xmlns:kvg CDATA #FIXED "http://kanjivg.tagaini.net" kvg:element CDATA #IMPLIED kvg:variant CDATA #IMPLIED kvg:partial CDATA #IMPLIED kvg:original CDATA #IMPLIED kvg:part CDATA #IMPLIED kvg:number CDATA #IMPLIED kvg:tradForm CDATA #IMPLIED kvg:radicalForm CDATA #IMPLIED kvg:position CDATA #IMPLIED kvg:radical CDATA #IMPLIED kvg:phon CDATA #IMPLIED >
  <!ATTLIST path xmlns:kvg CDATA #FIXED "http://kanjivg.tagaini.net" kvg:type CDATA #IMPLIED >
  ]>
  <svg xmlns="http://www.w3.org/2000/svg" width="109" height="109" viewBox="0 0 109 109">
<g id="kvg:StrokePaths_0967a" style="fill:none;stroke:#000000;stroke-width:3;stroke-linecap:round;stroke-linejoin:round;">
<g id="kvg:0967a" kvg:element="険">
	<g id="kvg:0967a-g1" kvg:element="⻖" kvg:variant="true" kvg:original="阜" kvg:position="left" kvg:radical="general">
		<path style="fill:none;stroke:#808080" id="kvg:0967a-s1" kvg:type="㇇" d="M13.25,19.75c0.88,0.38,2.1,0.6,3.14,0.36c5.86-1.36,11.75-2.93,14.27-3.71c3-0.93,4.6,1.35,3.42,3.6c-1.71,3.25-5.71,10.87-8.58,15.58"/>
		<path style="fill:none;stroke:#808080" id="kvg:0967a-s2" kvg:type="㇁" d="M25.5,35.58c14.25,7.17,11.88,32.3,0.67,26"/>
		<path style="fill:none;stroke:#808080" id="kvg:0967a-s3" kvg:type="㇑" d="M15.37,20.37c0.69,0.69,0.96,1.75,0.96,2.53c0,0.81,0.02,47.42,0.03,66.35c0,3.31,0,5.77,0,7"/>
	</g>
	<g id="kvg:0967a-g2" kvg:element="㑒" kvg:original="僉" kvg:partial="true" kvg:position="right" kvg:phon="僉V">
		<g id="kvg:0967a-g3" kvg:element="人" kvg:position="top">
			<path style="fill:none;stroke:#808080" id="kvg:0967a-s4" kvg:type="㇒" d="M62.87,10.75c0.07,0.78,0.08,1.83-0.38,2.88C59.75,19.82,53.25,33,40.96,44.6"/>
			<path style="fill:none;stroke-width:4;" id="kvg:0967a-s5" kvg:type="㇏" d="M61.78,16.3c4.85,3.58,18.01,15.32,24.71,21.22c2.15,1.89,4.21,3.55,6.81,4.79"/>
<circle cx="61.78" cy="16.3" r="5" style="fill:red;stroke:red;" />
		</g>
		<g id="kvg:0967a-g4" kvg:position="bottom">
			<g id="kvg:0967a-g5" kvg:element="一">
			</g>
			<g id="kvg:0967a-g6" kvg:element="口">
			</g>
			<g id="kvg:0967a-g7" kvg:element="人">
			</g>
		</g>
	</g>
</g>
</g></svg>