<?xml version="1.0" encoding="UTF-8"?>
  <!DOCTYPE svg PUBLIC "-//W3C//DTD SVG 1.0//EN" "http://www.w3.org/TR/2001/REC-SVG-20010904/DTD/svg10.dtd" [
  <!ATTLIST g xmlns:kvg CDATA #FIXED "http://kanjivg.tagaini.net" kvg:element CDATA #IMPLIED kvg:variant CDATA #IMPLIED kvg:partial CDATA #IMPLIED kvg:original CDATA #IMPLIED kvg:part CDATA #IMPLIED kvg:number CDATA #IMPLIED kvg:tradForm CDATA #IMPLIED kvg:radicalForm CDATA #IMPLIED kvg:position CDATA #IMPLIED kvg:radical CDATA #IMPLIED kvg:phon CDATA #IMPLIED >
  <!ATTLIST path xmlns:kvg CDATA #FIXED "http://kanjivg.tagaini.net" kvg:type CDATA #IMPLIED >
  ]>
  <svg xmlns="http://www.w3.org/2000/svg" width="109" height="109" viewBox="0 0 109 109">
<g id="kvg:StrokePaths_0968e" style="fill:none;stroke:#000000;stroke-width:3;stroke-linecap:round;stroke-linejoin:round;">
<g id="kvg:0968e" kvg:element="階">
	<g id="kvg:0968e-g1" kvg:element="⻖" kvg:variant="true" kvg:original="阜" kvg:position="left" kvg:radical="general">
		<path style="fill:none;stroke:#808080" id="kvg:0968e-s1" kvg:type="㇇" d="M16.75,17c1.25,0.75,2.44,1.22,3.52,1.11c3.61-0.36,11.95-2.63,14.4-3.44c3-1,4.71,0.96,2.92,4.08C36.25,21.08,29.33,31.67,27,35"/>
		<path style="fill:none;stroke:#808080" id="kvg:0968e-s2" kvg:type="㇁" d="M27,35c13.38,10.12,11.5,35.75,0.67,29"/>
		<path style="fill:none;stroke:#808080" id="kvg:0968e-s3" kvg:type="㇑" d="M17.62,17.5c0.81,0.81,0.96,2.12,0.96,3.25c0,0.9,0.05,53.46-0.14,70.25c-0.03,2.33-0.05,3.99-0.08,4.75"/>
	</g>
	<g id="kvg:0968e-g2" kvg:element="皆" kvg:position="right" kvg:phon="皆">
		<g id="kvg:0968e-g3" kvg:element="比" kvg:position="top">
			<g id="kvg:0968e-g4" kvg:position="left">
				<path style="fill:none;stroke-width:4;" id="kvg:0968e-s4" kvg:type="㇐b" d="M49.25,30c3.25-0.75,7.91-1.73,10-2.25c1.5-0.38,3-0.5,3.75-0.25"/>
<circle cx="49.25" cy="30" r="5" style="fill:red;stroke:red;" />
			</g>
			<g id="kvg:0968e-g5" kvg:element="匕" kvg:position="right">
			</g>
		</g>
		<g id="kvg:0968e-g6" kvg:element="白" kvg:position="bottom">
			<g id="kvg:0968e-g7" kvg:position="top">
			</g>
			<g id="kvg:0968e-g8" kvg:element="日" kvg:position="bottom">
			</g>
		</g>
	</g>
</g>
</g></svg>