<?xml version="1.0" encoding="UTF-8"?>
  <!DOCTYPE svg PUBLIC "-//W3C//DTD SVG 1.0//EN" "http://www.w3.org/TR/2001/REC-SVG-20010904/DTD/svg10.dtd" [
  <!ATTLIST g xmlns:kvg CDATA #FIXED "http://kanjivg.tagaini.net" kvg:element CDATA #IMPLIED kvg:variant CDATA #IMPLIED kvg:partial CDATA #IMPLIED kvg:original CDATA #IMPLIED kvg:part CDATA #IMPLIED kvg:number CDATA #IMPLIED kvg:tradForm CDATA #IMPLIED kvg:radicalForm CDATA #IMPLIED kvg:position CDATA #IMPLIED kvg:radical CDATA #IMPLIED kvg:phon CDATA #IMPLIED >
  <!ATTLIST path xmlns:kvg CDATA #FIXED "http://kanjivg.tagaini.net" kvg:type CDATA #IMPLIED >
  ]>
  <svg xmlns="http://www.w3.org/2000/svg" width="109" height="109" viewBox="0 0 109 109">
<g id="kvg:StrokePaths_0968a" style="fill:none;stroke:#000000;stroke-width:3;stroke-linecap:round;stroke-linejoin:round;">
<g id="kvg:0968a" kvg:element="隊">
	<g id="kvg:0968a-g1" kvg:element="⻖" kvg:variant="true" kvg:original="阜" kvg:position="left" kvg:radical="general">
		<path style="fill:none;stroke:#808080" id="kvg:0968a-s1" kvg:type="㇇" d="M16.62,23.62c0.59,0.3,2.23,0.73,2.91,0.62c5.22-0.87,10.26-1.95,12.88-2.83c3.71-1.24,5.4,1.03,3.67,4.58c-1.46,3-7.25,13.67-9.58,17"/>
		<path style="fill:none;stroke:#808080" id="kvg:0968a-s2" kvg:type="㇁" d="M26.5,43c13.33,8.33,12.75,34.5,0.75,27"/>
		<path style="fill:none;stroke:#808080" id="kvg:0968a-s3" kvg:type="㇑" d="M18.62,25c0.88,0.88,1.21,2.12,1.21,3.5c0,0.87,0.02,39.79,0.03,58c0,3.29,0,5.91,0,7.5"/>
	</g>
	<g id="kvg:0968a-g2" kvg:position="right" kvg:phon="1+4+豕">
		<path style="fill:none;stroke:#808080" id="kvg:0968a-s4" kvg:type="㇔" d="M48.44,17.33c2.24,1.87,5.79,7.67,6.36,10.58"/>
		<path style="fill:none;stroke-width:4;" id="kvg:0968a-s5" kvg:type="㇒" d="M76.23,13.18c0.03,0.41,0.14,1.07-0.06,1.63c-1.18,3.31-3.8,8.68-7.89,14.07"/>
<circle cx="76.23" cy="13.18" r="5" style="fill:red;stroke:red;" />
		<g id="kvg:0968a-g3" kvg:element="豕">
		</g>
	</g>
</g>
</g></svg>