<?xml version="1.0" encoding="UTF-8"?>
  <!DOCTYPE svg PUBLIC "-//W3C//DTD SVG 1.0//EN" "http://www.w3.org/TR/2001/REC-SVG-20010904/DTD/svg10.dtd" [
  <!ATTLIST g xmlns:kvg CDATA #FIXED "http://kanjivg.tagaini.net" kvg:element CDATA #IMPLIED kvg:variant CDATA #IMPLIED kvg:partial CDATA #IMPLIED kvg:original CDATA #IMPLIED kvg:part CDATA #IMPLIED kvg:number CDATA #IMPLIED kvg:tradForm CDATA #IMPLIED kvg:radicalForm CDATA #IMPLIED kvg:position CDATA #IMPLIED kvg:radical CDATA #IMPLIED kvg:phon CDATA #IMPLIED >
  <!ATTLIST path xmlns:kvg CDATA #FIXED "http://kanjivg.tagaini.net" kvg:type CDATA #IMPLIED >
  ]>
  <svg xmlns="http://www.w3.org/2000/svg" width="109" height="109" viewBox="0 0 109 109">
<g id="kvg:StrokePaths_0969c" style="fill:none;stroke:#000000;stroke-width:3;stroke-linecap:round;stroke-linejoin:round;">
<g id="kvg:0969c" kvg:element="障">
	<g id="kvg:0969c-g1" kvg:element="⻖" kvg:variant="true" kvg:original="阜" kvg:position="left" kvg:radical="general">
		<path style="fill:none;stroke:#808080" id="kvg:0969c-s1" kvg:type="㇇" d="M15.42,20.17c1.08,0.33,2.47,0.4,3.6,0.15c5.49-1.19,11.25-2.85,13.65-3.65c3-1,5,1.5,3.67,3.83C35,22.83,30.25,33,27.5,38.25"/>
		<path style="fill:none;stroke:#808080" id="kvg:0969c-s2" kvg:type="㇁" d="M27.5,38.25c13.33,8.33,9.5,36.25-0.83,27.5"/>
		<path style="fill:none;stroke:#808080" id="kvg:0969c-s3" kvg:type="㇑" d="M16.62,20.75c0.75,0.75,1.21,1.98,1.21,3c0,5.25-0.12,50-0.12,64.5c0,2.97-0.06,5.09-0.09,6"/>
	</g>
	<g id="kvg:0969c-g2" kvg:element="章" kvg:position="right" kvg:phon="章">
		<g id="kvg:0969c-g3" kvg:element="立" kvg:position="top">
			<g id="kvg:0969c-g4" kvg:element="亠" kvg:position="top">
				<path style="fill:none;stroke:#808080" id="kvg:0969c-s4" kvg:type="㇑a" d="M64.25,10.5c0.75,0.75,1.21,2.02,1.21,3.57s0,1.51,0,6.06"/>
				<path style="fill:none;stroke:#808080" id="kvg:0969c-s5" kvg:type="㇐" d="M45.54,22.89c2.46,0.36,4.46,0.45,6.22,0.23c7.77-0.94,20.14-2.45,30.25-3.24c2.34-0.18,4.88-0.17,7.19,0.29"/>
			</g>
			<g id="kvg:0969c-g5" kvg:position="bottom">
				<path style="fill:none;stroke-width:4;" id="kvg:0969c-s6" kvg:type="㇔" d="M53.25,26.12c2.96,3.67,4.57,7.6,4.84,10.02"/>
<circle cx="53.25" cy="26.12" r="5" style="fill:red;stroke:red;" />
			</g>
		</g>
		<g id="kvg:0969c-g6" kvg:element="早" kvg:position="bottom">
			<g id="kvg:0969c-g7" kvg:element="日">
			</g>
			<g id="kvg:0969c-g8" kvg:element="十">
			</g>
		</g>
	</g>
</g>
</g></svg>