<?xml version="1.0" encoding="UTF-8"?>
  <!DOCTYPE svg PUBLIC "-//W3C//DTD SVG 1.0//EN" "http://www.w3.org/TR/2001/REC-SVG-20010904/DTD/svg10.dtd" [
  <!ATTLIST g xmlns:kvg CDATA #FIXED "http://kanjivg.tagaini.net" kvg:element CDATA #IMPLIED kvg:variant CDATA #IMPLIED kvg:partial CDATA #IMPLIED kvg:original CDATA #IMPLIED kvg:part CDATA #IMPLIED kvg:number CDATA #IMPLIED kvg:tradForm CDATA #IMPLIED kvg:radicalForm CDATA #IMPLIED kvg:position CDATA #IMPLIED kvg:radical CDATA #IMPLIED kvg:phon CDATA #IMPLIED >
  <!ATTLIST path xmlns:kvg CDATA #FIXED "http://kanjivg.tagaini.net" kvg:type CDATA #IMPLIED >
  ]>
  <svg xmlns="http://www.w3.org/2000/svg" width="109" height="109" viewBox="0 0 109 109">
<g id="kvg:StrokePaths_0969b" style="fill:none;stroke:#000000;stroke-width:3;stroke-linecap:round;stroke-linejoin:round;">
<g id="kvg:0969b" kvg:element="際">
	<g id="kvg:0969b-g1" kvg:element="⻖" kvg:variant="true" kvg:original="阜" kvg:position="left" kvg:radical="general">
		<path style="fill:none;stroke:#808080" id="kvg:0969b-s1" kvg:type="㇇" d="M 13.17,17.17 c 1.08,0.33 2.39,0.38 3.6,0.19 5.26,-0.81 10.21,-2.13 12.65,-2.94 3,-1 4.53,1.14 3.42,3.58 -1.58,3.5 -6.5,13.17 -8.83,16.5"/>
		<path style="fill:none;stroke:#808080" id="kvg:0969b-s2" kvg:type="㇁" d="M 24,34.5 c 11.75,10.5 9,32.75 -1.83,24"/>
		<path style="fill:none;stroke:#808080" id="kvg:0969b-s3" kvg:type="㇑" d="M 14.12,17.75 c 0.75,0.75 1.21,1.75 1.21,3 0,0.87 -0.12,48.62 -0.12,67.25 0,3.26 -0.06,5.57 -0.1,6.5"/>
	</g>
	<g id="kvg:0969b-g2" kvg:element="祭" kvg:position="right" kvg:phon="祭">
		<g id="kvg:0969b-g3" kvg:position="top">
			<g id="kvg:0969b-g4" kvg:element="月">
				<path style="fill:none;stroke:#808080" id="kvg:0969b-s4" kvg:type="㇒" d="M 46.15,13.25 c 0.47,1.25 0.21,2.75 -0.36,4 -2.52,5.5 -7.79,12.12 -10.54,15"/>
				<path style="fill:none;stroke:#808080" id="kvg:0969b-s5" kvg:type="㇇a" d="M 49.26,16.1 c 2.75,-0.35 8.05,-1.71 10.04,-2.1 2.52,-0.5 3.71,1.09 2.97,3.5 -3.52,11.38 -13.02,25.25 -24.05,32.75"/>
				<path style="fill:none;stroke-width:4;" id="kvg:0969b-s6" kvg:type="㇔/㇐" d="M 46.38,23.88 c 1,0.43 4.99,3.03 6.99,5.62"/>
<circle cx="46.38" cy="23.88" r="5" style="fill:red;stroke:red;" />
			</g>
		</g>
		<g id="kvg:0969b-g5" kvg:element="示" kvg:position="bottom">
		</g>
	</g>
</g>
</g></svg>