<?xml version="1.0" encoding="UTF-8"?>
  <!DOCTYPE svg PUBLIC "-//W3C//DTD SVG 1.0//EN" "http://www.w3.org/TR/2001/REC-SVG-20010904/DTD/svg10.dtd" [
  <!ATTLIST g xmlns:kvg CDATA #FIXED "http://kanjivg.tagaini.net" kvg:element CDATA #IMPLIED kvg:variant CDATA #IMPLIED kvg:partial CDATA #IMPLIED kvg:original CDATA #IMPLIED kvg:part CDATA #IMPLIED kvg:number CDATA #IMPLIED kvg:tradForm CDATA #IMPLIED kvg:radicalForm CDATA #IMPLIED kvg:position CDATA #IMPLIED kvg:radical CDATA #IMPLIED kvg:phon CDATA #IMPLIED >
  <!ATTLIST path xmlns:kvg CDATA #FIXED "http://kanjivg.tagaini.net" kvg:type CDATA #IMPLIED >
  ]>
  <svg xmlns="http://www.w3.org/2000/svg" width="109" height="109" viewBox="0 0 109 109">
<g id="kvg:StrokePaths_096c6" style="fill:none;stroke:#000000;stroke-width:3;stroke-linecap:round;stroke-linejoin:round;">
<g id="kvg:096c6" kvg:element="集">
	<g id="kvg:096c6-g1" kvg:element="隹" kvg:position="top" kvg:radical="general">
		<g id="kvg:096c6-g2" kvg:element="亻" kvg:variant="true" kvg:original="人">
			<path style="fill:none;stroke:#808080" id="kvg:096c6-s1" kvg:type="㇒" d="M38.12,10c0.17,1.3-0.05,3.01-0.61,4.12c-3.56,7.11-8.08,13.13-16.24,21.79"/>
			<path style="fill:none;stroke:#808080" id="kvg:096c6-s2" kvg:type="㇑" d="M32.52,24.58c0.76,0.76,1.25,1.67,1.25,3.05c0,6.52,0.13,20.5,0.19,28.75c0.02,2.37,0.03,4.27,0.03,5.38"/>
		</g>
		<path style="fill:none;stroke:#808080" id="kvg:096c6-s3" kvg:type="㇒" d="M58.54,8.75c0.07,0.97-0.07,1.9-0.35,2.82c-1.14,3.72-2.61,6.73-5.17,11.35"/>
		<path style="fill:none;stroke:#808080" id="kvg:096c6-s4" kvg:type="㇐b" d="M34.41,25.41c6.53-0.58,29.58-2.93,40.74-3.94c2.79-0.25,4.77-0.44,5.47-0.52"/>
		<path style="fill:none;stroke:#808080" id="kvg:096c6-s5" kvg:type="㇑a" d="M52.74,25.16c1.3,1.3,1.46,2.96,1.46,4.41c0,4.97,0.06,17.68,0.06,25.57"/>
		<path style="fill:none;stroke:#808080" id="kvg:096c6-s6" kvg:type="㇐b" d="M34.86,36.09c6.06-0.47,26.31-2.11,36.27-2.95c2.7-0.23,4.64-0.39,5.35-0.46"/>
		<path style="fill:none;stroke:#808080" id="kvg:096c6-s7" kvg:type="㇐b" d="M34.93,46.67c6.7-0.42,27.83-2.21,37.32-2.97c2.01-0.16,3.46-0.28,4.07-0.33"/>
		<path style="fill:none;stroke:#808080" id="kvg:096c6-s8" kvg:type="㇐b" d="M35.07,57.56c6.59-0.58,32.53-2.41,44.08-3.3c2.74-0.21,4.67-0.37,5.34-0.44"/>
	</g>
	<g id="kvg:096c6-g3" kvg:element="木" kvg:position="bottom">
		<path style="fill:none;stroke-width:4;" id="kvg:096c6-s9" kvg:type="㇐" d="M14.25,71.5c3.25,0.62,7.57,0.46,10.89,0.16C43.62,70,67,68.25,85.36,67.56c2.87-0.11,6.31-0.04,9.14,0.44"/>
<circle cx="14.25" cy="71.5" r="5" style="fill:red;stroke:red;" />
	</g>
</g>
</g></svg>