<?xml version="1.0" encoding="UTF-8"?>
  <!DOCTYPE svg PUBLIC "-//W3C//DTD SVG 1.0//EN" "http://www.w3.org/TR/2001/REC-SVG-20010904/DTD/svg10.dtd" [
  <!ATTLIST g xmlns:kvg CDATA #FIXED "http://kanjivg.tagaini.net" kvg:element CDATA #IMPLIED kvg:variant CDATA #IMPLIED kvg:partial CDATA #IMPLIED kvg:original CDATA #IMPLIED kvg:part CDATA #IMPLIED kvg:number CDATA #IMPLIED kvg:tradForm CDATA #IMPLIED kvg:radicalForm CDATA #IMPLIED kvg:position CDATA #IMPLIED kvg:radical CDATA #IMPLIED kvg:phon CDATA #IMPLIED >
  <!ATTLIST path xmlns:kvg CDATA #FIXED "http://kanjivg.tagaini.net" kvg:type CDATA #IMPLIED >
  ]>
  <svg xmlns="http://www.w3.org/2000/svg" width="109" height="109" viewBox="0 0 109 109">
<g id="kvg:StrokePaths_096d1" style="fill:none;stroke:#000000;stroke-width:3;stroke-linecap:round;stroke-linejoin:round;">
<g id="kvg:096d1" kvg:element="雑">
	<g id="kvg:096d1-g1" kvg:position="left">
		<g id="kvg:096d1-g2" kvg:element="九" kvg:position="top">
			<path style="fill:none;stroke:#808080" id="kvg:096d1-s1" kvg:type="㇒" d="M29.79,14.38c0.71,1,0.87,2.61,0.74,3.51c-2.66,17.87-7.91,27.37-16.66,36.51"/>
			<g id="kvg:096d1-g3" kvg:element="乙">
				<path style="fill:none;stroke:#808080" id="kvg:096d1-s2" kvg:type="㇈" d="M15.19,30.52c1.44,0.48,3.35,0.38,4.58,0.03c4.99-1.42,19.16-5.52,19.61-5.55c1.2-0.06,2.4,0.46,2.03,1.79c-0.54,1.97-2.29,8.13-2.85,13.01c-0.81,7.06,0.62,8.12,4.46,8.12c5.48,0,7.09-0.43,7.22-5.21"/>
			</g>
		</g>
		<g id="kvg:096d1-g4" kvg:element="木" kvg:variant="true" kvg:position="bottom" kvg:phon="集1">
			<path style="fill:none;stroke:#808080" id="kvg:096d1-s3" kvg:type="㇐" d="M12.28,62.71c1.85,0.54,4.95,0.4,6.35,0.26c6.03-0.59,18.08-1.96,25.12-2.83c1.9-0.24,4.01-0.52,6.02-0.28"/>
			<path style="fill:none;stroke:#808080" id="kvg:096d1-s4" kvg:type="㇑" d="M31.49,50.25c0.94,0.94,1.54,2.62,1.54,3.83c0,0.58-0.02,25.97-0.14,38.17c-0.03,2.84-0.06,4.92-0.08,5.75"/>
			<path style="fill:none;stroke:#808080" id="kvg:096d1-s5" kvg:type="㇒" d="M31.94,63.28c0,1.47-0.55,3.54-1.32,4.74c-4.99,7.73-10.52,13.94-20.51,22.32"/>
			<path style="fill:none;stroke:#808080" id="kvg:096d1-s6" kvg:type="㇔/㇏" d="M37.22,69.15c3.38,1.63,8.06,7.22,10.91,10.39"/>
		</g>
	</g>
	<g id="kvg:096d1-g5" kvg:element="隹" kvg:position="right" kvg:radical="general" kvg:phon="集2">
		<g id="kvg:096d1-g6" kvg:element="亻" kvg:variant="true" kvg:original="人">
			<path style="fill:none;stroke-width:4;" id="kvg:096d1-s7" kvg:type="㇒" d="M65.35,17.27c0.14,1.46-0.04,3.34-0.5,4.55c-2.93,7.73-5.76,13.82-12.47,23.05"/>
<circle cx="65.35" cy="17.27" r="5" style="fill:red;stroke:red;" />
		</g>
	</g>
</g>
</g></svg>