<?xml version="1.0" encoding="UTF-8"?>
  <!DOCTYPE svg PUBLIC "-//W3C//DTD SVG 1.0//EN" "http://www.w3.org/TR/2001/REC-SVG-20010904/DTD/svg10.dtd" [
  <!ATTLIST g xmlns:kvg CDATA #FIXED "http://kanjivg.tagaini.net" kvg:element CDATA #IMPLIED kvg:variant CDATA #IMPLIED kvg:partial CDATA #IMPLIED kvg:original CDATA #IMPLIED kvg:part CDATA #IMPLIED kvg:number CDATA #IMPLIED kvg:tradForm CDATA #IMPLIED kvg:radicalForm CDATA #IMPLIED kvg:position CDATA #IMPLIED kvg:radical CDATA #IMPLIED kvg:phon CDATA #IMPLIED >
  <!ATTLIST path xmlns:kvg CDATA #FIXED "http://kanjivg.tagaini.net" kvg:type CDATA #IMPLIED >
  ]>
  <svg xmlns="http://www.w3.org/2000/svg" width="109" height="109" viewBox="0 0 109 109">
<g id="kvg:StrokePaths_096ea" style="fill:none;stroke:#000000;stroke-width:3;stroke-linecap:round;stroke-linejoin:round;">
<g id="kvg:096ea" kvg:element="雪">
	<g id="kvg:096ea-g1" kvg:element="雨" kvg:variant="true" kvg:position="top" kvg:radical="general">
		<path style="fill:none;stroke:#808080" id="kvg:096ea-s1" kvg:type="㇐" d="M30.3,17.75c1.99,0.19,4.32,0.06,6.11-0.13C47,16.5,63.12,14.5,73.79,13.82c2.52-0.16,4.62-0.16,6.94,0.11"/>
		<path style="fill:none;stroke:#808080" id="kvg:096ea-s2" kvg:type="㇔/㇑" d="M19.13,30.26c-0.21,5.23-2.03,10.97-3.37,16.26"/>
		<path style="fill:none;stroke:#808080" id="kvg:096ea-s3" kvg:type="㇖b/㇆" d="M20.02,32.66c15.86-2.03,51.76-6.3,68.93-7.13c11.07-0.53,1.22,7.12-0.29,8.94"/>
		<path style="fill:none;stroke-width:4;" id="kvg:096ea-s4" kvg:type="㇑" d="M52.65,18.92c1.15,1.15,1.61,2.83,1.61,4.57c0,3.62,0.08,17.53,0.11,25.25c0.01,2.43,0.02,4.15,0.02,4.58"/>
<circle cx="52.65" cy="18.92" r="5" style="fill:red;stroke:red;" />
	</g>
	<g id="kvg:096ea-g2" kvg:element="⺕" kvg:variant="true" kvg:original="彑" kvg:position="bottom">
	</g>
</g>
</g></svg>