<?xml version="1.0" encoding="UTF-8"?>
  <!DOCTYPE svg PUBLIC "-//W3C//DTD SVG 1.0//EN" "http://www.w3.org/TR/2001/REC-SVG-20010904/DTD/svg10.dtd" [
  <!ATTLIST g xmlns:kvg CDATA #FIXED "http://kanjivg.tagaini.net" kvg:element CDATA #IMPLIED kvg:variant CDATA #IMPLIED kvg:partial CDATA #IMPLIED kvg:original CDATA #IMPLIED kvg:part CDATA #IMPLIED kvg:number CDATA #IMPLIED kvg:tradForm CDATA #IMPLIED kvg:radicalForm CDATA #IMPLIED kvg:position CDATA #IMPLIED kvg:radical CDATA #IMPLIED kvg:phon CDATA #IMPLIED >
  <!ATTLIST path xmlns:kvg CDATA #FIXED "http://kanjivg.tagaini.net" kvg:type CDATA #IMPLIED >
  ]>
  <svg xmlns="http://www.w3.org/2000/svg" width="109" height="109" viewBox="0 0 109 109">
<g id="kvg:StrokePaths_096e3" style="fill:none;stroke:#000000;stroke-width:3;stroke-linecap:round;stroke-linejoin:round;">
<g id="kvg:096e3" kvg:element="難">
	<g id="kvg:096e3-g1" kvg:position="left">
		<g id="kvg:096e3-g2" kvg:element="艹" kvg:variant="true" kvg:original="艸">
			<path style="fill:none;stroke:#808080" id="kvg:096e3-s1" kvg:type="㇐" d="M13.73,29.05c1.64,0.45,3.1,0.33,4.63,0.13c8.35-1.09,20.7-3.24,29.01-3.73c1.83-0.11,3.69-0.2,5.48,0.28"/>
			<path style="fill:none;stroke:#808080" id="kvg:096e3-s2" kvg:type="㇑a" d="M23.51,18.07c0.77,0.77,1.09,1.9,1.22,2.69c1.2,7.31,1.54,12.82,1.88,15.47"/>
			<path style="fill:none;stroke:#808080" id="kvg:096e3-s3" kvg:type="㇑a" d="M41.98,15.31c0.45,1.04,0.6,2.28,0.28,3.6C41,24,40.12,28.88,39.01,34.48"/>
		</g>
		<g id="kvg:096e3-g3" kvg:element="口">
			<path style="fill:none;stroke:#808080" id="kvg:096e3-s4" kvg:type="㇑" d="M16.06,41.5c0.69,0.5,1.07,1.13,1.4,2.39c0.56,2.13,1.34,5,2.07,8.29c0.29,1.3,0.54,2.56,0.72,3.7"/>
			<path style="fill:none;stroke:#808080" id="kvg:096e3-s5" kvg:type="㇕b" d="M17.91,42.58c5.95-1.22,21.39-3.45,27.72-4.2c2.32-0.28,3.5,0.87,2.9,3.2c-0.73,2.83-1.69,5.35-2.8,9.19"/>
			<path style="fill:none;stroke:#808080" id="kvg:096e3-s6" kvg:type="㇐b" d="M20.66,54.01c3.95-0.34,16.03-1.79,23.38-2.52c1.28-0.13,2.42-0.24,3.37-0.33"/>
		</g>
		<g id="kvg:096e3-g4" kvg:element="夫">
			<path style="fill:none;stroke:#808080" id="kvg:096e3-s7" kvg:type="㇐" d="M19.68,65.16c1.33,0.56,3.43,0.36,4.83,0.16c5.15-0.73,12.85-1.94,18.25-2.59c1.69-0.2,3.27-0.46,4.94-0.03"/>
			<g id="kvg:096e3-g5" kvg:element="大">
				<path style="fill:none;stroke:#808080" id="kvg:096e3-s8" kvg:type="㇐" d="M15.43,78c1.69,0.38,3.54,0.37,4.94,0.11c7.38-1.36,18.39-2.83,25.87-3.81c1.89-0.25,4.09-0.4,5.94,0.07"/>
				<path style="fill:none;stroke:#808080" id="kvg:096e3-s9" kvg:type="㇒" d="M31.87,42.39c0.81,0.81,1.18,2.17,1.18,3.85C33,75.25,29.5,87.38,15.24,97.69"/>
				<path style="fill:none;stroke-width:4;" id="kvg:096e3-s10" kvg:type="㇔/㇏" d="M32.62,81.12c6.12,2.45,11.93,6.71,14.47,11.06"/>
<circle cx="32.62" cy="81.12" r="5" style="fill:red;stroke:red;" />
			</g>
		</g>
	</g>
	<g id="kvg:096e3-g6" kvg:element="隹" kvg:position="right" kvg:radical="general">
		<g id="kvg:096e3-g7" kvg:element="亻" kvg:variant="true" kvg:original="人">
		</g>
	</g>
</g>
</g></svg>