<?xml version="1.0" encoding="UTF-8"?>
  <!DOCTYPE svg PUBLIC "-//W3C//DTD SVG 1.0//EN" "http://www.w3.org/TR/2001/REC-SVG-20010904/DTD/svg10.dtd" [
  <!ATTLIST g xmlns:kvg CDATA #FIXED "http://kanjivg.tagaini.net" kvg:element CDATA #IMPLIED kvg:variant CDATA #IMPLIED kvg:partial CDATA #IMPLIED kvg:original CDATA #IMPLIED kvg:part CDATA #IMPLIED kvg:number CDATA #IMPLIED kvg:tradForm CDATA #IMPLIED kvg:radicalForm CDATA #IMPLIED kvg:position CDATA #IMPLIED kvg:radical CDATA #IMPLIED kvg:phon CDATA #IMPLIED >
  <!ATTLIST path xmlns:kvg CDATA #FIXED "http://kanjivg.tagaini.net" kvg:type CDATA #IMPLIED >
  ]>
  <svg xmlns="http://www.w3.org/2000/svg" width="109" height="109" viewBox="0 0 109 109">
<g id="kvg:StrokePaths_096fb" style="fill:none;stroke:#000000;stroke-width:3;stroke-linecap:round;stroke-linejoin:round;">
<g id="kvg:096fb" kvg:element="電">
	<g id="kvg:096fb-g1" kvg:element="雨" kvg:variant="true" kvg:position="top" kvg:radical="general">
		<path style="fill:none;stroke:#808080" id="kvg:096fb-s1" kvg:type="㇐" d="M34.66,16.19c2.31,0.7,4.78,0.25,7.11-0.04c6.03-0.75,16.15-1.97,23.49-2.76c2.19-0.23,4.03-0.14,6.05,0.1"/>
		<path style="fill:none;stroke:#808080" id="kvg:096fb-s2" kvg:type="㇔/㇑" d="M19.51,29.11c-0.2,5.55-1.93,11.7-3.21,17.3"/>
		<path style="fill:none;stroke:#808080" id="kvg:096fb-s3" kvg:type="㇖b/㇆" d="M20.85,32.18C37.62,30.38,70,25.62,86.4,25.2c9.1-0.24,2.35,6.05-0.78,9.53"/>
		<path style="fill:none;stroke:#808080" id="kvg:096fb-s4" kvg:type="㇑" d="M50.92,17.26c1.1,1.1,1.83,2.49,1.83,3.76c0,3.98-0.16,17.08-0.23,23.73c-0.02,2.1-0.04,3.56-0.04,3.89"/>
		<path style="fill:none;stroke:#808080" id="kvg:096fb-s5" kvg:type="㇔" d="M32.75,36.46c3.42,0.53,8.09,2.12,9.96,3"/>
		<path style="fill:none;stroke-width:4;" id="kvg:096fb-s6" kvg:type="㇔" d="M31.25,45c3.16,0.57,8.05,2.68,9.77,3.64"/>
<circle cx="31.25" cy="45" r="5" style="fill:red;stroke:red;" />
	</g>
	<g id="kvg:096fb-g2" kvg:position="bottom" kvg:phon="申V">
		<g id="kvg:096fb-g3" kvg:element="日">
		</g>
	</g>
</g>
</g></svg>