<?xml version="1.0" encoding="UTF-8"?>
  <!DOCTYPE svg PUBLIC "-//W3C//DTD SVG 1.0//EN" "http://www.w3.org/TR/2001/REC-SVG-20010904/DTD/svg10.dtd" [
  <!ATTLIST g xmlns:kvg CDATA #FIXED "http://kanjivg.tagaini.net" kvg:element CDATA #IMPLIED kvg:variant CDATA #IMPLIED kvg:partial CDATA #IMPLIED kvg:original CDATA #IMPLIED kvg:part CDATA #IMPLIED kvg:number CDATA #IMPLIED kvg:tradForm CDATA #IMPLIED kvg:radicalForm CDATA #IMPLIED kvg:position CDATA #IMPLIED kvg:radical CDATA #IMPLIED kvg:phon CDATA #IMPLIED >
  <!ATTLIST path xmlns:kvg CDATA #FIXED "http://kanjivg.tagaini.net" kvg:type CDATA #IMPLIED >
  ]>
  <svg xmlns="http://www.w3.org/2000/svg" width="109" height="109" viewBox="0 0 109 109">
<g id="kvg:StrokePaths_096f2" style="fill:none;stroke:#000000;stroke-width:3;stroke-linecap:round;stroke-linejoin:round;">
<g id="kvg:096f2" kvg:element="雲">
	<g id="kvg:096f2-g1" kvg:element="雨" kvg:variant="true" kvg:position="top" kvg:radical="general">
		<path style="fill:none;stroke:#808080" id="kvg:096f2-s1" kvg:type="㇐" d="M34.21,18.07c1.59,0.18,3.65,0.3,5.08,0.14c0.35-0.04,0.72-0.08,1.1-0.12c6.92-0.75,18.73-2.14,27.81-2.95c2.01-0.18,3.69-0.15,5.54,0.1"/>
		<path style="fill:none;stroke:#808080" id="kvg:096f2-s2" kvg:type="㇔/㇑" d="M24.54,29c-0.17,5.3-1.64,10.11-2.73,15.47"/>
		<path style="fill:none;stroke:#808080" id="kvg:096f2-s3" kvg:type="㇖b/㇆" d="M26.02,31.17c16.23-2.04,39.36-4.54,56.48-5.42c11.49-0.59,3.75,5.75,0.75,8"/>
		<path style="fill:none;stroke:#808080" id="kvg:096f2-s4" kvg:type="㇑" d="M52.48,19.59c0.91,0.91,1.57,2.41,1.57,3.82c0,0.3,0.04,13.99,0.05,21.84c0,2.18,0.01,3.93,0.01,4.84"/>
		<path style="fill:none;stroke-width:4;" id="kvg:096f2-s5" kvg:type="㇔" d="M34.72,36.98c2.67,0.69,6.32,3,7.78,4.15"/>
<circle cx="34.72" cy="36.98" r="5" style="fill:red;stroke:red;" />
	</g>
	<g id="kvg:096f2-g2" kvg:element="云" kvg:position="bottom" kvg:phon="云">
		<g id="kvg:096f2-g3" kvg:element="二">
		</g>
		<g id="kvg:096f2-g4" kvg:element="厶">
		</g>
	</g>
</g>
</g></svg>