<?xml version="1.0" encoding="UTF-8"?>
  <!DOCTYPE svg PUBLIC "-//W3C//DTD SVG 1.0//EN" "http://www.w3.org/TR/2001/REC-SVG-20010904/DTD/svg10.dtd" [
  <!ATTLIST g xmlns:kvg CDATA #FIXED "http://kanjivg.tagaini.net" kvg:element CDATA #IMPLIED kvg:variant CDATA #IMPLIED kvg:partial CDATA #IMPLIED kvg:original CDATA #IMPLIED kvg:part CDATA #IMPLIED kvg:number CDATA #IMPLIED kvg:tradForm CDATA #IMPLIED kvg:radicalForm CDATA #IMPLIED kvg:position CDATA #IMPLIED kvg:radical CDATA #IMPLIED kvg:phon CDATA #IMPLIED >
  <!ATTLIST path xmlns:kvg CDATA #FIXED "http://kanjivg.tagaini.net" kvg:type CDATA #IMPLIED >
  ]>
  <svg xmlns="http://www.w3.org/2000/svg" width="109" height="109" viewBox="0 0 109 109">
<g id="kvg:StrokePaths_09759" style="fill:none;stroke:#000000;stroke-width:3;stroke-linecap:round;stroke-linejoin:round;">
<g id="kvg:09759" kvg:element="静">
	<g id="kvg:09759-g1" kvg:element="青" kvg:position="left" kvg:radical="general" kvg:phon="青">
		<g id="kvg:09759-g2" kvg:element="龶" kvg:position="top">
			<path style="fill:none;stroke:#808080" id="kvg:09759-s1" kvg:type="㇐" d="M18.16,26.13c1.59,0.62,3.08,0.28,4.46,0.15c5.55-0.53,17.61-1.77,23-2.33c1.39-0.15,2.78-0.15,4.18-0.01"/>
			<path style="fill:none;stroke:#808080" id="kvg:09759-s2" kvg:type="㇑a" d="M33,13.13c1,1,1.47,2.24,1.47,3.44c0,0.47-0.01,19.66,0.04,27"/>
			<path style="fill:none;stroke:#808080" id="kvg:09759-s3" kvg:type="㇐" d="M19.52,35.61c0.64,0.25,1.82,0.3,2.47,0.25c4.64-0.36,19.32-2.15,23.32-2.54c1.07-0.1,1.86-0.06,2.42-0.01"/>
			<path style="fill:none;stroke-width:4;" id="kvg:09759-s4" kvg:type="㇐" d="M11.13,46.74c2.07,0.56,4.16,0.23,6.24-0.04c8.57-1.1,20-2.44,28.02-3.22c1.86-0.18,4.49-0.36,6.11,0.02"/>
<circle cx="11.13" cy="46.74" r="5" style="fill:red;stroke:red;" />
		</g>
		<g id="kvg:09759-g3" kvg:element="月" kvg:position="bottom">
		</g>
	</g>
	<g id="kvg:09759-g4" kvg:element="争" kvg:position="right">
		<g id="kvg:09759-g5" kvg:element="𠂊" kvg:variant="true" kvg:original="勹" kvg:position="top">
		</g>
		<g id="kvg:09759-g6" kvg:position="bottom">
			<g id="kvg:09759-g7" kvg:element="⺕" kvg:variant="true" kvg:original="彑">
			</g>
			<g id="kvg:09759-g8" kvg:element="亅">
			</g>
		</g>
	</g>
</g>
</g></svg>