<?xml version="1.0" encoding="UTF-8"?>
  <!DOCTYPE svg PUBLIC "-//W3C//DTD SVG 1.0//EN" "http://www.w3.org/TR/2001/REC-SVG-20010904/DTD/svg10.dtd" [
  <!ATTLIST g xmlns:kvg CDATA #FIXED "http://kanjivg.tagaini.net" kvg:element CDATA #IMPLIED kvg:variant CDATA #IMPLIED kvg:partial CDATA #IMPLIED kvg:original CDATA #IMPLIED kvg:part CDATA #IMPLIED kvg:number CDATA #IMPLIED kvg:tradForm CDATA #IMPLIED kvg:radicalForm CDATA #IMPLIED kvg:position CDATA #IMPLIED kvg:radical CDATA #IMPLIED kvg:phon CDATA #IMPLIED >
  <!ATTLIST path xmlns:kvg CDATA #FIXED "http://kanjivg.tagaini.net" kvg:type CDATA #IMPLIED >
  ]>
  <svg xmlns="http://www.w3.org/2000/svg" width="109" height="109" viewBox="0 0 109 109">
<g id="kvg:StrokePaths_09769" style="fill:none;stroke:#000000;stroke-width:3;stroke-linecap:round;stroke-linejoin:round;">
<g id="kvg:09769" kvg:element="革" kvg:radical="general">
	<g id="kvg:09769-g1" kvg:element="廿" kvg:position="top">
		<g id="kvg:09769-g2" kvg:element="十">
			<path style="fill:none;stroke:#808080" id="kvg:09769-s1" kvg:type="㇐" d="M22.31,23.86c2.25,0.8,5.69,0.66,8.07,0.38c12.88-1.5,35.75-3.5,50.13-4.42c2.49-0.16,4.98,0.01,7.44,0.54"/>
			<path style="fill:none;stroke:#808080" id="kvg:09769-s2" kvg:type="㇑" d="M38.08,12.38c1.02,1.02,1.55,2.18,1.69,2.94c0.48,2.68,1.72,9.47,2.83,17.42c0.25,1.76,0.47,3.47,0.65,5.01"/>
		</g>
		<path style="fill:none;stroke:#808080" id="kvg:09769-s3" kvg:type="㇑a" d="M69.23,10.75c0.52,1.12,0.69,2.51,0.44,3.69c-1.17,5.56-1.79,9.72-3.71,17.55"/>
		<path style="fill:none;stroke-width:4;" id="kvg:09769-s4" kvg:type="㇐b" d="M44.08,34.94c3.67-0.31,13.71-1.07,19.68-1.53c1.83-0.14,2.99-0.16,4.04-0.04"/>
<circle cx="44.08" cy="34.94" r="5" style="fill:red;stroke:red;" />
	</g>
	<g id="kvg:09769-g3" kvg:position="bottom">
		<g id="kvg:09769-g4" kvg:element="口">
		</g>
	</g>
</g>
</g></svg>