<?xml version="1.0" encoding="UTF-8"?>
  <!DOCTYPE svg PUBLIC "-//W3C//DTD SVG 1.0//EN" "http://www.w3.org/TR/2001/REC-SVG-20010904/DTD/svg10.dtd" [
  <!ATTLIST g xmlns:kvg CDATA #FIXED "http://kanjivg.tagaini.net" kvg:element CDATA #IMPLIED kvg:variant CDATA #IMPLIED kvg:partial CDATA #IMPLIED kvg:original CDATA #IMPLIED kvg:part CDATA #IMPLIED kvg:number CDATA #IMPLIED kvg:tradForm CDATA #IMPLIED kvg:radicalForm CDATA #IMPLIED kvg:position CDATA #IMPLIED kvg:radical CDATA #IMPLIED kvg:phon CDATA #IMPLIED >
  <!ATTLIST path xmlns:kvg CDATA #FIXED "http://kanjivg.tagaini.net" kvg:type CDATA #IMPLIED >
  ]>
  <svg xmlns="http://www.w3.org/2000/svg" width="109" height="109" viewBox="0 0 109 109">
<g id="kvg:StrokePaths_09802" style="fill:none;stroke:#000000;stroke-width:3;stroke-linecap:round;stroke-linejoin:round;">
<g id="kvg:09802" kvg:element="頂">
	<g id="kvg:09802-g1" kvg:element="丁" kvg:position="left" kvg:phon="丁">
		<g id="kvg:09802-g2" kvg:element="一">
			<path style="fill:none;stroke:#808080" id="kvg:09802-s1" kvg:type="㇐" d="M10.2,28.38c1.94,0.76,5.27,0.49,7.31,0.27c7.08-0.74,16.92-1.78,23.25-2.5c2.07-0.24,4.62-0.52,6.55-0.25"/>
		</g>
		<g id="kvg:09802-g3" kvg:element="亅">
			<path style="fill:none;stroke:#808080" id="kvg:09802-s2" kvg:type="㇚" d="M30.55,30.06c0.88,0.88,1.38,2.44,1.38,4.52c0,13.24,0.02,48.34,0.02,52.85c0,10.21-6.64,0.46-7.99-0.67"/>
		</g>
	</g>
	<g id="kvg:09802-g4" kvg:element="頁" kvg:position="right" kvg:radical="general">
		<path style="fill:none;stroke-width:4;" id="kvg:09802-s3" kvg:type="㇐" d="M49.98,19.08c2.77,0.54,5.05,0.52,7.14,0.24c9.49-1.25,22.9-2.61,31.63-3.3c2.04-0.16,4.78-0.38,6.78,0.21"/>
<circle cx="49.98" cy="19.08" r="5" style="fill:red;stroke:red;" />
		<g id="kvg:09802-g5" kvg:element="貝">
			<g id="kvg:09802-g6" kvg:element="目" kvg:position="top">
			</g>
			<g id="kvg:09802-g7" kvg:position="bottom">
			</g>
		</g>
	</g>
</g>
</g></svg>