<?xml version="1.0" encoding="UTF-8"?>
  <!DOCTYPE svg PUBLIC "-//W3C//DTD SVG 1.0//EN" "http://www.w3.org/TR/2001/REC-SVG-20010904/DTD/svg10.dtd" [
  <!ATTLIST g xmlns:kvg CDATA #FIXED "http://kanjivg.tagaini.net" kvg:element CDATA #IMPLIED kvg:variant CDATA #IMPLIED kvg:partial CDATA #IMPLIED kvg:original CDATA #IMPLIED kvg:part CDATA #IMPLIED kvg:number CDATA #IMPLIED kvg:tradForm CDATA #IMPLIED kvg:radicalForm CDATA #IMPLIED kvg:position CDATA #IMPLIED kvg:radical CDATA #IMPLIED kvg:phon CDATA #IMPLIED >
  <!ATTLIST path xmlns:kvg CDATA #FIXED "http://kanjivg.tagaini.net" kvg:type CDATA #IMPLIED >
  ]>
  <svg xmlns="http://www.w3.org/2000/svg" width="109" height="109" viewBox="0 0 109 109">
<g id="kvg:StrokePaths_0982d" style="fill:none;stroke:#000000;stroke-width:3;stroke-linecap:round;stroke-linejoin:round;">
<g id="kvg:0982d" kvg:element="頭">
	<g id="kvg:0982d-g1" kvg:element="豆" kvg:position="left" kvg:radical="nelson" kvg:phon="豆">
		<g id="kvg:0982d-g2" kvg:position="top">
			<path style="fill:none;stroke:#808080" id="kvg:0982d-s1" kvg:type="㇐" d="M15.13,22.97c1.2,0.24,3.41,0.36,4.61,0.24C26.5,22.5,34,21,41.54,20.47c2-0.14,3.21,0.11,4.21,0.23"/>
		</g>
		<g id="kvg:0982d-g3" kvg:position="bottom">
			<g id="kvg:0982d-g4" kvg:element="口">
				<path style="fill:none;stroke:#808080" id="kvg:0982d-s2" kvg:type="㇑" d="M15.75,35.34c0.8,0.43,1.34,1.3,1.53,2.15c0.96,4.16,1.84,8.43,2.68,12.77c0.22,1.16,0.44,2.32,0.66,3.49"/>
				<path style="fill:none;stroke:#808080" id="kvg:0982d-s3" kvg:type="㇕b" d="M18.3,36.44c8.95-1.56,20.18-3.2,25.07-3.7c2.02-0.2,3.38,0.81,2.94,3.03c-0.78,3.99-1.65,7.07-2.68,11.89"/>
				<path style="fill:none;stroke:#808080" id="kvg:0982d-s4" kvg:type="㇐b" d="M20.85,51.31c5.59-0.43,12.99-1.87,20.63-2.75c1.24-0.14,2.49-0.27,3.73-0.38"/>
			</g>
			<path style="fill:none;stroke:#808080" id="kvg:0982d-s5" kvg:type="㇔" d="M22.12,61.38c1.9,2.18,4.9,8.98,5.38,12.38"/>
			<path style="fill:none;stroke:#808080" id="kvg:0982d-s6" kvg:type="㇒" d="M42.24,55c0.45,1.22,0.5,1.99,0.27,2.95c-1.4,5.81-2.76,9.21-5.25,15.05"/>
			<path style="fill:none;stroke:#808080" id="kvg:0982d-s7" kvg:type="㇀/㇐" d="M14,84.87c1.75,0.88,3.25,1.13,5.46,0.07c8.18-3.91,18.88-9.38,26.79-13.94"/>
		</g>
	</g>
	<g id="kvg:0982d-g5" kvg:element="頁" kvg:position="right" kvg:radical="tradit">
		<path style="fill:none;stroke-width:4;" id="kvg:0982d-s8" kvg:type="㇐" d="M53.63,19.14c2.62,0.36,4.82,0.33,7.14,0.14c9.25-0.78,21.23-2.78,30.22-2.74c2.45,0.01,3.92,0.24,5.14,0.49"/>
<circle cx="53.63" cy="19.14" r="5" style="fill:red;stroke:red;" />
		<g id="kvg:0982d-g6" kvg:element="貝">
			<g id="kvg:0982d-g7" kvg:element="目" kvg:position="top">
			</g>
			<g id="kvg:0982d-g8" kvg:position="bottom">
			</g>
		</g>
	</g>
</g>
</g></svg>