<?xml version="1.0" encoding="UTF-8"?>
  <!DOCTYPE svg PUBLIC "-//W3C//DTD SVG 1.0//EN" "http://www.w3.org/TR/2001/REC-SVG-20010904/DTD/svg10.dtd" [
  <!ATTLIST g xmlns:kvg CDATA #FIXED "http://kanjivg.tagaini.net" kvg:element CDATA #IMPLIED kvg:variant CDATA #IMPLIED kvg:partial CDATA #IMPLIED kvg:original CDATA #IMPLIED kvg:part CDATA #IMPLIED kvg:number CDATA #IMPLIED kvg:tradForm CDATA #IMPLIED kvg:radicalForm CDATA #IMPLIED kvg:position CDATA #IMPLIED kvg:radical CDATA #IMPLIED kvg:phon CDATA #IMPLIED >
  <!ATTLIST path xmlns:kvg CDATA #FIXED "http://kanjivg.tagaini.net" kvg:type CDATA #IMPLIED >
  ]>
  <svg xmlns="http://www.w3.org/2000/svg" width="109" height="109" viewBox="0 0 109 109">
<g id="kvg:StrokePaths_0984c" style="fill:none;stroke:#000000;stroke-width:3;stroke-linecap:round;stroke-linejoin:round;">
<g id="kvg:0984c" kvg:element="題">
	<g id="kvg:0984c-g1" kvg:element="是" kvg:position="nyo" kvg:phon="是">
		<g id="kvg:0984c-g2" kvg:element="日" kvg:position="top" kvg:radical="nelson">
			<path style="fill:none;stroke:#808080" id="kvg:0984c-s1" kvg:type="㇑" d="M19.02,15.84c0.89,0.89,1.4,2.05,1.4,2.98c0,0.71,1.73,13.95,2.59,20.55c0.26,2.02,0.45,3.42,0.47,3.64"/>
			<path style="fill:none;stroke:#808080" id="kvg:0984c-s2" kvg:type="㇕a" d="M20.96,17.2c1.54-0.1,14.79-2.19,20.06-2.94c2.74-0.4,4.23,1.61,4.09,3.64c-0.25,3.54-1.04,11.35-1.89,19.13c-0.12,1.08-0.24,2.15-0.35,3.22"/>
			<path style="fill:none;stroke:#808080" id="kvg:0984c-s3" kvg:type="㇐a" d="M22.8,28.8c4.57-0.67,16.82-2.3,20.49-2.75"/>
			<path style="fill:none;stroke:#808080" id="kvg:0984c-s4" kvg:type="㇐a" d="M24.23,40.14c5.65-0.76,10.9-1.51,17.76-2.26"/>
		</g>
		<g id="kvg:0984c-g3" kvg:element="疋" kvg:variant="true" kvg:position="bottom">
			<path style="fill:none;stroke:#808080" id="kvg:0984c-s5" kvg:type="㇐" d="M10.75,51.58c1.47,0.43,4.17,0.59,5.63,0.43c7.87-0.88,20.74-3.2,28.35-3.88c2.43-0.22,3.92,0.2,5.14,0.42"/>
			<g id="kvg:0984c-g4" kvg:element="龰">
				<g id="kvg:0984c-g5" kvg:element="卜" kvg:original="ト">
					<path style="fill:none;stroke-width:4;" id="kvg:0984c-s6" kvg:type="㇑a" d="M32.57,51.88c0.84,0.84,1.12,2.1,1.12,3.07c0,2.56,0.01,16.56,0.01,24.06"/>
<circle cx="32.57" cy="51.88" r="5" style="fill:red;stroke:red;" />
				</g>
				<g id="kvg:0984c-g6" kvg:element="人">
				</g>
			</g>
		</g>
	</g>
	<g id="kvg:0984c-g7" kvg:element="頁" kvg:position="nyoc" kvg:radical="tradit">
		<g id="kvg:0984c-g8" kvg:element="貝">
			<g id="kvg:0984c-g9" kvg:element="目" kvg:position="top">
			</g>
			<g id="kvg:0984c-g10" kvg:position="bottom">
			</g>
		</g>
	</g>
</g>
</g></svg>