<?xml version="1.0" encoding="UTF-8"?>
  <!DOCTYPE svg PUBLIC "-//W3C//DTD SVG 1.0//EN" "http://www.w3.org/TR/2001/REC-SVG-20010904/DTD/svg10.dtd" [
  <!ATTLIST g xmlns:kvg CDATA #FIXED "http://kanjivg.tagaini.net" kvg:element CDATA #IMPLIED kvg:variant CDATA #IMPLIED kvg:partial CDATA #IMPLIED kvg:original CDATA #IMPLIED kvg:part CDATA #IMPLIED kvg:number CDATA #IMPLIED kvg:tradForm CDATA #IMPLIED kvg:radicalForm CDATA #IMPLIED kvg:position CDATA #IMPLIED kvg:radical CDATA #IMPLIED kvg:phon CDATA #IMPLIED >
  <!ATTLIST path xmlns:kvg CDATA #FIXED "http://kanjivg.tagaini.net" kvg:type CDATA #IMPLIED >
  ]>
  <svg xmlns="http://www.w3.org/2000/svg" width="109" height="109" viewBox="0 0 109 109">
<g id="kvg:StrokePaths_0984d" style="fill:none;stroke:#000000;stroke-width:3;stroke-linecap:round;stroke-linejoin:round;">
<g id="kvg:0984d" kvg:element="額">
	<g id="kvg:0984d-g1" kvg:element="客" kvg:position="left" kvg:phon="客">
		<g id="kvg:0984d-g2" kvg:element="宀" kvg:position="top">
			<path style="fill:none;stroke:#808080" id="kvg:0984d-s1" kvg:type="㇑a" d="M33.71,14.2c0.73,0.74,1.18,1.77,1.16,2.59c-0.05,2.59-0.05,5.62-0.05,7.98"/>
			<g id="kvg:0984d-g3" kvg:element="冖">
				<path style="fill:none;stroke:#808080" id="kvg:0984d-s2" kvg:type="㇔" d="M18.5,27c0,2.86-2.47,10.72-3.6,12.62"/>
				<path style="fill:none;stroke:#808080" id="kvg:0984d-s3" kvg:type="㇖b" d="M19.26,28.46c10.25-1.55,21.19-3.65,29.61-3.83c7.56-0.16,1.25,5.37-0.24,6.67"/>
			</g>
		</g>
		<g id="kvg:0984d-g4" kvg:element="各" kvg:position="bottom">
			<g id="kvg:0984d-g5" kvg:element="夂">
				<path style="fill:none;stroke:#808080" id="kvg:0984d-s4" kvg:type="㇒" d="M30.6,33.61c0.03,0.54,0.13,1.4-0.07,2.15C29.25,40.62,23.41,50,16.85,56.1"/>
				<path style="fill:none;stroke:#808080" id="kvg:0984d-s5" kvg:type="㇇" d="M30.74,40.56c0.27,0.03,1.42,0,2.19-0.09c2.53-0.27,5.16-1.27,8.78-2.12c2.48-0.58,3.44,1.17,2.8,2.75C41.04,49.79,29.38,66,12.71,74.09"/>
				<path style="fill:none;stroke:#808080" id="kvg:0984d-s6" kvg:type="㇔/㇏" d="M27.75,52c9,3.12,17.75,9.5,23.83,15.74"/>
			</g>
			<g id="kvg:0984d-g6" kvg:element="口">
				<path style="fill:none;stroke:#808080" id="kvg:0984d-s7" kvg:type="㇑" d="M22.64,73.41c0.65,0.69,1.01,1.52,1.08,2.47c0.7,3.03,1.44,8.02,2.01,12.5c0.16,1.26,0.31,2.47,0.44,3.59"/>
				<path style="fill:none;stroke-width:4;" id="kvg:0984d-s8" kvg:type="㇕b" d="M24.41,74.13c6.49-1.18,14.24-2.16,18.36-2.76c2.46-0.36,3.87-0.14,3.36,2.61c-0.76,4.06-1.53,7.65-2.43,12.1"/>
<circle cx="24.41" cy="74.13" r="5" style="fill:red;stroke:red;" />
			</g>
		</g>
	</g>
	<g id="kvg:0984d-g7" kvg:element="頁" kvg:position="right" kvg:radical="general">
		<g id="kvg:0984d-g8" kvg:position="top">
		</g>
		<g id="kvg:0984d-g9" kvg:element="貝" kvg:position="bottom">
			<g id="kvg:0984d-g10" kvg:element="目" kvg:position="top">
			</g>
			<g id="kvg:0984d-g11" kvg:position="bottom">
			</g>
		</g>
	</g>
</g>
</g></svg>