<?xml version="1.0" encoding="UTF-8"?>
  <!DOCTYPE svg PUBLIC "-//W3C//DTD SVG 1.0//EN" "http://www.w3.org/TR/2001/REC-SVG-20010904/DTD/svg10.dtd" [
  <!ATTLIST g xmlns:kvg CDATA #FIXED "http://kanjivg.tagaini.net" kvg:element CDATA #IMPLIED kvg:variant CDATA #IMPLIED kvg:partial CDATA #IMPLIED kvg:original CDATA #IMPLIED kvg:part CDATA #IMPLIED kvg:number CDATA #IMPLIED kvg:tradForm CDATA #IMPLIED kvg:radicalForm CDATA #IMPLIED kvg:position CDATA #IMPLIED kvg:radical CDATA #IMPLIED kvg:phon CDATA #IMPLIED >
  <!ATTLIST path xmlns:kvg CDATA #FIXED "http://kanjivg.tagaini.net" kvg:type CDATA #IMPLIED >
  ]>
  <svg xmlns="http://www.w3.org/2000/svg" width="109" height="109" viewBox="0 0 109 109">
<g id="kvg:StrokePaths_09854" style="fill:none;stroke:#000000;stroke-width:3;stroke-linecap:round;stroke-linejoin:round;">
<g id="kvg:09854" kvg:element="顔">
	<g id="kvg:09854-g1" kvg:element="彦" kvg:position="left">
		<g id="kvg:09854-g2" kvg:element="立">
			<path style="fill:none;stroke:#808080" id="kvg:09854-s1" kvg:type="㇑a" d="M34.25,13.47c0.58,0.58,1.21,1.78,1.21,3.03c0,1.25,0,3.96,0,7.34"/>
			<path style="fill:none;stroke:#808080" id="kvg:09854-s2" kvg:type="㇐" d="M19.08,25.79c1.15,0.29,2.48,0.43,3.63,0.29c7.04-0.83,18.17-2.58,23.81-3.13c1.9-0.19,3.06,0.14,4.01,0.29"/>
			<path style="fill:none;stroke:#808080" id="kvg:09854-s3" kvg:type="㇔" d="M25.43,29.98C28.22,34.75,29.75,39.85,30,43"/>
			<path style="fill:none;stroke-width:4;" id="kvg:09854-s4" kvg:type="㇒" d="M45.02,26.88c0.35,0.88,0.4,2,0.06,3.08c-1.33,4.29-3.64,8.72-5.46,11.67"/>
<circle cx="45.02" cy="26.88" r="5" style="fill:red;stroke:red;" />
			<g id="kvg:09854-g3" kvg:element="厂" kvg:part="1">
			</g>
		</g>
		<g id="kvg:09854-g4" kvg:element="厂" kvg:part="2">
		</g>
		<g id="kvg:09854-g5" kvg:element="彡">
		</g>
	</g>
	<g id="kvg:09854-g6" kvg:element="頁" kvg:position="right" kvg:radical="general" kvg:phon="頁">
		<g id="kvg:09854-g7" kvg:element="貝">
			<g id="kvg:09854-g8" kvg:element="目">
			</g>
		</g>
	</g>
</g>
</g></svg>