<?xml version="1.0" encoding="UTF-8"?>
  <!DOCTYPE svg PUBLIC "-//W3C//DTD SVG 1.0//EN" "http://www.w3.org/TR/2001/REC-SVG-20010904/DTD/svg10.dtd" [
  <!ATTLIST g xmlns:kvg CDATA #FIXED "http://kanjivg.tagaini.net" kvg:element CDATA #IMPLIED kvg:variant CDATA #IMPLIED kvg:partial CDATA #IMPLIED kvg:original CDATA #IMPLIED kvg:part CDATA #IMPLIED kvg:number CDATA #IMPLIED kvg:tradForm CDATA #IMPLIED kvg:radicalForm CDATA #IMPLIED kvg:position CDATA #IMPLIED kvg:radical CDATA #IMPLIED kvg:phon CDATA #IMPLIED >
  <!ATTLIST path xmlns:kvg CDATA #FIXED "http://kanjivg.tagaini.net" kvg:type CDATA #IMPLIED >
  ]>
  <svg xmlns="http://www.w3.org/2000/svg" width="109" height="109" viewBox="0 0 109 109">
<g id="kvg:StrokePaths_09858" style="fill:none;stroke:#000000;stroke-width:3;stroke-linecap:round;stroke-linejoin:round;">
<g id="kvg:09858" kvg:element="願">
	<g id="kvg:09858-g1" kvg:element="原" kvg:position="left" kvg:phon="原">
		<g id="kvg:09858-g2" kvg:element="厂" kvg:position="tare">
			<path style="fill:none;stroke:#808080" id="kvg:09858-s1" kvg:type="㇐" d="M18.18,21.28c1.69,0.34,3.79,0.18,5.08,0.04c7.28-0.76,17.96-1.79,24.99-2.17c1.85-0.1,3.87-0.28,5.75,0.13"/>
			<g id="kvg:09858-g3" kvg:element="丿" kvg:radical="nelson">
				<path style="fill:none;stroke:#808080" id="kvg:09858-s2" kvg:type="㇒" d="M19.87,22.16c0.67,0.67,0.95,1.72,0.94,2.7c-0.18,20.02-2.18,43.02-10.33,56.74"/>
			</g>
		</g>
		<g id="kvg:09858-g4" kvg:element="CDP-8BC4" kvg:position="tarec">
			<g id="kvg:09858-g5" kvg:element="白">
				<path style="fill:none;stroke:#808080" id="kvg:09858-s3" kvg:type="㇔" d="M38.87,23.12c0.27,0.45,0.33,1.03,0.28,1.44c-0.22,2.15-1.6,7.24-3.72,10.9"/>
				<g id="kvg:09858-g6" kvg:element="日" kvg:position="bottom">
					<path style="fill:none;stroke-width:4;" id="kvg:09858-s4" kvg:type="㇑" d="M26.77,37.3c0.84,0.84,1.4,1.96,1.5,2.74c0.18,1.39,1.57,11.79,2.23,17.71c0.15,1.36,0.27,2.48,0.32,3.21"/>
<circle cx="26.77" cy="37.3" r="5" style="fill:red;stroke:red;" />
				</g>
			</g>
			<g id="kvg:09858-g7" kvg:element="小">
			</g>
		</g>
	</g>
	<g id="kvg:09858-g8" kvg:element="頁" kvg:position="right" kvg:radical="tradit">
		<g id="kvg:09858-g9" kvg:element="貝">
			<g id="kvg:09858-g10" kvg:element="目" kvg:position="top">
			</g>
			<g id="kvg:09858-g11" kvg:position="bottom">
			</g>
		</g>
	</g>
</g>
</g></svg>