<?xml version="1.0" encoding="UTF-8"?>
  <!DOCTYPE svg PUBLIC "-//W3C//DTD SVG 1.0//EN" "http://www.w3.org/TR/2001/REC-SVG-20010904/DTD/svg10.dtd" [
  <!ATTLIST g xmlns:kvg CDATA #FIXED "http://kanjivg.tagaini.net" kvg:element CDATA #IMPLIED kvg:variant CDATA #IMPLIED kvg:partial CDATA #IMPLIED kvg:original CDATA #IMPLIED kvg:part CDATA #IMPLIED kvg:number CDATA #IMPLIED kvg:tradForm CDATA #IMPLIED kvg:radicalForm CDATA #IMPLIED kvg:position CDATA #IMPLIED kvg:radical CDATA #IMPLIED kvg:phon CDATA #IMPLIED >
  <!ATTLIST path xmlns:kvg CDATA #FIXED "http://kanjivg.tagaini.net" kvg:type CDATA #IMPLIED >
  ]>
  <svg xmlns="http://www.w3.org/2000/svg" width="109" height="109" viewBox="0 0 109 109">
<g id="kvg:StrokePaths_0985e" style="fill:none;stroke:#000000;stroke-width:3;stroke-linecap:round;stroke-linejoin:round;">
<g id="kvg:0985e" kvg:element="類">
	<g id="kvg:0985e-g1" kvg:position="left">
		<g id="kvg:0985e-g2" kvg:element="米" kvg:variant="true">
			<path style="fill:none;stroke:#808080" id="kvg:0985e-s1" kvg:type="㇔" d="M16.57,20.34c2.78,1.79,6.99,6.86,7.68,9.64"/>
			<path style="fill:none;stroke:#808080" id="kvg:0985e-s2" kvg:type="㇒" d="M48.01,17.89c0.06,0.77-0.03,1.52-0.4,2.2c-1.48,2.66-3.36,5.41-6.79,8.98"/>
			<path style="fill:none;stroke:#808080" id="kvg:0985e-s3" kvg:type="㇐" d="M13.6,37.87c1.27,0.38,3.02,0.6,5.14,0.24c8.88-1.49,21.01-3.24,28.81-3.99c2.14-0.21,3.45-0.17,4.81,0"/>
			<path style="fill:none;stroke:#808080" id="kvg:0985e-s4" kvg:type="㇑" d="M32.27,12.96c0.82,0.82,1.34,2.04,1.34,3.73c0,2.5,0.05,25.19,0.07,35.93c0,2.42,0.01,3.76,0.01,4.66"/>
			<path style="fill:none;stroke:#808080" id="kvg:0985e-s5" kvg:type="㇒" d="M32.27,36.86c0,1.14-0.44,2.07-1.01,3.02c-4.2,7.06-11.86,15.59-19.02,19.36"/>
			<path style="fill:none;stroke:#808080" id="kvg:0985e-s6" kvg:type="㇔/㇏" d="M36.62,41.42c5.5,2.71,11,6.33,14.65,10.27"/>
		</g>
		<g id="kvg:0985e-g3" kvg:element="大" kvg:variant="true">
			<path style="fill:none;stroke-width:4;" id="kvg:0985e-s7" kvg:type="㇐" d="M13.46,72.44c1.98,0.48,3.9,0.34,5.89,0.08c8.91-1.15,17.8-2.25,25.53-3.02c2.36-0.23,4.62-0.38,6.85-0.12"/>
<circle cx="13.46" cy="72.44" r="5" style="fill:red;stroke:red;" />
		</g>
	</g>
	<g id="kvg:0985e-g4" kvg:element="頁" kvg:position="right" kvg:radical="general">
		<g id="kvg:0985e-g5" kvg:element="貝">
			<g id="kvg:0985e-g6" kvg:element="目" kvg:position="top">
			</g>
			<g id="kvg:0985e-g7" kvg:position="bottom">
			</g>
		</g>
	</g>
</g>
</g></svg>