<?xml version="1.0" encoding="UTF-8"?>
  <!DOCTYPE svg PUBLIC "-//W3C//DTD SVG 1.0//EN" "http://www.w3.org/TR/2001/REC-SVG-20010904/DTD/svg10.dtd" [
  <!ATTLIST g xmlns:kvg CDATA #FIXED "http://kanjivg.tagaini.net" kvg:element CDATA #IMPLIED kvg:variant CDATA #IMPLIED kvg:partial CDATA #IMPLIED kvg:original CDATA #IMPLIED kvg:part CDATA #IMPLIED kvg:number CDATA #IMPLIED kvg:tradForm CDATA #IMPLIED kvg:radicalForm CDATA #IMPLIED kvg:position CDATA #IMPLIED kvg:radical CDATA #IMPLIED kvg:phon CDATA #IMPLIED >
  <!ATTLIST path xmlns:kvg CDATA #FIXED "http://kanjivg.tagaini.net" kvg:type CDATA #IMPLIED >
  ]>
  <svg xmlns="http://www.w3.org/2000/svg" width="109" height="109" viewBox="0 0 109 109">
<g id="kvg:StrokePaths_098a8" style="fill:none;stroke:#000000;stroke-width:3;stroke-linecap:round;stroke-linejoin:round;">
<g id="kvg:098a8" kvg:element="風" kvg:radical="general">
	<g id="kvg:098a8-g1" kvg:element="几" kvg:position="kamae" kvg:phon="凡">
		<g id="kvg:098a8-g2" kvg:element="丿">
			<path style="fill:none;stroke:#808080" id="kvg:098a8-s1" kvg:type="㇒" d="M24.55,22.25c0.95,1.25,1.37,3.05,1.37,5.36c0,22.76,1.59,50.26-10.66,62.39"/>
		</g>
		<path style="fill:none;stroke:#808080" id="kvg:098a8-s2" kvg:type="㇈a" d="M26.75,23.5c1.48-0.24,3.35-0.52,5.49-0.84C46.03,20.62,63,17.75,74,17.25c4-0.18,6.09,0.97,5.5,4.75C76.25,42.75,77.25,71.75,92,87.75c6.95,7.54,5.75,1,6-5.5"/>
	</g>
	<g id="kvg:098a8-g3" kvg:position="kamaec">
		<path style="fill:none;stroke:#808080" id="kvg:098a8-s3" kvg:type="㇒" d="M63.5,24.75C63.25,26,62.62,27,61.32,27.8C57.3,30.23,48.46,34.95,35.88,38"/>
		<g id="kvg:098a8-g4" kvg:element="虫">
			<g id="kvg:098a8-g5" kvg:element="中">
				<g id="kvg:098a8-g6" kvg:element="口">
					<path style="fill:none;stroke-width:4;" id="kvg:098a8-s4" kvg:type="㇑" d="M33.23,49.47c0.71,0.71,1.46,1.63,1.56,2.1c0.6,2.87,1.22,5.5,2.01,10.42c0.15,0.93,0.3,1.91,0.47,2.94"/>
<circle cx="33.23" cy="49.47" r="5" style="fill:red;stroke:red;" />
				</g>
				<g id="kvg:098a8-g7" kvg:element="丨">
				</g>
			</g>
		</g>
	</g>
</g>
</g></svg>