<?xml version="1.0" encoding="UTF-8"?>
  <!DOCTYPE svg PUBLIC "-//W3C//DTD SVG 1.0//EN" "http://www.w3.org/TR/2001/REC-SVG-20010904/DTD/svg10.dtd" [
  <!ATTLIST g xmlns:kvg CDATA #FIXED "http://kanjivg.tagaini.net" kvg:element CDATA #IMPLIED kvg:variant CDATA #IMPLIED kvg:partial CDATA #IMPLIED kvg:original CDATA #IMPLIED kvg:part CDATA #IMPLIED kvg:number CDATA #IMPLIED kvg:tradForm CDATA #IMPLIED kvg:radicalForm CDATA #IMPLIED kvg:position CDATA #IMPLIED kvg:radical CDATA #IMPLIED kvg:phon CDATA #IMPLIED >
  <!ATTLIST path xmlns:kvg CDATA #FIXED "http://kanjivg.tagaini.net" kvg:type CDATA #IMPLIED >
  ]>
  <svg xmlns="http://www.w3.org/2000/svg" width="109" height="109" viewBox="0 0 109 109">
<g id="kvg:StrokePaths_098df" style="fill:none;stroke:#000000;stroke-width:3;stroke-linecap:round;stroke-linejoin:round;">
<g id="kvg:098df" kvg:element="食" kvg:radical="general">
	<path style="fill:none;stroke:#808080" id="kvg:098df-s1" kvg:type="㇒" d="M52.75,10.5c0.11,0.98-0.19,2.67-0.97,3.93C45,25.34,31.75,41.19,14,51.5"/>
	<path style="fill:none;stroke:#808080" id="kvg:098df-s2" kvg:type="㇏" d="M52.75,16.25c5.09,4.8,25.71,19.61,33.7,24.9c2.68,1.78,5.37,2.79,8.55,3.35"/>
	<path style="fill:none;stroke:#808080" id="kvg:098df-s3" kvg:type="㇑a" d="M52.25,29.25c1,1,1.5,2.25,1.5,3.5c0,2,0,3,0,5.5"/>
	<path style="fill:none;stroke-width:4;" id="kvg:098df-s4" kvg:type="㇕" d="M38,40c0.83,0.47,2.19,1,3.86,0.83c9.39-0.96,21.95-2.76,23.25-2.84c1.67-0.1,3.14,0.88,3.11,2.53C68.2,41.8,67,53.25,66.34,62.4c-0.07,0.94-0.13,1.36-0.13,1.99"/>
<circle cx="38" cy="40" r="5" style="fill:red;stroke:red;" />
</g>
</g></svg>