<?xml version="1.0" encoding="UTF-8"?>
  <!DOCTYPE svg PUBLIC "-//W3C//DTD SVG 1.0//EN" "http://www.w3.org/TR/2001/REC-SVG-20010904/DTD/svg10.dtd" [
  <!ATTLIST g xmlns:kvg CDATA #FIXED "http://kanjivg.tagaini.net" kvg:element CDATA #IMPLIED kvg:variant CDATA #IMPLIED kvg:partial CDATA #IMPLIED kvg:original CDATA #IMPLIED kvg:part CDATA #IMPLIED kvg:number CDATA #IMPLIED kvg:tradForm CDATA #IMPLIED kvg:radicalForm CDATA #IMPLIED kvg:position CDATA #IMPLIED kvg:radical CDATA #IMPLIED kvg:phon CDATA #IMPLIED >
  <!ATTLIST path xmlns:kvg CDATA #FIXED "http://kanjivg.tagaini.net" kvg:type CDATA #IMPLIED >
  ]>
  <svg xmlns="http://www.w3.org/2000/svg" width="109" height="109" viewBox="0 0 109 109">
<g id="kvg:StrokePaths_098ef" style="fill:none;stroke:#000000;stroke-width:3;stroke-linecap:round;stroke-linejoin:round;">
<g id="kvg:098ef" kvg:element="飯">
	<g id="kvg:098ef-g1" kvg:element="飠" kvg:original="食" kvg:partial="true" kvg:position="left" kvg:radical="general">
		<path style="fill:none;stroke:#808080" id="kvg:098ef-s1" kvg:type="㇒" d="M30.79,15c0.06,0.73,0.23,1.95-0.12,2.93c-2.88,8.14-11.44,19.55-20.42,26.57"/>
		<path style="fill:none;stroke:#808080" id="kvg:098ef-s2" kvg:type="㇔/㇏" d="M32,19.75c5.25,2.38,11.5,7.38,14.25,11.25"/>
		<path style="fill:none;stroke:#808080" id="kvg:098ef-s3" kvg:type="㇑a" d="M30.79,32.01c0.91,0.91,1.28,2.24,1.28,3.32c0,0.93-0.08,4.91-0.08,7.2"/>
		<path style="fill:none;stroke:#808080" id="kvg:098ef-s4" kvg:type="㇕" d="M19.45,45.01c1.18,0.61,2.93,0.77,4.03,0.51c4.65-1.14,12.43-2.7,15.69-3.31c3.19-0.6,4.04,1.22,3.63,4.04c-0.76,5.22-1.8,12.08-2.53,16.64c-0.22,1.37-0.41,2.53-0.56,3.38"/>
		<path style="fill:none;stroke-width:4;" id="kvg:098ef-s5" kvg:type="㇐a" d="M21.71,56.53c4.67-0.91,13.79-2.53,18.78-3.16"/>
<circle cx="21.71" cy="56.53" r="5" style="fill:red;stroke:red;" />
	</g>
	<g id="kvg:098ef-g2" kvg:element="反" kvg:position="right" kvg:phon="反">
		<g id="kvg:098ef-g3" kvg:element="厂">
		</g>
		<g id="kvg:098ef-g4" kvg:element="又">
		</g>
	</g>
</g>
</g></svg>