<?xml version="1.0" encoding="UTF-8"?>
  <!DOCTYPE svg PUBLIC "-//W3C//DTD SVG 1.0//EN" "http://www.w3.org/TR/2001/REC-SVG-20010904/DTD/svg10.dtd" [
  <!ATTLIST g xmlns:kvg CDATA #FIXED "http://kanjivg.tagaini.net" kvg:element CDATA #IMPLIED kvg:variant CDATA #IMPLIED kvg:partial CDATA #IMPLIED kvg:original CDATA #IMPLIED kvg:part CDATA #IMPLIED kvg:number CDATA #IMPLIED kvg:tradForm CDATA #IMPLIED kvg:radicalForm CDATA #IMPLIED kvg:position CDATA #IMPLIED kvg:radical CDATA #IMPLIED kvg:phon CDATA #IMPLIED >
  <!ATTLIST path xmlns:kvg CDATA #FIXED "http://kanjivg.tagaini.net" kvg:type CDATA #IMPLIED >
  ]>
  <svg xmlns="http://www.w3.org/2000/svg" width="109" height="109" viewBox="0 0 109 109">
<g id="kvg:StrokePaths_098fc" style="fill:none;stroke:#000000;stroke-width:3;stroke-linecap:round;stroke-linejoin:round;">
<g id="kvg:098fc" kvg:element="飼">
	<g id="kvg:098fc-g1" kvg:element="飠" kvg:original="食" kvg:partial="true" kvg:position="left" kvg:radical="general">
		<path style="fill:none;stroke:#808080" id="kvg:098fc-s1" kvg:type="㇒" d="M30.04,12.25c0.06,0.69,0.22,1.84-0.11,2.77C27.19,22.7,19.12,33.88,10.5,41.5"/>
		<path style="fill:none;stroke:#808080" id="kvg:098fc-s2" kvg:type="㇔/㇏" d="M32.5,17.88c5.29,2.27,11.51,6.57,14.5,11.38"/>
		<path style="fill:none;stroke:#808080" id="kvg:098fc-s3" kvg:type="㇑a" d="M30.54,31.01c0.85,0.85,1.53,2.38,1.53,3.32c0,3.54-0.08,4.66-0.08,6.95"/>
		<path style="fill:none;stroke:#808080" id="kvg:098fc-s4" kvg:type="㇕" d="M18.45,43.51c1.3,0.49,2.51,0.54,4.11,0.27c5.35-0.92,17.36-2.57,18.4-2.72c2.29-0.32,2.98,1.17,2.77,2.63c-0.7,4.88-1.7,14.61-2.21,19.78c-0.2,2.03-0.32,3.39-0.32,3.55"/>
		<path style="fill:none;stroke:#808080" id="kvg:098fc-s5" kvg:type="㇐a" d="M21.46,54.78c4.54-0.41,14.17-1.91,19.78-2.41"/>
		<path style="fill:none;stroke:#808080" id="kvg:098fc-s6" kvg:type="㇐a" d="M21.62,66.6c4.11-0.43,12.76-1.73,18.71-2.47"/>
		<path style="fill:none;stroke-width:4;" id="kvg:098fc-s7" kvg:type="㇙" d="M18.87,44.01c0.87,0.87,1.53,2.24,1.53,3.49c0,0.93,0.17,36.93,0.17,39.22c0,6.78,0.34,6.65,4.56,3.66C29.88,87,34,84,39.25,80.75"/>
<circle cx="18.87" cy="44.01" r="5" style="fill:red;stroke:red;" />
	</g>
	<g id="kvg:098fc-g2" kvg:element="司" kvg:position="right" kvg:phon="司">
		<g id="kvg:098fc-g3" kvg:element="一">
		</g>
		<g id="kvg:098fc-g4" kvg:element="口">
		</g>
	</g>
</g>
</g></svg>