<?xml version="1.0" encoding="UTF-8"?>
  <!DOCTYPE svg PUBLIC "-//W3C//DTD SVG 1.0//EN" "http://www.w3.org/TR/2001/REC-SVG-20010904/DTD/svg10.dtd" [
  <!ATTLIST g xmlns:kvg CDATA #FIXED "http://kanjivg.tagaini.net" kvg:element CDATA #IMPLIED kvg:variant CDATA #IMPLIED kvg:partial CDATA #IMPLIED kvg:original CDATA #IMPLIED kvg:part CDATA #IMPLIED kvg:number CDATA #IMPLIED kvg:tradForm CDATA #IMPLIED kvg:radicalForm CDATA #IMPLIED kvg:position CDATA #IMPLIED kvg:radical CDATA #IMPLIED kvg:phon CDATA #IMPLIED >
  <!ATTLIST path xmlns:kvg CDATA #FIXED "http://kanjivg.tagaini.net" kvg:type CDATA #IMPLIED >
  ]>
  <svg xmlns="http://www.w3.org/2000/svg" width="109" height="109" viewBox="0 0 109 109">
<g id="kvg:StrokePaths_098f2" style="fill:none;stroke:#000000;stroke-width:3;stroke-linecap:round;stroke-linejoin:round;">
<g id="kvg:098f2" kvg:element="飲">
	<g id="kvg:098f2-g1" kvg:element="飠" kvg:original="食" kvg:partial="true" kvg:position="left" kvg:radical="general" kvg:phon="食">
		<path style="fill:none;stroke:#808080" id="kvg:098f2-s1" kvg:type="㇒" d="M31.53,14.5c0.06,0.73,0.24,1.94-0.12,2.92c-2.96,8.1-11.79,20.97-21.04,27.95"/>
		<path style="fill:none;stroke:#808080" id="kvg:098f2-s2" kvg:type="㇔/㇏" d="M33.5,19.5c5.48,2.15,11.9,6.21,15,10.75"/>
		<path style="fill:none;stroke:#808080" id="kvg:098f2-s3" kvg:type="㇑a" d="M32.79,32.26c0.85,0.85,1.28,2.38,1.28,3.32c0,3.54-0.08,5.92-0.08,8.2"/>
		<path style="fill:none;stroke:#808080" id="kvg:098f2-s4" kvg:type="㇕" d="M20.01,46.32c1.61,0.8,2.86,0.43,4.86,0.03c5.87-1.17,15.18-2.91,16.08-3.04c2.3-0.32,2.98,1.17,2.77,2.63c-0.71,4.9-2.07,13.76-2.78,18.54c-0.27,1.86-0.45,3.1-0.45,3.26"/>
		<path style="fill:none;stroke-width:4;" id="kvg:098f2-s5" kvg:type="㇐a" d="M22.71,57.53c4.17-0.91,13.42-2.41,18.53-3.16"/>
<circle cx="22.71" cy="57.53" r="5" style="fill:red;stroke:red;" />
	</g>
	<g id="kvg:098f2-g2" kvg:element="欠" kvg:position="right">
	</g>
</g>
</g></svg>