<?xml version="1.0" encoding="UTF-8"?>
  <!DOCTYPE svg PUBLIC "-//W3C//DTD SVG 1.0//EN" "http://www.w3.org/TR/2001/REC-SVG-20010904/DTD/svg10.dtd" [
  <!ATTLIST g xmlns:kvg CDATA #FIXED "http://kanjivg.tagaini.net" kvg:element CDATA #IMPLIED kvg:variant CDATA #IMPLIED kvg:partial CDATA #IMPLIED kvg:original CDATA #IMPLIED kvg:part CDATA #IMPLIED kvg:number CDATA #IMPLIED kvg:tradForm CDATA #IMPLIED kvg:radicalForm CDATA #IMPLIED kvg:position CDATA #IMPLIED kvg:radical CDATA #IMPLIED kvg:phon CDATA #IMPLIED >
  <!ATTLIST path xmlns:kvg CDATA #FIXED "http://kanjivg.tagaini.net" kvg:type CDATA #IMPLIED >
  ]>
  <svg xmlns="http://www.w3.org/2000/svg" width="109" height="109" viewBox="0 0 109 109">
<g id="kvg:StrokePaths_09928" style="fill:none;stroke:#000000;stroke-width:3;stroke-linecap:round;stroke-linejoin:round;">
<g id="kvg:09928" kvg:element="館">
	<g id="kvg:09928-g1" kvg:element="飠" kvg:original="食" kvg:position="left" kvg:radical="general">
		<path style="fill:none;stroke:#808080" id="kvg:09928-s1" kvg:type="㇒" d="M33.82,12.92c0.06,0.72,0.25,1.91-0.13,2.88c-3.13,7.99-12.18,21.19-21.94,28.08"/>
		<path style="fill:none;stroke:#808080" id="kvg:09928-s2" kvg:type="㇔/㇏" d="M36.12,19.62c4.66,2.93,9.41,7.49,12.13,11.63"/>
		<path style="fill:none;stroke:#808080" id="kvg:09928-s3" kvg:type="㇑a" d="M33.04,31.04c0.77,0.77,1.28,1.97,1.28,2.97c0,2.36-0.08,4.47-0.08,6.93"/>
		<path style="fill:none;stroke:#808080" id="kvg:09928-s4" kvg:type="㇕" d="M21.76,42.45c0.87,0.42,2.09,0.76,4,0.47c5.11-0.78,15.07-2.4,16.05-2.55c2.27-0.35,3.2,1.3,2.99,2.92c-0.73,5.68-1.77,17.36-2.25,23.09c-0.16,1.89-0.25,3.14-0.25,3.3"/>
		<path style="fill:none;stroke:#808080" id="kvg:09928-s5" kvg:type="㇐a" d="M23.77,55.16c3.61-0.28,13.73-1.78,18.82-2.26"/>
		<path style="fill:none;stroke:#808080" id="kvg:09928-s6" kvg:type="㇐a" d="M23.68,69.01c4.07-0.48,11.32-1.51,17.51-2.3"/>
		<path style="fill:none;stroke:#808080" id="kvg:09928-s7" kvg:type="㇙" d="M21.45,42.75c0.9,0.9,1.26,2.28,1.26,3.32c0,2.93-0.08,43.68-0.08,46.22c0,3.2,0.87,3.58,3.08,1.78c3.86-3.15,11.61-9.29,15.16-11.63"/>
		<path style="fill:none;stroke:#808080" id="kvg:09928-s8" kvg:type="㇔" d="M38.25,74.38c2.61,3.09,6.71,11.34,8.2,17.88"/>
	</g>
	<g id="kvg:09928-g2" kvg:element="官" kvg:position="right" kvg:phon="官">
		<g id="kvg:09928-g3" kvg:element="宀" kvg:position="top">
			<path style="fill:none;stroke:#808080" id="kvg:09928-s9" kvg:type="㇑a" d="M70.2,12.54c1.01,1.01,1.85,2.21,1.85,3.71c0,3.51-0.06,8.14-0.06,10.97"/>
			<g id="kvg:09928-g4" kvg:element="冖">
				<path style="fill:none;stroke-width:4;" id="kvg:09928-s10" kvg:type="㇔" d="M54.75,29c-0.12,4.5-1.07,10.41-2.45,15.32"/>
<circle cx="54.75" cy="29" r="5" style="fill:red;stroke:red;" />
			</g>
		</g>
		<g id="kvg:09928-g5" kvg:position="bottom">
			<g id="kvg:09928-g6" kvg:element="口">
			</g>
		</g>
	</g>
</g>
</g></svg>