<?xml version="1.0" encoding="UTF-8"?>
  <!DOCTYPE svg PUBLIC "-//W3C//DTD SVG 1.0//EN" "http://www.w3.org/TR/2001/REC-SVG-20010904/DTD/svg10.dtd" [
  <!ATTLIST g xmlns:kvg CDATA #FIXED "http://kanjivg.tagaini.net" kvg:element CDATA #IMPLIED kvg:variant CDATA #IMPLIED kvg:partial CDATA #IMPLIED kvg:original CDATA #IMPLIED kvg:part CDATA #IMPLIED kvg:number CDATA #IMPLIED kvg:tradForm CDATA #IMPLIED kvg:radicalForm CDATA #IMPLIED kvg:position CDATA #IMPLIED kvg:radical CDATA #IMPLIED kvg:phon CDATA #IMPLIED >
  <!ATTLIST path xmlns:kvg CDATA #FIXED "http://kanjivg.tagaini.net" kvg:type CDATA #IMPLIED >
  ]>
  <svg xmlns="http://www.w3.org/2000/svg" width="109" height="109" viewBox="0 0 109 109">
<g id="kvg:StrokePaths_09996" style="fill:none;stroke:#000000;stroke-width:3;stroke-linecap:round;stroke-linejoin:round;">
<g id="kvg:09996" kvg:element="首" kvg:radical="general">
	<g id="kvg:09996-g1" kvg:position="top">
		<path style="fill:none;stroke:#808080" id="kvg:09996-s1" kvg:type="㇔" d="M35.25,17.5c2.93,1.85,7.58,7.59,8.31,10.47"/>
		<path style="fill:none;stroke:#808080" id="kvg:09996-s2" kvg:type="㇒" d="M69.97,13.68c0.53,0.82,0.4,2.07-0.14,3.35c-1.42,3.32-4.2,8.22-7.83,12.22"/>
		<path style="fill:none;stroke:#808080" id="kvg:09996-s3" kvg:type="㇐" d="M15.63,36.23c2.06,0.54,5,0.65,7.88,0.29c19.56-2.42,45.12-5.14,62.68-6.23c3.42-0.21,5.48,0.01,7.19,0.28"/>
	</g>
	<g id="kvg:09996-g2" kvg:element="自" kvg:position="bottom">
		<path style="fill:none;stroke-width:4;" id="kvg:09996-s4" kvg:type="㇒" d="M52.77,35.67c0.23,0.83,0.12,2.01-0.05,2.45c-1.22,3.12-2.97,7.1-6.42,10.77"/>
<circle cx="52.77" cy="35.67" r="5" style="fill:red;stroke:red;" />
		<g id="kvg:09996-g3" kvg:element="目">
		</g>
	</g>
</g>
</g></svg>