<?xml version="1.0" encoding="UTF-8"?>
  <!DOCTYPE svg PUBLIC "-//W3C//DTD SVG 1.0//EN" "http://www.w3.org/TR/2001/REC-SVG-20010904/DTD/svg10.dtd" [
  <!ATTLIST g xmlns:kvg CDATA #FIXED "http://kanjivg.tagaini.net" kvg:element CDATA #IMPLIED kvg:variant CDATA #IMPLIED kvg:partial CDATA #IMPLIED kvg:original CDATA #IMPLIED kvg:part CDATA #IMPLIED kvg:number CDATA #IMPLIED kvg:tradForm CDATA #IMPLIED kvg:radicalForm CDATA #IMPLIED kvg:position CDATA #IMPLIED kvg:radical CDATA #IMPLIED kvg:phon CDATA #IMPLIED >
  <!ATTLIST path xmlns:kvg CDATA #FIXED "http://kanjivg.tagaini.net" kvg:type CDATA #IMPLIED >
  ]>
  <svg xmlns="http://www.w3.org/2000/svg" width="109" height="109" viewBox="0 0 109 109">
<g id="kvg:StrokePaths_09999" style="fill:none;stroke:#000000;stroke-width:3;stroke-linecap:round;stroke-linejoin:round;">
<g id="kvg:09999" kvg:element="香" kvg:radical="general">
	<g id="kvg:09999-g1" kvg:element="禾" kvg:position="top">
		<g id="kvg:09999-g2" kvg:element="丿" kvg:position="top">
			<path style="fill:none;stroke:#808080" id="kvg:09999-s1" kvg:type="㇒" d="M65.23,10.73c0,0.77-0.48,1.39-1.77,2.14c-4.44,2.56-16.84,7.14-33.18,10"/>
		</g>
		<g id="kvg:09999-g3" kvg:element="木" kvg:position="bottom">
			<path style="fill:none;stroke:#808080" id="kvg:09999-s2" kvg:type="㇐" d="M19.83,37.05c3.03,0.92,6.11,0.55,9.19,0.16c10.11-1.27,31.35-4.46,44.5-5.83c3.46-0.36,7.03-0.45,10.46,0.18"/>
			<path style="fill:none;stroke:#808080" id="kvg:09999-s3" kvg:type="㇑" d="M52.73,21.06c0.92,0.92,1.08,2.19,1.08,3.85c0,6.46-0.04,16.84-0.04,27.59c0,1.8-0.02,3.57-0.02,5.25"/>
			<path style="fill:none;stroke-width:4;" id="kvg:09999-s4" kvg:type="㇒" d="M47.98,35.41c0,1.09-0.95,2.31-2.09,3.67c-7.48,8.93-19.42,19.21-31.13,24.39"/>
<circle cx="47.98" cy="35.41" r="5" style="fill:red;stroke:red;" />
		</g>
	</g>
	<g id="kvg:09999-g4" kvg:element="日" kvg:position="bottom">
	</g>
</g>
</g></svg>