<?xml version="1.0" encoding="UTF-8"?>
  <!DOCTYPE svg PUBLIC "-//W3C//DTD SVG 1.0//EN" "http://www.w3.org/TR/2001/REC-SVG-20010904/DTD/svg10.dtd" [
  <!ATTLIST g xmlns:kvg CDATA #FIXED "http://kanjivg.tagaini.net" kvg:element CDATA #IMPLIED kvg:variant CDATA #IMPLIED kvg:partial CDATA #IMPLIED kvg:original CDATA #IMPLIED kvg:part CDATA #IMPLIED kvg:number CDATA #IMPLIED kvg:tradForm CDATA #IMPLIED kvg:radicalForm CDATA #IMPLIED kvg:position CDATA #IMPLIED kvg:radical CDATA #IMPLIED kvg:phon CDATA #IMPLIED >
  <!ATTLIST path xmlns:kvg CDATA #FIXED "http://kanjivg.tagaini.net" kvg:type CDATA #IMPLIED >
  ]>
  <svg xmlns="http://www.w3.org/2000/svg" width="109" height="109" viewBox="0 0 109 109">
<g id="kvg:StrokePaths_099ac" style="fill:none;stroke:#000000;stroke-width:3;stroke-linecap:round;stroke-linejoin:round;">
<g id="kvg:099ac" kvg:element="馬" kvg:radical="general">
	<path style="fill:none;stroke:#808080" id="kvg:099ac-s1" kvg:type="㇑" d="M28.5,17c0.75,1,1.2,2.25,1.2,3.62c0,5.72,0.04,26.84-0.13,39.38c-0.03,2-0.06,3.76-0.1,5.2"/>
	<path style="fill:none;stroke:#808080" id="kvg:099ac-s2" kvg:type="㇐b" d="M31.03,19.3c11.22-1.3,37.4-4.84,42.22-5.55c1.68-0.25,4.53-0.53,5.38-0.35"/>
	<path style="fill:none;stroke:#808080" id="kvg:099ac-s3" kvg:type="㇑a" d="M53.13,17.82c0.62,1.18,0.82,2.18,0.82,3.55c0,6.64-0.23,28.88-0.23,39.08"/>
	<path style="fill:none;stroke-width:4;" id="kvg:099ac-s4" kvg:type="㇐b" d="M30.78,33.8C42,32.5,66.44,29.71,71.25,29c1.68-0.25,4.53-0.53,5.38-0.35"/>
<circle cx="30.78" cy="33.8" r="5" style="fill:red;stroke:red;" />
	<g id="kvg:099ac-g1" kvg:element="灬" kvg:variant="true" kvg:original="火">
	</g>
</g>
</g></svg>