<?xml version="1.0" encoding="UTF-8"?>
  <!DOCTYPE svg PUBLIC "-//W3C//DTD SVG 1.0//EN" "http://www.w3.org/TR/2001/REC-SVG-20010904/DTD/svg10.dtd" [
  <!ATTLIST g xmlns:kvg CDATA #FIXED "http://kanjivg.tagaini.net" kvg:element CDATA #IMPLIED kvg:variant CDATA #IMPLIED kvg:partial CDATA #IMPLIED kvg:original CDATA #IMPLIED kvg:part CDATA #IMPLIED kvg:number CDATA #IMPLIED kvg:tradForm CDATA #IMPLIED kvg:radicalForm CDATA #IMPLIED kvg:position CDATA #IMPLIED kvg:radical CDATA #IMPLIED kvg:phon CDATA #IMPLIED >
  <!ATTLIST path xmlns:kvg CDATA #FIXED "http://kanjivg.tagaini.net" kvg:type CDATA #IMPLIED >
  ]>
  <svg xmlns="http://www.w3.org/2000/svg" width="109" height="109" viewBox="0 0 109 109">
<g id="kvg:StrokePaths_099c5" style="fill:none;stroke:#000000;stroke-width:3;stroke-linecap:round;stroke-linejoin:round;">
<g id="kvg:099c5" kvg:element="駅">
	<g id="kvg:099c5-g1" kvg:element="馬" kvg:position="left" kvg:radical="general">
		<path style="fill:none;stroke:#808080" id="kvg:099c5-s1" kvg:type="㇑" d="M16.24,17.12c0.76,0.63,1.5,1.69,1.49,2.88c-0.04,7.8-0.57,24.25-0.67,34.5c-0.02,2.35,0.09,3.32-0.31,5.75"/>
		<path style="fill:none;stroke:#808080" id="kvg:099c5-s2" kvg:type="㇐b" d="M18.23,18.15c4.39-0.65,17.37-2.21,22.41-2.87c1.63-0.21,3.26-0.51,4.9-0.21"/>
		<path style="fill:none;stroke:#808080" id="kvg:099c5-s3" kvg:type="㇑a" d="M30.31,17.82c0.49,0.49,0.95,1.46,0.95,2.49c0,6.17-0.25,26.44-0.25,35.66"/>
		<path style="fill:none;stroke:#808080" id="kvg:099c5-s4" kvg:type="㇐b" d="M18.41,32.09c5.46-0.51,16.44-2.11,21.13-2.77c1.19-0.17,3.34-0.57,4.56-0.25"/>
		<path style="fill:none;stroke:#808080" id="kvg:099c5-s5" kvg:type="㇐b" d="M18.51,44.88c5.61-0.52,16.7-1.95,21.02-2.57c1.15-0.17,3.05-0.71,4.17-0.2"/>
		<path style="fill:none;stroke:#808080" id="kvg:099c5-s6" kvg:type="㇆a" d="M17.74,59.65c6.17-1.41,20.29-4.04,23.68-4.63c4.33-0.76,4.19,2.81,3.95,6.45C44.7,71.81,42.59,83.13,39.75,90c-3,7.25-5.62,1.62-7.21-0.86"/>
		<g id="kvg:099c5-g2" kvg:element="灬" kvg:variant="true" kvg:original="火">
			<path style="fill:none;stroke-width:4;" id="kvg:099c5-s7" kvg:type="㇔" d="M9.79,73.5c0.28,6.41-0.57,12.04-0.87,13.32"/>
<circle cx="9.79" cy="73.5" r="5" style="fill:red;stroke:red;" />
		</g>
	</g>
	<g id="kvg:099c5-g3" kvg:element="尺" kvg:position="right" kvg:phon="尺/睪V">
		<g id="kvg:099c5-g4" kvg:element="尸">
			<g id="kvg:099c5-g5" kvg:element="八" kvg:part="1">
			</g>
		</g>
		<g id="kvg:099c5-g6" kvg:element="八" kvg:part="2">
		</g>
	</g>
</g>
</g></svg>