<?xml version="1.0" encoding="UTF-8"?>
  <!DOCTYPE svg PUBLIC "-//W3C//DTD SVG 1.0//EN" "http://www.w3.org/TR/2001/REC-SVG-20010904/DTD/svg10.dtd" [
  <!ATTLIST g xmlns:kvg CDATA #FIXED "http://kanjivg.tagaini.net" kvg:element CDATA #IMPLIED kvg:variant CDATA #IMPLIED kvg:partial CDATA #IMPLIED kvg:original CDATA #IMPLIED kvg:part CDATA #IMPLIED kvg:number CDATA #IMPLIED kvg:tradForm CDATA #IMPLIED kvg:radicalForm CDATA #IMPLIED kvg:position CDATA #IMPLIED kvg:radical CDATA #IMPLIED kvg:phon CDATA #IMPLIED >
  <!ATTLIST path xmlns:kvg CDATA #FIXED "http://kanjivg.tagaini.net" kvg:type CDATA #IMPLIED >
  ]>
  <svg xmlns="http://www.w3.org/2000/svg" width="109" height="109" viewBox="0 0 109 109">
<g id="kvg:StrokePaths_09a13" style="fill:none;stroke:#000000;stroke-width:3;stroke-linecap:round;stroke-linejoin:round;">
<g id="kvg:09a13" kvg:element="験">
	<g id="kvg:09a13-g1" kvg:element="馬" kvg:position="left" kvg:radical="general">
		<path style="fill:none;stroke:#808080" id="kvg:09a13-s1" kvg:type="㇑" d="M16.49,17.62c0.76,0.76,1.25,1.82,1.24,3.38c-0.02,7.37-0.07,24.26-0.17,34.5c-0.02,2.35,0.07,3.75-0.56,5.75"/>
		<path style="fill:none;stroke:#808080" id="kvg:09a13-s2" kvg:type="㇐b" d="M18.02,19.51c7.48-1.26,17.66-2.93,22.01-3.17c1.59-0.09,2.96-0.21,4-0.03"/>
		<path style="fill:none;stroke:#808080" id="kvg:09a13-s3" kvg:type="㇑a" d="M28.81,20.57c1,1,1.45,2.18,1.45,3.49c0,6.17-0.06,24.21-0.25,33.91"/>
		<path style="fill:none;stroke:#808080" id="kvg:09a13-s4" kvg:type="㇐b" d="M18.16,33.34c6.26-0.58,16.75-2.85,19.44-3.24c0.94-0.14,2.53-0.24,3-0.02"/>
		<path style="fill:none;stroke-width:4;" id="kvg:09a13-s5" kvg:type="㇐b" d="M18.26,45.62c6.26-0.59,15.75-2.35,18.44-2.74c0.94-0.14,2.53-0.25,3-0.03"/>
<circle cx="18.26" cy="45.62" r="5" style="fill:red;stroke:red;" />
		<g id="kvg:09a13-g2" kvg:element="灬" kvg:variant="true" kvg:original="火">
		</g>
	</g>
	<g id="kvg:09a13-g3" kvg:element="㑒" kvg:original="僉" kvg:partial="true" kvg:position="right" kvg:phon="僉V">
		<g id="kvg:09a13-g4" kvg:element="人" kvg:position="top">
		</g>
		<g id="kvg:09a13-g5" kvg:position="bottom">
			<g id="kvg:09a13-g6" kvg:element="一">
			</g>
			<g id="kvg:09a13-g7" kvg:element="口">
			</g>
			<g id="kvg:09a13-g8" kvg:element="人">
			</g>
		</g>
	</g>
</g>
</g></svg>