<?xml version="1.0" encoding="UTF-8"?>
  <!DOCTYPE svg PUBLIC "-//W3C//DTD SVG 1.0//EN" "http://www.w3.org/TR/2001/REC-SVG-20010904/DTD/svg10.dtd" [
  <!ATTLIST g xmlns:kvg CDATA #FIXED "http://kanjivg.tagaini.net" kvg:element CDATA #IMPLIED kvg:variant CDATA #IMPLIED kvg:partial CDATA #IMPLIED kvg:original CDATA #IMPLIED kvg:part CDATA #IMPLIED kvg:number CDATA #IMPLIED kvg:tradForm CDATA #IMPLIED kvg:radicalForm CDATA #IMPLIED kvg:position CDATA #IMPLIED kvg:radical CDATA #IMPLIED kvg:phon CDATA #IMPLIED >
  <!ATTLIST path xmlns:kvg CDATA #FIXED "http://kanjivg.tagaini.net" kvg:type CDATA #IMPLIED >
  ]>
  <svg xmlns="http://www.w3.org/2000/svg" width="109" height="109" viewBox="0 0 109 109">
<g id="kvg:StrokePaths_09aa8" style="fill:none;stroke:#000000;stroke-width:3;stroke-linecap:round;stroke-linejoin:round;">
<g id="kvg:09aa8" kvg:element="骨" kvg:radical="general">
	<g id="kvg:09aa8-g1" kvg:position="top">
		<path style="fill:none;stroke:#808080" id="kvg:09aa8-s1" kvg:type="㇑a" d="M34.77,12.12c0.81,0.81,1.43,1.88,1.43,3.15c0,2.62-0.06,19.72-0.06,24.05"/>
		<path style="fill:none;stroke:#808080" id="kvg:09aa8-s2" kvg:type="㇕b" d="M36.97,13.97c3.71-0.42,24.17-2.89,30.16-3.35c3.24-0.25,4.6,0.68,4.58,3.5c-0.04,4.33-0.21,13.5-0.21,21.27"/>
		<path style="fill:none;stroke:#808080" id="kvg:09aa8-s3" kvg:type="㇑a" d="M52.27,24.37c0.74,0.74,0.93,2,0.93,3.15c0,4.72-0.06,7.6-0.06,10.3"/>
		<path style="fill:none;stroke-width:4;" id="kvg:09aa8-s4" kvg:type="㇐a" d="M53.97,24.97c3.9-0.72,14.39-1.96,16.78-2.22"/>
<circle cx="53.97" cy="24.97" r="5" style="fill:red;stroke:red;" />
	</g>
	<g id="kvg:09aa8-g2" kvg:element="月" kvg:position="bottom">
	</g>
</g>
</g></svg>