<?xml version="1.0" encoding="UTF-8"?>
  <!DOCTYPE svg PUBLIC "-//W3C//DTD SVG 1.0//EN" "http://www.w3.org/TR/2001/REC-SVG-20010904/DTD/svg10.dtd" [
  <!ATTLIST g xmlns:kvg CDATA #FIXED "http://kanjivg.tagaini.net" kvg:element CDATA #IMPLIED kvg:variant CDATA #IMPLIED kvg:partial CDATA #IMPLIED kvg:original CDATA #IMPLIED kvg:part CDATA #IMPLIED kvg:number CDATA #IMPLIED kvg:tradForm CDATA #IMPLIED kvg:radicalForm CDATA #IMPLIED kvg:position CDATA #IMPLIED kvg:radical CDATA #IMPLIED kvg:phon CDATA #IMPLIED >
  <!ATTLIST path xmlns:kvg CDATA #FIXED "http://kanjivg.tagaini.net" kvg:type CDATA #IMPLIED >
  ]>
  <svg xmlns="http://www.w3.org/2000/svg" width="109" height="109" viewBox="0 0 109 109">
<g id="kvg:StrokePaths_09ad8" style="fill:none;stroke:#000000;stroke-width:3;stroke-linecap:round;stroke-linejoin:round;">
<g id="kvg:09ad8" kvg:element="高" kvg:radical="general">
	<g id="kvg:09ad8-g1" kvg:position="top">
		<g id="kvg:09ad8-g2" kvg:element="亠">
			<path style="fill:none;stroke:#808080" id="kvg:09ad8-s1" kvg:type="㇑a" d="M52.47,11.75c1.08,1.08,1.48,2.25,1.48,4.22c0,1.53-0.12,4.28-0.12,5.45"/>
			<path style="fill:none;stroke:#808080" id="kvg:09ad8-s2" kvg:type="㇐" d="M22.9,25.7c2.68,0.3,4.96,0.26,7.47-0.04c14.76-1.78,35.83-4.16,49.3-5.17c2.89-0.22,4.99-0.12,6.81,0.33"/>
		</g>
		<g id="kvg:09ad8-g3" kvg:element="口">
			<path style="fill:none;stroke:#808080" id="kvg:09ad8-s3" kvg:type="㇑" d="M36.25,34.75c1,0.63,1.5,1.5,1.78,2.89c0.72,3.59,1.36,7.37,2.05,11.85c0.2,1.3,0.17,1.82,0.44,3.01"/>
			<path style="fill:none;stroke:#808080" id="kvg:09ad8-s4" kvg:type="㇕b" d="M39.05,36.33c9.95-1.71,23.99-3.65,29.61-4.1c2.96-0.23,3.83,1.02,3.14,3.31c-0.88,2.93-2.17,7.01-3.32,10.2"/>
			<path style="fill:none;stroke:#808080" id="kvg:09ad8-s5" kvg:type="㇐b" d="M41.28,49.94c6.57-0.42,16.36-1.87,25.72-2.71c1.3-0.12,2.59-0.22,3.85-0.31"/>
		</g>
	</g>
	<g id="kvg:09ad8-g4" kvg:position="bottom">
		<g id="kvg:09ad8-g5" kvg:element="冂">
			<path style="fill:none;stroke-width:4;" id="kvg:09ad8-s6" kvg:type="㇑" d="M21,60.25c1.31,1.31,1.9,2.76,2.21,5c0.79,5.62,2.21,18.19,3.16,26.99c0.15,1.39,0.28,2.67,0.38,3.76"/>
<circle cx="21" cy="60.25" r="5" style="fill:red;stroke:red;" />
		</g>
		<g id="kvg:09ad8-g6" kvg:element="口">
		</g>
	</g>
</g>
</g></svg>