<?xml version="1.0" encoding="UTF-8"?>
  <!DOCTYPE svg PUBLIC "-//W3C//DTD SVG 1.0//EN" "http://www.w3.org/TR/2001/REC-SVG-20010904/DTD/svg10.dtd" [
  <!ATTLIST g xmlns:kvg CDATA #FIXED "http://kanjivg.tagaini.net" kvg:element CDATA #IMPLIED kvg:variant CDATA #IMPLIED kvg:partial CDATA #IMPLIED kvg:original CDATA #IMPLIED kvg:part CDATA #IMPLIED kvg:number CDATA #IMPLIED kvg:tradForm CDATA #IMPLIED kvg:radicalForm CDATA #IMPLIED kvg:position CDATA #IMPLIED kvg:radical CDATA #IMPLIED kvg:phon CDATA #IMPLIED >
  <!ATTLIST path xmlns:kvg CDATA #FIXED "http://kanjivg.tagaini.net" kvg:type CDATA #IMPLIED >
  ]>
  <svg xmlns="http://www.w3.org/2000/svg" width="109" height="109" viewBox="0 0 109 109">
<g id="kvg:StrokePaths_09ce5" style="fill:none;stroke:#000000;stroke-width:3;stroke-linecap:round;stroke-linejoin:round;">
<g id="kvg:09ce5" kvg:element="鳥" kvg:radical="general">
	<path style="fill:none;stroke:#808080" id="kvg:09ce5-s1" kvg:type="㇒" d="M49.72,10.68c0.03,0.27,0.07,0.7-0.06,1.08c-0.76,2.28-5.15,7.3-11.15,10.37"/>
	<path style="fill:none;stroke:#808080" id="kvg:09ce5-s2" kvg:type="㇑" d="M32.88,23.32c0.96,0.8,1.57,2.55,1.57,3.69c0,6.86,0.02,24.01-0.12,35.24c-0.03,2.27-0.06,4.3-0.11,5.95"/>
	<path style="fill:none;stroke:#808080" id="kvg:09ce5-s3" kvg:type="㇕a" d="M35.8,25.86c9.2-1.73,23.7-4.36,29.64-4.87c3.06-0.26,4.32,2.26,4.04,3.99c-0.15,0.92-1.49,7.58-3.2,14.78c-0.26,1.09-0.52,2.18-0.78,3.24"/>
	<path style="fill:none;stroke:#808080" id="kvg:09ce5-s4" kvg:type="㇐a" d="M35.86,35.44c3.64-0.69,26.27-4.19,30.87-4.38"/>
	<path style="fill:none;stroke-width:4;" id="kvg:09ce5-s5" kvg:type="㇐a" d="M35.49,45.53c7.01-1.03,21.26-3.53,29.23-4.2"/>
<circle cx="35.49" cy="45.53" r="5" style="fill:red;stroke:red;" />
	<g id="kvg:09ce5-g1" kvg:element="灬" kvg:variant="true" kvg:original="火">
	</g>
</g>
</g></svg>