<?xml version="1.0" encoding="UTF-8"?>
  <!DOCTYPE svg PUBLIC "-//W3C//DTD SVG 1.0//EN" "http://www.w3.org/TR/2001/REC-SVG-20010904/DTD/svg10.dtd" [
  <!ATTLIST g xmlns:kvg CDATA #FIXED "http://kanjivg.tagaini.net" kvg:element CDATA #IMPLIED kvg:variant CDATA #IMPLIED kvg:partial CDATA #IMPLIED kvg:original CDATA #IMPLIED kvg:part CDATA #IMPLIED kvg:number CDATA #IMPLIED kvg:tradForm CDATA #IMPLIED kvg:radicalForm CDATA #IMPLIED kvg:position CDATA #IMPLIED kvg:radical CDATA #IMPLIED kvg:phon CDATA #IMPLIED >
  <!ATTLIST path xmlns:kvg CDATA #FIXED "http://kanjivg.tagaini.net" kvg:type CDATA #IMPLIED >
  ]>
  <svg xmlns="http://www.w3.org/2000/svg" width="109" height="109" viewBox="0 0 109 109">
<g id="kvg:StrokePaths_09cf4" style="fill:none;stroke:#000000;stroke-width:3;stroke-linecap:round;stroke-linejoin:round;">
<g id="kvg:09cf4" kvg:element="鳴">
	<g id="kvg:09cf4-g1" kvg:element="口" kvg:position="left" kvg:radical="nelson">
		<path style="fill:none;stroke:#808080" id="kvg:09cf4-s1" kvg:type="㇑" d="M13.17,38.73c0.93,0.93,1.5,1.9,1.62,2.77c0.92,3.74,1.68,10.13,2.44,16.01c0.18,1.37,0.34,2.72,0.48,4"/>
		<path style="fill:none;stroke:#808080" id="kvg:09cf4-s2" kvg:type="㇕b" d="M15.29,40.19c6.83-1.31,15.8-3.06,19.14-3.7c1.94-0.37,3.32,1.01,2.9,3.16c-0.89,4.51-1.58,8.97-3.28,15.48"/>
		<path style="fill:none;stroke:#808080" id="kvg:09cf4-s3" kvg:type="㇐b" d="M17.86,58.94c3.8-0.48,9.58-1.5,14.88-2.26c1.29-0.19,2.59-0.37,3.87-0.55"/>
	</g>
	<g id="kvg:09cf4-g2" kvg:element="鳥" kvg:position="right" kvg:radical="tradit">
		<path style="fill:none;stroke:#808080" id="kvg:09cf4-s4" kvg:type="㇒" d="M64.2,9.62c0.08,0.79-0.07,1.54-0.43,2.25c-1.1,2.6-4.06,6.73-7.91,9.27"/>
		<path style="fill:none;stroke:#808080" id="kvg:09cf4-s5" kvg:type="㇑" d="M49.06,20.86c0.85,0.85,1.42,1.76,1.42,3.23c0,6.34-0.18,29.3-0.87,42.42c-0.1,1.81-0.2,3.45-0.32,4.86"/>
		<path style="fill:none;stroke-width:4;" id="kvg:09cf4-s6" kvg:type="㇕a" d="M51.81,23.72c6.73-0.87,22.73-3.18,24.02-3.1c2.51,0.16,3.73,2.15,3.51,4.01c-0.12,0.99-0.84,7.61-1.91,15.86c-0.17,1.32-0.35,2.68-0.54,4.06"/>
<circle cx="51.81" cy="23.72" r="5" style="fill:red;stroke:red;" />
		<g id="kvg:09cf4-g3" kvg:element="灬" kvg:variant="true" kvg:original="火">
		</g>
	</g>
</g>
</g></svg>