<?xml version="1.0" encoding="UTF-8"?>
  <!DOCTYPE svg PUBLIC "-//W3C//DTD SVG 1.0//EN" "http://www.w3.org/TR/2001/REC-SVG-20010904/DTD/svg10.dtd" [
  <!ATTLIST g xmlns:kvg CDATA #FIXED "http://kanjivg.tagaini.net" kvg:element CDATA #IMPLIED kvg:variant CDATA #IMPLIED kvg:partial CDATA #IMPLIED kvg:original CDATA #IMPLIED kvg:part CDATA #IMPLIED kvg:number CDATA #IMPLIED kvg:tradForm CDATA #IMPLIED kvg:radicalForm CDATA #IMPLIED kvg:position CDATA #IMPLIED kvg:radical CDATA #IMPLIED kvg:phon CDATA #IMPLIED >
  <!ATTLIST path xmlns:kvg CDATA #FIXED "http://kanjivg.tagaini.net" kvg:type CDATA #IMPLIED >
  ]>
  <svg xmlns="http://www.w3.org/2000/svg" width="109" height="109" viewBox="0 0 109 109">
<g id="kvg:StrokePaths_09f3b" style="fill:none;stroke:#000000;stroke-width:3;stroke-linecap:round;stroke-linejoin:round;">
<g id="kvg:09f3b" kvg:element="鼻" kvg:radical="general">
	<g id="kvg:09f3b-g1" kvg:element="自" kvg:position="top">
		<path style="fill:none;stroke:#808080" id="kvg:09f3b-s1" kvg:type="㇒" d="M53.48,8.67c0.2,0.96-0.13,1.62-0.5,2.46c-0.98,2.24-1.73,3.24-3.89,5.82"/>
		<g id="kvg:09f3b-g2" kvg:element="目">
			<path style="fill:none;stroke:#808080" id="kvg:09f3b-s2" kvg:type="㇑" d="M39.25,18.65c0.8,0.8,1,1.6,1.09,2.78c0.06,0.77,1.2,20.72,1.2,21.1c0,0.39,0.15,1.7,0.3,2.47"/>
			<path style="fill:none;stroke:#808080" id="kvg:09f3b-s3" kvg:type="㇕a" d="M41.08,20.14c2.51-0.1,24.14-2.33,26.43-2.45c1.91-0.1,3.24,1.31,3.25,3.25c0,0.83-1,9.52-1.9,18.8c-0.11,1.15-0.22,2.31-0.33,3.47"/>
			<path style="fill:none;stroke:#808080" id="kvg:09f3b-s4" kvg:type="㇐a" d="M42.29,27.35c5.96-0.48,22.21-1.48,26.61-1.73"/>
			<path style="fill:none;stroke:#808080" id="kvg:09f3b-s5" kvg:type="㇐a" d="M42.24,35.13c6.65-0.32,19.65-1.66,26.1-1.66"/>
			<path style="fill:none;stroke:#808080" id="kvg:09f3b-s6" kvg:type="㇐a" d="M42.73,43.01c6.52-0.26,18.36-1.36,24.82-1.36"/>
		</g>
	</g>
	<g id="kvg:09f3b-g3" kvg:element="畀" kvg:position="bottom" kvg:phon="畀">
		<g id="kvg:09f3b-g4" kvg:element="田">
			<path style="fill:none;stroke-width:4;" id="kvg:09f3b-s7" kvg:type="㇑" d="M31.74,50.9c0.68,0.68,1.13,1.47,1.28,2.14c0.8,3.7,1.5,8.38,2.49,13.83c0.16,0.91,0.34,1.83,0.52,2.78"/>
<circle cx="31.74" cy="50.9" r="5" style="fill:red;stroke:red;" />
		</g>
		<g id="kvg:09f3b-g5" kvg:element="廾">
			<g id="kvg:09f3b-g6" kvg:element="十" kvg:part="1">
			</g>
			<g id="kvg:09f3b-g7" kvg:element="丿">
			</g>
			<g id="kvg:09f3b-g8" kvg:element="十" kvg:part="2">
			</g>
		</g>
	</g>
</g>
</g></svg>